<?xml version="1.0" encoding="utf-8" standalone="no"?>
<!DOCTYPE svg PUBLIC "-//W3C//DTD SVG 1.1//EN"
  "http://www.w3.org/Graphics/SVG/1.1/DTD/svg11.dtd">
<svg height="388.844525pt" version="1.1" viewBox="0 0 1000.358125 388.844525" width="1000.358125pt" xmlns="http://www.w3.org/2000/svg" xmlns:xlink="http://www.w3.org/1999/xlink">
 <metadata>
  <rdf:RDF xmlns:cc="http://creativecommons.org/ns#" xmlns:dc="http://purl.org/dc/elements/1.1/" xmlns:rdf="http://www.w3.org/1999/02/22-rdf-syntax-ns#">
   <cc:Work>
    <dc:type rdf:resource="http://purl.org/dc/dcmitype/StillImage"/>
    <dc:date>2022-11-03T13:38:43.364656</dc:date>
    <dc:format>image/svg+xml</dc:format>
    <dc:creator>
     <cc:Agent>
      <dc:title>Matplotlib v3.4.2, https://matplotlib.org/</dc:title>
     </cc:Agent>
    </dc:creator>
   </cc:Work>
  </rdf:RDF>
 </metadata>
 <defs>
  <style type="text/css">*{stroke-linecap:butt;stroke-linejoin:round;}</style>
 </defs>
 <g id="figure_1">
  <g id="axes_1">
   <g id="patch_1">
    <path d="M 32.968125 353.2239 
L 993.158125 353.2239 
L 993.158125 35.2559 
L 32.968125 35.2559 
z
" style="fill:#ffffff;"/>
   </g>
   <g id="patch_2">
    <path clip-path="url(#p57fd9bf28a)" d="M 32.968125 -918.6481 
L 993.158125 -918.6481 
L 993.158125 -6006.1361 
L 32.968125 -6006.1361 
z
" style="fill:#e6c3c3;"/>
   </g>
   <g id="patch_3">
    <path clip-path="url(#p57fd9bf28a)" d="M 32.968125 35.2559 
L 993.158125 35.2559 
L 993.158125 -918.6481 
L 32.968125 -918.6481 
z
" style="fill:#e6dcc3;"/>
   </g>
   <g id="patch_4">
    <path clip-path="url(#p57fd9bf28a)" d="M 32.968125 353.2239 
L 993.158125 353.2239 
L 993.158125 35.2559 
L 32.968125 35.2559 
z
" style="fill:#c3e6c3;"/>
   </g>
   <g id="matplotlib.axis_1">
    <g id="xtick_1">
     <g id="text_1">
      <!-- 0 -->
      <g transform="translate(30.423125 366.30265)scale(0.08 -0.08)">
       <defs>
        <path d="M 2034 4250 
Q 1547 4250 1301 3770 
Q 1056 3291 1056 2328 
Q 1056 1369 1301 889 
Q 1547 409 2034 409 
Q 2525 409 2770 889 
Q 3016 1369 3016 2328 
Q 3016 3291 2770 3770 
Q 2525 4250 2034 4250 
z
M 2034 4750 
Q 2819 4750 3233 4129 
Q 3647 3509 3647 2328 
Q 3647 1150 3233 529 
Q 2819 -91 2034 -91 
Q 1250 -91 836 529 
Q 422 1150 422 2328 
Q 422 3509 836 4129 
Q 1250 4750 2034 4750 
z
" id="DejaVuSans-30" transform="scale(0.015625)"/>
       </defs>
       <use xlink:href="#DejaVuSans-30"/>
      </g>
     </g>
    </g>
    <g id="xtick_2">
     <g id="text_2">
      <!-- 20 -->
      <g transform="translate(210.858592 366.30265)scale(0.08 -0.08)">
       <defs>
        <path d="M 1228 531 
L 3431 531 
L 3431 0 
L 469 0 
L 469 531 
Q 828 903 1448 1529 
Q 2069 2156 2228 2338 
Q 2531 2678 2651 2914 
Q 2772 3150 2772 3378 
Q 2772 3750 2511 3984 
Q 2250 4219 1831 4219 
Q 1534 4219 1204 4116 
Q 875 4013 500 3803 
L 500 4441 
Q 881 4594 1212 4672 
Q 1544 4750 1819 4750 
Q 2544 4750 2975 4387 
Q 3406 4025 3406 3419 
Q 3406 3131 3298 2873 
Q 3191 2616 2906 2266 
Q 2828 2175 2409 1742 
Q 1991 1309 1228 531 
z
" id="DejaVuSans-32" transform="scale(0.015625)"/>
       </defs>
       <use xlink:href="#DejaVuSans-32"/>
       <use x="63.623047" xlink:href="#DejaVuSans-30"/>
      </g>
     </g>
    </g>
    <g id="xtick_3">
     <g id="text_3">
      <!-- 40 -->
      <g transform="translate(393.839059 366.30265)scale(0.08 -0.08)">
       <defs>
        <path d="M 2419 4116 
L 825 1625 
L 2419 1625 
L 2419 4116 
z
M 2253 4666 
L 3047 4666 
L 3047 1625 
L 3713 1625 
L 3713 1100 
L 3047 1100 
L 3047 0 
L 2419 0 
L 2419 1100 
L 313 1100 
L 313 1709 
L 2253 4666 
z
" id="DejaVuSans-34" transform="scale(0.015625)"/>
       </defs>
       <use xlink:href="#DejaVuSans-34"/>
       <use x="63.623047" xlink:href="#DejaVuSans-30"/>
      </g>
     </g>
    </g>
    <g id="xtick_4">
     <g id="text_4">
      <!-- 60 -->
      <g transform="translate(576.819526 366.30265)scale(0.08 -0.08)">
       <defs>
        <path d="M 2113 2584 
Q 1688 2584 1439 2293 
Q 1191 2003 1191 1497 
Q 1191 994 1439 701 
Q 1688 409 2113 409 
Q 2538 409 2786 701 
Q 3034 994 3034 1497 
Q 3034 2003 2786 2293 
Q 2538 2584 2113 2584 
z
M 3366 4563 
L 3366 3988 
Q 3128 4100 2886 4159 
Q 2644 4219 2406 4219 
Q 1781 4219 1451 3797 
Q 1122 3375 1075 2522 
Q 1259 2794 1537 2939 
Q 1816 3084 2150 3084 
Q 2853 3084 3261 2657 
Q 3669 2231 3669 1497 
Q 3669 778 3244 343 
Q 2819 -91 2113 -91 
Q 1303 -91 875 529 
Q 447 1150 447 2328 
Q 447 3434 972 4092 
Q 1497 4750 2381 4750 
Q 2619 4750 2861 4703 
Q 3103 4656 3366 4563 
z
" id="DejaVuSans-36" transform="scale(0.015625)"/>
       </defs>
       <use xlink:href="#DejaVuSans-36"/>
       <use x="63.623047" xlink:href="#DejaVuSans-30"/>
      </g>
     </g>
    </g>
    <g id="xtick_5">
     <g id="text_5">
      <!-- 80 -->
      <g transform="translate(759.799993 366.30265)scale(0.08 -0.08)">
       <defs>
        <path d="M 2034 2216 
Q 1584 2216 1326 1975 
Q 1069 1734 1069 1313 
Q 1069 891 1326 650 
Q 1584 409 2034 409 
Q 2484 409 2743 651 
Q 3003 894 3003 1313 
Q 3003 1734 2745 1975 
Q 2488 2216 2034 2216 
z
M 1403 2484 
Q 997 2584 770 2862 
Q 544 3141 544 3541 
Q 544 4100 942 4425 
Q 1341 4750 2034 4750 
Q 2731 4750 3128 4425 
Q 3525 4100 3525 3541 
Q 3525 3141 3298 2862 
Q 3072 2584 2669 2484 
Q 3125 2378 3379 2068 
Q 3634 1759 3634 1313 
Q 3634 634 3220 271 
Q 2806 -91 2034 -91 
Q 1263 -91 848 271 
Q 434 634 434 1313 
Q 434 1759 690 2068 
Q 947 2378 1403 2484 
z
M 1172 3481 
Q 1172 3119 1398 2916 
Q 1625 2713 2034 2713 
Q 2441 2713 2670 2916 
Q 2900 3119 2900 3481 
Q 2900 3844 2670 4047 
Q 2441 4250 2034 4250 
Q 1625 4250 1398 4047 
Q 1172 3844 1172 3481 
z
" id="DejaVuSans-38" transform="scale(0.015625)"/>
       </defs>
       <use xlink:href="#DejaVuSans-38"/>
       <use x="63.623047" xlink:href="#DejaVuSans-30"/>
      </g>
     </g>
    </g>
    <g id="xtick_6">
     <g id="text_6">
      <!-- 100 -->
      <g transform="translate(940.235459 366.30265)scale(0.08 -0.08)">
       <defs>
        <path d="M 794 531 
L 1825 531 
L 1825 4091 
L 703 3866 
L 703 4441 
L 1819 4666 
L 2450 4666 
L 2450 531 
L 3481 531 
L 3481 0 
L 794 0 
L 794 531 
z
" id="DejaVuSans-31" transform="scale(0.015625)"/>
       </defs>
       <use xlink:href="#DejaVuSans-31"/>
       <use x="63.623047" xlink:href="#DejaVuSans-30"/>
       <use x="127.246094" xlink:href="#DejaVuSans-30"/>
      </g>
     </g>
    </g>
    <g id="text_7">
     <!-- Position in Read (bp) -->
     <g transform="translate(461.46 379.564837)scale(0.1 -0.1)">
      <defs>
       <path d="M 1259 4147 
L 1259 2394 
L 2053 2394 
Q 2494 2394 2734 2622 
Q 2975 2850 2975 3272 
Q 2975 3691 2734 3919 
Q 2494 4147 2053 4147 
L 1259 4147 
z
M 628 4666 
L 2053 4666 
Q 2838 4666 3239 4311 
Q 3641 3956 3641 3272 
Q 3641 2581 3239 2228 
Q 2838 1875 2053 1875 
L 1259 1875 
L 1259 0 
L 628 0 
L 628 4666 
z
" id="DejaVuSans-50" transform="scale(0.015625)"/>
       <path d="M 1959 3097 
Q 1497 3097 1228 2736 
Q 959 2375 959 1747 
Q 959 1119 1226 758 
Q 1494 397 1959 397 
Q 2419 397 2687 759 
Q 2956 1122 2956 1747 
Q 2956 2369 2687 2733 
Q 2419 3097 1959 3097 
z
M 1959 3584 
Q 2709 3584 3137 3096 
Q 3566 2609 3566 1747 
Q 3566 888 3137 398 
Q 2709 -91 1959 -91 
Q 1206 -91 779 398 
Q 353 888 353 1747 
Q 353 2609 779 3096 
Q 1206 3584 1959 3584 
z
" id="DejaVuSans-6f" transform="scale(0.015625)"/>
       <path d="M 2834 3397 
L 2834 2853 
Q 2591 2978 2328 3040 
Q 2066 3103 1784 3103 
Q 1356 3103 1142 2972 
Q 928 2841 928 2578 
Q 928 2378 1081 2264 
Q 1234 2150 1697 2047 
L 1894 2003 
Q 2506 1872 2764 1633 
Q 3022 1394 3022 966 
Q 3022 478 2636 193 
Q 2250 -91 1575 -91 
Q 1294 -91 989 -36 
Q 684 19 347 128 
L 347 722 
Q 666 556 975 473 
Q 1284 391 1588 391 
Q 1994 391 2212 530 
Q 2431 669 2431 922 
Q 2431 1156 2273 1281 
Q 2116 1406 1581 1522 
L 1381 1569 
Q 847 1681 609 1914 
Q 372 2147 372 2553 
Q 372 3047 722 3315 
Q 1072 3584 1716 3584 
Q 2034 3584 2315 3537 
Q 2597 3491 2834 3397 
z
" id="DejaVuSans-73" transform="scale(0.015625)"/>
       <path d="M 603 3500 
L 1178 3500 
L 1178 0 
L 603 0 
L 603 3500 
z
M 603 4863 
L 1178 4863 
L 1178 4134 
L 603 4134 
L 603 4863 
z
" id="DejaVuSans-69" transform="scale(0.015625)"/>
       <path d="M 1172 4494 
L 1172 3500 
L 2356 3500 
L 2356 3053 
L 1172 3053 
L 1172 1153 
Q 1172 725 1289 603 
Q 1406 481 1766 481 
L 2356 481 
L 2356 0 
L 1766 0 
Q 1100 0 847 248 
Q 594 497 594 1153 
L 594 3053 
L 172 3053 
L 172 3500 
L 594 3500 
L 594 4494 
L 1172 4494 
z
" id="DejaVuSans-74" transform="scale(0.015625)"/>
       <path d="M 3513 2113 
L 3513 0 
L 2938 0 
L 2938 2094 
Q 2938 2591 2744 2837 
Q 2550 3084 2163 3084 
Q 1697 3084 1428 2787 
Q 1159 2491 1159 1978 
L 1159 0 
L 581 0 
L 581 3500 
L 1159 3500 
L 1159 2956 
Q 1366 3272 1645 3428 
Q 1925 3584 2291 3584 
Q 2894 3584 3203 3211 
Q 3513 2838 3513 2113 
z
" id="DejaVuSans-6e" transform="scale(0.015625)"/>
       <path id="DejaVuSans-20" transform="scale(0.015625)"/>
       <path d="M 2841 2188 
Q 3044 2119 3236 1894 
Q 3428 1669 3622 1275 
L 4263 0 
L 3584 0 
L 2988 1197 
Q 2756 1666 2539 1819 
Q 2322 1972 1947 1972 
L 1259 1972 
L 1259 0 
L 628 0 
L 628 4666 
L 2053 4666 
Q 2853 4666 3247 4331 
Q 3641 3997 3641 3322 
Q 3641 2881 3436 2590 
Q 3231 2300 2841 2188 
z
M 1259 4147 
L 1259 2491 
L 2053 2491 
Q 2509 2491 2742 2702 
Q 2975 2913 2975 3322 
Q 2975 3731 2742 3939 
Q 2509 4147 2053 4147 
L 1259 4147 
z
" id="DejaVuSans-52" transform="scale(0.015625)"/>
       <path d="M 3597 1894 
L 3597 1613 
L 953 1613 
Q 991 1019 1311 708 
Q 1631 397 2203 397 
Q 2534 397 2845 478 
Q 3156 559 3463 722 
L 3463 178 
Q 3153 47 2828 -22 
Q 2503 -91 2169 -91 
Q 1331 -91 842 396 
Q 353 884 353 1716 
Q 353 2575 817 3079 
Q 1281 3584 2069 3584 
Q 2775 3584 3186 3129 
Q 3597 2675 3597 1894 
z
M 3022 2063 
Q 3016 2534 2758 2815 
Q 2500 3097 2075 3097 
Q 1594 3097 1305 2825 
Q 1016 2553 972 2059 
L 3022 2063 
z
" id="DejaVuSans-65" transform="scale(0.015625)"/>
       <path d="M 2194 1759 
Q 1497 1759 1228 1600 
Q 959 1441 959 1056 
Q 959 750 1161 570 
Q 1363 391 1709 391 
Q 2188 391 2477 730 
Q 2766 1069 2766 1631 
L 2766 1759 
L 2194 1759 
z
M 3341 1997 
L 3341 0 
L 2766 0 
L 2766 531 
Q 2569 213 2275 61 
Q 1981 -91 1556 -91 
Q 1019 -91 701 211 
Q 384 513 384 1019 
Q 384 1609 779 1909 
Q 1175 2209 1959 2209 
L 2766 2209 
L 2766 2266 
Q 2766 2663 2505 2880 
Q 2244 3097 1772 3097 
Q 1472 3097 1187 3025 
Q 903 2953 641 2809 
L 641 3341 
Q 956 3463 1253 3523 
Q 1550 3584 1831 3584 
Q 2591 3584 2966 3190 
Q 3341 2797 3341 1997 
z
" id="DejaVuSans-61" transform="scale(0.015625)"/>
       <path d="M 2906 2969 
L 2906 4863 
L 3481 4863 
L 3481 0 
L 2906 0 
L 2906 525 
Q 2725 213 2448 61 
Q 2172 -91 1784 -91 
Q 1150 -91 751 415 
Q 353 922 353 1747 
Q 353 2572 751 3078 
Q 1150 3584 1784 3584 
Q 2172 3584 2448 3432 
Q 2725 3281 2906 2969 
z
M 947 1747 
Q 947 1113 1208 752 
Q 1469 391 1925 391 
Q 2381 391 2643 752 
Q 2906 1113 2906 1747 
Q 2906 2381 2643 2742 
Q 2381 3103 1925 3103 
Q 1469 3103 1208 2742 
Q 947 2381 947 1747 
z
" id="DejaVuSans-64" transform="scale(0.015625)"/>
       <path d="M 1984 4856 
Q 1566 4138 1362 3434 
Q 1159 2731 1159 2009 
Q 1159 1288 1364 580 
Q 1569 -128 1984 -844 
L 1484 -844 
Q 1016 -109 783 600 
Q 550 1309 550 2009 
Q 550 2706 781 3412 
Q 1013 4119 1484 4856 
L 1984 4856 
z
" id="DejaVuSans-28" transform="scale(0.015625)"/>
       <path d="M 3116 1747 
Q 3116 2381 2855 2742 
Q 2594 3103 2138 3103 
Q 1681 3103 1420 2742 
Q 1159 2381 1159 1747 
Q 1159 1113 1420 752 
Q 1681 391 2138 391 
Q 2594 391 2855 752 
Q 3116 1113 3116 1747 
z
M 1159 2969 
Q 1341 3281 1617 3432 
Q 1894 3584 2278 3584 
Q 2916 3584 3314 3078 
Q 3713 2572 3713 1747 
Q 3713 922 3314 415 
Q 2916 -91 2278 -91 
Q 1894 -91 1617 61 
Q 1341 213 1159 525 
L 1159 0 
L 581 0 
L 581 4863 
L 1159 4863 
L 1159 2969 
z
" id="DejaVuSans-62" transform="scale(0.015625)"/>
       <path d="M 1159 525 
L 1159 -1331 
L 581 -1331 
L 581 3500 
L 1159 3500 
L 1159 2969 
Q 1341 3281 1617 3432 
Q 1894 3584 2278 3584 
Q 2916 3584 3314 3078 
Q 3713 2572 3713 1747 
Q 3713 922 3314 415 
Q 2916 -91 2278 -91 
Q 1894 -91 1617 61 
Q 1341 213 1159 525 
z
M 3116 1747 
Q 3116 2381 2855 2742 
Q 2594 3103 2138 3103 
Q 1681 3103 1420 2742 
Q 1159 2381 1159 1747 
Q 1159 1113 1420 752 
Q 1681 391 2138 391 
Q 2594 391 2855 752 
Q 3116 1113 3116 1747 
z
" id="DejaVuSans-70" transform="scale(0.015625)"/>
       <path d="M 513 4856 
L 1013 4856 
Q 1481 4119 1714 3412 
Q 1947 2706 1947 2009 
Q 1947 1309 1714 600 
Q 1481 -109 1013 -844 
L 513 -844 
Q 928 -128 1133 580 
Q 1338 1288 1338 2009 
Q 1338 2731 1133 3434 
Q 928 4138 513 4856 
z
" id="DejaVuSans-29" transform="scale(0.015625)"/>
      </defs>
      <use xlink:href="#DejaVuSans-50"/>
      <use x="56.677734" xlink:href="#DejaVuSans-6f"/>
      <use x="117.859375" xlink:href="#DejaVuSans-73"/>
      <use x="169.958984" xlink:href="#DejaVuSans-69"/>
      <use x="197.742188" xlink:href="#DejaVuSans-74"/>
      <use x="236.951172" xlink:href="#DejaVuSans-69"/>
      <use x="264.734375" xlink:href="#DejaVuSans-6f"/>
      <use x="325.916016" xlink:href="#DejaVuSans-6e"/>
      <use x="389.294922" xlink:href="#DejaVuSans-20"/>
      <use x="421.082031" xlink:href="#DejaVuSans-69"/>
      <use x="448.865234" xlink:href="#DejaVuSans-6e"/>
      <use x="512.244141" xlink:href="#DejaVuSans-20"/>
      <use x="544.03125" xlink:href="#DejaVuSans-52"/>
      <use x="609.013672" xlink:href="#DejaVuSans-65"/>
      <use x="670.537109" xlink:href="#DejaVuSans-61"/>
      <use x="731.816406" xlink:href="#DejaVuSans-64"/>
      <use x="795.292969" xlink:href="#DejaVuSans-20"/>
      <use x="827.080078" xlink:href="#DejaVuSans-28"/>
      <use x="866.09375" xlink:href="#DejaVuSans-62"/>
      <use x="929.570312" xlink:href="#DejaVuSans-70"/>
      <use x="993.046875" xlink:href="#DejaVuSans-29"/>
     </g>
    </g>
   </g>
   <g id="matplotlib.axis_2">
    <g id="ytick_1">
     <g id="line2d_1">
      <path clip-path="url(#p57fd9bf28a)" d="M 32.968125 353.2239 
L 993.158125 353.2239 
" style="fill:none;stroke:#dedede;stroke-linecap:square;"/>
     </g>
     <g id="text_8">
      <!-- 0 -->
      <g transform="translate(20.878125 356.263275)scale(0.08 -0.08)">
       <use xlink:href="#DejaVuSans-30"/>
      </g>
     </g>
    </g>
    <g id="ytick_2">
     <g id="line2d_2">
      <path clip-path="url(#p57fd9bf28a)" d="M 32.968125 289.6303 
L 993.158125 289.6303 
" style="fill:none;stroke:#dedede;stroke-linecap:square;"/>
     </g>
     <g id="text_9">
      <!-- 1 -->
      <g transform="translate(20.878125 292.669675)scale(0.08 -0.08)">
       <use xlink:href="#DejaVuSans-31"/>
      </g>
     </g>
    </g>
    <g id="ytick_3">
     <g id="line2d_3">
      <path clip-path="url(#p57fd9bf28a)" d="M 32.968125 226.0367 
L 993.158125 226.0367 
" style="fill:none;stroke:#dedede;stroke-linecap:square;"/>
     </g>
     <g id="text_10">
      <!-- 2 -->
      <g transform="translate(20.878125 229.076075)scale(0.08 -0.08)">
       <use xlink:href="#DejaVuSans-32"/>
      </g>
     </g>
    </g>
    <g id="ytick_4">
     <g id="line2d_4">
      <path clip-path="url(#p57fd9bf28a)" d="M 32.968125 162.4431 
L 993.158125 162.4431 
" style="fill:none;stroke:#dedede;stroke-linecap:square;"/>
     </g>
     <g id="text_11">
      <!-- 3 -->
      <g transform="translate(20.878125 165.482475)scale(0.08 -0.08)">
       <defs>
        <path d="M 2597 2516 
Q 3050 2419 3304 2112 
Q 3559 1806 3559 1356 
Q 3559 666 3084 287 
Q 2609 -91 1734 -91 
Q 1441 -91 1130 -33 
Q 819 25 488 141 
L 488 750 
Q 750 597 1062 519 
Q 1375 441 1716 441 
Q 2309 441 2620 675 
Q 2931 909 2931 1356 
Q 2931 1769 2642 2001 
Q 2353 2234 1838 2234 
L 1294 2234 
L 1294 2753 
L 1863 2753 
Q 2328 2753 2575 2939 
Q 2822 3125 2822 3475 
Q 2822 3834 2567 4026 
Q 2313 4219 1838 4219 
Q 1578 4219 1281 4162 
Q 984 4106 628 3988 
L 628 4550 
Q 988 4650 1302 4700 
Q 1616 4750 1894 4750 
Q 2613 4750 3031 4423 
Q 3450 4097 3450 3541 
Q 3450 3153 3228 2886 
Q 3006 2619 2597 2516 
z
" id="DejaVuSans-33" transform="scale(0.015625)"/>
       </defs>
       <use xlink:href="#DejaVuSans-33"/>
      </g>
     </g>
    </g>
    <g id="ytick_5">
     <g id="line2d_5">
      <path clip-path="url(#p57fd9bf28a)" d="M 32.968125 98.8495 
L 993.158125 98.8495 
" style="fill:none;stroke:#dedede;stroke-linecap:square;"/>
     </g>
     <g id="text_12">
      <!-- 4 -->
      <g transform="translate(20.878125 101.888875)scale(0.08 -0.08)">
       <use xlink:href="#DejaVuSans-34"/>
      </g>
     </g>
    </g>
    <g id="ytick_6">
     <g id="line2d_6">
      <path clip-path="url(#p57fd9bf28a)" d="M 32.968125 35.2559 
L 993.158125 35.2559 
" style="fill:none;stroke:#dedede;stroke-linecap:square;"/>
     </g>
     <g id="text_13">
      <!-- 5 -->
      <g transform="translate(20.878125 38.295275)scale(0.08 -0.08)">
       <defs>
        <path d="M 691 4666 
L 3169 4666 
L 3169 4134 
L 1269 4134 
L 1269 2991 
Q 1406 3038 1543 3061 
Q 1681 3084 1819 3084 
Q 2600 3084 3056 2656 
Q 3513 2228 3513 1497 
Q 3513 744 3044 326 
Q 2575 -91 1722 -91 
Q 1428 -91 1123 -41 
Q 819 9 494 109 
L 494 744 
Q 775 591 1075 516 
Q 1375 441 1709 441 
Q 2250 441 2565 725 
Q 2881 1009 2881 1497 
Q 2881 1984 2565 2268 
Q 2250 2553 1709 2553 
Q 1456 2553 1204 2497 
Q 953 2441 691 2322 
L 691 4666 
z
" id="DejaVuSans-35" transform="scale(0.015625)"/>
       </defs>
       <use xlink:href="#DejaVuSans-35"/>
      </g>
     </g>
    </g>
    <g id="text_14">
     <!-- Percentage N-Count -->
     <g transform="translate(14.798438 244.344588)rotate(-90)scale(0.1 -0.1)">
      <defs>
       <path d="M 2631 2963 
Q 2534 3019 2420 3045 
Q 2306 3072 2169 3072 
Q 1681 3072 1420 2755 
Q 1159 2438 1159 1844 
L 1159 0 
L 581 0 
L 581 3500 
L 1159 3500 
L 1159 2956 
Q 1341 3275 1631 3429 
Q 1922 3584 2338 3584 
Q 2397 3584 2469 3576 
Q 2541 3569 2628 3553 
L 2631 2963 
z
" id="DejaVuSans-72" transform="scale(0.015625)"/>
       <path d="M 3122 3366 
L 3122 2828 
Q 2878 2963 2633 3030 
Q 2388 3097 2138 3097 
Q 1578 3097 1268 2742 
Q 959 2388 959 1747 
Q 959 1106 1268 751 
Q 1578 397 2138 397 
Q 2388 397 2633 464 
Q 2878 531 3122 666 
L 3122 134 
Q 2881 22 2623 -34 
Q 2366 -91 2075 -91 
Q 1284 -91 818 406 
Q 353 903 353 1747 
Q 353 2603 823 3093 
Q 1294 3584 2113 3584 
Q 2378 3584 2631 3529 
Q 2884 3475 3122 3366 
z
" id="DejaVuSans-63" transform="scale(0.015625)"/>
       <path d="M 2906 1791 
Q 2906 2416 2648 2759 
Q 2391 3103 1925 3103 
Q 1463 3103 1205 2759 
Q 947 2416 947 1791 
Q 947 1169 1205 825 
Q 1463 481 1925 481 
Q 2391 481 2648 825 
Q 2906 1169 2906 1791 
z
M 3481 434 
Q 3481 -459 3084 -895 
Q 2688 -1331 1869 -1331 
Q 1566 -1331 1297 -1286 
Q 1028 -1241 775 -1147 
L 775 -588 
Q 1028 -725 1275 -790 
Q 1522 -856 1778 -856 
Q 2344 -856 2625 -561 
Q 2906 -266 2906 331 
L 2906 616 
Q 2728 306 2450 153 
Q 2172 0 1784 0 
Q 1141 0 747 490 
Q 353 981 353 1791 
Q 353 2603 747 3093 
Q 1141 3584 1784 3584 
Q 2172 3584 2450 3431 
Q 2728 3278 2906 2969 
L 2906 3500 
L 3481 3500 
L 3481 434 
z
" id="DejaVuSans-67" transform="scale(0.015625)"/>
       <path d="M 628 4666 
L 1478 4666 
L 3547 763 
L 3547 4666 
L 4159 4666 
L 4159 0 
L 3309 0 
L 1241 3903 
L 1241 0 
L 628 0 
L 628 4666 
z
" id="DejaVuSans-4e" transform="scale(0.015625)"/>
       <path d="M 313 2009 
L 1997 2009 
L 1997 1497 
L 313 1497 
L 313 2009 
z
" id="DejaVuSans-2d" transform="scale(0.015625)"/>
       <path d="M 4122 4306 
L 4122 3641 
Q 3803 3938 3442 4084 
Q 3081 4231 2675 4231 
Q 1875 4231 1450 3742 
Q 1025 3253 1025 2328 
Q 1025 1406 1450 917 
Q 1875 428 2675 428 
Q 3081 428 3442 575 
Q 3803 722 4122 1019 
L 4122 359 
Q 3791 134 3420 21 
Q 3050 -91 2638 -91 
Q 1578 -91 968 557 
Q 359 1206 359 2328 
Q 359 3453 968 4101 
Q 1578 4750 2638 4750 
Q 3056 4750 3426 4639 
Q 3797 4528 4122 4306 
z
" id="DejaVuSans-43" transform="scale(0.015625)"/>
       <path d="M 544 1381 
L 544 3500 
L 1119 3500 
L 1119 1403 
Q 1119 906 1312 657 
Q 1506 409 1894 409 
Q 2359 409 2629 706 
Q 2900 1003 2900 1516 
L 2900 3500 
L 3475 3500 
L 3475 0 
L 2900 0 
L 2900 538 
Q 2691 219 2414 64 
Q 2138 -91 1772 -91 
Q 1169 -91 856 284 
Q 544 659 544 1381 
z
M 1991 3584 
L 1991 3584 
z
" id="DejaVuSans-75" transform="scale(0.015625)"/>
      </defs>
      <use xlink:href="#DejaVuSans-50"/>
      <use x="56.677734" xlink:href="#DejaVuSans-65"/>
      <use x="118.201172" xlink:href="#DejaVuSans-72"/>
      <use x="157.064453" xlink:href="#DejaVuSans-63"/>
      <use x="212.044922" xlink:href="#DejaVuSans-65"/>
      <use x="273.568359" xlink:href="#DejaVuSans-6e"/>
      <use x="336.947266" xlink:href="#DejaVuSans-74"/>
      <use x="376.15625" xlink:href="#DejaVuSans-61"/>
      <use x="437.435547" xlink:href="#DejaVuSans-67"/>
      <use x="500.912109" xlink:href="#DejaVuSans-65"/>
      <use x="562.435547" xlink:href="#DejaVuSans-20"/>
      <use x="594.222656" xlink:href="#DejaVuSans-4e"/>
      <use x="669.027344" xlink:href="#DejaVuSans-2d"/>
      <use x="705.111328" xlink:href="#DejaVuSans-43"/>
      <use x="774.935547" xlink:href="#DejaVuSans-6f"/>
      <use x="836.117188" xlink:href="#DejaVuSans-75"/>
      <use x="899.496094" xlink:href="#DejaVuSans-6e"/>
      <use x="962.875" xlink:href="#DejaVuSans-74"/>
     </g>
    </g>
   </g>
   <g id="line2d_7">
    <path clip-path="url(#p57fd9bf28a)" d="M 42.117148 353.207609 
L 51.266172 352.677294 
L 60.415195 353.086739 
L 69.564218 353.222445 
L 78.713242 353.223755 
L 87.862265 353.181137 
L 97.011288 353.2239 
L 106.160312 353.223609 
L 115.309335 353.2223 
L 124.458358 353.2199 
L 142.756405 353.203682 
L 161.054452 353.223464 
L 179.352499 353.2175 
L 197.650545 353.2239 
L 215.948592 353.222373 
L 234.246639 353.2239 
L 252.544685 353.2239 
L 270.842732 353.223536 
L 289.140779 353.221282 
L 307.438825 353.2239 
L 325.736872 353.2239 
L 344.034919 353.223755 
L 362.332965 353.2239 
L 380.631012 353.222736 
L 398.929059 353.223682 
L 417.227105 353.217572 
L 435.525152 353.222809 
L 453.823199 353.2231 
L 472.121246 353.222882 
L 490.419292 353.222009 
L 508.717339 353.2239 
L 527.015386 353.221135 
L 545.313432 353.220189 
L 563.611479 353.222008 
L 581.909526 353.2239 
L 600.207572 353.2239 
L 618.505619 353.2239 
L 636.803666 353.222008 
L 655.101712 353.221935 
L 673.399759 353.222226 
L 691.697806 353.2239 
L 709.995852 353.223682 
L 728.293899 353.213853 
L 746.591946 353.223099 
L 764.889993 353.2239 
L 783.188039 353.2239 
L 801.486086 353.220695 
L 819.784133 353.2239 
L 838.082179 353.221859 
L 856.380226 353.2239 
L 874.678273 353.223535 
L 892.976319 353.2239 
L 911.274366 353.223751 
L 929.572413 353.22282 
L 947.870459 353.2239 
" style="fill:none;stroke:#5cb85c;stroke-linecap:square;"/>
   </g>
   <g id="line2d_8">
    <path clip-path="url(#p57fd9bf28a)" d="M 42.117148 353.206158 
L 51.266172 352.684467 
L 60.415195 353.082775 
L 69.564218 353.222598 
L 78.713242 353.223737 
L 87.862265 353.177021 
L 97.011288 353.2239 
L 106.160312 353.223412 
L 115.309335 353.221784 
L 124.458358 353.218691 
L 142.756405 353.203228 
L 161.054452 353.223249 
L 179.352499 353.217633 
L 197.650545 353.2239 
L 215.948592 353.222598 
L 234.246639 353.2239 
L 252.544685 353.2239 
L 270.842732 353.223493 
L 289.140779 353.221051 
L 307.438825 353.2239 
L 325.736872 353.2239 
L 344.034919 353.223574 
L 362.332965 353.2239 
L 380.631012 353.223249 
L 398.929059 353.223819 
L 417.227105 353.217469 
L 435.525152 353.223086 
L 453.823199 353.223086 
L 472.121246 353.22333 
L 490.419292 353.22219 
L 508.717339 353.2239 
L 527.015386 353.221131 
L 545.313432 353.220805 
L 563.611479 353.221864 
L 581.909526 353.2239 
L 600.207572 353.2239 
L 618.505619 353.223737 
L 636.803666 353.222026 
L 655.101712 353.221945 
L 673.399759 353.222107 
L 691.697806 353.2239 
L 709.995852 353.2239 
L 728.293899 353.21257 
L 746.591946 353.223329 
L 764.889993 353.2239 
L 783.188039 353.2239 
L 801.486086 353.221371 
L 819.784133 353.2239 
L 838.082179 353.222267 
L 856.380226 353.2239 
L 874.678273 353.223573 
L 892.976319 353.2239 
L 911.274366 353.22365 
L 929.572413 353.223195 
L 947.870459 353.2239 
" style="fill:none;stroke:#5cb85c;stroke-linecap:square;"/>
   </g>
   <g id="line2d_9">
    <path clip-path="url(#p57fd9bf28a)" d="M 42.117148 353.207791 
L 51.266172 352.665294 
L 60.415195 353.07957 
L 69.564218 353.222924 
L 78.713242 353.223249 
L 87.862265 353.184848 
L 97.011288 353.223737 
L 106.160312 353.223575 
L 115.309335 353.220971 
L 124.458358 353.218612 
L 142.756405 353.203398 
L 161.054452 353.223412 
L 179.352499 353.218937 
L 197.650545 353.2239 
L 215.948592 353.221947 
L 234.246639 353.2239 
L 252.544685 353.2239 
L 270.842732 353.223005 
L 289.140779 353.222273 
L 307.438825 353.2239 
L 325.736872 353.2239 
L 344.034919 353.223737 
L 362.332965 353.2239 
L 380.631012 353.222923 
L 398.929059 353.223819 
L 417.227105 353.217959 
L 435.525152 353.222516 
L 453.823199 353.222923 
L 472.121246 353.223086 
L 490.419292 353.221784 
L 508.717339 353.2239 
L 527.015386 353.220807 
L 545.313432 353.220562 
L 563.611479 353.221865 
L 581.909526 353.2239 
L 600.207572 353.2239 
L 618.505619 353.223656 
L 636.803666 353.221619 
L 655.101712 353.222189 
L 673.399759 353.222189 
L 691.697806 353.2239 
L 709.995852 353.223656 
L 728.293899 353.214282 
L 746.591946 353.223329 
L 764.889993 353.2239 
L 783.188039 353.2239 
L 801.486086 353.2208 
L 819.784133 353.2239 
L 838.082179 353.221532 
L 856.380226 353.2239 
L 874.678273 353.223246 
L 892.976319 353.2239 
L 911.274366 353.2239 
L 929.572413 353.222487 
L 947.870459 353.2239 
" style="fill:none;stroke:#5cb85c;stroke-linecap:square;"/>
   </g>
   <g id="line2d_10">
    <path clip-path="url(#p57fd9bf28a)" d="M 42.117148 353.212568 
L 51.266172 352.66986 
L 60.415195 353.084701 
L 69.564218 353.222062 
L 78.713242 353.223287 
L 87.862265 353.180869 
L 97.011288 353.2239 
L 106.160312 353.223441 
L 115.309335 353.220684 
L 124.458358 353.219076 
L 142.756405 353.203457 
L 161.054452 353.223287 
L 179.352499 353.217698 
L 197.650545 353.2239 
L 215.948592 353.222445 
L 234.246639 353.2239 
L 252.544685 353.2239 
L 270.842732 353.223517 
L 289.140779 353.221833 
L 307.438825 353.2239 
L 325.736872 353.2239 
L 344.034919 353.223517 
L 362.332965 353.2239 
L 380.631012 353.223134 
L 398.929059 353.223747 
L 417.227105 353.216776 
L 435.525152 353.22344 
L 453.823199 353.223364 
L 472.121246 353.222981 
L 490.419292 353.222597 
L 508.717339 353.2239 
L 527.015386 353.220835 
L 545.313432 353.220375 
L 563.611479 353.221754 
L 581.909526 353.2239 
L 600.207572 353.2239 
L 618.505619 353.2239 
L 636.803666 353.222443 
L 655.101712 353.221753 
L 673.399759 353.22206 
L 691.697806 353.2239 
L 709.995852 353.223823 
L 728.293899 353.212853 
L 746.591946 353.223286 
L 764.889993 353.2239 
L 783.188039 353.2239 
L 801.486086 353.221136 
L 819.784133 353.2239 
L 838.082179 353.222363 
L 856.380226 353.2239 
L 874.678273 353.223515 
L 892.976319 353.2239 
L 911.274366 353.2239 
L 929.572413 353.22305 
L 947.870459 353.2239 
" style="fill:none;stroke:#5cb85c;stroke-linecap:square;"/>
   </g>
   <g id="line2d_11">
    <path clip-path="url(#p57fd9bf28a)" d="M 42.117148 353.210127 
L 51.266172 352.68174 
L 60.415195 353.075196 
L 69.564218 353.222194 
L 78.713242 353.223291 
L 87.862265 353.180264 
L 97.011288 353.2239 
L 106.160312 353.223656 
L 115.309335 353.22195 
L 124.458358 353.218476 
L 142.756405 353.203362 
L 161.054452 353.22323 
L 179.352499 353.217562 
L 197.650545 353.2239 
L 215.948592 353.221645 
L 234.246639 353.2239 
L 252.544685 353.2239 
L 270.842732 353.223169 
L 289.140779 353.221767 
L 307.438825 353.2239 
L 325.736872 353.2239 
L 344.034919 353.223656 
L 362.332965 353.2239 
L 380.631012 353.223229 
L 398.929059 353.223778 
L 417.227105 353.216402 
L 435.525152 353.222376 
L 453.823199 353.22262 
L 472.121246 353.223168 
L 490.419292 353.221644 
L 508.717339 353.2239 
L 527.015386 353.220059 
L 545.313432 353.219754 
L 563.611479 353.221522 
L 581.909526 353.2239 
L 600.207572 353.2239 
L 618.505619 353.223595 
L 636.803666 353.221277 
L 655.101712 353.221216 
L 673.399759 353.221703 
L 691.697806 353.2239 
L 709.995852 353.223778 
L 728.293899 353.212058 
L 746.591946 353.223412 
L 764.889993 353.2239 
L 783.188039 353.2239 
L 801.486086 353.219685 
L 819.784133 353.2239 
L 838.082179 353.221455 
L 856.380226 353.2239 
L 874.678273 353.223349 
L 892.976319 353.2239 
L 911.274366 353.223837 
L 929.572413 353.222237 
L 947.870459 353.2239 
" style="fill:none;stroke:#5cb85c;stroke-linecap:square;"/>
   </g>
   <g id="line2d_12">
    <path clip-path="url(#p57fd9bf28a)" d="M 42.117148 353.211037 
L 51.266172 352.678626 
L 60.415195 353.067728 
L 69.564218 353.222222 
L 78.713242 353.22376 
L 87.862265 353.180558 
L 97.011288 353.2239 
L 106.160312 353.22362 
L 115.309335 353.221663 
L 124.458358 353.219356 
L 142.756405 353.206703 
L 161.054452 353.22355 
L 179.352499 353.219566 
L 197.650545 353.2239 
L 215.948592 353.222152 
L 234.246639 353.2239 
L 252.544685 353.2239 
L 270.842732 353.22355 
L 289.140779 353.221873 
L 307.438825 353.2239 
L 325.736872 353.2239 
L 344.034919 353.22355 
L 362.332965 353.2239 
L 380.631012 353.222921 
L 398.929059 353.22355 
L 417.227105 353.218026 
L 435.525152 353.222641 
L 453.823199 353.222921 
L 472.121246 353.222781 
L 490.419292 353.222361 
L 508.717339 353.2239 
L 527.015386 353.221312 
L 545.313432 353.220472 
L 563.611479 353.221661 
L 581.909526 353.2239 
L 600.207572 353.2239 
L 618.505619 353.2239 
L 636.803666 353.22194 
L 655.101712 353.22187 
L 673.399759 353.22194 
L 691.697806 353.2239 
L 709.995852 353.2239 
L 728.293899 353.215635 
L 746.591946 353.223059 
L 764.889993 353.2239 
L 783.188039 353.2239 
L 801.486086 353.220815 
L 819.784133 353.2239 
L 838.082179 353.222075 
L 856.380226 353.2239 
L 874.678273 353.223619 
L 892.976319 353.2239 
L 911.274366 353.223828 
L 929.572413 353.222599 
L 947.870459 353.2239 
" style="fill:none;stroke:#5cb85c;stroke-linecap:square;"/>
   </g>
   <g id="line2d_13">
    <path clip-path="url(#p57fd9bf28a)" d="M 42.117148 353.207774 
L 51.266172 352.692564 
L 60.415195 353.075298 
L 69.564218 353.221511 
L 78.713242 353.223422 
L 87.862265 353.188183 
L 97.011288 353.2239 
L 106.160312 353.223303 
L 115.309335 353.222108 
L 124.458358 353.218763 
L 142.756405 353.201622 
L 161.054452 353.223303 
L 179.352499 353.217091 
L 197.650545 353.2239 
L 215.948592 353.221989 
L 234.246639 353.2239 
L 252.544685 353.2239 
L 270.842732 353.223482 
L 289.140779 353.221332 
L 307.438825 353.2239 
L 325.736872 353.2239 
L 344.034919 353.223781 
L 362.332965 353.2239 
L 380.631012 353.223422 
L 398.929059 353.223721 
L 417.227105 353.217328 
L 435.525152 353.222586 
L 453.823199 353.222825 
L 472.121246 353.223482 
L 490.419292 353.222108 
L 508.717339 353.2239 
L 527.015386 353.221151 
L 545.313432 353.220554 
L 563.611479 353.222107 
L 581.909526 353.2239 
L 600.207572 353.2239 
L 618.505619 353.22378 
L 636.803666 353.221868 
L 655.101712 353.222525 
L 673.399759 353.222585 
L 691.697806 353.2239 
L 709.995852 353.2239 
L 728.293899 353.213496 
L 746.591946 353.223601 
L 764.889993 353.2239 
L 783.188039 353.2239 
L 801.486086 353.221567 
L 819.784133 353.2239 
L 838.082179 353.221865 
L 856.380226 353.2239 
L 874.678273 353.223361 
L 892.976319 353.2239 
L 911.274366 353.223839 
L 929.572413 353.222939 
L 947.870459 353.2239 
" style="fill:none;stroke:#5cb85c;stroke-linecap:square;"/>
   </g>
   <g id="line2d_14">
    <path clip-path="url(#p57fd9bf28a)" d="M 42.117148 353.207473 
L 51.266172 352.693134 
L 60.415195 353.078694 
L 69.564218 353.222167 
L 78.713242 353.223175 
L 87.862265 353.180543 
L 97.011288 353.2239 
L 106.160312 353.223511 
L 115.309335 353.221584 
L 124.458358 353.218003 
L 142.756405 353.200869 
L 161.054452 353.223246 
L 179.352499 353.217808 
L 197.650545 353.2239 
L 215.948592 353.222494 
L 234.246639 353.2239 
L 252.544685 353.2239 
L 270.842732 353.223414 
L 289.140779 353.221009 
L 307.438825 353.2239 
L 325.736872 353.2239 
L 344.034919 353.223652 
L 362.332965 353.2239 
L 380.631012 353.223316 
L 398.929059 353.223838 
L 417.227105 353.217312 
L 435.525152 353.222936 
L 453.823199 353.222874 
L 472.121246 353.223263 
L 490.419292 353.222335 
L 508.717339 353.2239 
L 527.015386 353.220804 
L 545.313432 353.220477 
L 563.611479 353.222122 
L 581.909526 353.2239 
L 600.207572 353.2239 
L 618.505619 353.22382 
L 636.803666 353.221918 
L 655.101712 353.22183 
L 673.399759 353.222219 
L 691.697806 353.2239 
L 709.995852 353.22382 
L 728.293899 353.213898 
L 746.591946 353.223475 
L 764.889993 353.2239 
L 783.188039 353.2239 
L 801.486086 353.220977 
L 819.784133 353.2239 
L 838.082179 353.222137 
L 856.380226 353.2239 
L 874.678273 353.223465 
L 892.976319 353.2239 
L 911.274366 353.2238 
L 929.572413 353.222758 
L 947.870459 353.2239 
" style="fill:none;stroke:#5cb85c;stroke-linecap:square;"/>
   </g>
   <g id="line2d_15">
    <path clip-path="url(#p57fd9bf28a)" d="M 42.117148 353.211011 
L 51.266172 352.689641 
L 60.415195 353.080562 
L 69.564218 353.2222 
L 78.713242 353.223617 
L 87.862265 353.185374 
L 97.011288 353.223758 
L 106.160312 353.223617 
L 115.309335 353.221917 
L 124.458358 353.219368 
L 142.756405 353.206337 
L 161.054452 353.223546 
L 179.352499 353.219155 
L 197.650545 353.2239 
L 215.948592 353.221634 
L 234.246639 353.2239 
L 252.544685 353.2239 
L 270.842732 353.222979 
L 289.140779 353.22128 
L 307.438825 353.2239 
L 325.736872 353.2239 
L 344.034919 353.223617 
L 362.332965 353.2239 
L 380.631012 353.223404 
L 398.929059 353.2239 
L 417.227105 353.216533 
L 435.525152 353.222483 
L 453.823199 353.222554 
L 472.121246 353.223333 
L 490.419292 353.221704 
L 508.717339 353.2239 
L 527.015386 353.220712 
L 545.313432 353.220074 
L 563.611479 353.221562 
L 581.909526 353.2239 
L 600.207572 353.2239 
L 618.505619 353.223546 
L 636.803666 353.221278 
L 655.101712 353.221986 
L 673.399759 353.221986 
L 691.697806 353.2239 
L 709.995852 353.223829 
L 728.293899 353.213123 
L 746.591946 353.223475 
L 764.889993 353.2239 
L 783.188039 353.2239 
L 801.486086 353.220636 
L 819.784133 353.2239 
L 838.082179 353.221628 
L 856.380226 353.2239 
L 874.678273 353.223189 
L 892.976319 353.2239 
L 911.274366 353.223827 
L 929.572413 353.222408 
L 947.870459 353.2239 
" style="fill:none;stroke:#5cb85c;stroke-linecap:square;"/>
   </g>
   <g id="line2d_16">
    <path clip-path="url(#p57fd9bf28a)" d="M 42.117148 353.208152 
L 51.266172 352.698899 
L 60.415195 353.076551 
L 69.564218 353.222029 
L 78.713242 353.223432 
L 87.862265 353.177902 
L 97.011288 353.2239 
L 106.160312 353.223744 
L 115.309335 353.221873 
L 124.458358 353.218599 
L 142.756405 353.201291 
L 161.054452 353.223588 
L 179.352499 353.217585 
L 197.650545 353.2239 
L 215.948592 353.222575 
L 234.246639 353.2239 
L 252.544685 353.2239 
L 270.842732 353.223042 
L 289.140779 353.220859 
L 307.438825 353.2239 
L 325.736872 353.2239 
L 344.034919 353.223822 
L 362.332965 353.2239 
L 380.631012 353.222496 
L 398.929059 353.223666 
L 417.227105 353.21696 
L 435.525152 353.22273 
L 453.823199 353.222808 
L 472.121246 353.222574 
L 490.419292 353.221638 
L 508.717339 353.2239 
L 527.015386 353.220546 
L 545.313432 353.219844 
L 563.611479 353.221716 
L 581.909526 353.2239 
L 600.207572 353.2239 
L 618.505619 353.223744 
L 636.803666 353.221638 
L 655.101712 353.221482 
L 673.399759 353.221403 
L 691.697806 353.2239 
L 709.995852 353.223666 
L 728.293899 353.213833 
L 746.591946 353.222885 
L 764.889993 353.2239 
L 783.188039 353.2239 
L 801.486086 353.220387 
L 819.784133 353.2239 
L 838.082179 353.221557 
L 856.380226 353.2239 
L 874.678273 353.223431 
L 892.976319 353.2239 
L 911.274366 353.22366 
L 929.572413 353.22226 
L 947.870459 353.2239 
" style="fill:none;stroke:#5cb85c;stroke-linecap:square;"/>
   </g>
   <g id="line2d_17">
    <path clip-path="url(#p57fd9bf28a)" d="M 42.117148 353.209134 
L 51.266172 352.693573 
L 60.415195 353.075238 
L 69.564218 353.223024 
L 78.713242 353.223775 
L 87.862265 353.178476 
L 97.011288 353.2239 
L 106.160312 353.22365 
L 115.309335 353.222774 
L 124.458358 353.218582 
L 142.756405 353.201 
L 161.054452 353.223337 
L 179.352499 353.218206 
L 197.650545 353.2239 
L 215.948592 353.222336 
L 234.246639 353.2239 
L 252.544685 353.2239 
L 270.842732 353.223212 
L 289.140779 353.221335 
L 307.438825 353.2239 
L 325.736872 353.2239 
L 344.034919 353.223587 
L 362.332965 353.2239 
L 380.631012 353.222961 
L 398.929059 353.22365 
L 417.227105 353.217016 
L 435.525152 353.223024 
L 453.823199 353.222836 
L 472.121246 353.222836 
L 490.419292 353.222022 
L 508.717339 353.2239 
L 527.015386 353.221083 
L 545.313432 353.220019 
L 563.611479 353.221584 
L 581.909526 353.2239 
L 600.207572 353.2239 
L 618.505619 353.223712 
L 636.803666 353.221834 
L 655.101712 353.222147 
L 673.399759 353.222334 
L 691.697806 353.2239 
L 709.995852 353.223837 
L 728.293899 353.213878 
L 746.591946 353.223086 
L 764.889993 353.2239 
L 783.188039 353.2239 
L 801.486086 353.220829 
L 819.784133 353.2239 
L 838.082179 353.22227 
L 856.380226 353.2239 
L 874.678273 353.223272 
L 892.976319 353.2239 
L 911.274366 353.2239 
L 929.572413 353.222972 
L 947.870459 353.2239 
" style="fill:none;stroke:#5cb85c;stroke-linecap:square;"/>
   </g>
   <g id="line2d_18">
    <path clip-path="url(#p57fd9bf28a)" d="M 42.117148 353.207165 
L 51.266172 352.683947 
L 60.415195 353.084406 
L 69.564218 353.220974 
L 78.713242 353.223666 
L 87.862265 353.179196 
L 97.011288 353.2239 
L 106.160312 353.223432 
L 115.309335 353.221677 
L 124.458358 353.217581 
L 142.756405 353.198447 
L 161.054452 353.223315 
L 179.352499 353.217698 
L 197.650545 353.2239 
L 215.948592 353.221911 
L 234.246639 353.2239 
L 252.544685 353.2239 
L 270.842732 353.223081 
L 289.140779 353.221033 
L 307.438825 353.2239 
L 325.736872 353.2239 
L 344.034919 353.223666 
L 362.332965 353.2239 
L 380.631012 353.22349 
L 398.929059 353.223724 
L 417.227105 353.216994 
L 435.525152 353.222612 
L 453.823199 353.222554 
L 472.121246 353.223315 
L 490.419292 353.221793 
L 508.717339 353.2239 
L 527.015386 353.220563 
L 545.313432 353.220153 
L 563.611479 353.221617 
L 581.909526 353.2239 
L 600.207572 353.2239 
L 618.505619 353.223783 
L 636.803666 353.221733 
L 655.101712 353.221733 
L 673.399759 353.222143 
L 691.697806 353.2239 
L 709.995852 353.2239 
L 728.293899 353.213063 
L 746.591946 353.223549 
L 764.889993 353.2239 
L 783.188039 353.2239 
L 801.486086 353.220677 
L 819.784133 353.2239 
L 838.082179 353.221848 
L 856.380226 353.2239 
L 874.678273 353.223078 
L 892.976319 353.2239 
L 911.274366 353.22378 
L 929.572413 353.221725 
L 947.870459 353.2239 
" style="fill:none;stroke:#5cb85c;stroke-linecap:square;"/>
   </g>
   <g id="line2d_19">
    <path clip-path="url(#p57fd9bf28a)" d="M 42.117148 353.205401 
L 51.266172 352.689379 
L 60.415195 353.077375 
L 69.564218 353.221817 
L 78.713242 353.22292 
L 87.862265 353.179306 
L 97.011288 353.2239 
L 106.160312 353.22341 
L 115.309335 353.22145 
L 124.458358 353.219306 
L 142.756405 353.200623 
L 161.054452 353.223226 
L 179.352499 353.217836 
L 197.650545 353.2239 
L 215.948592 353.222062 
L 234.246639 353.2239 
L 252.544685 353.2239 
L 270.842732 353.223287 
L 289.140779 353.220837 
L 307.438825 353.2239 
L 325.736872 353.2239 
L 344.034919 353.223594 
L 362.332965 353.2239 
L 380.631012 353.223226 
L 398.929059 353.223839 
L 417.227105 353.21765 
L 435.525152 353.222368 
L 453.823199 353.222613 
L 472.121246 353.223287 
L 490.419292 353.221632 
L 508.717339 353.2239 
L 527.015386 353.220468 
L 545.313432 353.220039 
L 563.611479 353.222 
L 581.909526 353.2239 
L 600.207572 353.2239 
L 618.505619 353.223777 
L 636.803666 353.221754 
L 655.101712 353.221631 
L 673.399759 353.221938 
L 691.697806 353.2239 
L 709.995852 353.223716 
L 728.293899 353.21341 
L 746.591946 353.223409 
L 764.889993 353.2239 
L 783.188039 353.2239 
L 801.486086 353.220584 
L 819.784133 353.2239 
L 838.082179 353.221442 
L 856.380226 353.2239 
L 874.678273 353.223408 
L 892.976319 353.2239 
L 911.274366 353.223586 
L 929.572413 353.222382 
L 947.870459 353.2239 
" style="fill:none;stroke:#5cb85c;stroke-linecap:square;"/>
   </g>
   <g id="line2d_20">
    <path clip-path="url(#p57fd9bf28a)" d="M 42.117148 353.207283 
L 51.266172 352.685293 
L 60.415195 353.072763 
L 69.564218 353.222317 
L 78.713242 353.223241 
L 87.862265 353.178532 
L 97.011288 353.2239 
L 106.160312 353.223768 
L 115.309335 353.221394 
L 124.458358 353.217833 
L 142.756405 353.201678 
L 161.054452 353.223504 
L 179.352499 353.218229 
L 197.650545 353.2239 
L 215.948592 353.221592 
L 234.246639 353.2239 
L 252.544685 353.2239 
L 270.842732 353.222977 
L 289.140779 353.221196 
L 307.438825 353.2239 
L 325.736872 353.2239 
L 344.034919 353.223372 
L 362.332965 353.2239 
L 380.631012 353.223372 
L 398.929059 353.223768 
L 417.227105 353.21592 
L 435.525152 353.222581 
L 453.823199 353.222581 
L 472.121246 353.223372 
L 490.419292 353.221789 
L 508.717339 353.2239 
L 527.015386 353.221459 
L 545.313432 353.219678 
L 563.611479 353.221855 
L 581.909526 353.2239 
L 600.207572 353.2239 
L 618.505619 353.223636 
L 636.803666 353.221459 
L 655.101712 353.222184 
L 673.399759 353.222514 
L 691.697806 353.2239 
L 709.995852 353.2239 
L 728.293899 353.212085 
L 746.591946 353.22357 
L 764.889993 353.2239 
L 783.188039 353.2239 
L 801.486086 353.220796 
L 819.784133 353.2239 
L 838.082179 353.221059 
L 856.380226 353.2239 
L 874.678273 353.223172 
L 892.976319 353.2239 
L 911.274366 353.223765 
L 929.572413 353.221855 
L 947.870459 353.2239 
" style="fill:none;stroke:#5cb85c;stroke-linecap:square;"/>
   </g>
   <g id="line2d_21">
    <path clip-path="url(#p57fd9bf28a)" d="M 42.117148 353.209038 
L 51.266172 352.687764 
L 60.415195 353.082295 
L 69.564218 353.222077 
L 78.713242 353.223339 
L 87.862265 353.18212 
L 97.011288 353.2239 
L 106.160312 353.22376 
L 115.309335 353.222218 
L 124.458358 353.218292 
L 142.756405 353.20294 
L 161.054452 353.223549 
L 179.352499 353.218292 
L 197.650545 353.2239 
L 215.948592 353.222077 
L 234.246639 353.2239 
L 252.544685 353.2239 
L 270.842732 353.223129 
L 289.140779 353.221587 
L 307.438825 353.2239 
L 325.736872 353.2239 
L 344.034919 353.22383 
L 362.332965 353.2239 
L 380.631012 353.223199 
L 398.929059 353.22383 
L 417.227105 353.217029 
L 435.525152 353.222287 
L 453.823199 353.222638 
L 472.121246 353.223199 
L 490.419292 353.221586 
L 508.717339 353.2239 
L 527.015386 353.220253 
L 545.313432 353.219552 
L 563.611479 353.221165 
L 581.909526 353.2239 
L 600.207572 353.2239 
L 618.505619 353.223549 
L 636.803666 353.221585 
L 655.101712 353.221234 
L 673.399759 353.221374 
L 691.697806 353.2239 
L 709.995852 353.22383 
L 728.293899 353.212813 
L 746.591946 353.223549 
L 764.889993 353.2239 
L 783.188039 353.2239 
L 801.486086 353.219758 
L 819.784133 353.2239 
L 838.082179 353.221512 
L 856.380226 353.2239 
L 874.678273 353.223127 
L 892.976319 353.2239 
L 911.274366 353.223756 
L 929.572413 353.222337 
L 947.870459 353.2239 
" style="fill:none;stroke:#5cb85c;stroke-linecap:square;"/>
   </g>
   <g id="line2d_22">
    <path clip-path="url(#p57fd9bf28a)" d="M 42.117148 353.209047 
L 51.266172 352.686867 
L 60.415195 353.077071 
L 69.564218 353.221734 
L 78.713242 353.223745 
L 87.862265 353.182126 
L 97.011288 353.2239 
L 106.160312 353.223591 
L 115.309335 353.221579 
L 124.458358 353.218485 
L 142.756405 353.202471 
L 161.054452 353.223204 
L 179.352499 353.218021 
L 197.650545 353.2239 
L 215.948592 353.221811 
L 234.246639 353.2239 
L 252.544685 353.2239 
L 270.842732 353.223358 
L 289.140779 353.221038 
L 307.438825 353.2239 
L 325.736872 353.2239 
L 344.034919 353.223591 
L 362.332965 353.2239 
L 380.631012 353.223204 
L 398.929059 353.223745 
L 417.227105 353.218019 
L 435.525152 353.222662 
L 453.823199 353.222971 
L 472.121246 353.223281 
L 490.419292 353.221811 
L 508.717339 353.2239 
L 527.015386 353.221423 
L 545.313432 353.220495 
L 563.611479 353.222275 
L 581.909526 353.2239 
L 600.207572 353.2239 
L 618.505619 353.223745 
L 636.803666 353.22181 
L 655.101712 353.222042 
L 673.399759 353.222197 
L 691.697806 353.2239 
L 709.995852 353.223745 
L 728.293899 353.214298 
L 746.591946 353.223513 
L 764.889993 353.2239 
L 783.188039 353.2239 
L 801.486086 353.220879 
L 819.784133 353.2239 
L 838.082179 353.221653 
L 856.380226 353.2239 
L 874.678273 353.223279 
L 892.976319 353.2239 
L 911.274366 353.223583 
L 929.572413 353.222464 
L 947.870459 353.2239 
" style="fill:none;stroke:#5cb85c;stroke-linecap:square;"/>
   </g>
   <g id="line2d_23">
    <path clip-path="url(#p57fd9bf28a)" d="M 42.117148 353.209429 
L 51.266172 352.674005 
L 60.415195 353.079461 
L 69.564218 353.221871 
L 78.713242 353.222953 
L 87.862265 353.184545 
L 97.011288 353.2239 
L 106.160312 353.223765 
L 115.309335 353.222142 
L 124.458358 353.218355 
L 142.756405 353.204696 
L 161.054452 353.223291 
L 179.352499 353.218085 
L 197.650545 353.2239 
L 215.948592 353.222209 
L 234.246639 353.2239 
L 252.544685 353.2239 
L 270.842732 353.223427 
L 289.140779 353.220722 
L 307.438825 353.2239 
L 325.736872 353.2239 
L 344.034919 353.223494 
L 362.332965 353.2239 
L 380.631012 353.223562 
L 398.929059 353.223832 
L 417.227105 353.217745 
L 435.525152 353.222683 
L 453.823199 353.222885 
L 472.121246 353.223562 
L 490.419292 353.221871 
L 508.717339 353.2239 
L 527.015386 353.220721 
L 545.313432 353.220856 
L 563.611479 353.22187 
L 581.909526 353.2239 
L 600.207572 353.2239 
L 618.505619 353.223832 
L 636.803666 353.221464 
L 655.101712 353.221802 
L 673.399759 353.222479 
L 691.697806 353.2239 
L 709.995852 353.2239 
L 728.293899 353.214222 
L 746.591946 353.223629 
L 764.889993 353.2239 
L 783.188039 353.2239 
L 801.486086 353.220447 
L 819.784133 353.2239 
L 838.082179 353.221665 
L 856.380226 353.2239 
L 874.678273 353.223493 
L 892.976319 353.2239 
L 911.274366 353.223831 
L 929.572413 353.222227 
L 947.870459 353.2239 
" style="fill:none;stroke:#5cb85c;stroke-linecap:square;"/>
   </g>
   <g id="line2d_24">
    <path clip-path="url(#p57fd9bf28a)" d="M 42.117148 353.211283 
L 51.266172 352.673782 
L 60.415195 353.073956 
L 69.564218 353.222282 
L 78.713242 353.223415 
L 87.862265 353.177154 
L 97.011288 353.2239 
L 106.160312 353.223738 
L 115.309335 353.221797 
L 124.458358 353.217511 
L 142.756405 353.202549 
L 161.054452 353.223172 
L 179.352499 353.218077 
L 197.650545 353.2239 
L 215.948592 353.221878 
L 234.246639 353.2239 
L 252.544685 353.2239 
L 270.842732 353.223172 
L 289.140779 353.221069 
L 307.438825 353.2239 
L 325.736872 353.2239 
L 344.034919 353.223657 
L 362.332965 353.2239 
L 380.631012 353.223415 
L 398.929059 353.223819 
L 417.227105 353.217266 
L 435.525152 353.222929 
L 453.823199 353.222929 
L 472.121246 353.223334 
L 490.419292 353.222201 
L 508.717339 353.2239 
L 527.015386 353.221391 
L 545.313432 353.219854 
L 563.611479 353.221877 
L 581.909526 353.2239 
L 600.207572 353.2239 
L 618.505619 353.223738 
L 636.803666 353.222038 
L 655.101712 353.222281 
L 673.399759 353.222523 
L 691.697806 353.2239 
L 709.995852 353.223819 
L 728.293899 353.212718 
L 746.591946 353.223414 
L 764.889993 353.2239 
L 783.188039 353.2239 
L 801.486086 353.221467 
L 819.784133 353.2239 
L 838.082179 353.222276 
L 856.380226 353.2239 
L 874.678273 353.223331 
L 892.976319 353.2239 
L 911.274366 353.223734 
L 929.572413 353.222691 
L 947.870459 353.2239 
" style="fill:none;stroke:#5cb85c;stroke-linecap:square;"/>
   </g>
   <g id="line2d_25">
    <path clip-path="url(#p57fd9bf28a)" d="M 42.117148 353.20725 
L 51.266172 352.653332 
L 60.415195 353.076455 
L 69.564218 353.221819 
L 78.713242 353.222939 
L 87.862265 353.182916 
L 97.011288 353.2239 
L 106.160312 353.22374 
L 115.309335 353.22326 
L 124.458358 353.216856 
L 142.756405 353.201247 
L 161.054452 353.22342 
L 179.352499 353.219257 
L 197.650545 353.2239 
L 215.948592 353.222619 
L 234.246639 353.2239 
L 252.544685 353.2239 
L 270.842732 353.22326 
L 289.140779 353.221739 
L 307.438825 353.2239 
L 325.736872 353.2239 
L 344.034919 353.22334 
L 362.332965 353.2239 
L 380.631012 353.22366 
L 398.929059 353.22382 
L 417.227105 353.217414 
L 435.525152 353.223179 
L 453.823199 353.222859 
L 472.121246 353.22366 
L 490.419292 353.222298 
L 508.717339 353.2239 
L 527.015386 353.221978 
L 545.313432 353.220215 
L 563.611479 353.222458 
L 581.909526 353.2239 
L 600.207572 353.2239 
L 618.505619 353.22374 
L 636.803666 353.222297 
L 655.101712 353.222698 
L 673.399759 353.222858 
L 691.697806 353.2239 
L 709.995852 353.2239 
L 728.293899 353.213552 
L 746.591946 353.22374 
L 764.889993 353.2239 
L 783.188039 353.2239 
L 801.486086 353.221892 
L 819.784133 353.2239 
L 838.082179 353.22181 
L 856.380226 353.2239 
L 874.678273 353.223336 
L 892.976319 353.2239 
L 911.274366 353.223735 
L 929.572413 353.222608 
L 947.870459 353.2239 
" style="fill:none;stroke:#5cb85c;stroke-linecap:square;"/>
   </g>
   <g id="line2d_26">
    <path clip-path="url(#p57fd9bf28a)" d="M 42.117148 353.208471 
L 51.266172 352.661517 
L 60.415195 353.075316 
L 69.564218 353.221956 
L 78.713242 353.22305 
L 87.862265 353.18235 
L 97.011288 353.2239 
L 106.160312 353.223536 
L 115.309335 353.221227 
L 124.458358 353.217522 
L 142.756405 353.203672 
L 161.054452 353.223536 
L 179.352499 353.218919 
L 197.650545 353.2239 
L 215.948592 353.222442 
L 234.246639 353.2239 
L 252.544685 353.2239 
L 270.842732 353.223475 
L 289.140779 353.221348 
L 307.438825 353.2239 
L 325.736872 353.2239 
L 344.034919 353.223718 
L 362.332965 353.2239 
L 380.631012 353.223292 
L 398.929059 353.223778 
L 417.227105 353.217398 
L 435.525152 353.222928 
L 453.823199 353.222988 
L 472.121246 353.223353 
L 490.419292 353.22232 
L 508.717339 353.2239 
L 527.015386 353.221043 
L 545.313432 353.220799 
L 563.611479 353.222198 
L 581.909526 353.2239 
L 600.207572 353.2239 
L 618.505619 353.223657 
L 636.803666 353.222014 
L 655.101712 353.222379 
L 673.399759 353.222683 
L 691.697806 353.2239 
L 709.995852 353.223717 
L 728.293899 353.213906 
L 746.591946 353.223473 
L 764.889993 353.2239 
L 783.188039 353.2239 
L 801.486086 353.221395 
L 819.784133 353.2239 
L 838.082179 353.22237 
L 856.380226 353.2239 
L 874.678273 353.223654 
L 892.976319 353.2239 
L 911.274366 353.223837 
L 929.572413 353.223061 
L 947.870459 353.2239 
" style="fill:none;stroke:#5cb85c;stroke-linecap:square;"/>
   </g>
   <g id="line2d_27">
    <path clip-path="url(#p57fd9bf28a)" d="M 42.117148 353.207818 
L 51.266172 352.686231 
L 60.415195 353.079669 
L 69.564218 353.220988 
L 78.713242 353.22352 
L 87.862265 353.177554 
L 97.011288 353.2239 
L 106.160312 353.223014 
L 115.309335 353.222507 
L 124.458358 353.218835 
L 142.756405 353.203956 
L 161.054452 353.223393 
L 179.352499 353.217822 
L 197.650545 353.2239 
L 215.948592 353.222254 
L 234.246639 353.2239 
L 252.544685 353.2239 
L 270.842732 353.223077 
L 289.140779 353.221114 
L 307.438825 353.2239 
L 325.736872 353.2239 
L 344.034919 353.223773 
L 362.332965 353.2239 
L 380.631012 353.22314 
L 398.929059 353.223773 
L 417.227105 353.216807 
L 435.525152 353.22295 
L 453.823199 353.22276 
L 472.121246 353.22333 
L 490.419292 353.222063 
L 508.717339 353.2239 
L 527.015386 353.221619 
L 545.313432 353.219909 
L 563.611479 353.222063 
L 581.909526 353.2239 
L 600.207572 353.2239 
L 618.505619 353.2239 
L 636.803666 353.221682 
L 655.101712 353.222442 
L 673.399759 353.222632 
L 691.697806 353.2239 
L 709.995852 353.22371 
L 728.293899 353.212613 
L 746.591946 353.223329 
L 764.889993 353.2239 
L 783.188039 353.2239 
L 801.486086 353.220854 
L 819.784133 353.2239 
L 838.082179 353.221424 
L 856.380226 353.2239 
L 874.678273 353.223519 
L 892.976319 353.2239 
L 911.274366 353.223835 
L 929.572413 353.222252 
L 947.870459 353.2239 
" style="fill:none;stroke:#5cb85c;stroke-linecap:square;"/>
   </g>
   <g id="line2d_28">
    <path clip-path="url(#p57fd9bf28a)" d="M 42.117148 353.210456 
L 51.266172 352.692929 
L 60.415195 353.06987 
L 69.564218 353.221576 
L 78.713242 353.223568 
L 87.862265 353.181575 
L 97.011288 353.2239 
L 106.160312 353.223568 
L 115.309335 353.220248 
L 124.458358 353.219087 
L 142.756405 353.204231 
L 161.054452 353.223402 
L 179.352499 353.216846 
L 197.650545 353.2239 
L 215.948592 353.221908 
L 234.246639 353.2239 
L 252.544685 353.2239 
L 270.842732 353.22307 
L 289.140779 353.220663 
L 307.438825 353.2239 
L 325.736872 353.2239 
L 344.034919 353.223651 
L 362.332965 353.2239 
L 380.631012 353.22307 
L 398.929059 353.223817 
L 417.227105 353.216595 
L 435.525152 353.222074 
L 453.823199 353.222406 
L 472.121246 353.223153 
L 490.419292 353.221492 
L 508.717339 353.2239 
L 527.015386 353.221243 
L 545.313432 353.219914 
L 563.611479 353.221409 
L 581.909526 353.2239 
L 600.207572 353.2239 
L 618.505619 353.223651 
L 636.803666 353.221159 
L 655.101712 353.22199 
L 673.399759 353.221907 
L 691.697806 353.2239 
L 709.995852 353.2239 
L 728.293899 353.21285 
L 746.591946 353.223318 
L 764.889993 353.2239 
L 783.188039 353.2239 
L 801.486086 353.219827 
L 819.784133 353.2239 
L 838.082179 353.221239 
L 856.380226 353.2239 
L 874.678273 353.223317 
L 892.976319 353.2239 
L 911.274366 353.223645 
L 929.572413 353.221849 
L 947.870459 353.2239 
" style="fill:none;stroke:#5cb85c;stroke-linecap:square;"/>
   </g>
   <g id="line2d_29">
    <path clip-path="url(#p57fd9bf28a)" d="M 42.117148 353.205061 
L 51.266172 352.686305 
L 60.415195 353.085796 
L 69.564218 353.221407 
L 78.713242 353.223761 
L 87.862265 353.181097 
L 97.011288 353.2239 
L 106.160312 353.2239 
L 115.309335 353.221545 
L 124.458358 353.217805 
L 142.756405 353.201391 
L 161.054452 353.223346 
L 179.352499 353.217528 
L 197.650545 353.2239 
L 215.948592 353.222099 
L 234.246639 353.2239 
L 252.544685 353.2239 
L 270.842732 353.22293 
L 289.140779 353.220714 
L 307.438825 353.2239 
L 325.736872 353.2239 
L 344.034919 353.223692 
L 362.332965 353.2239 
L 380.631012 353.222999 
L 398.929059 353.223761 
L 417.227105 353.217249 
L 435.525152 353.222237 
L 453.823199 353.222099 
L 472.121246 353.222861 
L 490.419292 353.221336 
L 508.717339 353.2239 
L 527.015386 353.220366 
L 545.313432 353.219811 
L 563.611479 353.221405 
L 581.909526 353.2239 
L 600.207572 353.2239 
L 618.505619 353.223484 
L 636.803666 353.22182 
L 655.101712 353.221682 
L 673.399759 353.22189 
L 691.697806 353.2239 
L 709.995852 353.223761 
L 728.293899 353.213776 
L 746.591946 353.223276 
L 764.889993 353.2239 
L 783.188039 353.2239 
L 801.486086 353.2205 
L 819.784133 353.2239 
L 838.082179 353.221262 
L 856.380226 353.2239 
L 874.678273 353.222927 
L 892.976319 353.2239 
L 911.274366 353.223829 
L 929.572413 353.221845 
L 947.870459 353.2239 
" style="fill:none;stroke:#5cb85c;stroke-linecap:square;"/>
   </g>
   <g id="line2d_30">
    <path clip-path="url(#p57fd9bf28a)" d="M 42.117148 353.210568 
L 51.266172 352.686397 
L 60.415195 353.078436 
L 69.564218 353.222052 
L 78.713242 353.223636 
L 87.862265 353.183772 
L 97.011288 353.2239 
L 106.160312 353.223768 
L 115.309335 353.221788 
L 124.458358 353.218422 
L 142.756405 353.202912 
L 161.054452 353.223504 
L 179.352499 353.218422 
L 197.650545 353.2239 
L 215.948592 353.221458 
L 234.246639 353.2239 
L 252.544685 353.2239 
L 270.842732 353.222778 
L 289.140779 353.2206 
L 307.438825 353.2239 
L 325.736872 353.2239 
L 344.034919 353.223768 
L 362.332965 353.2239 
L 380.631012 353.223306 
L 398.929059 353.223834 
L 417.227105 353.215714 
L 435.525152 353.221919 
L 453.823199 353.222117 
L 472.121246 353.223438 
L 490.419292 353.221193 
L 508.717339 353.2239 
L 527.015386 353.220863 
L 545.313432 353.219872 
L 563.611479 353.221787 
L 581.909526 353.2239 
L 600.207572 353.2239 
L 618.505619 353.22357 
L 636.803666 353.221258 
L 655.101712 353.222249 
L 673.399759 353.222513 
L 691.697806 353.2239 
L 709.995852 353.2239 
L 728.293899 353.212998 
L 746.591946 353.223636 
L 764.889993 353.2239 
L 783.188039 353.2239 
L 801.486086 353.220793 
L 819.784133 353.2239 
L 838.082179 353.221122 
L 856.380226 353.2239 
L 874.678273 353.222973 
L 892.976319 353.2239 
L 911.274366 353.223832 
L 929.572413 353.221941 
L 947.870459 353.2239 
" style="fill:none;stroke:#5cb85c;stroke-linecap:square;"/>
   </g>
   <g id="line2d_31">
    <path clip-path="url(#p57fd9bf28a)" d="M 42.117148 353.209942 
L 51.266172 352.695223 
L 60.415195 353.08295 
L 69.564218 353.221955 
L 78.713242 353.223099 
L 87.862265 353.178251 
L 97.011288 353.2239 
L 106.160312 353.223786 
L 115.309335 353.221383 
L 124.458358 353.21898 
L 142.756405 353.202277 
L 161.054452 353.223214 
L 179.352499 353.21858 
L 197.650545 353.2239 
L 215.948592 353.221783 
L 234.246639 353.2239 
L 252.544685 353.2239 
L 270.842732 353.223156 
L 289.140779 353.221268 
L 307.438825 353.2239 
L 325.736872 353.2239 
L 344.034919 353.223671 
L 362.332965 353.2239 
L 380.631012 353.223099 
L 398.929059 353.223843 
L 417.227105 353.216689 
L 435.525152 353.222412 
L 453.823199 353.222526 
L 472.121246 353.223099 
L 490.419292 353.221439 
L 508.717339 353.2239 
L 527.015386 353.221324 
L 545.313432 353.219549 
L 563.611479 353.221667 
L 581.909526 353.2239 
L 600.207572 353.2239 
L 618.505619 353.223671 
L 636.803666 353.221495 
L 655.101712 353.222124 
L 673.399759 353.222182 
L 691.697806 353.2239 
L 709.995852 353.223556 
L 728.293899 353.212954 
L 746.591946 353.22327 
L 764.889993 353.2239 
L 783.188039 353.2239 
L 801.486086 353.220343 
L 819.784133 353.2239 
L 838.082179 353.221546 
L 856.380226 353.2239 
L 874.678273 353.223555 
L 892.976319 353.2239 
L 911.274366 353.223841 
L 929.572413 353.222063 
L 947.870459 353.2239 
" style="fill:none;stroke:#5cb85c;stroke-linecap:square;"/>
   </g>
   <g id="line2d_32">
    <path clip-path="url(#p57fd9bf28a)" d="M 42.117148 353.209299 
L 51.266172 352.686173 
L 60.415195 353.081536 
L 69.564218 353.221794 
L 78.713242 353.22376 
L 87.862265 353.17827 
L 97.011288 353.2239 
L 106.160312 353.223619 
L 115.309335 353.221934 
L 124.458358 353.217582 
L 142.756405 353.203683 
L 161.054452 353.223619 
L 179.352499 353.218003 
L 197.650545 353.2239 
L 215.948592 353.222426 
L 234.246639 353.2239 
L 252.544685 353.2239 
L 270.842732 353.223338 
L 289.140779 353.220671 
L 307.438825 353.2239 
L 325.736872 353.2239 
L 344.034919 353.223619 
L 362.332965 353.2239 
L 380.631012 353.223057 
L 398.929059 353.22383 
L 417.227105 353.217721 
L 435.525152 353.222987 
L 453.823199 353.222917 
L 472.121246 353.222847 
L 490.419292 353.222144 
L 508.717339 353.2239 
L 527.015386 353.22067 
L 545.313432 353.22081 
L 563.611479 353.221653 
L 581.909526 353.2239 
L 600.207572 353.2239 
L 618.505619 353.22383 
L 636.803666 353.222565 
L 655.101712 353.221371 
L 673.399759 353.221511 
L 691.697806 353.2239 
L 709.995852 353.22383 
L 728.293899 353.214203 
L 746.591946 353.223127 
L 764.889993 353.2239 
L 783.188039 353.2239 
L 801.486086 353.220385 
L 819.784133 353.2239 
L 838.082179 353.222423 
L 856.380226 353.2239 
L 874.678273 353.223337 
L 892.976319 353.2239 
L 911.274366 353.223684 
L 929.572413 353.222944 
L 947.870459 353.2239 
" style="fill:none;stroke:#5cb85c;stroke-linecap:square;"/>
   </g>
   <g id="line2d_33">
    <path clip-path="url(#p57fd9bf28a)" d="M 42.117148 353.210684 
L 51.266172 352.689483 
L 60.415195 353.08585 
L 69.564218 353.222338 
L 78.713242 353.22354 
L 87.862265 353.183771 
L 97.011288 353.2239 
L 106.160312 353.22354 
L 115.309335 353.221497 
L 124.458358 353.218553 
L 142.756405 353.203475 
L 161.054452 353.223359 
L 179.352499 353.218133 
L 197.650545 353.2239 
L 215.948592 353.222098 
L 234.246639 353.2239 
L 252.544685 353.2239 
L 270.842732 353.223059 
L 289.140779 353.221737 
L 307.438825 353.2239 
L 325.736872 353.2239 
L 344.034919 353.2236 
L 362.332965 353.2239 
L 380.631012 353.223359 
L 398.929059 353.22378 
L 417.227105 353.21729 
L 435.525152 353.222518 
L 453.823199 353.222698 
L 472.121246 353.223359 
L 490.419292 353.221676 
L 508.717339 353.2239 
L 527.015386 353.220414 
L 545.313432 353.219993 
L 563.611479 353.221796 
L 581.909526 353.2239 
L 600.207572 353.2239 
L 618.505619 353.22378 
L 636.803666 353.221736 
L 655.101712 353.221495 
L 673.399759 353.222096 
L 691.697806 353.2239 
L 709.995852 353.22372 
L 728.293899 353.214217 
L 746.591946 353.223539 
L 764.889993 353.2239 
L 783.188039 353.2239 
L 801.486086 353.22053 
L 819.784133 353.2239 
L 838.082179 353.221853 
L 856.380226 353.2239 
L 874.678273 353.223297 
L 892.976319 353.2239 
L 911.274366 353.223777 
L 929.572413 353.222336 
L 947.870459 353.2239 
" style="fill:none;stroke:#5cb85c;stroke-linecap:square;"/>
   </g>
   <g id="line2d_34">
    <path clip-path="url(#p57fd9bf28a)" d="M 42.117148 353.205224 
L 51.266172 352.692249 
L 60.415195 353.077354 
L 69.564218 353.221783 
L 78.713242 353.223402 
L 87.862265 353.179824 
L 97.011288 353.2239 
L 106.160312 353.223775 
L 115.309335 353.221783 
L 124.458358 353.217675 
L 142.756405 353.199932 
L 161.054452 353.223153 
L 179.352499 353.217986 
L 197.650545 353.2239 
L 215.948592 353.222032 
L 234.246639 353.2239 
L 252.544685 353.2239 
L 270.842732 353.223526 
L 289.140779 353.221472 
L 307.438825 353.2239 
L 325.736872 353.2239 
L 344.034919 353.223713 
L 362.332965 353.2239 
L 380.631012 353.223215 
L 398.929059 353.223838 
L 417.227105 353.216615 
L 435.525152 353.222841 
L 453.823199 353.223215 
L 472.121246 353.22309 
L 490.419292 353.221658 
L 508.717339 353.2239 
L 527.015386 353.220537 
L 545.313432 353.220288 
L 563.611479 353.221533 
L 581.909526 353.2239 
L 600.207572 353.2239 
L 618.505619 353.223775 
L 636.803666 353.221408 
L 655.101712 353.221844 
L 673.399759 353.221969 
L 691.697806 353.2239 
L 709.995852 353.223775 
L 728.293899 353.212246 
L 746.591946 353.223464 
L 764.889993 353.2239 
L 783.188039 353.2239 
L 801.486086 353.220471 
L 819.784133 353.2239 
L 838.082179 353.221654 
L 856.380226 353.2239 
L 874.678273 353.223338 
L 892.976319 353.2239 
L 911.274366 353.223836 
L 929.572413 353.222743 
L 947.870459 353.2239 
" style="fill:none;stroke:#5cb85c;stroke-linecap:square;"/>
   </g>
   <g id="line2d_35">
    <path clip-path="url(#p57fd9bf28a)" d="M 42.117148 353.210281 
L 51.266172 352.6851 
L 60.415195 353.084003 
L 69.564218 353.221511 
L 78.713242 353.223422 
L 87.862265 353.184834 
L 97.011288 353.2239 
L 106.160312 353.2239 
L 115.309335 353.222108 
L 124.458358 353.217986 
L 142.756405 353.204128 
L 161.054452 353.223542 
L 179.352499 353.217986 
L 197.650545 353.2239 
L 215.948592 353.222108 
L 234.246639 353.2239 
L 252.544685 353.2239 
L 270.842732 353.223542 
L 289.140779 353.22169 
L 307.438825 353.2239 
L 325.736872 353.2239 
L 344.034919 353.22384 
L 362.332965 353.2239 
L 380.631012 353.223243 
L 398.929059 353.2239 
L 417.227105 353.216609 
L 435.525152 353.222765 
L 453.823199 353.222705 
L 472.121246 353.223302 
L 490.419292 353.221629 
L 508.717339 353.2239 
L 527.015386 353.221389 
L 545.313432 353.219954 
L 563.611479 353.222346 
L 581.909526 353.2239 
L 600.207572 353.2239 
L 618.505619 353.22378 
L 636.803666 353.221508 
L 655.101712 353.222225 
L 673.399759 353.222404 
L 691.697806 353.2239 
L 709.995852 353.2239 
L 728.293899 353.213006 
L 746.591946 353.22372 
L 764.889993 353.2239 
L 783.188039 353.2239 
L 801.486086 353.221023 
L 819.784133 353.2239 
L 838.082179 353.221561 
L 856.380226 353.2239 
L 874.678273 353.223539 
L 892.976319 353.2239 
L 911.274366 353.2239 
L 929.572413 353.222864 
L 947.870459 353.2239 
" style="fill:none;stroke:#5cb85c;stroke-linecap:square;"/>
   </g>
   <g id="line2d_36">
    <path clip-path="url(#p57fd9bf28a)" d="M 42.117148 353.208414 
L 51.266172 352.681331 
L 60.415195 353.079519 
L 69.564218 353.222534 
L 78.713242 353.223217 
L 87.862265 353.182567 
L 97.011288 353.223672 
L 106.160312 353.2239 
L 115.309335 353.22185 
L 124.458358 353.218833 
L 142.756405 353.203063 
L 161.054452 353.223331 
L 179.352499 353.218321 
L 197.650545 353.2239 
L 215.948592 353.22185 
L 234.246639 353.2239 
L 252.544685 353.2239 
L 270.842732 353.223388 
L 289.140779 353.220313 
L 307.438825 353.2239 
L 325.736872 353.2239 
L 344.034919 353.223786 
L 362.332965 353.2239 
L 380.631012 353.223046 
L 398.929059 353.2239 
L 417.227105 353.217408 
L 435.525152 353.222761 
L 453.823199 353.222761 
L 472.121246 353.223046 
L 490.419292 353.221906 
L 508.717339 353.2239 
L 527.015386 353.220995 
L 545.313432 353.220083 
L 563.611479 353.22202 
L 581.909526 353.2239 
L 600.207572 353.2239 
L 618.505619 353.223729 
L 636.803666 353.221848 
L 655.101712 353.221791 
L 673.399759 353.221962 
L 691.697806 353.2239 
L 709.995852 353.223843 
L 728.293899 353.214833 
L 746.591946 353.22333 
L 764.889993 353.2239 
L 783.188039 353.2239 
L 801.486086 353.220361 
L 819.784133 353.2239 
L 838.082179 353.222015 
L 856.380226 353.2239 
L 874.678273 353.223271 
L 892.976319 353.2239 
L 911.274366 353.223666 
L 929.572413 353.222131 
L 947.870459 353.2239 
" style="fill:none;stroke:#5cb85c;stroke-linecap:square;"/>
   </g>
   <g id="line2d_37">
    <path clip-path="url(#p57fd9bf28a)" d="M 42.117148 353.209246 
L 51.266172 352.693648 
L 60.415195 353.073603 
L 69.564218 353.222474 
L 78.713242 353.223252 
L 87.862265 353.17955 
L 97.011288 353.22377 
L 106.160312 353.223641 
L 115.309335 353.221306 
L 124.458358 353.219426 
L 142.756405 353.205032 
L 161.054452 353.223381 
L 179.352499 353.219491 
L 197.650545 353.2239 
L 215.948592 353.222474 
L 234.246639 353.2239 
L 252.544685 353.223835 
L 270.842732 353.223446 
L 289.140779 353.221955 
L 307.438825 353.2239 
L 325.736872 353.2239 
L 344.034919 353.22377 
L 362.332965 353.2239 
L 380.631012 353.223252 
L 398.929059 353.223835 
L 417.227105 353.217545 
L 435.525152 353.222927 
L 453.823199 353.223122 
L 472.121246 353.223316 
L 490.419292 353.222343 
L 508.717339 353.2239 
L 527.015386 353.220008 
L 545.313432 353.220787 
L 563.611479 353.222019 
L 581.909526 353.2239 
L 600.207572 353.2239 
L 618.505619 353.223705 
L 636.803666 353.221824 
L 655.101712 353.221629 
L 673.399759 353.221759 
L 691.697806 353.2239 
L 709.995852 353.223835 
L 728.293899 353.214749 
L 746.591946 353.223575 
L 764.889993 353.2239 
L 783.188039 353.2239 
L 801.486086 353.220589 
L 819.784133 353.2239 
L 838.082179 353.221821 
L 856.380226 353.2239 
L 874.678273 353.223445 
L 892.976319 353.2239 
L 911.274366 353.2239 
L 929.572413 353.222694 
L 947.870459 353.2239 
" style="fill:none;stroke:#5cb85c;stroke-linecap:square;"/>
   </g>
   <g id="line2d_38">
    <path clip-path="url(#p57fd9bf28a)" d="M 42.117148 353.205944 
L 51.266172 352.688335 
L 60.415195 353.081689 
L 69.564218 353.222224 
L 78.713242 353.223182 
L 87.862265 353.178292 
L 97.011288 353.2239 
L 106.160312 353.22378 
L 115.309335 353.221506 
L 124.458358 353.218573 
L 142.756405 353.203191 
L 161.054452 353.223601 
L 179.352499 353.217735 
L 197.650545 353.2239 
L 215.948592 353.222104 
L 234.246639 353.2239 
L 252.544685 353.2239 
L 270.842732 353.223481 
L 289.140779 353.221147 
L 307.438825 353.2239 
L 325.736872 353.2239 
L 344.034919 353.22378 
L 362.332965 353.2239 
L 380.631012 353.223301 
L 398.929059 353.223601 
L 417.227105 353.217853 
L 435.525152 353.222703 
L 453.823199 353.223062 
L 472.121246 353.223301 
L 490.419292 353.221924 
L 508.717339 353.2239 
L 527.015386 353.221385 
L 545.313432 353.220008 
L 563.611479 353.222223 
L 581.909526 353.2239 
L 600.207572 353.2239 
L 618.505619 353.22366 
L 636.803666 353.221983 
L 655.101712 353.222103 
L 673.399759 353.222043 
L 691.697806 353.2239 
L 709.995852 353.22384 
L 728.293899 353.214191 
L 746.591946 353.22354 
L 764.889993 353.2239 
L 783.188039 353.2239 
L 801.486086 353.221441 
L 819.784133 353.2239 
L 838.082179 353.221679 
L 856.380226 353.2239 
L 874.678273 353.223479 
L 892.976319 353.2239 
L 911.274366 353.223839 
L 929.572413 353.222711 
L 947.870459 353.2239 
" style="fill:none;stroke:#5cb85c;stroke-linecap:square;"/>
   </g>
   <g id="line2d_39">
    <path clip-path="url(#p57fd9bf28a)" d="M 42.117148 353.209701 
L 51.266172 352.693809 
L 60.415195 353.07731 
L 69.564218 353.221665 
L 78.713242 353.223506 
L 87.862265 353.18012 
L 97.011288 353.2239 
L 106.160312 353.223637 
L 115.309335 353.221665 
L 124.458358 353.217721 
L 142.756405 353.200498 
L 161.054452 353.223637 
L 179.352499 353.218773 
L 197.650545 353.2239 
L 215.948592 353.222059 
L 234.246639 353.2239 
L 252.544685 353.2239 
L 270.842732 353.223177 
L 289.140779 353.22127 
L 307.438825 353.2239 
L 325.736872 353.2239 
L 344.034919 353.223571 
L 362.332965 353.2239 
L 380.631012 353.22298 
L 398.929059 353.223834 
L 417.227105 353.215944 
L 435.525152 353.222979 
L 453.823199 353.223111 
L 472.121246 353.222914 
L 490.419292 353.222124 
L 508.717339 353.2239 
L 527.015386 353.219822 
L 545.313432 353.220348 
L 563.611479 353.221664 
L 581.909526 353.2239 
L 600.207572 353.2239 
L 618.505619 353.223834 
L 636.803666 353.221729 
L 655.101712 353.220742 
L 673.399759 353.221005 
L 691.697806 353.2239 
L 709.995852 353.223768 
L 728.293899 353.212577 
L 746.591946 353.223242 
L 764.889993 353.2239 
L 783.188039 353.2239 
L 801.486086 353.219815 
L 819.784133 353.2239 
L 838.082179 353.222053 
L 856.380226 353.2239 
L 874.678273 353.223504 
L 892.976319 353.2239 
L 911.274366 353.223765 
L 929.572413 353.222514 
L 947.870459 353.2239 
" style="fill:none;stroke:#5cb85c;stroke-linecap:square;"/>
   </g>
   <g id="line2d_40">
    <path clip-path="url(#p57fd9bf28a)" d="M 42.117148 353.20482 
L 51.266172 352.68295 
L 60.415195 353.078092 
L 69.564218 353.221427 
L 78.713242 353.223429 
L 87.862265 353.184091 
L 97.011288 353.2239 
L 106.160312 353.223664 
L 115.309335 353.222133 
L 124.458358 353.217893 
L 142.756405 353.20005 
L 161.054452 353.223252 
L 179.352499 353.218188 
L 197.650545 353.2239 
L 215.948592 353.221662 
L 234.246639 353.2239 
L 252.544685 353.2239 
L 270.842732 353.223429 
L 289.140779 353.221191 
L 307.438825 353.2239 
L 325.736872 353.2239 
L 344.034919 353.223782 
L 362.332965 353.2239 
L 380.631012 353.223075 
L 398.929059 353.223664 
L 417.227105 353.216655 
L 435.525152 353.222663 
L 453.823199 353.222899 
L 472.121246 353.222957 
L 490.419292 353.221779 
L 508.717339 353.2239 
L 527.015386 353.22066 
L 545.313432 353.219658 
L 563.611479 353.221956 
L 581.909526 353.2239 
L 600.207572 353.2239 
L 618.505619 353.223664 
L 636.803666 353.221896 
L 655.101712 353.221601 
L 673.399759 353.22219 
L 691.697806 353.2239 
L 709.995852 353.223664 
L 728.293899 353.21234 
L 746.591946 353.22331 
L 764.889993 353.2239 
L 783.188039 353.2239 
L 801.486086 353.22077 
L 819.784133 353.2239 
L 838.082179 353.221831 
L 856.380226 353.2239 
L 874.678273 353.223308 
L 892.976319 353.2239 
L 911.274366 353.223779 
L 929.572413 353.222285 
L 947.870459 353.2239 
" style="fill:none;stroke:#5cb85c;stroke-linecap:square;"/>
   </g>
   <g id="line2d_41">
    <path clip-path="url(#p57fd9bf28a)" d="M 32.968125 353.2239 
L 993.158125 353.2239 
" style="fill:none;stroke:#dedede;stroke-linecap:square;stroke-width:2;"/>
   </g>
   <g id="text_15">
    <!-- FastQC: Per Base N Content -->
    <g transform="translate(402.209375 19.3575)scale(0.16 -0.16)">
     <defs>
      <path d="M 628 4666 
L 3309 4666 
L 3309 4134 
L 1259 4134 
L 1259 2759 
L 3109 2759 
L 3109 2228 
L 1259 2228 
L 1259 0 
L 628 0 
L 628 4666 
z
" id="DejaVuSans-46" transform="scale(0.015625)"/>
      <path d="M 2522 4238 
Q 1834 4238 1429 3725 
Q 1025 3213 1025 2328 
Q 1025 1447 1429 934 
Q 1834 422 2522 422 
Q 3209 422 3611 934 
Q 4013 1447 4013 2328 
Q 4013 3213 3611 3725 
Q 3209 4238 2522 4238 
z
M 3406 84 
L 4238 -825 
L 3475 -825 
L 2784 -78 
Q 2681 -84 2626 -87 
Q 2572 -91 2522 -91 
Q 1538 -91 948 567 
Q 359 1225 359 2328 
Q 359 3434 948 4092 
Q 1538 4750 2522 4750 
Q 3503 4750 4090 4092 
Q 4678 3434 4678 2328 
Q 4678 1516 4351 937 
Q 4025 359 3406 84 
z
" id="DejaVuSans-51" transform="scale(0.015625)"/>
      <path d="M 750 794 
L 1409 794 
L 1409 0 
L 750 0 
L 750 794 
z
M 750 3309 
L 1409 3309 
L 1409 2516 
L 750 2516 
L 750 3309 
z
" id="DejaVuSans-3a" transform="scale(0.015625)"/>
      <path d="M 1259 2228 
L 1259 519 
L 2272 519 
Q 2781 519 3026 730 
Q 3272 941 3272 1375 
Q 3272 1813 3026 2020 
Q 2781 2228 2272 2228 
L 1259 2228 
z
M 1259 4147 
L 1259 2741 
L 2194 2741 
Q 2656 2741 2882 2914 
Q 3109 3088 3109 3444 
Q 3109 3797 2882 3972 
Q 2656 4147 2194 4147 
L 1259 4147 
z
M 628 4666 
L 2241 4666 
Q 2963 4666 3353 4366 
Q 3744 4066 3744 3513 
Q 3744 3084 3544 2831 
Q 3344 2578 2956 2516 
Q 3422 2416 3680 2098 
Q 3938 1781 3938 1306 
Q 3938 681 3513 340 
Q 3088 0 2303 0 
L 628 0 
L 628 4666 
z
" id="DejaVuSans-42" transform="scale(0.015625)"/>
     </defs>
     <use xlink:href="#DejaVuSans-46"/>
     <use x="48.394531" xlink:href="#DejaVuSans-61"/>
     <use x="109.673828" xlink:href="#DejaVuSans-73"/>
     <use x="161.773438" xlink:href="#DejaVuSans-74"/>
     <use x="200.982422" xlink:href="#DejaVuSans-51"/>
     <use x="279.693359" xlink:href="#DejaVuSans-43"/>
     <use x="349.517578" xlink:href="#DejaVuSans-3a"/>
     <use x="383.208984" xlink:href="#DejaVuSans-20"/>
     <use x="414.996094" xlink:href="#DejaVuSans-50"/>
     <use x="471.673828" xlink:href="#DejaVuSans-65"/>
     <use x="533.197266" xlink:href="#DejaVuSans-72"/>
     <use x="574.310547" xlink:href="#DejaVuSans-20"/>
     <use x="606.097656" xlink:href="#DejaVuSans-42"/>
     <use x="674.701172" xlink:href="#DejaVuSans-61"/>
     <use x="735.980469" xlink:href="#DejaVuSans-73"/>
     <use x="788.080078" xlink:href="#DejaVuSans-65"/>
     <use x="849.603516" xlink:href="#DejaVuSans-20"/>
     <use x="881.390625" xlink:href="#DejaVuSans-4e"/>
     <use x="956.195312" xlink:href="#DejaVuSans-20"/>
     <use x="987.982422" xlink:href="#DejaVuSans-43"/>
     <use x="1057.806641" xlink:href="#DejaVuSans-6f"/>
     <use x="1118.988281" xlink:href="#DejaVuSans-6e"/>
     <use x="1182.367188" xlink:href="#DejaVuSans-74"/>
     <use x="1221.576172" xlink:href="#DejaVuSans-65"/>
     <use x="1283.099609" xlink:href="#DejaVuSans-6e"/>
     <use x="1346.478516" xlink:href="#DejaVuSans-74"/>
    </g>
   </g>
  </g>
 </g>
 <defs>
  <clipPath id="p57fd9bf28a">
   <rect height="317.968" width="960.19" x="32.968125" y="35.2559"/>
  </clipPath>
 </defs>
</svg>
