<?xml version="1.0" encoding="utf-8" standalone="no"?>
<!DOCTYPE svg PUBLIC "-//W3C//DTD SVG 1.1//EN"
  "http://www.w3.org/Graphics/SVG/1.1/DTD/svg11.dtd">
<svg height="388.844525pt" version="1.1" viewBox="0 0 1000.238125 388.844525" width="1000.238125pt" xmlns="http://www.w3.org/2000/svg" xmlns:xlink="http://www.w3.org/1999/xlink">
 <metadata>
  <rdf:RDF xmlns:cc="http://creativecommons.org/ns#" xmlns:dc="http://purl.org/dc/elements/1.1/" xmlns:rdf="http://www.w3.org/1999/02/22-rdf-syntax-ns#">
   <cc:Work>
    <dc:type rdf:resource="http://purl.org/dc/dcmitype/StillImage"/>
    <dc:date>2022-11-03T13:38:23.856380</dc:date>
    <dc:format>image/svg+xml</dc:format>
    <dc:creator>
     <cc:Agent>
      <dc:title>Matplotlib v3.4.2, https://matplotlib.org/</dc:title>
     </cc:Agent>
    </dc:creator>
   </cc:Work>
  </rdf:RDF>
 </metadata>
 <defs>
  <style type="text/css">*{stroke-linecap:butt;stroke-linejoin:round;}</style>
 </defs>
 <g id="figure_1">
  <g id="axes_1">
   <g id="patch_1">
    <path d="M 48.238125 353.2239 
L 993.038125 353.2239 
L 993.038125 35.2559 
L 48.238125 35.2559 
z
" style="fill:#ffffff;"/>
   </g>
   <g id="matplotlib.axis_1">
    <g id="xtick_1">
     <g id="text_1">
      <!-- 1 -->
      <g transform="translate(88.63858 366.30265)scale(0.08 -0.08)">
       <defs>
        <path d="M 794 531 
L 1825 531 
L 1825 4091 
L 703 3866 
L 703 4441 
L 1819 4666 
L 2450 4666 
L 2450 531 
L 3481 531 
L 3481 0 
L 794 0 
L 794 531 
z
" id="DejaVuSans-31" transform="scale(0.015625)"/>
       </defs>
       <use xlink:href="#DejaVuSans-31"/>
      </g>
     </g>
    </g>
    <g id="xtick_2">
     <g id="text_2">
      <!-- 2 -->
      <g transform="translate(125.982453 366.30265)scale(0.08 -0.08)">
       <defs>
        <path d="M 1228 531 
L 3431 531 
L 3431 0 
L 469 0 
L 469 531 
Q 828 903 1448 1529 
Q 2069 2156 2228 2338 
Q 2531 2678 2651 2914 
Q 2772 3150 2772 3378 
Q 2772 3750 2511 3984 
Q 2250 4219 1831 4219 
Q 1534 4219 1204 4116 
Q 875 4013 500 3803 
L 500 4441 
Q 881 4594 1212 4672 
Q 1544 4750 1819 4750 
Q 2544 4750 2975 4387 
Q 3406 4025 3406 3419 
Q 3406 3131 3298 2873 
Q 3191 2616 2906 2266 
Q 2828 2175 2409 1742 
Q 1991 1309 1228 531 
z
" id="DejaVuSans-32" transform="scale(0.015625)"/>
       </defs>
       <use xlink:href="#DejaVuSans-32"/>
      </g>
     </g>
    </g>
    <g id="xtick_3">
     <g id="text_3">
      <!-- 3 -->
      <g transform="translate(163.326327 366.30265)scale(0.08 -0.08)">
       <defs>
        <path d="M 2597 2516 
Q 3050 2419 3304 2112 
Q 3559 1806 3559 1356 
Q 3559 666 3084 287 
Q 2609 -91 1734 -91 
Q 1441 -91 1130 -33 
Q 819 25 488 141 
L 488 750 
Q 750 597 1062 519 
Q 1375 441 1716 441 
Q 2309 441 2620 675 
Q 2931 909 2931 1356 
Q 2931 1769 2642 2001 
Q 2353 2234 1838 2234 
L 1294 2234 
L 1294 2753 
L 1863 2753 
Q 2328 2753 2575 2939 
Q 2822 3125 2822 3475 
Q 2822 3834 2567 4026 
Q 2313 4219 1838 4219 
Q 1578 4219 1281 4162 
Q 984 4106 628 3988 
L 628 4550 
Q 988 4650 1302 4700 
Q 1616 4750 1894 4750 
Q 2613 4750 3031 4423 
Q 3450 4097 3450 3541 
Q 3450 3153 3228 2886 
Q 3006 2619 2597 2516 
z
" id="DejaVuSans-33" transform="scale(0.015625)"/>
       </defs>
       <use xlink:href="#DejaVuSans-33"/>
      </g>
     </g>
    </g>
    <g id="xtick_4">
     <g id="text_4">
      <!-- 4 -->
      <g transform="translate(200.6702 366.30265)scale(0.08 -0.08)">
       <defs>
        <path d="M 2419 4116 
L 825 1625 
L 2419 1625 
L 2419 4116 
z
M 2253 4666 
L 3047 4666 
L 3047 1625 
L 3713 1625 
L 3713 1100 
L 3047 1100 
L 3047 0 
L 2419 0 
L 2419 1100 
L 313 1100 
L 313 1709 
L 2253 4666 
z
" id="DejaVuSans-34" transform="scale(0.015625)"/>
       </defs>
       <use xlink:href="#DejaVuSans-34"/>
      </g>
     </g>
    </g>
    <g id="xtick_5">
     <g id="text_5">
      <!-- 5 -->
      <g transform="translate(238.014074 366.30265)scale(0.08 -0.08)">
       <defs>
        <path d="M 691 4666 
L 3169 4666 
L 3169 4134 
L 1269 4134 
L 1269 2991 
Q 1406 3038 1543 3061 
Q 1681 3084 1819 3084 
Q 2600 3084 3056 2656 
Q 3513 2228 3513 1497 
Q 3513 744 3044 326 
Q 2575 -91 1722 -91 
Q 1428 -91 1123 -41 
Q 819 9 494 109 
L 494 744 
Q 775 591 1075 516 
Q 1375 441 1709 441 
Q 2250 441 2565 725 
Q 2881 1009 2881 1497 
Q 2881 1984 2565 2268 
Q 2250 2553 1709 2553 
Q 1456 2553 1204 2497 
Q 953 2441 691 2322 
L 691 4666 
z
" id="DejaVuSans-35" transform="scale(0.015625)"/>
       </defs>
       <use xlink:href="#DejaVuSans-35"/>
      </g>
     </g>
    </g>
    <g id="xtick_6">
     <g id="text_6">
      <!-- 6 -->
      <g transform="translate(275.357947 366.30265)scale(0.08 -0.08)">
       <defs>
        <path d="M 2113 2584 
Q 1688 2584 1439 2293 
Q 1191 2003 1191 1497 
Q 1191 994 1439 701 
Q 1688 409 2113 409 
Q 2538 409 2786 701 
Q 3034 994 3034 1497 
Q 3034 2003 2786 2293 
Q 2538 2584 2113 2584 
z
M 3366 4563 
L 3366 3988 
Q 3128 4100 2886 4159 
Q 2644 4219 2406 4219 
Q 1781 4219 1451 3797 
Q 1122 3375 1075 2522 
Q 1259 2794 1537 2939 
Q 1816 3084 2150 3084 
Q 2853 3084 3261 2657 
Q 3669 2231 3669 1497 
Q 3669 778 3244 343 
Q 2819 -91 2113 -91 
Q 1303 -91 875 529 
Q 447 1150 447 2328 
Q 447 3434 972 4092 
Q 1497 4750 2381 4750 
Q 2619 4750 2861 4703 
Q 3103 4656 3366 4563 
z
" id="DejaVuSans-36" transform="scale(0.015625)"/>
       </defs>
       <use xlink:href="#DejaVuSans-36"/>
      </g>
     </g>
    </g>
    <g id="xtick_7">
     <g id="text_7">
      <!-- 7 -->
      <g transform="translate(312.701821 366.30265)scale(0.08 -0.08)">
       <defs>
        <path d="M 525 4666 
L 3525 4666 
L 3525 4397 
L 1831 0 
L 1172 0 
L 2766 4134 
L 525 4134 
L 525 4666 
z
" id="DejaVuSans-37" transform="scale(0.015625)"/>
       </defs>
       <use xlink:href="#DejaVuSans-37"/>
      </g>
     </g>
    </g>
    <g id="xtick_8">
     <g id="text_8">
      <!-- 8 -->
      <g transform="translate(350.045694 366.30265)scale(0.08 -0.08)">
       <defs>
        <path d="M 2034 2216 
Q 1584 2216 1326 1975 
Q 1069 1734 1069 1313 
Q 1069 891 1326 650 
Q 1584 409 2034 409 
Q 2484 409 2743 651 
Q 3003 894 3003 1313 
Q 3003 1734 2745 1975 
Q 2488 2216 2034 2216 
z
M 1403 2484 
Q 997 2584 770 2862 
Q 544 3141 544 3541 
Q 544 4100 942 4425 
Q 1341 4750 2034 4750 
Q 2731 4750 3128 4425 
Q 3525 4100 3525 3541 
Q 3525 3141 3298 2862 
Q 3072 2584 2669 2484 
Q 3125 2378 3379 2068 
Q 3634 1759 3634 1313 
Q 3634 634 3220 271 
Q 2806 -91 2034 -91 
Q 1263 -91 848 271 
Q 434 634 434 1313 
Q 434 1759 690 2068 
Q 947 2378 1403 2484 
z
M 1172 3481 
Q 1172 3119 1398 2916 
Q 1625 2713 2034 2713 
Q 2441 2713 2670 2916 
Q 2900 3119 2900 3481 
Q 2900 3844 2670 4047 
Q 2441 4250 2034 4250 
Q 1625 4250 1398 4047 
Q 1172 3844 1172 3481 
z
" id="DejaVuSans-38" transform="scale(0.015625)"/>
       </defs>
       <use xlink:href="#DejaVuSans-38"/>
      </g>
     </g>
    </g>
    <g id="xtick_9">
     <g id="text_9">
      <!-- 9 -->
      <g transform="translate(387.389568 366.30265)scale(0.08 -0.08)">
       <defs>
        <path d="M 703 97 
L 703 672 
Q 941 559 1184 500 
Q 1428 441 1663 441 
Q 2288 441 2617 861 
Q 2947 1281 2994 2138 
Q 2813 1869 2534 1725 
Q 2256 1581 1919 1581 
Q 1219 1581 811 2004 
Q 403 2428 403 3163 
Q 403 3881 828 4315 
Q 1253 4750 1959 4750 
Q 2769 4750 3195 4129 
Q 3622 3509 3622 2328 
Q 3622 1225 3098 567 
Q 2575 -91 1691 -91 
Q 1453 -91 1209 -44 
Q 966 3 703 97 
z
M 1959 2075 
Q 2384 2075 2632 2365 
Q 2881 2656 2881 3163 
Q 2881 3666 2632 3958 
Q 2384 4250 1959 4250 
Q 1534 4250 1286 3958 
Q 1038 3666 1038 3163 
Q 1038 2656 1286 2365 
Q 1534 2075 1959 2075 
z
" id="DejaVuSans-39" transform="scale(0.015625)"/>
       </defs>
       <use xlink:href="#DejaVuSans-39"/>
      </g>
     </g>
    </g>
    <g id="xtick_10">
     <g id="text_10">
      <!-- 10 -->
      <g transform="translate(422.188441 366.30265)scale(0.08 -0.08)">
       <defs>
        <path d="M 2034 4250 
Q 1547 4250 1301 3770 
Q 1056 3291 1056 2328 
Q 1056 1369 1301 889 
Q 1547 409 2034 409 
Q 2525 409 2770 889 
Q 3016 1369 3016 2328 
Q 3016 3291 2770 3770 
Q 2525 4250 2034 4250 
z
M 2034 4750 
Q 2819 4750 3233 4129 
Q 3647 3509 3647 2328 
Q 3647 1150 3233 529 
Q 2819 -91 2034 -91 
Q 1250 -91 836 529 
Q 422 1150 422 2328 
Q 422 3509 836 4129 
Q 1250 4750 2034 4750 
z
" id="DejaVuSans-30" transform="scale(0.015625)"/>
       </defs>
       <use xlink:href="#DejaVuSans-31"/>
       <use x="63.623047" xlink:href="#DejaVuSans-30"/>
      </g>
     </g>
    </g>
    <g id="xtick_11">
     <g id="text_11">
      <!-- 11 -->
      <g transform="translate(459.532315 366.30265)scale(0.08 -0.08)">
       <use xlink:href="#DejaVuSans-31"/>
       <use x="63.623047" xlink:href="#DejaVuSans-31"/>
      </g>
     </g>
    </g>
    <g id="xtick_12">
     <g id="text_12">
      <!-- 12 -->
      <g transform="translate(496.876188 366.30265)scale(0.08 -0.08)">
       <use xlink:href="#DejaVuSans-31"/>
       <use x="63.623047" xlink:href="#DejaVuSans-32"/>
      </g>
     </g>
    </g>
    <g id="xtick_13">
     <g id="text_13">
      <!-- 13 -->
      <g transform="translate(534.220062 366.30265)scale(0.08 -0.08)">
       <use xlink:href="#DejaVuSans-31"/>
       <use x="63.623047" xlink:href="#DejaVuSans-33"/>
      </g>
     </g>
    </g>
    <g id="xtick_14">
     <g id="text_14">
      <!-- 14 -->
      <g transform="translate(571.563935 366.30265)scale(0.08 -0.08)">
       <use xlink:href="#DejaVuSans-31"/>
       <use x="63.623047" xlink:href="#DejaVuSans-34"/>
      </g>
     </g>
    </g>
    <g id="xtick_15">
     <g id="text_15">
      <!-- 15 -->
      <g transform="translate(608.907809 366.30265)scale(0.08 -0.08)">
       <use xlink:href="#DejaVuSans-31"/>
       <use x="63.623047" xlink:href="#DejaVuSans-35"/>
      </g>
     </g>
    </g>
    <g id="xtick_16">
     <g id="text_16">
      <!-- 16 -->
      <g transform="translate(646.251682 366.30265)scale(0.08 -0.08)">
       <use xlink:href="#DejaVuSans-31"/>
       <use x="63.623047" xlink:href="#DejaVuSans-36"/>
      </g>
     </g>
    </g>
    <g id="xtick_17">
     <g id="text_17">
      <!-- 17 -->
      <g transform="translate(683.595556 366.30265)scale(0.08 -0.08)">
       <use xlink:href="#DejaVuSans-31"/>
       <use x="63.623047" xlink:href="#DejaVuSans-37"/>
      </g>
     </g>
    </g>
    <g id="xtick_18">
     <g id="text_18">
      <!-- 18 -->
      <g transform="translate(720.939429 366.30265)scale(0.08 -0.08)">
       <use xlink:href="#DejaVuSans-31"/>
       <use x="63.623047" xlink:href="#DejaVuSans-38"/>
      </g>
     </g>
    </g>
    <g id="xtick_19">
     <g id="text_19">
      <!-- 19 -->
      <g transform="translate(758.283303 366.30265)scale(0.08 -0.08)">
       <use xlink:href="#DejaVuSans-31"/>
       <use x="63.623047" xlink:href="#DejaVuSans-39"/>
      </g>
     </g>
    </g>
    <g id="xtick_20">
     <g id="text_20">
      <!-- 20 -->
      <g transform="translate(795.627176 366.30265)scale(0.08 -0.08)">
       <use xlink:href="#DejaVuSans-32"/>
       <use x="63.623047" xlink:href="#DejaVuSans-30"/>
      </g>
     </g>
    </g>
    <g id="xtick_21">
     <g id="text_21">
      <!-- 21 -->
      <g transform="translate(832.97105 366.30265)scale(0.08 -0.08)">
       <use xlink:href="#DejaVuSans-32"/>
       <use x="63.623047" xlink:href="#DejaVuSans-31"/>
      </g>
     </g>
    </g>
    <g id="xtick_22">
     <g id="text_22">
      <!-- 22 -->
      <g transform="translate(870.314923 366.30265)scale(0.08 -0.08)">
       <use xlink:href="#DejaVuSans-32"/>
       <use x="63.623047" xlink:href="#DejaVuSans-32"/>
      </g>
     </g>
    </g>
    <g id="xtick_23">
     <g id="text_23">
      <!-- X -->
      <g transform="translate(910.008797 366.30265)scale(0.08 -0.08)">
       <defs>
        <path d="M 403 4666 
L 1081 4666 
L 2241 2931 
L 3406 4666 
L 4084 4666 
L 2584 2425 
L 4184 0 
L 3506 0 
L 2194 1984 
L 872 0 
L 191 0 
L 1856 2491 
L 403 4666 
z
" id="DejaVuSans-58" transform="scale(0.015625)"/>
       </defs>
       <use xlink:href="#DejaVuSans-58"/>
      </g>
     </g>
    </g>
    <g id="xtick_24">
     <g id="text_24">
      <!-- MT -->
      <g transform="translate(944.198295 366.30265)scale(0.08 -0.08)">
       <defs>
        <path d="M 628 4666 
L 1569 4666 
L 2759 1491 
L 3956 4666 
L 4897 4666 
L 4897 0 
L 4281 0 
L 4281 4097 
L 3078 897 
L 2444 897 
L 1241 4097 
L 1241 0 
L 628 0 
L 628 4666 
z
" id="DejaVuSans-4d" transform="scale(0.015625)"/>
        <path d="M -19 4666 
L 3928 4666 
L 3928 4134 
L 2272 4134 
L 2272 0 
L 1638 0 
L 1638 4134 
L -19 4134 
L -19 4666 
z
" id="DejaVuSans-54" transform="scale(0.015625)"/>
       </defs>
       <use xlink:href="#DejaVuSans-4d"/>
       <use x="86.279297" xlink:href="#DejaVuSans-54"/>
      </g>
     </g>
    </g>
    <g id="text_25">
     <!-- Chromosome Name -->
     <g transform="translate(471.094375 379.564837)scale(0.1 -0.1)">
      <defs>
       <path d="M 4122 4306 
L 4122 3641 
Q 3803 3938 3442 4084 
Q 3081 4231 2675 4231 
Q 1875 4231 1450 3742 
Q 1025 3253 1025 2328 
Q 1025 1406 1450 917 
Q 1875 428 2675 428 
Q 3081 428 3442 575 
Q 3803 722 4122 1019 
L 4122 359 
Q 3791 134 3420 21 
Q 3050 -91 2638 -91 
Q 1578 -91 968 557 
Q 359 1206 359 2328 
Q 359 3453 968 4101 
Q 1578 4750 2638 4750 
Q 3056 4750 3426 4639 
Q 3797 4528 4122 4306 
z
" id="DejaVuSans-43" transform="scale(0.015625)"/>
       <path d="M 3513 2113 
L 3513 0 
L 2938 0 
L 2938 2094 
Q 2938 2591 2744 2837 
Q 2550 3084 2163 3084 
Q 1697 3084 1428 2787 
Q 1159 2491 1159 1978 
L 1159 0 
L 581 0 
L 581 4863 
L 1159 4863 
L 1159 2956 
Q 1366 3272 1645 3428 
Q 1925 3584 2291 3584 
Q 2894 3584 3203 3211 
Q 3513 2838 3513 2113 
z
" id="DejaVuSans-68" transform="scale(0.015625)"/>
       <path d="M 2631 2963 
Q 2534 3019 2420 3045 
Q 2306 3072 2169 3072 
Q 1681 3072 1420 2755 
Q 1159 2438 1159 1844 
L 1159 0 
L 581 0 
L 581 3500 
L 1159 3500 
L 1159 2956 
Q 1341 3275 1631 3429 
Q 1922 3584 2338 3584 
Q 2397 3584 2469 3576 
Q 2541 3569 2628 3553 
L 2631 2963 
z
" id="DejaVuSans-72" transform="scale(0.015625)"/>
       <path d="M 1959 3097 
Q 1497 3097 1228 2736 
Q 959 2375 959 1747 
Q 959 1119 1226 758 
Q 1494 397 1959 397 
Q 2419 397 2687 759 
Q 2956 1122 2956 1747 
Q 2956 2369 2687 2733 
Q 2419 3097 1959 3097 
z
M 1959 3584 
Q 2709 3584 3137 3096 
Q 3566 2609 3566 1747 
Q 3566 888 3137 398 
Q 2709 -91 1959 -91 
Q 1206 -91 779 398 
Q 353 888 353 1747 
Q 353 2609 779 3096 
Q 1206 3584 1959 3584 
z
" id="DejaVuSans-6f" transform="scale(0.015625)"/>
       <path d="M 3328 2828 
Q 3544 3216 3844 3400 
Q 4144 3584 4550 3584 
Q 5097 3584 5394 3201 
Q 5691 2819 5691 2113 
L 5691 0 
L 5113 0 
L 5113 2094 
Q 5113 2597 4934 2840 
Q 4756 3084 4391 3084 
Q 3944 3084 3684 2787 
Q 3425 2491 3425 1978 
L 3425 0 
L 2847 0 
L 2847 2094 
Q 2847 2600 2669 2842 
Q 2491 3084 2119 3084 
Q 1678 3084 1418 2786 
Q 1159 2488 1159 1978 
L 1159 0 
L 581 0 
L 581 3500 
L 1159 3500 
L 1159 2956 
Q 1356 3278 1631 3431 
Q 1906 3584 2284 3584 
Q 2666 3584 2933 3390 
Q 3200 3197 3328 2828 
z
" id="DejaVuSans-6d" transform="scale(0.015625)"/>
       <path d="M 2834 3397 
L 2834 2853 
Q 2591 2978 2328 3040 
Q 2066 3103 1784 3103 
Q 1356 3103 1142 2972 
Q 928 2841 928 2578 
Q 928 2378 1081 2264 
Q 1234 2150 1697 2047 
L 1894 2003 
Q 2506 1872 2764 1633 
Q 3022 1394 3022 966 
Q 3022 478 2636 193 
Q 2250 -91 1575 -91 
Q 1294 -91 989 -36 
Q 684 19 347 128 
L 347 722 
Q 666 556 975 473 
Q 1284 391 1588 391 
Q 1994 391 2212 530 
Q 2431 669 2431 922 
Q 2431 1156 2273 1281 
Q 2116 1406 1581 1522 
L 1381 1569 
Q 847 1681 609 1914 
Q 372 2147 372 2553 
Q 372 3047 722 3315 
Q 1072 3584 1716 3584 
Q 2034 3584 2315 3537 
Q 2597 3491 2834 3397 
z
" id="DejaVuSans-73" transform="scale(0.015625)"/>
       <path d="M 3597 1894 
L 3597 1613 
L 953 1613 
Q 991 1019 1311 708 
Q 1631 397 2203 397 
Q 2534 397 2845 478 
Q 3156 559 3463 722 
L 3463 178 
Q 3153 47 2828 -22 
Q 2503 -91 2169 -91 
Q 1331 -91 842 396 
Q 353 884 353 1716 
Q 353 2575 817 3079 
Q 1281 3584 2069 3584 
Q 2775 3584 3186 3129 
Q 3597 2675 3597 1894 
z
M 3022 2063 
Q 3016 2534 2758 2815 
Q 2500 3097 2075 3097 
Q 1594 3097 1305 2825 
Q 1016 2553 972 2059 
L 3022 2063 
z
" id="DejaVuSans-65" transform="scale(0.015625)"/>
       <path id="DejaVuSans-20" transform="scale(0.015625)"/>
       <path d="M 628 4666 
L 1478 4666 
L 3547 763 
L 3547 4666 
L 4159 4666 
L 4159 0 
L 3309 0 
L 1241 3903 
L 1241 0 
L 628 0 
L 628 4666 
z
" id="DejaVuSans-4e" transform="scale(0.015625)"/>
       <path d="M 2194 1759 
Q 1497 1759 1228 1600 
Q 959 1441 959 1056 
Q 959 750 1161 570 
Q 1363 391 1709 391 
Q 2188 391 2477 730 
Q 2766 1069 2766 1631 
L 2766 1759 
L 2194 1759 
z
M 3341 1997 
L 3341 0 
L 2766 0 
L 2766 531 
Q 2569 213 2275 61 
Q 1981 -91 1556 -91 
Q 1019 -91 701 211 
Q 384 513 384 1019 
Q 384 1609 779 1909 
Q 1175 2209 1959 2209 
L 2766 2209 
L 2766 2266 
Q 2766 2663 2505 2880 
Q 2244 3097 1772 3097 
Q 1472 3097 1187 3025 
Q 903 2953 641 2809 
L 641 3341 
Q 956 3463 1253 3523 
Q 1550 3584 1831 3584 
Q 2591 3584 2966 3190 
Q 3341 2797 3341 1997 
z
" id="DejaVuSans-61" transform="scale(0.015625)"/>
      </defs>
      <use xlink:href="#DejaVuSans-43"/>
      <use x="69.824219" xlink:href="#DejaVuSans-68"/>
      <use x="133.203125" xlink:href="#DejaVuSans-72"/>
      <use x="172.066406" xlink:href="#DejaVuSans-6f"/>
      <use x="233.248047" xlink:href="#DejaVuSans-6d"/>
      <use x="330.660156" xlink:href="#DejaVuSans-6f"/>
      <use x="391.841797" xlink:href="#DejaVuSans-73"/>
      <use x="443.941406" xlink:href="#DejaVuSans-6f"/>
      <use x="505.123047" xlink:href="#DejaVuSans-6d"/>
      <use x="602.535156" xlink:href="#DejaVuSans-65"/>
      <use x="664.058594" xlink:href="#DejaVuSans-20"/>
      <use x="695.845703" xlink:href="#DejaVuSans-4e"/>
      <use x="770.650391" xlink:href="#DejaVuSans-61"/>
      <use x="831.929688" xlink:href="#DejaVuSans-6d"/>
      <use x="929.341797" xlink:href="#DejaVuSans-65"/>
     </g>
    </g>
   </g>
   <g id="matplotlib.axis_2">
    <g id="ytick_1">
     <g id="line2d_1">
      <path clip-path="url(#p7e2058d438)" d="M 48.238125 338.797721 
L 993.038125 338.797721 
" style="fill:none;stroke:#dedede;stroke-linecap:square;"/>
     </g>
     <g id="text_26">
      <!-- 0 -->
      <g transform="translate(36.148125 341.837096)scale(0.08 -0.08)">
       <use xlink:href="#DejaVuSans-30"/>
      </g>
     </g>
    </g>
    <g id="ytick_2">
     <g id="line2d_2">
      <path clip-path="url(#p7e2058d438)" d="M 48.238125 298.721808 
L 993.038125 298.721808 
" style="fill:none;stroke:#dedede;stroke-linecap:square;"/>
     </g>
     <g id="text_27">
      <!-- 500 -->
      <g transform="translate(25.968125 301.761183)scale(0.08 -0.08)">
       <use xlink:href="#DejaVuSans-35"/>
       <use x="63.623047" xlink:href="#DejaVuSans-30"/>
       <use x="127.246094" xlink:href="#DejaVuSans-30"/>
      </g>
     </g>
    </g>
    <g id="ytick_3">
     <g id="line2d_3">
      <path clip-path="url(#p7e2058d438)" d="M 48.238125 258.645895 
L 993.038125 258.645895 
" style="fill:none;stroke:#dedede;stroke-linecap:square;"/>
     </g>
     <g id="text_28">
      <!-- 1000 -->
      <g transform="translate(20.878125 261.68527)scale(0.08 -0.08)">
       <use xlink:href="#DejaVuSans-31"/>
       <use x="63.623047" xlink:href="#DejaVuSans-30"/>
       <use x="127.246094" xlink:href="#DejaVuSans-30"/>
       <use x="190.869141" xlink:href="#DejaVuSans-30"/>
      </g>
     </g>
    </g>
    <g id="ytick_4">
     <g id="line2d_4">
      <path clip-path="url(#p7e2058d438)" d="M 48.238125 218.569983 
L 993.038125 218.569983 
" style="fill:none;stroke:#dedede;stroke-linecap:square;"/>
     </g>
     <g id="text_29">
      <!-- 1500 -->
      <g transform="translate(20.878125 221.609358)scale(0.08 -0.08)">
       <use xlink:href="#DejaVuSans-31"/>
       <use x="63.623047" xlink:href="#DejaVuSans-35"/>
       <use x="127.246094" xlink:href="#DejaVuSans-30"/>
       <use x="190.869141" xlink:href="#DejaVuSans-30"/>
      </g>
     </g>
    </g>
    <g id="ytick_5">
     <g id="line2d_5">
      <path clip-path="url(#p7e2058d438)" d="M 48.238125 178.49407 
L 993.038125 178.49407 
" style="fill:none;stroke:#dedede;stroke-linecap:square;"/>
     </g>
     <g id="text_30">
      <!-- 2000 -->
      <g transform="translate(20.878125 181.533445)scale(0.08 -0.08)">
       <use xlink:href="#DejaVuSans-32"/>
       <use x="63.623047" xlink:href="#DejaVuSans-30"/>
       <use x="127.246094" xlink:href="#DejaVuSans-30"/>
       <use x="190.869141" xlink:href="#DejaVuSans-30"/>
      </g>
     </g>
    </g>
    <g id="ytick_6">
     <g id="line2d_6">
      <path clip-path="url(#p7e2058d438)" d="M 48.238125 138.418157 
L 993.038125 138.418157 
" style="fill:none;stroke:#dedede;stroke-linecap:square;"/>
     </g>
     <g id="text_31">
      <!-- 2500 -->
      <g transform="translate(20.878125 141.457532)scale(0.08 -0.08)">
       <use xlink:href="#DejaVuSans-32"/>
       <use x="63.623047" xlink:href="#DejaVuSans-35"/>
       <use x="127.246094" xlink:href="#DejaVuSans-30"/>
       <use x="190.869141" xlink:href="#DejaVuSans-30"/>
      </g>
     </g>
    </g>
    <g id="ytick_7">
     <g id="line2d_7">
      <path clip-path="url(#p7e2058d438)" d="M 48.238125 98.342244 
L 993.038125 98.342244 
" style="fill:none;stroke:#dedede;stroke-linecap:square;"/>
     </g>
     <g id="text_32">
      <!-- 3000 -->
      <g transform="translate(20.878125 101.381619)scale(0.08 -0.08)">
       <use xlink:href="#DejaVuSans-33"/>
       <use x="63.623047" xlink:href="#DejaVuSans-30"/>
       <use x="127.246094" xlink:href="#DejaVuSans-30"/>
       <use x="190.869141" xlink:href="#DejaVuSans-30"/>
      </g>
     </g>
    </g>
    <g id="ytick_8">
     <g id="line2d_8">
      <path clip-path="url(#p7e2058d438)" d="M 48.238125 58.266332 
L 993.038125 58.266332 
" style="fill:none;stroke:#dedede;stroke-linecap:square;"/>
     </g>
     <g id="text_33">
      <!-- 3500 -->
      <g transform="translate(20.878125 61.305707)scale(0.08 -0.08)">
       <use xlink:href="#DejaVuSans-33"/>
       <use x="63.623047" xlink:href="#DejaVuSans-35"/>
       <use x="127.246094" xlink:href="#DejaVuSans-30"/>
       <use x="190.869141" xlink:href="#DejaVuSans-30"/>
      </g>
     </g>
    </g>
    <g id="text_34">
     <!-- log10 ( Observed over expected counts ) -->
     <g transform="translate(14.798438 296.739119)rotate(-90)scale(0.1 -0.1)">
      <defs>
       <path d="M 603 4863 
L 1178 4863 
L 1178 0 
L 603 0 
L 603 4863 
z
" id="DejaVuSans-6c" transform="scale(0.015625)"/>
       <path d="M 2906 1791 
Q 2906 2416 2648 2759 
Q 2391 3103 1925 3103 
Q 1463 3103 1205 2759 
Q 947 2416 947 1791 
Q 947 1169 1205 825 
Q 1463 481 1925 481 
Q 2391 481 2648 825 
Q 2906 1169 2906 1791 
z
M 3481 434 
Q 3481 -459 3084 -895 
Q 2688 -1331 1869 -1331 
Q 1566 -1331 1297 -1286 
Q 1028 -1241 775 -1147 
L 775 -588 
Q 1028 -725 1275 -790 
Q 1522 -856 1778 -856 
Q 2344 -856 2625 -561 
Q 2906 -266 2906 331 
L 2906 616 
Q 2728 306 2450 153 
Q 2172 0 1784 0 
Q 1141 0 747 490 
Q 353 981 353 1791 
Q 353 2603 747 3093 
Q 1141 3584 1784 3584 
Q 2172 3584 2450 3431 
Q 2728 3278 2906 2969 
L 2906 3500 
L 3481 3500 
L 3481 434 
z
" id="DejaVuSans-67" transform="scale(0.015625)"/>
       <path d="M 1984 4856 
Q 1566 4138 1362 3434 
Q 1159 2731 1159 2009 
Q 1159 1288 1364 580 
Q 1569 -128 1984 -844 
L 1484 -844 
Q 1016 -109 783 600 
Q 550 1309 550 2009 
Q 550 2706 781 3412 
Q 1013 4119 1484 4856 
L 1984 4856 
z
" id="DejaVuSans-28" transform="scale(0.015625)"/>
       <path d="M 2522 4238 
Q 1834 4238 1429 3725 
Q 1025 3213 1025 2328 
Q 1025 1447 1429 934 
Q 1834 422 2522 422 
Q 3209 422 3611 934 
Q 4013 1447 4013 2328 
Q 4013 3213 3611 3725 
Q 3209 4238 2522 4238 
z
M 2522 4750 
Q 3503 4750 4090 4092 
Q 4678 3434 4678 2328 
Q 4678 1225 4090 567 
Q 3503 -91 2522 -91 
Q 1538 -91 948 565 
Q 359 1222 359 2328 
Q 359 3434 948 4092 
Q 1538 4750 2522 4750 
z
" id="DejaVuSans-4f" transform="scale(0.015625)"/>
       <path d="M 3116 1747 
Q 3116 2381 2855 2742 
Q 2594 3103 2138 3103 
Q 1681 3103 1420 2742 
Q 1159 2381 1159 1747 
Q 1159 1113 1420 752 
Q 1681 391 2138 391 
Q 2594 391 2855 752 
Q 3116 1113 3116 1747 
z
M 1159 2969 
Q 1341 3281 1617 3432 
Q 1894 3584 2278 3584 
Q 2916 3584 3314 3078 
Q 3713 2572 3713 1747 
Q 3713 922 3314 415 
Q 2916 -91 2278 -91 
Q 1894 -91 1617 61 
Q 1341 213 1159 525 
L 1159 0 
L 581 0 
L 581 4863 
L 1159 4863 
L 1159 2969 
z
" id="DejaVuSans-62" transform="scale(0.015625)"/>
       <path d="M 191 3500 
L 800 3500 
L 1894 563 
L 2988 3500 
L 3597 3500 
L 2284 0 
L 1503 0 
L 191 3500 
z
" id="DejaVuSans-76" transform="scale(0.015625)"/>
       <path d="M 2906 2969 
L 2906 4863 
L 3481 4863 
L 3481 0 
L 2906 0 
L 2906 525 
Q 2725 213 2448 61 
Q 2172 -91 1784 -91 
Q 1150 -91 751 415 
Q 353 922 353 1747 
Q 353 2572 751 3078 
Q 1150 3584 1784 3584 
Q 2172 3584 2448 3432 
Q 2725 3281 2906 2969 
z
M 947 1747 
Q 947 1113 1208 752 
Q 1469 391 1925 391 
Q 2381 391 2643 752 
Q 2906 1113 2906 1747 
Q 2906 2381 2643 2742 
Q 2381 3103 1925 3103 
Q 1469 3103 1208 2742 
Q 947 2381 947 1747 
z
" id="DejaVuSans-64" transform="scale(0.015625)"/>
       <path d="M 3513 3500 
L 2247 1797 
L 3578 0 
L 2900 0 
L 1881 1375 
L 863 0 
L 184 0 
L 1544 1831 
L 300 3500 
L 978 3500 
L 1906 2253 
L 2834 3500 
L 3513 3500 
z
" id="DejaVuSans-78" transform="scale(0.015625)"/>
       <path d="M 1159 525 
L 1159 -1331 
L 581 -1331 
L 581 3500 
L 1159 3500 
L 1159 2969 
Q 1341 3281 1617 3432 
Q 1894 3584 2278 3584 
Q 2916 3584 3314 3078 
Q 3713 2572 3713 1747 
Q 3713 922 3314 415 
Q 2916 -91 2278 -91 
Q 1894 -91 1617 61 
Q 1341 213 1159 525 
z
M 3116 1747 
Q 3116 2381 2855 2742 
Q 2594 3103 2138 3103 
Q 1681 3103 1420 2742 
Q 1159 2381 1159 1747 
Q 1159 1113 1420 752 
Q 1681 391 2138 391 
Q 2594 391 2855 752 
Q 3116 1113 3116 1747 
z
" id="DejaVuSans-70" transform="scale(0.015625)"/>
       <path d="M 3122 3366 
L 3122 2828 
Q 2878 2963 2633 3030 
Q 2388 3097 2138 3097 
Q 1578 3097 1268 2742 
Q 959 2388 959 1747 
Q 959 1106 1268 751 
Q 1578 397 2138 397 
Q 2388 397 2633 464 
Q 2878 531 3122 666 
L 3122 134 
Q 2881 22 2623 -34 
Q 2366 -91 2075 -91 
Q 1284 -91 818 406 
Q 353 903 353 1747 
Q 353 2603 823 3093 
Q 1294 3584 2113 3584 
Q 2378 3584 2631 3529 
Q 2884 3475 3122 3366 
z
" id="DejaVuSans-63" transform="scale(0.015625)"/>
       <path d="M 1172 4494 
L 1172 3500 
L 2356 3500 
L 2356 3053 
L 1172 3053 
L 1172 1153 
Q 1172 725 1289 603 
Q 1406 481 1766 481 
L 2356 481 
L 2356 0 
L 1766 0 
Q 1100 0 847 248 
Q 594 497 594 1153 
L 594 3053 
L 172 3053 
L 172 3500 
L 594 3500 
L 594 4494 
L 1172 4494 
z
" id="DejaVuSans-74" transform="scale(0.015625)"/>
       <path d="M 544 1381 
L 544 3500 
L 1119 3500 
L 1119 1403 
Q 1119 906 1312 657 
Q 1506 409 1894 409 
Q 2359 409 2629 706 
Q 2900 1003 2900 1516 
L 2900 3500 
L 3475 3500 
L 3475 0 
L 2900 0 
L 2900 538 
Q 2691 219 2414 64 
Q 2138 -91 1772 -91 
Q 1169 -91 856 284 
Q 544 659 544 1381 
z
M 1991 3584 
L 1991 3584 
z
" id="DejaVuSans-75" transform="scale(0.015625)"/>
       <path d="M 3513 2113 
L 3513 0 
L 2938 0 
L 2938 2094 
Q 2938 2591 2744 2837 
Q 2550 3084 2163 3084 
Q 1697 3084 1428 2787 
Q 1159 2491 1159 1978 
L 1159 0 
L 581 0 
L 581 3500 
L 1159 3500 
L 1159 2956 
Q 1366 3272 1645 3428 
Q 1925 3584 2291 3584 
Q 2894 3584 3203 3211 
Q 3513 2838 3513 2113 
z
" id="DejaVuSans-6e" transform="scale(0.015625)"/>
       <path d="M 513 4856 
L 1013 4856 
Q 1481 4119 1714 3412 
Q 1947 2706 1947 2009 
Q 1947 1309 1714 600 
Q 1481 -109 1013 -844 
L 513 -844 
Q 928 -128 1133 580 
Q 1338 1288 1338 2009 
Q 1338 2731 1133 3434 
Q 928 4138 513 4856 
z
" id="DejaVuSans-29" transform="scale(0.015625)"/>
      </defs>
      <use xlink:href="#DejaVuSans-6c"/>
      <use x="27.783203" xlink:href="#DejaVuSans-6f"/>
      <use x="88.964844" xlink:href="#DejaVuSans-67"/>
      <use x="152.441406" xlink:href="#DejaVuSans-31"/>
      <use x="216.064453" xlink:href="#DejaVuSans-30"/>
      <use x="279.6875" xlink:href="#DejaVuSans-20"/>
      <use x="311.474609" xlink:href="#DejaVuSans-28"/>
      <use x="350.488281" xlink:href="#DejaVuSans-20"/>
      <use x="382.275391" xlink:href="#DejaVuSans-4f"/>
      <use x="460.986328" xlink:href="#DejaVuSans-62"/>
      <use x="524.462891" xlink:href="#DejaVuSans-73"/>
      <use x="576.5625" xlink:href="#DejaVuSans-65"/>
      <use x="638.085938" xlink:href="#DejaVuSans-72"/>
      <use x="679.199219" xlink:href="#DejaVuSans-76"/>
      <use x="738.378906" xlink:href="#DejaVuSans-65"/>
      <use x="799.902344" xlink:href="#DejaVuSans-64"/>
      <use x="863.378906" xlink:href="#DejaVuSans-20"/>
      <use x="895.166016" xlink:href="#DejaVuSans-6f"/>
      <use x="956.347656" xlink:href="#DejaVuSans-76"/>
      <use x="1015.527344" xlink:href="#DejaVuSans-65"/>
      <use x="1077.050781" xlink:href="#DejaVuSans-72"/>
      <use x="1118.164062" xlink:href="#DejaVuSans-20"/>
      <use x="1149.951172" xlink:href="#DejaVuSans-65"/>
      <use x="1209.724609" xlink:href="#DejaVuSans-78"/>
      <use x="1268.904297" xlink:href="#DejaVuSans-70"/>
      <use x="1332.380859" xlink:href="#DejaVuSans-65"/>
      <use x="1393.904297" xlink:href="#DejaVuSans-63"/>
      <use x="1448.884766" xlink:href="#DejaVuSans-74"/>
      <use x="1488.09375" xlink:href="#DejaVuSans-65"/>
      <use x="1549.617188" xlink:href="#DejaVuSans-64"/>
      <use x="1613.09375" xlink:href="#DejaVuSans-20"/>
      <use x="1644.880859" xlink:href="#DejaVuSans-63"/>
      <use x="1699.861328" xlink:href="#DejaVuSans-6f"/>
      <use x="1761.042969" xlink:href="#DejaVuSans-75"/>
      <use x="1824.421875" xlink:href="#DejaVuSans-6e"/>
      <use x="1887.800781" xlink:href="#DejaVuSans-74"/>
      <use x="1927.009766" xlink:href="#DejaVuSans-73"/>
      <use x="1979.109375" xlink:href="#DejaVuSans-20"/>
      <use x="2010.896484" xlink:href="#DejaVuSans-29"/>
     </g>
    </g>
   </g>
   <g id="line2d_9">
    <path clip-path="url(#p7e2058d438)" d="M 91.18358 338.711949 
L 128.527453 338.721443 
L 165.871327 338.727197 
L 203.2152 338.750797 
L 240.559074 338.721252 
L 277.902947 338.716542 
L 315.246821 338.711342 
L 352.590694 338.72104 
L 389.934568 338.705352 
L 427.278441 338.737634 
L 464.622315 338.687741 
L 501.966188 338.671856 
L 539.310062 338.763536 
L 576.653935 338.575837 
L 613.997809 338.731635 
L 651.341682 338.707709 
L 688.685556 338.648199 
L 726.029429 338.768131 
L 763.373303 338.714756 
L 800.717176 338.715444 
L 838.06105 338.741616 
L 875.404923 338.728442 
L 912.748797 338.767432 
L 950.09267 255.796183 
" style="fill:none;stroke:#7cb5ec;stroke-linecap:square;"/>
   </g>
   <g id="line2d_10">
    <path clip-path="url(#p7e2058d438)" d="M 91.18358 338.715645 
L 128.527453 338.72727 
L 165.871327 338.729139 
L 203.2152 338.754662 
L 240.559074 338.725025 
L 277.902947 338.718853 
L 315.246821 338.715463 
L 352.590694 338.72321 
L 389.934568 338.707871 
L 427.278441 338.741837 
L 464.622315 338.696629 
L 501.966188 338.683921 
L 539.310062 338.765229 
L 576.653935 338.528974 
L 613.997809 338.735307 
L 651.341682 338.710319 
L 688.685556 338.5873 
L 726.029429 338.770437 
L 763.373303 338.712984 
L 800.717176 338.715481 
L 838.06105 338.742439 
L 875.404923 338.728413 
L 912.748797 338.76878 
L 950.09267 232.669248 
" style="fill:none;stroke:#434348;stroke-linecap:square;"/>
   </g>
   <g id="line2d_11">
    <path clip-path="url(#p7e2058d438)" d="M 91.18358 338.707461 
L 128.527453 338.717382 
L 165.871327 338.732377 
L 203.2152 338.747814 
L 240.559074 338.717775 
L 277.902947 338.726268 
L 315.246821 338.703834 
L 352.590694 338.715373 
L 389.934568 338.716274 
L 427.278441 338.735838 
L 464.622315 338.683873 
L 501.966188 338.67717 
L 539.310062 338.762668 
L 576.653935 338.64036 
L 613.997809 338.731873 
L 651.341682 338.688348 
L 688.685556 338.619862 
L 726.029429 338.768395 
L 763.373303 338.712552 
L 800.717176 338.709451 
L 838.06105 338.728614 
L 875.404923 338.730288 
L 912.748797 338.766717 
L 950.09267 233.056461 
" style="fill:none;stroke:#90ed7d;stroke-linecap:square;"/>
   </g>
   <g id="line2d_12">
    <path clip-path="url(#p7e2058d438)" d="M 91.18358 338.711532 
L 128.527453 338.720287 
L 165.871327 338.732403 
L 203.2152 338.753372 
L 240.559074 338.724475 
L 277.902947 338.726349 
L 315.246821 338.718647 
L 352.590694 338.723907 
L 389.934568 338.700312 
L 427.278441 338.744431 
L 464.622315 338.688916 
L 501.966188 338.667888 
L 539.310062 338.766877 
L 576.653935 338.572194 
L 613.997809 338.739529 
L 651.341682 338.686895 
L 688.685556 338.627462 
L 726.029429 338.770809 
L 763.373303 338.715182 
L 800.717176 338.722519 
L 838.06105 338.693588 
L 875.404923 338.738662 
L 912.748797 338.768845 
L 950.09267 224.878276 
" style="fill:none;stroke:#f7a35c;stroke-linecap:square;"/>
   </g>
   <g id="line2d_13">
    <path clip-path="url(#p7e2058d438)" d="M 91.18358 338.710442 
L 128.527453 338.718409 
L 165.871327 338.726315 
L 203.2152 338.747058 
L 240.559074 338.715549 
L 277.902947 338.720835 
L 315.246821 338.707678 
L 352.590694 338.717245 
L 389.934568 338.715318 
L 427.278441 338.736428 
L 464.622315 338.693063 
L 501.966188 338.681508 
L 539.310062 338.761566 
L 576.653935 338.593175 
L 613.997809 338.731119 
L 651.341682 338.709683 
L 688.685556 338.62123 
L 726.029429 338.767403 
L 763.373303 338.719144 
L 800.717176 338.717585 
L 838.06105 338.745378 
L 875.404923 338.733539 
L 912.748797 338.766367 
L 950.09267 257.703891 
" style="fill:none;stroke:#8085e9;stroke-linecap:square;"/>
   </g>
   <g id="line2d_14">
    <path clip-path="url(#p7e2058d438)" d="M 91.18358 338.707592 
L 128.527453 338.717574 
L 165.871327 338.730778 
L 203.2152 338.747432 
L 240.559074 338.717437 
L 277.902947 338.726803 
L 315.246821 338.702491 
L 352.590694 338.716101 
L 389.934568 338.7199 
L 427.278441 338.735006 
L 464.622315 338.688105 
L 501.966188 338.684382 
L 539.310062 338.761765 
L 576.653935 338.627823 
L 613.997809 338.731332 
L 651.341682 338.694971 
L 688.685556 338.603377 
L 726.029429 338.7685 
L 763.373303 338.715879 
L 800.717176 338.708397 
L 838.06105 338.739111 
L 875.404923 338.729777 
L 912.748797 338.766725 
L 950.09267 229.100962 
" style="fill:none;stroke:#f15c80;stroke-linecap:square;"/>
   </g>
   <g id="line2d_15">
    <path clip-path="url(#p7e2058d438)" d="M 91.18358 338.710487 
L 128.527453 338.719795 
L 165.871327 338.727296 
L 203.2152 338.751117 
L 240.559074 338.719786 
L 277.902947 338.722053 
L 315.246821 338.708212 
L 352.590694 338.718376 
L 389.934568 338.716572 
L 427.278441 338.735507 
L 464.622315 338.689595 
L 501.966188 338.683101 
L 539.310062 338.764221 
L 576.653935 338.583996 
L 613.997809 338.730121 
L 651.341682 338.701293 
L 688.685556 338.621797 
L 726.029429 338.766856 
L 763.373303 338.714056 
L 800.717176 338.712834 
L 838.06105 338.744023 
L 875.404923 338.729324 
L 912.748797 338.767234 
L 950.09267 249.411315 
" style="fill:none;stroke:#e4d354;stroke-linecap:square;"/>
   </g>
   <g id="line2d_16">
    <path clip-path="url(#p7e2058d438)" d="M 91.18358 338.711953 
L 128.527453 338.722297 
L 165.871327 338.72597 
L 203.2152 338.753892 
L 240.559074 338.724346 
L 277.902947 338.72661 
L 315.246821 338.709028 
L 352.590694 338.71992 
L 389.934568 338.711618 
L 427.278441 338.736709 
L 464.622315 338.688625 
L 501.966188 338.682397 
L 539.310062 338.765664 
L 576.653935 338.564993 
L 613.997809 338.731957 
L 651.341682 338.694017 
L 688.685556 338.623725 
L 726.029429 338.768779 
L 763.373303 338.711295 
L 800.717176 338.711014 
L 838.06105 338.743802 
L 875.404923 338.727992 
L 912.748797 338.768708 
L 950.09267 234.151853 
" style="fill:none;stroke:#2b908f;stroke-linecap:square;"/>
   </g>
   <g id="line2d_17">
    <path clip-path="url(#p7e2058d438)" d="M 91.18358 338.709294 
L 128.527453 338.718579 
L 165.871327 338.72828 
L 203.2152 338.750714 
L 240.559074 338.718267 
L 277.902947 338.722226 
L 315.246821 338.704854 
L 352.590694 338.715593 
L 389.934568 338.716075 
L 427.278441 338.734145 
L 464.622315 338.688738 
L 501.966188 338.677533 
L 539.310062 338.764579 
L 576.653935 338.619168 
L 613.997809 338.729733 
L 651.341682 338.69447 
L 688.685556 338.631371 
L 726.029429 338.766277 
L 763.373303 338.711199 
L 800.717176 338.706202 
L 838.06105 338.736565 
L 875.404923 338.727048 
L 912.748797 338.767189 
L 950.09267 250.105572 
" style="fill:none;stroke:#f45b5b;stroke-linecap:square;"/>
   </g>
   <g id="line2d_18">
    <path clip-path="url(#p7e2058d438)" d="M 91.18358 338.709116 
L 128.527453 338.716631 
L 165.871327 338.726003 
L 203.2152 338.748419 
L 240.559074 338.715979 
L 277.902947 338.713734 
L 315.246821 338.707172 
L 352.590694 338.718068 
L 389.934568 338.717317 
L 427.278441 338.734419 
L 464.622315 338.69221 
L 501.966188 338.681048 
L 539.310062 338.764558 
L 576.653935 338.608292 
L 613.997809 338.728792 
L 651.341682 338.70617 
L 688.685556 338.642685 
L 726.029429 338.764388 
L 763.373303 338.711744 
L 800.717176 338.711368 
L 838.06105 338.740229 
L 875.404923 338.728514 
L 912.748797 338.766879 
L 950.09267 265.214937 
" style="fill:none;stroke:#91e8e1;stroke-linecap:square;"/>
   </g>
   <g id="line2d_19">
    <path clip-path="url(#p7e2058d438)" d="M 91.18358 338.713148 
L 128.527453 338.722762 
L 165.871327 338.727175 
L 203.2152 338.753264 
L 240.559074 338.72106 
L 277.902947 338.72081 
L 315.246821 338.710402 
L 352.590694 338.719718 
L 389.934568 338.70828 
L 427.278441 338.737624 
L 464.622315 338.693305 
L 501.966188 338.675503 
L 539.310062 338.764488 
L 576.653935 338.57148 
L 613.997809 338.733173 
L 651.341682 338.703668 
L 688.685556 338.622915 
L 726.029429 338.768085 
L 763.373303 338.712835 
L 800.717176 338.711083 
L 838.06105 338.738656 
L 875.404923 338.728845 
L 912.748797 338.768451 
L 950.09267 248.368778 
" style="fill:none;stroke:#7cb5ec;stroke-linecap:square;"/>
   </g>
   <g id="line2d_20">
    <path clip-path="url(#p7e2058d438)" d="M 91.18358 338.71454 
L 128.527453 338.722872 
L 165.871327 338.726127 
L 203.2152 338.752306 
L 240.559074 338.721575 
L 277.902947 338.723075 
L 315.246821 338.709327 
L 352.590694 338.719145 
L 389.934568 338.70719 
L 427.278441 338.738208 
L 464.622315 338.688729 
L 501.966188 338.683184 
L 539.310062 338.764464 
L 576.653935 338.55635 
L 613.997809 338.733974 
L 651.341682 338.70255 
L 688.685556 338.627437 
L 726.029429 338.769333 
L 763.373303 338.719207 
L 800.717176 338.716656 
L 838.06105 338.744037 
L 875.404923 338.731838 
L 912.748797 338.767939 
L 950.09267 222.148965 
" style="fill:none;stroke:#434348;stroke-linecap:square;"/>
   </g>
   <g id="line2d_21">
    <path clip-path="url(#p7e2058d438)" d="M 91.18358 338.712265 
L 128.527453 338.722718 
L 165.871327 338.731278 
L 203.2152 338.752904 
L 240.559074 338.723598 
L 277.902947 338.731047 
L 315.246821 338.707402 
L 352.590694 338.717935 
L 389.934568 338.713351 
L 427.278441 338.737265 
L 464.622315 338.687103 
L 501.966188 338.680059 
L 539.310062 338.76314 
L 576.653935 338.594133 
L 613.997809 338.733372 
L 651.341682 338.691802 
L 688.685556 338.585585 
L 726.029429 338.770035 
L 763.373303 338.711872 
L 800.717176 338.706488 
L 838.06105 338.736352 
L 875.404923 338.728332 
L 912.748797 338.768625 
L 950.09267 230.891645 
" style="fill:none;stroke:#90ed7d;stroke-linecap:square;"/>
   </g>
   <g id="line2d_22">
    <path clip-path="url(#p7e2058d438)" d="M 91.18358 338.713371 
L 128.527453 338.721758 
L 165.871327 338.725093 
L 203.2152 338.750997 
L 240.559074 338.721117 
L 277.902947 338.718811 
L 315.246821 338.710398 
L 352.590694 338.720078 
L 389.934568 338.711438 
L 427.278441 338.737307 
L 464.622315 338.693422 
L 501.966188 338.683762 
L 539.310062 338.763508 
L 576.653935 338.558641 
L 613.997809 338.733247 
L 651.341682 338.709065 
L 688.685556 338.618632 
L 726.029429 338.768136 
L 763.373303 338.71631 
L 800.717176 338.717191 
L 838.06105 338.744904 
L 875.404923 338.729641 
L 912.748797 338.767669 
L 950.09267 268.629112 
" style="fill:none;stroke:#f7a35c;stroke-linecap:square;"/>
   </g>
   <g id="line2d_23">
    <path clip-path="url(#p7e2058d438)" d="M 91.18358 338.708491 
L 128.527453 338.716641 
L 165.871327 338.729832 
L 203.2152 338.746525 
L 240.559074 338.714856 
L 277.902947 338.727129 
L 315.246821 338.699558 
L 352.590694 338.711909 
L 389.934568 338.722512 
L 427.278441 338.733124 
L 464.622315 338.684367 
L 501.966188 338.682941 
L 539.310062 338.761253 
L 576.653935 338.638533 
L 613.997809 338.729097 
L 651.341682 338.689055 
L 688.685556 338.626627 
L 726.029429 338.767601 
L 763.373303 338.715369 
L 800.717176 338.707297 
L 838.06105 338.740838 
L 875.404923 338.730073 
L 912.748797 338.766426 
L 950.09267 247.546724 
" style="fill:none;stroke:#8085e9;stroke-linecap:square;"/>
   </g>
   <g id="line2d_24">
    <path clip-path="url(#p7e2058d438)" d="M 91.18358 338.708579 
L 128.527453 338.715999 
L 165.871327 338.727779 
L 203.2152 338.746901 
L 240.559074 338.714698 
L 277.902947 338.72392 
L 315.246821 338.702843 
L 352.590694 338.714093 
L 389.934568 338.721796 
L 427.278441 338.733084 
L 464.622315 338.688694 
L 501.966188 338.68022 
L 539.310062 338.759317 
L 576.653935 338.63388 
L 613.997809 338.729899 
L 651.341682 338.700447 
L 688.685556 338.618842 
L 726.029429 338.766843 
L 763.373303 338.715802 
L 800.717176 338.710993 
L 838.06105 338.743277 
L 875.404923 338.731294 
L 912.748797 338.765472 
L 950.09267 255.570316 
" style="fill:none;stroke:#f15c80;stroke-linecap:square;"/>
   </g>
   <g id="line2d_25">
    <path clip-path="url(#p7e2058d438)" d="M 91.18358 338.709374 
L 128.527453 338.715141 
L 165.871327 338.72864 
L 203.2152 338.747702 
L 240.559074 338.716432 
L 277.902947 338.72163 
L 315.246821 338.705798 
L 352.590694 338.714966 
L 389.934568 338.716884 
L 427.278441 338.734655 
L 464.622315 338.69201 
L 501.966188 338.675795 
L 539.310062 338.761884 
L 576.653935 338.602018 
L 613.997809 338.729207 
L 651.341682 338.704054 
L 688.685556 338.64033 
L 726.029429 338.766451 
L 763.373303 338.716689 
L 800.717176 338.715057 
L 838.06105 338.747922 
L 875.404923 338.732773 
L 912.748797 338.766365 
L 950.09267 267.934208 
" style="fill:none;stroke:#e4d354;stroke-linecap:square;"/>
   </g>
   <g id="line2d_26">
    <path clip-path="url(#p7e2058d438)" d="M 91.18358 338.71413 
L 128.527453 338.726449 
L 165.871327 338.72419 
L 203.2152 338.756625 
L 240.559074 338.727007 
L 277.902947 338.718246 
L 315.246821 338.720495 
L 352.590694 338.729792 
L 389.934568 338.699873 
L 427.278441 338.741459 
L 464.622315 338.703932 
L 501.966188 338.690222 
L 539.310062 338.76888 
L 576.653935 338.522112 
L 613.997809 338.735335 
L 651.341682 338.717224 
L 688.685556 338.545264 
L 726.029429 338.768653 
L 763.373303 338.71769 
L 800.717176 338.724058 
L 838.06105 338.749654 
L 875.404923 338.731554 
L 912.748797 338.769108 
L 950.09267 258.530475 
" style="fill:none;stroke:#2b908f;stroke-linecap:square;"/>
   </g>
   <g id="line2d_27">
    <path clip-path="url(#p7e2058d438)" d="M 91.18358 338.71443 
L 128.527453 338.727443 
L 165.871327 338.730335 
L 203.2152 338.755566 
L 240.559074 338.727005 
L 277.902947 338.722098 
L 315.246821 338.716097 
L 352.590694 338.725419 
L 389.934568 338.70649 
L 427.278441 338.741663 
L 464.622315 338.69706 
L 501.966188 338.687174 
L 539.310062 338.766818 
L 576.653935 338.549381 
L 613.997809 338.737122 
L 651.341682 338.708507 
L 688.685556 338.525547 
L 726.029429 338.770648 
L 763.373303 338.718143 
L 800.717176 338.717106 
L 838.06105 338.743974 
L 875.404923 338.729531 
L 912.748797 338.769439 
L 950.09267 247.637973 
" style="fill:none;stroke:#f45b5b;stroke-linecap:square;"/>
   </g>
   <g id="line2d_28">
    <path clip-path="url(#p7e2058d438)" d="M 91.18358 338.711254 
L 128.527453 338.727118 
L 165.871327 338.726473 
L 203.2152 338.757371 
L 240.559074 338.728287 
L 277.902947 338.723665 
L 315.246821 338.715734 
L 352.590694 338.727021 
L 389.934568 338.701706 
L 427.278441 338.740434 
L 464.622315 338.697818 
L 501.966188 338.691425 
L 539.310062 338.767981 
L 576.653935 338.541181 
L 613.997809 338.737087 
L 651.341682 338.706643 
L 688.685556 338.54441 
L 726.029429 338.770197 
L 763.373303 338.717028 
L 800.717176 338.717363 
L 838.06105 338.745842 
L 875.404923 338.72917 
L 912.748797 338.769863 
L 950.09267 255.013406 
" style="fill:none;stroke:#91e8e1;stroke-linecap:square;"/>
   </g>
   <g id="line2d_29">
    <path clip-path="url(#p7e2058d438)" d="M 91.18358 338.708212 
L 128.527453 338.717911 
L 165.871327 338.729266 
L 203.2152 338.747955 
L 240.559074 338.717081 
L 277.902947 338.729205 
L 315.246821 338.703512 
L 352.590694 338.714658 
L 389.934568 338.718788 
L 427.278441 338.734644 
L 464.622315 338.683795 
L 501.966188 338.682198 
L 539.310062 338.762107 
L 576.653935 338.624823 
L 613.997809 338.731373 
L 651.341682 338.69619 
L 688.685556 338.610702 
L 726.029429 338.768434 
L 763.373303 338.715426 
L 800.717176 338.708677 
L 838.06105 338.740257 
L 875.404923 338.731815 
L 912.748797 338.766442 
L 950.09267 242.558709 
" style="fill:none;stroke:#7cb5ec;stroke-linecap:square;"/>
   </g>
   <g id="line2d_30">
    <path clip-path="url(#p7e2058d438)" d="M 91.18358 338.710298 
L 128.527453 338.718403 
L 165.871327 338.729004 
L 203.2152 338.747619 
L 240.559074 338.715006 
L 277.902947 338.713776 
L 315.246821 338.707841 
L 352.590694 338.718302 
L 389.934568 338.72018 
L 427.278441 338.735775 
L 464.622315 338.695019 
L 501.966188 338.682026 
L 539.310062 338.762287 
L 576.653935 338.598445 
L 613.997809 338.730443 
L 651.341682 338.70896 
L 688.685556 338.616945 
L 726.029429 338.766472 
L 763.373303 338.711514 
L 800.717176 338.7156 
L 838.06105 338.745322 
L 875.404923 338.72959 
L 912.748797 338.766114 
L 950.09267 271.686095 
" style="fill:none;stroke:#434348;stroke-linecap:square;"/>
   </g>
   <g id="line2d_31">
    <path clip-path="url(#p7e2058d438)" d="M 91.18358 338.711431 
L 128.527453 338.720552 
L 165.871327 338.728468 
L 203.2152 338.750948 
L 240.559074 338.718845 
L 277.902947 338.715839 
L 315.246821 338.706295 
L 352.590694 338.716489 
L 389.934568 338.709704 
L 427.278441 338.73654 
L 464.622315 338.685016 
L 501.966188 338.674862 
L 539.310062 338.763224 
L 576.653935 338.606673 
L 613.997809 338.731118 
L 651.341682 338.696944 
L 688.685556 338.656414 
L 726.029429 338.768013 
L 763.373303 338.708058 
L 800.717176 338.707561 
L 838.06105 338.733752 
L 875.404923 338.729687 
L 912.748797 338.767481 
L 950.09267 247.249981 
" style="fill:none;stroke:#90ed7d;stroke-linecap:square;"/>
   </g>
   <g id="line2d_32">
    <path clip-path="url(#p7e2058d438)" d="M 91.18358 338.708368 
L 128.527453 338.717311 
L 165.871327 338.730095 
L 203.2152 338.749577 
L 240.559074 338.716043 
L 277.902947 338.727351 
L 315.246821 338.701216 
L 352.590694 338.713486 
L 389.934568 338.722686 
L 427.278441 338.73224 
L 464.622315 338.684804 
L 501.966188 338.680997 
L 539.310062 338.762319 
L 576.653935 338.639004 
L 613.997809 338.72851 
L 651.341682 338.688185 
L 688.685556 338.628299 
L 726.029429 338.76654 
L 763.373303 338.710291 
L 800.717176 338.702633 
L 838.06105 338.732763 
L 875.404923 338.727647 
L 912.748797 338.766147 
L 950.09267 240.691072 
" style="fill:none;stroke:#f7a35c;stroke-linecap:square;"/>
   </g>
   <g id="line2d_33">
    <path clip-path="url(#p7e2058d438)" d="M 91.18358 338.706141 
L 128.527453 338.717191 
L 165.871327 338.731457 
L 203.2152 338.749717 
L 240.559074 338.718421 
L 277.902947 338.741196 
L 315.246821 338.700231 
L 352.590694 338.716241 
L 389.934568 338.727256 
L 427.278441 338.733541 
L 464.622315 338.68124 
L 501.966188 338.690803 
L 539.310062 338.763195 
L 576.653935 338.651653 
L 613.997809 338.731218 
L 651.341682 338.671251 
L 688.685556 338.64202 
L 726.029429 338.768357 
L 763.373303 338.706733 
L 800.717176 338.688044 
L 838.06105 338.70095 
L 875.404923 338.729696 
L 912.748797 338.765324 
L 950.09267 49.708991 
" style="fill:none;stroke:#8085e9;stroke-linecap:square;"/>
   </g>
   <g id="line2d_34">
    <path clip-path="url(#p7e2058d438)" d="M 91.18358 338.708871 
L 128.527453 338.716835 
L 165.871327 338.729488 
L 203.2152 338.747549 
L 240.559074 338.715297 
L 277.902947 338.725711 
L 315.246821 338.701496 
L 352.590694 338.713114 
L 389.934568 338.721119 
L 427.278441 338.73378 
L 464.622315 338.684474 
L 501.966188 338.680999 
L 539.310062 338.760514 
L 576.653935 338.629848 
L 613.997809 338.729782 
L 651.341682 338.692854 
L 688.685556 338.630331 
L 726.029429 338.767812 
L 763.373303 338.714682 
L 800.717176 338.708433 
L 838.06105 338.741997 
L 875.404923 338.730953 
L 912.748797 338.765914 
L 950.09267 246.539889 
" style="fill:none;stroke:#f15c80;stroke-linecap:square;"/>
   </g>
   <g id="line2d_35">
    <path clip-path="url(#p7e2058d438)" d="M 91.18358 338.715012 
L 128.527453 338.724201 
L 165.871327 338.725737 
L 203.2152 338.7536 
L 240.559074 338.721483 
L 277.902947 338.722289 
L 315.246821 338.710229 
L 352.590694 338.718463 
L 389.934568 338.706659 
L 427.278441 338.739277 
L 464.622315 338.693615 
L 501.966188 338.683131 
L 539.310062 338.765527 
L 576.653935 338.548063 
L 613.997809 338.73411 
L 651.341682 338.701235 
L 688.685556 338.62056 
L 726.029429 338.770193 
L 763.373303 338.713518 
L 800.717176 338.71555 
L 838.06105 338.745866 
L 875.404923 338.730624 
L 912.748797 338.768398 
L 950.09267 249.264801 
" style="fill:none;stroke:#e4d354;stroke-linecap:square;"/>
   </g>
   <g id="line2d_36">
    <path clip-path="url(#p7e2058d438)" d="M 91.18358 338.712142 
L 128.527453 338.721517 
L 165.871327 338.729359 
L 203.2152 338.751116 
L 240.559074 338.720611 
L 277.902947 338.724405 
L 315.246821 338.706322 
L 352.590694 338.716906 
L 389.934568 338.714532 
L 427.278441 338.735881 
L 464.622315 338.691149 
L 501.966188 338.678824 
L 539.310062 338.762814 
L 576.653935 338.570214 
L 613.997809 338.73154 
L 651.341682 338.700746 
L 688.685556 338.627809 
L 726.029429 338.768717 
L 763.373303 338.712061 
L 800.717176 338.712334 
L 838.06105 338.746365 
L 875.404923 338.730088 
L 912.748797 338.767426 
L 950.09267 261.611298 
" style="fill:none;stroke:#2b908f;stroke-linecap:square;"/>
   </g>
   <g id="line2d_37">
    <path clip-path="url(#p7e2058d438)" d="M 91.18358 338.708054 
L 128.527453 338.721555 
L 165.871327 338.735388 
L 203.2152 338.754717 
L 240.559074 338.726126 
L 277.902947 338.736741 
L 315.246821 338.701179 
L 352.590694 338.718127 
L 389.934568 338.725349 
L 427.278441 338.735597 
L 464.622315 338.685158 
L 501.966188 338.687767 
L 539.310062 338.763767 
L 576.653935 338.640912 
L 613.997809 338.731741 
L 651.341682 338.671736 
L 688.685556 338.596367 
L 726.029429 338.770295 
L 763.373303 338.686638 
L 800.717176 338.67946 
L 838.06105 338.705915 
L 875.404923 338.716287 
L 912.748797 338.768143 
L 950.09267 156.421237 
" style="fill:none;stroke:#f45b5b;stroke-linecap:square;"/>
   </g>
   <g id="line2d_38">
    <path clip-path="url(#p7e2058d438)" d="M 91.18358 338.711181 
L 128.527453 338.723231 
L 165.871327 338.725909 
L 203.2152 338.754574 
L 240.559074 338.723422 
L 277.902947 338.730802 
L 315.246821 338.705301 
L 352.590694 338.718902 
L 389.934568 338.71353 
L 427.278441 338.735765 
L 464.622315 338.68949 
L 501.966188 338.690303 
L 539.310062 338.766197 
L 576.653935 338.570513 
L 613.997809 338.731566 
L 651.341682 338.687795 
L 688.685556 338.629767 
L 726.029429 338.769493 
L 763.373303 338.700907 
L 800.717176 338.703589 
L 838.06105 338.737828 
L 875.404923 338.725948 
L 912.748797 338.767575 
L 950.09267 219.891761 
" style="fill:none;stroke:#91e8e1;stroke-linecap:square;"/>
   </g>
   <g id="line2d_39">
    <path clip-path="url(#p7e2058d438)" d="M 91.18358 338.71071 
L 128.527453 338.71854 
L 165.871327 338.72571 
L 203.2152 338.751036 
L 240.559074 338.71988 
L 277.902947 338.721494 
L 315.246821 338.710789 
L 352.590694 338.719422 
L 389.934568 338.711037 
L 427.278441 338.736666 
L 464.622315 338.69432 
L 501.966188 338.683012 
L 539.310062 338.765135 
L 576.653935 338.567719 
L 613.997809 338.73021 
L 651.341682 338.703708 
L 688.685556 338.631158 
L 726.029429 338.766967 
L 763.373303 338.714185 
L 800.717176 338.714706 
L 838.06105 338.747201 
L 875.404923 338.730689 
L 912.748797 338.7679 
L 950.09267 269.413273 
" style="fill:none;stroke:#7cb5ec;stroke-linecap:square;"/>
   </g>
   <g id="line2d_40">
    <path clip-path="url(#p7e2058d438)" d="M 91.18358 338.712106 
L 128.527453 338.722538 
L 165.871327 338.729623 
L 203.2152 338.754084 
L 240.559074 338.724131 
L 277.902947 338.726299 
L 315.246821 338.710025 
L 352.590694 338.720315 
L 389.934568 338.706811 
L 427.278441 338.737787 
L 464.622315 338.691447 
L 501.966188 338.675915 
L 539.310062 338.767135 
L 576.653935 338.58541 
L 613.997809 338.733102 
L 651.341682 338.692431 
L 688.685556 338.601248 
L 726.029429 338.768557 
L 763.373303 338.709808 
L 800.717176 338.70787 
L 838.06105 338.737298 
L 875.404923 338.727101 
L 912.748797 338.769063 
L 950.09267 247.023803 
" style="fill:none;stroke:#434348;stroke-linecap:square;"/>
   </g>
   <g id="line2d_41">
    <path clip-path="url(#p7e2058d438)" d="M 91.18358 338.708701 
L 128.527453 338.719443 
L 165.871327 338.731408 
L 203.2152 338.752664 
L 240.559074 338.721336 
L 277.902947 338.728034 
L 315.246821 338.703404 
L 352.590694 338.716715 
L 389.934568 338.716464 
L 427.278441 338.73503 
L 464.622315 338.686389 
L 501.966188 338.680562 
L 539.310062 338.765899 
L 576.653935 338.6251 
L 613.997809 338.730684 
L 651.341682 338.681615 
L 688.685556 338.620847 
L 726.029429 338.767995 
L 763.373303 338.704424 
L 800.717176 338.696817 
L 838.06105 338.728089 
L 875.404923 338.724615 
L 912.748797 338.768009 
L 950.09267 228.845435 
" style="fill:none;stroke:#90ed7d;stroke-linecap:square;"/>
   </g>
   <g id="line2d_42">
    <path clip-path="url(#p7e2058d438)" d="M 91.18358 338.713049 
L 128.527453 338.723747 
L 165.871327 338.725256 
L 203.2152 338.755595 
L 240.559074 338.725369 
L 277.902947 338.720681 
L 315.246821 338.713977 
L 352.590694 338.725163 
L 389.934568 338.703733 
L 427.278441 338.738757 
L 464.622315 338.699217 
L 501.966188 338.68787 
L 539.310062 338.768521 
L 576.653935 338.552357 
L 613.997809 338.733754 
L 651.341682 338.703844 
L 688.685556 338.584408 
L 726.029429 338.767764 
L 763.373303 338.711342 
L 800.717176 338.713168 
L 838.06105 338.744125 
L 875.404923 338.727386 
L 912.748797 338.768909 
L 950.09267 252.04993 
" style="fill:none;stroke:#f7a35c;stroke-linecap:square;"/>
   </g>
   <g id="line2d_43">
    <path clip-path="url(#p7e2058d438)" d="M 48.238125 338.797721 
L 993.038125 338.797721 
" style="fill:none;stroke:#dedede;stroke-linecap:square;stroke-width:2;"/>
   </g>
   <g id="text_35">
    <!-- Samtools idxstats: Mapped reads per contig -->
    <g transform="translate(344.359375 19.3575)scale(0.16 -0.16)">
     <defs>
      <path d="M 3425 4513 
L 3425 3897 
Q 3066 4069 2747 4153 
Q 2428 4238 2131 4238 
Q 1616 4238 1336 4038 
Q 1056 3838 1056 3469 
Q 1056 3159 1242 3001 
Q 1428 2844 1947 2747 
L 2328 2669 
Q 3034 2534 3370 2195 
Q 3706 1856 3706 1288 
Q 3706 609 3251 259 
Q 2797 -91 1919 -91 
Q 1588 -91 1214 -16 
Q 841 59 441 206 
L 441 856 
Q 825 641 1194 531 
Q 1563 422 1919 422 
Q 2459 422 2753 634 
Q 3047 847 3047 1241 
Q 3047 1584 2836 1778 
Q 2625 1972 2144 2069 
L 1759 2144 
Q 1053 2284 737 2584 
Q 422 2884 422 3419 
Q 422 4038 858 4394 
Q 1294 4750 2059 4750 
Q 2388 4750 2728 4690 
Q 3069 4631 3425 4513 
z
" id="DejaVuSans-53" transform="scale(0.015625)"/>
      <path d="M 603 3500 
L 1178 3500 
L 1178 0 
L 603 0 
L 603 3500 
z
M 603 4863 
L 1178 4863 
L 1178 4134 
L 603 4134 
L 603 4863 
z
" id="DejaVuSans-69" transform="scale(0.015625)"/>
      <path d="M 750 794 
L 1409 794 
L 1409 0 
L 750 0 
L 750 794 
z
M 750 3309 
L 1409 3309 
L 1409 2516 
L 750 2516 
L 750 3309 
z
" id="DejaVuSans-3a" transform="scale(0.015625)"/>
     </defs>
     <use xlink:href="#DejaVuSans-53"/>
     <use x="63.476562" xlink:href="#DejaVuSans-61"/>
     <use x="124.755859" xlink:href="#DejaVuSans-6d"/>
     <use x="222.167969" xlink:href="#DejaVuSans-74"/>
     <use x="261.376953" xlink:href="#DejaVuSans-6f"/>
     <use x="322.558594" xlink:href="#DejaVuSans-6f"/>
     <use x="383.740234" xlink:href="#DejaVuSans-6c"/>
     <use x="411.523438" xlink:href="#DejaVuSans-73"/>
     <use x="463.623047" xlink:href="#DejaVuSans-20"/>
     <use x="495.410156" xlink:href="#DejaVuSans-69"/>
     <use x="523.193359" xlink:href="#DejaVuSans-64"/>
     <use x="586.669922" xlink:href="#DejaVuSans-78"/>
     <use x="645.849609" xlink:href="#DejaVuSans-73"/>
     <use x="697.949219" xlink:href="#DejaVuSans-74"/>
     <use x="737.158203" xlink:href="#DejaVuSans-61"/>
     <use x="798.4375" xlink:href="#DejaVuSans-74"/>
     <use x="837.646484" xlink:href="#DejaVuSans-73"/>
     <use x="889.746094" xlink:href="#DejaVuSans-3a"/>
     <use x="923.4375" xlink:href="#DejaVuSans-20"/>
     <use x="955.224609" xlink:href="#DejaVuSans-4d"/>
     <use x="1041.503906" xlink:href="#DejaVuSans-61"/>
     <use x="1102.783203" xlink:href="#DejaVuSans-70"/>
     <use x="1166.259766" xlink:href="#DejaVuSans-70"/>
     <use x="1229.736328" xlink:href="#DejaVuSans-65"/>
     <use x="1291.259766" xlink:href="#DejaVuSans-64"/>
     <use x="1354.736328" xlink:href="#DejaVuSans-20"/>
     <use x="1386.523438" xlink:href="#DejaVuSans-72"/>
     <use x="1425.386719" xlink:href="#DejaVuSans-65"/>
     <use x="1486.910156" xlink:href="#DejaVuSans-61"/>
     <use x="1548.189453" xlink:href="#DejaVuSans-64"/>
     <use x="1611.666016" xlink:href="#DejaVuSans-73"/>
     <use x="1663.765625" xlink:href="#DejaVuSans-20"/>
     <use x="1695.552734" xlink:href="#DejaVuSans-70"/>
     <use x="1759.029297" xlink:href="#DejaVuSans-65"/>
     <use x="1820.552734" xlink:href="#DejaVuSans-72"/>
     <use x="1861.666016" xlink:href="#DejaVuSans-20"/>
     <use x="1893.453125" xlink:href="#DejaVuSans-63"/>
     <use x="1948.433594" xlink:href="#DejaVuSans-6f"/>
     <use x="2009.615234" xlink:href="#DejaVuSans-6e"/>
     <use x="2072.994141" xlink:href="#DejaVuSans-74"/>
     <use x="2112.203125" xlink:href="#DejaVuSans-69"/>
     <use x="2139.986328" xlink:href="#DejaVuSans-67"/>
    </g>
   </g>
  </g>
 </g>
 <defs>
  <clipPath id="p7e2058d438">
   <rect height="317.968" width="944.8" x="48.238125" y="35.2559"/>
  </clipPath>
 </defs>
</svg>
