<?xml version="1.0" encoding="utf-8" standalone="no"?>
<!DOCTYPE svg PUBLIC "-//W3C//DTD SVG 1.1//EN"
  "http://www.w3.org/Graphics/SVG/1.1/DTD/svg11.dtd">
<svg height="388.844525pt" version="1.1" viewBox="0 0 1000.098125 388.844525" width="1000.098125pt" xmlns="http://www.w3.org/2000/svg" xmlns:xlink="http://www.w3.org/1999/xlink">
 <metadata>
  <rdf:RDF xmlns:cc="http://creativecommons.org/ns#" xmlns:dc="http://purl.org/dc/elements/1.1/" xmlns:rdf="http://www.w3.org/1999/02/22-rdf-syntax-ns#">
   <cc:Work>
    <dc:type rdf:resource="http://purl.org/dc/dcmitype/StillImage"/>
    <dc:date>2022-11-03T13:38:18.301367</dc:date>
    <dc:format>image/svg+xml</dc:format>
    <dc:creator>
     <cc:Agent>
      <dc:title>Matplotlib v3.4.2, https://matplotlib.org/</dc:title>
     </cc:Agent>
    </dc:creator>
   </cc:Work>
  </rdf:RDF>
 </metadata>
 <defs>
  <style type="text/css">*{stroke-linecap:butt;stroke-linejoin:round;}</style>
 </defs>
 <g id="figure_1">
  <g id="axes_1">
   <g id="patch_1">
    <path d="M 58.418125 353.2239 
L 985.263125 353.2239 
L 985.263125 35.2559 
L 58.418125 35.2559 
z
" style="fill:#ffffff;"/>
   </g>
   <g id="matplotlib.axis_1">
    <g id="xtick_1">
     <g id="text_1">
      <!-- 0 -->
      <g transform="translate(55.873125 366.30265)scale(0.08 -0.08)">
       <defs>
        <path d="M 2034 4250 
Q 1547 4250 1301 3770 
Q 1056 3291 1056 2328 
Q 1056 1369 1301 889 
Q 1547 409 2034 409 
Q 2525 409 2770 889 
Q 3016 1369 3016 2328 
Q 3016 3291 2770 3770 
Q 2525 4250 2034 4250 
z
M 2034 4750 
Q 2819 4750 3233 4129 
Q 3647 3509 3647 2328 
Q 3647 1150 3233 529 
Q 2819 -91 2034 -91 
Q 1250 -91 836 529 
Q 422 1150 422 2328 
Q 422 3509 836 4129 
Q 1250 4750 2034 4750 
z
" id="DejaVuSans-30" transform="scale(0.015625)"/>
       </defs>
       <use xlink:href="#DejaVuSans-30"/>
      </g>
     </g>
    </g>
    <g id="xtick_2">
     <g id="text_2">
      <!-- 20 -->
      <g transform="translate(238.697125 366.30265)scale(0.08 -0.08)">
       <defs>
        <path d="M 1228 531 
L 3431 531 
L 3431 0 
L 469 0 
L 469 531 
Q 828 903 1448 1529 
Q 2069 2156 2228 2338 
Q 2531 2678 2651 2914 
Q 2772 3150 2772 3378 
Q 2772 3750 2511 3984 
Q 2250 4219 1831 4219 
Q 1534 4219 1204 4116 
Q 875 4013 500 3803 
L 500 4441 
Q 881 4594 1212 4672 
Q 1544 4750 1819 4750 
Q 2544 4750 2975 4387 
Q 3406 4025 3406 3419 
Q 3406 3131 3298 2873 
Q 3191 2616 2906 2266 
Q 2828 2175 2409 1742 
Q 1991 1309 1228 531 
z
" id="DejaVuSans-32" transform="scale(0.015625)"/>
       </defs>
       <use xlink:href="#DejaVuSans-32"/>
       <use x="63.623047" xlink:href="#DejaVuSans-30"/>
      </g>
     </g>
    </g>
    <g id="xtick_3">
     <g id="text_3">
      <!-- 40 -->
      <g transform="translate(424.066125 366.30265)scale(0.08 -0.08)">
       <defs>
        <path d="M 2419 4116 
L 825 1625 
L 2419 1625 
L 2419 4116 
z
M 2253 4666 
L 3047 4666 
L 3047 1625 
L 3713 1625 
L 3713 1100 
L 3047 1100 
L 3047 0 
L 2419 0 
L 2419 1100 
L 313 1100 
L 313 1709 
L 2253 4666 
z
" id="DejaVuSans-34" transform="scale(0.015625)"/>
       </defs>
       <use xlink:href="#DejaVuSans-34"/>
       <use x="63.623047" xlink:href="#DejaVuSans-30"/>
      </g>
     </g>
    </g>
    <g id="xtick_4">
     <g id="text_4">
      <!-- 60 -->
      <g transform="translate(609.435125 366.30265)scale(0.08 -0.08)">
       <defs>
        <path d="M 2113 2584 
Q 1688 2584 1439 2293 
Q 1191 2003 1191 1497 
Q 1191 994 1439 701 
Q 1688 409 2113 409 
Q 2538 409 2786 701 
Q 3034 994 3034 1497 
Q 3034 2003 2786 2293 
Q 2538 2584 2113 2584 
z
M 3366 4563 
L 3366 3988 
Q 3128 4100 2886 4159 
Q 2644 4219 2406 4219 
Q 1781 4219 1451 3797 
Q 1122 3375 1075 2522 
Q 1259 2794 1537 2939 
Q 1816 3084 2150 3084 
Q 2853 3084 3261 2657 
Q 3669 2231 3669 1497 
Q 3669 778 3244 343 
Q 2819 -91 2113 -91 
Q 1303 -91 875 529 
Q 447 1150 447 2328 
Q 447 3434 972 4092 
Q 1497 4750 2381 4750 
Q 2619 4750 2861 4703 
Q 3103 4656 3366 4563 
z
" id="DejaVuSans-36" transform="scale(0.015625)"/>
       </defs>
       <use xlink:href="#DejaVuSans-36"/>
       <use x="63.623047" xlink:href="#DejaVuSans-30"/>
      </g>
     </g>
    </g>
    <g id="xtick_5">
     <g id="text_5">
      <!-- 80 -->
      <g transform="translate(794.804125 366.30265)scale(0.08 -0.08)">
       <defs>
        <path d="M 2034 2216 
Q 1584 2216 1326 1975 
Q 1069 1734 1069 1313 
Q 1069 891 1326 650 
Q 1584 409 2034 409 
Q 2484 409 2743 651 
Q 3003 894 3003 1313 
Q 3003 1734 2745 1975 
Q 2488 2216 2034 2216 
z
M 1403 2484 
Q 997 2584 770 2862 
Q 544 3141 544 3541 
Q 544 4100 942 4425 
Q 1341 4750 2034 4750 
Q 2731 4750 3128 4425 
Q 3525 4100 3525 3541 
Q 3525 3141 3298 2862 
Q 3072 2584 2669 2484 
Q 3125 2378 3379 2068 
Q 3634 1759 3634 1313 
Q 3634 634 3220 271 
Q 2806 -91 2034 -91 
Q 1263 -91 848 271 
Q 434 634 434 1313 
Q 434 1759 690 2068 
Q 947 2378 1403 2484 
z
M 1172 3481 
Q 1172 3119 1398 2916 
Q 1625 2713 2034 2713 
Q 2441 2713 2670 2916 
Q 2900 3119 2900 3481 
Q 2900 3844 2670 4047 
Q 2441 4250 2034 4250 
Q 1625 4250 1398 4047 
Q 1172 3844 1172 3481 
z
" id="DejaVuSans-38" transform="scale(0.015625)"/>
       </defs>
       <use xlink:href="#DejaVuSans-38"/>
       <use x="63.623047" xlink:href="#DejaVuSans-30"/>
      </g>
     </g>
    </g>
    <g id="xtick_6">
     <g id="text_6">
      <!-- 100 -->
      <g transform="translate(977.628125 366.30265)scale(0.08 -0.08)">
       <defs>
        <path d="M 794 531 
L 1825 531 
L 1825 4091 
L 703 3866 
L 703 4441 
L 1819 4666 
L 2450 4666 
L 2450 531 
L 3481 531 
L 3481 0 
L 794 0 
L 794 531 
z
" id="DejaVuSans-31" transform="scale(0.015625)"/>
       </defs>
       <use xlink:href="#DejaVuSans-31"/>
       <use x="63.623047" xlink:href="#DejaVuSans-30"/>
       <use x="127.246094" xlink:href="#DejaVuSans-30"/>
      </g>
     </g>
    </g>
    <g id="text_7">
     <!-- Percent of reads -->
     <g transform="translate(481.172656 379.564837)scale(0.1 -0.1)">
      <defs>
       <path d="M 1259 4147 
L 1259 2394 
L 2053 2394 
Q 2494 2394 2734 2622 
Q 2975 2850 2975 3272 
Q 2975 3691 2734 3919 
Q 2494 4147 2053 4147 
L 1259 4147 
z
M 628 4666 
L 2053 4666 
Q 2838 4666 3239 4311 
Q 3641 3956 3641 3272 
Q 3641 2581 3239 2228 
Q 2838 1875 2053 1875 
L 1259 1875 
L 1259 0 
L 628 0 
L 628 4666 
z
" id="DejaVuSans-50" transform="scale(0.015625)"/>
       <path d="M 3597 1894 
L 3597 1613 
L 953 1613 
Q 991 1019 1311 708 
Q 1631 397 2203 397 
Q 2534 397 2845 478 
Q 3156 559 3463 722 
L 3463 178 
Q 3153 47 2828 -22 
Q 2503 -91 2169 -91 
Q 1331 -91 842 396 
Q 353 884 353 1716 
Q 353 2575 817 3079 
Q 1281 3584 2069 3584 
Q 2775 3584 3186 3129 
Q 3597 2675 3597 1894 
z
M 3022 2063 
Q 3016 2534 2758 2815 
Q 2500 3097 2075 3097 
Q 1594 3097 1305 2825 
Q 1016 2553 972 2059 
L 3022 2063 
z
" id="DejaVuSans-65" transform="scale(0.015625)"/>
       <path d="M 2631 2963 
Q 2534 3019 2420 3045 
Q 2306 3072 2169 3072 
Q 1681 3072 1420 2755 
Q 1159 2438 1159 1844 
L 1159 0 
L 581 0 
L 581 3500 
L 1159 3500 
L 1159 2956 
Q 1341 3275 1631 3429 
Q 1922 3584 2338 3584 
Q 2397 3584 2469 3576 
Q 2541 3569 2628 3553 
L 2631 2963 
z
" id="DejaVuSans-72" transform="scale(0.015625)"/>
       <path d="M 3122 3366 
L 3122 2828 
Q 2878 2963 2633 3030 
Q 2388 3097 2138 3097 
Q 1578 3097 1268 2742 
Q 959 2388 959 1747 
Q 959 1106 1268 751 
Q 1578 397 2138 397 
Q 2388 397 2633 464 
Q 2878 531 3122 666 
L 3122 134 
Q 2881 22 2623 -34 
Q 2366 -91 2075 -91 
Q 1284 -91 818 406 
Q 353 903 353 1747 
Q 353 2603 823 3093 
Q 1294 3584 2113 3584 
Q 2378 3584 2631 3529 
Q 2884 3475 3122 3366 
z
" id="DejaVuSans-63" transform="scale(0.015625)"/>
       <path d="M 3513 2113 
L 3513 0 
L 2938 0 
L 2938 2094 
Q 2938 2591 2744 2837 
Q 2550 3084 2163 3084 
Q 1697 3084 1428 2787 
Q 1159 2491 1159 1978 
L 1159 0 
L 581 0 
L 581 3500 
L 1159 3500 
L 1159 2956 
Q 1366 3272 1645 3428 
Q 1925 3584 2291 3584 
Q 2894 3584 3203 3211 
Q 3513 2838 3513 2113 
z
" id="DejaVuSans-6e" transform="scale(0.015625)"/>
       <path d="M 1172 4494 
L 1172 3500 
L 2356 3500 
L 2356 3053 
L 1172 3053 
L 1172 1153 
Q 1172 725 1289 603 
Q 1406 481 1766 481 
L 2356 481 
L 2356 0 
L 1766 0 
Q 1100 0 847 248 
Q 594 497 594 1153 
L 594 3053 
L 172 3053 
L 172 3500 
L 594 3500 
L 594 4494 
L 1172 4494 
z
" id="DejaVuSans-74" transform="scale(0.015625)"/>
       <path id="DejaVuSans-20" transform="scale(0.015625)"/>
       <path d="M 1959 3097 
Q 1497 3097 1228 2736 
Q 959 2375 959 1747 
Q 959 1119 1226 758 
Q 1494 397 1959 397 
Q 2419 397 2687 759 
Q 2956 1122 2956 1747 
Q 2956 2369 2687 2733 
Q 2419 3097 1959 3097 
z
M 1959 3584 
Q 2709 3584 3137 3096 
Q 3566 2609 3566 1747 
Q 3566 888 3137 398 
Q 2709 -91 1959 -91 
Q 1206 -91 779 398 
Q 353 888 353 1747 
Q 353 2609 779 3096 
Q 1206 3584 1959 3584 
z
" id="DejaVuSans-6f" transform="scale(0.015625)"/>
       <path d="M 2375 4863 
L 2375 4384 
L 1825 4384 
Q 1516 4384 1395 4259 
Q 1275 4134 1275 3809 
L 1275 3500 
L 2222 3500 
L 2222 3053 
L 1275 3053 
L 1275 0 
L 697 0 
L 697 3053 
L 147 3053 
L 147 3500 
L 697 3500 
L 697 3744 
Q 697 4328 969 4595 
Q 1241 4863 1831 4863 
L 2375 4863 
z
" id="DejaVuSans-66" transform="scale(0.015625)"/>
       <path d="M 2194 1759 
Q 1497 1759 1228 1600 
Q 959 1441 959 1056 
Q 959 750 1161 570 
Q 1363 391 1709 391 
Q 2188 391 2477 730 
Q 2766 1069 2766 1631 
L 2766 1759 
L 2194 1759 
z
M 3341 1997 
L 3341 0 
L 2766 0 
L 2766 531 
Q 2569 213 2275 61 
Q 1981 -91 1556 -91 
Q 1019 -91 701 211 
Q 384 513 384 1019 
Q 384 1609 779 1909 
Q 1175 2209 1959 2209 
L 2766 2209 
L 2766 2266 
Q 2766 2663 2505 2880 
Q 2244 3097 1772 3097 
Q 1472 3097 1187 3025 
Q 903 2953 641 2809 
L 641 3341 
Q 956 3463 1253 3523 
Q 1550 3584 1831 3584 
Q 2591 3584 2966 3190 
Q 3341 2797 3341 1997 
z
" id="DejaVuSans-61" transform="scale(0.015625)"/>
       <path d="M 2906 2969 
L 2906 4863 
L 3481 4863 
L 3481 0 
L 2906 0 
L 2906 525 
Q 2725 213 2448 61 
Q 2172 -91 1784 -91 
Q 1150 -91 751 415 
Q 353 922 353 1747 
Q 353 2572 751 3078 
Q 1150 3584 1784 3584 
Q 2172 3584 2448 3432 
Q 2725 3281 2906 2969 
z
M 947 1747 
Q 947 1113 1208 752 
Q 1469 391 1925 391 
Q 2381 391 2643 752 
Q 2906 1113 2906 1747 
Q 2906 2381 2643 2742 
Q 2381 3103 1925 3103 
Q 1469 3103 1208 2742 
Q 947 2381 947 1747 
z
" id="DejaVuSans-64" transform="scale(0.015625)"/>
       <path d="M 2834 3397 
L 2834 2853 
Q 2591 2978 2328 3040 
Q 2066 3103 1784 3103 
Q 1356 3103 1142 2972 
Q 928 2841 928 2578 
Q 928 2378 1081 2264 
Q 1234 2150 1697 2047 
L 1894 2003 
Q 2506 1872 2764 1633 
Q 3022 1394 3022 966 
Q 3022 478 2636 193 
Q 2250 -91 1575 -91 
Q 1294 -91 989 -36 
Q 684 19 347 128 
L 347 722 
Q 666 556 975 473 
Q 1284 391 1588 391 
Q 1994 391 2212 530 
Q 2431 669 2431 922 
Q 2431 1156 2273 1281 
Q 2116 1406 1581 1522 
L 1381 1569 
Q 847 1681 609 1914 
Q 372 2147 372 2553 
Q 372 3047 722 3315 
Q 1072 3584 1716 3584 
Q 2034 3584 2315 3537 
Q 2597 3491 2834 3397 
z
" id="DejaVuSans-73" transform="scale(0.015625)"/>
      </defs>
      <use xlink:href="#DejaVuSans-50"/>
      <use x="56.677734" xlink:href="#DejaVuSans-65"/>
      <use x="118.201172" xlink:href="#DejaVuSans-72"/>
      <use x="157.064453" xlink:href="#DejaVuSans-63"/>
      <use x="212.044922" xlink:href="#DejaVuSans-65"/>
      <use x="273.568359" xlink:href="#DejaVuSans-6e"/>
      <use x="336.947266" xlink:href="#DejaVuSans-74"/>
      <use x="376.15625" xlink:href="#DejaVuSans-20"/>
      <use x="407.943359" xlink:href="#DejaVuSans-6f"/>
      <use x="469.125" xlink:href="#DejaVuSans-66"/>
      <use x="504.330078" xlink:href="#DejaVuSans-20"/>
      <use x="536.117188" xlink:href="#DejaVuSans-72"/>
      <use x="574.980469" xlink:href="#DejaVuSans-65"/>
      <use x="636.503906" xlink:href="#DejaVuSans-61"/>
      <use x="697.783203" xlink:href="#DejaVuSans-64"/>
      <use x="761.259766" xlink:href="#DejaVuSans-73"/>
     </g>
    </g>
   </g>
   <g id="matplotlib.axis_2">
    <g id="ytick_1">
     <g id="line2d_1">
      <path clip-path="url(#pddfab9e9d2)" d="M 58.418125 353.2239 
L 985.263125 353.2239 
" style="fill:none;stroke:#dedede;stroke-linecap:square;"/>
     </g>
     <g id="text_8">
      <!-- 0 -->
      <g transform="translate(46.328125 356.263275)scale(0.08 -0.08)">
       <use xlink:href="#DejaVuSans-30"/>
      </g>
     </g>
    </g>
    <g id="ytick_2">
     <g id="line2d_2">
      <path clip-path="url(#pddfab9e9d2)" d="M 58.418125 312.55678 
L 985.263125 312.55678 
" style="fill:none;stroke:#dedede;stroke-linecap:square;"/>
     </g>
     <g id="text_9">
      <!-- 25000 -->
      <g transform="translate(25.968125 315.596155)scale(0.08 -0.08)">
       <defs>
        <path d="M 691 4666 
L 3169 4666 
L 3169 4134 
L 1269 4134 
L 1269 2991 
Q 1406 3038 1543 3061 
Q 1681 3084 1819 3084 
Q 2600 3084 3056 2656 
Q 3513 2228 3513 1497 
Q 3513 744 3044 326 
Q 2575 -91 1722 -91 
Q 1428 -91 1123 -41 
Q 819 9 494 109 
L 494 744 
Q 775 591 1075 516 
Q 1375 441 1709 441 
Q 2250 441 2565 725 
Q 2881 1009 2881 1497 
Q 2881 1984 2565 2268 
Q 2250 2553 1709 2553 
Q 1456 2553 1204 2497 
Q 953 2441 691 2322 
L 691 4666 
z
" id="DejaVuSans-35" transform="scale(0.015625)"/>
       </defs>
       <use xlink:href="#DejaVuSans-32"/>
       <use x="63.623047" xlink:href="#DejaVuSans-35"/>
       <use x="127.246094" xlink:href="#DejaVuSans-30"/>
       <use x="190.869141" xlink:href="#DejaVuSans-30"/>
       <use x="254.492188" xlink:href="#DejaVuSans-30"/>
      </g>
     </g>
    </g>
    <g id="ytick_3">
     <g id="line2d_3">
      <path clip-path="url(#pddfab9e9d2)" d="M 58.418125 271.889659 
L 985.263125 271.889659 
" style="fill:none;stroke:#dedede;stroke-linecap:square;"/>
     </g>
     <g id="text_10">
      <!-- 50000 -->
      <g transform="translate(25.968125 274.929034)scale(0.08 -0.08)">
       <use xlink:href="#DejaVuSans-35"/>
       <use x="63.623047" xlink:href="#DejaVuSans-30"/>
       <use x="127.246094" xlink:href="#DejaVuSans-30"/>
       <use x="190.869141" xlink:href="#DejaVuSans-30"/>
       <use x="254.492188" xlink:href="#DejaVuSans-30"/>
      </g>
     </g>
    </g>
    <g id="ytick_4">
     <g id="line2d_4">
      <path clip-path="url(#pddfab9e9d2)" d="M 58.418125 231.222539 
L 985.263125 231.222539 
" style="fill:none;stroke:#dedede;stroke-linecap:square;"/>
     </g>
     <g id="text_11">
      <!-- 75000 -->
      <g transform="translate(25.968125 234.261914)scale(0.08 -0.08)">
       <defs>
        <path d="M 525 4666 
L 3525 4666 
L 3525 4397 
L 1831 0 
L 1172 0 
L 2766 4134 
L 525 4134 
L 525 4666 
z
" id="DejaVuSans-37" transform="scale(0.015625)"/>
       </defs>
       <use xlink:href="#DejaVuSans-37"/>
       <use x="63.623047" xlink:href="#DejaVuSans-35"/>
       <use x="127.246094" xlink:href="#DejaVuSans-30"/>
       <use x="190.869141" xlink:href="#DejaVuSans-30"/>
       <use x="254.492188" xlink:href="#DejaVuSans-30"/>
      </g>
     </g>
    </g>
    <g id="ytick_5">
     <g id="line2d_5">
      <path clip-path="url(#pddfab9e9d2)" d="M 58.418125 190.555418 
L 985.263125 190.555418 
" style="fill:none;stroke:#dedede;stroke-linecap:square;"/>
     </g>
     <g id="text_12">
      <!-- 100000 -->
      <g transform="translate(20.878125 193.594793)scale(0.08 -0.08)">
       <use xlink:href="#DejaVuSans-31"/>
       <use x="63.623047" xlink:href="#DejaVuSans-30"/>
       <use x="127.246094" xlink:href="#DejaVuSans-30"/>
       <use x="190.869141" xlink:href="#DejaVuSans-30"/>
       <use x="254.492188" xlink:href="#DejaVuSans-30"/>
       <use x="318.115234" xlink:href="#DejaVuSans-30"/>
      </g>
     </g>
    </g>
    <g id="ytick_6">
     <g id="line2d_6">
      <path clip-path="url(#pddfab9e9d2)" d="M 58.418125 149.888298 
L 985.263125 149.888298 
" style="fill:none;stroke:#dedede;stroke-linecap:square;"/>
     </g>
     <g id="text_13">
      <!-- 125000 -->
      <g transform="translate(20.878125 152.927673)scale(0.08 -0.08)">
       <use xlink:href="#DejaVuSans-31"/>
       <use x="63.623047" xlink:href="#DejaVuSans-32"/>
       <use x="127.246094" xlink:href="#DejaVuSans-35"/>
       <use x="190.869141" xlink:href="#DejaVuSans-30"/>
       <use x="254.492188" xlink:href="#DejaVuSans-30"/>
       <use x="318.115234" xlink:href="#DejaVuSans-30"/>
      </g>
     </g>
    </g>
    <g id="ytick_7">
     <g id="line2d_7">
      <path clip-path="url(#pddfab9e9d2)" d="M 58.418125 109.221177 
L 985.263125 109.221177 
" style="fill:none;stroke:#dedede;stroke-linecap:square;"/>
     </g>
     <g id="text_14">
      <!-- 150000 -->
      <g transform="translate(20.878125 112.260552)scale(0.08 -0.08)">
       <use xlink:href="#DejaVuSans-31"/>
       <use x="63.623047" xlink:href="#DejaVuSans-35"/>
       <use x="127.246094" xlink:href="#DejaVuSans-30"/>
       <use x="190.869141" xlink:href="#DejaVuSans-30"/>
       <use x="254.492188" xlink:href="#DejaVuSans-30"/>
       <use x="318.115234" xlink:href="#DejaVuSans-30"/>
      </g>
     </g>
    </g>
    <g id="ytick_8">
     <g id="line2d_8">
      <path clip-path="url(#pddfab9e9d2)" d="M 58.418125 68.554057 
L 985.263125 68.554057 
" style="fill:none;stroke:#dedede;stroke-linecap:square;"/>
     </g>
     <g id="text_15">
      <!-- 175000 -->
      <g transform="translate(20.878125 71.593432)scale(0.08 -0.08)">
       <use xlink:href="#DejaVuSans-31"/>
       <use x="63.623047" xlink:href="#DejaVuSans-37"/>
       <use x="127.246094" xlink:href="#DejaVuSans-35"/>
       <use x="190.869141" xlink:href="#DejaVuSans-30"/>
       <use x="254.492188" xlink:href="#DejaVuSans-30"/>
       <use x="318.115234" xlink:href="#DejaVuSans-30"/>
      </g>
     </g>
    </g>
    <g id="text_16">
     <!-- Number of Junctions -->
     <g transform="translate(14.798438 245.067244)rotate(-90)scale(0.1 -0.1)">
      <defs>
       <path d="M 628 4666 
L 1478 4666 
L 3547 763 
L 3547 4666 
L 4159 4666 
L 4159 0 
L 3309 0 
L 1241 3903 
L 1241 0 
L 628 0 
L 628 4666 
z
" id="DejaVuSans-4e" transform="scale(0.015625)"/>
       <path d="M 544 1381 
L 544 3500 
L 1119 3500 
L 1119 1403 
Q 1119 906 1312 657 
Q 1506 409 1894 409 
Q 2359 409 2629 706 
Q 2900 1003 2900 1516 
L 2900 3500 
L 3475 3500 
L 3475 0 
L 2900 0 
L 2900 538 
Q 2691 219 2414 64 
Q 2138 -91 1772 -91 
Q 1169 -91 856 284 
Q 544 659 544 1381 
z
M 1991 3584 
L 1991 3584 
z
" id="DejaVuSans-75" transform="scale(0.015625)"/>
       <path d="M 3328 2828 
Q 3544 3216 3844 3400 
Q 4144 3584 4550 3584 
Q 5097 3584 5394 3201 
Q 5691 2819 5691 2113 
L 5691 0 
L 5113 0 
L 5113 2094 
Q 5113 2597 4934 2840 
Q 4756 3084 4391 3084 
Q 3944 3084 3684 2787 
Q 3425 2491 3425 1978 
L 3425 0 
L 2847 0 
L 2847 2094 
Q 2847 2600 2669 2842 
Q 2491 3084 2119 3084 
Q 1678 3084 1418 2786 
Q 1159 2488 1159 1978 
L 1159 0 
L 581 0 
L 581 3500 
L 1159 3500 
L 1159 2956 
Q 1356 3278 1631 3431 
Q 1906 3584 2284 3584 
Q 2666 3584 2933 3390 
Q 3200 3197 3328 2828 
z
" id="DejaVuSans-6d" transform="scale(0.015625)"/>
       <path d="M 3116 1747 
Q 3116 2381 2855 2742 
Q 2594 3103 2138 3103 
Q 1681 3103 1420 2742 
Q 1159 2381 1159 1747 
Q 1159 1113 1420 752 
Q 1681 391 2138 391 
Q 2594 391 2855 752 
Q 3116 1113 3116 1747 
z
M 1159 2969 
Q 1341 3281 1617 3432 
Q 1894 3584 2278 3584 
Q 2916 3584 3314 3078 
Q 3713 2572 3713 1747 
Q 3713 922 3314 415 
Q 2916 -91 2278 -91 
Q 1894 -91 1617 61 
Q 1341 213 1159 525 
L 1159 0 
L 581 0 
L 581 4863 
L 1159 4863 
L 1159 2969 
z
" id="DejaVuSans-62" transform="scale(0.015625)"/>
       <path d="M 628 4666 
L 1259 4666 
L 1259 325 
Q 1259 -519 939 -900 
Q 619 -1281 -91 -1281 
L -331 -1281 
L -331 -750 
L -134 -750 
Q 284 -750 456 -515 
Q 628 -281 628 325 
L 628 4666 
z
" id="DejaVuSans-4a" transform="scale(0.015625)"/>
       <path d="M 603 3500 
L 1178 3500 
L 1178 0 
L 603 0 
L 603 3500 
z
M 603 4863 
L 1178 4863 
L 1178 4134 
L 603 4134 
L 603 4863 
z
" id="DejaVuSans-69" transform="scale(0.015625)"/>
      </defs>
      <use xlink:href="#DejaVuSans-4e"/>
      <use x="74.804688" xlink:href="#DejaVuSans-75"/>
      <use x="138.183594" xlink:href="#DejaVuSans-6d"/>
      <use x="235.595703" xlink:href="#DejaVuSans-62"/>
      <use x="299.072266" xlink:href="#DejaVuSans-65"/>
      <use x="360.595703" xlink:href="#DejaVuSans-72"/>
      <use x="401.708984" xlink:href="#DejaVuSans-20"/>
      <use x="433.496094" xlink:href="#DejaVuSans-6f"/>
      <use x="494.677734" xlink:href="#DejaVuSans-66"/>
      <use x="529.882812" xlink:href="#DejaVuSans-20"/>
      <use x="561.669922" xlink:href="#DejaVuSans-4a"/>
      <use x="591.162109" xlink:href="#DejaVuSans-75"/>
      <use x="654.541016" xlink:href="#DejaVuSans-6e"/>
      <use x="717.919922" xlink:href="#DejaVuSans-63"/>
      <use x="772.900391" xlink:href="#DejaVuSans-74"/>
      <use x="812.109375" xlink:href="#DejaVuSans-69"/>
      <use x="839.892578" xlink:href="#DejaVuSans-6f"/>
      <use x="901.074219" xlink:href="#DejaVuSans-6e"/>
      <use x="964.453125" xlink:href="#DejaVuSans-73"/>
     </g>
    </g>
   </g>
   <g id="line2d_9">
    <path clip-path="url(#pddfab9e9d2)" d="M 104.760375 252.543497 
L 151.102625 211.720214 
L 197.444875 189.810397 
L 243.787125 175.643598 
L 290.129375 165.491459 
L 336.471625 157.750066 
L 382.813875 151.497089 
L 429.156125 146.158309 
L 475.498375 141.584072 
L 521.840625 137.53688 
L 568.182875 133.967933 
L 614.525125 130.750351 
L 660.867375 127.784904 
L 707.209625 125.052074 
L 753.551875 122.556739 
L 799.894125 120.339568 
L 846.236375 118.268798 
L 892.578625 116.108561 
L 938.920875 114.135392 
L 985.263125 112.271211 
" style="fill:none;stroke:#7cb5ec;stroke-linecap:square;"/>
   </g>
   <g id="line2d_10">
    <path clip-path="url(#pddfab9e9d2)" d="M 104.760375 259.896112 
L 151.102625 220.135055 
L 197.444875 197.690058 
L 243.787125 182.9344 
L 290.129375 172.385349 
L 336.471625 164.331632 
L 382.813875 157.820013 
L 429.156125 152.286031 
L 475.498375 147.614192 
L 521.840625 143.462893 
L 568.182875 139.765438 
L 614.525125 136.419347 
L 660.867375 133.452274 
L 707.209625 130.610456 
L 753.551875 127.975227 
L 799.894125 125.720641 
L 846.236375 123.558777 
L 892.578625 121.507528 
L 938.920875 119.548999 
L 985.263125 117.756393 
" style="fill:none;stroke:#434348;stroke-linecap:square;"/>
   </g>
   <g id="line2d_11">
    <path clip-path="url(#pddfab9e9d2)" d="M 104.760375 266.866456 
L 151.102625 226.890677 
L 197.444875 203.957674 
L 243.787125 188.66521 
L 290.129375 177.753409 
L 336.471625 169.354835 
L 382.813875 162.413771 
L 429.156125 156.847255 
L 475.498375 152.050162 
L 521.840625 147.760594 
L 568.182875 144.004579 
L 614.525125 140.676382 
L 660.867375 137.665388 
L 707.209625 134.919544 
L 753.551875 132.461623 
L 799.894125 130.024849 
L 846.236375 127.916666 
L 892.578625 125.850776 
L 938.920875 123.897128 
L 985.263125 122.034574 
" style="fill:none;stroke:#90ed7d;stroke-linecap:square;"/>
   </g>
   <g id="line2d_12">
    <path clip-path="url(#pddfab9e9d2)" d="M 104.760375 262.40446 
L 151.102625 222.658043 
L 197.444875 200.348061 
L 243.787125 185.432988 
L 290.129375 174.856283 
L 336.471625 166.722859 
L 382.813875 160.2454 
L 429.156125 154.942408 
L 475.498375 150.457637 
L 521.840625 146.330738 
L 568.182875 142.555203 
L 614.525125 139.238392 
L 660.867375 136.328253 
L 707.209625 133.608436 
L 753.551875 131.137502 
L 799.894125 128.791822 
L 846.236375 126.590918 
L 892.578625 124.559188 
L 938.920875 122.690128 
L 985.263125 120.918668 
" style="fill:none;stroke:#f7a35c;stroke-linecap:square;"/>
   </g>
   <g id="line2d_13">
    <path clip-path="url(#pddfab9e9d2)" d="M 104.760375 249.145352 
L 151.102625 208.792182 
L 197.444875 186.924658 
L 243.787125 172.709059 
L 290.129375 162.641507 
L 336.471625 155.134356 
L 382.813875 149.019648 
L 429.156125 143.959032 
L 475.498375 139.420581 
L 521.840625 135.560458 
L 568.182875 131.988258 
L 614.525125 128.795076 
L 660.867375 125.845896 
L 707.209625 123.148853 
L 753.551875 120.729972 
L 799.894125 118.376159 
L 846.236375 116.224055 
L 892.578625 114.288301 
L 938.920875 112.402973 
L 985.263125 110.538792 
" style="fill:none;stroke:#8085e9;stroke-linecap:square;"/>
   </g>
   <g id="line2d_14">
    <path clip-path="url(#pddfab9e9d2)" d="M 104.760375 260.141741 
L 151.102625 219.232245 
L 197.444875 196.287856 
L 243.787125 181.585878 
L 290.129375 170.906692 
L 336.471625 162.732601 
L 382.813875 156.253515 
L 429.156125 151.01559 
L 475.498375 146.438099 
L 521.840625 142.3112 
L 568.182875 138.680439 
L 614.525125 135.238374 
L 660.867375 132.383542 
L 707.209625 129.647459 
L 753.551875 127.192791 
L 799.894125 124.897539 
L 846.236375 122.768208 
L 892.578625 120.754373 
L 938.920875 118.808858 
L 985.263125 117.030891 
" style="fill:none;stroke:#f15c80;stroke-linecap:square;"/>
   </g>
   <g id="line2d_15">
    <path clip-path="url(#pddfab9e9d2)" d="M 104.760375 245.914756 
L 151.102625 204.551414 
L 197.444875 182.282099 
L 243.787125 168.092528 
L 290.129375 158.044495 
L 336.471625 150.278702 
L 382.813875 143.986685 
L 429.156125 138.797561 
L 475.498375 134.415272 
L 521.840625 130.426641 
L 568.182875 126.804014 
L 614.525125 123.555524 
L 660.867375 120.643758 
L 707.209625 117.878394 
L 753.551875 115.384686 
L 799.894125 113.029246 
L 846.236375 110.743754 
L 892.578625 108.629064 
L 938.920875 106.693309 
L 985.263125 104.835635 
" style="fill:none;stroke:#e4d354;stroke-linecap:square;"/>
   </g>
   <g id="line2d_16">
    <path clip-path="url(#pddfab9e9d2)" d="M 104.760375 174.885563 
L 151.102625 137.629601 
L 197.444875 120.152499 
L 243.787125 108.918614 
L 290.129375 100.305318 
L 336.471625 93.273159 
L 382.813875 87.378054 
L 429.156125 82.348344 
L 475.498375 77.808267 
L 521.840625 73.656967 
L 568.182875 69.787084 
L 614.525125 66.292965 
L 660.867375 63.355172 
L 707.209625 60.415753 
L 753.551875 57.663402 
L 799.894125 55.143667 
L 846.236375 52.796361 
L 892.578625 50.528762 
L 938.920875 48.414072 
L 985.263125 46.458797 
" style="fill:none;stroke:#2b908f;stroke-linecap:square;"/>
   </g>
   <g id="line2d_17">
    <path clip-path="url(#pddfab9e9d2)" d="M 104.760375 255.735052 
L 151.102625 214.31803 
L 197.444875 191.284173 
L 243.787125 176.419527 
L 290.129375 165.945304 
L 336.471625 157.935508 
L 382.813875 151.428768 
L 429.156125 145.844359 
L 475.498375 141.159507 
L 521.840625 136.9041 
L 568.182875 133.270086 
L 614.525125 130.094797 
L 660.867375 127.049643 
L 707.209625 124.368866 
L 753.551875 121.748277 
L 799.894125 119.379824 
L 846.236375 116.993477 
L 892.578625 114.924334 
L 938.920875 113.011353 
L 985.263125 111.046318 
" style="fill:none;stroke:#f45b5b;stroke-linecap:square;"/>
   </g>
   <g id="line2d_18">
    <path clip-path="url(#pddfab9e9d2)" d="M 104.760375 254.079087 
L 151.102625 212.972762 
L 197.444875 190.358589 
L 243.787125 175.912001 
L 290.129375 165.502845 
L 336.471625 157.299474 
L 382.813875 150.800868 
L 429.156125 145.341714 
L 475.498375 140.666622 
L 521.840625 136.569002 
L 568.182875 132.978909 
L 614.525125 129.723913 
L 660.867375 126.719426 
L 707.209625 123.893874 
L 753.551875 121.221231 
L 799.894125 118.886939 
L 846.236375 116.689287 
L 892.578625 114.698225 
L 938.920875 112.78199 
L 985.263125 110.955223 
" style="fill:none;stroke:#91e8e1;stroke-linecap:square;"/>
   </g>
   <g id="line2d_19">
    <path clip-path="url(#pddfab9e9d2)" d="M 104.760375 249.347061 
L 151.102625 208.182175 
L 197.444875 185.755071 
L 243.787125 171.620807 
L 290.129375 161.358052 
L 336.471625 153.688234 
L 382.813875 147.347416 
L 429.156125 142.115998 
L 475.498375 137.504346 
L 521.840625 133.553129 
L 568.182875 130.000449 
L 614.525125 126.799133 
L 660.867375 123.828807 
L 707.209625 121.125257 
L 753.551875 118.631549 
L 799.894125 116.389977 
L 846.236375 114.193953 
L 892.578625 112.090649 
L 938.920875 110.071933 
L 985.263125 108.188232 
" style="fill:none;stroke:#7cb5ec;stroke-linecap:square;"/>
   </g>
   <g id="line2d_20">
    <path clip-path="url(#pddfab9e9d2)" d="M 104.760375 249.475569 
L 151.102625 207.710436 
L 197.444875 185.36792 
L 243.787125 170.789571 
L 290.129375 160.616284 
L 336.471625 152.74801 
L 382.813875 146.517807 
L 429.156125 141.273375 
L 475.498375 136.704017 
L 521.840625 132.746293 
L 568.182875 129.224521 
L 614.525125 125.941871 
L 660.867375 123.028478 
L 707.209625 120.346075 
L 753.551875 117.800313 
L 799.894125 115.482287 
L 846.236375 113.349703 
L 892.578625 111.283814 
L 938.920875 109.369206 
L 985.263125 107.592866 
" style="fill:none;stroke:#434348;stroke-linecap:square;"/>
   </g>
   <g id="line2d_21">
    <path clip-path="url(#pddfab9e9d2)" d="M 104.760375 255.377182 
L 151.102625 214.00408 
L 197.444875 191.469615 
L 243.787125 176.894519 
L 290.129375 166.355228 
L 336.471625 158.540634 
L 382.813875 152.155896 
L 429.156125 146.836637 
L 475.498375 142.358374 
L 521.840625 138.369743 
L 568.182875 134.693435 
L 614.525125 131.630387 
L 660.867375 128.83737 
L 707.209625 126.22654 
L 753.551875 123.880861 
L 799.894125 121.606756 
L 846.236375 119.402598 
L 892.578625 117.453829 
L 938.920875 115.571755 
L 985.263125 113.762881 
" style="fill:none;stroke:#90ed7d;stroke-linecap:square;"/>
   </g>
   <g id="line2d_22">
    <path clip-path="url(#pddfab9e9d2)" d="M 104.760375 249.486956 
L 151.102625 208.001613 
L 197.444875 185.872193 
L 243.787125 171.576886 
L 290.129375 161.455654 
L 336.471625 153.65082 
L 382.813875 147.344163 
L 429.156125 142.143651 
L 475.498375 137.623094 
L 521.840625 133.528729 
L 568.182875 130.089917 
L 614.525125 126.960175 
L 660.867375 124.033769 
L 707.209625 121.351366 
L 753.551875 118.795844 
L 799.894125 116.37371 
L 846.236375 114.237873 
L 892.578625 112.171984 
L 938.920875 110.107721 
L 985.263125 108.256553 
" style="fill:none;stroke:#f7a35c;stroke-linecap:square;"/>
   </g>
   <g id="line2d_23">
    <path clip-path="url(#pddfab9e9d2)" d="M 104.760375 260.650894 
L 151.102625 220.068361 
L 197.444875 197.088184 
L 243.787125 182.158471 
L 290.129375 171.511819 
L 336.471625 163.51341 
L 382.813875 157.192113 
L 429.156125 151.973708 
L 475.498375 147.240055 
L 521.840625 143.22865 
L 568.182875 139.706878 
L 614.525125 136.385187 
L 660.867375 133.536862 
L 707.209625 130.994354 
L 753.551875 128.6015 
L 799.894125 126.236301 
L 846.236375 124.084197 
L 892.578625 121.985773 
L 938.920875 120.113459 
L 985.263125 118.314345 
" style="fill:none;stroke:#8085e9;stroke-linecap:square;"/>
   </g>
   <g id="line2d_24">
    <path clip-path="url(#pddfab9e9d2)" d="M 104.760375 260.981111 
L 151.102625 220.488046 
L 197.444875 197.512749 
L 243.787125 182.908373 
L 290.129375 172.326788 
L 336.471625 164.500807 
L 382.813875 158.068896 
L 429.156125 152.682942 
L 475.498375 148.118465 
L 521.840625 144.085913 
L 568.182875 140.52022 
L 614.525125 137.429519 
L 660.867375 134.542153 
L 707.209625 131.89879 
L 753.551875 129.527084 
L 799.894125 127.230205 
L 846.236375 124.99026 
L 892.578625 123.093545 
L 938.920875 121.250512 
L 985.263125 119.409104 
" style="fill:none;stroke:#f15c80;stroke-linecap:square;"/>
   </g>
   <g id="line2d_25">
    <path clip-path="url(#pddfab9e9d2)" d="M 104.760375 252.268587 
L 151.102625 211.920297 
L 197.444875 190.152 
L 243.787125 176.034003 
L 290.129375 165.834689 
L 336.471625 158.207164 
L 382.813875 152.15915 
L 429.156125 147.072506 
L 475.498375 142.698351 
L 521.840625 138.862628 
L 568.182875 135.44171 
L 614.525125 132.368902 
L 660.867375 129.528711 
L 707.209625 126.857694 
L 753.551875 124.341213 
L 799.894125 122.02156 
L 846.236375 119.929643 
L 892.578625 117.873514 
L 938.920875 115.949146 
L 985.263125 114.078458 
" style="fill:none;stroke:#e4d354;stroke-linecap:square;"/>
   </g>
   <g id="line2d_26">
    <path clip-path="url(#pddfab9e9d2)" d="M 104.760375 255.237287 
L 151.102625 213.903225 
L 197.444875 190.911662 
L 243.787125 176.06491 
L 290.129375 165.580926 
L 336.471625 157.707772 
L 382.813875 150.983057 
L 429.156125 145.483235 
L 475.498375 140.796756 
L 521.840625 136.625936 
L 568.182875 133.008189 
L 614.525125 129.585645 
L 660.867375 126.551877 
L 707.209625 123.752353 
L 753.551875 121.165924 
L 799.894125 118.787711 
L 846.236375 116.6047 
L 892.578625 114.481876 
L 938.920875 112.399719 
L 985.263125 110.514392 
" style="fill:none;stroke:#2b908f;stroke-linecap:square;"/>
   </g>
   <g id="line2d_27">
    <path clip-path="url(#pddfab9e9d2)" d="M 104.760375 259.408107 
L 151.102625 218.962215 
L 197.444875 195.869798 
L 243.787125 180.957978 
L 290.129375 170.10799 
L 336.471625 161.860698 
L 382.813875 155.357212 
L 429.156125 149.79395 
L 475.498375 144.961069 
L 521.840625 140.954545 
L 568.182875 137.23757 
L 614.525125 133.95492 
L 660.867375 130.953686 
L 707.209625 128.098855 
L 753.551875 125.471759 
L 799.894125 123.002451 
L 846.236375 120.77552 
L 892.578625 118.862538 
L 938.920875 116.90889 
L 985.263125 115.075616 
" style="fill:none;stroke:#f45b5b;stroke-linecap:square;"/>
   </g>
   <g id="line2d_28">
    <path clip-path="url(#pddfab9e9d2)" d="M 104.760375 247.79195 
L 151.102625 205.577853 
L 197.444875 182.94904 
L 243.787125 168.575653 
L 290.129375 158.376339 
L 336.471625 150.607292 
L 382.813875 144.334796 
L 429.156125 138.978123 
L 475.498375 134.346951 
L 521.840625 130.270479 
L 568.182875 126.748706 
L 614.525125 123.48883 
L 660.867375 120.477836 
L 707.209625 117.842607 
L 753.551875 115.293592 
L 799.894125 113.024366 
L 846.236375 110.781168 
L 892.578625 108.703892 
L 938.920875 106.719336 
L 985.263125 104.840515 
" style="fill:none;stroke:#91e8e1;stroke-linecap:square;"/>
   </g>
   <g id="line2d_29">
    <path clip-path="url(#pddfab9e9d2)" d="M 104.760375 254.97051 
L 151.102625 213.782851 
L 197.444875 191.467988 
L 243.787125 177.019774 
L 290.129375 166.633391 
L 336.471625 158.831811 
L 382.813875 152.557688 
L 429.156125 147.371816 
L 475.498375 142.994408 
L 521.840625 139.165191 
L 568.182875 135.534431 
L 614.525125 132.349382 
L 660.867375 129.588898 
L 707.209625 126.862574 
L 753.551875 124.383507 
L 799.894125 122.057347 
L 846.236375 119.867829 
L 892.578625 117.86538 
L 938.920875 115.947519 
L 985.263125 114.242753 
" style="fill:none;stroke:#7cb5ec;stroke-linecap:square;"/>
   </g>
   <g id="line2d_30">
    <path clip-path="url(#pddfab9e9d2)" d="M 104.760375 261.184446 
L 151.102625 221.441283 
L 197.444875 199.009299 
L 243.787125 184.434203 
L 290.129375 173.611869 
L 336.471625 165.465432 
L 382.813875 158.75373 
L 429.156125 153.257162 
L 475.498375 148.546283 
L 521.840625 144.513731 
L 568.182875 140.905744 
L 614.525125 137.736962 
L 660.867375 134.685301 
L 707.209625 131.86951 
L 753.551875 129.346522 
L 799.894125 126.890228 
L 846.236375 124.689323 
L 892.578625 122.649461 
L 938.920875 120.690932 
L 985.263125 118.922726 
" style="fill:none;stroke:#434348;stroke-linecap:square;"/>
   </g>
   <g id="line2d_31">
    <path clip-path="url(#pddfab9e9d2)" d="M 104.760375 257.151895 
L 151.102625 216.193598 
L 197.444875 193.628226 
L 243.787125 179.041743 
L 290.129375 168.598427 
L 336.471625 160.312094 
L 382.813875 153.782581 
L 429.156125 148.31204 
L 475.498375 143.702015 
L 521.840625 139.563729 
L 568.182875 135.988276 
L 614.525125 132.682852 
L 660.867375 129.634445 
L 707.209625 126.828414 
L 753.551875 124.407907 
L 799.894125 122.093134 
L 846.236375 119.888976 
L 892.578625 117.8117 
L 938.920875 115.893838 
L 985.263125 114.080085 
" style="fill:none;stroke:#90ed7d;stroke-linecap:square;"/>
   </g>
   <g id="line2d_32">
    <path clip-path="url(#pddfab9e9d2)" d="M 104.760375 255.79524 
L 151.102625 214.462805 
L 197.444875 191.520042 
L 243.787125 176.65865 
L 290.129375 165.938797 
L 336.471625 157.872067 
L 382.813875 151.30514 
L 429.156125 145.88828 
L 475.498375 141.14324 
L 521.840625 136.988687 
L 568.182875 133.34166 
L 614.525125 129.969542 
L 660.867375 126.953669 
L 707.209625 124.207825 
L 753.551875 121.644169 
L 799.894125 119.267583 
L 846.236375 117.079692 
L 892.578625 115.051216 
L 938.920875 113.136608 
L 985.263125 111.28544 
" style="fill:none;stroke:#f7a35c;stroke-linecap:square;"/>
   </g>
   <g id="line2d_33">
    <path clip-path="url(#pddfab9e9d2)" d="M 104.760375 270.516737 
L 151.102625 230.134287 
L 197.444875 206.085378 
L 243.787125 190.028372 
L 290.129375 178.342269 
L 336.471625 169.179153 
L 382.813875 161.959926 
L 429.156125 155.985112 
L 475.498375 150.937509 
L 521.840625 146.534074 
L 568.182875 142.693471 
L 614.525125 139.161938 
L 660.867375 135.840248 
L 707.209625 132.985416 
L 753.551875 130.311146 
L 799.894125 127.934559 
L 846.236375 125.55472 
L 892.578625 123.423762 
L 938.920875 121.440834 
L 985.263125 119.488812 
" style="fill:none;stroke:#8085e9;stroke-linecap:square;"/>
   </g>
   <g id="line2d_34">
    <path clip-path="url(#pddfab9e9d2)" d="M 104.760375 258.121399 
L 151.102625 218.008978 
L 197.444875 195.684355 
L 243.787125 181.029552 
L 290.129375 170.72613 
L 336.471625 162.903403 
L 382.813875 156.526799 
L 429.156125 151.352314 
L 475.498375 146.82525 
L 521.840625 142.721124 
L 568.182875 139.166818 
L 614.525125 136.043583 
L 660.867375 133.154591 
L 707.209625 130.501468 
L 753.551875 128.152535 
L 799.894125 125.925604 
L 846.236375 123.723072 
L 892.578625 121.831238 
L 938.920875 119.874336 
L 985.263125 118.076849 
" style="fill:none;stroke:#f15c80;stroke-linecap:square;"/>
   </g>
   <g id="line2d_35">
    <path clip-path="url(#pddfab9e9d2)" d="M 104.760375 247.842377 
L 151.102625 206.858053 
L 197.444875 184.793701 
L 243.787125 170.794451 
L 290.129375 160.909087 
L 336.471625 153.157934 
L 382.813875 147.002559 
L 429.156125 141.826448 
L 475.498375 137.387225 
L 521.840625 133.527102 
L 568.182875 130.11269 
L 614.525125 127.026869 
L 660.867375 124.134624 
L 707.209625 121.440834 
L 753.551875 118.943872 
L 799.894125 116.782008 
L 846.236375 114.720999 
L 892.578625 112.629082 
L 938.920875 110.724234 
L 985.263125 108.806373 
" style="fill:none;stroke:#e4d354;stroke-linecap:square;"/>
   </g>
   <g id="line2d_36">
    <path clip-path="url(#pddfab9e9d2)" d="M 104.760375 250.601235 
L 151.102625 209.929234 
L 197.444875 187.629012 
L 243.787125 173.792431 
L 290.129375 163.884294 
L 336.471625 156.36901 
L 382.813875 150.278702 
L 429.156125 145.052164 
L 475.498375 140.650355 
L 521.840625 136.839032 
L 568.182875 133.479928 
L 614.525125 130.394107 
L 660.867375 127.592956 
L 707.209625 125.107381 
L 753.551875 122.657594 
L 799.894125 120.267994 
L 846.236375 118.189091 
L 892.578625 116.256589 
L 938.920875 114.50465 
L 985.263125 112.751083 
" style="fill:none;stroke:#2b908f;stroke-linecap:square;"/>
   </g>
   <g id="line2d_37">
    <path clip-path="url(#pddfab9e9d2)" d="M 104.760375 259.930272 
L 151.102625 218.52789 
L 197.444875 195.123149 
L 243.787125 179.754231 
L 290.129375 168.792002 
L 336.471625 160.164066 
L 382.813875 153.460498 
L 429.156125 147.754087 
L 475.498375 143.000914 
L 521.840625 138.802441 
L 568.182875 134.966718 
L 614.525125 131.596227 
L 660.867375 128.573847 
L 707.209625 125.85403 
L 753.551875 123.292001 
L 799.894125 120.876374 
L 846.236375 118.662456 
L 892.578625 116.60958 
L 938.920875 114.546943 
L 985.263125 112.669749 
" style="fill:none;stroke:#f45b5b;stroke-linecap:square;"/>
   </g>
   <g id="line2d_38">
    <path clip-path="url(#pddfab9e9d2)" d="M 104.760375 251.264922 
L 151.102625 209.1956 
L 197.444875 186.016968 
L 243.787125 170.905066 
L 290.129375 160.517056 
L 336.471625 152.46822 
L 382.813875 145.959854 
L 429.156125 140.655235 
L 475.498375 135.900435 
L 521.840625 131.806069 
L 568.182875 128.076081 
L 614.525125 124.689323 
L 660.867375 121.579102 
L 707.209625 118.841391 
L 753.551875 116.173628 
L 799.894125 113.779148 
L 846.236375 111.544083 
L 892.578625 109.444033 
L 938.920875 107.392784 
L 985.263125 105.512336 
" style="fill:none;stroke:#91e8e1;stroke-linecap:square;"/>
   </g>
   <g id="line2d_39">
    <path clip-path="url(#pddfab9e9d2)" d="M 104.760375 247.421066 
L 151.102625 205.921083 
L 197.444875 183.498859 
L 243.787125 169.193793 
L 290.129375 158.961946 
L 336.471625 151.24658 
L 382.813875 144.951309 
L 429.156125 139.741038 
L 475.498375 135.054559 
L 521.840625 130.924406 
L 568.182875 127.407514 
L 614.525125 124.154144 
L 660.867375 121.203338 
L 707.209625 118.590882 
L 753.551875 116.067894 
L 799.894125 113.761255 
L 846.236375 111.519683 
L 892.578625 109.50422 
L 938.920875 107.586359 
L 985.263125 105.658738 
" style="fill:none;stroke:#7cb5ec;stroke-linecap:square;"/>
   </g>
   <g id="line2d_40">
    <path clip-path="url(#pddfab9e9d2)" d="M 104.760375 248.473531 
L 151.102625 206.355408 
L 197.444875 183.757502 
L 243.787125 169.18078 
L 290.129375 158.991226 
L 336.471625 151.134338 
L 382.813875 144.608079 
L 429.156125 139.309966 
L 475.498375 134.846343 
L 521.840625 130.781258 
L 568.182875 127.122844 
L 614.525125 123.957315 
L 660.867375 121.066696 
L 707.209625 118.384293 
L 753.551875 115.801117 
L 799.894125 113.432664 
L 846.236375 111.197599 
L 892.578625 109.025975 
L 938.920875 107.124381 
L 985.263125 105.172359 
" style="fill:none;stroke:#434348;stroke-linecap:square;"/>
   </g>
   <g id="line2d_41">
    <path clip-path="url(#pddfab9e9d2)" d="M 104.760375 256.593942 
L 151.102625 214.57342 
L 197.444875 191.067824 
L 243.787125 175.874588 
L 290.129375 164.99044 
L 336.471625 156.6732 
L 382.813875 149.928965 
L 429.156125 144.45029 
L 475.498375 139.677597 
L 521.840625 135.534431 
L 568.182875 131.804443 
L 614.525125 128.422565 
L 660.867375 125.429465 
L 707.209625 122.735675 
L 753.551875 120.145993 
L 799.894125 117.731992 
L 846.236375 115.448127 
L 892.578625 113.36109 
L 938.920875 111.334241 
L 985.263125 109.491207 
" style="fill:none;stroke:#90ed7d;stroke-linecap:square;"/>
   </g>
   <g id="line2d_42">
    <path clip-path="url(#pddfab9e9d2)" d="M 104.760375 241.220144 
L 151.102625 198.890551 
L 197.444875 176.565929 
L 243.787125 162.636627 
L 290.129375 152.643902 
L 336.471625 145.081444 
L 382.813875 138.924442 
L 429.156125 133.837799 
L 475.498375 129.300975 
L 521.840625 125.271676 
L 568.182875 121.769424 
L 614.525125 118.620162 
L 660.867375 115.635196 
L 707.209625 112.853565 
L 753.551875 110.403777 
L 799.894125 107.99303 
L 846.236375 105.733565 
L 892.578625 103.656289 
L 938.920875 101.730294 
L 985.263125 100.015768 
" style="fill:none;stroke:#f7a35c;stroke-linecap:square;"/>
   </g>
   <g id="line2d_43">
    <path clip-path="url(#pddfab9e9d2)" d="M 58.418125 353.2239 
L 985.263125 353.2239 
" style="fill:none;stroke:#dedede;stroke-linecap:square;stroke-width:2;"/>
   </g>
   <g id="text_17">
    <!-- RSeQC: Junction Saturation -->
    <g transform="translate(412.691875 19.3575)scale(0.16 -0.16)">
     <defs>
      <path d="M 2841 2188 
Q 3044 2119 3236 1894 
Q 3428 1669 3622 1275 
L 4263 0 
L 3584 0 
L 2988 1197 
Q 2756 1666 2539 1819 
Q 2322 1972 1947 1972 
L 1259 1972 
L 1259 0 
L 628 0 
L 628 4666 
L 2053 4666 
Q 2853 4666 3247 4331 
Q 3641 3997 3641 3322 
Q 3641 2881 3436 2590 
Q 3231 2300 2841 2188 
z
M 1259 4147 
L 1259 2491 
L 2053 2491 
Q 2509 2491 2742 2702 
Q 2975 2913 2975 3322 
Q 2975 3731 2742 3939 
Q 2509 4147 2053 4147 
L 1259 4147 
z
" id="DejaVuSans-52" transform="scale(0.015625)"/>
      <path d="M 3425 4513 
L 3425 3897 
Q 3066 4069 2747 4153 
Q 2428 4238 2131 4238 
Q 1616 4238 1336 4038 
Q 1056 3838 1056 3469 
Q 1056 3159 1242 3001 
Q 1428 2844 1947 2747 
L 2328 2669 
Q 3034 2534 3370 2195 
Q 3706 1856 3706 1288 
Q 3706 609 3251 259 
Q 2797 -91 1919 -91 
Q 1588 -91 1214 -16 
Q 841 59 441 206 
L 441 856 
Q 825 641 1194 531 
Q 1563 422 1919 422 
Q 2459 422 2753 634 
Q 3047 847 3047 1241 
Q 3047 1584 2836 1778 
Q 2625 1972 2144 2069 
L 1759 2144 
Q 1053 2284 737 2584 
Q 422 2884 422 3419 
Q 422 4038 858 4394 
Q 1294 4750 2059 4750 
Q 2388 4750 2728 4690 
Q 3069 4631 3425 4513 
z
" id="DejaVuSans-53" transform="scale(0.015625)"/>
      <path d="M 2522 4238 
Q 1834 4238 1429 3725 
Q 1025 3213 1025 2328 
Q 1025 1447 1429 934 
Q 1834 422 2522 422 
Q 3209 422 3611 934 
Q 4013 1447 4013 2328 
Q 4013 3213 3611 3725 
Q 3209 4238 2522 4238 
z
M 3406 84 
L 4238 -825 
L 3475 -825 
L 2784 -78 
Q 2681 -84 2626 -87 
Q 2572 -91 2522 -91 
Q 1538 -91 948 567 
Q 359 1225 359 2328 
Q 359 3434 948 4092 
Q 1538 4750 2522 4750 
Q 3503 4750 4090 4092 
Q 4678 3434 4678 2328 
Q 4678 1516 4351 937 
Q 4025 359 3406 84 
z
" id="DejaVuSans-51" transform="scale(0.015625)"/>
      <path d="M 4122 4306 
L 4122 3641 
Q 3803 3938 3442 4084 
Q 3081 4231 2675 4231 
Q 1875 4231 1450 3742 
Q 1025 3253 1025 2328 
Q 1025 1406 1450 917 
Q 1875 428 2675 428 
Q 3081 428 3442 575 
Q 3803 722 4122 1019 
L 4122 359 
Q 3791 134 3420 21 
Q 3050 -91 2638 -91 
Q 1578 -91 968 557 
Q 359 1206 359 2328 
Q 359 3453 968 4101 
Q 1578 4750 2638 4750 
Q 3056 4750 3426 4639 
Q 3797 4528 4122 4306 
z
" id="DejaVuSans-43" transform="scale(0.015625)"/>
      <path d="M 750 794 
L 1409 794 
L 1409 0 
L 750 0 
L 750 794 
z
M 750 3309 
L 1409 3309 
L 1409 2516 
L 750 2516 
L 750 3309 
z
" id="DejaVuSans-3a" transform="scale(0.015625)"/>
     </defs>
     <use xlink:href="#DejaVuSans-52"/>
     <use x="69.482422" xlink:href="#DejaVuSans-53"/>
     <use x="132.958984" xlink:href="#DejaVuSans-65"/>
     <use x="194.482422" xlink:href="#DejaVuSans-51"/>
     <use x="273.193359" xlink:href="#DejaVuSans-43"/>
     <use x="343.017578" xlink:href="#DejaVuSans-3a"/>
     <use x="376.708984" xlink:href="#DejaVuSans-20"/>
     <use x="408.496094" xlink:href="#DejaVuSans-4a"/>
     <use x="437.988281" xlink:href="#DejaVuSans-75"/>
     <use x="501.367188" xlink:href="#DejaVuSans-6e"/>
     <use x="564.746094" xlink:href="#DejaVuSans-63"/>
     <use x="619.726562" xlink:href="#DejaVuSans-74"/>
     <use x="658.935547" xlink:href="#DejaVuSans-69"/>
     <use x="686.71875" xlink:href="#DejaVuSans-6f"/>
     <use x="747.900391" xlink:href="#DejaVuSans-6e"/>
     <use x="811.279297" xlink:href="#DejaVuSans-20"/>
     <use x="843.066406" xlink:href="#DejaVuSans-53"/>
     <use x="906.542969" xlink:href="#DejaVuSans-61"/>
     <use x="967.822266" xlink:href="#DejaVuSans-74"/>
     <use x="1007.03125" xlink:href="#DejaVuSans-75"/>
     <use x="1070.410156" xlink:href="#DejaVuSans-72"/>
     <use x="1111.523438" xlink:href="#DejaVuSans-61"/>
     <use x="1172.802734" xlink:href="#DejaVuSans-74"/>
     <use x="1212.011719" xlink:href="#DejaVuSans-69"/>
     <use x="1239.794922" xlink:href="#DejaVuSans-6f"/>
     <use x="1300.976562" xlink:href="#DejaVuSans-6e"/>
    </g>
   </g>
  </g>
 </g>
 <defs>
  <clipPath id="pddfab9e9d2">
   <rect height="317.968" width="926.845" x="58.418125" y="35.2559"/>
  </clipPath>
 </defs>
</svg>
