<?xml version="1.0" encoding="utf-8" standalone="no"?>
<!DOCTYPE svg PUBLIC "-//W3C//DTD SVG 1.1//EN"
  "http://www.w3.org/Graphics/SVG/1.1/DTD/svg11.dtd">
<svg height="388.844525pt" version="1.1" viewBox="0 0 1000.318125 388.844525" width="1000.318125pt" xmlns="http://www.w3.org/2000/svg" xmlns:xlink="http://www.w3.org/1999/xlink">
 <metadata>
  <rdf:RDF xmlns:cc="http://creativecommons.org/ns#" xmlns:dc="http://purl.org/dc/elements/1.1/" xmlns:rdf="http://www.w3.org/1999/02/22-rdf-syntax-ns#">
   <cc:Work>
    <dc:type rdf:resource="http://purl.org/dc/dcmitype/StillImage"/>
    <dc:date>2022-11-03T13:38:41.586159</dc:date>
    <dc:format>image/svg+xml</dc:format>
    <dc:creator>
     <cc:Agent>
      <dc:title>Matplotlib v3.4.2, https://matplotlib.org/</dc:title>
     </cc:Agent>
    </dc:creator>
   </cc:Work>
  </rdf:RDF>
 </metadata>
 <defs>
  <style type="text/css">*{stroke-linecap:butt;stroke-linejoin:round;}</style>
 </defs>
 <g id="figure_1">
  <g id="axes_1">
   <g id="patch_1">
    <path d="M 38.058125 353.2239 
L 993.118125 353.2239 
L 993.118125 35.2559 
L 38.058125 35.2559 
z
" style="fill:#ffffff;"/>
   </g>
   <g id="patch_2">
    <path clip-path="url(#p62ff19ac63)" d="M 38.058125 108.541827 
L 958.476371 108.541827 
L 958.476371 -520.640647 
L 38.058125 -520.640647 
z
" style="fill:#c3e6c3;"/>
   </g>
   <g id="patch_3">
    <path clip-path="url(#p62ff19ac63)" d="M 38.058125 178.450991 
L 958.476371 178.450991 
L 958.476371 108.541827 
L 38.058125 108.541827 
z
" style="fill:#e6dcc3;"/>
   </g>
   <g id="patch_4">
    <path clip-path="url(#p62ff19ac63)" d="M 38.058125 353.2239 
L 958.476371 353.2239 
L 958.476371 178.450991 
L 38.058125 178.450991 
z
" style="fill:#e6c3c3;"/>
   </g>
   <g id="matplotlib.axis_1">
    <g id="xtick_1">
     <g id="text_1">
      <!-- 0 -->
      <g transform="translate(70.154879 366.30265)scale(0.08 -0.08)">
       <defs>
        <path d="M 2034 4250 
Q 1547 4250 1301 3770 
Q 1056 3291 1056 2328 
Q 1056 1369 1301 889 
Q 1547 409 2034 409 
Q 2525 409 2770 889 
Q 3016 1369 3016 2328 
Q 3016 3291 2770 3770 
Q 2525 4250 2034 4250 
z
M 2034 4750 
Q 2819 4750 3233 4129 
Q 3647 3509 3647 2328 
Q 3647 1150 3233 529 
Q 2819 -91 2034 -91 
Q 1250 -91 836 529 
Q 422 1150 422 2328 
Q 422 3509 836 4129 
Q 1250 4750 2034 4750 
z
" id="DejaVuSans-30" transform="scale(0.015625)"/>
       </defs>
       <use xlink:href="#DejaVuSans-30"/>
      </g>
     </g>
    </g>
    <g id="xtick_2">
     <g id="text_2">
      <!-- 20 -->
      <g transform="translate(243.011164 366.30265)scale(0.08 -0.08)">
       <defs>
        <path d="M 1228 531 
L 3431 531 
L 3431 0 
L 469 0 
L 469 531 
Q 828 903 1448 1529 
Q 2069 2156 2228 2338 
Q 2531 2678 2651 2914 
Q 2772 3150 2772 3378 
Q 2772 3750 2511 3984 
Q 2250 4219 1831 4219 
Q 1534 4219 1204 4116 
Q 875 4013 500 3803 
L 500 4441 
Q 881 4594 1212 4672 
Q 1544 4750 1819 4750 
Q 2544 4750 2975 4387 
Q 3406 4025 3406 3419 
Q 3406 3131 3298 2873 
Q 3191 2616 2906 2266 
Q 2828 2175 2409 1742 
Q 1991 1309 1228 531 
z
" id="DejaVuSans-32" transform="scale(0.015625)"/>
       </defs>
       <use xlink:href="#DejaVuSans-32"/>
       <use x="63.623047" xlink:href="#DejaVuSans-30"/>
      </g>
     </g>
    </g>
    <g id="xtick_3">
     <g id="text_3">
      <!-- 40 -->
      <g transform="translate(418.41245 366.30265)scale(0.08 -0.08)">
       <defs>
        <path d="M 2419 4116 
L 825 1625 
L 2419 1625 
L 2419 4116 
z
M 2253 4666 
L 3047 4666 
L 3047 1625 
L 3713 1625 
L 3713 1100 
L 3047 1100 
L 3047 0 
L 2419 0 
L 2419 1100 
L 313 1100 
L 313 1709 
L 2253 4666 
z
" id="DejaVuSans-34" transform="scale(0.015625)"/>
       </defs>
       <use xlink:href="#DejaVuSans-34"/>
       <use x="63.623047" xlink:href="#DejaVuSans-30"/>
      </g>
     </g>
    </g>
    <g id="xtick_4">
     <g id="text_4">
      <!-- 60 -->
      <g transform="translate(593.813736 366.30265)scale(0.08 -0.08)">
       <defs>
        <path d="M 2113 2584 
Q 1688 2584 1439 2293 
Q 1191 2003 1191 1497 
Q 1191 994 1439 701 
Q 1688 409 2113 409 
Q 2538 409 2786 701 
Q 3034 994 3034 1497 
Q 3034 2003 2786 2293 
Q 2538 2584 2113 2584 
z
M 3366 4563 
L 3366 3988 
Q 3128 4100 2886 4159 
Q 2644 4219 2406 4219 
Q 1781 4219 1451 3797 
Q 1122 3375 1075 2522 
Q 1259 2794 1537 2939 
Q 1816 3084 2150 3084 
Q 2853 3084 3261 2657 
Q 3669 2231 3669 1497 
Q 3669 778 3244 343 
Q 2819 -91 2113 -91 
Q 1303 -91 875 529 
Q 447 1150 447 2328 
Q 447 3434 972 4092 
Q 1497 4750 2381 4750 
Q 2619 4750 2861 4703 
Q 3103 4656 3366 4563 
z
" id="DejaVuSans-36" transform="scale(0.015625)"/>
       </defs>
       <use xlink:href="#DejaVuSans-36"/>
       <use x="63.623047" xlink:href="#DejaVuSans-30"/>
      </g>
     </g>
    </g>
    <g id="xtick_5">
     <g id="text_5">
      <!-- 80 -->
      <g transform="translate(769.215021 366.30265)scale(0.08 -0.08)">
       <defs>
        <path d="M 2034 2216 
Q 1584 2216 1326 1975 
Q 1069 1734 1069 1313 
Q 1069 891 1326 650 
Q 1584 409 2034 409 
Q 2484 409 2743 651 
Q 3003 894 3003 1313 
Q 3003 1734 2745 1975 
Q 2488 2216 2034 2216 
z
M 1403 2484 
Q 997 2584 770 2862 
Q 544 3141 544 3541 
Q 544 4100 942 4425 
Q 1341 4750 2034 4750 
Q 2731 4750 3128 4425 
Q 3525 4100 3525 3541 
Q 3525 3141 3298 2862 
Q 3072 2584 2669 2484 
Q 3125 2378 3379 2068 
Q 3634 1759 3634 1313 
Q 3634 634 3220 271 
Q 2806 -91 2034 -91 
Q 1263 -91 848 271 
Q 434 634 434 1313 
Q 434 1759 690 2068 
Q 947 2378 1403 2484 
z
M 1172 3481 
Q 1172 3119 1398 2916 
Q 1625 2713 2034 2713 
Q 2441 2713 2670 2916 
Q 2900 3119 2900 3481 
Q 2900 3844 2670 4047 
Q 2441 4250 2034 4250 
Q 1625 4250 1398 4047 
Q 1172 3844 1172 3481 
z
" id="DejaVuSans-38" transform="scale(0.015625)"/>
       </defs>
       <use xlink:href="#DejaVuSans-38"/>
       <use x="63.623047" xlink:href="#DejaVuSans-30"/>
      </g>
     </g>
    </g>
    <g id="xtick_6">
     <g id="text_6">
      <!-- 100 -->
      <g transform="translate(942.071307 366.30265)scale(0.08 -0.08)">
       <defs>
        <path d="M 794 531 
L 1825 531 
L 1825 4091 
L 703 3866 
L 703 4441 
L 1819 4666 
L 2450 4666 
L 2450 531 
L 3481 531 
L 3481 0 
L 794 0 
L 794 531 
z
" id="DejaVuSans-31" transform="scale(0.015625)"/>
       </defs>
       <use xlink:href="#DejaVuSans-31"/>
       <use x="63.623047" xlink:href="#DejaVuSans-30"/>
       <use x="127.246094" xlink:href="#DejaVuSans-30"/>
      </g>
     </g>
    </g>
    <g id="text_7">
     <!-- Position (bp) -->
     <g transform="translate(484.285 379.564837)scale(0.1 -0.1)">
      <defs>
       <path d="M 1259 4147 
L 1259 2394 
L 2053 2394 
Q 2494 2394 2734 2622 
Q 2975 2850 2975 3272 
Q 2975 3691 2734 3919 
Q 2494 4147 2053 4147 
L 1259 4147 
z
M 628 4666 
L 2053 4666 
Q 2838 4666 3239 4311 
Q 3641 3956 3641 3272 
Q 3641 2581 3239 2228 
Q 2838 1875 2053 1875 
L 1259 1875 
L 1259 0 
L 628 0 
L 628 4666 
z
" id="DejaVuSans-50" transform="scale(0.015625)"/>
       <path d="M 1959 3097 
Q 1497 3097 1228 2736 
Q 959 2375 959 1747 
Q 959 1119 1226 758 
Q 1494 397 1959 397 
Q 2419 397 2687 759 
Q 2956 1122 2956 1747 
Q 2956 2369 2687 2733 
Q 2419 3097 1959 3097 
z
M 1959 3584 
Q 2709 3584 3137 3096 
Q 3566 2609 3566 1747 
Q 3566 888 3137 398 
Q 2709 -91 1959 -91 
Q 1206 -91 779 398 
Q 353 888 353 1747 
Q 353 2609 779 3096 
Q 1206 3584 1959 3584 
z
" id="DejaVuSans-6f" transform="scale(0.015625)"/>
       <path d="M 2834 3397 
L 2834 2853 
Q 2591 2978 2328 3040 
Q 2066 3103 1784 3103 
Q 1356 3103 1142 2972 
Q 928 2841 928 2578 
Q 928 2378 1081 2264 
Q 1234 2150 1697 2047 
L 1894 2003 
Q 2506 1872 2764 1633 
Q 3022 1394 3022 966 
Q 3022 478 2636 193 
Q 2250 -91 1575 -91 
Q 1294 -91 989 -36 
Q 684 19 347 128 
L 347 722 
Q 666 556 975 473 
Q 1284 391 1588 391 
Q 1994 391 2212 530 
Q 2431 669 2431 922 
Q 2431 1156 2273 1281 
Q 2116 1406 1581 1522 
L 1381 1569 
Q 847 1681 609 1914 
Q 372 2147 372 2553 
Q 372 3047 722 3315 
Q 1072 3584 1716 3584 
Q 2034 3584 2315 3537 
Q 2597 3491 2834 3397 
z
" id="DejaVuSans-73" transform="scale(0.015625)"/>
       <path d="M 603 3500 
L 1178 3500 
L 1178 0 
L 603 0 
L 603 3500 
z
M 603 4863 
L 1178 4863 
L 1178 4134 
L 603 4134 
L 603 4863 
z
" id="DejaVuSans-69" transform="scale(0.015625)"/>
       <path d="M 1172 4494 
L 1172 3500 
L 2356 3500 
L 2356 3053 
L 1172 3053 
L 1172 1153 
Q 1172 725 1289 603 
Q 1406 481 1766 481 
L 2356 481 
L 2356 0 
L 1766 0 
Q 1100 0 847 248 
Q 594 497 594 1153 
L 594 3053 
L 172 3053 
L 172 3500 
L 594 3500 
L 594 4494 
L 1172 4494 
z
" id="DejaVuSans-74" transform="scale(0.015625)"/>
       <path d="M 3513 2113 
L 3513 0 
L 2938 0 
L 2938 2094 
Q 2938 2591 2744 2837 
Q 2550 3084 2163 3084 
Q 1697 3084 1428 2787 
Q 1159 2491 1159 1978 
L 1159 0 
L 581 0 
L 581 3500 
L 1159 3500 
L 1159 2956 
Q 1366 3272 1645 3428 
Q 1925 3584 2291 3584 
Q 2894 3584 3203 3211 
Q 3513 2838 3513 2113 
z
" id="DejaVuSans-6e" transform="scale(0.015625)"/>
       <path id="DejaVuSans-20" transform="scale(0.015625)"/>
       <path d="M 1984 4856 
Q 1566 4138 1362 3434 
Q 1159 2731 1159 2009 
Q 1159 1288 1364 580 
Q 1569 -128 1984 -844 
L 1484 -844 
Q 1016 -109 783 600 
Q 550 1309 550 2009 
Q 550 2706 781 3412 
Q 1013 4119 1484 4856 
L 1984 4856 
z
" id="DejaVuSans-28" transform="scale(0.015625)"/>
       <path d="M 3116 1747 
Q 3116 2381 2855 2742 
Q 2594 3103 2138 3103 
Q 1681 3103 1420 2742 
Q 1159 2381 1159 1747 
Q 1159 1113 1420 752 
Q 1681 391 2138 391 
Q 2594 391 2855 752 
Q 3116 1113 3116 1747 
z
M 1159 2969 
Q 1341 3281 1617 3432 
Q 1894 3584 2278 3584 
Q 2916 3584 3314 3078 
Q 3713 2572 3713 1747 
Q 3713 922 3314 415 
Q 2916 -91 2278 -91 
Q 1894 -91 1617 61 
Q 1341 213 1159 525 
L 1159 0 
L 581 0 
L 581 4863 
L 1159 4863 
L 1159 2969 
z
" id="DejaVuSans-62" transform="scale(0.015625)"/>
       <path d="M 1159 525 
L 1159 -1331 
L 581 -1331 
L 581 3500 
L 1159 3500 
L 1159 2969 
Q 1341 3281 1617 3432 
Q 1894 3584 2278 3584 
Q 2916 3584 3314 3078 
Q 3713 2572 3713 1747 
Q 3713 922 3314 415 
Q 2916 -91 2278 -91 
Q 1894 -91 1617 61 
Q 1341 213 1159 525 
z
M 3116 1747 
Q 3116 2381 2855 2742 
Q 2594 3103 2138 3103 
Q 1681 3103 1420 2742 
Q 1159 2381 1159 1747 
Q 1159 1113 1420 752 
Q 1681 391 2138 391 
Q 2594 391 2855 752 
Q 3116 1113 3116 1747 
z
" id="DejaVuSans-70" transform="scale(0.015625)"/>
       <path d="M 513 4856 
L 1013 4856 
Q 1481 4119 1714 3412 
Q 1947 2706 1947 2009 
Q 1947 1309 1714 600 
Q 1481 -109 1013 -844 
L 513 -844 
Q 928 -128 1133 580 
Q 1338 1288 1338 2009 
Q 1338 2731 1133 3434 
Q 928 4138 513 4856 
z
" id="DejaVuSans-29" transform="scale(0.015625)"/>
      </defs>
      <use xlink:href="#DejaVuSans-50"/>
      <use x="56.677734" xlink:href="#DejaVuSans-6f"/>
      <use x="117.859375" xlink:href="#DejaVuSans-73"/>
      <use x="169.958984" xlink:href="#DejaVuSans-69"/>
      <use x="197.742188" xlink:href="#DejaVuSans-74"/>
      <use x="236.951172" xlink:href="#DejaVuSans-69"/>
      <use x="264.734375" xlink:href="#DejaVuSans-6f"/>
      <use x="325.916016" xlink:href="#DejaVuSans-6e"/>
      <use x="389.294922" xlink:href="#DejaVuSans-20"/>
      <use x="421.082031" xlink:href="#DejaVuSans-28"/>
      <use x="460.095703" xlink:href="#DejaVuSans-62"/>
      <use x="523.572266" xlink:href="#DejaVuSans-70"/>
      <use x="587.048828" xlink:href="#DejaVuSans-29"/>
     </g>
    </g>
   </g>
   <g id="matplotlib.axis_2">
    <g id="ytick_1">
     <g id="line2d_1">
      <path clip-path="url(#p62ff19ac63)" d="M 38.058125 353.2239 
L 993.118125 353.2239 
" style="fill:none;stroke:#dedede;stroke-linecap:square;"/>
     </g>
     <g id="text_8">
      <!-- 0 -->
      <g transform="translate(25.968125 356.263275)scale(0.08 -0.08)">
       <use xlink:href="#DejaVuSans-30"/>
      </g>
     </g>
    </g>
    <g id="ytick_2">
     <g id="line2d_2">
      <path clip-path="url(#p62ff19ac63)" d="M 38.058125 309.530673 
L 993.118125 309.530673 
" style="fill:none;stroke:#dedede;stroke-linecap:square;"/>
     </g>
     <g id="text_9">
      <!-- 5 -->
      <g transform="translate(25.968125 312.570048)scale(0.08 -0.08)">
       <defs>
        <path d="M 691 4666 
L 3169 4666 
L 3169 4134 
L 1269 4134 
L 1269 2991 
Q 1406 3038 1543 3061 
Q 1681 3084 1819 3084 
Q 2600 3084 3056 2656 
Q 3513 2228 3513 1497 
Q 3513 744 3044 326 
Q 2575 -91 1722 -91 
Q 1428 -91 1123 -41 
Q 819 9 494 109 
L 494 744 
Q 775 591 1075 516 
Q 1375 441 1709 441 
Q 2250 441 2565 725 
Q 2881 1009 2881 1497 
Q 2881 1984 2565 2268 
Q 2250 2553 1709 2553 
Q 1456 2553 1204 2497 
Q 953 2441 691 2322 
L 691 4666 
z
" id="DejaVuSans-35" transform="scale(0.015625)"/>
       </defs>
       <use xlink:href="#DejaVuSans-35"/>
      </g>
     </g>
    </g>
    <g id="ytick_3">
     <g id="line2d_3">
      <path clip-path="url(#p62ff19ac63)" d="M 38.058125 265.837445 
L 993.118125 265.837445 
" style="fill:none;stroke:#dedede;stroke-linecap:square;"/>
     </g>
     <g id="text_10">
      <!-- 10 -->
      <g transform="translate(20.878125 268.87682)scale(0.08 -0.08)">
       <use xlink:href="#DejaVuSans-31"/>
       <use x="63.623047" xlink:href="#DejaVuSans-30"/>
      </g>
     </g>
    </g>
    <g id="ytick_4">
     <g id="line2d_4">
      <path clip-path="url(#p62ff19ac63)" d="M 38.058125 222.144218 
L 993.118125 222.144218 
" style="fill:none;stroke:#dedede;stroke-linecap:square;"/>
     </g>
     <g id="text_11">
      <!-- 15 -->
      <g transform="translate(20.878125 225.183593)scale(0.08 -0.08)">
       <use xlink:href="#DejaVuSans-31"/>
       <use x="63.623047" xlink:href="#DejaVuSans-35"/>
      </g>
     </g>
    </g>
    <g id="ytick_5">
     <g id="line2d_5">
      <path clip-path="url(#p62ff19ac63)" d="M 38.058125 178.450991 
L 993.118125 178.450991 
" style="fill:none;stroke:#dedede;stroke-linecap:square;"/>
     </g>
     <g id="text_12">
      <!-- 20 -->
      <g transform="translate(20.878125 181.490366)scale(0.08 -0.08)">
       <use xlink:href="#DejaVuSans-32"/>
       <use x="63.623047" xlink:href="#DejaVuSans-30"/>
      </g>
     </g>
    </g>
    <g id="ytick_6">
     <g id="line2d_6">
      <path clip-path="url(#p62ff19ac63)" d="M 38.058125 134.757763 
L 993.118125 134.757763 
" style="fill:none;stroke:#dedede;stroke-linecap:square;"/>
     </g>
     <g id="text_13">
      <!-- 25 -->
      <g transform="translate(20.878125 137.797138)scale(0.08 -0.08)">
       <use xlink:href="#DejaVuSans-32"/>
       <use x="63.623047" xlink:href="#DejaVuSans-35"/>
      </g>
     </g>
    </g>
    <g id="ytick_7">
     <g id="line2d_7">
      <path clip-path="url(#p62ff19ac63)" d="M 38.058125 91.064536 
L 993.118125 91.064536 
" style="fill:none;stroke:#dedede;stroke-linecap:square;"/>
     </g>
     <g id="text_14">
      <!-- 30 -->
      <g transform="translate(20.878125 94.103911)scale(0.08 -0.08)">
       <defs>
        <path d="M 2597 2516 
Q 3050 2419 3304 2112 
Q 3559 1806 3559 1356 
Q 3559 666 3084 287 
Q 2609 -91 1734 -91 
Q 1441 -91 1130 -33 
Q 819 25 488 141 
L 488 750 
Q 750 597 1062 519 
Q 1375 441 1716 441 
Q 2309 441 2620 675 
Q 2931 909 2931 1356 
Q 2931 1769 2642 2001 
Q 2353 2234 1838 2234 
L 1294 2234 
L 1294 2753 
L 1863 2753 
Q 2328 2753 2575 2939 
Q 2822 3125 2822 3475 
Q 2822 3834 2567 4026 
Q 2313 4219 1838 4219 
Q 1578 4219 1281 4162 
Q 984 4106 628 3988 
L 628 4550 
Q 988 4650 1302 4700 
Q 1616 4750 1894 4750 
Q 2613 4750 3031 4423 
Q 3450 4097 3450 3541 
Q 3450 3153 3228 2886 
Q 3006 2619 2597 2516 
z
" id="DejaVuSans-33" transform="scale(0.015625)"/>
       </defs>
       <use xlink:href="#DejaVuSans-33"/>
       <use x="63.623047" xlink:href="#DejaVuSans-30"/>
      </g>
     </g>
    </g>
    <g id="ytick_8">
     <g id="line2d_8">
      <path clip-path="url(#p62ff19ac63)" d="M 38.058125 47.371309 
L 993.118125 47.371309 
" style="fill:none;stroke:#dedede;stroke-linecap:square;"/>
     </g>
     <g id="text_15">
      <!-- 35 -->
      <g transform="translate(20.878125 50.410684)scale(0.08 -0.08)">
       <use xlink:href="#DejaVuSans-33"/>
       <use x="63.623047" xlink:href="#DejaVuSans-35"/>
      </g>
     </g>
    </g>
    <g id="text_16">
     <!-- Phred Score -->
     <g transform="translate(14.798438 224.20865)rotate(-90)scale(0.1 -0.1)">
      <defs>
       <path d="M 3513 2113 
L 3513 0 
L 2938 0 
L 2938 2094 
Q 2938 2591 2744 2837 
Q 2550 3084 2163 3084 
Q 1697 3084 1428 2787 
Q 1159 2491 1159 1978 
L 1159 0 
L 581 0 
L 581 4863 
L 1159 4863 
L 1159 2956 
Q 1366 3272 1645 3428 
Q 1925 3584 2291 3584 
Q 2894 3584 3203 3211 
Q 3513 2838 3513 2113 
z
" id="DejaVuSans-68" transform="scale(0.015625)"/>
       <path d="M 2631 2963 
Q 2534 3019 2420 3045 
Q 2306 3072 2169 3072 
Q 1681 3072 1420 2755 
Q 1159 2438 1159 1844 
L 1159 0 
L 581 0 
L 581 3500 
L 1159 3500 
L 1159 2956 
Q 1341 3275 1631 3429 
Q 1922 3584 2338 3584 
Q 2397 3584 2469 3576 
Q 2541 3569 2628 3553 
L 2631 2963 
z
" id="DejaVuSans-72" transform="scale(0.015625)"/>
       <path d="M 3597 1894 
L 3597 1613 
L 953 1613 
Q 991 1019 1311 708 
Q 1631 397 2203 397 
Q 2534 397 2845 478 
Q 3156 559 3463 722 
L 3463 178 
Q 3153 47 2828 -22 
Q 2503 -91 2169 -91 
Q 1331 -91 842 396 
Q 353 884 353 1716 
Q 353 2575 817 3079 
Q 1281 3584 2069 3584 
Q 2775 3584 3186 3129 
Q 3597 2675 3597 1894 
z
M 3022 2063 
Q 3016 2534 2758 2815 
Q 2500 3097 2075 3097 
Q 1594 3097 1305 2825 
Q 1016 2553 972 2059 
L 3022 2063 
z
" id="DejaVuSans-65" transform="scale(0.015625)"/>
       <path d="M 2906 2969 
L 2906 4863 
L 3481 4863 
L 3481 0 
L 2906 0 
L 2906 525 
Q 2725 213 2448 61 
Q 2172 -91 1784 -91 
Q 1150 -91 751 415 
Q 353 922 353 1747 
Q 353 2572 751 3078 
Q 1150 3584 1784 3584 
Q 2172 3584 2448 3432 
Q 2725 3281 2906 2969 
z
M 947 1747 
Q 947 1113 1208 752 
Q 1469 391 1925 391 
Q 2381 391 2643 752 
Q 2906 1113 2906 1747 
Q 2906 2381 2643 2742 
Q 2381 3103 1925 3103 
Q 1469 3103 1208 2742 
Q 947 2381 947 1747 
z
" id="DejaVuSans-64" transform="scale(0.015625)"/>
       <path d="M 3425 4513 
L 3425 3897 
Q 3066 4069 2747 4153 
Q 2428 4238 2131 4238 
Q 1616 4238 1336 4038 
Q 1056 3838 1056 3469 
Q 1056 3159 1242 3001 
Q 1428 2844 1947 2747 
L 2328 2669 
Q 3034 2534 3370 2195 
Q 3706 1856 3706 1288 
Q 3706 609 3251 259 
Q 2797 -91 1919 -91 
Q 1588 -91 1214 -16 
Q 841 59 441 206 
L 441 856 
Q 825 641 1194 531 
Q 1563 422 1919 422 
Q 2459 422 2753 634 
Q 3047 847 3047 1241 
Q 3047 1584 2836 1778 
Q 2625 1972 2144 2069 
L 1759 2144 
Q 1053 2284 737 2584 
Q 422 2884 422 3419 
Q 422 4038 858 4394 
Q 1294 4750 2059 4750 
Q 2388 4750 2728 4690 
Q 3069 4631 3425 4513 
z
" id="DejaVuSans-53" transform="scale(0.015625)"/>
       <path d="M 3122 3366 
L 3122 2828 
Q 2878 2963 2633 3030 
Q 2388 3097 2138 3097 
Q 1578 3097 1268 2742 
Q 959 2388 959 1747 
Q 959 1106 1268 751 
Q 1578 397 2138 397 
Q 2388 397 2633 464 
Q 2878 531 3122 666 
L 3122 134 
Q 2881 22 2623 -34 
Q 2366 -91 2075 -91 
Q 1284 -91 818 406 
Q 353 903 353 1747 
Q 353 2603 823 3093 
Q 1294 3584 2113 3584 
Q 2378 3584 2631 3529 
Q 2884 3475 3122 3366 
z
" id="DejaVuSans-63" transform="scale(0.015625)"/>
      </defs>
      <use xlink:href="#DejaVuSans-50"/>
      <use x="60.302734" xlink:href="#DejaVuSans-68"/>
      <use x="123.681641" xlink:href="#DejaVuSans-72"/>
      <use x="162.544922" xlink:href="#DejaVuSans-65"/>
      <use x="224.068359" xlink:href="#DejaVuSans-64"/>
      <use x="287.544922" xlink:href="#DejaVuSans-20"/>
      <use x="319.332031" xlink:href="#DejaVuSans-53"/>
      <use x="382.808594" xlink:href="#DejaVuSans-63"/>
      <use x="437.789062" xlink:href="#DejaVuSans-6f"/>
      <use x="498.970703" xlink:href="#DejaVuSans-72"/>
      <use x="537.833984" xlink:href="#DejaVuSans-65"/>
     </g>
    </g>
   </g>
   <g id="line2d_9">
    <path clip-path="url(#p62ff19ac63)" d="M 81.469943 39.221823 
L 90.240007 39.262433 
L 99.010072 36.814899 
L 107.780136 36.154541 
L 116.5502 35.90413 
L 125.320265 36.044894 
L 134.090329 36.934845 
L 142.860393 36.36273 
L 151.630457 36.591379 
L 160.400522 35.858432 
L 177.94065 36.157787 
L 195.480779 36.337447 
L 213.020907 36.375097 
L 230.561036 36.393206 
L 248.101164 36.467711 
L 265.641293 36.738574 
L 283.181422 36.919553 
L 300.72155 37.332842 
L 318.261679 37.568153 
L 335.801807 37.712134 
L 353.341936 37.808932 
L 370.882064 37.915591 
L 388.422193 38.109938 
L 405.962322 38.111789 
L 423.50245 38.35169 
L 441.042579 38.492507 
L 458.582707 38.543845 
L 476.122836 38.620569 
L 493.662964 38.882487 
L 511.203093 38.849204 
L 528.743221 38.974885 
L 546.28335 39.067906 
L 563.823479 39.353347 
L 581.363607 39.3051 
L 598.903736 39.736133 
L 616.443864 39.627634 
L 633.983993 39.620293 
L 651.524121 39.548957 
L 669.06425 39.650591 
L 686.604378 39.710706 
L 704.144507 40.117489 
L 721.684636 40.00493 
L 739.224764 40.300608 
L 756.764893 40.144987 
L 774.305021 40.323019 
L 791.84515 40.353261 
L 809.385278 40.387881 
L 826.925407 40.684098 
L 844.465535 40.812525 
L 862.005664 40.73437 
L 879.545793 40.881466 
L 897.085921 40.989586 
L 914.62605 40.943069 
L 932.166178 39.766088 
L 949.706307 35.913315 
" style="fill:none;stroke:#5cb85c;stroke-linecap:square;"/>
   </g>
   <g id="line2d_10">
    <path clip-path="url(#p62ff19ac63)" d="M 81.469943 39.57154 
L 90.240007 39.563699 
L 99.010072 37.003037 
L 107.780136 36.308571 
L 116.5502 36.0686 
L 125.320265 36.201866 
L 134.090329 37.087708 
L 142.860393 36.46736 
L 151.630457 36.716534 
L 160.400522 35.964762 
L 177.94065 36.284552 
L 195.480779 36.429258 
L 213.020907 36.492065 
L 230.561036 36.533326 
L 248.101164 36.619119 
L 265.641293 36.895397 
L 283.181422 37.092129 
L 300.72155 37.497253 
L 318.261679 37.762555 
L 335.801807 37.918319 
L 353.341936 38.037093 
L 370.882064 38.150529 
L 388.422193 38.321714 
L 405.962322 38.323423 
L 423.50245 38.549195 
L 441.042579 38.723367 
L 458.582707 38.833551 
L 476.122836 38.943984 
L 493.662964 39.293554 
L 511.203093 39.229881 
L 528.743221 39.325508 
L 546.28335 39.425619 
L 563.823479 39.749657 
L 581.363607 39.675734 
L 598.903736 39.998603 
L 616.443864 39.867049 
L 633.983993 40.026226 
L 651.524121 39.976996 
L 669.06425 40.107486 
L 686.604378 40.156453 
L 704.144507 40.5398 
L 721.684636 40.466627 
L 739.224764 40.723306 
L 756.764893 40.576627 
L 774.305021 40.779736 
L 791.84515 40.827522 
L 809.385278 40.867215 
L 826.925407 41.197376 
L 844.465535 41.32916 
L 862.005664 41.217962 
L 879.545793 41.343096 
L 897.085921 41.445412 
L 914.62605 41.410457 
L 932.166178 40.169862 
L 949.706307 36.139418 
" style="fill:none;stroke:#5cb85c;stroke-linecap:square;"/>
   </g>
   <g id="line2d_11">
    <path clip-path="url(#p62ff19ac63)" d="M 81.469943 39.771601 
L 90.240007 39.733709 
L 99.010072 37.202533 
L 107.780136 36.491226 
L 116.5502 36.279582 
L 125.320265 36.398897 
L 134.090329 37.318418 
L 142.860393 36.704054 
L 151.630457 36.978871 
L 160.400522 36.173799 
L 177.94065 36.482824 
L 195.480779 36.630125 
L 213.020907 36.689579 
L 230.561036 36.723993 
L 248.101164 36.808722 
L 265.641293 37.055484 
L 283.181422 37.270634 
L 300.72155 37.711666 
L 318.261679 37.964523 
L 335.801807 38.10203 
L 353.341936 38.206045 
L 370.882064 38.346716 
L 388.422193 38.54353 
L 405.962322 38.54573 
L 423.50245 38.791449 
L 441.042579 38.933637 
L 458.582707 39.038919 
L 476.122836 39.120708 
L 493.662964 39.440742 
L 511.203093 39.413456 
L 528.743221 39.489486 
L 546.28335 39.558872 
L 563.823479 39.809683 
L 581.363607 39.732675 
L 598.903736 40.01033 
L 616.443864 39.943117 
L 633.983993 40.130144 
L 651.524121 40.108324 
L 669.06425 40.24244 
L 686.604378 40.299954 
L 704.144507 40.653448 
L 721.684636 40.516369 
L 739.224764 40.84533 
L 756.764893 40.765051 
L 774.305021 40.96477 
L 791.84515 41.016709 
L 809.385278 41.012404 
L 826.925407 41.311945 
L 844.465535 41.429985 
L 862.005664 41.361688 
L 879.545793 41.468175 
L 897.085921 41.549442 
L 914.62605 41.516673 
L 932.166178 40.29941 
L 949.706307 36.13314 
" style="fill:none;stroke:#5cb85c;stroke-linecap:square;"/>
   </g>
   <g id="line2d_12">
    <path clip-path="url(#p62ff19ac63)" d="M 81.469943 40.215289 
L 90.240007 39.93311 
L 99.010072 37.268055 
L 107.780136 36.504317 
L 116.5502 36.286075 
L 125.320265 36.411078 
L 134.090329 37.374223 
L 142.860393 36.745926 
L 151.630457 37.014665 
L 160.400522 36.245574 
L 177.94065 36.515892 
L 195.480779 36.64239 
L 213.020907 36.699142 
L 230.561036 36.749098 
L 248.101164 36.840425 
L 265.641293 37.116296 
L 283.181422 37.313366 
L 300.72155 37.771962 
L 318.261679 38.004396 
L 335.801807 38.170859 
L 353.341936 38.31193 
L 370.882064 38.456071 
L 388.422193 38.656017 
L 405.962322 38.663686 
L 423.50245 38.872665 
L 441.042579 39.049659 
L 458.582707 39.14287 
L 476.122836 39.299415 
L 493.662964 39.665945 
L 511.203093 39.56844 
L 528.743221 39.60101 
L 546.28335 39.692503 
L 563.823479 40.044588 
L 581.363607 39.97412 
L 598.903736 40.254961 
L 616.443864 40.052302 
L 633.983993 40.264605 
L 651.524121 40.220927 
L 669.06425 40.427306 
L 686.604378 40.524948 
L 704.144507 40.871275 
L 721.684636 40.724074 
L 739.224764 41.006801 
L 756.764893 40.932469 
L 774.305021 41.154348 
L 791.84515 41.18034 
L 809.385278 41.11913 
L 826.925407 41.430148 
L 844.465535 41.62085 
L 862.005664 41.537791 
L 879.545793 41.644089 
L 897.085921 41.658449 
L 914.62605 41.583904 
L 932.166178 40.334685 
L 949.706307 36.172009 
" style="fill:none;stroke:#5cb85c;stroke-linecap:square;"/>
   </g>
   <g id="line2d_13">
    <path clip-path="url(#p62ff19ac63)" d="M 81.469943 39.10484 
L 90.240007 39.085075 
L 99.010072 36.709968 
L 107.780136 36.03168 
L 116.5502 35.81299 
L 125.320265 35.957121 
L 134.090329 36.880458 
L 142.860393 36.28962 
L 151.630457 36.549637 
L 160.400522 35.785189 
L 177.94065 36.092474 
L 195.480779 36.223778 
L 213.020907 36.290162 
L 230.561036 36.320843 
L 248.101164 36.408672 
L 265.641293 36.656942 
L 283.181422 36.845685 
L 300.72155 37.239337 
L 318.261679 37.485531 
L 335.801807 37.600977 
L 353.341936 37.681696 
L 370.882064 37.809232 
L 388.422193 38.000991 
L 405.962322 38.009396 
L 423.50245 38.195386 
L 441.042579 38.327055 
L 458.582707 38.412866 
L 476.122836 38.503415 
L 493.662964 38.783739 
L 511.203093 38.71595 
L 528.743221 38.764689 
L 546.28335 38.845195 
L 563.823479 39.127947 
L 581.363607 39.077422 
L 598.903736 39.32581 
L 616.443864 39.219973 
L 633.983993 39.368611 
L 651.524121 39.380606 
L 669.06425 39.510288 
L 686.604378 39.571781 
L 704.144507 39.905619 
L 721.684636 39.802646 
L 739.224764 40.116773 
L 756.764893 40.041034 
L 774.305021 40.235192 
L 791.84515 40.262565 
L 809.385278 40.260486 
L 826.925407 40.551906 
L 844.465535 40.719608 
L 862.005664 40.663018 
L 879.545793 40.791428 
L 897.085921 40.843912 
L 914.62605 40.796874 
L 932.166178 39.737016 
L 949.706307 35.911902 
" style="fill:none;stroke:#5cb85c;stroke-linecap:square;"/>
   </g>
   <g id="line2d_14">
    <path clip-path="url(#p62ff19ac63)" d="M 81.469943 39.261976 
L 90.240007 39.288672 
L 99.010072 36.818691 
L 107.780136 36.183113 
L 116.5502 35.972585 
L 125.320265 36.139699 
L 134.090329 37.056924 
L 142.860393 36.43612 
L 151.630457 36.716846 
L 160.400522 35.934019 
L 177.94065 36.255454 
L 195.480779 36.405466 
L 213.020907 36.473987 
L 230.561036 36.513135 
L 248.101164 36.605987 
L 265.641293 36.866779 
L 283.181422 37.052504 
L 300.72155 37.461738 
L 318.261679 37.717931 
L 335.801807 37.873064 
L 353.341936 37.968163 
L 370.882064 38.108208 
L 388.422193 38.328419 
L 405.962322 38.33879 
L 423.50245 38.576644 
L 441.042579 38.745323 
L 458.582707 38.811846 
L 476.122836 38.888955 
L 493.662964 39.190058 
L 511.203093 39.137528 
L 528.743221 39.250381 
L 546.28335 39.339418 
L 563.823479 39.582333 
L 581.363607 39.49662 
L 598.903736 39.777059 
L 616.443864 39.734471 
L 633.983993 39.920089 
L 651.524121 39.917105 
L 669.06425 40.072742 
L 686.604378 40.133401 
L 704.144507 40.455686 
L 721.684636 40.33748 
L 739.224764 40.68242 
L 756.764893 40.599633 
L 774.305021 40.818941 
L 791.84515 40.835742 
L 809.385278 40.867842 
L 826.925407 41.191243 
L 844.465535 41.322494 
L 862.005664 41.26786 
L 879.545793 41.466985 
L 897.085921 41.489271 
L 914.62605 41.462821 
L 932.166178 40.219065 
L 949.706307 36.106261 
" style="fill:none;stroke:#5cb85c;stroke-linecap:square;"/>
   </g>
   <g id="line2d_15">
    <path clip-path="url(#p62ff19ac63)" d="M 81.469943 38.994945 
L 90.240007 38.922935 
L 99.010072 36.579519 
L 107.780136 35.967628 
L 116.5502 35.778678 
L 125.320265 35.910852 
L 134.090329 36.797977 
L 142.860393 36.178272 
L 151.630457 36.416991 
L 160.400522 35.672125 
L 177.94065 36.033147 
L 195.480779 36.192101 
L 213.020907 36.239123 
L 230.561036 36.269352 
L 248.101164 36.33619 
L 265.641293 36.593798 
L 283.181422 36.781298 
L 300.72155 37.152879 
L 318.261679 37.423019 
L 335.801807 37.551025 
L 353.341936 37.648884 
L 370.882064 37.753081 
L 388.422193 37.906838 
L 405.962322 37.903679 
L 423.50245 38.133783 
L 441.042579 38.24551 
L 458.582707 38.33509 
L 476.122836 38.439354 
L 493.662964 38.755835 
L 511.203093 38.752083 
L 528.743221 38.809959 
L 546.28335 38.90464 
L 563.823479 39.154623 
L 581.363607 39.066572 
L 598.903736 39.405553 
L 616.443864 39.269152 
L 633.983993 39.455103 
L 651.524121 39.423757 
L 669.06425 39.510665 
L 686.604378 39.568008 
L 704.144507 39.949053 
L 721.684636 39.869733 
L 739.224764 40.187475 
L 756.764893 40.055711 
L 774.305021 40.232186 
L 791.84515 40.286184 
L 809.385278 40.353092 
L 826.925407 40.679238 
L 844.465535 40.804999 
L 862.005664 40.685235 
L 879.545793 40.823817 
L 897.085921 40.950068 
L 914.62605 40.917672 
L 932.166178 39.806546 
L 949.706307 35.964272 
" style="fill:none;stroke:#5cb85c;stroke-linecap:square;"/>
   </g>
   <g id="line2d_16">
    <path clip-path="url(#p62ff19ac63)" d="M 81.469943 39.512037 
L 90.240007 39.557097 
L 99.010072 37.090289 
L 107.780136 36.414615 
L 116.5502 36.199488 
L 125.320265 36.321639 
L 134.090329 37.210194 
L 142.860393 36.612134 
L 151.630457 36.82558 
L 160.400522 36.086675 
L 177.94065 36.411083 
L 195.480779 36.576151 
L 213.020907 36.642186 
L 230.561036 36.675246 
L 248.101164 36.760852 
L 265.641293 37.031305 
L 283.181422 37.22444 
L 300.72155 37.673254 
L 318.261679 37.926185 
L 335.801807 38.059561 
L 353.341936 38.174069 
L 370.882064 38.298872 
L 388.422193 38.482175 
L 405.962322 38.500091 
L 423.50245 38.726887 
L 441.042579 38.862811 
L 458.582707 38.939696 
L 476.122836 39.025152 
L 493.662964 39.31982 
L 511.203093 39.278979 
L 528.743221 39.370869 
L 546.28335 39.465725 
L 563.823479 39.734768 
L 581.363607 39.671812 
L 598.903736 39.97859 
L 616.443864 39.861957 
L 633.983993 40.019831 
L 651.524121 40.006497 
L 669.06425 40.142682 
L 686.604378 40.199536 
L 704.144507 40.554494 
L 721.684636 40.459963 
L 739.224764 40.792246 
L 756.764893 40.693634 
L 774.305021 40.892918 
L 791.84515 40.918204 
L 809.385278 40.944198 
L 826.925407 41.268146 
L 844.465535 41.402783 
L 862.005664 41.325343 
L 879.545793 41.463421 
L 897.085921 41.539524 
L 914.62605 41.475028 
L 932.166178 40.221742 
L 949.706307 36.125984 
" style="fill:none;stroke:#5cb85c;stroke-linecap:square;"/>
   </g>
   <g id="line2d_17">
    <path clip-path="url(#p62ff19ac63)" d="M 81.469943 39.77246 
L 90.240007 39.74557 
L 99.010072 37.145946 
L 107.780136 36.475065 
L 116.5502 36.246279 
L 125.320265 36.366648 
L 134.090329 37.322785 
L 142.860393 36.636052 
L 151.630457 36.92791 
L 160.400522 36.144764 
L 177.94065 36.46951 
L 195.480779 36.619518 
L 213.020907 36.682642 
L 230.561036 36.718721 
L 248.101164 36.800719 
L 265.641293 37.068695 
L 283.181422 37.25864 
L 300.72155 37.7015 
L 318.261679 37.963366 
L 335.801807 38.09192 
L 353.341936 38.175562 
L 370.882064 38.310991 
L 388.422193 38.499736 
L 405.962322 38.513279 
L 423.50245 38.747316 
L 441.042579 38.858095 
L 458.582707 38.966312 
L 476.122836 39.083782 
L 493.662964 39.384645 
L 511.203093 39.34406 
L 528.743221 39.421982 
L 546.28335 39.495504 
L 563.823479 39.779578 
L 581.363607 39.704171 
L 598.903736 39.995305 
L 616.443864 39.871063 
L 633.983993 40.033601 
L 651.524121 40.025449 
L 669.06425 40.185571 
L 686.604378 40.237168 
L 704.144507 40.586104 
L 721.684636 40.480222 
L 739.224764 40.806581 
L 756.764893 40.725496 
L 774.305021 40.945131 
L 791.84515 40.957796 
L 809.385278 40.950812 
L 826.925407 41.271407 
L 844.465535 41.454512 
L 862.005664 41.365579 
L 879.545793 41.475909 
L 897.085921 41.565949 
L 914.62605 41.510623 
L 932.166178 40.26689 
L 949.706307 36.170694 
" style="fill:none;stroke:#5cb85c;stroke-linecap:square;"/>
   </g>
   <g id="line2d_18">
    <path clip-path="url(#p62ff19ac63)" d="M 81.469943 39.641997 
L 90.240007 39.563009 
L 99.010072 37.034704 
L 107.780136 36.363256 
L 116.5502 36.131921 
L 125.320265 36.266122 
L 134.090329 37.172586 
L 142.860393 36.524204 
L 151.630457 36.793449 
L 160.400522 36.017249 
L 177.94065 36.34985 
L 195.480779 36.517018 
L 213.020907 36.579269 
L 230.561036 36.60032 
L 248.101164 36.677832 
L 265.641293 36.93291 
L 283.181422 37.126053 
L 300.72155 37.559174 
L 318.261679 37.809803 
L 335.801807 37.946482 
L 353.341936 38.025789 
L 370.882064 38.125283 
L 388.422193 38.294287 
L 405.962322 38.305818 
L 423.50245 38.543916 
L 441.042579 38.645187 
L 458.582707 38.718282 
L 476.122836 38.823861 
L 493.662964 39.126424 
L 511.203093 39.10914 
L 528.743221 39.190404 
L 546.28335 39.24557 
L 563.823479 39.535209 
L 581.363607 39.449954 
L 598.903736 39.765049 
L 616.443864 39.626383 
L 633.983993 39.773349 
L 651.524121 39.743069 
L 669.06425 39.855374 
L 686.604378 39.897041 
L 704.144507 40.280987 
L 721.684636 40.179133 
L 739.224764 40.481612 
L 756.764893 40.365985 
L 774.305021 40.552838 
L 791.84515 40.604758 
L 809.385278 40.630989 
L 826.925407 40.937176 
L 844.465535 41.064446 
L 862.005664 40.973061 
L 879.545793 41.114827 
L 897.085921 41.217796 
L 914.62605 41.177871 
L 932.166178 40.022166 
L 949.706307 36.03768 
" style="fill:none;stroke:#5cb85c;stroke-linecap:square;"/>
   </g>
   <g id="line2d_19">
    <path clip-path="url(#p62ff19ac63)" d="M 81.469943 39.500851 
L 90.240007 39.464199 
L 99.010072 37.010361 
L 107.780136 36.337951 
L 116.5502 36.112832 
L 125.320265 36.222863 
L 134.090329 37.120162 
L 142.860393 36.50782 
L 151.630457 36.769027 
L 160.400522 35.999656 
L 177.94065 36.320706 
L 195.480779 36.478975 
L 213.020907 36.535828 
L 230.561036 36.573119 
L 248.101164 36.67396 
L 265.641293 36.94424 
L 283.181422 37.140515 
L 300.72155 37.582534 
L 318.261679 37.835188 
L 335.801807 37.988359 
L 353.341936 38.083317 
L 370.882064 38.219234 
L 388.422193 38.396763 
L 405.962322 38.417887 
L 423.50245 38.656728 
L 441.042579 38.805555 
L 458.582707 38.876464 
L 476.122836 39.002592 
L 493.662964 39.324976 
L 511.203093 39.297316 
L 528.743221 39.379213 
L 546.28335 39.460598 
L 563.823479 39.781199 
L 581.363607 39.689188 
L 598.903736 39.995703 
L 616.443864 39.848618 
L 633.983993 40.042738 
L 651.524121 40.016337 
L 669.06425 40.186522 
L 686.604378 40.249571 
L 704.144507 40.628444 
L 721.684636 40.510767 
L 739.224764 40.799822 
L 756.764893 40.707052 
L 774.305021 40.928444 
L 791.84515 40.955178 
L 809.385278 40.947411 
L 826.925407 41.256936 
L 844.465535 41.415012 
L 862.005664 41.332914 
L 879.545793 41.470178 
L 897.085921 41.550409 
L 914.62605 41.499224 
L 932.166178 40.241537 
L 949.706307 36.124026 
" style="fill:none;stroke:#5cb85c;stroke-linecap:square;"/>
   </g>
   <g id="line2d_20">
    <path clip-path="url(#p62ff19ac63)" d="M 81.469943 39.322518 
L 90.240007 39.28292 
L 99.010072 36.927942 
L 107.780136 36.258301 
L 116.5502 36.049904 
L 125.320265 36.175997 
L 134.090329 37.037708 
L 142.860393 36.445149 
L 151.630457 36.692351 
L 160.400522 35.943355 
L 177.94065 36.303868 
L 195.480779 36.456031 
L 213.020907 36.519581 
L 230.561036 36.564252 
L 248.101164 36.66223 
L 265.641293 36.927623 
L 283.181422 37.141611 
L 300.72155 37.60654 
L 318.261679 37.866733 
L 335.801807 38.028124 
L 353.341936 38.117982 
L 370.882064 38.22029 
L 388.422193 38.399732 
L 405.962322 38.409318 
L 423.50245 38.622836 
L 441.042579 38.752691 
L 458.582707 38.860845 
L 476.122836 39.021333 
L 493.662964 39.375773 
L 511.203093 39.342859 
L 528.743221 39.426682 
L 546.28335 39.529524 
L 563.823479 39.82688 
L 581.363607 39.709704 
L 598.903736 40.052842 
L 616.443864 39.899448 
L 633.983993 40.111192 
L 651.524121 40.039047 
L 669.06425 40.205719 
L 686.604378 40.252984 
L 704.144507 40.69045 
L 721.684636 40.58214 
L 739.224764 40.869543 
L 756.764893 40.758739 
L 774.305021 40.992397 
L 791.84515 41.05322 
L 809.385278 41.046136 
L 826.925407 41.302762 
L 844.465535 41.488368 
L 862.005664 41.394527 
L 879.545793 41.519986 
L 897.085921 41.636821 
L 914.62605 41.597347 
L 932.166178 40.302734 
L 949.706307 36.124061 
" style="fill:none;stroke:#5cb85c;stroke-linecap:square;"/>
   </g>
   <g id="line2d_21">
    <path clip-path="url(#p62ff19ac63)" d="M 81.469943 39.173993 
L 90.240007 39.094982 
L 99.010072 36.706822 
L 107.780136 36.098954 
L 116.5502 35.903871 
L 125.320265 36.046082 
L 134.090329 36.879126 
L 142.860393 36.285687 
L 151.630457 36.531939 
L 160.400522 35.767982 
L 177.94065 36.137223 
L 195.480779 36.272047 
L 213.020907 36.339314 
L 230.561036 36.383973 
L 248.101164 36.488847 
L 265.641293 36.752454 
L 283.181422 36.958071 
L 300.72155 37.38048 
L 318.261679 37.657827 
L 335.801807 37.833305 
L 353.341936 37.964481 
L 370.882064 38.106183 
L 388.422193 38.298467 
L 405.962322 38.320119 
L 423.50245 38.561647 
L 441.042579 38.69636 
L 458.582707 38.802059 
L 476.122836 38.923217 
L 493.662964 39.246275 
L 511.203093 39.225321 
L 528.743221 39.37178 
L 546.28335 39.469913 
L 563.823479 39.714621 
L 581.363607 39.659023 
L 598.903736 39.998618 
L 616.443864 39.903129 
L 633.983993 40.113878 
L 651.524121 40.111382 
L 669.06425 40.29672 
L 686.604378 40.381874 
L 704.144507 40.711015 
L 721.684636 40.629189 
L 739.224764 40.95631 
L 756.764893 40.857132 
L 774.305021 41.066464 
L 791.84515 41.094927 
L 809.385278 41.151265 
L 826.925407 41.50711 
L 844.465535 41.636744 
L 862.005664 41.548063 
L 879.545793 41.750453 
L 897.085921 41.812643 
L 914.62605 41.7698 
L 932.166178 40.43003 
L 949.706307 36.19387 
" style="fill:none;stroke:#5cb85c;stroke-linecap:square;"/>
   </g>
   <g id="line2d_22">
    <path clip-path="url(#p62ff19ac63)" d="M 81.469943 39.044008 
L 90.240007 39.027652 
L 99.010072 36.684418 
L 107.780136 36.039117 
L 116.5502 35.853578 
L 125.320265 36.024858 
L 134.090329 36.908847 
L 142.860393 36.305525 
L 151.630457 36.566815 
L 160.400522 35.78528 
L 177.94065 36.161168 
L 195.480779 36.31822 
L 213.020907 36.36044 
L 230.561036 36.389661 
L 248.101164 36.464293 
L 265.641293 36.710549 
L 283.181422 36.898243 
L 300.72155 37.281138 
L 318.261679 37.534487 
L 335.801807 37.650697 
L 353.341936 37.739269 
L 370.882064 37.83287 
L 388.422193 37.990375 
L 405.962322 37.993911 
L 423.50245 38.208811 
L 441.042579 38.315126 
L 458.582707 38.394309 
L 476.122836 38.493199 
L 493.662964 38.756027 
L 511.203093 38.729208 
L 528.743221 38.806678 
L 546.28335 38.877611 
L 563.823479 39.150953 
L 581.363607 39.089832 
L 598.903736 39.405718 
L 616.443864 39.27478 
L 633.983993 39.425002 
L 651.524121 39.38809 
L 669.06425 39.481662 
L 686.604378 39.543776 
L 704.144507 39.948172 
L 721.684636 39.861792 
L 739.224764 40.160545 
L 756.764893 40.031744 
L 774.305021 40.223678 
L 791.84515 40.27054 
L 809.385278 40.330401 
L 826.925407 40.640292 
L 844.465535 40.78418 
L 862.005664 40.682164 
L 879.545793 40.829301 
L 897.085921 40.945575 
L 914.62605 40.891857 
L 932.166178 39.819457 
L 949.706307 36.012128 
" style="fill:none;stroke:#5cb85c;stroke-linecap:square;"/>
   </g>
   <g id="line2d_23">
    <path clip-path="url(#p62ff19ac63)" d="M 81.469943 39.506191 
L 90.240007 39.532745 
L 99.010072 37.053838 
L 107.780136 36.378758 
L 116.5502 36.18108 
L 125.320265 36.337281 
L 134.090329 37.279204 
L 142.860393 36.606362 
L 151.630457 36.851378 
L 160.400522 36.034266 
L 177.94065 36.432851 
L 195.480779 36.587554 
L 213.020907 36.636689 
L 230.561036 36.665841 
L 248.101164 36.740867 
L 265.641293 36.989581 
L 283.181422 37.198984 
L 300.72155 37.627136 
L 318.261679 37.889147 
L 335.801807 38.039949 
L 353.341936 38.134915 
L 370.882064 38.246402 
L 388.422193 38.416743 
L 405.962322 38.421736 
L 423.50245 38.652777 
L 441.042579 38.779622 
L 458.582707 38.860315 
L 476.122836 38.96037 
L 493.662964 39.248277 
L 511.203093 39.25028 
L 528.743221 39.361953 
L 546.28335 39.427579 
L 563.823479 39.639734 
L 581.363607 39.554662 
L 598.903736 39.866447 
L 616.443864 39.824058 
L 633.983993 40.021632 
L 651.524121 39.966578 
L 669.06425 40.067455 
L 686.604378 40.102205 
L 704.144507 40.51701 
L 721.684636 40.436548 
L 739.224764 40.763422 
L 756.764893 40.635918 
L 774.305021 40.828588 
L 791.84515 40.906986 
L 809.385278 40.954328 
L 826.925407 41.259729 
L 844.465535 41.392912 
L 862.005664 41.288942 
L 879.545793 41.429812 
L 897.085921 41.545056 
L 914.62605 41.512303 
L 932.166178 40.304506 
L 949.706307 36.175431 
" style="fill:none;stroke:#5cb85c;stroke-linecap:square;"/>
   </g>
   <g id="line2d_24">
    <path clip-path="url(#p62ff19ac63)" d="M 81.469943 39.297363 
L 90.240007 39.271581 
L 99.010072 36.82376 
L 107.780136 36.178848 
L 116.5502 35.983037 
L 125.320265 36.135531 
L 134.090329 37.062939 
L 142.860393 36.422524 
L 151.630457 36.701229 
L 160.400522 35.919748 
L 177.94065 36.278206 
L 195.480779 36.418731 
L 213.020907 36.466533 
L 230.561036 36.500775 
L 248.101164 36.598131 
L 265.641293 36.844449 
L 283.181422 37.043131 
L 300.72155 37.444634 
L 318.261679 37.701835 
L 335.801807 37.819682 
L 353.341936 37.894696 
L 370.882064 38.006194 
L 388.422193 38.177269 
L 405.962322 38.191039 
L 423.50245 38.416674 
L 441.042579 38.519983 
L 458.582707 38.588149 
L 476.122836 38.699476 
L 493.662964 39.021214 
L 511.203093 38.998831 
L 528.743221 39.062024 
L 546.28335 39.12792 
L 563.823479 39.386528 
L 581.363607 39.313875 
L 598.903736 39.632244 
L 616.443864 39.511466 
L 633.983993 39.663474 
L 651.524121 39.651671 
L 669.06425 39.763623 
L 686.604378 39.824309 
L 704.144507 40.196208 
L 721.684636 40.084136 
L 739.224764 40.40738 
L 756.764893 40.320907 
L 774.305021 40.517285 
L 791.84515 40.577141 
L 809.385278 40.588998 
L 826.925407 40.895628 
L 844.465535 41.061281 
L 862.005664 40.982521 
L 879.545793 41.112026 
L 897.085921 41.203443 
L 914.62605 41.146352 
L 932.166178 40.020659 
L 949.706307 36.052853 
" style="fill:none;stroke:#5cb85c;stroke-linecap:square;"/>
   </g>
   <g id="line2d_25">
    <path clip-path="url(#p62ff19ac63)" d="M 81.469943 39.385902 
L 90.240007 39.223432 
L 99.010072 36.791424 
L 107.780136 36.177824 
L 116.5502 35.975157 
L 125.320265 36.139514 
L 134.090329 37.063237 
L 142.860393 36.412295 
L 151.630457 36.684562 
L 160.400522 35.893806 
L 177.94065 36.236106 
L 195.480779 36.392488 
L 213.020907 36.446622 
L 230.561036 36.485844 
L 248.101164 36.564502 
L 265.641293 36.807908 
L 283.181422 36.9953 
L 300.72155 37.390808 
L 318.261679 37.638785 
L 335.801807 37.77736 
L 353.341936 37.851637 
L 370.882064 37.960875 
L 388.422193 38.135408 
L 405.962322 38.139254 
L 423.50245 38.360782 
L 441.042579 38.495811 
L 458.582707 38.556893 
L 476.122836 38.639204 
L 493.662964 38.916607 
L 511.203093 38.870033 
L 528.743221 38.958673 
L 546.28335 39.037589 
L 563.823479 39.259041 
L 581.363607 39.136212 
L 598.903736 39.452143 
L 616.443864 39.34728 
L 633.983993 39.541157 
L 651.524121 39.507554 
L 669.06425 39.596475 
L 686.604378 39.625463 
L 704.144507 40.007897 
L 721.684636 39.922866 
L 739.224764 40.257031 
L 756.764893 40.126767 
L 774.305021 40.307913 
L 791.84515 40.366665 
L 809.385278 40.403859 
L 826.925407 40.720197 
L 844.465535 40.853008 
L 862.005664 40.754506 
L 879.545793 40.890084 
L 897.085921 41.025552 
L 914.62605 40.967653 
L 932.166178 39.860263 
L 949.706307 35.96644 
" style="fill:none;stroke:#5cb85c;stroke-linecap:square;"/>
   </g>
   <g id="line2d_26">
    <path clip-path="url(#p62ff19ac63)" d="M 81.469943 39.574443 
L 90.240007 39.550954 
L 99.010072 37.095997 
L 107.780136 36.370263 
L 116.5502 36.173769 
L 125.320265 36.332198 
L 134.090329 37.28422 
L 142.860393 36.620034 
L 151.630457 36.907332 
L 160.400522 36.113682 
L 177.94065 36.452999 
L 195.480779 36.609297 
L 213.020907 36.648228 
L 230.561036 36.682654 
L 248.101164 36.751464 
L 265.641293 36.990342 
L 283.181422 37.177426 
L 300.72155 37.60485 
L 318.261679 37.852653 
L 335.801807 37.972106 
L 353.341936 38.084318 
L 370.882064 38.215748 
L 388.422193 38.38609 
L 405.962322 38.382722 
L 423.50245 38.580375 
L 441.042579 38.704414 
L 458.582707 38.799668 
L 476.122836 38.923662 
L 493.662964 39.199072 
L 511.203093 39.105728 
L 528.743221 39.115154 
L 546.28335 39.196681 
L 563.823479 39.51559 
L 581.363607 39.466176 
L 598.903736 39.723979 
L 616.443864 39.58856 
L 633.983993 39.713837 
L 651.524121 39.69046 
L 669.06425 39.830038 
L 686.604378 39.908846 
L 704.144507 40.268399 
L 721.684636 40.158646 
L 739.224764 40.430325 
L 756.764893 40.315903 
L 774.305021 40.497172 
L 791.84515 40.522007 
L 809.385278 40.507886 
L 826.925407 40.810283 
L 844.465535 40.967576 
L 862.005664 40.91429 
L 879.545793 41.065026 
L 897.085921 41.101743 
L 914.62605 41.023315 
L 932.166178 39.946329 
L 949.706307 36.063258 
" style="fill:none;stroke:#5cb85c;stroke-linecap:square;"/>
   </g>
   <g id="line2d_27">
    <path clip-path="url(#p62ff19ac63)" d="M 81.469943 39.403915 
L 90.240007 39.387484 
L 99.010072 36.934069 
L 107.780136 36.234015 
L 116.5502 36.016452 
L 125.320265 36.146114 
L 134.090329 37.021384 
L 142.860393 36.429559 
L 151.630457 36.655986 
L 160.400522 35.918615 
L 177.94065 36.239688 
L 195.480779 36.394725 
L 213.020907 36.455631 
L 230.561036 36.490598 
L 248.101164 36.586074 
L 265.641293 36.848753 
L 283.181422 37.058206 
L 300.72155 37.489114 
L 318.261679 37.753074 
L 335.801807 37.909383 
L 353.341936 38.037503 
L 370.882064 38.183354 
L 388.422193 38.375292 
L 405.962322 38.389338 
L 423.50245 38.593934 
L 441.042579 38.78929 
L 458.582707 38.929025 
L 476.122836 39.051556 
L 493.662964 39.375334 
L 511.203093 39.298676 
L 528.743221 39.371956 
L 546.28335 39.475861 
L 563.823479 39.789345 
L 581.363607 39.725298 
L 598.903736 40.048333 
L 616.443864 39.924396 
L 633.983993 40.079929 
L 651.524121 40.065445 
L 669.06425 40.219277 
L 686.604378 40.29127 
L 704.144507 40.611231 
L 721.684636 40.514369 
L 739.224764 40.78667 
L 756.764893 40.671066 
L 774.305021 40.883216 
L 791.84515 40.912461 
L 809.385278 40.930493 
L 826.925407 41.257563 
L 844.465535 41.381317 
L 862.005664 41.310076 
L 879.545793 41.44346 
L 897.085921 41.502861 
L 914.62605 41.455753 
L 932.166178 40.220037 
L 949.706307 36.151659 
" style="fill:none;stroke:#5cb85c;stroke-linecap:square;"/>
   </g>
   <g id="line2d_28">
    <path clip-path="url(#p62ff19ac63)" d="M 81.469943 38.84474 
L 90.240007 38.875383 
L 99.010072 36.615771 
L 107.780136 35.940363 
L 116.5502 35.747625 
L 125.320265 35.895946 
L 134.090329 36.716963 
L 142.860393 36.156269 
L 151.630457 36.421962 
L 160.400522 35.658821 
L 177.94065 35.976218 
L 195.480779 36.111003 
L 213.020907 36.169469 
L 230.561036 36.194227 
L 248.101164 36.26847 
L 265.641293 36.513797 
L 283.181422 36.715464 
L 300.72155 37.117359 
L 318.261679 37.365427 
L 335.801807 37.513696 
L 353.341936 37.621429 
L 370.882064 37.754513 
L 388.422193 37.923428 
L 405.962322 37.932689 
L 423.50245 38.13917 
L 441.042579 38.289434 
L 458.582707 38.401805 
L 476.122836 38.45608 
L 493.662964 38.800144 
L 511.203093 38.738225 
L 528.743221 38.843617 
L 546.28335 38.904646 
L 563.823479 39.170476 
L 581.363607 39.096757 
L 598.903736 39.415902 
L 616.443864 39.383287 
L 633.983993 39.507041 
L 651.524121 39.47691 
L 669.06425 39.595901 
L 686.604378 39.659201 
L 704.144507 40.011693 
L 721.684636 39.918553 
L 739.224764 40.178017 
L 756.764893 40.046879 
L 774.305021 40.225624 
L 791.84515 40.288563 
L 809.385278 40.338139 
L 826.925407 40.635667 
L 844.465535 40.744037 
L 862.005664 40.643513 
L 879.545793 40.783967 
L 897.085921 40.919444 
L 914.62605 40.878035 
L 932.166178 39.704733 
L 949.706307 35.896551 
" style="fill:none;stroke:#5cb85c;stroke-linecap:square;"/>
   </g>
   <g id="line2d_29">
    <path clip-path="url(#p62ff19ac63)" d="M 81.469943 39.034443 
L 90.240007 39.023833 
L 99.010072 36.644771 
L 107.780136 36.016588 
L 116.5502 35.795357 
L 125.320265 35.926874 
L 134.090329 36.796237 
L 142.860393 36.194766 
L 151.630457 36.458906 
L 160.400522 35.708661 
L 177.94065 36.028901 
L 195.480779 36.187891 
L 213.020907 36.25591 
L 230.561036 36.293783 
L 248.101164 36.385924 
L 265.641293 36.641775 
L 283.181422 36.851516 
L 300.72155 37.256798 
L 318.261679 37.524503 
L 335.801807 37.675743 
L 353.341936 37.770372 
L 370.882064 37.904743 
L 388.422193 38.084451 
L 405.962322 38.123883 
L 423.50245 38.364731 
L 441.042579 38.534536 
L 458.582707 38.61066 
L 476.122836 38.69982 
L 493.662964 38.992931 
L 511.203093 38.973313 
L 528.743221 39.078991 
L 546.28335 39.145796 
L 563.823479 39.382307 
L 581.363607 39.319223 
L 598.903736 39.601223 
L 616.443864 39.526873 
L 633.983993 39.723083 
L 651.524121 39.713696 
L 669.06425 39.840619 
L 686.604378 39.906987 
L 704.144507 40.246311 
L 721.684636 40.165205 
L 739.224764 40.484608 
L 756.764893 40.375682 
L 774.305021 40.577829 
L 791.84515 40.624085 
L 809.385278 40.664807 
L 826.925407 41.000059 
L 844.465535 41.10653 
L 862.005664 41.042771 
L 879.545793 41.195914 
L 897.085921 41.283155 
L 914.62605 41.23438 
L 932.166178 40.038189 
L 949.706307 35.996965 
" style="fill:none;stroke:#5cb85c;stroke-linecap:square;"/>
   </g>
   <g id="line2d_30">
    <path clip-path="url(#p62ff19ac63)" d="M 81.469943 39.436903 
L 90.240007 39.42415 
L 99.010072 36.902126 
L 107.780136 36.216639 
L 116.5502 35.986926 
L 125.320265 36.135702 
L 134.090329 37.061873 
L 142.860393 36.406203 
L 151.630457 36.695213 
L 160.400522 35.912993 
L 177.94065 36.240903 
L 195.480779 36.415469 
L 213.020907 36.462628 
L 230.561036 36.468974 
L 248.101164 36.524899 
L 265.641293 36.77293 
L 283.181422 36.97225 
L 300.72155 37.372258 
L 318.261679 37.622825 
L 335.801807 37.741829 
L 353.341936 37.824965 
L 370.882064 37.911745 
L 388.422193 38.075493 
L 405.962322 38.06069 
L 423.50245 38.291419 
L 441.042579 38.42053 
L 458.582707 38.535234 
L 476.122836 38.608573 
L 493.662964 38.978825 
L 511.203093 39.032705 
L 528.743221 39.208248 
L 546.28335 39.128604 
L 563.823479 39.382578 
L 581.363607 39.298011 
L 598.903736 39.646574 
L 616.443864 39.503518 
L 633.983993 39.628196 
L 651.524121 39.560321 
L 669.06425 39.622027 
L 686.604378 39.677453 
L 704.144507 40.073508 
L 721.684636 39.962375 
L 739.224764 40.250566 
L 756.764893 40.103462 
L 774.305021 40.283815 
L 791.84515 40.35353 
L 809.385278 40.407253 
L 826.925407 40.708705 
L 844.465535 40.838184 
L 862.005664 40.730235 
L 879.545793 40.862506 
L 897.085921 40.984079 
L 914.62605 40.934653 
L 932.166178 39.851635 
L 949.706307 35.99732 
" style="fill:none;stroke:#5cb85c;stroke-linecap:square;"/>
   </g>
   <g id="line2d_31">
    <path clip-path="url(#p62ff19ac63)" d="M 81.469943 39.64616 
L 90.240007 39.566535 
L 99.010072 36.968007 
L 107.780136 36.251843 
L 116.5502 35.965131 
L 125.320265 36.08445 
L 134.090329 36.991909 
L 142.860393 36.381577 
L 151.630457 36.627186 
L 160.400522 35.86996 
L 177.94065 36.132269 
L 195.480779 36.30617 
L 213.020907 36.361209 
L 230.561036 36.396732 
L 248.101164 36.485745 
L 265.641293 36.759475 
L 283.181422 36.967614 
L 300.72155 37.410381 
L 318.261679 37.659065 
L 335.801807 37.829094 
L 353.341936 37.938546 
L 370.882064 38.080703 
L 388.422193 38.286751 
L 405.962322 38.319098 
L 423.50245 38.566553 
L 441.042579 38.744901 
L 458.582707 38.849697 
L 476.122836 38.954766 
L 493.662964 39.289922 
L 511.203093 39.242563 
L 528.743221 39.359141 
L 546.28335 39.451246 
L 563.823479 39.794297 
L 581.363607 39.716656 
L 598.903736 40.056004 
L 616.443864 39.887787 
L 633.983993 40.025167 
L 651.524121 40.007177 
L 669.06425 40.206849 
L 686.604378 40.231771 
L 704.144507 40.606739 
L 721.684636 40.485027 
L 739.224764 40.794248 
L 756.764893 40.691762 
L 774.305021 40.899491 
L 791.84515 40.903273 
L 809.385278 40.892878 
L 826.925407 41.203478 
L 844.465535 41.381402 
L 862.005664 41.297718 
L 879.545793 41.386314 
L 897.085921 41.457392 
L 914.62605 41.435579 
L 932.166178 40.156432 
L 949.706307 36.103843 
" style="fill:none;stroke:#5cb85c;stroke-linecap:square;"/>
   </g>
   <g id="line2d_32">
    <path clip-path="url(#p62ff19ac63)" d="M 81.469943 39.686267 
L 90.240007 39.634754 
L 99.010072 37.05776 
L 107.780136 36.437987 
L 116.5502 36.244829 
L 125.320265 36.384191 
L 134.090329 37.34082 
L 142.860393 36.630933 
L 151.630457 36.883425 
L 160.400522 36.123572 
L 177.94065 36.505134 
L 195.480779 36.673155 
L 213.020907 36.723845 
L 230.561036 36.775092 
L 248.101164 36.872747 
L 265.641293 37.142187 
L 283.181422 37.341997 
L 300.72155 37.778099 
L 318.261679 38.066692 
L 335.801807 38.229622 
L 353.341936 38.317222 
L 370.882064 38.449549 
L 388.422193 38.621296 
L 405.962322 38.663664 
L 423.50245 38.932551 
L 441.042579 39.101044 
L 458.582707 39.14937 
L 476.122836 39.239353 
L 493.662964 39.559676 
L 511.203093 39.573808 
L 528.743221 39.688927 
L 546.28335 39.746046 
L 563.823479 39.911963 
L 581.363607 39.830073 
L 598.903736 40.140088 
L 616.443864 40.080225 
L 633.983993 40.287005 
L 651.524121 40.265885 
L 669.06425 40.387141 
L 686.604378 40.455804 
L 704.144507 40.804146 
L 721.684636 40.713269 
L 739.224764 41.053482 
L 756.764893 40.924522 
L 774.305021 41.13155 
L 791.84515 41.177503 
L 809.385278 41.229711 
L 826.925407 41.558378 
L 844.465535 41.669506 
L 862.005664 41.576419 
L 879.545793 41.741741 
L 897.085921 41.858561 
L 914.62605 41.810689 
L 932.166178 40.524312 
L 949.706307 36.269223 
" style="fill:none;stroke:#5cb85c;stroke-linecap:square;"/>
   </g>
   <g id="line2d_33">
    <path clip-path="url(#p62ff19ac63)" d="M 81.469943 39.654969 
L 90.240007 39.744963 
L 99.010072 37.088129 
L 107.780136 36.441829 
L 116.5502 36.180398 
L 125.320265 36.24965 
L 134.090329 37.102761 
L 142.860393 36.528455 
L 151.630457 36.697754 
L 160.400522 36.059889 
L 177.94065 36.344206 
L 195.480779 36.493603 
L 213.020907 36.591468 
L 230.561036 36.678735 
L 248.101164 36.79472 
L 265.641293 37.104218 
L 283.181422 37.352399 
L 300.72155 37.826572 
L 318.261679 38.092878 
L 335.801807 38.315362 
L 353.341936 38.50248 
L 370.882064 38.724025 
L 388.422193 38.994089 
L 405.962322 39.059709 
L 423.50245 39.335288 
L 441.042579 39.539767 
L 458.582707 39.631523 
L 476.122836 39.742176 
L 493.662964 40.128532 
L 511.203093 40.113646 
L 528.743221 40.339861 
L 546.28335 40.459932 
L 563.823479 40.735112 
L 581.363607 40.70654 
L 598.903736 40.978378 
L 616.443864 40.898603 
L 633.983993 41.142938 
L 651.524121 41.257482 
L 669.06425 41.499019 
L 686.604378 41.618136 
L 704.144507 41.794932 
L 721.684636 41.729593 
L 739.224764 42.148964 
L 756.764893 42.076066 
L 774.305021 42.376394 
L 791.84515 42.379091 
L 809.385278 42.419482 
L 826.925407 42.820557 
L 844.465535 42.874148 
L 862.005664 42.822177 
L 879.545793 43.002487 
L 897.085921 43.025683 
L 914.62605 42.940162 
L 932.166178 41.265541 
L 949.706307 36.469447 
" style="fill:none;stroke:#5cb85c;stroke-linecap:square;"/>
   </g>
   <g id="line2d_34">
    <path clip-path="url(#p62ff19ac63)" d="M 81.469943 39.422769 
L 90.240007 39.408541 
L 99.010072 36.869317 
L 107.780136 36.249537 
L 116.5502 36.056806 
L 125.320265 36.210191 
L 134.090329 37.158702 
L 142.860393 36.495512 
L 151.630457 36.776192 
L 160.400522 35.987785 
L 177.94065 36.334708 
L 195.480779 36.489712 
L 213.020907 36.542249 
L 230.561036 36.580689 
L 248.101164 36.670163 
L 265.641293 36.922127 
L 283.181422 37.12017 
L 300.72155 37.52339 
L 318.261679 37.787857 
L 335.801807 37.917051 
L 353.341936 38.002537 
L 370.882064 38.109534 
L 388.422193 38.290742 
L 405.962322 38.305191 
L 423.50245 38.534009 
L 441.042579 38.628222 
L 458.582707 38.70994 
L 476.122836 38.827408 
L 493.662964 39.14564 
L 511.203093 39.115235 
L 528.743221 39.191358 
L 546.28335 39.280387 
L 563.823479 39.556258 
L 581.363607 39.486279 
L 598.903736 39.785538 
L 616.443864 39.627931 
L 633.983993 39.798518 
L 651.524121 39.787717 
L 669.06425 39.922506 
L 686.604378 39.962147 
L 704.144507 40.33949 
L 721.684636 40.21768 
L 739.224764 40.568517 
L 756.764893 40.465378 
L 774.305021 40.665398 
L 791.84515 40.702343 
L 809.385278 40.71586 
L 826.925407 41.035513 
L 844.465535 41.192034 
L 862.005664 41.107037 
L 879.545793 41.252733 
L 897.085921 41.338641 
L 914.62605 41.29105 
L 932.166178 40.155398 
L 949.706307 36.131548 
" style="fill:none;stroke:#5cb85c;stroke-linecap:square;"/>
   </g>
   <g id="line2d_35">
    <path clip-path="url(#p62ff19ac63)" d="M 81.469943 38.938683 
L 90.240007 38.895473 
L 99.010072 36.551468 
L 107.780136 35.936448 
L 116.5502 35.747116 
L 125.320265 35.880405 
L 134.090329 36.759615 
L 142.860393 36.14349 
L 151.630457 36.369049 
L 160.400522 35.62589 
L 177.94065 35.97273 
L 195.480779 36.133339 
L 213.020907 36.176254 
L 230.561036 36.215991 
L 248.101164 36.299948 
L 265.641293 36.558618 
L 283.181422 36.737153 
L 300.72155 37.126337 
L 318.261679 37.379431 
L 335.801807 37.513958 
L 353.341936 37.612059 
L 370.882064 37.71544 
L 388.422193 37.881424 
L 405.962322 37.897696 
L 423.50245 38.119494 
L 441.042579 38.265827 
L 458.582707 38.328595 
L 476.122836 38.426777 
L 493.662964 38.703165 
L 511.203093 38.685222 
L 528.743221 38.794262 
L 546.28335 38.892707 
L 563.823479 39.154551 
L 581.363607 39.048847 
L 598.903736 39.386062 
L 616.443864 39.269138 
L 633.983993 39.461391 
L 651.524121 39.420727 
L 669.06425 39.543278 
L 686.604378 39.610061 
L 704.144507 40.030263 
L 721.684636 39.961827 
L 739.224764 40.230721 
L 756.764893 40.084426 
L 774.305021 40.283771 
L 791.84515 40.33354 
L 809.385278 40.372164 
L 826.925407 40.674823 
L 844.465535 40.800242 
L 862.005664 40.700261 
L 879.545793 40.890549 
L 897.085921 40.980507 
L 914.62605 40.939846 
L 932.166178 39.789332 
L 949.706307 35.938264 
" style="fill:none;stroke:#5cb85c;stroke-linecap:square;"/>
   </g>
   <g id="line2d_36">
    <path clip-path="url(#p62ff19ac63)" d="M 81.469943 39.239918 
L 90.240007 39.147764 
L 99.010072 36.763091 
L 107.780136 36.160603 
L 116.5502 35.958193 
L 125.320265 36.102574 
L 134.090329 37.005017 
L 142.860393 36.376967 
L 151.630457 36.633719 
L 160.400522 35.870837 
L 177.94065 36.213025 
L 195.480779 36.359326 
L 213.020907 36.409629 
L 230.561036 36.450263 
L 248.101164 36.529937 
L 265.641293 36.773877 
L 283.181422 36.956637 
L 300.72155 37.361119 
L 318.261679 37.617764 
L 335.801807 37.753179 
L 353.341936 37.830909 
L 370.882064 37.948668 
L 388.422193 38.141676 
L 405.962322 38.13973 
L 423.50245 38.366341 
L 441.042579 38.493005 
L 458.582707 38.534391 
L 476.122836 38.631407 
L 493.662964 38.928146 
L 511.203093 38.936127 
L 528.743221 38.966403 
L 546.28335 39.017969 
L 563.823479 39.234112 
L 581.363607 39.191689 
L 598.903736 39.48231 
L 616.443864 39.35851 
L 633.983993 39.55656 
L 651.524121 39.539065 
L 669.06425 39.661348 
L 686.604378 39.732834 
L 704.144507 40.077318 
L 721.684636 39.983506 
L 739.224764 40.298533 
L 756.764893 40.183997 
L 774.305021 40.383389 
L 791.84515 40.409389 
L 809.385278 40.42477 
L 826.925407 40.738939 
L 844.465535 40.880822 
L 862.005664 40.810444 
L 879.545793 40.957147 
L 897.085921 41.008349 
L 914.62605 40.939216 
L 932.166178 39.848511 
L 949.706307 35.951364 
" style="fill:none;stroke:#5cb85c;stroke-linecap:square;"/>
   </g>
   <g id="line2d_37">
    <path clip-path="url(#p62ff19ac63)" d="M 81.469943 39.502891 
L 90.240007 39.636948 
L 99.010072 37.02199 
L 107.780136 36.317064 
L 116.5502 36.151011 
L 125.320265 36.130828 
L 134.090329 36.941233 
L 142.860393 36.339071 
L 151.630457 36.488969 
L 160.400522 35.866378 
L 177.94065 36.178865 
L 195.480779 36.299521 
L 213.020907 36.415435 
L 230.561036 36.418518 
L 248.101164 36.553529 
L 265.641293 36.871869 
L 283.181422 37.068478 
L 300.72155 37.520356 
L 318.261679 37.775184 
L 335.801807 37.970085 
L 353.341936 38.130158 
L 370.882064 38.360085 
L 388.422193 38.557659 
L 405.962322 38.60205 
L 423.50245 38.843604 
L 441.042579 38.987394 
L 458.582707 39.081691 
L 476.122836 39.174387 
L 493.662964 39.52495 
L 511.203093 39.561299 
L 528.743221 39.809436 
L 546.28335 39.887286 
L 563.823479 40.296362 
L 581.363607 40.144319 
L 598.903736 40.556326 
L 616.443864 40.565561 
L 633.983993 40.78939 
L 651.524121 40.786198 
L 669.06425 41.062991 
L 686.604378 41.103486 
L 704.144507 41.481649 
L 721.684636 41.404918 
L 739.224764 41.73078 
L 756.764893 41.695862 
L 774.305021 41.956717 
L 791.84515 42.000572 
L 809.385278 42.03407 
L 826.925407 42.317674 
L 844.465535 42.466996 
L 862.005664 42.34391 
L 879.545793 42.380687 
L 897.085921 42.51504 
L 914.62605 42.564638 
L 932.166178 40.874214 
L 949.706307 36.356958 
" style="fill:none;stroke:#5cb85c;stroke-linecap:square;"/>
   </g>
   <g id="line2d_38">
    <path clip-path="url(#p62ff19ac63)" d="M 81.469943 39.466587 
L 90.240007 39.448104 
L 99.010072 36.984045 
L 107.780136 36.372772 
L 116.5502 36.159021 
L 125.320265 36.280611 
L 134.090329 37.148704 
L 142.860393 36.535444 
L 151.630457 36.746925 
L 160.400522 36.057639 
L 177.94065 36.373726 
L 195.480779 36.507791 
L 213.020907 36.570095 
L 230.561036 36.615083 
L 248.101164 36.705622 
L 265.641293 36.971204 
L 283.181422 37.152274 
L 300.72155 37.559075 
L 318.261679 37.806544 
L 335.801807 37.927095 
L 353.341936 38.033705 
L 370.882064 38.181033 
L 388.422193 38.360775 
L 405.962322 38.374107 
L 423.50245 38.580589 
L 441.042579 38.69701 
L 458.582707 38.827336 
L 476.122836 38.91677 
L 493.662964 39.244555 
L 511.203093 39.249607 
L 528.743221 39.302383 
L 546.28335 39.414746 
L 563.823479 39.67826 
L 581.363607 39.623555 
L 598.903736 39.891198 
L 616.443864 39.817751 
L 633.983993 39.994476 
L 651.524121 40.004987 
L 669.06425 40.145149 
L 686.604378 40.217556 
L 704.144507 40.562652 
L 721.684636 40.449115 
L 739.224764 40.769113 
L 756.764893 40.661404 
L 774.305021 40.885772 
L 791.84515 40.94428 
L 809.385278 40.967452 
L 826.925407 41.258693 
L 844.465535 41.407707 
L 862.005664 41.330899 
L 879.545793 41.470514 
L 897.085921 41.562558 
L 914.62605 41.474076 
L 932.166178 40.194201 
L 949.706307 36.13055 
" style="fill:none;stroke:#5cb85c;stroke-linecap:square;"/>
   </g>
   <g id="line2d_39">
    <path clip-path="url(#p62ff19ac63)" d="M 81.469943 39.243949 
L 90.240007 39.234536 
L 99.010072 36.821443 
L 107.780136 36.172117 
L 116.5502 35.979214 
L 125.320265 36.141661 
L 134.090329 37.100795 
L 142.860393 36.469807 
L 151.630457 36.743439 
L 160.400522 35.970519 
L 177.94065 36.288802 
L 195.480779 36.414028 
L 213.020907 36.46865 
L 230.561036 36.507903 
L 248.101164 36.592891 
L 265.641293 36.847541 
L 283.181422 37.026812 
L 300.72155 37.417595 
L 318.261679 37.665599 
L 335.801807 37.774179 
L 353.341936 37.857561 
L 370.882064 37.982512 
L 388.422193 38.160376 
L 405.962322 38.157433 
L 423.50245 38.350148 
L 441.042579 38.451476 
L 458.582707 38.526461 
L 476.122836 38.629627 
L 493.662964 38.942186 
L 511.203093 38.865581 
L 528.743221 38.894154 
L 546.28335 38.975574 
L 563.823479 39.269461 
L 581.363607 39.202533 
L 598.903736 39.500988 
L 616.443864 39.32853 
L 633.983993 39.474294 
L 651.524121 39.469595 
L 669.06425 39.609866 
L 686.604378 39.665249 
L 704.144507 40.020058 
L 721.684636 39.896642 
L 739.224764 40.208806 
L 756.764893 40.116808 
L 774.305021 40.310187 
L 791.84515 40.326291 
L 809.385278 40.325901 
L 826.925407 40.6222 
L 844.465535 40.801106 
L 862.005664 40.734126 
L 879.545793 40.87107 
L 897.085921 40.919086 
L 914.62605 40.861445 
L 932.166178 39.787424 
L 949.706307 35.990048 
" style="fill:none;stroke:#5cb85c;stroke-linecap:square;"/>
   </g>
   <g id="line2d_40">
    <path clip-path="url(#p62ff19ac63)" d="M 81.469943 39.407624 
L 90.240007 39.468506 
L 99.010072 37.025355 
L 107.780136 36.327063 
L 116.5502 36.072109 
L 125.320265 36.200015 
L 134.090329 37.06352 
L 142.860393 36.46502 
L 151.630457 36.683604 
L 160.400522 35.960926 
L 177.94065 36.260621 
L 195.480779 36.410463 
L 213.020907 36.479275 
L 230.561036 36.525236 
L 248.101164 36.600736 
L 265.641293 36.871215 
L 283.181422 37.070607 
L 300.72155 37.499133 
L 318.261679 37.762381 
L 335.801807 37.92295 
L 353.341936 38.051662 
L 370.882064 38.194685 
L 388.422193 38.367144 
L 405.962322 38.392921 
L 423.50245 38.619237 
L 441.042579 38.753093 
L 458.582707 38.880372 
L 476.122836 38.966115 
L 493.662964 39.240329 
L 511.203093 39.202376 
L 528.743221 39.337106 
L 546.28335 39.423487 
L 563.823479 39.709057 
L 581.363607 39.621694 
L 598.903736 39.935636 
L 616.443864 39.852582 
L 633.983993 40.046054 
L 651.524121 40.01186 
L 669.06425 40.176759 
L 686.604378 40.201323 
L 704.144507 40.5938 
L 721.684636 40.507831 
L 739.224764 40.791866 
L 756.764893 40.704534 
L 774.305021 40.893537 
L 791.84515 40.93407 
L 809.385278 40.965674 
L 826.925407 41.245429 
L 844.465535 41.408789 
L 862.005664 41.294092 
L 879.545793 41.381259 
L 897.085921 41.49406 
L 914.62605 41.496476 
L 932.166178 40.187472 
L 949.706307 36.10535 
" style="fill:none;stroke:#5cb85c;stroke-linecap:square;"/>
   </g>
   <g id="line2d_41">
    <path clip-path="url(#p62ff19ac63)" d="M 81.469943 39.44805 
L 90.240007 39.418885 
L 99.010072 36.989495 
L 107.780136 36.270948 
L 116.5502 36.014616 
L 125.320265 36.126284 
L 134.090329 36.955477 
L 142.860393 36.398749 
L 151.630457 36.584541 
L 160.400522 35.860744 
L 177.94065 36.171854 
L 195.480779 36.335826 
L 213.020907 36.389501 
L 230.561036 36.437374 
L 248.101164 36.537646 
L 265.641293 36.825253 
L 283.181422 37.038672 
L 300.72155 37.462362 
L 318.261679 37.735652 
L 335.801807 37.908012 
L 353.341936 38.027539 
L 370.882064 38.18168 
L 388.422193 38.377098 
L 405.962322 38.409467 
L 423.50245 38.662345 
L 441.042579 38.848525 
L 458.582707 38.96656 
L 476.122836 39.032029 
L 493.662964 39.334836 
L 511.203093 39.326559 
L 528.743221 39.496272 
L 546.28335 39.598541 
L 563.823479 39.908889 
L 581.363607 39.807091 
L 598.903736 40.163544 
L 616.443864 40.08483 
L 633.983993 40.277893 
L 651.524121 40.242808 
L 669.06425 40.433273 
L 686.604378 40.457143 
L 704.144507 40.870496 
L 721.684636 40.779569 
L 739.224764 41.064152 
L 756.764893 40.996212 
L 774.305021 41.216124 
L 791.84515 41.269741 
L 809.385278 41.297785 
L 826.925407 41.576427 
L 844.465535 41.738881 
L 862.005664 41.64629 
L 879.545793 41.738608 
L 897.085921 41.861871 
L 914.62605 41.870716 
L 932.166178 40.441594 
L 949.706307 36.198311 
" style="fill:none;stroke:#5cb85c;stroke-linecap:square;"/>
   </g>
   <g id="line2d_42">
    <path clip-path="url(#p62ff19ac63)" d="M 81.469943 39.096027 
L 90.240007 39.101468 
L 99.010072 36.77434 
L 107.780136 36.123271 
L 116.5502 35.928293 
L 125.320265 36.077975 
L 134.090329 36.92645 
L 142.860393 36.341422 
L 151.630457 36.56121 
L 160.400522 35.839304 
L 177.94065 36.189569 
L 195.480779 36.335383 
L 213.020907 36.404198 
L 230.561036 36.444754 
L 248.101164 36.518117 
L 265.641293 36.782553 
L 283.181422 36.980663 
L 300.72155 37.414396 
L 318.261679 37.660864 
L 335.801807 37.797934 
L 353.341936 37.907198 
L 370.882064 38.047721 
L 388.422193 38.231793 
L 405.962322 38.249664 
L 423.50245 38.444586 
L 441.042579 38.564807 
L 458.582707 38.649123 
L 476.122836 38.749544 
L 493.662964 39.026695 
L 511.203093 38.975803 
L 528.743221 39.04506 
L 546.28335 39.135432 
L 563.823479 39.40557 
L 581.363607 39.362263 
L 598.903736 39.639915 
L 616.443864 39.521508 
L 633.983993 39.693761 
L 651.524121 39.720686 
L 669.06425 39.894107 
L 686.604378 39.953166 
L 704.144507 40.28219 
L 721.684636 40.158962 
L 739.224764 40.468346 
L 756.764893 40.39099 
L 774.305021 40.594051 
L 791.84515 40.614982 
L 809.385278 40.628707 
L 826.925407 40.95223 
L 844.465535 41.133565 
L 862.005664 41.075048 
L 879.545793 41.228427 
L 897.085921 41.271019 
L 914.62605 41.214213 
L 932.166178 40.049563 
L 949.706307 36.094087 
" style="fill:none;stroke:#5cb85c;stroke-linecap:square;"/>
   </g>
   <g id="line2d_43">
    <path clip-path="url(#p62ff19ac63)" d="M 38.058125 353.2239 
L 993.118125 353.2239 
" style="fill:none;stroke:#dedede;stroke-linecap:square;stroke-width:2;"/>
   </g>
   <g id="text_17">
    <!-- FastQC: Mean Quality Scores -->
    <g transform="translate(400.349375 19.3575)scale(0.16 -0.16)">
     <defs>
      <path d="M 628 4666 
L 3309 4666 
L 3309 4134 
L 1259 4134 
L 1259 2759 
L 3109 2759 
L 3109 2228 
L 1259 2228 
L 1259 0 
L 628 0 
L 628 4666 
z
" id="DejaVuSans-46" transform="scale(0.015625)"/>
      <path d="M 2194 1759 
Q 1497 1759 1228 1600 
Q 959 1441 959 1056 
Q 959 750 1161 570 
Q 1363 391 1709 391 
Q 2188 391 2477 730 
Q 2766 1069 2766 1631 
L 2766 1759 
L 2194 1759 
z
M 3341 1997 
L 3341 0 
L 2766 0 
L 2766 531 
Q 2569 213 2275 61 
Q 1981 -91 1556 -91 
Q 1019 -91 701 211 
Q 384 513 384 1019 
Q 384 1609 779 1909 
Q 1175 2209 1959 2209 
L 2766 2209 
L 2766 2266 
Q 2766 2663 2505 2880 
Q 2244 3097 1772 3097 
Q 1472 3097 1187 3025 
Q 903 2953 641 2809 
L 641 3341 
Q 956 3463 1253 3523 
Q 1550 3584 1831 3584 
Q 2591 3584 2966 3190 
Q 3341 2797 3341 1997 
z
" id="DejaVuSans-61" transform="scale(0.015625)"/>
      <path d="M 2522 4238 
Q 1834 4238 1429 3725 
Q 1025 3213 1025 2328 
Q 1025 1447 1429 934 
Q 1834 422 2522 422 
Q 3209 422 3611 934 
Q 4013 1447 4013 2328 
Q 4013 3213 3611 3725 
Q 3209 4238 2522 4238 
z
M 3406 84 
L 4238 -825 
L 3475 -825 
L 2784 -78 
Q 2681 -84 2626 -87 
Q 2572 -91 2522 -91 
Q 1538 -91 948 567 
Q 359 1225 359 2328 
Q 359 3434 948 4092 
Q 1538 4750 2522 4750 
Q 3503 4750 4090 4092 
Q 4678 3434 4678 2328 
Q 4678 1516 4351 937 
Q 4025 359 3406 84 
z
" id="DejaVuSans-51" transform="scale(0.015625)"/>
      <path d="M 4122 4306 
L 4122 3641 
Q 3803 3938 3442 4084 
Q 3081 4231 2675 4231 
Q 1875 4231 1450 3742 
Q 1025 3253 1025 2328 
Q 1025 1406 1450 917 
Q 1875 428 2675 428 
Q 3081 428 3442 575 
Q 3803 722 4122 1019 
L 4122 359 
Q 3791 134 3420 21 
Q 3050 -91 2638 -91 
Q 1578 -91 968 557 
Q 359 1206 359 2328 
Q 359 3453 968 4101 
Q 1578 4750 2638 4750 
Q 3056 4750 3426 4639 
Q 3797 4528 4122 4306 
z
" id="DejaVuSans-43" transform="scale(0.015625)"/>
      <path d="M 750 794 
L 1409 794 
L 1409 0 
L 750 0 
L 750 794 
z
M 750 3309 
L 1409 3309 
L 1409 2516 
L 750 2516 
L 750 3309 
z
" id="DejaVuSans-3a" transform="scale(0.015625)"/>
      <path d="M 628 4666 
L 1569 4666 
L 2759 1491 
L 3956 4666 
L 4897 4666 
L 4897 0 
L 4281 0 
L 4281 4097 
L 3078 897 
L 2444 897 
L 1241 4097 
L 1241 0 
L 628 0 
L 628 4666 
z
" id="DejaVuSans-4d" transform="scale(0.015625)"/>
      <path d="M 544 1381 
L 544 3500 
L 1119 3500 
L 1119 1403 
Q 1119 906 1312 657 
Q 1506 409 1894 409 
Q 2359 409 2629 706 
Q 2900 1003 2900 1516 
L 2900 3500 
L 3475 3500 
L 3475 0 
L 2900 0 
L 2900 538 
Q 2691 219 2414 64 
Q 2138 -91 1772 -91 
Q 1169 -91 856 284 
Q 544 659 544 1381 
z
M 1991 3584 
L 1991 3584 
z
" id="DejaVuSans-75" transform="scale(0.015625)"/>
      <path d="M 603 4863 
L 1178 4863 
L 1178 0 
L 603 0 
L 603 4863 
z
" id="DejaVuSans-6c" transform="scale(0.015625)"/>
      <path d="M 2059 -325 
Q 1816 -950 1584 -1140 
Q 1353 -1331 966 -1331 
L 506 -1331 
L 506 -850 
L 844 -850 
Q 1081 -850 1212 -737 
Q 1344 -625 1503 -206 
L 1606 56 
L 191 3500 
L 800 3500 
L 1894 763 
L 2988 3500 
L 3597 3500 
L 2059 -325 
z
" id="DejaVuSans-79" transform="scale(0.015625)"/>
     </defs>
     <use xlink:href="#DejaVuSans-46"/>
     <use x="48.394531" xlink:href="#DejaVuSans-61"/>
     <use x="109.673828" xlink:href="#DejaVuSans-73"/>
     <use x="161.773438" xlink:href="#DejaVuSans-74"/>
     <use x="200.982422" xlink:href="#DejaVuSans-51"/>
     <use x="279.693359" xlink:href="#DejaVuSans-43"/>
     <use x="349.517578" xlink:href="#DejaVuSans-3a"/>
     <use x="383.208984" xlink:href="#DejaVuSans-20"/>
     <use x="414.996094" xlink:href="#DejaVuSans-4d"/>
     <use x="501.275391" xlink:href="#DejaVuSans-65"/>
     <use x="562.798828" xlink:href="#DejaVuSans-61"/>
     <use x="624.078125" xlink:href="#DejaVuSans-6e"/>
     <use x="687.457031" xlink:href="#DejaVuSans-20"/>
     <use x="719.244141" xlink:href="#DejaVuSans-51"/>
     <use x="797.955078" xlink:href="#DejaVuSans-75"/>
     <use x="861.333984" xlink:href="#DejaVuSans-61"/>
     <use x="922.613281" xlink:href="#DejaVuSans-6c"/>
     <use x="950.396484" xlink:href="#DejaVuSans-69"/>
     <use x="978.179688" xlink:href="#DejaVuSans-74"/>
     <use x="1017.388672" xlink:href="#DejaVuSans-79"/>
     <use x="1076.568359" xlink:href="#DejaVuSans-20"/>
     <use x="1108.355469" xlink:href="#DejaVuSans-53"/>
     <use x="1171.832031" xlink:href="#DejaVuSans-63"/>
     <use x="1226.8125" xlink:href="#DejaVuSans-6f"/>
     <use x="1287.994141" xlink:href="#DejaVuSans-72"/>
     <use x="1326.857422" xlink:href="#DejaVuSans-65"/>
     <use x="1388.380859" xlink:href="#DejaVuSans-73"/>
    </g>
   </g>
  </g>
 </g>
 <defs>
  <clipPath id="p62ff19ac63">
   <rect height="317.968" width="955.06" x="38.058125" y="35.2559"/>
  </clipPath>
 </defs>
</svg>
