<?xml version="1.0" encoding="utf-8" standalone="no"?>
<!DOCTYPE svg PUBLIC "-//W3C//DTD SVG 1.1//EN"
  "http://www.w3.org/Graphics/SVG/1.1/DTD/svg11.dtd">
<svg height="388.844525pt" version="1.1" viewBox="0 0 1000.300625 388.844525" width="1000.300625pt" xmlns="http://www.w3.org/2000/svg" xmlns:xlink="http://www.w3.org/1999/xlink">
 <metadata>
  <rdf:RDF xmlns:cc="http://creativecommons.org/ns#" xmlns:dc="http://purl.org/dc/elements/1.1/" xmlns:rdf="http://www.w3.org/1999/02/22-rdf-syntax-ns#">
   <cc:Work>
    <dc:type rdf:resource="http://purl.org/dc/dcmitype/StillImage"/>
    <dc:date>2022-11-03T13:38:23.296017</dc:date>
    <dc:format>image/svg+xml</dc:format>
    <dc:creator>
     <cc:Agent>
      <dc:title>Matplotlib v3.4.2, https://matplotlib.org/</dc:title>
     </cc:Agent>
    </dc:creator>
   </cc:Work>
  </rdf:RDF>
 </metadata>
 <defs>
  <style type="text/css">*{stroke-linecap:butt;stroke-linejoin:round;}</style>
 </defs>
 <g id="figure_1">
  <g id="axes_1">
   <g id="patch_1">
    <path d="M 45.690625 353.2239 
L 993.100625 353.2239 
L 993.100625 35.2559 
L 45.690625 35.2559 
z
" style="fill:#ffffff;"/>
   </g>
   <g id="matplotlib.axis_1">
    <g id="xtick_1">
     <g id="text_1">
      <!-- 1 -->
      <g transform="translate(86.209716 366.30265)scale(0.08 -0.08)">
       <defs>
        <path d="M 794 531 
L 1825 531 
L 1825 4091 
L 703 3866 
L 703 4441 
L 1819 4666 
L 2450 4666 
L 2450 531 
L 3481 531 
L 3481 0 
L 794 0 
L 794 531 
z
" id="DejaVuSans-31" transform="scale(0.015625)"/>
       </defs>
       <use xlink:href="#DejaVuSans-31"/>
      </g>
     </g>
    </g>
    <g id="xtick_2">
     <g id="text_2">
      <!-- 2 -->
      <g transform="translate(123.656751 366.30265)scale(0.08 -0.08)">
       <defs>
        <path d="M 1228 531 
L 3431 531 
L 3431 0 
L 469 0 
L 469 531 
Q 828 903 1448 1529 
Q 2069 2156 2228 2338 
Q 2531 2678 2651 2914 
Q 2772 3150 2772 3378 
Q 2772 3750 2511 3984 
Q 2250 4219 1831 4219 
Q 1534 4219 1204 4116 
Q 875 4013 500 3803 
L 500 4441 
Q 881 4594 1212 4672 
Q 1544 4750 1819 4750 
Q 2544 4750 2975 4387 
Q 3406 4025 3406 3419 
Q 3406 3131 3298 2873 
Q 3191 2616 2906 2266 
Q 2828 2175 2409 1742 
Q 1991 1309 1228 531 
z
" id="DejaVuSans-32" transform="scale(0.015625)"/>
       </defs>
       <use xlink:href="#DejaVuSans-32"/>
      </g>
     </g>
    </g>
    <g id="xtick_3">
     <g id="text_3">
      <!-- 3 -->
      <g transform="translate(161.103787 366.30265)scale(0.08 -0.08)">
       <defs>
        <path d="M 2597 2516 
Q 3050 2419 3304 2112 
Q 3559 1806 3559 1356 
Q 3559 666 3084 287 
Q 2609 -91 1734 -91 
Q 1441 -91 1130 -33 
Q 819 25 488 141 
L 488 750 
Q 750 597 1062 519 
Q 1375 441 1716 441 
Q 2309 441 2620 675 
Q 2931 909 2931 1356 
Q 2931 1769 2642 2001 
Q 2353 2234 1838 2234 
L 1294 2234 
L 1294 2753 
L 1863 2753 
Q 2328 2753 2575 2939 
Q 2822 3125 2822 3475 
Q 2822 3834 2567 4026 
Q 2313 4219 1838 4219 
Q 1578 4219 1281 4162 
Q 984 4106 628 3988 
L 628 4550 
Q 988 4650 1302 4700 
Q 1616 4750 1894 4750 
Q 2613 4750 3031 4423 
Q 3450 4097 3450 3541 
Q 3450 3153 3228 2886 
Q 3006 2619 2597 2516 
z
" id="DejaVuSans-33" transform="scale(0.015625)"/>
       </defs>
       <use xlink:href="#DejaVuSans-33"/>
      </g>
     </g>
    </g>
    <g id="xtick_4">
     <g id="text_4">
      <!-- 4 -->
      <g transform="translate(198.550823 366.30265)scale(0.08 -0.08)">
       <defs>
        <path d="M 2419 4116 
L 825 1625 
L 2419 1625 
L 2419 4116 
z
M 2253 4666 
L 3047 4666 
L 3047 1625 
L 3713 1625 
L 3713 1100 
L 3047 1100 
L 3047 0 
L 2419 0 
L 2419 1100 
L 313 1100 
L 313 1709 
L 2253 4666 
z
" id="DejaVuSans-34" transform="scale(0.015625)"/>
       </defs>
       <use xlink:href="#DejaVuSans-34"/>
      </g>
     </g>
    </g>
    <g id="xtick_5">
     <g id="text_5">
      <!-- 5 -->
      <g transform="translate(235.997858 366.30265)scale(0.08 -0.08)">
       <defs>
        <path d="M 691 4666 
L 3169 4666 
L 3169 4134 
L 1269 4134 
L 1269 2991 
Q 1406 3038 1543 3061 
Q 1681 3084 1819 3084 
Q 2600 3084 3056 2656 
Q 3513 2228 3513 1497 
Q 3513 744 3044 326 
Q 2575 -91 1722 -91 
Q 1428 -91 1123 -41 
Q 819 9 494 109 
L 494 744 
Q 775 591 1075 516 
Q 1375 441 1709 441 
Q 2250 441 2565 725 
Q 2881 1009 2881 1497 
Q 2881 1984 2565 2268 
Q 2250 2553 1709 2553 
Q 1456 2553 1204 2497 
Q 953 2441 691 2322 
L 691 4666 
z
" id="DejaVuSans-35" transform="scale(0.015625)"/>
       </defs>
       <use xlink:href="#DejaVuSans-35"/>
      </g>
     </g>
    </g>
    <g id="xtick_6">
     <g id="text_6">
      <!-- 6 -->
      <g transform="translate(273.444894 366.30265)scale(0.08 -0.08)">
       <defs>
        <path d="M 2113 2584 
Q 1688 2584 1439 2293 
Q 1191 2003 1191 1497 
Q 1191 994 1439 701 
Q 1688 409 2113 409 
Q 2538 409 2786 701 
Q 3034 994 3034 1497 
Q 3034 2003 2786 2293 
Q 2538 2584 2113 2584 
z
M 3366 4563 
L 3366 3988 
Q 3128 4100 2886 4159 
Q 2644 4219 2406 4219 
Q 1781 4219 1451 3797 
Q 1122 3375 1075 2522 
Q 1259 2794 1537 2939 
Q 1816 3084 2150 3084 
Q 2853 3084 3261 2657 
Q 3669 2231 3669 1497 
Q 3669 778 3244 343 
Q 2819 -91 2113 -91 
Q 1303 -91 875 529 
Q 447 1150 447 2328 
Q 447 3434 972 4092 
Q 1497 4750 2381 4750 
Q 2619 4750 2861 4703 
Q 3103 4656 3366 4563 
z
" id="DejaVuSans-36" transform="scale(0.015625)"/>
       </defs>
       <use xlink:href="#DejaVuSans-36"/>
      </g>
     </g>
    </g>
    <g id="xtick_7">
     <g id="text_7">
      <!-- 7 -->
      <g transform="translate(310.891929 366.30265)scale(0.08 -0.08)">
       <defs>
        <path d="M 525 4666 
L 3525 4666 
L 3525 4397 
L 1831 0 
L 1172 0 
L 2766 4134 
L 525 4134 
L 525 4666 
z
" id="DejaVuSans-37" transform="scale(0.015625)"/>
       </defs>
       <use xlink:href="#DejaVuSans-37"/>
      </g>
     </g>
    </g>
    <g id="xtick_8">
     <g id="text_8">
      <!-- 8 -->
      <g transform="translate(348.338965 366.30265)scale(0.08 -0.08)">
       <defs>
        <path d="M 2034 2216 
Q 1584 2216 1326 1975 
Q 1069 1734 1069 1313 
Q 1069 891 1326 650 
Q 1584 409 2034 409 
Q 2484 409 2743 651 
Q 3003 894 3003 1313 
Q 3003 1734 2745 1975 
Q 2488 2216 2034 2216 
z
M 1403 2484 
Q 997 2584 770 2862 
Q 544 3141 544 3541 
Q 544 4100 942 4425 
Q 1341 4750 2034 4750 
Q 2731 4750 3128 4425 
Q 3525 4100 3525 3541 
Q 3525 3141 3298 2862 
Q 3072 2584 2669 2484 
Q 3125 2378 3379 2068 
Q 3634 1759 3634 1313 
Q 3634 634 3220 271 
Q 2806 -91 2034 -91 
Q 1263 -91 848 271 
Q 434 634 434 1313 
Q 434 1759 690 2068 
Q 947 2378 1403 2484 
z
M 1172 3481 
Q 1172 3119 1398 2916 
Q 1625 2713 2034 2713 
Q 2441 2713 2670 2916 
Q 2900 3119 2900 3481 
Q 2900 3844 2670 4047 
Q 2441 4250 2034 4250 
Q 1625 4250 1398 4047 
Q 1172 3844 1172 3481 
z
" id="DejaVuSans-38" transform="scale(0.015625)"/>
       </defs>
       <use xlink:href="#DejaVuSans-38"/>
      </g>
     </g>
    </g>
    <g id="xtick_9">
     <g id="text_9">
      <!-- 9 -->
      <g transform="translate(385.786 366.30265)scale(0.08 -0.08)">
       <defs>
        <path d="M 703 97 
L 703 672 
Q 941 559 1184 500 
Q 1428 441 1663 441 
Q 2288 441 2617 861 
Q 2947 1281 2994 2138 
Q 2813 1869 2534 1725 
Q 2256 1581 1919 1581 
Q 1219 1581 811 2004 
Q 403 2428 403 3163 
Q 403 3881 828 4315 
Q 1253 4750 1959 4750 
Q 2769 4750 3195 4129 
Q 3622 3509 3622 2328 
Q 3622 1225 3098 567 
Q 2575 -91 1691 -91 
Q 1453 -91 1209 -44 
Q 966 3 703 97 
z
M 1959 2075 
Q 2384 2075 2632 2365 
Q 2881 2656 2881 3163 
Q 2881 3666 2632 3958 
Q 2384 4250 1959 4250 
Q 1534 4250 1286 3958 
Q 1038 3666 1038 3163 
Q 1038 2656 1286 2365 
Q 1534 2075 1959 2075 
z
" id="DejaVuSans-39" transform="scale(0.015625)"/>
       </defs>
       <use xlink:href="#DejaVuSans-39"/>
      </g>
     </g>
    </g>
    <g id="xtick_10">
     <g id="text_10">
      <!-- 10 -->
      <g transform="translate(420.688036 366.30265)scale(0.08 -0.08)">
       <defs>
        <path d="M 2034 4250 
Q 1547 4250 1301 3770 
Q 1056 3291 1056 2328 
Q 1056 1369 1301 889 
Q 1547 409 2034 409 
Q 2525 409 2770 889 
Q 3016 1369 3016 2328 
Q 3016 3291 2770 3770 
Q 2525 4250 2034 4250 
z
M 2034 4750 
Q 2819 4750 3233 4129 
Q 3647 3509 3647 2328 
Q 3647 1150 3233 529 
Q 2819 -91 2034 -91 
Q 1250 -91 836 529 
Q 422 1150 422 2328 
Q 422 3509 836 4129 
Q 1250 4750 2034 4750 
z
" id="DejaVuSans-30" transform="scale(0.015625)"/>
       </defs>
       <use xlink:href="#DejaVuSans-31"/>
       <use x="63.623047" xlink:href="#DejaVuSans-30"/>
      </g>
     </g>
    </g>
    <g id="xtick_11">
     <g id="text_11">
      <!-- 11 -->
      <g transform="translate(458.135072 366.30265)scale(0.08 -0.08)">
       <use xlink:href="#DejaVuSans-31"/>
       <use x="63.623047" xlink:href="#DejaVuSans-31"/>
      </g>
     </g>
    </g>
    <g id="xtick_12">
     <g id="text_12">
      <!-- 12 -->
      <g transform="translate(495.582107 366.30265)scale(0.08 -0.08)">
       <use xlink:href="#DejaVuSans-31"/>
       <use x="63.623047" xlink:href="#DejaVuSans-32"/>
      </g>
     </g>
    </g>
    <g id="xtick_13">
     <g id="text_13">
      <!-- 13 -->
      <g transform="translate(533.029143 366.30265)scale(0.08 -0.08)">
       <use xlink:href="#DejaVuSans-31"/>
       <use x="63.623047" xlink:href="#DejaVuSans-33"/>
      </g>
     </g>
    </g>
    <g id="xtick_14">
     <g id="text_14">
      <!-- 14 -->
      <g transform="translate(570.476178 366.30265)scale(0.08 -0.08)">
       <use xlink:href="#DejaVuSans-31"/>
       <use x="63.623047" xlink:href="#DejaVuSans-34"/>
      </g>
     </g>
    </g>
    <g id="xtick_15">
     <g id="text_15">
      <!-- 15 -->
      <g transform="translate(607.923214 366.30265)scale(0.08 -0.08)">
       <use xlink:href="#DejaVuSans-31"/>
       <use x="63.623047" xlink:href="#DejaVuSans-35"/>
      </g>
     </g>
    </g>
    <g id="xtick_16">
     <g id="text_16">
      <!-- 16 -->
      <g transform="translate(645.37025 366.30265)scale(0.08 -0.08)">
       <use xlink:href="#DejaVuSans-31"/>
       <use x="63.623047" xlink:href="#DejaVuSans-36"/>
      </g>
     </g>
    </g>
    <g id="xtick_17">
     <g id="text_17">
      <!-- 17 -->
      <g transform="translate(682.817285 366.30265)scale(0.08 -0.08)">
       <use xlink:href="#DejaVuSans-31"/>
       <use x="63.623047" xlink:href="#DejaVuSans-37"/>
      </g>
     </g>
    </g>
    <g id="xtick_18">
     <g id="text_18">
      <!-- 18 -->
      <g transform="translate(720.264321 366.30265)scale(0.08 -0.08)">
       <use xlink:href="#DejaVuSans-31"/>
       <use x="63.623047" xlink:href="#DejaVuSans-38"/>
      </g>
     </g>
    </g>
    <g id="xtick_19">
     <g id="text_19">
      <!-- 19 -->
      <g transform="translate(757.711356 366.30265)scale(0.08 -0.08)">
       <use xlink:href="#DejaVuSans-31"/>
       <use x="63.623047" xlink:href="#DejaVuSans-39"/>
      </g>
     </g>
    </g>
    <g id="xtick_20">
     <g id="text_20">
      <!-- 20 -->
      <g transform="translate(795.158392 366.30265)scale(0.08 -0.08)">
       <use xlink:href="#DejaVuSans-32"/>
       <use x="63.623047" xlink:href="#DejaVuSans-30"/>
      </g>
     </g>
    </g>
    <g id="xtick_21">
     <g id="text_21">
      <!-- 21 -->
      <g transform="translate(832.605427 366.30265)scale(0.08 -0.08)">
       <use xlink:href="#DejaVuSans-32"/>
       <use x="63.623047" xlink:href="#DejaVuSans-31"/>
      </g>
     </g>
    </g>
    <g id="xtick_22">
     <g id="text_22">
      <!-- 22 -->
      <g transform="translate(870.052463 366.30265)scale(0.08 -0.08)">
       <use xlink:href="#DejaVuSans-32"/>
       <use x="63.623047" xlink:href="#DejaVuSans-32"/>
      </g>
     </g>
    </g>
    <g id="xtick_23">
     <g id="text_23">
      <!-- X -->
      <g transform="translate(909.849499 366.30265)scale(0.08 -0.08)">
       <defs>
        <path d="M 403 4666 
L 1081 4666 
L 2241 2931 
L 3406 4666 
L 4084 4666 
L 2584 2425 
L 4184 0 
L 3506 0 
L 2194 1984 
L 872 0 
L 191 0 
L 1856 2491 
L 403 4666 
z
" id="DejaVuSans-58" transform="scale(0.015625)"/>
       </defs>
       <use xlink:href="#DejaVuSans-58"/>
      </g>
     </g>
    </g>
    <g id="xtick_24">
     <g id="text_24">
      <!-- MT -->
      <g transform="translate(944.142159 366.30265)scale(0.08 -0.08)">
       <defs>
        <path d="M 628 4666 
L 1569 4666 
L 2759 1491 
L 3956 4666 
L 4897 4666 
L 4897 0 
L 4281 0 
L 4281 4097 
L 3078 897 
L 2444 897 
L 1241 4097 
L 1241 0 
L 628 0 
L 628 4666 
z
" id="DejaVuSans-4d" transform="scale(0.015625)"/>
        <path d="M -19 4666 
L 3928 4666 
L 3928 4134 
L 2272 4134 
L 2272 0 
L 1638 0 
L 1638 4134 
L -19 4134 
L -19 4666 
z
" id="DejaVuSans-54" transform="scale(0.015625)"/>
       </defs>
       <use xlink:href="#DejaVuSans-4d"/>
       <use x="86.279297" xlink:href="#DejaVuSans-54"/>
      </g>
     </g>
    </g>
    <g id="text_25">
     <!-- Chromosome Name -->
     <g transform="translate(469.851875 379.564837)scale(0.1 -0.1)">
      <defs>
       <path d="M 4122 4306 
L 4122 3641 
Q 3803 3938 3442 4084 
Q 3081 4231 2675 4231 
Q 1875 4231 1450 3742 
Q 1025 3253 1025 2328 
Q 1025 1406 1450 917 
Q 1875 428 2675 428 
Q 3081 428 3442 575 
Q 3803 722 4122 1019 
L 4122 359 
Q 3791 134 3420 21 
Q 3050 -91 2638 -91 
Q 1578 -91 968 557 
Q 359 1206 359 2328 
Q 359 3453 968 4101 
Q 1578 4750 2638 4750 
Q 3056 4750 3426 4639 
Q 3797 4528 4122 4306 
z
" id="DejaVuSans-43" transform="scale(0.015625)"/>
       <path d="M 3513 2113 
L 3513 0 
L 2938 0 
L 2938 2094 
Q 2938 2591 2744 2837 
Q 2550 3084 2163 3084 
Q 1697 3084 1428 2787 
Q 1159 2491 1159 1978 
L 1159 0 
L 581 0 
L 581 4863 
L 1159 4863 
L 1159 2956 
Q 1366 3272 1645 3428 
Q 1925 3584 2291 3584 
Q 2894 3584 3203 3211 
Q 3513 2838 3513 2113 
z
" id="DejaVuSans-68" transform="scale(0.015625)"/>
       <path d="M 2631 2963 
Q 2534 3019 2420 3045 
Q 2306 3072 2169 3072 
Q 1681 3072 1420 2755 
Q 1159 2438 1159 1844 
L 1159 0 
L 581 0 
L 581 3500 
L 1159 3500 
L 1159 2956 
Q 1341 3275 1631 3429 
Q 1922 3584 2338 3584 
Q 2397 3584 2469 3576 
Q 2541 3569 2628 3553 
L 2631 2963 
z
" id="DejaVuSans-72" transform="scale(0.015625)"/>
       <path d="M 1959 3097 
Q 1497 3097 1228 2736 
Q 959 2375 959 1747 
Q 959 1119 1226 758 
Q 1494 397 1959 397 
Q 2419 397 2687 759 
Q 2956 1122 2956 1747 
Q 2956 2369 2687 2733 
Q 2419 3097 1959 3097 
z
M 1959 3584 
Q 2709 3584 3137 3096 
Q 3566 2609 3566 1747 
Q 3566 888 3137 398 
Q 2709 -91 1959 -91 
Q 1206 -91 779 398 
Q 353 888 353 1747 
Q 353 2609 779 3096 
Q 1206 3584 1959 3584 
z
" id="DejaVuSans-6f" transform="scale(0.015625)"/>
       <path d="M 3328 2828 
Q 3544 3216 3844 3400 
Q 4144 3584 4550 3584 
Q 5097 3584 5394 3201 
Q 5691 2819 5691 2113 
L 5691 0 
L 5113 0 
L 5113 2094 
Q 5113 2597 4934 2840 
Q 4756 3084 4391 3084 
Q 3944 3084 3684 2787 
Q 3425 2491 3425 1978 
L 3425 0 
L 2847 0 
L 2847 2094 
Q 2847 2600 2669 2842 
Q 2491 3084 2119 3084 
Q 1678 3084 1418 2786 
Q 1159 2488 1159 1978 
L 1159 0 
L 581 0 
L 581 3500 
L 1159 3500 
L 1159 2956 
Q 1356 3278 1631 3431 
Q 1906 3584 2284 3584 
Q 2666 3584 2933 3390 
Q 3200 3197 3328 2828 
z
" id="DejaVuSans-6d" transform="scale(0.015625)"/>
       <path d="M 2834 3397 
L 2834 2853 
Q 2591 2978 2328 3040 
Q 2066 3103 1784 3103 
Q 1356 3103 1142 2972 
Q 928 2841 928 2578 
Q 928 2378 1081 2264 
Q 1234 2150 1697 2047 
L 1894 2003 
Q 2506 1872 2764 1633 
Q 3022 1394 3022 966 
Q 3022 478 2636 193 
Q 2250 -91 1575 -91 
Q 1294 -91 989 -36 
Q 684 19 347 128 
L 347 722 
Q 666 556 975 473 
Q 1284 391 1588 391 
Q 1994 391 2212 530 
Q 2431 669 2431 922 
Q 2431 1156 2273 1281 
Q 2116 1406 1581 1522 
L 1381 1569 
Q 847 1681 609 1914 
Q 372 2147 372 2553 
Q 372 3047 722 3315 
Q 1072 3584 1716 3584 
Q 2034 3584 2315 3537 
Q 2597 3491 2834 3397 
z
" id="DejaVuSans-73" transform="scale(0.015625)"/>
       <path d="M 3597 1894 
L 3597 1613 
L 953 1613 
Q 991 1019 1311 708 
Q 1631 397 2203 397 
Q 2534 397 2845 478 
Q 3156 559 3463 722 
L 3463 178 
Q 3153 47 2828 -22 
Q 2503 -91 2169 -91 
Q 1331 -91 842 396 
Q 353 884 353 1716 
Q 353 2575 817 3079 
Q 1281 3584 2069 3584 
Q 2775 3584 3186 3129 
Q 3597 2675 3597 1894 
z
M 3022 2063 
Q 3016 2534 2758 2815 
Q 2500 3097 2075 3097 
Q 1594 3097 1305 2825 
Q 1016 2553 972 2059 
L 3022 2063 
z
" id="DejaVuSans-65" transform="scale(0.015625)"/>
       <path id="DejaVuSans-20" transform="scale(0.015625)"/>
       <path d="M 628 4666 
L 1478 4666 
L 3547 763 
L 3547 4666 
L 4159 4666 
L 4159 0 
L 3309 0 
L 1241 3903 
L 1241 0 
L 628 0 
L 628 4666 
z
" id="DejaVuSans-4e" transform="scale(0.015625)"/>
       <path d="M 2194 1759 
Q 1497 1759 1228 1600 
Q 959 1441 959 1056 
Q 959 750 1161 570 
Q 1363 391 1709 391 
Q 2188 391 2477 730 
Q 2766 1069 2766 1631 
L 2766 1759 
L 2194 1759 
z
M 3341 1997 
L 3341 0 
L 2766 0 
L 2766 531 
Q 2569 213 2275 61 
Q 1981 -91 1556 -91 
Q 1019 -91 701 211 
Q 384 513 384 1019 
Q 384 1609 779 1909 
Q 1175 2209 1959 2209 
L 2766 2209 
L 2766 2266 
Q 2766 2663 2505 2880 
Q 2244 3097 1772 3097 
Q 1472 3097 1187 3025 
Q 903 2953 641 2809 
L 641 3341 
Q 956 3463 1253 3523 
Q 1550 3584 1831 3584 
Q 2591 3584 2966 3190 
Q 3341 2797 3341 1997 
z
" id="DejaVuSans-61" transform="scale(0.015625)"/>
      </defs>
      <use xlink:href="#DejaVuSans-43"/>
      <use x="69.824219" xlink:href="#DejaVuSans-68"/>
      <use x="133.203125" xlink:href="#DejaVuSans-72"/>
      <use x="172.066406" xlink:href="#DejaVuSans-6f"/>
      <use x="233.248047" xlink:href="#DejaVuSans-6d"/>
      <use x="330.660156" xlink:href="#DejaVuSans-6f"/>
      <use x="391.841797" xlink:href="#DejaVuSans-73"/>
      <use x="443.941406" xlink:href="#DejaVuSans-6f"/>
      <use x="505.123047" xlink:href="#DejaVuSans-6d"/>
      <use x="602.535156" xlink:href="#DejaVuSans-65"/>
      <use x="664.058594" xlink:href="#DejaVuSans-20"/>
      <use x="695.845703" xlink:href="#DejaVuSans-4e"/>
      <use x="770.650391" xlink:href="#DejaVuSans-61"/>
      <use x="831.929688" xlink:href="#DejaVuSans-6d"/>
      <use x="929.341797" xlink:href="#DejaVuSans-65"/>
     </g>
    </g>
   </g>
   <g id="matplotlib.axis_2">
    <g id="ytick_1">
     <g id="line2d_1">
      <path clip-path="url(#p142ed6cbd6)" d="M 45.690625 350.059099 
L 993.100625 350.059099 
" style="fill:none;stroke:#dedede;stroke-linecap:square;"/>
     </g>
     <g id="text_26">
      <!-- 0.00 -->
      <g transform="translate(20.878125 353.098474)scale(0.08 -0.08)">
       <defs>
        <path d="M 684 794 
L 1344 794 
L 1344 0 
L 684 0 
L 684 794 
z
" id="DejaVuSans-2e" transform="scale(0.015625)"/>
       </defs>
       <use xlink:href="#DejaVuSans-30"/>
       <use x="63.623047" xlink:href="#DejaVuSans-2e"/>
       <use x="95.410156" xlink:href="#DejaVuSans-30"/>
       <use x="159.033203" xlink:href="#DejaVuSans-30"/>
      </g>
     </g>
    </g>
    <g id="ytick_2">
     <g id="line2d_2">
      <path clip-path="url(#p142ed6cbd6)" d="M 45.690625 299.681725 
L 993.100625 299.681725 
" style="fill:none;stroke:#dedede;stroke-linecap:square;"/>
     </g>
     <g id="text_27">
      <!-- 0.02 -->
      <g transform="translate(20.878125 302.7211)scale(0.08 -0.08)">
       <use xlink:href="#DejaVuSans-30"/>
       <use x="63.623047" xlink:href="#DejaVuSans-2e"/>
       <use x="95.410156" xlink:href="#DejaVuSans-30"/>
       <use x="159.033203" xlink:href="#DejaVuSans-32"/>
      </g>
     </g>
    </g>
    <g id="ytick_3">
     <g id="line2d_3">
      <path clip-path="url(#p142ed6cbd6)" d="M 45.690625 249.30435 
L 993.100625 249.30435 
" style="fill:none;stroke:#dedede;stroke-linecap:square;"/>
     </g>
     <g id="text_28">
      <!-- 0.04 -->
      <g transform="translate(20.878125 252.343725)scale(0.08 -0.08)">
       <use xlink:href="#DejaVuSans-30"/>
       <use x="63.623047" xlink:href="#DejaVuSans-2e"/>
       <use x="95.410156" xlink:href="#DejaVuSans-30"/>
       <use x="159.033203" xlink:href="#DejaVuSans-34"/>
      </g>
     </g>
    </g>
    <g id="ytick_4">
     <g id="line2d_4">
      <path clip-path="url(#p142ed6cbd6)" d="M 45.690625 198.926976 
L 993.100625 198.926976 
" style="fill:none;stroke:#dedede;stroke-linecap:square;"/>
     </g>
     <g id="text_29">
      <!-- 0.06 -->
      <g transform="translate(20.878125 201.966351)scale(0.08 -0.08)">
       <use xlink:href="#DejaVuSans-30"/>
       <use x="63.623047" xlink:href="#DejaVuSans-2e"/>
       <use x="95.410156" xlink:href="#DejaVuSans-30"/>
       <use x="159.033203" xlink:href="#DejaVuSans-36"/>
      </g>
     </g>
    </g>
    <g id="ytick_5">
     <g id="line2d_5">
      <path clip-path="url(#p142ed6cbd6)" d="M 45.690625 148.549602 
L 993.100625 148.549602 
" style="fill:none;stroke:#dedede;stroke-linecap:square;"/>
     </g>
     <g id="text_30">
      <!-- 0.08 -->
      <g transform="translate(20.878125 151.588977)scale(0.08 -0.08)">
       <use xlink:href="#DejaVuSans-30"/>
       <use x="63.623047" xlink:href="#DejaVuSans-2e"/>
       <use x="95.410156" xlink:href="#DejaVuSans-30"/>
       <use x="159.033203" xlink:href="#DejaVuSans-38"/>
      </g>
     </g>
    </g>
    <g id="ytick_6">
     <g id="line2d_6">
      <path clip-path="url(#p142ed6cbd6)" d="M 45.690625 98.172228 
L 993.100625 98.172228 
" style="fill:none;stroke:#dedede;stroke-linecap:square;"/>
     </g>
     <g id="text_31">
      <!-- 0.10 -->
      <g transform="translate(20.878125 101.211603)scale(0.08 -0.08)">
       <use xlink:href="#DejaVuSans-30"/>
       <use x="63.623047" xlink:href="#DejaVuSans-2e"/>
       <use x="95.410156" xlink:href="#DejaVuSans-31"/>
       <use x="159.033203" xlink:href="#DejaVuSans-30"/>
      </g>
     </g>
    </g>
    <g id="ytick_7">
     <g id="line2d_7">
      <path clip-path="url(#p142ed6cbd6)" d="M 45.690625 47.794854 
L 993.100625 47.794854 
" style="fill:none;stroke:#dedede;stroke-linecap:square;"/>
     </g>
     <g id="text_32">
      <!-- 0.12 -->
      <g transform="translate(20.878125 50.834229)scale(0.08 -0.08)">
       <use xlink:href="#DejaVuSans-30"/>
       <use x="63.623047" xlink:href="#DejaVuSans-2e"/>
       <use x="95.410156" xlink:href="#DejaVuSans-31"/>
       <use x="159.033203" xlink:href="#DejaVuSans-32"/>
      </g>
     </g>
    </g>
    <g id="text_33">
     <!-- Fraction of total count -->
     <g transform="translate(14.798438 249.325056)rotate(-90)scale(0.1 -0.1)">
      <defs>
       <path d="M 628 4666 
L 3309 4666 
L 3309 4134 
L 1259 4134 
L 1259 2759 
L 3109 2759 
L 3109 2228 
L 1259 2228 
L 1259 0 
L 628 0 
L 628 4666 
z
" id="DejaVuSans-46" transform="scale(0.015625)"/>
       <path d="M 3122 3366 
L 3122 2828 
Q 2878 2963 2633 3030 
Q 2388 3097 2138 3097 
Q 1578 3097 1268 2742 
Q 959 2388 959 1747 
Q 959 1106 1268 751 
Q 1578 397 2138 397 
Q 2388 397 2633 464 
Q 2878 531 3122 666 
L 3122 134 
Q 2881 22 2623 -34 
Q 2366 -91 2075 -91 
Q 1284 -91 818 406 
Q 353 903 353 1747 
Q 353 2603 823 3093 
Q 1294 3584 2113 3584 
Q 2378 3584 2631 3529 
Q 2884 3475 3122 3366 
z
" id="DejaVuSans-63" transform="scale(0.015625)"/>
       <path d="M 1172 4494 
L 1172 3500 
L 2356 3500 
L 2356 3053 
L 1172 3053 
L 1172 1153 
Q 1172 725 1289 603 
Q 1406 481 1766 481 
L 2356 481 
L 2356 0 
L 1766 0 
Q 1100 0 847 248 
Q 594 497 594 1153 
L 594 3053 
L 172 3053 
L 172 3500 
L 594 3500 
L 594 4494 
L 1172 4494 
z
" id="DejaVuSans-74" transform="scale(0.015625)"/>
       <path d="M 603 3500 
L 1178 3500 
L 1178 0 
L 603 0 
L 603 3500 
z
M 603 4863 
L 1178 4863 
L 1178 4134 
L 603 4134 
L 603 4863 
z
" id="DejaVuSans-69" transform="scale(0.015625)"/>
       <path d="M 3513 2113 
L 3513 0 
L 2938 0 
L 2938 2094 
Q 2938 2591 2744 2837 
Q 2550 3084 2163 3084 
Q 1697 3084 1428 2787 
Q 1159 2491 1159 1978 
L 1159 0 
L 581 0 
L 581 3500 
L 1159 3500 
L 1159 2956 
Q 1366 3272 1645 3428 
Q 1925 3584 2291 3584 
Q 2894 3584 3203 3211 
Q 3513 2838 3513 2113 
z
" id="DejaVuSans-6e" transform="scale(0.015625)"/>
       <path d="M 2375 4863 
L 2375 4384 
L 1825 4384 
Q 1516 4384 1395 4259 
Q 1275 4134 1275 3809 
L 1275 3500 
L 2222 3500 
L 2222 3053 
L 1275 3053 
L 1275 0 
L 697 0 
L 697 3053 
L 147 3053 
L 147 3500 
L 697 3500 
L 697 3744 
Q 697 4328 969 4595 
Q 1241 4863 1831 4863 
L 2375 4863 
z
" id="DejaVuSans-66" transform="scale(0.015625)"/>
       <path d="M 603 4863 
L 1178 4863 
L 1178 0 
L 603 0 
L 603 4863 
z
" id="DejaVuSans-6c" transform="scale(0.015625)"/>
       <path d="M 544 1381 
L 544 3500 
L 1119 3500 
L 1119 1403 
Q 1119 906 1312 657 
Q 1506 409 1894 409 
Q 2359 409 2629 706 
Q 2900 1003 2900 1516 
L 2900 3500 
L 3475 3500 
L 3475 0 
L 2900 0 
L 2900 538 
Q 2691 219 2414 64 
Q 2138 -91 1772 -91 
Q 1169 -91 856 284 
Q 544 659 544 1381 
z
M 1991 3584 
L 1991 3584 
z
" id="DejaVuSans-75" transform="scale(0.015625)"/>
      </defs>
      <use xlink:href="#DejaVuSans-46"/>
      <use x="50.269531" xlink:href="#DejaVuSans-72"/>
      <use x="91.382812" xlink:href="#DejaVuSans-61"/>
      <use x="152.662109" xlink:href="#DejaVuSans-63"/>
      <use x="207.642578" xlink:href="#DejaVuSans-74"/>
      <use x="246.851562" xlink:href="#DejaVuSans-69"/>
      <use x="274.634766" xlink:href="#DejaVuSans-6f"/>
      <use x="335.816406" xlink:href="#DejaVuSans-6e"/>
      <use x="399.195312" xlink:href="#DejaVuSans-20"/>
      <use x="430.982422" xlink:href="#DejaVuSans-6f"/>
      <use x="492.164062" xlink:href="#DejaVuSans-66"/>
      <use x="527.369141" xlink:href="#DejaVuSans-20"/>
      <use x="559.15625" xlink:href="#DejaVuSans-74"/>
      <use x="598.365234" xlink:href="#DejaVuSans-6f"/>
      <use x="659.546875" xlink:href="#DejaVuSans-74"/>
      <use x="698.755859" xlink:href="#DejaVuSans-61"/>
      <use x="760.035156" xlink:href="#DejaVuSans-6c"/>
      <use x="787.818359" xlink:href="#DejaVuSans-20"/>
      <use x="819.605469" xlink:href="#DejaVuSans-63"/>
      <use x="874.585938" xlink:href="#DejaVuSans-6f"/>
      <use x="935.767578" xlink:href="#DejaVuSans-75"/>
      <use x="999.146484" xlink:href="#DejaVuSans-6e"/>
      <use x="1062.525391" xlink:href="#DejaVuSans-74"/>
     </g>
    </g>
   </g>
   <g id="line2d_8">
    <path clip-path="url(#p142ed6cbd6)" d="M 88.754716 133.031404 
L 126.201751 161.74028 
L 163.648787 208.288627 
L 201.095823 259.001391 
L 238.542858 209.617944 
L 275.989894 209.044589 
L 313.436929 210.51283 
L 350.883965 236.124839 
L 388.331 217.644804 
L 425.778036 267.386347 
L 463.225072 199.328741 
L 500.672107 179.032095 
L 538.119143 310.091321 
L 575.566178 108.257124 
L 613.013214 281.27362 
L 650.46025 267.496042 
L 687.907285 226.813702 
L 725.354321 326.605606 
L 762.801356 300.259367 
L 800.248392 297.417531 
L 837.695427 322.646343 
L 875.142463 313.976964 
L 912.589499 302.317154 
L 950.036534 336.098099 
" style="fill:none;stroke:#7cb5ec;stroke-linecap:square;"/>
   </g>
   <g id="line2d_9">
    <path clip-path="url(#p142ed6cbd6)" d="M 88.754716 142.382155 
L 126.201751 176.126518 
L 163.648787 212.193616 
L 201.095823 266.502729 
L 238.542858 216.547407 
L 275.989894 213.059086 
L 313.436929 217.170277 
L 350.883965 239.349034 
L 388.331 221.255265 
L 425.778036 273.169213 
L 463.225072 211.509725 
L 500.672107 195.426692 
L 538.119143 312.071401 
L 575.566178 57.187594 
L 613.013214 285.095066 
L 650.46025 269.890457 
L 687.907285 176.617125 
L 725.354321 328.433932 
L 762.801356 299.195705 
L 800.248392 297.441533 
L 837.695427 323.048837 
L 875.142463 313.961817 
L 912.589499 304.441823 
L 950.036534 332.208109 
" style="fill:none;stroke:#434348;stroke-linecap:square;"/>
   </g>
   <g id="line2d_10">
    <path clip-path="url(#p142ed6cbd6)" d="M 88.754716 121.674346 
L 126.201751 151.712347 
L 163.648787 218.701856 
L 201.095823 253.214134 
L 238.542858 203.232914 
L 275.989894 225.938106 
L 313.436929 198.38365 
L 350.883965 227.703699 
L 388.331 233.301278 
L 425.778036 264.914582 
L 463.225072 194.02646 
L 500.672107 186.253759 
L 538.119143 309.076525 
L 575.566178 178.571839 
L 613.013214 281.521147 
L 650.46025 249.737098 
L 687.907285 203.456886 
L 725.354321 326.815427 
L 762.801356 298.936199 
L 800.248392 293.583121 
L 837.695427 316.29366 
L 875.142463 314.938581 
L 912.589499 301.188949 
L 950.036534 332.273239 
" style="fill:none;stroke:#90ed7d;stroke-linecap:square;"/>
   </g>
   <g id="line2d_11">
    <path clip-path="url(#p142ed6cbd6)" d="M 88.754716 131.977079 
L 126.201751 158.8848 
L 163.648787 218.755083 
L 201.095823 263.998886 
L 238.542858 215.537062 
L 275.989894 226.078873 
L 313.436929 222.314281 
L 350.883965 240.384416 
L 388.331 210.419859 
L 425.778036 276.737478 
L 463.225072 200.938623 
L 500.672107 173.641213 
L 538.119143 313.998188 
L 575.566178 104.286541 
L 613.013214 289.489718 
L 650.46025 248.404954 
L 687.907285 209.721162 
L 725.354321 328.728568 
L 762.801356 300.514854 
L 800.248392 301.944015 
L 837.695427 299.18019 
L 875.142463 319.299684 
L 912.589499 304.544303 
L 950.036534 330.897654 
" style="fill:none;stroke:#f7a35c;stroke-linecap:square;"/>
   </g>
   <g id="line2d_12">
    <path clip-path="url(#p142ed6cbd6)" d="M 88.754716 129.216907 
L 126.201751 154.24858 
L 163.648787 206.516751 
L 201.095823 251.746716 
L 238.542858 199.14379 
L 275.989894 216.500735 
L 313.436929 204.593855 
L 350.883965 230.48519 
L 388.331 231.931666 
L 425.778036 265.726607 
L 463.225072 206.621995 
L 500.672107 192.148242 
L 538.119143 307.788378 
L 575.566178 127.151352 
L 613.013214 280.735976 
L 650.46025 269.306827 
L 687.907285 204.584682 
L 725.354321 326.028572 
L 762.801356 302.893089 
L 800.248392 298.787645 
L 837.695427 324.48467 
L 875.142463 316.631584 
L 912.589499 300.637923 
L 950.036534 336.418979 
" style="fill:none;stroke:#8085e9;stroke-linecap:square;"/>
   </g>
   <g id="line2d_13">
    <path clip-path="url(#p142ed6cbd6)" d="M 88.754716 122.008032 
L 126.201751 152.186557 
L 163.648787 215.488563 
L 201.095823 252.47287 
L 238.542858 202.611028 
L 275.989894 226.867621 
L 313.436929 196.214004 
L 350.883965 228.785566 
L 388.331 238.500234 
L 425.778036 263.769771 
L 463.225072 199.827242 
L 500.672107 196.052462 
L 538.119143 308.021524 
L 575.566178 164.910009 
L 613.013214 280.958128 
L 650.46025 255.812412 
L 687.907285 189.868715 
L 725.354321 326.898726 
L 762.801356 300.933309 
L 800.248392 292.908712 
L 837.695427 321.422688 
L 875.142463 314.672263 
L 912.589499 301.202369 
L 950.036534 331.607917 
" style="fill:none;stroke:#f15c80;stroke-linecap:square;"/>
   </g>
   <g id="line2d_14">
    <path clip-path="url(#p142ed6cbd6)" d="M 88.754716 129.33076 
L 126.201751 157.670374 
L 163.648787 208.488534 
L 201.095823 259.62247 
L 238.542858 206.92638 
L 275.989894 218.617644 
L 313.436929 205.455915 
L 350.883965 232.166643 
L 388.331 233.729212 
L 425.778036 264.459447 
L 463.225072 201.868873 
L 500.672107 194.312557 
L 538.119143 310.89269 
L 575.566178 117.148201 
L 613.013214 279.697594 
L 650.46025 261.61122 
L 687.907285 205.052333 
L 725.354321 325.595269 
L 762.801356 299.838941 
L 800.248392 295.747756 
L 837.695427 323.822567 
L 875.142463 314.436338 
L 912.589499 302.004734 
L 950.036534 335.024153 
" style="fill:none;stroke:#e4d354;stroke-linecap:square;"/>
   </g>
   <g id="line2d_15">
    <path clip-path="url(#p142ed6cbd6)" d="M 88.754716 133.041642 
L 126.201751 163.847261 
L 163.648787 205.822472 
L 201.095823 265.007484 
L 238.542858 215.301159 
L 275.989894 226.532337 
L 313.436929 206.774243 
L 350.883965 234.460915 
L 388.331 226.627578 
L 425.778036 266.112965 
L 463.225072 200.540001 
L 500.672107 193.356461 
L 538.119143 312.579356 
L 575.566178 96.439565 
L 613.013214 281.608473 
L 650.46025 254.937684 
L 687.907285 206.640791 
L 725.354321 327.119312 
L 762.801356 298.181965 
L 800.248392 294.583089 
L 837.695427 323.714375 
L 875.142463 313.74261 
L 912.589499 304.327031 
L 950.036534 332.457486 
" style="fill:none;stroke:#2b908f;stroke-linecap:square;"/>
   </g>
   <g id="line2d_16">
    <path clip-path="url(#p142ed6cbd6)" d="M 88.754716 126.31237 
L 126.201751 154.66839 
L 163.648787 210.466308 
L 201.095823 258.841407 
L 238.542858 204.135372 
L 275.989894 218.916804 
L 313.436929 200.032204 
L 350.883965 228.030847 
L 388.331 233.016794 
L 425.778036 262.585398 
L 463.225072 200.694063 
L 500.672107 186.746511 
L 538.119143 311.310559 
L 575.566178 155.477679 
L 613.013214 279.293492 
L 650.46025 255.353225 
L 687.907285 212.943075 
L 725.354321 325.136284 
L 762.801356 298.123847 
L 800.248392 291.504634 
L 837.695427 320.178585 
L 875.142463 313.250895 
L 912.589499 301.932886 
L 950.036534 335.140928 
" style="fill:none;stroke:#f45b5b;stroke-linecap:square;"/>
   </g>
   <g id="line2d_17">
    <path clip-path="url(#p142ed6cbd6)" d="M 88.754716 125.863703 
L 126.201751 149.860349 
L 163.648787 205.888212 
L 201.095823 254.388455 
L 238.542858 199.934146 
L 275.989894 204.166243 
L 313.436929 203.775919 
L 350.883965 231.708313 
L 388.331 234.797438 
L 425.778036 262.962909 
L 463.225072 205.453544 
L 500.672107 191.522828 
L 538.119143 311.286797 
L 575.566178 143.625316 
L 613.013214 278.314438 
L 650.46025 266.084961 
L 687.907285 222.268849 
L 725.354321 323.639211 
L 762.801356 298.451284 
L 800.248392 294.80954 
L 837.695427 321.969037 
L 875.142463 314.01462 
L 912.589499 301.445532 
L 950.036534 337.682349 
" style="fill:none;stroke:#91e8e1;stroke-linecap:square;"/>
   </g>
   <g id="line2d_18">
    <path clip-path="url(#p142ed6cbd6)" d="M 88.754716 136.064555 
L 126.201751 164.99519 
L 163.648787 208.24459 
L 201.095823 263.790281 
L 238.542858 209.264556 
L 275.989894 216.457212 
L 313.436929 208.994998 
L 350.883965 234.160087 
L 388.331 221.842249 
L 425.778036 267.37184 
L 463.225072 206.953211 
L 500.672107 183.988589 
L 538.119143 311.204309 
L 575.566178 103.509028 
L 613.013214 282.873724 
L 650.46025 263.789948 
L 687.907285 205.973724 
L 725.354321 326.569202 
L 762.801356 299.106275 
L 800.248392 294.627615 
L 837.695427 321.200051 
L 875.142463 314.186769 
L 912.589499 303.922657 
L 950.036534 334.848797 
" style="fill:none;stroke:#7cb5ec;stroke-linecap:square;"/>
   </g>
   <g id="line2d_19">
    <path clip-path="url(#p142ed6cbd6)" d="M 88.754716 139.586451 
L 126.201751 165.266645 
L 163.648787 206.13753 
L 201.095823 261.930826 
L 238.542858 210.210866 
L 275.989894 220.392017 
L 313.436929 207.258226 
L 350.883965 233.309571 
L 388.331 220.279822 
L 425.778036 268.175946 
L 463.225072 200.682071 
L 500.672107 194.425632 
L 538.119143 311.176764 
L 575.566178 87.021145 
L 613.013214 283.707517 
L 650.46025 262.763986 
L 687.907285 209.700675 
L 725.354321 327.558538 
L 762.801356 302.931081 
L 800.248392 298.193116 
L 837.695427 323.829421 
L 875.142463 315.74559 
L 912.589499 303.115962 
L 950.036534 330.438579 
" style="fill:none;stroke:#434348;stroke-linecap:square;"/>
   </g>
   <g id="line2d_20">
    <path clip-path="url(#p142ed6cbd6)" d="M 88.754716 133.831861 
L 126.201751 164.887349 
L 163.648787 216.491818 
L 201.095823 263.090917 
L 238.542858 213.926528 
L 275.989894 234.240863 
L 313.436929 204.147457 
L 350.883965 231.511278 
L 388.331 229.111446 
L 425.778036 266.878201 
L 463.225072 198.453828 
L 500.672107 190.179043 
L 538.119143 309.628691 
L 575.566178 128.195137 
L 613.013214 283.080664 
L 650.46025 252.9056 
L 687.907285 175.203692 
L 725.354321 328.114989 
L 762.801356 298.527913 
L 800.248392 291.687621 
L 837.695427 320.074664 
L 875.142463 313.919513 
L 912.589499 304.197207 
L 950.036534 331.909113 
" style="fill:none;stroke:#90ed7d;stroke-linecap:square;"/>
   </g>
   <g id="line2d_21">
    <path clip-path="url(#p142ed6cbd6)" d="M 88.754716 136.63015 
L 126.201751 162.516745 
L 163.648787 204.058777 
L 201.095823 259.389606 
L 238.542858 209.369212 
L 275.989894 212.985255 
L 313.436929 208.988055 
L 350.883965 234.695232 
L 388.331 226.368902 
L 425.778036 266.935508 
L 463.225072 207.114006 
L 500.672107 195.211064 
L 538.119143 310.059186 
L 575.566178 89.516918 
L 613.013214 282.950882 
L 650.46025 268.739826 
L 687.907285 202.443198 
L 725.354321 326.610235 
L 762.801356 301.191734 
L 800.248392 298.535345 
L 837.695427 324.253132 
L 875.142463 314.601333 
L 912.589499 302.689453 
L 950.036534 338.256619 
" style="fill:none;stroke:#f7a35c;stroke-linecap:square;"/>
   </g>
   <g id="line2d_22">
    <path clip-path="url(#p142ed6cbd6)" d="M 88.754716 124.280657 
L 126.201751 149.883149 
L 163.648787 213.585767 
L 201.095823 250.712969 
L 238.542858 197.87085 
L 275.989894 227.4347 
L 313.436929 191.475276 
L 350.883965 222.558101 
L 388.331 242.24474 
L 425.778036 261.180324 
L 463.225072 194.704267 
L 500.672107 194.094733 
L 538.119143 307.422723 
L 575.566178 176.581396 
L 613.013214 278.631843 
L 650.46025 250.385456 
L 687.907285 209.032868 
L 725.354321 326.185904 
L 762.801356 300.626915 
L 800.248392 292.205359 
L 837.695427 322.266439 
L 875.142463 314.826508 
L 912.589499 300.731216 
L 950.036534 334.710526 
" style="fill:none;stroke:#8085e9;stroke-linecap:square;"/>
   </g>
   <g id="line2d_23">
    <path clip-path="url(#p142ed6cbd6)" d="M 88.754716 124.503895 
L 126.201751 148.298936 
L 163.648787 209.458906 
L 201.095823 251.441111 
L 238.542858 197.581707 
L 275.989894 221.860855 
L 313.436929 196.782052 
L 350.883965 225.80209 
L 388.331 241.218226 
L 425.778036 261.126047 
L 463.225072 200.634385 
L 500.672107 190.397546 
L 538.119143 305.158702 
L 575.566178 171.50992 
L 613.013214 279.466538 
L 650.46025 260.835095 
L 687.907285 202.616632 
L 725.354321 325.585168 
L 762.801356 300.887151 
L 800.248392 294.570033 
L 837.695427 323.458085 
L 875.142463 315.462698 
L 912.589499 299.226499 
L 950.036534 336.060108 
" style="fill:none;stroke:#f15c80;stroke-linecap:square;"/>
   </g>
   <g id="line2d_24">
    <path clip-path="url(#p142ed6cbd6)" d="M 88.754716 126.515356 
L 126.201751 146.180004 
L 163.648787 211.188969 
L 201.095823 252.997136 
L 238.542858 200.765054 
L 275.989894 217.882708 
L 313.436929 201.557398 
L 350.883965 227.099696 
L 388.331 234.175483 
L 425.778036 263.28652 
L 463.225072 205.179575 
L 500.672107 184.384431 
L 538.119143 308.159976 
L 575.566178 136.78791 
L 613.013214 278.745626 
L 650.46025 264.143933 
L 687.907285 220.327972 
L 725.354321 325.273985 
L 762.801356 301.419447 
L 800.248392 297.169847 
L 837.695427 325.727695 
L 875.142463 316.232693 
L 912.589499 300.633855 
L 950.036534 338.139735 
" style="fill:none;stroke:#e4d354;stroke-linecap:square;"/>
   </g>
   <g id="line2d_25">
    <path clip-path="url(#p142ed6cbd6)" d="M 88.754716 138.549395 
L 126.201751 174.097801 
L 163.648787 202.243252 
L 201.095823 270.312355 
L 238.542858 220.188021 
L 275.989894 212.004629 
L 313.436929 225.299594 
L 350.883965 249.128808 
L 388.331 209.790295 
L 425.778036 272.648954 
L 463.225072 221.519089 
L 500.672107 203.988777 
L 538.119143 316.340075 
L 575.566178 49.708991 
L 613.013214 285.124491 
L 650.46025 276.224034 
L 687.907285 141.968516 
L 725.354321 327.019692 
L 762.801356 302.0202 
L 800.248392 302.929129 
L 837.695427 326.573927 
L 875.142463 315.598103 
L 912.589499 304.958407 
L 950.036534 336.558011 
" style="fill:none;stroke:#2b908f;stroke-linecap:square;"/>
   </g>
   <g id="line2d_26">
    <path clip-path="url(#p142ed6cbd6)" d="M 88.754716 139.30935 
L 126.201751 176.552395 
L 163.648787 214.597872 
L 201.095823 268.256082 
L 238.542858 220.183215 
L 275.989894 218.695046 
L 313.436929 218.195496 
L 350.883965 242.631255 
L 388.331 219.276118 
L 425.778036 272.929687 
L 463.225072 212.100692 
L 500.672107 199.846692 
L 538.119143 313.928986 
L 575.566178 79.425663 
L 613.013214 286.984647 
L 650.46025 268.228583 
L 687.907285 125.716704 
L 725.354321 328.600937 
L 762.801356 302.291977 
L 800.248392 298.480727 
L 837.695427 323.79872 
L 875.142463 314.544086 
L 912.589499 305.479477 
L 950.036534 334.725874 
" style="fill:none;stroke:#f45b5b;stroke-linecap:square;"/>
   </g>
   <g id="line2d_27">
    <path clip-path="url(#p142ed6cbd6)" d="M 88.754716 131.271641 
L 126.201751 175.74952 
L 163.648787 206.834297 
L 201.095823 271.758903 
L 238.542858 222.538291 
L 275.989894 221.416513 
L 313.436929 217.60775 
L 350.883965 245.01168 
L 388.331 212.417889 
L 425.778036 271.238372 
L 463.225072 213.13918 
L 500.672107 205.622593 
L 538.119143 315.288399 
L 575.566178 70.489853 
L 613.013214 286.948261 
L 650.46025 266.518314 
L 687.907285 141.265202 
L 725.354321 328.243064 
L 762.801356 301.622984 
L 800.248392 298.645142 
L 837.695427 324.71126 
L 875.142463 314.356193 
L 912.589499 306.147961 
L 950.036534 335.966434 
" style="fill:none;stroke:#91e8e1;stroke-linecap:square;"/>
   </g>
   <g id="line2d_28">
    <path clip-path="url(#p142ed6cbd6)" d="M 88.754716 123.57609 
L 126.201751 153.018805 
L 163.648787 212.447489 
L 201.095823 253.487576 
L 238.542858 201.95696 
L 275.989894 231.04057 
L 313.436929 197.863332 
L 350.883965 226.642253 
L 388.331 236.905688 
L 425.778036 263.272126 
L 463.225072 193.919583 
L 500.672107 193.085244 
L 538.119143 308.42101 
L 575.566178 161.639916 
L 613.013214 281.000342 
L 650.46025 256.930162 
L 687.907285 195.906933 
L 725.354321 326.845725 
L 762.801356 300.661588 
L 800.248392 293.087928 
L 837.695427 321.982365 
L 875.142463 315.733542 
L 912.589499 300.755156 
L 950.036534 333.871533 
" style="fill:none;stroke:#7cb5ec;stroke-linecap:square;"/>
   </g>
   <g id="line2d_29">
    <path clip-path="url(#p142ed6cbd6)" d="M 88.754716 128.852894 
L 126.201751 154.233279 
L 163.648787 211.921742 
L 201.095823 252.835534 
L 238.542858 198.146038 
L 275.989894 204.239051 
L 313.436929 204.856933 
L 350.883965 232.055788 
L 388.331 238.900707 
L 425.778036 264.82819 
L 463.225072 209.302962 
L 500.672107 192.851542 
L 538.119143 308.631344 
L 575.566178 132.894689 
L 613.013214 280.032719 
L 650.46025 268.644035 
L 687.907285 201.052339 
L 725.354321 325.290662 
L 762.801356 298.312872 
L 800.248392 297.517446 
L 837.695427 324.457278 
L 875.142463 314.575188 
L 912.589499 300.238846 
L 950.036534 338.770809 
" style="fill:none;stroke:#434348;stroke-linecap:square;"/>
   </g>
   <g id="line2d_30">
    <path clip-path="url(#p142ed6cbd6)" d="M 88.754716 131.720571 
L 126.201751 159.539515 
L 163.648787 210.844436 
L 201.095823 259.295599 
L 238.542858 205.197719 
L 275.989894 207.822973 
L 313.436929 202.358867 
L 350.883965 229.362742 
L 388.331 223.883035 
L 425.778036 265.880586 
L 463.225072 195.593941 
L 500.672107 183.116637 
L 538.119143 309.726681 
L 575.566178 141.860588 
L 613.013214 280.734605 
L 650.46025 257.622238 
L 687.907285 233.585331 
L 725.354321 326.512377 
L 762.801356 296.238394 
L 800.248392 292.374187 
L 837.695427 318.804426 
L 875.142463 314.625432 
L 912.589499 302.394316 
L 950.036534 334.660613 
" style="fill:none;stroke:#90ed7d;stroke-linecap:square;"/>
   </g>
   <g id="line2d_31">
    <path clip-path="url(#p142ed6cbd6)" d="M 88.754716 123.969136 
L 126.201751 151.538161 
L 163.648787 214.114841 
L 201.095823 256.634816 
L 238.542858 200.052 
L 275.989894 227.819469 
L 313.436929 194.154092 
L 350.883965 224.900096 
L 388.331 242.493946 
L 425.778036 259.964299 
L 463.225072 195.303518 
L 500.672107 191.45412 
L 538.119143 308.669265 
L 575.566178 177.094894 
L 613.013214 278.020261 
L 650.46025 249.588265 
L 687.907285 210.411153 
L 725.354321 325.344745 
L 762.801356 297.578949 
L 800.248392 289.220695 
L 837.695427 318.320929 
L 875.142463 313.563248 
L 912.589499 300.290889 
L 950.036534 333.557393 
" style="fill:none;stroke:#f7a35c;stroke-linecap:square;"/>
   </g>
   <g id="line2d_32">
    <path clip-path="url(#p142ed6cbd6)" d="M 88.754716 118.336055 
L 126.201751 151.242702 
L 163.648787 216.853187 
L 201.095823 256.90664 
L 238.542858 204.417826 
L 275.989894 251.870116 
L 313.436929 192.562958 
L 350.883965 228.993318 
L 388.331 249.045019 
L 425.778036 261.754946 
L 463.225072 190.417888 
L 500.672107 204.777493 
L 538.119143 309.693073 
L 575.566178 190.87927 
L 613.013214 280.838709 
L 650.46025 234.055284 
L 687.907285 221.721223 
L 725.354321 326.784886 
L 762.801356 295.44344 
L 800.248392 279.886608 
L 837.695427 302.77727 
L 875.142463 314.630374 
L 912.589499 298.994412 
L 950.036534 301.433882 
" style="fill:none;stroke:#8085e9;stroke-linecap:square;"/>
   </g>
   <g id="line2d_33">
    <path clip-path="url(#p142ed6cbd6)" d="M 88.754716 125.243148 
L 126.201751 150.362302 
L 163.648787 212.894084 
L 201.095823 252.698725 
L 238.542858 198.681856 
L 275.989894 224.971512 
L 313.436929 194.607454 
L 350.883965 224.34819 
L 388.331 240.247568 
L 425.778036 262.083009 
L 463.225072 194.851016 
L 500.672107 191.456871 
L 538.119143 306.558547 
L 575.566178 167.116024 
L 613.013214 279.34449 
L 650.46025 253.870127 
L 687.907285 212.086199 
L 725.354321 326.352739 
L 762.801356 300.214839 
L 800.248392 292.93202 
L 837.695427 322.832819 
L 875.142463 315.285008 
L 912.589499 299.924184 
L 950.036534 334.541174 
" style="fill:none;stroke:#f15c80;stroke-linecap:square;"/>
   </g>
   <g id="line2d_34">
    <path clip-path="url(#p142ed6cbd6)" d="M 88.754716 140.780895 
L 126.201751 168.548831 
L 163.648787 205.353209 
L 201.095823 264.440793 
L 238.542858 210.042211 
L 275.989894 219.026681 
L 313.436929 208.715208 
L 350.883965 232.294833 
L 388.331 219.517504 
L 425.778036 269.645888 
L 463.225072 207.378829 
L 500.672107 194.352896 
L 538.119143 312.419122 
L 575.566178 77.989616 
L 613.013214 283.849563 
L 650.46025 261.557918 
L 687.907285 204.032323 
L 725.354321 328.240015 
L 762.801356 299.515839 
L 800.248392 297.485397 
L 837.695427 324.722907 
L 875.142463 315.113489 
L 912.589499 303.838543 
L 950.036534 334.999509 
" style="fill:none;stroke:#e4d354;stroke-linecap:square;"/>
   </g>
   <g id="line2d_35">
    <path clip-path="url(#p142ed6cbd6)" d="M 88.754716 133.520839 
L 126.201751 161.921523 
L 163.648787 212.635127 
L 201.095823 259.622308 
L 238.542858 208.441556 
L 275.989894 222.702711 
L 313.436929 202.402979 
L 350.883965 229.982067 
L 388.331 230.804085 
L 425.778036 264.9736 
L 463.225072 203.999192 
L 500.672107 188.500171 
L 538.119143 309.246966 
L 575.566178 102.128842 
L 613.013214 281.17414 
L 650.46025 261.109344 
L 687.907285 210.007562 
L 725.354321 327.070121 
L 762.801356 298.641626 
L 800.248392 295.427779 
L 837.695427 324.966735 
L 875.142463 314.83418 
L 912.589499 302.306837 
L 950.036534 337.076211 
" style="fill:none;stroke:#2b908f;stroke-linecap:square;"/>
   </g>
   <g id="line2d_36">
    <path clip-path="url(#p142ed6cbd6)" d="M 88.754716 123.176011 
L 126.201751 162.015248 
L 163.648787 224.754306 
L 201.095823 266.608785 
L 238.542858 218.569643 
L 275.989894 244.131768 
L 313.436929 194.094184 
L 350.883965 231.796238 
L 388.331 246.311313 
L 425.778036 264.583216 
L 463.225072 195.787959 
L 500.672107 200.652064 
L 538.119143 310.361684 
L 575.566178 179.173611 
L 613.013214 281.383617 
L 650.46025 234.500348 
L 687.907285 184.09091 
L 725.354321 328.321444 
L 762.801356 283.381201 
L 800.248392 274.394425 
L 837.695427 305.20342 
L 875.142463 307.646561 
L 912.589499 303.437304 
L 950.036534 319.383064 
" style="fill:none;stroke:#f45b5b;stroke-linecap:square;"/>
   </g>
   <g id="line2d_37">
    <path clip-path="url(#p142ed6cbd6)" d="M 88.754716 131.088751 
L 126.201751 166.154855 
L 163.648787 205.699834 
L 201.095823 266.331937 
L 238.542858 213.603658 
L 275.989894 233.815566 
L 313.436929 200.753729 
L 350.883965 232.948151 
L 388.331 229.367289 
L 425.778036 264.814866 
L 463.225072 201.724731 
L 500.672107 204.098863 
L 538.119143 313.203237 
L 575.566178 102.454716 
L 613.013214 281.201409 
L 650.46025 249.230225 
L 687.907285 211.621585 
L 725.354321 327.685478 
L 762.801356 291.946317 
L 800.248392 289.832845 
L 837.695427 320.795883 
L 875.142463 312.678247 
L 912.589499 302.542322 
L 950.036534 330.058914 
" style="fill:none;stroke:#91e8e1;stroke-linecap:square;"/>
   </g>
   <g id="line2d_38">
    <path clip-path="url(#p142ed6cbd6)" d="M 88.754716 129.89616 
L 126.201751 154.572298 
L 163.648787 205.299054 
L 201.095823 259.466757 
L 238.542858 207.098714 
L 275.989894 217.646913 
L 313.436929 209.620425 
L 350.883965 233.719916 
L 388.331 225.794853 
L 425.778036 266.053716 
L 463.225072 208.344289 
L 500.672107 194.190906 
L 538.119143 311.961269 
L 575.566178 99.410025 
L 613.013214 279.790018 
L 650.46025 263.826242 
L 687.907285 212.76773 
L 725.354321 325.682912 
L 762.801356 299.916642 
L 800.248392 296.945253 
L 837.695427 325.375407 
L 875.142463 315.147385 
L 912.589499 303.054704 
L 950.036534 338.388517 
" style="fill:none;stroke:#7cb5ec;stroke-linecap:square;"/>
   </g>
   <g id="line2d_39">
    <path clip-path="url(#p142ed6cbd6)" d="M 88.754716 133.429757 
L 126.201751 164.441831 
L 163.648787 213.165832 
L 201.095823 265.379906 
L 238.542858 214.906137 
L 275.989894 225.992901 
L 313.436929 208.384828 
L 350.883965 235.04746 
L 388.331 219.736401 
L 425.778036 267.595793 
L 463.225072 204.407763 
L 500.672107 184.547716 
L 538.119143 314.298908 
L 575.566178 118.689183 
L 613.013214 282.800121 
L 650.46025 253.482803 
L 687.907285 188.114324 
L 725.354321 326.943546 
L 762.801356 297.289105 
L 800.248392 292.571555 
L 837.695427 320.536575 
L 875.142463 313.278585 
L 912.589499 304.887651 
L 950.036534 334.62257 
" style="fill:none;stroke:#434348;stroke-linecap:square;"/>
   </g>
   <g id="line2d_40">
    <path clip-path="url(#p142ed6cbd6)" d="M 88.754716 124.812935 
L 126.201751 156.801855 
L 163.648787 216.753492 
L 201.095823 262.624967 
L 238.542858 209.773034 
L 275.989894 229.00687 
L 313.436929 197.688722 
L 350.883965 229.697926 
L 388.331 233.574408 
L 425.778036 263.803145 
L 463.225072 197.474802 
L 500.672107 190.862482 
L 538.119143 312.853719 
L 575.566178 161.94178 
L 613.013214 280.282793 
L 650.46025 243.562026 
L 687.907285 204.269048 
L 725.354321 326.497835 
L 762.801356 294.057132 
L 800.248392 285.500088 
L 837.695427 316.037524 
L 875.142463 311.984031 
L 912.589499 303.226659 
L 950.036534 331.564937 
" style="fill:none;stroke:#90ed7d;stroke-linecap:square;"/>
   </g>
   <g id="line2d_41">
    <path clip-path="url(#p142ed6cbd6)" d="M 88.754716 135.813906 
L 126.201751 167.429027 
L 163.648787 204.387774 
L 201.095823 268.313718 
L 238.542858 217.17871 
L 275.989894 216.233197 
L 313.436929 214.769289 
L 350.883965 242.250165 
L 388.331 215.324089 
L 425.778036 268.931543 
L 463.225072 215.055857 
L 500.672107 200.79233 
L 538.119143 315.919305 
L 575.566178 82.669314 
L 613.013214 283.478243 
L 650.46025 263.951392 
L 687.907285 174.233344 
L 725.354321 326.315364 
L 762.801356 298.210053 
L 800.248392 295.961369 
L 837.695427 323.872227 
L 875.142463 313.427158 
L 912.589499 304.644724 
L 950.036534 335.467973 
" style="fill:none;stroke:#f7a35c;stroke-linecap:square;"/>
   </g>
   <g id="line2d_42">
    <path clip-path="url(#p142ed6cbd6)" d="M 45.690625 350.059099 
L 993.100625 350.059099 
" style="fill:none;stroke:#dedede;stroke-linecap:square;stroke-width:2;"/>
   </g>
   <g id="text_34">
    <!-- Samtools idxstats: Mapped reads per contig -->
    <g transform="translate(343.116875 19.3575)scale(0.16 -0.16)">
     <defs>
      <path d="M 3425 4513 
L 3425 3897 
Q 3066 4069 2747 4153 
Q 2428 4238 2131 4238 
Q 1616 4238 1336 4038 
Q 1056 3838 1056 3469 
Q 1056 3159 1242 3001 
Q 1428 2844 1947 2747 
L 2328 2669 
Q 3034 2534 3370 2195 
Q 3706 1856 3706 1288 
Q 3706 609 3251 259 
Q 2797 -91 1919 -91 
Q 1588 -91 1214 -16 
Q 841 59 441 206 
L 441 856 
Q 825 641 1194 531 
Q 1563 422 1919 422 
Q 2459 422 2753 634 
Q 3047 847 3047 1241 
Q 3047 1584 2836 1778 
Q 2625 1972 2144 2069 
L 1759 2144 
Q 1053 2284 737 2584 
Q 422 2884 422 3419 
Q 422 4038 858 4394 
Q 1294 4750 2059 4750 
Q 2388 4750 2728 4690 
Q 3069 4631 3425 4513 
z
" id="DejaVuSans-53" transform="scale(0.015625)"/>
      <path d="M 2906 2969 
L 2906 4863 
L 3481 4863 
L 3481 0 
L 2906 0 
L 2906 525 
Q 2725 213 2448 61 
Q 2172 -91 1784 -91 
Q 1150 -91 751 415 
Q 353 922 353 1747 
Q 353 2572 751 3078 
Q 1150 3584 1784 3584 
Q 2172 3584 2448 3432 
Q 2725 3281 2906 2969 
z
M 947 1747 
Q 947 1113 1208 752 
Q 1469 391 1925 391 
Q 2381 391 2643 752 
Q 2906 1113 2906 1747 
Q 2906 2381 2643 2742 
Q 2381 3103 1925 3103 
Q 1469 3103 1208 2742 
Q 947 2381 947 1747 
z
" id="DejaVuSans-64" transform="scale(0.015625)"/>
      <path d="M 3513 3500 
L 2247 1797 
L 3578 0 
L 2900 0 
L 1881 1375 
L 863 0 
L 184 0 
L 1544 1831 
L 300 3500 
L 978 3500 
L 1906 2253 
L 2834 3500 
L 3513 3500 
z
" id="DejaVuSans-78" transform="scale(0.015625)"/>
      <path d="M 750 794 
L 1409 794 
L 1409 0 
L 750 0 
L 750 794 
z
M 750 3309 
L 1409 3309 
L 1409 2516 
L 750 2516 
L 750 3309 
z
" id="DejaVuSans-3a" transform="scale(0.015625)"/>
      <path d="M 1159 525 
L 1159 -1331 
L 581 -1331 
L 581 3500 
L 1159 3500 
L 1159 2969 
Q 1341 3281 1617 3432 
Q 1894 3584 2278 3584 
Q 2916 3584 3314 3078 
Q 3713 2572 3713 1747 
Q 3713 922 3314 415 
Q 2916 -91 2278 -91 
Q 1894 -91 1617 61 
Q 1341 213 1159 525 
z
M 3116 1747 
Q 3116 2381 2855 2742 
Q 2594 3103 2138 3103 
Q 1681 3103 1420 2742 
Q 1159 2381 1159 1747 
Q 1159 1113 1420 752 
Q 1681 391 2138 391 
Q 2594 391 2855 752 
Q 3116 1113 3116 1747 
z
" id="DejaVuSans-70" transform="scale(0.015625)"/>
      <path d="M 2906 1791 
Q 2906 2416 2648 2759 
Q 2391 3103 1925 3103 
Q 1463 3103 1205 2759 
Q 947 2416 947 1791 
Q 947 1169 1205 825 
Q 1463 481 1925 481 
Q 2391 481 2648 825 
Q 2906 1169 2906 1791 
z
M 3481 434 
Q 3481 -459 3084 -895 
Q 2688 -1331 1869 -1331 
Q 1566 -1331 1297 -1286 
Q 1028 -1241 775 -1147 
L 775 -588 
Q 1028 -725 1275 -790 
Q 1522 -856 1778 -856 
Q 2344 -856 2625 -561 
Q 2906 -266 2906 331 
L 2906 616 
Q 2728 306 2450 153 
Q 2172 0 1784 0 
Q 1141 0 747 490 
Q 353 981 353 1791 
Q 353 2603 747 3093 
Q 1141 3584 1784 3584 
Q 2172 3584 2450 3431 
Q 2728 3278 2906 2969 
L 2906 3500 
L 3481 3500 
L 3481 434 
z
" id="DejaVuSans-67" transform="scale(0.015625)"/>
     </defs>
     <use xlink:href="#DejaVuSans-53"/>
     <use x="63.476562" xlink:href="#DejaVuSans-61"/>
     <use x="124.755859" xlink:href="#DejaVuSans-6d"/>
     <use x="222.167969" xlink:href="#DejaVuSans-74"/>
     <use x="261.376953" xlink:href="#DejaVuSans-6f"/>
     <use x="322.558594" xlink:href="#DejaVuSans-6f"/>
     <use x="383.740234" xlink:href="#DejaVuSans-6c"/>
     <use x="411.523438" xlink:href="#DejaVuSans-73"/>
     <use x="463.623047" xlink:href="#DejaVuSans-20"/>
     <use x="495.410156" xlink:href="#DejaVuSans-69"/>
     <use x="523.193359" xlink:href="#DejaVuSans-64"/>
     <use x="586.669922" xlink:href="#DejaVuSans-78"/>
     <use x="645.849609" xlink:href="#DejaVuSans-73"/>
     <use x="697.949219" xlink:href="#DejaVuSans-74"/>
     <use x="737.158203" xlink:href="#DejaVuSans-61"/>
     <use x="798.4375" xlink:href="#DejaVuSans-74"/>
     <use x="837.646484" xlink:href="#DejaVuSans-73"/>
     <use x="889.746094" xlink:href="#DejaVuSans-3a"/>
     <use x="923.4375" xlink:href="#DejaVuSans-20"/>
     <use x="955.224609" xlink:href="#DejaVuSans-4d"/>
     <use x="1041.503906" xlink:href="#DejaVuSans-61"/>
     <use x="1102.783203" xlink:href="#DejaVuSans-70"/>
     <use x="1166.259766" xlink:href="#DejaVuSans-70"/>
     <use x="1229.736328" xlink:href="#DejaVuSans-65"/>
     <use x="1291.259766" xlink:href="#DejaVuSans-64"/>
     <use x="1354.736328" xlink:href="#DejaVuSans-20"/>
     <use x="1386.523438" xlink:href="#DejaVuSans-72"/>
     <use x="1425.386719" xlink:href="#DejaVuSans-65"/>
     <use x="1486.910156" xlink:href="#DejaVuSans-61"/>
     <use x="1548.189453" xlink:href="#DejaVuSans-64"/>
     <use x="1611.666016" xlink:href="#DejaVuSans-73"/>
     <use x="1663.765625" xlink:href="#DejaVuSans-20"/>
     <use x="1695.552734" xlink:href="#DejaVuSans-70"/>
     <use x="1759.029297" xlink:href="#DejaVuSans-65"/>
     <use x="1820.552734" xlink:href="#DejaVuSans-72"/>
     <use x="1861.666016" xlink:href="#DejaVuSans-20"/>
     <use x="1893.453125" xlink:href="#DejaVuSans-63"/>
     <use x="1948.433594" xlink:href="#DejaVuSans-6f"/>
     <use x="2009.615234" xlink:href="#DejaVuSans-6e"/>
     <use x="2072.994141" xlink:href="#DejaVuSans-74"/>
     <use x="2112.203125" xlink:href="#DejaVuSans-69"/>
     <use x="2139.986328" xlink:href="#DejaVuSans-67"/>
    </g>
   </g>
  </g>
 </g>
 <defs>
  <clipPath id="p142ed6cbd6">
   <rect height="317.968" width="947.41" x="45.690625" y="35.2559"/>
  </clipPath>
 </defs>
</svg>
