<?xml version="1.0" encoding="utf-8" standalone="no"?>
<!DOCTYPE svg PUBLIC "-//W3C//DTD SVG 1.1//EN"
  "http://www.w3.org/Graphics/SVG/1.1/DTD/svg11.dtd">
<svg height="388.844525pt" version="1.1" viewBox="0 0 1000.340625 388.844525" width="1000.340625pt" xmlns="http://www.w3.org/2000/svg" xmlns:xlink="http://www.w3.org/1999/xlink">
 <metadata>
  <rdf:RDF xmlns:cc="http://creativecommons.org/ns#" xmlns:dc="http://purl.org/dc/elements/1.1/" xmlns:rdf="http://www.w3.org/1999/02/22-rdf-syntax-ns#">
   <cc:Work>
    <dc:type rdf:resource="http://purl.org/dc/dcmitype/StillImage"/>
    <dc:date>2022-11-03T13:38:43.780550</dc:date>
    <dc:format>image/svg+xml</dc:format>
    <dc:creator>
     <cc:Agent>
      <dc:title>Matplotlib v3.4.2, https://matplotlib.org/</dc:title>
     </cc:Agent>
    </dc:creator>
   </cc:Work>
  </rdf:RDF>
 </metadata>
 <defs>
  <style type="text/css">*{stroke-linecap:butt;stroke-linejoin:round;}</style>
 </defs>
 <g id="figure_1">
  <g id="axes_1">
   <g id="patch_1">
    <path d="M 40.600625 353.2239 
L 993.140625 353.2239 
L 993.140625 35.2559 
L 40.600625 35.2559 
z
" style="fill:#ffffff;"/>
   </g>
   <g id="matplotlib.axis_1">
    <g id="xtick_1">
     <g id="text_1">
      <!-- 20 -->
      <g transform="translate(78.807898 366.30265)scale(0.08 -0.08)">
       <defs>
        <path d="M 1228 531 
L 3431 531 
L 3431 0 
L 469 0 
L 469 531 
Q 828 903 1448 1529 
Q 2069 2156 2228 2338 
Q 2531 2678 2651 2914 
Q 2772 3150 2772 3378 
Q 2772 3750 2511 3984 
Q 2250 4219 1831 4219 
Q 1534 4219 1204 4116 
Q 875 4013 500 3803 
L 500 4441 
Q 881 4594 1212 4672 
Q 1544 4750 1819 4750 
Q 2544 4750 2975 4387 
Q 3406 4025 3406 3419 
Q 3406 3131 3298 2873 
Q 3191 2616 2906 2266 
Q 2828 2175 2409 1742 
Q 1991 1309 1228 531 
z
" id="DejaVuSans-32" transform="scale(0.015625)"/>
        <path d="M 2034 4250 
Q 1547 4250 1301 3770 
Q 1056 3291 1056 2328 
Q 1056 1369 1301 889 
Q 1547 409 2034 409 
Q 2525 409 2770 889 
Q 3016 1369 3016 2328 
Q 3016 3291 2770 3770 
Q 2525 4250 2034 4250 
z
M 2034 4750 
Q 2819 4750 3233 4129 
Q 3647 3509 3647 2328 
Q 3647 1150 3233 529 
Q 2819 -91 2034 -91 
Q 1250 -91 836 529 
Q 422 1150 422 2328 
Q 422 3509 836 4129 
Q 1250 4750 2034 4750 
z
" id="DejaVuSans-30" transform="scale(0.015625)"/>
       </defs>
       <use xlink:href="#DejaVuSans-32"/>
       <use x="63.623047" xlink:href="#DejaVuSans-30"/>
      </g>
     </g>
    </g>
    <g id="xtick_2">
     <g id="text_2">
      <!-- 30 -->
      <g transform="translate(187.05108 366.30265)scale(0.08 -0.08)">
       <defs>
        <path d="M 2597 2516 
Q 3050 2419 3304 2112 
Q 3559 1806 3559 1356 
Q 3559 666 3084 287 
Q 2609 -91 1734 -91 
Q 1441 -91 1130 -33 
Q 819 25 488 141 
L 488 750 
Q 750 597 1062 519 
Q 1375 441 1716 441 
Q 2309 441 2620 675 
Q 2931 909 2931 1356 
Q 2931 1769 2642 2001 
Q 2353 2234 1838 2234 
L 1294 2234 
L 1294 2753 
L 1863 2753 
Q 2328 2753 2575 2939 
Q 2822 3125 2822 3475 
Q 2822 3834 2567 4026 
Q 2313 4219 1838 4219 
Q 1578 4219 1281 4162 
Q 984 4106 628 3988 
L 628 4550 
Q 988 4650 1302 4700 
Q 1616 4750 1894 4750 
Q 2613 4750 3031 4423 
Q 3450 4097 3450 3541 
Q 3450 3153 3228 2886 
Q 3006 2619 2597 2516 
z
" id="DejaVuSans-33" transform="scale(0.015625)"/>
       </defs>
       <use xlink:href="#DejaVuSans-33"/>
       <use x="63.623047" xlink:href="#DejaVuSans-30"/>
      </g>
     </g>
    </g>
    <g id="xtick_3">
     <g id="text_3">
      <!-- 40 -->
      <g transform="translate(295.294261 366.30265)scale(0.08 -0.08)">
       <defs>
        <path d="M 2419 4116 
L 825 1625 
L 2419 1625 
L 2419 4116 
z
M 2253 4666 
L 3047 4666 
L 3047 1625 
L 3713 1625 
L 3713 1100 
L 3047 1100 
L 3047 0 
L 2419 0 
L 2419 1100 
L 313 1100 
L 313 1709 
L 2253 4666 
z
" id="DejaVuSans-34" transform="scale(0.015625)"/>
       </defs>
       <use xlink:href="#DejaVuSans-34"/>
       <use x="63.623047" xlink:href="#DejaVuSans-30"/>
      </g>
     </g>
    </g>
    <g id="xtick_4">
     <g id="text_4">
      <!-- 50 -->
      <g transform="translate(403.537443 366.30265)scale(0.08 -0.08)">
       <defs>
        <path d="M 691 4666 
L 3169 4666 
L 3169 4134 
L 1269 4134 
L 1269 2991 
Q 1406 3038 1543 3061 
Q 1681 3084 1819 3084 
Q 2600 3084 3056 2656 
Q 3513 2228 3513 1497 
Q 3513 744 3044 326 
Q 2575 -91 1722 -91 
Q 1428 -91 1123 -41 
Q 819 9 494 109 
L 494 744 
Q 775 591 1075 516 
Q 1375 441 1709 441 
Q 2250 441 2565 725 
Q 2881 1009 2881 1497 
Q 2881 1984 2565 2268 
Q 2250 2553 1709 2553 
Q 1456 2553 1204 2497 
Q 953 2441 691 2322 
L 691 4666 
z
" id="DejaVuSans-35" transform="scale(0.015625)"/>
       </defs>
       <use xlink:href="#DejaVuSans-35"/>
       <use x="63.623047" xlink:href="#DejaVuSans-30"/>
      </g>
     </g>
    </g>
    <g id="xtick_5">
     <g id="text_5">
      <!-- 60 -->
      <g transform="translate(511.780625 366.30265)scale(0.08 -0.08)">
       <defs>
        <path d="M 2113 2584 
Q 1688 2584 1439 2293 
Q 1191 2003 1191 1497 
Q 1191 994 1439 701 
Q 1688 409 2113 409 
Q 2538 409 2786 701 
Q 3034 994 3034 1497 
Q 3034 2003 2786 2293 
Q 2538 2584 2113 2584 
z
M 3366 4563 
L 3366 3988 
Q 3128 4100 2886 4159 
Q 2644 4219 2406 4219 
Q 1781 4219 1451 3797 
Q 1122 3375 1075 2522 
Q 1259 2794 1537 2939 
Q 1816 3084 2150 3084 
Q 2853 3084 3261 2657 
Q 3669 2231 3669 1497 
Q 3669 778 3244 343 
Q 2819 -91 2113 -91 
Q 1303 -91 875 529 
Q 447 1150 447 2328 
Q 447 3434 972 4092 
Q 1497 4750 2381 4750 
Q 2619 4750 2861 4703 
Q 3103 4656 3366 4563 
z
" id="DejaVuSans-36" transform="scale(0.015625)"/>
       </defs>
       <use xlink:href="#DejaVuSans-36"/>
       <use x="63.623047" xlink:href="#DejaVuSans-30"/>
      </g>
     </g>
    </g>
    <g id="xtick_6">
     <g id="text_6">
      <!-- 70 -->
      <g transform="translate(620.023807 366.30265)scale(0.08 -0.08)">
       <defs>
        <path d="M 525 4666 
L 3525 4666 
L 3525 4397 
L 1831 0 
L 1172 0 
L 2766 4134 
L 525 4134 
L 525 4666 
z
" id="DejaVuSans-37" transform="scale(0.015625)"/>
       </defs>
       <use xlink:href="#DejaVuSans-37"/>
       <use x="63.623047" xlink:href="#DejaVuSans-30"/>
      </g>
     </g>
    </g>
    <g id="xtick_7">
     <g id="text_7">
      <!-- 80 -->
      <g transform="translate(728.266989 366.30265)scale(0.08 -0.08)">
       <defs>
        <path d="M 2034 2216 
Q 1584 2216 1326 1975 
Q 1069 1734 1069 1313 
Q 1069 891 1326 650 
Q 1584 409 2034 409 
Q 2484 409 2743 651 
Q 3003 894 3003 1313 
Q 3003 1734 2745 1975 
Q 2488 2216 2034 2216 
z
M 1403 2484 
Q 997 2584 770 2862 
Q 544 3141 544 3541 
Q 544 4100 942 4425 
Q 1341 4750 2034 4750 
Q 2731 4750 3128 4425 
Q 3525 4100 3525 3541 
Q 3525 3141 3298 2862 
Q 3072 2584 2669 2484 
Q 3125 2378 3379 2068 
Q 3634 1759 3634 1313 
Q 3634 634 3220 271 
Q 2806 -91 2034 -91 
Q 1263 -91 848 271 
Q 434 634 434 1313 
Q 434 1759 690 2068 
Q 947 2378 1403 2484 
z
M 1172 3481 
Q 1172 3119 1398 2916 
Q 1625 2713 2034 2713 
Q 2441 2713 2670 2916 
Q 2900 3119 2900 3481 
Q 2900 3844 2670 4047 
Q 2441 4250 2034 4250 
Q 1625 4250 1398 4047 
Q 1172 3844 1172 3481 
z
" id="DejaVuSans-38" transform="scale(0.015625)"/>
       </defs>
       <use xlink:href="#DejaVuSans-38"/>
       <use x="63.623047" xlink:href="#DejaVuSans-30"/>
      </g>
     </g>
    </g>
    <g id="xtick_8">
     <g id="text_8">
      <!-- 90 -->
      <g transform="translate(836.51017 366.30265)scale(0.08 -0.08)">
       <defs>
        <path d="M 703 97 
L 703 672 
Q 941 559 1184 500 
Q 1428 441 1663 441 
Q 2288 441 2617 861 
Q 2947 1281 2994 2138 
Q 2813 1869 2534 1725 
Q 2256 1581 1919 1581 
Q 1219 1581 811 2004 
Q 403 2428 403 3163 
Q 403 3881 828 4315 
Q 1253 4750 1959 4750 
Q 2769 4750 3195 4129 
Q 3622 3509 3622 2328 
Q 3622 1225 3098 567 
Q 2575 -91 1691 -91 
Q 1453 -91 1209 -44 
Q 966 3 703 97 
z
M 1959 2075 
Q 2384 2075 2632 2365 
Q 2881 2656 2881 3163 
Q 2881 3666 2632 3958 
Q 2384 4250 1959 4250 
Q 1534 4250 1286 3958 
Q 1038 3666 1038 3163 
Q 1038 2656 1286 2365 
Q 1534 2075 1959 2075 
z
" id="DejaVuSans-39" transform="scale(0.015625)"/>
       </defs>
       <use xlink:href="#DejaVuSans-39"/>
       <use x="63.623047" xlink:href="#DejaVuSans-30"/>
      </g>
     </g>
    </g>
    <g id="xtick_9">
     <g id="text_9">
      <!-- 100 -->
      <g transform="translate(942.208352 366.30265)scale(0.08 -0.08)">
       <defs>
        <path d="M 794 531 
L 1825 531 
L 1825 4091 
L 703 3866 
L 703 4441 
L 1819 4666 
L 2450 4666 
L 2450 531 
L 3481 531 
L 3481 0 
L 794 0 
L 794 531 
z
" id="DejaVuSans-31" transform="scale(0.015625)"/>
       </defs>
       <use xlink:href="#DejaVuSans-31"/>
       <use x="63.623047" xlink:href="#DejaVuSans-30"/>
       <use x="127.246094" xlink:href="#DejaVuSans-30"/>
      </g>
     </g>
    </g>
    <g id="text_10">
     <!-- Sequence Length (bp) -->
     <g transform="translate(461.530781 379.564837)scale(0.1 -0.1)">
      <defs>
       <path d="M 3425 4513 
L 3425 3897 
Q 3066 4069 2747 4153 
Q 2428 4238 2131 4238 
Q 1616 4238 1336 4038 
Q 1056 3838 1056 3469 
Q 1056 3159 1242 3001 
Q 1428 2844 1947 2747 
L 2328 2669 
Q 3034 2534 3370 2195 
Q 3706 1856 3706 1288 
Q 3706 609 3251 259 
Q 2797 -91 1919 -91 
Q 1588 -91 1214 -16 
Q 841 59 441 206 
L 441 856 
Q 825 641 1194 531 
Q 1563 422 1919 422 
Q 2459 422 2753 634 
Q 3047 847 3047 1241 
Q 3047 1584 2836 1778 
Q 2625 1972 2144 2069 
L 1759 2144 
Q 1053 2284 737 2584 
Q 422 2884 422 3419 
Q 422 4038 858 4394 
Q 1294 4750 2059 4750 
Q 2388 4750 2728 4690 
Q 3069 4631 3425 4513 
z
" id="DejaVuSans-53" transform="scale(0.015625)"/>
       <path d="M 3597 1894 
L 3597 1613 
L 953 1613 
Q 991 1019 1311 708 
Q 1631 397 2203 397 
Q 2534 397 2845 478 
Q 3156 559 3463 722 
L 3463 178 
Q 3153 47 2828 -22 
Q 2503 -91 2169 -91 
Q 1331 -91 842 396 
Q 353 884 353 1716 
Q 353 2575 817 3079 
Q 1281 3584 2069 3584 
Q 2775 3584 3186 3129 
Q 3597 2675 3597 1894 
z
M 3022 2063 
Q 3016 2534 2758 2815 
Q 2500 3097 2075 3097 
Q 1594 3097 1305 2825 
Q 1016 2553 972 2059 
L 3022 2063 
z
" id="DejaVuSans-65" transform="scale(0.015625)"/>
       <path d="M 947 1747 
Q 947 1113 1208 752 
Q 1469 391 1925 391 
Q 2381 391 2643 752 
Q 2906 1113 2906 1747 
Q 2906 2381 2643 2742 
Q 2381 3103 1925 3103 
Q 1469 3103 1208 2742 
Q 947 2381 947 1747 
z
M 2906 525 
Q 2725 213 2448 61 
Q 2172 -91 1784 -91 
Q 1150 -91 751 415 
Q 353 922 353 1747 
Q 353 2572 751 3078 
Q 1150 3584 1784 3584 
Q 2172 3584 2448 3432 
Q 2725 3281 2906 2969 
L 2906 3500 
L 3481 3500 
L 3481 -1331 
L 2906 -1331 
L 2906 525 
z
" id="DejaVuSans-71" transform="scale(0.015625)"/>
       <path d="M 544 1381 
L 544 3500 
L 1119 3500 
L 1119 1403 
Q 1119 906 1312 657 
Q 1506 409 1894 409 
Q 2359 409 2629 706 
Q 2900 1003 2900 1516 
L 2900 3500 
L 3475 3500 
L 3475 0 
L 2900 0 
L 2900 538 
Q 2691 219 2414 64 
Q 2138 -91 1772 -91 
Q 1169 -91 856 284 
Q 544 659 544 1381 
z
M 1991 3584 
L 1991 3584 
z
" id="DejaVuSans-75" transform="scale(0.015625)"/>
       <path d="M 3513 2113 
L 3513 0 
L 2938 0 
L 2938 2094 
Q 2938 2591 2744 2837 
Q 2550 3084 2163 3084 
Q 1697 3084 1428 2787 
Q 1159 2491 1159 1978 
L 1159 0 
L 581 0 
L 581 3500 
L 1159 3500 
L 1159 2956 
Q 1366 3272 1645 3428 
Q 1925 3584 2291 3584 
Q 2894 3584 3203 3211 
Q 3513 2838 3513 2113 
z
" id="DejaVuSans-6e" transform="scale(0.015625)"/>
       <path d="M 3122 3366 
L 3122 2828 
Q 2878 2963 2633 3030 
Q 2388 3097 2138 3097 
Q 1578 3097 1268 2742 
Q 959 2388 959 1747 
Q 959 1106 1268 751 
Q 1578 397 2138 397 
Q 2388 397 2633 464 
Q 2878 531 3122 666 
L 3122 134 
Q 2881 22 2623 -34 
Q 2366 -91 2075 -91 
Q 1284 -91 818 406 
Q 353 903 353 1747 
Q 353 2603 823 3093 
Q 1294 3584 2113 3584 
Q 2378 3584 2631 3529 
Q 2884 3475 3122 3366 
z
" id="DejaVuSans-63" transform="scale(0.015625)"/>
       <path id="DejaVuSans-20" transform="scale(0.015625)"/>
       <path d="M 628 4666 
L 1259 4666 
L 1259 531 
L 3531 531 
L 3531 0 
L 628 0 
L 628 4666 
z
" id="DejaVuSans-4c" transform="scale(0.015625)"/>
       <path d="M 2906 1791 
Q 2906 2416 2648 2759 
Q 2391 3103 1925 3103 
Q 1463 3103 1205 2759 
Q 947 2416 947 1791 
Q 947 1169 1205 825 
Q 1463 481 1925 481 
Q 2391 481 2648 825 
Q 2906 1169 2906 1791 
z
M 3481 434 
Q 3481 -459 3084 -895 
Q 2688 -1331 1869 -1331 
Q 1566 -1331 1297 -1286 
Q 1028 -1241 775 -1147 
L 775 -588 
Q 1028 -725 1275 -790 
Q 1522 -856 1778 -856 
Q 2344 -856 2625 -561 
Q 2906 -266 2906 331 
L 2906 616 
Q 2728 306 2450 153 
Q 2172 0 1784 0 
Q 1141 0 747 490 
Q 353 981 353 1791 
Q 353 2603 747 3093 
Q 1141 3584 1784 3584 
Q 2172 3584 2450 3431 
Q 2728 3278 2906 2969 
L 2906 3500 
L 3481 3500 
L 3481 434 
z
" id="DejaVuSans-67" transform="scale(0.015625)"/>
       <path d="M 1172 4494 
L 1172 3500 
L 2356 3500 
L 2356 3053 
L 1172 3053 
L 1172 1153 
Q 1172 725 1289 603 
Q 1406 481 1766 481 
L 2356 481 
L 2356 0 
L 1766 0 
Q 1100 0 847 248 
Q 594 497 594 1153 
L 594 3053 
L 172 3053 
L 172 3500 
L 594 3500 
L 594 4494 
L 1172 4494 
z
" id="DejaVuSans-74" transform="scale(0.015625)"/>
       <path d="M 3513 2113 
L 3513 0 
L 2938 0 
L 2938 2094 
Q 2938 2591 2744 2837 
Q 2550 3084 2163 3084 
Q 1697 3084 1428 2787 
Q 1159 2491 1159 1978 
L 1159 0 
L 581 0 
L 581 4863 
L 1159 4863 
L 1159 2956 
Q 1366 3272 1645 3428 
Q 1925 3584 2291 3584 
Q 2894 3584 3203 3211 
Q 3513 2838 3513 2113 
z
" id="DejaVuSans-68" transform="scale(0.015625)"/>
       <path d="M 1984 4856 
Q 1566 4138 1362 3434 
Q 1159 2731 1159 2009 
Q 1159 1288 1364 580 
Q 1569 -128 1984 -844 
L 1484 -844 
Q 1016 -109 783 600 
Q 550 1309 550 2009 
Q 550 2706 781 3412 
Q 1013 4119 1484 4856 
L 1984 4856 
z
" id="DejaVuSans-28" transform="scale(0.015625)"/>
       <path d="M 3116 1747 
Q 3116 2381 2855 2742 
Q 2594 3103 2138 3103 
Q 1681 3103 1420 2742 
Q 1159 2381 1159 1747 
Q 1159 1113 1420 752 
Q 1681 391 2138 391 
Q 2594 391 2855 752 
Q 3116 1113 3116 1747 
z
M 1159 2969 
Q 1341 3281 1617 3432 
Q 1894 3584 2278 3584 
Q 2916 3584 3314 3078 
Q 3713 2572 3713 1747 
Q 3713 922 3314 415 
Q 2916 -91 2278 -91 
Q 1894 -91 1617 61 
Q 1341 213 1159 525 
L 1159 0 
L 581 0 
L 581 4863 
L 1159 4863 
L 1159 2969 
z
" id="DejaVuSans-62" transform="scale(0.015625)"/>
       <path d="M 1159 525 
L 1159 -1331 
L 581 -1331 
L 581 3500 
L 1159 3500 
L 1159 2969 
Q 1341 3281 1617 3432 
Q 1894 3584 2278 3584 
Q 2916 3584 3314 3078 
Q 3713 2572 3713 1747 
Q 3713 922 3314 415 
Q 2916 -91 2278 -91 
Q 1894 -91 1617 61 
Q 1341 213 1159 525 
z
M 3116 1747 
Q 3116 2381 2855 2742 
Q 2594 3103 2138 3103 
Q 1681 3103 1420 2742 
Q 1159 2381 1159 1747 
Q 1159 1113 1420 752 
Q 1681 391 2138 391 
Q 2594 391 2855 752 
Q 3116 1113 3116 1747 
z
" id="DejaVuSans-70" transform="scale(0.015625)"/>
       <path d="M 513 4856 
L 1013 4856 
Q 1481 4119 1714 3412 
Q 1947 2706 1947 2009 
Q 1947 1309 1714 600 
Q 1481 -109 1013 -844 
L 513 -844 
Q 928 -128 1133 580 
Q 1338 1288 1338 2009 
Q 1338 2731 1133 3434 
Q 928 4138 513 4856 
z
" id="DejaVuSans-29" transform="scale(0.015625)"/>
      </defs>
      <use xlink:href="#DejaVuSans-53"/>
      <use x="63.476562" xlink:href="#DejaVuSans-65"/>
      <use x="125" xlink:href="#DejaVuSans-71"/>
      <use x="188.476562" xlink:href="#DejaVuSans-75"/>
      <use x="251.855469" xlink:href="#DejaVuSans-65"/>
      <use x="313.378906" xlink:href="#DejaVuSans-6e"/>
      <use x="376.757812" xlink:href="#DejaVuSans-63"/>
      <use x="431.738281" xlink:href="#DejaVuSans-65"/>
      <use x="493.261719" xlink:href="#DejaVuSans-20"/>
      <use x="525.048828" xlink:href="#DejaVuSans-4c"/>
      <use x="579.011719" xlink:href="#DejaVuSans-65"/>
      <use x="640.535156" xlink:href="#DejaVuSans-6e"/>
      <use x="703.914062" xlink:href="#DejaVuSans-67"/>
      <use x="767.390625" xlink:href="#DejaVuSans-74"/>
      <use x="806.599609" xlink:href="#DejaVuSans-68"/>
      <use x="869.978516" xlink:href="#DejaVuSans-20"/>
      <use x="901.765625" xlink:href="#DejaVuSans-28"/>
      <use x="940.779297" xlink:href="#DejaVuSans-62"/>
      <use x="1004.255859" xlink:href="#DejaVuSans-70"/>
      <use x="1067.732422" xlink:href="#DejaVuSans-29"/>
     </g>
    </g>
   </g>
   <g id="matplotlib.axis_2">
    <g id="ytick_1">
     <g id="line2d_1">
      <path clip-path="url(#p90290199d7)" d="M 40.600625 353.2239 
L 993.140625 353.2239 
" style="fill:none;stroke:#dedede;stroke-linecap:square;"/>
     </g>
     <g id="text_11">
      <!-- 0.0 -->
      <g transform="translate(20.878125 356.263275)scale(0.08 -0.08)">
       <defs>
        <path d="M 684 794 
L 1344 794 
L 1344 0 
L 684 0 
L 684 794 
z
" id="DejaVuSans-2e" transform="scale(0.015625)"/>
       </defs>
       <use xlink:href="#DejaVuSans-30"/>
       <use x="63.623047" xlink:href="#DejaVuSans-2e"/>
       <use x="95.410156" xlink:href="#DejaVuSans-30"/>
      </g>
     </g>
    </g>
    <g id="ytick_2">
     <g id="line2d_2">
      <path clip-path="url(#p90290199d7)" d="M 40.600625 282.580682 
L 993.140625 282.580682 
" style="fill:none;stroke:#dedede;stroke-linecap:square;"/>
     </g>
     <g id="text_12">
      <!-- 0.5 -->
      <g transform="translate(20.878125 285.620057)scale(0.08 -0.08)">
       <use xlink:href="#DejaVuSans-30"/>
       <use x="63.623047" xlink:href="#DejaVuSans-2e"/>
       <use x="95.410156" xlink:href="#DejaVuSans-35"/>
      </g>
     </g>
    </g>
    <g id="ytick_3">
     <g id="line2d_3">
      <path clip-path="url(#p90290199d7)" d="M 40.600625 211.937464 
L 993.140625 211.937464 
" style="fill:none;stroke:#dedede;stroke-linecap:square;"/>
     </g>
     <g id="text_13">
      <!-- 1.0 -->
      <g transform="translate(20.878125 214.976839)scale(0.08 -0.08)">
       <use xlink:href="#DejaVuSans-31"/>
       <use x="63.623047" xlink:href="#DejaVuSans-2e"/>
       <use x="95.410156" xlink:href="#DejaVuSans-30"/>
      </g>
     </g>
    </g>
    <g id="ytick_4">
     <g id="line2d_4">
      <path clip-path="url(#p90290199d7)" d="M 40.600625 141.294247 
L 993.140625 141.294247 
" style="fill:none;stroke:#dedede;stroke-linecap:square;"/>
     </g>
     <g id="text_14">
      <!-- 1.5 -->
      <g transform="translate(20.878125 144.333622)scale(0.08 -0.08)">
       <use xlink:href="#DejaVuSans-31"/>
       <use x="63.623047" xlink:href="#DejaVuSans-2e"/>
       <use x="95.410156" xlink:href="#DejaVuSans-35"/>
      </g>
     </g>
    </g>
    <g id="ytick_5">
     <g id="line2d_5">
      <path clip-path="url(#p90290199d7)" d="M 40.600625 70.651029 
L 993.140625 70.651029 
" style="fill:none;stroke:#dedede;stroke-linecap:square;"/>
     </g>
     <g id="text_15">
      <!-- 2.0 -->
      <g transform="translate(20.878125 73.690404)scale(0.08 -0.08)">
       <use xlink:href="#DejaVuSans-32"/>
       <use x="63.623047" xlink:href="#DejaVuSans-2e"/>
       <use x="95.410156" xlink:href="#DejaVuSans-30"/>
      </g>
     </g>
    </g>
    <g id="text_16">
     <!-- Read Count -->
     <g transform="translate(14.798438 223.241463)rotate(-90)scale(0.1 -0.1)">
      <defs>
       <path d="M 2841 2188 
Q 3044 2119 3236 1894 
Q 3428 1669 3622 1275 
L 4263 0 
L 3584 0 
L 2988 1197 
Q 2756 1666 2539 1819 
Q 2322 1972 1947 1972 
L 1259 1972 
L 1259 0 
L 628 0 
L 628 4666 
L 2053 4666 
Q 2853 4666 3247 4331 
Q 3641 3997 3641 3322 
Q 3641 2881 3436 2590 
Q 3231 2300 2841 2188 
z
M 1259 4147 
L 1259 2491 
L 2053 2491 
Q 2509 2491 2742 2702 
Q 2975 2913 2975 3322 
Q 2975 3731 2742 3939 
Q 2509 4147 2053 4147 
L 1259 4147 
z
" id="DejaVuSans-52" transform="scale(0.015625)"/>
       <path d="M 2194 1759 
Q 1497 1759 1228 1600 
Q 959 1441 959 1056 
Q 959 750 1161 570 
Q 1363 391 1709 391 
Q 2188 391 2477 730 
Q 2766 1069 2766 1631 
L 2766 1759 
L 2194 1759 
z
M 3341 1997 
L 3341 0 
L 2766 0 
L 2766 531 
Q 2569 213 2275 61 
Q 1981 -91 1556 -91 
Q 1019 -91 701 211 
Q 384 513 384 1019 
Q 384 1609 779 1909 
Q 1175 2209 1959 2209 
L 2766 2209 
L 2766 2266 
Q 2766 2663 2505 2880 
Q 2244 3097 1772 3097 
Q 1472 3097 1187 3025 
Q 903 2953 641 2809 
L 641 3341 
Q 956 3463 1253 3523 
Q 1550 3584 1831 3584 
Q 2591 3584 2966 3190 
Q 3341 2797 3341 1997 
z
" id="DejaVuSans-61" transform="scale(0.015625)"/>
       <path d="M 2906 2969 
L 2906 4863 
L 3481 4863 
L 3481 0 
L 2906 0 
L 2906 525 
Q 2725 213 2448 61 
Q 2172 -91 1784 -91 
Q 1150 -91 751 415 
Q 353 922 353 1747 
Q 353 2572 751 3078 
Q 1150 3584 1784 3584 
Q 2172 3584 2448 3432 
Q 2725 3281 2906 2969 
z
M 947 1747 
Q 947 1113 1208 752 
Q 1469 391 1925 391 
Q 2381 391 2643 752 
Q 2906 1113 2906 1747 
Q 2906 2381 2643 2742 
Q 2381 3103 1925 3103 
Q 1469 3103 1208 2742 
Q 947 2381 947 1747 
z
" id="DejaVuSans-64" transform="scale(0.015625)"/>
       <path d="M 4122 4306 
L 4122 3641 
Q 3803 3938 3442 4084 
Q 3081 4231 2675 4231 
Q 1875 4231 1450 3742 
Q 1025 3253 1025 2328 
Q 1025 1406 1450 917 
Q 1875 428 2675 428 
Q 3081 428 3442 575 
Q 3803 722 4122 1019 
L 4122 359 
Q 3791 134 3420 21 
Q 3050 -91 2638 -91 
Q 1578 -91 968 557 
Q 359 1206 359 2328 
Q 359 3453 968 4101 
Q 1578 4750 2638 4750 
Q 3056 4750 3426 4639 
Q 3797 4528 4122 4306 
z
" id="DejaVuSans-43" transform="scale(0.015625)"/>
       <path d="M 1959 3097 
Q 1497 3097 1228 2736 
Q 959 2375 959 1747 
Q 959 1119 1226 758 
Q 1494 397 1959 397 
Q 2419 397 2687 759 
Q 2956 1122 2956 1747 
Q 2956 2369 2687 2733 
Q 2419 3097 1959 3097 
z
M 1959 3584 
Q 2709 3584 3137 3096 
Q 3566 2609 3566 1747 
Q 3566 888 3137 398 
Q 2709 -91 1959 -91 
Q 1206 -91 779 398 
Q 353 888 353 1747 
Q 353 2609 779 3096 
Q 1206 3584 1959 3584 
z
" id="DejaVuSans-6f" transform="scale(0.015625)"/>
      </defs>
      <use xlink:href="#DejaVuSans-52"/>
      <use x="64.982422" xlink:href="#DejaVuSans-65"/>
      <use x="126.505859" xlink:href="#DejaVuSans-61"/>
      <use x="187.785156" xlink:href="#DejaVuSans-64"/>
      <use x="251.261719" xlink:href="#DejaVuSans-20"/>
      <use x="283.048828" xlink:href="#DejaVuSans-43"/>
      <use x="352.873047" xlink:href="#DejaVuSans-6f"/>
      <use x="414.054688" xlink:href="#DejaVuSans-75"/>
      <use x="477.433594" xlink:href="#DejaVuSans-6e"/>
      <use x="540.8125" xlink:href="#DejaVuSans-74"/>
     </g>
    </g>
    <g id="text_17">
     <!-- 1e8 -->
     <g transform="translate(40.600625 32.2559)scale(0.1 -0.1)">
      <use xlink:href="#DejaVuSans-31"/>
      <use x="63.623047" xlink:href="#DejaVuSans-65"/>
      <use x="125.146484" xlink:href="#DejaVuSans-38"/>
     </g>
    </g>
   </g>
   <g id="line2d_6">
    <path clip-path="url(#p90290199d7)" d="M 83.897898 353.223548 
L 105.546534 353.223287 
L 127.19517 353.223037 
L 148.843807 353.222878 
L 170.492443 353.22273 
L 192.14108 353.222717 
L 213.789716 353.222706 
L 235.438352 353.222631 
L 257.086989 353.222582 
L 278.735625 353.222415 
L 300.384261 353.222281 
L 322.032898 353.222103 
L 343.681534 353.222083 
L 365.33017 353.222144 
L 386.978807 353.221891 
L 408.627443 353.221815 
L 430.27608 353.221832 
L 451.924716 353.221631 
L 473.573352 353.221502 
L 495.221989 353.221194 
L 516.870625 353.220786 
L 538.519261 353.220717 
L 560.167898 353.220403 
L 581.816534 353.220369 
L 603.46517 353.220118 
L 625.113807 353.219505 
L 646.762443 353.218674 
L 668.41108 353.218582 
L 690.059716 353.217945 
L 711.708352 353.216364 
L 733.356989 353.214988 
L 755.005625 353.213678 
L 776.654261 353.210947 
L 798.302898 353.207453 
L 819.951534 353.201344 
L 841.60017 353.189203 
L 863.248807 353.142604 
L 884.897443 352.693967 
L 906.54608 347.668328 
L 928.194716 316.464892 
L 949.843352 334.559346 
" style="fill:none;stroke:#f0ad4e;stroke-linecap:square;"/>
   </g>
   <g id="line2d_7">
    <path clip-path="url(#p90290199d7)" d="M 83.897898 353.223425 
L 105.546534 353.223206 
L 127.19517 353.222732 
L 148.843807 353.222503 
L 170.492443 353.222473 
L 192.14108 353.222421 
L 213.789716 353.222368 
L 235.438352 353.222294 
L 257.086989 353.222124 
L 278.735625 353.222012 
L 300.384261 353.221863 
L 322.032898 353.221799 
L 343.681534 353.221556 
L 365.33017 353.221577 
L 386.978807 353.221463 
L 408.627443 353.221306 
L 430.27608 353.221159 
L 451.924716 353.221014 
L 473.573352 353.220968 
L 495.221989 353.220591 
L 516.870625 353.219752 
L 538.519261 353.219936 
L 560.167898 353.219481 
L 581.816534 353.219305 
L 603.46517 353.218914 
L 625.113807 353.21798 
L 646.762443 353.217005 
L 668.41108 353.21699 
L 690.059716 353.216244 
L 711.708352 353.214853 
L 733.356989 353.213032 
L 755.005625 353.211022 
L 776.654261 353.20794 
L 798.302898 353.204569 
L 819.951534 353.198135 
L 841.60017 353.185534 
L 863.248807 353.14278 
L 884.897443 352.749209 
L 906.54608 348.306768 
L 928.194716 320.366613 
L 949.843352 336.576323 
" style="fill:none;stroke:#f0ad4e;stroke-linecap:square;"/>
   </g>
   <g id="line2d_8">
    <path clip-path="url(#p90290199d7)" d="M 83.897898 353.223422 
L 105.546534 353.223246 
L 127.19517 353.222819 
L 148.843807 353.22258 
L 170.492443 353.222479 
L 192.14108 353.222484 
L 213.789716 353.222391 
L 235.438352 353.222385 
L 257.086989 353.222352 
L 278.735625 353.221849 
L 300.384261 353.221262 
L 322.032898 353.221173 
L 343.681534 353.221172 
L 365.33017 353.221145 
L 386.978807 353.220934 
L 408.627443 353.220997 
L 430.27608 353.220793 
L 451.924716 353.220696 
L 473.573352 353.220325 
L 495.221989 353.219635 
L 516.870625 353.215694 
L 538.519261 353.216959 
L 560.167898 353.217213 
L 581.816534 353.218429 
L 603.46517 353.217645 
L 625.113807 353.216734 
L 646.762443 353.215779 
L 668.41108 353.215584 
L 690.059716 353.214877 
L 711.708352 353.213597 
L 733.356989 353.2114 
L 755.005625 353.208686 
L 776.654261 353.20569 
L 798.302898 353.20246 
L 819.951534 353.195638 
L 841.60017 353.182281 
L 863.248807 353.137861 
L 884.897443 352.732362 
L 906.54608 348.248515 
L 928.194716 320.512295 
L 949.843352 336.527893 
" style="fill:none;stroke:#f0ad4e;stroke-linecap:square;"/>
   </g>
   <g id="line2d_9">
    <path clip-path="url(#p90290199d7)" d="M 83.897898 353.223397 
L 105.546534 353.22313 
L 127.19517 353.222723 
L 148.843807 353.222558 
L 170.492443 353.222395 
L 192.14108 353.222313 
L 213.789716 353.222428 
L 235.438352 353.222233 
L 257.086989 353.221971 
L 278.735625 353.220156 
L 300.384261 353.218557 
L 322.032898 353.217692 
L 343.681534 353.218679 
L 365.33017 353.219098 
L 386.978807 353.220186 
L 408.627443 353.220672 
L 430.27608 353.220632 
L 451.924716 353.220471 
L 473.573352 353.220179 
L 495.221989 353.2194 
L 516.870625 353.21764 
L 538.519261 353.218712 
L 560.167898 353.218152 
L 581.816534 353.218308 
L 603.46517 353.218073 
L 625.113807 353.216853 
L 646.762443 353.215934 
L 668.41108 353.215168 
L 690.059716 353.214827 
L 711.708352 353.213039 
L 733.356989 353.210551 
L 755.005625 353.207693 
L 776.654261 353.203837 
L 798.302898 353.199296 
L 819.951534 353.192934 
L 841.60017 353.180733 
L 863.248807 353.135378 
L 884.897443 352.740941 
L 906.54608 348.159322 
L 928.194716 318.375406 
L 949.843352 335.314804 
" style="fill:none;stroke:#f0ad4e;stroke-linecap:square;"/>
   </g>
   <g id="line2d_10">
    <path clip-path="url(#p90290199d7)" d="M 83.897898 353.223431 
L 105.546534 353.22317 
L 127.19517 353.22274 
L 148.843807 353.222487 
L 170.492443 353.222237 
L 192.14108 353.222337 
L 213.789716 353.222288 
L 235.438352 353.22206 
L 257.086989 353.221995 
L 278.735625 353.221596 
L 300.384261 353.221367 
L 322.032898 353.221177 
L 343.681534 353.221231 
L 365.33017 353.221155 
L 386.978807 353.220782 
L 408.627443 353.220526 
L 430.27608 353.220348 
L 451.924716 353.220121 
L 473.573352 353.219842 
L 495.221989 353.219161 
L 516.870625 353.216293 
L 538.519261 353.217877 
L 560.167898 353.217128 
L 581.816534 353.217479 
L 603.46517 353.216547 
L 625.113807 353.215277 
L 646.762443 353.213698 
L 668.41108 353.213422 
L 690.059716 353.212478 
L 711.708352 353.210389 
L 733.356989 353.207569 
L 755.005625 353.204706 
L 776.654261 353.201122 
L 798.302898 353.196811 
L 819.951534 353.187452 
L 841.60017 353.170569 
L 863.248807 353.112921 
L 884.897443 352.576288 
L 906.54608 346.548109 
L 928.194716 309.494929 
L 949.843352 330.98462 
" style="fill:none;stroke:#f0ad4e;stroke-linecap:square;"/>
   </g>
   <g id="line2d_11">
    <path clip-path="url(#p90290199d7)" d="M 83.897898 353.223336 
L 105.546534 353.222999 
L 127.19517 353.222537 
L 148.843807 353.222277 
L 170.492443 353.222157 
L 192.14108 353.22209 
L 213.789716 353.222007 
L 235.438352 353.221984 
L 257.086989 353.221971 
L 278.735625 353.221642 
L 300.384261 353.221439 
L 322.032898 353.221387 
L 343.681534 353.221309 
L 365.33017 353.221159 
L 386.978807 353.220789 
L 408.627443 353.220187 
L 430.27608 353.220413 
L 451.924716 353.220135 
L 473.573352 353.219636 
L 495.221989 353.219052 
L 516.870625 353.217601 
L 538.519261 353.21744 
L 560.167898 353.216595 
L 581.816534 353.216611 
L 603.46517 353.215694 
L 625.113807 353.214171 
L 646.762443 353.21224 
L 668.41108 353.211621 
L 690.059716 353.210615 
L 711.708352 353.207945 
L 733.356989 353.204662 
L 755.005625 353.200996 
L 776.654261 353.197091 
L 798.302898 353.192847 
L 819.951534 353.184156 
L 841.60017 353.16722 
L 863.248807 353.113449 
L 884.897443 352.645148 
L 906.54608 347.441226 
L 928.194716 315.20425 
L 949.843352 333.79642 
" style="fill:none;stroke:#f0ad4e;stroke-linecap:square;"/>
   </g>
   <g id="line2d_12">
    <path clip-path="url(#p90290199d7)" d="M 83.897898 353.223441 
L 105.546534 353.22315 
L 127.19517 353.222712 
L 148.843807 353.222456 
L 170.492443 353.222448 
L 192.14108 353.222367 
L 213.789716 353.222196 
L 235.438352 353.222082 
L 257.086989 353.22206 
L 278.735625 353.221936 
L 300.384261 353.221627 
L 322.032898 353.221635 
L 343.681534 353.221607 
L 365.33017 353.221518 
L 386.978807 353.221387 
L 408.627443 353.221223 
L 430.27608 353.221176 
L 451.924716 353.220881 
L 473.573352 353.220861 
L 495.221989 353.220696 
L 516.870625 353.220373 
L 538.519261 353.220171 
L 560.167898 353.219955 
L 581.816534 353.219797 
L 603.46517 353.219365 
L 625.113807 353.218627 
L 646.762443 353.217836 
L 668.41108 353.218045 
L 690.059716 353.216926 
L 711.708352 353.215231 
L 733.356989 353.214069 
L 755.005625 353.212721 
L 776.654261 353.210353 
L 798.302898 353.206481 
L 819.951534 353.198115 
L 841.60017 353.182842 
L 863.248807 353.126432 
L 884.897443 352.580479 
L 906.54608 346.404579 
L 928.194716 308.403182 
L 949.843352 330.600962 
" style="fill:none;stroke:#f0ad4e;stroke-linecap:square;"/>
   </g>
   <g id="line2d_13">
    <path clip-path="url(#p90290199d7)" d="M 83.897898 353.220632 
L 105.546534 353.218657 
L 127.19517 353.215468 
L 148.843807 353.213908 
L 170.492443 353.213093 
L 192.14108 353.212868 
L 213.789716 353.212016 
L 235.438352 353.211474 
L 257.086989 353.211222 
L 278.735625 353.209924 
L 300.384261 353.207831 
L 322.032898 353.207747 
L 343.681534 353.206824 
L 365.33017 353.206977 
L 386.978807 353.20577 
L 408.627443 353.204722 
L 430.27608 353.204756 
L 451.924716 353.203528 
L 473.573352 353.202696 
L 495.221989 353.200934 
L 516.870625 353.195896 
L 538.519261 353.196789 
L 560.167898 353.194582 
L 581.816534 353.192717 
L 603.46517 353.189514 
L 625.113807 353.183948 
L 646.762443 353.177346 
L 668.41108 353.17798 
L 690.059716 353.169127 
L 711.708352 353.154966 
L 733.356989 353.143721 
L 755.005625 353.132758 
L 776.654261 353.109536 
L 798.302898 353.080922 
L 819.951534 353.022478 
L 841.60017 352.906917 
L 863.248807 352.488638 
L 884.897443 348.703076 
L 906.54608 306.814226 
L 928.194716 50.39722 
L 949.843352 201.222503 
" style="fill:none;stroke:#f0ad4e;stroke-linecap:square;"/>
   </g>
   <g id="line2d_14">
    <path clip-path="url(#p90290199d7)" d="M 83.897898 353.22351 
L 105.546534 353.223377 
L 127.19517 353.222932 
L 148.843807 353.222695 
L 170.492443 353.222586 
L 192.14108 353.222558 
L 213.789716 353.22245 
L 235.438352 353.222459 
L 257.086989 353.222504 
L 278.735625 353.222302 
L 300.384261 353.221994 
L 322.032898 353.222097 
L 343.681534 353.221995 
L 365.33017 353.221798 
L 386.978807 353.221812 
L 408.627443 353.221594 
L 430.27608 353.221514 
L 451.924716 353.221381 
L 473.573352 353.221348 
L 495.221989 353.221053 
L 516.870625 353.220697 
L 538.519261 353.220494 
L 560.167898 353.220119 
L 581.816534 353.219926 
L 603.46517 353.219551 
L 625.113807 353.218728 
L 646.762443 353.217878 
L 668.41108 353.217688 
L 690.059716 353.216772 
L 711.708352 353.214982 
L 733.356989 353.212945 
L 755.005625 353.211392 
L 776.654261 353.208315 
L 798.302898 353.204675 
L 819.951534 353.197403 
L 841.60017 353.183185 
L 863.248807 353.131603 
L 884.897443 352.663015 
L 906.54608 347.448482 
L 928.194716 315.489171 
L 949.843352 334.163256 
" style="fill:none;stroke:#f0ad4e;stroke-linecap:square;"/>
   </g>
   <g id="line2d_15">
    <path clip-path="url(#p90290199d7)" d="M 83.897898 353.22355 
L 105.546534 353.223363 
L 127.19517 353.22309 
L 148.843807 353.222922 
L 170.492443 353.222798 
L 192.14108 353.222819 
L 213.789716 353.222691 
L 235.438352 353.222689 
L 257.086989 353.222634 
L 278.735625 353.222517 
L 300.384261 353.222402 
L 322.032898 353.222281 
L 343.681534 353.222172 
L 365.33017 353.222212 
L 386.978807 353.222127 
L 408.627443 353.221974 
L 430.27608 353.221974 
L 451.924716 353.221874 
L 473.573352 353.221867 
L 495.221989 353.221744 
L 516.870625 353.221484 
L 538.519261 353.221408 
L 560.167898 353.22118 
L 581.816534 353.221136 
L 603.46517 353.220992 
L 625.113807 353.22044 
L 646.762443 353.220258 
L 668.41108 353.220239 
L 690.059716 353.21967 
L 711.708352 353.218862 
L 733.356989 353.217837 
L 755.005625 353.216701 
L 776.654261 353.214401 
L 798.302898 353.211515 
L 819.951534 353.206126 
L 841.60017 353.19497 
L 863.248807 353.150762 
L 884.897443 352.729526 
L 906.54608 348.000666 
L 928.194716 318.897944 
L 949.843352 335.860916 
" style="fill:none;stroke:#f0ad4e;stroke-linecap:square;"/>
   </g>
   <g id="line2d_16">
    <path clip-path="url(#p90290199d7)" d="M 83.897898 353.223432 
L 105.546534 353.223158 
L 127.19517 353.22272 
L 148.843807 353.222476 
L 170.492443 353.222457 
L 192.14108 353.222329 
L 213.789716 353.222255 
L 235.438352 353.222216 
L 257.086989 353.222162 
L 278.735625 353.221819 
L 300.384261 353.221654 
L 322.032898 353.221495 
L 343.681534 353.221501 
L 365.33017 353.221492 
L 386.978807 353.221322 
L 408.627443 353.221314 
L 430.27608 353.221365 
L 451.924716 353.221135 
L 473.573352 353.221042 
L 495.221989 353.220735 
L 516.870625 353.219821 
L 538.519261 353.220342 
L 560.167898 353.220039 
L 581.816534 353.219815 
L 603.46517 353.219435 
L 625.113807 353.218668 
L 646.762443 353.218314 
L 668.41108 353.218258 
L 690.059716 353.217173 
L 711.708352 353.215772 
L 733.356989 353.21437 
L 755.005625 353.212514 
L 776.654261 353.208524 
L 798.302898 353.204609 
L 819.951534 353.1974 
L 841.60017 353.182544 
L 863.248807 353.125415 
L 884.897443 352.608725 
L 906.54608 346.796298 
L 928.194716 310.440208 
L 949.843352 331.562502 
" style="fill:none;stroke:#f0ad4e;stroke-linecap:square;"/>
   </g>
   <g id="line2d_17">
    <path clip-path="url(#p90290199d7)" d="M 83.897898 353.223459 
L 105.546534 353.223143 
L 127.19517 353.222716 
L 148.843807 353.222469 
L 170.492443 353.222332 
L 192.14108 353.222305 
L 213.789716 353.222275 
L 235.438352 353.222048 
L 257.086989 353.222106 
L 278.735625 353.221796 
L 300.384261 353.221401 
L 322.032898 353.221322 
L 343.681534 353.221362 
L 365.33017 353.221259 
L 386.978807 353.221062 
L 408.627443 353.221009 
L 430.27608 353.221032 
L 451.924716 353.220888 
L 473.573352 353.220659 
L 495.221989 353.220594 
L 516.870625 353.220068 
L 538.519261 353.220147 
L 560.167898 353.219865 
L 581.816534 353.21953 
L 603.46517 353.218963 
L 625.113807 353.218551 
L 646.762443 353.217696 
L 668.41108 353.217634 
L 690.059716 353.216591 
L 711.708352 353.214832 
L 733.356989 353.212946 
L 755.005625 353.211002 
L 776.654261 353.207102 
L 798.302898 353.202331 
L 819.951534 353.194223 
L 841.60017 353.177037 
L 863.248807 353.115381 
L 884.897443 352.556461 
L 906.54608 346.279111 
L 928.194716 307.320401 
L 949.843352 330.307047 
" style="fill:none;stroke:#f0ad4e;stroke-linecap:square;"/>
   </g>
   <g id="line2d_18">
    <path clip-path="url(#p90290199d7)" d="M 83.897898 353.223285 
L 105.546534 353.222908 
L 127.19517 353.222284 
L 148.843807 353.222068 
L 170.492443 353.221956 
L 192.14108 353.221745 
L 213.789716 353.221744 
L 235.438352 353.221611 
L 257.086989 353.221709 
L 278.735625 353.221392 
L 300.384261 353.221183 
L 322.032898 353.221187 
L 343.681534 353.220964 
L 365.33017 353.221084 
L 386.978807 353.220775 
L 408.627443 353.220482 
L 430.27608 353.220595 
L 451.924716 353.220431 
L 473.573352 353.220245 
L 495.221989 353.219685 
L 516.870625 353.219225 
L 538.519261 353.218948 
L 560.167898 353.218167 
L 581.816534 353.217901 
L 603.46517 353.217144 
L 625.113807 353.215892 
L 646.762443 353.214177 
L 668.41108 353.213999 
L 690.059716 353.212014 
L 711.708352 353.209209 
L 733.356989 353.206599 
L 755.005625 353.203721 
L 776.654261 353.19911 
L 798.302898 353.192958 
L 819.951534 353.184191 
L 841.60017 353.164964 
L 863.248807 353.103929 
L 884.897443 352.571412 
L 906.54608 346.662688 
L 928.194716 309.598506 
L 949.843352 331.168948 
" style="fill:none;stroke:#f0ad4e;stroke-linecap:square;"/>
   </g>
   <g id="line2d_19">
    <path clip-path="url(#p90290199d7)" d="M 83.897898 353.223586 
L 105.546534 353.223292 
L 127.19517 353.223003 
L 148.843807 353.222821 
L 170.492443 353.222784 
L 192.14108 353.222627 
L 213.789716 353.222496 
L 235.438352 353.222524 
L 257.086989 353.222414 
L 278.735625 353.222181 
L 300.384261 353.222128 
L 322.032898 353.221979 
L 343.681534 353.221881 
L 365.33017 353.221802 
L 386.978807 353.221672 
L 408.627443 353.22159 
L 430.27608 353.221646 
L 451.924716 353.221559 
L 473.573352 353.221272 
L 495.221989 353.221128 
L 516.870625 353.220946 
L 538.519261 353.220744 
L 560.167898 353.220597 
L 581.816534 353.220368 
L 603.46517 353.220268 
L 625.113807 353.21957 
L 646.762443 353.218922 
L 668.41108 353.218842 
L 690.059716 353.217929 
L 711.708352 353.216628 
L 733.356989 353.215344 
L 755.005625 353.213558 
L 776.654261 353.21078 
L 798.302898 353.207605 
L 819.951534 353.199277 
L 841.60017 353.184713 
L 863.248807 353.131856 
L 884.897443 352.627325 
L 906.54608 347.003173 
L 928.194716 312.551172 
L 949.843352 332.86762 
" style="fill:none;stroke:#f0ad4e;stroke-linecap:square;"/>
   </g>
   <g id="line2d_20">
    <path clip-path="url(#p90290199d7)" d="M 83.897898 353.223551 
L 105.546534 353.223259 
L 127.19517 353.222943 
L 148.843807 353.222706 
L 170.492443 353.222634 
L 192.14108 353.222542 
L 213.789716 353.222578 
L 235.438352 353.222402 
L 257.086989 353.22236 
L 278.735625 353.222248 
L 300.384261 353.222062 
L 322.032898 353.222011 
L 343.681534 353.221843 
L 365.33017 353.221969 
L 386.978807 353.221743 
L 408.627443 353.221536 
L 430.27608 353.221639 
L 451.924716 353.221583 
L 473.573352 353.221365 
L 495.221989 353.221334 
L 516.870625 353.221028 
L 538.519261 353.221047 
L 560.167898 353.220779 
L 581.816534 353.220453 
L 603.46517 353.220212 
L 625.113807 353.219616 
L 646.762443 353.21936 
L 668.41108 353.219383 
L 690.059716 353.218583 
L 711.708352 353.217216 
L 733.356989 353.216299 
L 755.005625 353.215002 
L 776.654261 353.212413 
L 798.302898 353.209244 
L 819.951534 353.2022 
L 841.60017 353.188376 
L 863.248807 353.138557 
L 884.897443 352.660992 
L 906.54608 347.378424 
L 928.194716 315.051693 
L 949.843352 333.979619 
" style="fill:none;stroke:#f0ad4e;stroke-linecap:square;"/>
   </g>
   <g id="line2d_21">
    <path clip-path="url(#p90290199d7)" d="M 83.897898 353.223608 
L 105.546534 353.223405 
L 127.19517 353.223131 
L 148.843807 353.222979 
L 170.492443 353.222823 
L 192.14108 353.222696 
L 213.789716 353.222729 
L 235.438352 353.222617 
L 257.086989 353.222643 
L 278.735625 353.222467 
L 300.384261 353.222298 
L 322.032898 353.222243 
L 343.681534 353.222124 
L 365.33017 353.22212 
L 386.978807 353.222042 
L 408.627443 353.221871 
L 430.27608 353.22188 
L 451.924716 353.22173 
L 473.573352 353.22155 
L 495.221989 353.221542 
L 516.870625 353.221336 
L 538.519261 353.221285 
L 560.167898 353.221217 
L 581.816534 353.220937 
L 603.46517 353.220731 
L 625.113807 353.220293 
L 646.762443 353.220022 
L 668.41108 353.219967 
L 690.059716 353.2194 
L 711.708352 353.218342 
L 733.356989 353.217507 
L 755.005625 353.21643 
L 776.654261 353.214341 
L 798.302898 353.211807 
L 819.951534 353.206026 
L 841.60017 353.193601 
L 863.248807 353.148774 
L 884.897443 352.722709 
L 906.54608 347.945283 
L 928.194716 318.657204 
L 949.843352 335.722115 
" style="fill:none;stroke:#f0ad4e;stroke-linecap:square;"/>
   </g>
   <g id="line2d_22">
    <path clip-path="url(#p90290199d7)" d="M 83.897898 353.223602 
L 105.546534 353.223295 
L 127.19517 353.223034 
L 148.843807 353.222905 
L 170.492443 353.222797 
L 192.14108 353.222743 
L 213.789716 353.222586 
L 235.438352 353.222534 
L 257.086989 353.222562 
L 278.735625 353.222261 
L 300.384261 353.222005 
L 322.032898 353.222205 
L 343.681534 353.222051 
L 365.33017 353.221926 
L 386.978807 353.221916 
L 408.627443 353.221696 
L 430.27608 353.221717 
L 451.924716 353.221624 
L 473.573352 353.22136 
L 495.221989 353.221336 
L 516.870625 353.221141 
L 538.519261 353.221228 
L 560.167898 353.22097 
L 581.816534 353.220684 
L 603.46517 353.220813 
L 625.113807 353.220422 
L 646.762443 353.219887 
L 668.41108 353.219938 
L 690.059716 353.219225 
L 711.708352 353.218169 
L 733.356989 353.217363 
L 755.005625 353.216309 
L 776.654261 353.213753 
L 798.302898 353.210564 
L 819.951534 353.204573 
L 841.60017 353.191387 
L 863.248807 353.142357 
L 884.897443 352.657247 
L 906.54608 347.214383 
L 928.194716 313.6502 
L 949.843352 333.177425 
" style="fill:none;stroke:#f0ad4e;stroke-linecap:square;"/>
   </g>
   <g id="line2d_23">
    <path clip-path="url(#p90290199d7)" d="M 83.897898 353.223523 
L 105.546534 353.223273 
L 127.19517 353.222972 
L 148.843807 353.222805 
L 170.492443 353.222664 
L 192.14108 353.222678 
L 213.789716 353.222576 
L 235.438352 353.222506 
L 257.086989 353.22239 
L 278.735625 353.22187 
L 300.384261 353.221594 
L 322.032898 353.221634 
L 343.681534 353.221556 
L 365.33017 353.22132 
L 386.978807 353.221228 
L 408.627443 353.221049 
L 430.27608 353.220963 
L 451.924716 353.220766 
L 473.573352 353.22047 
L 495.221989 353.21975 
L 516.870625 353.217038 
L 538.519261 353.218503 
L 560.167898 353.217333 
L 581.816534 353.217589 
L 603.46517 353.216312 
L 625.113807 353.21427 
L 646.762443 353.214211 
L 668.41108 353.21415 
L 690.059716 353.213467 
L 711.708352 353.211434 
L 733.356989 353.208825 
L 755.005625 353.206139 
L 776.654261 353.202604 
L 798.302898 353.199178 
L 819.951534 353.192063 
L 841.60017 353.178067 
L 863.248807 353.133008 
L 884.897443 352.728729 
L 906.54608 348.159707 
L 928.194716 320.166908 
L 949.843352 336.665261 
" style="fill:none;stroke:#f0ad4e;stroke-linecap:square;"/>
   </g>
   <g id="line2d_24">
    <path clip-path="url(#p90290199d7)" d="M 83.897898 353.223239 
L 105.546534 353.222903 
L 127.19517 353.222267 
L 148.843807 353.222097 
L 170.492443 353.222034 
L 192.14108 353.221952 
L 213.789716 353.221932 
L 235.438352 353.221675 
L 257.086989 353.221649 
L 278.735625 353.221285 
L 300.384261 353.22123 
L 322.032898 353.22107 
L 343.681534 353.221025 
L 365.33017 353.220926 
L 386.978807 353.220722 
L 408.627443 353.220477 
L 430.27608 353.220211 
L 451.924716 353.22017 
L 473.573352 353.219909 
L 495.221989 353.219297 
L 516.870625 353.217469 
L 538.519261 353.218031 
L 560.167898 353.217327 
L 581.816534 353.217426 
L 603.46517 353.216625 
L 625.113807 353.215341 
L 646.762443 353.213342 
L 668.41108 353.213087 
L 690.059716 353.212265 
L 711.708352 353.209971 
L 733.356989 353.206722 
L 755.005625 353.204028 
L 776.654261 353.199897 
L 798.302898 353.196044 
L 819.951534 353.188648 
L 841.60017 353.17338 
L 863.248807 353.127865 
L 884.897443 352.725786 
L 906.54608 348.213829 
L 928.194716 319.907865 
L 949.843352 336.335448 
" style="fill:none;stroke:#f0ad4e;stroke-linecap:square;"/>
   </g>
   <g id="line2d_25">
    <path clip-path="url(#p90290199d7)" d="M 83.897898 353.223261 
L 105.546534 353.222901 
L 127.19517 353.222282 
L 148.843807 353.222101 
L 170.492443 353.221833 
L 192.14108 353.221689 
L 213.789716 353.221761 
L 235.438352 353.221634 
L 257.086989 353.221398 
L 278.735625 353.220845 
L 300.384261 353.22026 
L 322.032898 353.220184 
L 343.681534 353.220167 
L 365.33017 353.219728 
L 386.978807 353.218948 
L 408.627443 353.218424 
L 430.27608 353.2177 
L 451.924716 353.217333 
L 473.573352 353.21679 
L 495.221989 353.215058 
L 516.870625 353.210594 
L 538.519261 353.210895 
L 560.167898 353.208271 
L 581.816534 353.20876 
L 603.46517 353.206139 
L 625.113807 353.201318 
L 646.762443 353.196546 
L 668.41108 353.194651 
L 690.059716 353.192437 
L 711.708352 353.186513 
L 733.356989 353.177174 
L 755.005625 353.16878 
L 776.654261 353.15888 
L 798.302898 353.151958 
L 819.951534 353.136243 
L 841.60017 353.109451 
L 863.248807 353.037374 
L 884.897443 352.488261 
L 906.54608 346.458903 
L 928.194716 309.569189 
L 949.843352 331.348063 
" style="fill:none;stroke:#f0ad4e;stroke-linecap:square;"/>
   </g>
   <g id="line2d_26">
    <path clip-path="url(#p90290199d7)" d="M 83.897898 353.223312 
L 105.546534 353.222877 
L 127.19517 353.222281 
L 148.843807 353.22209 
L 170.492443 353.221949 
L 192.14108 353.221899 
L 213.789716 353.221789 
L 235.438352 353.221716 
L 257.086989 353.22145 
L 278.735625 353.221203 
L 300.384261 353.220943 
L 322.032898 353.220963 
L 343.681534 353.220892 
L 365.33017 353.22091 
L 386.978807 353.220585 
L 408.627443 353.220609 
L 430.27608 353.220413 
L 451.924716 353.220154 
L 473.573352 353.220049 
L 495.221989 353.219707 
L 516.870625 353.218097 
L 538.519261 353.219055 
L 560.167898 353.218448 
L 581.816534 353.218482 
L 603.46517 353.218028 
L 625.113807 353.21736 
L 646.762443 353.216238 
L 668.41108 353.216109 
L 690.059716 353.215168 
L 711.708352 353.213562 
L 733.356989 353.211539 
L 755.005625 353.209314 
L 776.654261 353.205603 
L 798.302898 353.201348 
L 819.951534 353.193967 
L 841.60017 353.17805 
L 863.248807 353.121123 
L 884.897443 352.601337 
L 906.54608 346.80036 
L 928.194716 311.025804 
L 949.843352 331.880797 
" style="fill:none;stroke:#f0ad4e;stroke-linecap:square;"/>
   </g>
   <g id="line2d_27">
    <path clip-path="url(#p90290199d7)" d="M 83.897898 353.223538 
L 105.546534 353.223273 
L 127.19517 353.223037 
L 148.843807 353.222863 
L 170.492443 353.222753 
L 192.14108 353.222708 
L 213.789716 353.222621 
L 235.438352 353.222562 
L 257.086989 353.222398 
L 278.735625 353.22224 
L 300.384261 353.222049 
L 322.032898 353.222032 
L 343.681534 353.221979 
L 365.33017 353.221949 
L 386.978807 353.221867 
L 408.627443 353.221802 
L 430.27608 353.221806 
L 451.924716 353.221755 
L 473.573352 353.221594 
L 495.221989 353.221446 
L 516.870625 353.221001 
L 538.519261 353.221298 
L 560.167898 353.221021 
L 581.816534 353.220867 
L 603.46517 353.220855 
L 625.113807 353.22042 
L 646.762443 353.220081 
L 668.41108 353.220087 
L 690.059716 353.219707 
L 711.708352 353.219028 
L 733.356989 353.218123 
L 755.005625 353.217135 
L 776.654261 353.215817 
L 798.302898 353.213606 
L 819.951534 353.208114 
L 841.60017 353.19759 
L 863.248807 353.157751 
L 884.897443 352.767491 
L 906.54608 348.360887 
L 928.194716 320.997474 
L 949.843352 336.842821 
" style="fill:none;stroke:#f0ad4e;stroke-linecap:square;"/>
   </g>
   <g id="line2d_28">
    <path clip-path="url(#p90290199d7)" d="M 83.897898 353.223389 
L 105.546534 353.2231 
L 127.19517 353.222627 
L 148.843807 353.222395 
L 170.492443 353.222193 
L 192.14108 353.222223 
L 213.789716 353.222114 
L 235.438352 353.222051 
L 257.086989 353.222065 
L 278.735625 353.22185 
L 300.384261 353.221632 
L 322.032898 353.221713 
L 343.681534 353.221598 
L 365.33017 353.221461 
L 386.978807 353.221365 
L 408.627443 353.221189 
L 430.27608 353.221395 
L 451.924716 353.221276 
L 473.573352 353.221056 
L 495.221989 353.220804 
L 516.870625 353.219969 
L 538.519261 353.220133 
L 560.167898 353.219845 
L 581.816534 353.219818 
L 603.46517 353.219253 
L 625.113807 353.218737 
L 646.762443 353.218189 
L 668.41108 353.218143 
L 690.059716 353.217131 
L 711.708352 353.216004 
L 733.356989 353.214054 
L 755.005625 353.212255 
L 776.654261 353.20926 
L 798.302898 353.205139 
L 819.951534 353.199035 
L 841.60017 353.185227 
L 863.248807 353.13432 
L 884.897443 352.662358 
L 906.54608 347.427202 
L 928.194716 314.646967 
L 949.843352 333.595555 
" style="fill:none;stroke:#f0ad4e;stroke-linecap:square;"/>
   </g>
   <g id="line2d_29">
    <path clip-path="url(#p90290199d7)" d="M 83.897898 353.223384 
L 105.546534 353.223137 
L 127.19517 353.222582 
L 148.843807 353.222439 
L 170.492443 353.222302 
L 192.14108 353.22226 
L 213.789716 353.2221 
L 235.438352 353.222113 
L 257.086989 353.22211 
L 278.735625 353.221837 
L 300.384261 353.221697 
L 322.032898 353.221735 
L 343.681534 353.221543 
L 365.33017 353.221353 
L 386.978807 353.221466 
L 408.627443 353.221293 
L 430.27608 353.221168 
L 451.924716 353.221241 
L 473.573352 353.221135 
L 495.221989 353.220903 
L 516.870625 353.220772 
L 538.519261 353.220667 
L 560.167898 353.220427 
L 581.816534 353.220162 
L 603.46517 353.219724 
L 625.113807 353.219235 
L 646.762443 353.218807 
L 668.41108 353.218938 
L 690.059716 353.218039 
L 711.708352 353.216651 
L 733.356989 353.215351 
L 755.005625 353.213736 
L 776.654261 353.210024 
L 798.302898 353.206037 
L 819.951534 353.200793 
L 841.60017 353.186975 
L 863.248807 353.133256 
L 884.897443 352.635539 
L 906.54608 347.066126 
L 928.194716 312.707736 
L 949.843352 332.705467 
" style="fill:none;stroke:#f0ad4e;stroke-linecap:square;"/>
   </g>
   <g id="line2d_30">
    <path clip-path="url(#p90290199d7)" d="M 83.897898 353.222901 
L 105.546534 353.222325 
L 127.19517 353.221382 
L 148.843807 353.221071 
L 170.492443 353.220845 
L 192.14108 353.220612 
L 213.789716 353.220549 
L 235.438352 353.220502 
L 257.086989 353.220608 
L 278.735625 353.220224 
L 300.384261 353.21983 
L 322.032898 353.219765 
L 343.681534 353.219568 
L 365.33017 353.219717 
L 386.978807 353.219735 
L 408.627443 353.219411 
L 430.27608 353.219563 
L 451.924716 353.219452 
L 473.573352 353.219286 
L 495.221989 353.218946 
L 516.870625 353.217956 
L 538.519261 353.217723 
L 560.167898 353.21695 
L 581.816534 353.216694 
L 603.46517 353.215801 
L 625.113807 353.214256 
L 646.762443 353.21246 
L 668.41108 353.212899 
L 690.059716 353.21024 
L 711.708352 353.20587 
L 733.356989 353.203508 
L 755.005625 353.201961 
L 776.654261 353.197481 
L 798.302898 353.19182 
L 819.951534 353.181343 
L 841.60017 353.159975 
L 863.248807 353.087354 
L 884.897443 352.507377 
L 906.54608 346.274012 
L 928.194716 307.245103 
L 949.843352 328.848514 
" style="fill:none;stroke:#f0ad4e;stroke-linecap:square;"/>
   </g>
   <g id="line2d_31">
    <path clip-path="url(#p90290199d7)" d="M 83.897898 353.22362 
L 105.546534 353.223338 
L 127.19517 353.22298 
L 148.843807 353.222847 
L 170.492443 353.222698 
L 192.14108 353.222716 
L 213.789716 353.22257 
L 235.438352 353.222534 
L 257.086989 353.222462 
L 278.735625 353.222349 
L 300.384261 353.222097 
L 322.032898 353.222019 
L 343.681534 353.221945 
L 365.33017 353.221953 
L 386.978807 353.22173 
L 408.627443 353.221727 
L 430.27608 353.221751 
L 451.924716 353.221577 
L 473.573352 353.221541 
L 495.221989 353.221401 
L 516.870625 353.221081 
L 538.519261 353.221057 
L 560.167898 353.221021 
L 581.816534 353.220819 
L 603.46517 353.220663 
L 625.113807 353.220075 
L 646.762443 353.219791 
L 668.41108 353.219818 
L 690.059716 353.219127 
L 711.708352 353.218237 
L 733.356989 353.217258 
L 755.005625 353.215953 
L 776.654261 353.213739 
L 798.302898 353.210669 
L 819.951534 353.204189 
L 841.60017 353.191543 
L 863.248807 353.141954 
L 884.897443 352.670709 
L 906.54608 347.417546 
L 928.194716 315.099021 
L 949.843352 333.954063 
" style="fill:none;stroke:#f0ad4e;stroke-linecap:square;"/>
   </g>
   <g id="line2d_32">
    <path clip-path="url(#p90290199d7)" d="M 83.897898 353.22342 
L 105.546534 353.223124 
L 127.19517 353.222784 
L 148.843807 353.222558 
L 170.492443 353.222487 
L 192.14108 353.222329 
L 213.789716 353.22223 
L 235.438352 353.222117 
L 257.086989 353.22213 
L 278.735625 353.221837 
L 300.384261 353.221584 
L 322.032898 353.221542 
L 343.681534 353.221388 
L 365.33017 353.221286 
L 386.978807 353.221197 
L 408.627443 353.220992 
L 430.27608 353.221046 
L 451.924716 353.220831 
L 473.573352 353.220769 
L 495.221989 353.220492 
L 516.870625 353.220091 
L 538.519261 353.219813 
L 560.167898 353.219335 
L 581.816534 353.219156 
L 603.46517 353.218627 
L 625.113807 353.217996 
L 646.762443 353.216764 
L 668.41108 353.216482 
L 690.059716 353.215485 
L 711.708352 353.213484 
L 733.356989 353.210991 
L 755.005625 353.208917 
L 776.654261 353.205595 
L 798.302898 353.200863 
L 819.951534 353.191561 
L 841.60017 353.175127 
L 863.248807 353.116168 
L 884.897443 352.572632 
L 906.54608 346.460302 
L 928.194716 308.612526 
L 949.843352 330.829678 
" style="fill:none;stroke:#f0ad4e;stroke-linecap:square;"/>
   </g>
   <g id="line2d_33">
    <path clip-path="url(#p90290199d7)" d="M 83.897898 353.223513 
L 105.546534 353.223229 
L 127.19517 353.222873 
L 148.843807 353.222587 
L 170.492443 353.222513 
L 192.14108 353.222407 
L 213.789716 353.222364 
L 235.438352 353.222281 
L 257.086989 353.22219 
L 278.735625 353.222034 
L 300.384261 353.22181 
L 322.032898 353.221775 
L 343.681534 353.22157 
L 365.33017 353.221628 
L 386.978807 353.221463 
L 408.627443 353.221258 
L 430.27608 353.221307 
L 451.924716 353.221049 
L 473.573352 353.220999 
L 495.221989 353.22082 
L 516.870625 353.220546 
L 538.519261 353.220508 
L 560.167898 353.220297 
L 581.816534 353.220016 
L 603.46517 353.219602 
L 625.113807 353.219117 
L 646.762443 353.218336 
L 668.41108 353.21828 
L 690.059716 353.217395 
L 711.708352 353.215443 
L 733.356989 353.214627 
L 755.005625 353.213446 
L 776.654261 353.211218 
L 798.302898 353.207779 
L 819.951534 353.200143 
L 841.60017 353.184985 
L 863.248807 353.130481 
L 884.897443 352.605892 
L 906.54608 346.687229 
L 928.194716 310.126014 
L 949.843352 331.605774 
" style="fill:none;stroke:#f0ad4e;stroke-linecap:square;"/>
   </g>
   <g id="line2d_34">
    <path clip-path="url(#p90290199d7)" d="M 83.897898 353.222775 
L 105.546534 353.222373 
L 127.19517 353.22142 
L 148.843807 353.221001 
L 170.492443 353.220992 
L 192.14108 353.220802 
L 213.789716 353.220633 
L 235.438352 353.220707 
L 257.086989 353.220737 
L 278.735625 353.220648 
L 300.384261 353.220176 
L 322.032898 353.220512 
L 343.681534 353.220253 
L 365.33017 353.220186 
L 386.978807 353.219837 
L 408.627443 353.219339 
L 430.27608 353.219431 
L 451.924716 353.219332 
L 473.573352 353.21913 
L 495.221989 353.218421 
L 516.870625 353.217597 
L 538.519261 353.217137 
L 560.167898 353.215975 
L 581.816534 353.21525 
L 603.46517 353.213449 
L 625.113807 353.211515 
L 646.762443 353.209446 
L 668.41108 353.209911 
L 690.059716 353.207321 
L 711.708352 353.203183 
L 733.356989 353.199854 
L 755.005625 353.19767 
L 776.654261 353.1937 
L 798.302898 353.189659 
L 819.951534 353.177304 
L 841.60017 353.156667 
L 863.248807 353.083169 
L 884.897443 352.533981 
L 906.54608 346.456421 
L 928.194716 309.080493 
L 949.843352 330.173652 
" style="fill:none;stroke:#f0ad4e;stroke-linecap:square;"/>
   </g>
   <g id="line2d_35">
    <path clip-path="url(#p90290199d7)" d="M 83.897898 353.22322 
L 105.546534 353.22287 
L 127.19517 353.222234 
L 148.843807 353.222101 
L 170.492443 353.221946 
L 192.14108 353.221892 
L 213.789716 353.221819 
L 235.438352 353.221692 
L 257.086989 353.221692 
L 278.735625 353.22149 
L 300.384261 353.221211 
L 322.032898 353.221186 
L 343.681534 353.220768 
L 365.33017 353.221016 
L 386.978807 353.22047 
L 408.627443 353.220147 
L 430.27608 353.220215 
L 451.924716 353.220063 
L 473.573352 353.219763 
L 495.221989 353.219262 
L 516.870625 353.216427 
L 538.519261 353.217073 
L 560.167898 353.216002 
L 581.816534 353.216991 
L 603.46517 353.215943 
L 625.113807 353.214712 
L 646.762443 353.211759 
L 668.41108 353.212411 
L 690.059716 353.209475 
L 711.708352 353.20331 
L 733.356989 353.201506 
L 755.005625 353.202521 
L 776.654261 353.201116 
L 798.302898 353.196044 
L 819.951534 353.185032 
L 841.60017 353.164547 
L 863.248807 353.097343 
L 884.897443 352.510967 
L 906.54608 345.968464 
L 928.194716 306.496244 
L 949.843352 329.488816 
" style="fill:none;stroke:#f0ad4e;stroke-linecap:square;"/>
   </g>
   <g id="line2d_36">
    <path clip-path="url(#p90290199d7)" d="M 83.897898 353.223593 
L 105.546534 353.223335 
L 127.19517 353.223072 
L 148.843807 353.222942 
L 170.492443 353.22276 
L 192.14108 353.222804 
L 213.789716 353.222705 
L 235.438352 353.222667 
L 257.086989 353.222634 
L 278.735625 353.222425 
L 300.384261 353.222223 
L 322.032898 353.222186 
L 343.681534 353.222118 
L 365.33017 353.221949 
L 386.978807 353.221782 
L 408.627443 353.221733 
L 430.27608 353.22168 
L 451.924716 353.221549 
L 473.573352 353.221573 
L 495.221989 353.221286 
L 516.870625 353.221103 
L 538.519261 353.220844 
L 560.167898 353.22069 
L 581.816534 353.220431 
L 603.46517 353.220135 
L 625.113807 353.21943 
L 646.762443 353.218939 
L 668.41108 353.218856 
L 690.059716 353.21789 
L 711.708352 353.216487 
L 733.356989 353.215231 
L 755.005625 353.213702 
L 776.654261 353.211532 
L 798.302898 353.208247 
L 819.951534 353.20066 
L 841.60017 353.186044 
L 863.248807 353.132377 
L 884.897443 352.621941 
L 906.54608 346.887431 
L 928.194716 311.913854 
L 949.843352 332.460607 
" style="fill:none;stroke:#f0ad4e;stroke-linecap:square;"/>
   </g>
   <g id="line2d_37">
    <path clip-path="url(#p90290199d7)" d="M 83.897898 353.223373 
L 105.546534 353.223078 
L 127.19517 353.222566 
L 148.843807 353.222391 
L 170.492443 353.22225 
L 192.14108 353.222205 
L 213.789716 353.222072 
L 235.438352 353.222144 
L 257.086989 353.222164 
L 278.735625 353.221827 
L 300.384261 353.221559 
L 322.032898 353.221545 
L 343.681534 353.221444 
L 365.33017 353.221423 
L 386.978807 353.221193 
L 408.627443 353.220909 
L 430.27608 353.221025 
L 451.924716 353.220725 
L 473.573352 353.220576 
L 495.221989 353.220085 
L 516.870625 353.219144 
L 538.519261 353.219304 
L 560.167898 353.218694 
L 581.816534 353.218278 
L 603.46517 353.217308 
L 625.113807 353.216336 
L 646.762443 353.214643 
L 668.41108 353.214626 
L 690.059716 353.212952 
L 711.708352 353.20987 
L 733.356989 353.206818 
L 755.005625 353.203868 
L 776.654261 353.198706 
L 798.302898 353.1928 
L 819.951534 353.183967 
L 841.60017 353.16491 
L 863.248807 353.100248 
L 884.897443 352.5455 
L 906.54608 346.413132 
L 928.194716 308.641833 
L 949.843352 330.674305 
" style="fill:none;stroke:#f0ad4e;stroke-linecap:square;"/>
   </g>
   <g id="line2d_38">
    <path clip-path="url(#p90290199d7)" d="M 83.897898 353.223331 
L 105.546534 353.223011 
L 127.19517 353.222441 
L 148.843807 353.222206 
L 170.492443 353.222113 
L 192.14108 353.222015 
L 213.789716 353.221902 
L 235.438352 353.221969 
L 257.086989 353.22195 
L 278.735625 353.221672 
L 300.384261 353.221437 
L 322.032898 353.221338 
L 343.681534 353.221186 
L 365.33017 353.221264 
L 386.978807 353.221153 
L 408.627443 353.220837 
L 430.27608 353.220926 
L 451.924716 353.220809 
L 473.573352 353.220628 
L 495.221989 353.220212 
L 516.870625 353.219502 
L 538.519261 353.219421 
L 560.167898 353.219021 
L 581.816534 353.218477 
L 603.46517 353.217603 
L 625.113807 353.21636 
L 646.762443 353.214923 
L 668.41108 353.214851 
L 690.059716 353.213055 
L 711.708352 353.210301 
L 733.356989 353.207502 
L 755.005625 353.204599 
L 776.654261 353.199234 
L 798.302898 353.193511 
L 819.951534 353.185422 
L 841.60017 353.167549 
L 863.248807 353.10777 
L 884.897443 352.602129 
L 906.54608 347.054429 
L 928.194716 312.687068 
L 949.843352 332.633305 
" style="fill:none;stroke:#f0ad4e;stroke-linecap:square;"/>
   </g>
   <g id="line2d_39">
    <path clip-path="url(#p90290199d7)" d="M 83.897898 353.223424 
L 105.546534 353.223069 
L 127.19517 353.222589 
L 148.843807 353.222373 
L 170.492443 353.222305 
L 192.14108 353.222185 
L 213.789716 353.222238 
L 235.438352 353.222063 
L 257.086989 353.221984 
L 278.735625 353.221706 
L 300.384261 353.221409 
L 322.032898 353.221457 
L 343.681534 353.22119 
L 365.33017 353.22122 
L 386.978807 353.220809 
L 408.627443 353.220513 
L 430.27608 353.220468 
L 451.924716 353.220154 
L 473.573352 353.219903 
L 495.221989 353.219475 
L 516.870625 353.217628 
L 538.519261 353.217966 
L 560.167898 353.21711 
L 581.816534 353.216894 
L 603.46517 353.215742 
L 625.113807 353.214117 
L 646.762443 353.211901 
L 668.41108 353.211166 
L 690.059716 353.209154 
L 711.708352 353.205664 
L 733.356989 353.201628 
L 755.005625 353.197273 
L 776.654261 353.191148 
L 798.302898 353.184954 
L 819.951534 353.1737 
L 841.60017 353.152001 
L 863.248807 353.085014 
L 884.897443 352.510682 
L 906.54608 346.219467 
L 928.194716 307.870181 
L 949.843352 330.538498 
" style="fill:none;stroke:#f0ad4e;stroke-linecap:square;"/>
   </g>
   <g id="line2d_40">
    <path clip-path="url(#p90290199d7)" d="M 40.600625 353.2239 
L 993.140625 353.2239 
" style="fill:none;stroke:#dedede;stroke-linecap:square;stroke-width:2;"/>
   </g>
   <g id="text_18">
    <!-- FastQC: Sequence Length Distribution -->
    <g transform="translate(364.858125 19.3575)scale(0.16 -0.16)">
     <defs>
      <path d="M 628 4666 
L 3309 4666 
L 3309 4134 
L 1259 4134 
L 1259 2759 
L 3109 2759 
L 3109 2228 
L 1259 2228 
L 1259 0 
L 628 0 
L 628 4666 
z
" id="DejaVuSans-46" transform="scale(0.015625)"/>
      <path d="M 2834 3397 
L 2834 2853 
Q 2591 2978 2328 3040 
Q 2066 3103 1784 3103 
Q 1356 3103 1142 2972 
Q 928 2841 928 2578 
Q 928 2378 1081 2264 
Q 1234 2150 1697 2047 
L 1894 2003 
Q 2506 1872 2764 1633 
Q 3022 1394 3022 966 
Q 3022 478 2636 193 
Q 2250 -91 1575 -91 
Q 1294 -91 989 -36 
Q 684 19 347 128 
L 347 722 
Q 666 556 975 473 
Q 1284 391 1588 391 
Q 1994 391 2212 530 
Q 2431 669 2431 922 
Q 2431 1156 2273 1281 
Q 2116 1406 1581 1522 
L 1381 1569 
Q 847 1681 609 1914 
Q 372 2147 372 2553 
Q 372 3047 722 3315 
Q 1072 3584 1716 3584 
Q 2034 3584 2315 3537 
Q 2597 3491 2834 3397 
z
" id="DejaVuSans-73" transform="scale(0.015625)"/>
      <path d="M 2522 4238 
Q 1834 4238 1429 3725 
Q 1025 3213 1025 2328 
Q 1025 1447 1429 934 
Q 1834 422 2522 422 
Q 3209 422 3611 934 
Q 4013 1447 4013 2328 
Q 4013 3213 3611 3725 
Q 3209 4238 2522 4238 
z
M 3406 84 
L 4238 -825 
L 3475 -825 
L 2784 -78 
Q 2681 -84 2626 -87 
Q 2572 -91 2522 -91 
Q 1538 -91 948 567 
Q 359 1225 359 2328 
Q 359 3434 948 4092 
Q 1538 4750 2522 4750 
Q 3503 4750 4090 4092 
Q 4678 3434 4678 2328 
Q 4678 1516 4351 937 
Q 4025 359 3406 84 
z
" id="DejaVuSans-51" transform="scale(0.015625)"/>
      <path d="M 750 794 
L 1409 794 
L 1409 0 
L 750 0 
L 750 794 
z
M 750 3309 
L 1409 3309 
L 1409 2516 
L 750 2516 
L 750 3309 
z
" id="DejaVuSans-3a" transform="scale(0.015625)"/>
      <path d="M 1259 4147 
L 1259 519 
L 2022 519 
Q 2988 519 3436 956 
Q 3884 1394 3884 2338 
Q 3884 3275 3436 3711 
Q 2988 4147 2022 4147 
L 1259 4147 
z
M 628 4666 
L 1925 4666 
Q 3281 4666 3915 4102 
Q 4550 3538 4550 2338 
Q 4550 1131 3912 565 
Q 3275 0 1925 0 
L 628 0 
L 628 4666 
z
" id="DejaVuSans-44" transform="scale(0.015625)"/>
      <path d="M 603 3500 
L 1178 3500 
L 1178 0 
L 603 0 
L 603 3500 
z
M 603 4863 
L 1178 4863 
L 1178 4134 
L 603 4134 
L 603 4863 
z
" id="DejaVuSans-69" transform="scale(0.015625)"/>
      <path d="M 2631 2963 
Q 2534 3019 2420 3045 
Q 2306 3072 2169 3072 
Q 1681 3072 1420 2755 
Q 1159 2438 1159 1844 
L 1159 0 
L 581 0 
L 581 3500 
L 1159 3500 
L 1159 2956 
Q 1341 3275 1631 3429 
Q 1922 3584 2338 3584 
Q 2397 3584 2469 3576 
Q 2541 3569 2628 3553 
L 2631 2963 
z
" id="DejaVuSans-72" transform="scale(0.015625)"/>
     </defs>
     <use xlink:href="#DejaVuSans-46"/>
     <use x="48.394531" xlink:href="#DejaVuSans-61"/>
     <use x="109.673828" xlink:href="#DejaVuSans-73"/>
     <use x="161.773438" xlink:href="#DejaVuSans-74"/>
     <use x="200.982422" xlink:href="#DejaVuSans-51"/>
     <use x="279.693359" xlink:href="#DejaVuSans-43"/>
     <use x="349.517578" xlink:href="#DejaVuSans-3a"/>
     <use x="383.208984" xlink:href="#DejaVuSans-20"/>
     <use x="414.996094" xlink:href="#DejaVuSans-53"/>
     <use x="478.472656" xlink:href="#DejaVuSans-65"/>
     <use x="539.996094" xlink:href="#DejaVuSans-71"/>
     <use x="603.472656" xlink:href="#DejaVuSans-75"/>
     <use x="666.851562" xlink:href="#DejaVuSans-65"/>
     <use x="728.375" xlink:href="#DejaVuSans-6e"/>
     <use x="791.753906" xlink:href="#DejaVuSans-63"/>
     <use x="846.734375" xlink:href="#DejaVuSans-65"/>
     <use x="908.257812" xlink:href="#DejaVuSans-20"/>
     <use x="940.044922" xlink:href="#DejaVuSans-4c"/>
     <use x="994.007812" xlink:href="#DejaVuSans-65"/>
     <use x="1055.53125" xlink:href="#DejaVuSans-6e"/>
     <use x="1118.910156" xlink:href="#DejaVuSans-67"/>
     <use x="1182.386719" xlink:href="#DejaVuSans-74"/>
     <use x="1221.595703" xlink:href="#DejaVuSans-68"/>
     <use x="1284.974609" xlink:href="#DejaVuSans-20"/>
     <use x="1316.761719" xlink:href="#DejaVuSans-44"/>
     <use x="1393.763672" xlink:href="#DejaVuSans-69"/>
     <use x="1421.546875" xlink:href="#DejaVuSans-73"/>
     <use x="1473.646484" xlink:href="#DejaVuSans-74"/>
     <use x="1512.855469" xlink:href="#DejaVuSans-72"/>
     <use x="1553.96875" xlink:href="#DejaVuSans-69"/>
     <use x="1581.751953" xlink:href="#DejaVuSans-62"/>
     <use x="1645.228516" xlink:href="#DejaVuSans-75"/>
     <use x="1708.607422" xlink:href="#DejaVuSans-74"/>
     <use x="1747.816406" xlink:href="#DejaVuSans-69"/>
     <use x="1775.599609" xlink:href="#DejaVuSans-6f"/>
     <use x="1836.78125" xlink:href="#DejaVuSans-6e"/>
    </g>
   </g>
  </g>
 </g>
 <defs>
  <clipPath id="p90290199d7">
   <rect height="317.968" width="952.54" x="40.600625" y="35.2559"/>
  </clipPath>
 </defs>
</svg>
