<?xml version="1.0" encoding="utf-8" standalone="no"?>
<!DOCTYPE svg PUBLIC "-//W3C//DTD SVG 1.1//EN"
  "http://www.w3.org/Graphics/SVG/1.1/DTD/svg11.dtd">
<svg height="388.844525pt" version="1.1" viewBox="0 0 1000.300625 388.844525" width="1000.300625pt" xmlns="http://www.w3.org/2000/svg" xmlns:xlink="http://www.w3.org/1999/xlink">
 <metadata>
  <rdf:RDF xmlns:cc="http://creativecommons.org/ns#" xmlns:dc="http://purl.org/dc/elements/1.1/" xmlns:rdf="http://www.w3.org/1999/02/22-rdf-syntax-ns#">
   <cc:Work>
    <dc:type rdf:resource="http://purl.org/dc/dcmitype/StillImage"/>
    <dc:date>2022-11-03T13:38:42.016834</dc:date>
    <dc:format>image/svg+xml</dc:format>
    <dc:creator>
     <cc:Agent>
      <dc:title>Matplotlib v3.4.2, https://matplotlib.org/</dc:title>
     </cc:Agent>
    </dc:creator>
   </cc:Work>
  </rdf:RDF>
 </metadata>
 <defs>
  <style type="text/css">*{stroke-linecap:butt;stroke-linejoin:round;}</style>
 </defs>
 <g id="figure_1">
  <g id="axes_1">
   <g id="patch_1">
    <path d="M 45.690625 353.2239 
L 993.100625 353.2239 
L 993.100625 35.2559 
L 45.690625 35.2559 
z
" style="fill:#ffffff;"/>
   </g>
   <g id="patch_2">
    <path clip-path="url(#pd4e2339a40)" d="M 740.127274 353.2239 
L 2525.821515 353.2239 
L 2525.821515 35.2559 
L 740.127274 35.2559 
z
" style="fill:#c3e6c3;"/>
   </g>
   <g id="patch_3">
    <path clip-path="url(#pd4e2339a40)" d="M 541.716803 353.2239 
L 740.127274 353.2239 
L 740.127274 35.2559 
L 541.716803 35.2559 
z
" style="fill:#e6dcc3;"/>
   </g>
   <g id="patch_4">
    <path clip-path="url(#pd4e2339a40)" d="M 45.690625 353.2239 
L 541.716803 353.2239 
L 541.716803 35.2559 
L 45.690625 35.2559 
z
" style="fill:#e6c3c3;"/>
   </g>
   <g id="matplotlib.axis_1">
    <g id="xtick_1">
     <g id="text_1">
      <!-- 0 -->
      <g transform="translate(43.145625 366.30265)scale(0.08 -0.08)">
       <defs>
        <path d="M 2034 4250 
Q 1547 4250 1301 3770 
Q 1056 3291 1056 2328 
Q 1056 1369 1301 889 
Q 1547 409 2034 409 
Q 2525 409 2770 889 
Q 3016 1369 3016 2328 
Q 3016 3291 2770 3770 
Q 2525 4250 2034 4250 
z
M 2034 4750 
Q 2819 4750 3233 4129 
Q 3647 3509 3647 2328 
Q 3647 1150 3233 529 
Q 2819 -91 2034 -91 
Q 1250 -91 836 529 
Q 422 1150 422 2328 
Q 422 3509 836 4129 
Q 1250 4750 2034 4750 
z
" id="DejaVuSans-30" transform="scale(0.015625)"/>
       </defs>
       <use xlink:href="#DejaVuSans-30"/>
      </g>
     </g>
    </g>
    <g id="xtick_2">
     <g id="text_2">
      <!-- 5 -->
      <g transform="translate(167.15217 366.30265)scale(0.08 -0.08)">
       <defs>
        <path d="M 691 4666 
L 3169 4666 
L 3169 4134 
L 1269 4134 
L 1269 2991 
Q 1406 3038 1543 3061 
Q 1681 3084 1819 3084 
Q 2600 3084 3056 2656 
Q 3513 2228 3513 1497 
Q 3513 744 3044 326 
Q 2575 -91 1722 -91 
Q 1428 -91 1123 -41 
Q 819 9 494 109 
L 494 744 
Q 775 591 1075 516 
Q 1375 441 1709 441 
Q 2250 441 2565 725 
Q 2881 1009 2881 1497 
Q 2881 1984 2565 2268 
Q 2250 2553 1709 2553 
Q 1456 2553 1204 2497 
Q 953 2441 691 2322 
L 691 4666 
z
" id="DejaVuSans-35" transform="scale(0.015625)"/>
       </defs>
       <use xlink:href="#DejaVuSans-35"/>
      </g>
     </g>
    </g>
    <g id="xtick_3">
     <g id="text_3">
      <!-- 10 -->
      <g transform="translate(288.613714 366.30265)scale(0.08 -0.08)">
       <defs>
        <path d="M 794 531 
L 1825 531 
L 1825 4091 
L 703 3866 
L 703 4441 
L 1819 4666 
L 2450 4666 
L 2450 531 
L 3481 531 
L 3481 0 
L 794 0 
L 794 531 
z
" id="DejaVuSans-31" transform="scale(0.015625)"/>
       </defs>
       <use xlink:href="#DejaVuSans-31"/>
       <use x="63.623047" xlink:href="#DejaVuSans-30"/>
      </g>
     </g>
    </g>
    <g id="xtick_4">
     <g id="text_4">
      <!-- 15 -->
      <g transform="translate(412.620259 366.30265)scale(0.08 -0.08)">
       <use xlink:href="#DejaVuSans-31"/>
       <use x="63.623047" xlink:href="#DejaVuSans-35"/>
      </g>
     </g>
    </g>
    <g id="xtick_5">
     <g id="text_5">
      <!-- 20 -->
      <g transform="translate(536.626803 366.30265)scale(0.08 -0.08)">
       <defs>
        <path d="M 1228 531 
L 3431 531 
L 3431 0 
L 469 0 
L 469 531 
Q 828 903 1448 1529 
Q 2069 2156 2228 2338 
Q 2531 2678 2651 2914 
Q 2772 3150 2772 3378 
Q 2772 3750 2511 3984 
Q 2250 4219 1831 4219 
Q 1534 4219 1204 4116 
Q 875 4013 500 3803 
L 500 4441 
Q 881 4594 1212 4672 
Q 1544 4750 1819 4750 
Q 2544 4750 2975 4387 
Q 3406 4025 3406 3419 
Q 3406 3131 3298 2873 
Q 3191 2616 2906 2266 
Q 2828 2175 2409 1742 
Q 1991 1309 1228 531 
z
" id="DejaVuSans-32" transform="scale(0.015625)"/>
       </defs>
       <use xlink:href="#DejaVuSans-32"/>
       <use x="63.623047" xlink:href="#DejaVuSans-30"/>
      </g>
     </g>
    </g>
    <g id="xtick_6">
     <g id="text_6">
      <!-- 25 -->
      <g transform="translate(660.633348 366.30265)scale(0.08 -0.08)">
       <use xlink:href="#DejaVuSans-32"/>
       <use x="63.623047" xlink:href="#DejaVuSans-35"/>
      </g>
     </g>
    </g>
    <g id="xtick_7">
     <g id="text_7">
      <!-- 30 -->
      <g transform="translate(784.639892 366.30265)scale(0.08 -0.08)">
       <defs>
        <path d="M 2597 2516 
Q 3050 2419 3304 2112 
Q 3559 1806 3559 1356 
Q 3559 666 3084 287 
Q 2609 -91 1734 -91 
Q 1441 -91 1130 -33 
Q 819 25 488 141 
L 488 750 
Q 750 597 1062 519 
Q 1375 441 1716 441 
Q 2309 441 2620 675 
Q 2931 909 2931 1356 
Q 2931 1769 2642 2001 
Q 2353 2234 1838 2234 
L 1294 2234 
L 1294 2753 
L 1863 2753 
Q 2328 2753 2575 2939 
Q 2822 3125 2822 3475 
Q 2822 3834 2567 4026 
Q 2313 4219 1838 4219 
Q 1578 4219 1281 4162 
Q 984 4106 628 3988 
L 628 4550 
Q 988 4650 1302 4700 
Q 1616 4750 1894 4750 
Q 2613 4750 3031 4423 
Q 3450 4097 3450 3541 
Q 3450 3153 3228 2886 
Q 3006 2619 2597 2516 
z
" id="DejaVuSans-33" transform="scale(0.015625)"/>
       </defs>
       <use xlink:href="#DejaVuSans-33"/>
       <use x="63.623047" xlink:href="#DejaVuSans-30"/>
      </g>
     </g>
    </g>
    <g id="xtick_8">
     <g id="text_8">
      <!-- 35 -->
      <g transform="translate(908.646437 366.30265)scale(0.08 -0.08)">
       <use xlink:href="#DejaVuSans-33"/>
       <use x="63.623047" xlink:href="#DejaVuSans-35"/>
      </g>
     </g>
    </g>
    <g id="text_9">
     <!-- Mean Sequence Quality (Phred Score) -->
     <g transform="translate(424.603437 379.564837)scale(0.1 -0.1)">
      <defs>
       <path d="M 628 4666 
L 1569 4666 
L 2759 1491 
L 3956 4666 
L 4897 4666 
L 4897 0 
L 4281 0 
L 4281 4097 
L 3078 897 
L 2444 897 
L 1241 4097 
L 1241 0 
L 628 0 
L 628 4666 
z
" id="DejaVuSans-4d" transform="scale(0.015625)"/>
       <path d="M 3597 1894 
L 3597 1613 
L 953 1613 
Q 991 1019 1311 708 
Q 1631 397 2203 397 
Q 2534 397 2845 478 
Q 3156 559 3463 722 
L 3463 178 
Q 3153 47 2828 -22 
Q 2503 -91 2169 -91 
Q 1331 -91 842 396 
Q 353 884 353 1716 
Q 353 2575 817 3079 
Q 1281 3584 2069 3584 
Q 2775 3584 3186 3129 
Q 3597 2675 3597 1894 
z
M 3022 2063 
Q 3016 2534 2758 2815 
Q 2500 3097 2075 3097 
Q 1594 3097 1305 2825 
Q 1016 2553 972 2059 
L 3022 2063 
z
" id="DejaVuSans-65" transform="scale(0.015625)"/>
       <path d="M 2194 1759 
Q 1497 1759 1228 1600 
Q 959 1441 959 1056 
Q 959 750 1161 570 
Q 1363 391 1709 391 
Q 2188 391 2477 730 
Q 2766 1069 2766 1631 
L 2766 1759 
L 2194 1759 
z
M 3341 1997 
L 3341 0 
L 2766 0 
L 2766 531 
Q 2569 213 2275 61 
Q 1981 -91 1556 -91 
Q 1019 -91 701 211 
Q 384 513 384 1019 
Q 384 1609 779 1909 
Q 1175 2209 1959 2209 
L 2766 2209 
L 2766 2266 
Q 2766 2663 2505 2880 
Q 2244 3097 1772 3097 
Q 1472 3097 1187 3025 
Q 903 2953 641 2809 
L 641 3341 
Q 956 3463 1253 3523 
Q 1550 3584 1831 3584 
Q 2591 3584 2966 3190 
Q 3341 2797 3341 1997 
z
" id="DejaVuSans-61" transform="scale(0.015625)"/>
       <path d="M 3513 2113 
L 3513 0 
L 2938 0 
L 2938 2094 
Q 2938 2591 2744 2837 
Q 2550 3084 2163 3084 
Q 1697 3084 1428 2787 
Q 1159 2491 1159 1978 
L 1159 0 
L 581 0 
L 581 3500 
L 1159 3500 
L 1159 2956 
Q 1366 3272 1645 3428 
Q 1925 3584 2291 3584 
Q 2894 3584 3203 3211 
Q 3513 2838 3513 2113 
z
" id="DejaVuSans-6e" transform="scale(0.015625)"/>
       <path id="DejaVuSans-20" transform="scale(0.015625)"/>
       <path d="M 3425 4513 
L 3425 3897 
Q 3066 4069 2747 4153 
Q 2428 4238 2131 4238 
Q 1616 4238 1336 4038 
Q 1056 3838 1056 3469 
Q 1056 3159 1242 3001 
Q 1428 2844 1947 2747 
L 2328 2669 
Q 3034 2534 3370 2195 
Q 3706 1856 3706 1288 
Q 3706 609 3251 259 
Q 2797 -91 1919 -91 
Q 1588 -91 1214 -16 
Q 841 59 441 206 
L 441 856 
Q 825 641 1194 531 
Q 1563 422 1919 422 
Q 2459 422 2753 634 
Q 3047 847 3047 1241 
Q 3047 1584 2836 1778 
Q 2625 1972 2144 2069 
L 1759 2144 
Q 1053 2284 737 2584 
Q 422 2884 422 3419 
Q 422 4038 858 4394 
Q 1294 4750 2059 4750 
Q 2388 4750 2728 4690 
Q 3069 4631 3425 4513 
z
" id="DejaVuSans-53" transform="scale(0.015625)"/>
       <path d="M 947 1747 
Q 947 1113 1208 752 
Q 1469 391 1925 391 
Q 2381 391 2643 752 
Q 2906 1113 2906 1747 
Q 2906 2381 2643 2742 
Q 2381 3103 1925 3103 
Q 1469 3103 1208 2742 
Q 947 2381 947 1747 
z
M 2906 525 
Q 2725 213 2448 61 
Q 2172 -91 1784 -91 
Q 1150 -91 751 415 
Q 353 922 353 1747 
Q 353 2572 751 3078 
Q 1150 3584 1784 3584 
Q 2172 3584 2448 3432 
Q 2725 3281 2906 2969 
L 2906 3500 
L 3481 3500 
L 3481 -1331 
L 2906 -1331 
L 2906 525 
z
" id="DejaVuSans-71" transform="scale(0.015625)"/>
       <path d="M 544 1381 
L 544 3500 
L 1119 3500 
L 1119 1403 
Q 1119 906 1312 657 
Q 1506 409 1894 409 
Q 2359 409 2629 706 
Q 2900 1003 2900 1516 
L 2900 3500 
L 3475 3500 
L 3475 0 
L 2900 0 
L 2900 538 
Q 2691 219 2414 64 
Q 2138 -91 1772 -91 
Q 1169 -91 856 284 
Q 544 659 544 1381 
z
M 1991 3584 
L 1991 3584 
z
" id="DejaVuSans-75" transform="scale(0.015625)"/>
       <path d="M 3122 3366 
L 3122 2828 
Q 2878 2963 2633 3030 
Q 2388 3097 2138 3097 
Q 1578 3097 1268 2742 
Q 959 2388 959 1747 
Q 959 1106 1268 751 
Q 1578 397 2138 397 
Q 2388 397 2633 464 
Q 2878 531 3122 666 
L 3122 134 
Q 2881 22 2623 -34 
Q 2366 -91 2075 -91 
Q 1284 -91 818 406 
Q 353 903 353 1747 
Q 353 2603 823 3093 
Q 1294 3584 2113 3584 
Q 2378 3584 2631 3529 
Q 2884 3475 3122 3366 
z
" id="DejaVuSans-63" transform="scale(0.015625)"/>
       <path d="M 2522 4238 
Q 1834 4238 1429 3725 
Q 1025 3213 1025 2328 
Q 1025 1447 1429 934 
Q 1834 422 2522 422 
Q 3209 422 3611 934 
Q 4013 1447 4013 2328 
Q 4013 3213 3611 3725 
Q 3209 4238 2522 4238 
z
M 3406 84 
L 4238 -825 
L 3475 -825 
L 2784 -78 
Q 2681 -84 2626 -87 
Q 2572 -91 2522 -91 
Q 1538 -91 948 567 
Q 359 1225 359 2328 
Q 359 3434 948 4092 
Q 1538 4750 2522 4750 
Q 3503 4750 4090 4092 
Q 4678 3434 4678 2328 
Q 4678 1516 4351 937 
Q 4025 359 3406 84 
z
" id="DejaVuSans-51" transform="scale(0.015625)"/>
       <path d="M 603 4863 
L 1178 4863 
L 1178 0 
L 603 0 
L 603 4863 
z
" id="DejaVuSans-6c" transform="scale(0.015625)"/>
       <path d="M 603 3500 
L 1178 3500 
L 1178 0 
L 603 0 
L 603 3500 
z
M 603 4863 
L 1178 4863 
L 1178 4134 
L 603 4134 
L 603 4863 
z
" id="DejaVuSans-69" transform="scale(0.015625)"/>
       <path d="M 1172 4494 
L 1172 3500 
L 2356 3500 
L 2356 3053 
L 1172 3053 
L 1172 1153 
Q 1172 725 1289 603 
Q 1406 481 1766 481 
L 2356 481 
L 2356 0 
L 1766 0 
Q 1100 0 847 248 
Q 594 497 594 1153 
L 594 3053 
L 172 3053 
L 172 3500 
L 594 3500 
L 594 4494 
L 1172 4494 
z
" id="DejaVuSans-74" transform="scale(0.015625)"/>
       <path d="M 2059 -325 
Q 1816 -950 1584 -1140 
Q 1353 -1331 966 -1331 
L 506 -1331 
L 506 -850 
L 844 -850 
Q 1081 -850 1212 -737 
Q 1344 -625 1503 -206 
L 1606 56 
L 191 3500 
L 800 3500 
L 1894 763 
L 2988 3500 
L 3597 3500 
L 2059 -325 
z
" id="DejaVuSans-79" transform="scale(0.015625)"/>
       <path d="M 1984 4856 
Q 1566 4138 1362 3434 
Q 1159 2731 1159 2009 
Q 1159 1288 1364 580 
Q 1569 -128 1984 -844 
L 1484 -844 
Q 1016 -109 783 600 
Q 550 1309 550 2009 
Q 550 2706 781 3412 
Q 1013 4119 1484 4856 
L 1984 4856 
z
" id="DejaVuSans-28" transform="scale(0.015625)"/>
       <path d="M 1259 4147 
L 1259 2394 
L 2053 2394 
Q 2494 2394 2734 2622 
Q 2975 2850 2975 3272 
Q 2975 3691 2734 3919 
Q 2494 4147 2053 4147 
L 1259 4147 
z
M 628 4666 
L 2053 4666 
Q 2838 4666 3239 4311 
Q 3641 3956 3641 3272 
Q 3641 2581 3239 2228 
Q 2838 1875 2053 1875 
L 1259 1875 
L 1259 0 
L 628 0 
L 628 4666 
z
" id="DejaVuSans-50" transform="scale(0.015625)"/>
       <path d="M 3513 2113 
L 3513 0 
L 2938 0 
L 2938 2094 
Q 2938 2591 2744 2837 
Q 2550 3084 2163 3084 
Q 1697 3084 1428 2787 
Q 1159 2491 1159 1978 
L 1159 0 
L 581 0 
L 581 4863 
L 1159 4863 
L 1159 2956 
Q 1366 3272 1645 3428 
Q 1925 3584 2291 3584 
Q 2894 3584 3203 3211 
Q 3513 2838 3513 2113 
z
" id="DejaVuSans-68" transform="scale(0.015625)"/>
       <path d="M 2631 2963 
Q 2534 3019 2420 3045 
Q 2306 3072 2169 3072 
Q 1681 3072 1420 2755 
Q 1159 2438 1159 1844 
L 1159 0 
L 581 0 
L 581 3500 
L 1159 3500 
L 1159 2956 
Q 1341 3275 1631 3429 
Q 1922 3584 2338 3584 
Q 2397 3584 2469 3576 
Q 2541 3569 2628 3553 
L 2631 2963 
z
" id="DejaVuSans-72" transform="scale(0.015625)"/>
       <path d="M 2906 2969 
L 2906 4863 
L 3481 4863 
L 3481 0 
L 2906 0 
L 2906 525 
Q 2725 213 2448 61 
Q 2172 -91 1784 -91 
Q 1150 -91 751 415 
Q 353 922 353 1747 
Q 353 2572 751 3078 
Q 1150 3584 1784 3584 
Q 2172 3584 2448 3432 
Q 2725 3281 2906 2969 
z
M 947 1747 
Q 947 1113 1208 752 
Q 1469 391 1925 391 
Q 2381 391 2643 752 
Q 2906 1113 2906 1747 
Q 2906 2381 2643 2742 
Q 2381 3103 1925 3103 
Q 1469 3103 1208 2742 
Q 947 2381 947 1747 
z
" id="DejaVuSans-64" transform="scale(0.015625)"/>
       <path d="M 1959 3097 
Q 1497 3097 1228 2736 
Q 959 2375 959 1747 
Q 959 1119 1226 758 
Q 1494 397 1959 397 
Q 2419 397 2687 759 
Q 2956 1122 2956 1747 
Q 2956 2369 2687 2733 
Q 2419 3097 1959 3097 
z
M 1959 3584 
Q 2709 3584 3137 3096 
Q 3566 2609 3566 1747 
Q 3566 888 3137 398 
Q 2709 -91 1959 -91 
Q 1206 -91 779 398 
Q 353 888 353 1747 
Q 353 2609 779 3096 
Q 1206 3584 1959 3584 
z
" id="DejaVuSans-6f" transform="scale(0.015625)"/>
       <path d="M 513 4856 
L 1013 4856 
Q 1481 4119 1714 3412 
Q 1947 2706 1947 2009 
Q 1947 1309 1714 600 
Q 1481 -109 1013 -844 
L 513 -844 
Q 928 -128 1133 580 
Q 1338 1288 1338 2009 
Q 1338 2731 1133 3434 
Q 928 4138 513 4856 
z
" id="DejaVuSans-29" transform="scale(0.015625)"/>
      </defs>
      <use xlink:href="#DejaVuSans-4d"/>
      <use x="86.279297" xlink:href="#DejaVuSans-65"/>
      <use x="147.802734" xlink:href="#DejaVuSans-61"/>
      <use x="209.082031" xlink:href="#DejaVuSans-6e"/>
      <use x="272.460938" xlink:href="#DejaVuSans-20"/>
      <use x="304.248047" xlink:href="#DejaVuSans-53"/>
      <use x="367.724609" xlink:href="#DejaVuSans-65"/>
      <use x="429.248047" xlink:href="#DejaVuSans-71"/>
      <use x="492.724609" xlink:href="#DejaVuSans-75"/>
      <use x="556.103516" xlink:href="#DejaVuSans-65"/>
      <use x="617.626953" xlink:href="#DejaVuSans-6e"/>
      <use x="681.005859" xlink:href="#DejaVuSans-63"/>
      <use x="735.986328" xlink:href="#DejaVuSans-65"/>
      <use x="797.509766" xlink:href="#DejaVuSans-20"/>
      <use x="829.296875" xlink:href="#DejaVuSans-51"/>
      <use x="908.007812" xlink:href="#DejaVuSans-75"/>
      <use x="971.386719" xlink:href="#DejaVuSans-61"/>
      <use x="1032.666016" xlink:href="#DejaVuSans-6c"/>
      <use x="1060.449219" xlink:href="#DejaVuSans-69"/>
      <use x="1088.232422" xlink:href="#DejaVuSans-74"/>
      <use x="1127.441406" xlink:href="#DejaVuSans-79"/>
      <use x="1186.621094" xlink:href="#DejaVuSans-20"/>
      <use x="1218.408203" xlink:href="#DejaVuSans-28"/>
      <use x="1257.421875" xlink:href="#DejaVuSans-50"/>
      <use x="1317.724609" xlink:href="#DejaVuSans-68"/>
      <use x="1381.103516" xlink:href="#DejaVuSans-72"/>
      <use x="1419.966797" xlink:href="#DejaVuSans-65"/>
      <use x="1481.490234" xlink:href="#DejaVuSans-64"/>
      <use x="1544.966797" xlink:href="#DejaVuSans-20"/>
      <use x="1576.753906" xlink:href="#DejaVuSans-53"/>
      <use x="1640.230469" xlink:href="#DejaVuSans-63"/>
      <use x="1695.210938" xlink:href="#DejaVuSans-6f"/>
      <use x="1756.392578" xlink:href="#DejaVuSans-72"/>
      <use x="1795.255859" xlink:href="#DejaVuSans-65"/>
      <use x="1856.779297" xlink:href="#DejaVuSans-29"/>
     </g>
    </g>
   </g>
   <g id="matplotlib.axis_2">
    <g id="ytick_1">
     <g id="line2d_1">
      <path clip-path="url(#pd4e2339a40)" d="M 45.690625 353.2239 
L 993.100625 353.2239 
" style="fill:none;stroke:#dedede;stroke-linecap:square;"/>
     </g>
     <g id="text_10">
      <!-- 0.00 -->
      <g transform="translate(20.878125 356.263275)scale(0.08 -0.08)">
       <defs>
        <path d="M 684 794 
L 1344 794 
L 1344 0 
L 684 0 
L 684 794 
z
" id="DejaVuSans-2e" transform="scale(0.015625)"/>
       </defs>
       <use xlink:href="#DejaVuSans-30"/>
       <use x="63.623047" xlink:href="#DejaVuSans-2e"/>
       <use x="95.410156" xlink:href="#DejaVuSans-30"/>
       <use x="159.033203" xlink:href="#DejaVuSans-30"/>
      </g>
     </g>
    </g>
    <g id="ytick_2">
     <g id="line2d_2">
      <path clip-path="url(#pd4e2339a40)" d="M 45.690625 316.087789 
L 993.100625 316.087789 
" style="fill:none;stroke:#dedede;stroke-linecap:square;"/>
     </g>
     <g id="text_11">
      <!-- 0.25 -->
      <g transform="translate(20.878125 319.127164)scale(0.08 -0.08)">
       <use xlink:href="#DejaVuSans-30"/>
       <use x="63.623047" xlink:href="#DejaVuSans-2e"/>
       <use x="95.410156" xlink:href="#DejaVuSans-32"/>
       <use x="159.033203" xlink:href="#DejaVuSans-35"/>
      </g>
     </g>
    </g>
    <g id="ytick_3">
     <g id="line2d_3">
      <path clip-path="url(#pd4e2339a40)" d="M 45.690625 278.951678 
L 993.100625 278.951678 
" style="fill:none;stroke:#dedede;stroke-linecap:square;"/>
     </g>
     <g id="text_12">
      <!-- 0.50 -->
      <g transform="translate(20.878125 281.991053)scale(0.08 -0.08)">
       <use xlink:href="#DejaVuSans-30"/>
       <use x="63.623047" xlink:href="#DejaVuSans-2e"/>
       <use x="95.410156" xlink:href="#DejaVuSans-35"/>
       <use x="159.033203" xlink:href="#DejaVuSans-30"/>
      </g>
     </g>
    </g>
    <g id="ytick_4">
     <g id="line2d_4">
      <path clip-path="url(#pd4e2339a40)" d="M 45.690625 241.815566 
L 993.100625 241.815566 
" style="fill:none;stroke:#dedede;stroke-linecap:square;"/>
     </g>
     <g id="text_13">
      <!-- 0.75 -->
      <g transform="translate(20.878125 244.854941)scale(0.08 -0.08)">
       <defs>
        <path d="M 525 4666 
L 3525 4666 
L 3525 4397 
L 1831 0 
L 1172 0 
L 2766 4134 
L 525 4134 
L 525 4666 
z
" id="DejaVuSans-37" transform="scale(0.015625)"/>
       </defs>
       <use xlink:href="#DejaVuSans-30"/>
       <use x="63.623047" xlink:href="#DejaVuSans-2e"/>
       <use x="95.410156" xlink:href="#DejaVuSans-37"/>
       <use x="159.033203" xlink:href="#DejaVuSans-35"/>
      </g>
     </g>
    </g>
    <g id="ytick_5">
     <g id="line2d_5">
      <path clip-path="url(#pd4e2339a40)" d="M 45.690625 204.679455 
L 993.100625 204.679455 
" style="fill:none;stroke:#dedede;stroke-linecap:square;"/>
     </g>
     <g id="text_14">
      <!-- 1.00 -->
      <g transform="translate(20.878125 207.71883)scale(0.08 -0.08)">
       <use xlink:href="#DejaVuSans-31"/>
       <use x="63.623047" xlink:href="#DejaVuSans-2e"/>
       <use x="95.410156" xlink:href="#DejaVuSans-30"/>
       <use x="159.033203" xlink:href="#DejaVuSans-30"/>
      </g>
     </g>
    </g>
    <g id="ytick_6">
     <g id="line2d_6">
      <path clip-path="url(#pd4e2339a40)" d="M 45.690625 167.543344 
L 993.100625 167.543344 
" style="fill:none;stroke:#dedede;stroke-linecap:square;"/>
     </g>
     <g id="text_15">
      <!-- 1.25 -->
      <g transform="translate(20.878125 170.582719)scale(0.08 -0.08)">
       <use xlink:href="#DejaVuSans-31"/>
       <use x="63.623047" xlink:href="#DejaVuSans-2e"/>
       <use x="95.410156" xlink:href="#DejaVuSans-32"/>
       <use x="159.033203" xlink:href="#DejaVuSans-35"/>
      </g>
     </g>
    </g>
    <g id="ytick_7">
     <g id="line2d_7">
      <path clip-path="url(#pd4e2339a40)" d="M 45.690625 130.407233 
L 993.100625 130.407233 
" style="fill:none;stroke:#dedede;stroke-linecap:square;"/>
     </g>
     <g id="text_16">
      <!-- 1.50 -->
      <g transform="translate(20.878125 133.446608)scale(0.08 -0.08)">
       <use xlink:href="#DejaVuSans-31"/>
       <use x="63.623047" xlink:href="#DejaVuSans-2e"/>
       <use x="95.410156" xlink:href="#DejaVuSans-35"/>
       <use x="159.033203" xlink:href="#DejaVuSans-30"/>
      </g>
     </g>
    </g>
    <g id="ytick_8">
     <g id="line2d_8">
      <path clip-path="url(#pd4e2339a40)" d="M 45.690625 93.271122 
L 993.100625 93.271122 
" style="fill:none;stroke:#dedede;stroke-linecap:square;"/>
     </g>
     <g id="text_17">
      <!-- 1.75 -->
      <g transform="translate(20.878125 96.310497)scale(0.08 -0.08)">
       <use xlink:href="#DejaVuSans-31"/>
       <use x="63.623047" xlink:href="#DejaVuSans-2e"/>
       <use x="95.410156" xlink:href="#DejaVuSans-37"/>
       <use x="159.033203" xlink:href="#DejaVuSans-35"/>
      </g>
     </g>
    </g>
    <g id="ytick_9">
     <g id="line2d_9">
      <path clip-path="url(#pd4e2339a40)" d="M 45.690625 56.135011 
L 993.100625 56.135011 
" style="fill:none;stroke:#dedede;stroke-linecap:square;"/>
     </g>
     <g id="text_18">
      <!-- 2.00 -->
      <g transform="translate(20.878125 59.174386)scale(0.08 -0.08)">
       <use xlink:href="#DejaVuSans-32"/>
       <use x="63.623047" xlink:href="#DejaVuSans-2e"/>
       <use x="95.410156" xlink:href="#DejaVuSans-30"/>
       <use x="159.033203" xlink:href="#DejaVuSans-30"/>
      </g>
     </g>
    </g>
    <g id="text_19">
     <!-- Count -->
     <g transform="translate(14.798438 209.088338)rotate(-90)scale(0.1 -0.1)">
      <defs>
       <path d="M 4122 4306 
L 4122 3641 
Q 3803 3938 3442 4084 
Q 3081 4231 2675 4231 
Q 1875 4231 1450 3742 
Q 1025 3253 1025 2328 
Q 1025 1406 1450 917 
Q 1875 428 2675 428 
Q 3081 428 3442 575 
Q 3803 722 4122 1019 
L 4122 359 
Q 3791 134 3420 21 
Q 3050 -91 2638 -91 
Q 1578 -91 968 557 
Q 359 1206 359 2328 
Q 359 3453 968 4101 
Q 1578 4750 2638 4750 
Q 3056 4750 3426 4639 
Q 3797 4528 4122 4306 
z
" id="DejaVuSans-43" transform="scale(0.015625)"/>
      </defs>
      <use xlink:href="#DejaVuSans-43"/>
      <use x="69.824219" xlink:href="#DejaVuSans-6f"/>
      <use x="131.005859" xlink:href="#DejaVuSans-75"/>
      <use x="194.384766" xlink:href="#DejaVuSans-6e"/>
      <use x="257.763672" xlink:href="#DejaVuSans-74"/>
     </g>
    </g>
    <g id="text_20">
     <!-- 1e8 -->
     <g transform="translate(45.690625 32.2559)scale(0.1 -0.1)">
      <defs>
       <path d="M 2034 2216 
Q 1584 2216 1326 1975 
Q 1069 1734 1069 1313 
Q 1069 891 1326 650 
Q 1584 409 2034 409 
Q 2484 409 2743 651 
Q 3003 894 3003 1313 
Q 3003 1734 2745 1975 
Q 2488 2216 2034 2216 
z
M 1403 2484 
Q 997 2584 770 2862 
Q 544 3141 544 3541 
Q 544 4100 942 4425 
Q 1341 4750 2034 4750 
Q 2731 4750 3128 4425 
Q 3525 4100 3525 3541 
Q 3525 3141 3298 2862 
Q 3072 2584 2669 2484 
Q 3125 2378 3379 2068 
Q 3634 1759 3634 1313 
Q 3634 634 3220 271 
Q 2806 -91 2034 -91 
Q 1263 -91 848 271 
Q 434 634 434 1313 
Q 434 1759 690 2068 
Q 947 2378 1403 2484 
z
M 1172 3481 
Q 1172 3119 1398 2916 
Q 1625 2713 2034 2713 
Q 2441 2713 2670 2916 
Q 2900 3119 2900 3481 
Q 2900 3844 2670 4047 
Q 2441 4250 2034 4250 
Q 1625 4250 1398 4047 
Q 1172 3844 1172 3481 
z
" id="DejaVuSans-38" transform="scale(0.015625)"/>
      </defs>
      <use xlink:href="#DejaVuSans-31"/>
      <use x="63.623047" xlink:href="#DejaVuSans-65"/>
      <use x="125.146484" xlink:href="#DejaVuSans-38"/>
     </g>
    </g>
   </g>
   <g id="line2d_10">
    <path clip-path="url(#pd4e2339a40)" d="M 417.710259 353.223899 
L 442.511567 353.223893 
L 467.312876 353.223841 
L 492.114185 353.223717 
L 516.915494 353.223303 
L 541.716803 353.222205 
L 566.518112 353.219567 
L 591.319421 353.212735 
L 616.12073 353.198411 
L 640.922039 353.170134 
L 665.723348 353.121308 
L 690.524656 353.049812 
L 715.325965 352.944173 
L 740.127274 352.813926 
L 764.928583 352.640738 
L 789.729892 352.440765 
L 814.531201 352.190096 
L 839.33251 351.901963 
L 864.133819 351.4681 
L 888.935128 350.682281 
L 913.736437 347.508024 
L 938.537745 315.919568 
L 963.339054 340.381242 
" style="fill:none;stroke:#5cb85c;stroke-linecap:square;"/>
   </g>
   <g id="line2d_11">
    <path clip-path="url(#pd4e2339a40)" d="M 417.710259 353.223899 
L 442.511567 353.223878 
L 467.312876 353.223826 
L 492.114185 353.223647 
L 516.915494 353.223147 
L 541.716803 353.221994 
L 566.518112 353.219074 
L 591.319421 353.212587 
L 616.12073 353.199617 
L 640.922039 353.175595 
L 665.723348 353.133933 
L 690.524656 353.069152 
L 715.325965 352.9716 
L 740.127274 352.846535 
L 764.928583 352.679118 
L 789.729892 352.484701 
L 814.531201 352.238438 
L 839.33251 351.976173 
L 864.133819 351.577356 
L 888.935128 350.841696 
L 913.736437 347.935856 
L 938.537745 320.111207 
L 963.339054 342.102406 
" style="fill:none;stroke:#5cb85c;stroke-linecap:square;"/>
   </g>
   <g id="line2d_12">
    <path clip-path="url(#pd4e2339a40)" d="M 442.511567 353.223873 
L 467.312876 353.223817 
L 492.114185 353.223616 
L 516.915494 353.223128 
L 541.716803 353.221624 
L 566.518112 353.21797 
L 591.319421 353.209877 
L 616.12073 353.193671 
L 640.922039 353.163967 
L 665.723348 353.116277 
L 690.524656 353.048075 
L 715.325965 352.949114 
L 740.127274 352.83022 
L 764.928583 352.66735 
L 789.729892 352.478162 
L 814.531201 352.250013 
L 839.33251 351.98979 
L 864.133819 351.589663 
L 888.935128 350.850285 
L 913.736437 347.926958 
L 938.537745 319.98249 
L 963.339054 342.291085 
" style="fill:none;stroke:#5cb85c;stroke-linecap:square;"/>
   </g>
   <g id="line2d_13">
    <path clip-path="url(#pd4e2339a40)" d="M 442.511567 353.223876 
L 467.312876 353.223786 
L 492.114185 353.223526 
L 516.915494 353.222786 
L 541.716803 353.220923 
L 566.518112 353.215229 
L 591.319421 353.203521 
L 616.12073 353.186743 
L 640.922039 353.157089 
L 665.723348 353.105831 
L 690.524656 353.036158 
L 715.325965 352.931942 
L 740.127274 352.804274 
L 764.928583 352.629401 
L 789.729892 352.429881 
L 814.531201 352.178065 
L 839.33251 351.89089 
L 864.133819 351.453733 
L 888.935128 350.650353 
L 913.736437 347.49568 
L 938.537745 318.089942 
L 963.339054 341.664636 
" style="fill:none;stroke:#5cb85c;stroke-linecap:square;"/>
   </g>
   <g id="line2d_14">
    <path clip-path="url(#pd4e2339a40)" d="M 392.90895 353.223899 
L 417.710259 353.223899 
L 442.511567 353.223884 
L 467.312876 353.223806 
L 492.114185 353.22361 
L 516.915494 353.223131 
L 541.716803 353.221886 
L 566.518112 353.21861 
L 591.319421 353.211345 
L 616.12073 353.195042 
L 640.922039 353.16431 
L 665.723348 353.110428 
L 690.524656 353.027579 
L 715.325965 352.90394 
L 740.127274 352.748788 
L 764.928583 352.540536 
L 789.729892 352.301784 
L 814.531201 352.003584 
L 839.33251 351.666663 
L 864.133819 351.154342 
L 888.935128 350.227389 
L 913.736437 346.49436 
L 938.537745 308.539127 
L 963.339054 337.800734 
" style="fill:none;stroke:#5cb85c;stroke-linecap:square;"/>
   </g>
   <g id="line2d_15">
    <path clip-path="url(#pd4e2339a40)" d="M 392.90895 353.223899 
L 417.710259 353.223896 
L 442.511567 353.223878 
L 467.312876 353.223805 
L 492.114185 353.223584 
L 516.915494 353.223055 
L 541.716803 353.221806 
L 566.518112 353.218276 
L 591.319421 353.210711 
L 616.12073 353.195448 
L 640.922039 353.165457 
L 665.723348 353.115482 
L 690.524656 353.040899 
L 715.325965 352.928723 
L 740.127274 352.78928 
L 764.928583 352.600613 
L 789.729892 352.382359 
L 814.531201 352.10784 
L 839.33251 351.796825 
L 864.133819 351.328522 
L 888.935128 350.47047 
L 913.736437 347.036248 
L 938.537745 314.348164 
L 963.339054 340.5097 
" style="fill:none;stroke:#5cb85c;stroke-linecap:square;"/>
   </g>
   <g id="line2d_16">
    <path clip-path="url(#pd4e2339a40)" d="M 417.710259 353.223894 
L 442.511567 353.223879 
L 467.312876 353.223803 
L 492.114185 353.223616 
L 516.915494 353.223067 
L 541.716803 353.22192 
L 566.518112 353.218775 
L 591.319421 353.211795 
L 616.12073 353.196375 
L 640.922039 353.166 
L 665.723348 353.113084 
L 690.524656 353.031058 
L 715.325965 352.906117 
L 740.127274 352.746812 
L 764.928583 352.532195 
L 789.729892 352.281625 
L 814.531201 351.974148 
L 839.33251 351.62472 
L 864.133819 351.094964 
L 888.935128 350.142519 
L 913.736437 346.272659 
L 938.537745 307.727807 
L 963.339054 337.489058 
" style="fill:none;stroke:#5cb85c;stroke-linecap:square;"/>
   </g>
   <g id="line2d_17">
    <path clip-path="url(#pd4e2339a40)" d="M 417.710259 353.223885 
L 442.511567 353.223769 
L 467.312876 353.223282 
L 492.114185 353.22181 
L 516.915494 353.217738 
L 541.716803 353.207085 
L 566.518112 353.177106 
L 591.319421 353.10293 
L 616.12073 352.940516 
L 640.922039 352.64537 
L 665.723348 352.159554 
L 690.524656 351.506772 
L 715.325965 350.607444 
L 740.127274 349.542571 
L 764.928583 348.095592 
L 789.729892 346.429728 
L 814.531201 344.330574 
L 839.33251 341.987071 
L 864.133819 338.396308 
L 888.935128 331.886472 
L 913.736437 305.951882 
L 938.537745 50.397233 
L 963.339054 247.437723 
" style="fill:none;stroke:#5cb85c;stroke-linecap:square;"/>
   </g>
   <g id="line2d_18">
    <path clip-path="url(#pd4e2339a40)" d="M 417.710259 353.223897 
L 442.511567 353.223887 
L 467.312876 353.223844 
L 492.114185 353.223646 
L 516.915494 353.223202 
L 541.716803 353.222048 
L 566.518112 353.218701 
L 591.319421 353.211642 
L 616.12073 353.195581 
L 640.922039 353.165192 
L 665.723348 353.112386 
L 690.524656 353.032065 
L 715.325965 352.916777 
L 740.127274 352.772825 
L 764.928583 352.583951 
L 789.729892 352.36752 
L 814.531201 352.097121 
L 839.33251 351.79459 
L 864.133819 351.334227 
L 888.935128 350.478665 
L 913.736437 347.050957 
L 938.537745 314.943144 
L 963.339054 340.839421 
" style="fill:none;stroke:#5cb85c;stroke-linecap:square;"/>
   </g>
   <g id="line2d_19">
    <path clip-path="url(#pd4e2339a40)" d="M 417.710259 353.223896 
L 442.511567 353.223885 
L 467.312876 353.223841 
L 492.114185 353.223705 
L 516.915494 353.223289 
L 541.716803 353.222321 
L 566.518112 353.219429 
L 591.319421 353.212796 
L 616.12073 353.197799 
L 640.922039 353.169201 
L 665.723348 353.120779 
L 690.524656 353.051012 
L 715.325965 352.950694 
L 740.127274 352.827891 
L 764.928583 352.663616 
L 789.729892 352.475512 
L 814.531201 352.236335 
L 839.33251 351.969276 
L 864.133819 351.56033 
L 888.935128 350.810366 
L 913.736437 347.792619 
L 938.537745 318.39756 
L 963.339054 341.570229 
" style="fill:none;stroke:#5cb85c;stroke-linecap:square;"/>
   </g>
   <g id="line2d_20">
    <path clip-path="url(#pd4e2339a40)" d="M 392.90895 353.223899 
L 417.710259 353.223896 
L 442.511567 353.223885 
L 467.312876 353.223805 
L 492.114185 353.223569 
L 516.915494 353.223006 
L 541.716803 353.221446 
L 566.518112 353.217312 
L 591.319421 353.207649 
L 616.12073 353.188289 
L 640.922039 353.15173 
L 665.723348 353.088209 
L 690.524656 352.998191 
L 715.325965 352.868124 
L 740.127274 352.71208 
L 764.928583 352.501216 
L 789.729892 352.259202 
L 814.531201 351.949311 
L 839.33251 351.610587 
L 864.133819 351.102822 
L 888.935128 350.169568 
L 913.736437 346.508749 
L 938.537745 310.354434 
L 963.339054 338.433065 
" style="fill:none;stroke:#5cb85c;stroke-linecap:square;"/>
   </g>
   <g id="line2d_21">
    <path clip-path="url(#pd4e2339a40)" d="M 417.710259 353.223896 
L 442.511567 353.223885 
L 467.312876 353.223826 
L 492.114185 353.22359 
L 516.915494 353.222954 
L 541.716803 353.221376 
L 566.518112 353.216721 
L 591.319421 353.205354 
L 616.12073 353.181326 
L 640.922039 353.13704 
L 665.723348 353.063916 
L 690.524656 352.963974 
L 715.325965 352.822799 
L 740.127274 352.656601 
L 764.928583 352.433486 
L 789.729892 352.181427 
L 814.531201 351.854381 
L 839.33251 351.506215 
L 864.133819 350.987393 
L 888.935128 350.026396 
L 913.736437 346.276254 
L 938.537745 307.951525 
L 963.339054 336.62348 
" style="fill:none;stroke:#5cb85c;stroke-linecap:square;"/>
   </g>
   <g id="line2d_22">
    <path clip-path="url(#pd4e2339a40)" d="M 417.710259 353.223896 
L 442.511567 353.223879 
L 467.312876 353.223792 
L 492.114185 353.223532 
L 516.915494 353.222801 
L 541.716803 353.221079 
L 566.518112 353.216907 
L 591.319421 353.207523 
L 616.12073 353.188245 
L 640.922039 353.15315 
L 665.723348 353.093266 
L 690.524656 353.001829 
L 715.325965 352.867808 
L 740.127274 352.699593 
L 764.928583 352.478421 
L 789.729892 352.223239 
L 814.531201 351.912135 
L 839.33251 351.571312 
L 864.133819 351.048921 
L 888.935128 350.096225 
L 913.736437 346.388379 
L 938.537745 309.808817 
L 963.339054 337.748607 
" style="fill:none;stroke:#5cb85c;stroke-linecap:square;"/>
   </g>
   <g id="line2d_23">
    <path clip-path="url(#pd4e2339a40)" d="M 417.710259 353.223894 
L 442.511567 353.223881 
L 467.312876 353.223814 
L 492.114185 353.223647 
L 516.915494 353.223111 
L 541.716803 353.222248 
L 566.518112 353.219698 
L 591.319421 353.213625 
L 616.12073 353.199922 
L 640.922039 353.17334 
L 665.723348 353.127053 
L 690.524656 353.052946 
L 715.325965 352.939596 
L 740.127274 352.79155 
L 764.928583 352.591777 
L 789.729892 352.362985 
L 814.531201 352.078691 
L 839.33251 351.755456 
L 864.133819 351.276684 
L 888.935128 350.394317 
L 913.736437 346.88461 
L 938.537745 312.042266 
L 963.339054 339.076497 
" style="fill:none;stroke:#5cb85c;stroke-linecap:square;"/>
   </g>
   <g id="line2d_24">
    <path clip-path="url(#pd4e2339a40)" d="M 417.710259 353.223897 
L 442.511567 353.223891 
L 467.312876 353.223821 
L 492.114185 353.223649 
L 516.915494 353.223206 
L 541.716803 353.221939 
L 566.518112 353.218616 
L 591.319421 353.210546 
L 616.12073 353.193261 
L 640.922039 353.160274 
L 665.723348 353.103781 
L 690.524656 353.023741 
L 715.325965 352.908258 
L 740.127274 352.767117 
L 764.928583 352.582331 
L 789.729892 352.367944 
L 814.531201 352.097444 
L 839.33251 351.797714 
L 864.133819 351.339793 
L 888.935128 350.503677 
L 913.736437 347.167428 
L 938.537745 314.679659 
L 963.339054 340.310511 
" style="fill:none;stroke:#5cb85c;stroke-linecap:square;"/>
   </g>
   <g id="line2d_25">
    <path clip-path="url(#pd4e2339a40)" d="M 392.90895 353.223897 
L 417.710259 353.223896 
L 442.511567 353.223887 
L 467.312876 353.223835 
L 492.114185 353.223694 
L 516.915494 353.223289 
L 541.716803 353.222377 
L 566.518112 353.21994 
L 591.319421 353.213946 
L 616.12073 353.201055 
L 640.922039 353.174821 
L 665.723348 353.131241 
L 690.524656 353.064435 
L 715.325965 352.965853 
L 740.127274 352.838597 
L 764.928583 352.668919 
L 789.729892 352.472365 
L 814.531201 352.227557 
L 839.33251 351.953597 
L 864.133819 351.538925 
L 888.935128 350.787525 
L 913.736437 347.750704 
L 938.537745 317.995651 
L 963.339054 341.548307 
" style="fill:none;stroke:#5cb85c;stroke-linecap:square;"/>
   </g>
   <g id="line2d_26">
    <path clip-path="url(#pd4e2339a40)" d="M 442.511567 353.223888 
L 467.312876 353.223844 
L 492.114185 353.223674 
L 516.915494 353.223212 
L 541.716803 353.222275 
L 566.518112 353.219291 
L 591.319421 353.212602 
L 616.12073 353.19722 
L 640.922039 353.16831 
L 665.723348 353.117769 
L 690.524656 353.04335 
L 715.325965 352.932334 
L 740.127274 352.794706 
L 764.928583 352.607077 
L 789.729892 352.393 
L 814.531201 352.117707 
L 839.33251 351.805988 
L 864.133819 351.326842 
L 888.935128 350.45543 
L 913.736437 346.928976 
L 938.537745 312.692801 
L 963.339054 339.946934 
" style="fill:none;stroke:#5cb85c;stroke-linecap:square;"/>
   </g>
   <g id="line2d_27">
    <path clip-path="url(#pd4e2339a40)" d="M 392.90895 353.223899 
L 417.710259 353.223897 
L 442.511567 353.223882 
L 467.312876 353.223826 
L 492.114185 353.223634 
L 516.915494 353.223208 
L 541.716803 353.22211 
L 566.518112 353.219421 
L 591.319421 353.21298 
L 616.12073 353.199378 
L 640.922039 353.173854 
L 665.723348 353.128426 
L 690.524656 353.061361 
L 715.325965 352.963393 
L 740.127274 352.840505 
L 764.928583 352.678466 
L 789.729892 352.49542 
L 814.531201 352.267514 
L 839.33251 352.00453 
L 864.133819 351.609544 
L 888.935128 350.891881 
L 913.736437 348.008172 
L 938.537745 319.709351 
L 963.339054 341.943898 
" style="fill:none;stroke:#5cb85c;stroke-linecap:square;"/>
   </g>
   <g id="line2d_28">
    <path clip-path="url(#pd4e2339a40)" d="M 368.107641 353.223899 
L 392.90895 353.2239 
L 417.710259 353.223897 
L 442.511567 353.223878 
L 467.312876 353.22374 
L 492.114185 353.22345 
L 516.915494 353.22275 
L 541.716803 353.221293 
L 566.518112 353.21803 
L 591.319421 353.210366 
L 616.12073 353.195886 
L 640.922039 353.16924 
L 665.723348 353.122539 
L 690.524656 353.053722 
L 715.325965 352.951159 
L 740.127274 352.826603 
L 764.928583 352.658027 
L 789.729892 352.46194 
L 814.531201 352.228793 
L 839.33251 351.977768 
L 864.133819 351.575025 
L 888.935128 350.84461 
L 913.736437 347.959305 
L 938.537745 319.695846 
L 963.339054 341.655287 
" style="fill:none;stroke:#5cb85c;stroke-linecap:square;"/>
   </g>
   <g id="line2d_29">
    <path clip-path="url(#pd4e2339a40)" d="M 442.511567 353.223879 
L 467.312876 353.22382 
L 492.114185 353.223557 
L 516.915494 353.222963 
L 541.716803 353.221326 
L 566.518112 353.217107 
L 591.319421 353.208465 
L 616.12073 353.191296 
L 640.922039 353.16039 
L 665.723348 353.105898 
L 690.524656 353.02438 
L 715.325965 352.897576 
L 740.127274 352.739945 
L 764.928583 352.526528 
L 789.729892 352.270533 
L 814.531201 351.982811 
L 839.33251 351.657936 
L 864.133819 351.155122 
L 888.935128 350.254893 
L 913.736437 346.705541 
L 938.537745 309.248072 
L 963.339054 336.709418 
" style="fill:none;stroke:#5cb85c;stroke-linecap:square;"/>
   </g>
   <g id="line2d_30">
    <path clip-path="url(#pd4e2339a40)" d="M 417.710259 353.223899 
L 442.511567 353.223872 
L 467.312876 353.223772 
L 492.114185 353.223492 
L 516.915494 353.222888 
L 541.716803 353.221375 
L 566.518112 353.217636 
L 591.319421 353.209025 
L 616.12073 353.191287 
L 640.922039 353.15868 
L 665.723348 353.102297 
L 690.524656 353.019374 
L 715.325965 352.89638 
L 740.127274 352.74385 
L 764.928583 352.538517 
L 789.729892 352.302633 
L 814.531201 352.013411 
L 839.33251 351.686695 
L 864.133819 351.190469 
L 888.935128 350.305443 
L 913.736437 346.774186 
L 938.537745 310.691278 
L 963.339054 338.169935 
" style="fill:none;stroke:#5cb85c;stroke-linecap:square;"/>
   </g>
   <g id="line2d_31">
    <path clip-path="url(#pd4e2339a40)" d="M 417.710259 353.223899 
L 442.511567 353.223884 
L 467.312876 353.223818 
L 492.114185 353.223575 
L 516.915494 353.223171 
L 541.716803 353.222266 
L 566.518112 353.219967 
L 591.319421 353.214585 
L 616.12073 353.203052 
L 640.922039 353.18054 
L 665.723348 353.142224 
L 690.524656 353.083649 
L 715.325965 352.995776 
L 740.127274 352.882827 
L 764.928583 352.726844 
L 789.729892 352.542552 
L 814.531201 352.317786 
L 839.33251 352.061353 
L 864.133819 351.664027 
L 888.935128 350.94217 
L 913.736437 347.973457 
L 938.537745 320.15213 
L 963.339054 342.592864 
" style="fill:none;stroke:#5cb85c;stroke-linecap:square;"/>
   </g>
   <g id="line2d_32">
    <path clip-path="url(#pd4e2339a40)" d="M 392.90895 353.223899 
L 417.710259 353.223899 
L 442.511567 353.223884 
L 467.312876 353.223826 
L 492.114185 353.22364 
L 516.915494 353.223126 
L 541.716803 353.221647 
L 566.518112 353.217826 
L 591.319421 353.209539 
L 616.12073 353.19197 
L 640.922039 353.161361 
L 665.723348 353.107845 
L 690.524656 353.028352 
L 715.325965 352.915107 
L 740.127274 352.772833 
L 764.928583 352.585272 
L 789.729892 352.365933 
L 814.531201 352.091553 
L 839.33251 351.783003 
L 864.133819 351.315408 
L 888.935128 350.460336 
L 913.736437 347.065525 
L 938.537745 314.34986 
L 963.339054 339.992038 
" style="fill:none;stroke:#5cb85c;stroke-linecap:square;"/>
   </g>
   <g id="line2d_33">
    <path clip-path="url(#pd4e2339a40)" d="M 417.710259 353.223899 
L 442.511567 353.223875 
L 467.312876 353.223811 
L 492.114185 353.223627 
L 516.915494 353.222978 
L 541.716803 353.221522 
L 566.518112 353.217633 
L 591.319421 353.208901 
L 616.12073 353.190727 
L 640.922039 353.15591 
L 665.723348 353.097547 
L 690.524656 353.011495 
L 715.325965 352.886437 
L 740.127274 352.734721 
L 764.928583 352.528298 
L 789.729892 352.293412 
L 814.531201 351.99277 
L 839.33251 351.668081 
L 864.133819 351.156625 
L 888.935128 350.219902 
L 913.736437 346.496278 
L 938.537745 312.099977 
L 963.339054 340.286943 
" style="fill:none;stroke:#5cb85c;stroke-linecap:square;"/>
   </g>
   <g id="line2d_34">
    <path clip-path="url(#pd4e2339a40)" d="M 417.710259 353.223893 
L 442.511567 353.223875 
L 467.312876 353.223757 
L 492.114185 353.223398 
L 516.915494 353.222282 
L 541.716803 353.219525 
L 566.518112 353.213028 
L 591.319421 353.198561 
L 616.12073 353.170798 
L 640.922039 353.121795 
L 665.723348 353.041727 
L 690.524656 352.92597 
L 715.325965 352.760844 
L 740.127274 352.568693 
L 764.928583 352.324267 
L 789.729892 352.044877 
L 814.531201 351.709293 
L 839.33251 351.336826 
L 864.133819 350.749907 
L 888.935128 349.65684 
L 913.736437 345.528292 
L 938.537745 307.185715 
L 963.339054 337.706849 
" style="fill:none;stroke:#5cb85c;stroke-linecap:square;"/>
   </g>
   <g id="line2d_35">
    <path clip-path="url(#pd4e2339a40)" d="M 417.710259 353.223896 
L 442.511567 353.223884 
L 467.312876 353.223838 
L 492.114185 353.223673 
L 516.915494 353.223206 
L 541.716803 353.222101 
L 566.518112 353.219184 
L 591.319421 353.212169 
L 616.12073 353.197697 
L 640.922039 353.169913 
L 665.723348 353.11909 
L 690.524656 353.045846 
L 715.325965 352.93394 
L 740.127274 352.797503 
L 764.928583 352.610608 
L 789.729892 352.395806 
L 814.531201 352.126938 
L 839.33251 351.819699 
L 864.133819 351.353452 
L 888.935128 350.492281 
L 913.736437 346.983647 
L 938.537745 314.127073 
L 963.339054 340.921029 
" style="fill:none;stroke:#5cb85c;stroke-linecap:square;"/>
   </g>
   <g id="line2d_36">
    <path clip-path="url(#pd4e2339a40)" d="M 417.710259 353.223899 
L 442.511567 353.223879 
L 467.312876 353.223821 
L 492.114185 353.223615 
L 516.915494 353.223064 
L 541.716803 353.221887 
L 566.518112 353.218347 
L 591.319421 353.210739 
L 616.12073 353.194259 
L 640.922039 353.164026 
L 665.723348 353.110036 
L 690.524656 353.027526 
L 715.325965 352.904936 
L 740.127274 352.748203 
L 764.928583 352.533547 
L 789.729892 352.288186 
L 814.531201 351.974999 
L 839.33251 351.6292 
L 864.133819 351.111588 
L 888.935128 350.169701 
L 913.736437 346.431237 
L 938.537745 308.187277 
L 963.339054 337.281935 
" style="fill:none;stroke:#5cb85c;stroke-linecap:square;"/>
   </g>
   <g id="line2d_37">
    <path clip-path="url(#pd4e2339a40)" d="M 417.710259 353.223894 
L 442.511567 353.223885 
L 467.312876 353.2238 
L 492.114185 353.223613 
L 516.915494 353.22307 
L 541.716803 353.221808 
L 566.518112 353.21838 
L 591.319421 353.210099 
L 616.12073 353.191722 
L 640.922039 353.156446 
L 665.723348 353.098555 
L 690.524656 353.01301 
L 715.325965 352.89265 
L 740.127274 352.741147 
L 764.928583 352.53764 
L 789.729892 352.304186 
L 814.531201 352.011969 
L 839.33251 351.683193 
L 864.133819 351.185637 
L 888.935128 350.274809 
L 913.736437 346.6347 
L 938.537745 309.775807 
L 963.339054 338.009498 
" style="fill:none;stroke:#5cb85c;stroke-linecap:square;"/>
   </g>
   <g id="line2d_38">
    <path clip-path="url(#pd4e2339a40)" d="M 368.107641 353.223899 
L 392.90895 353.2239 
L 417.710259 353.223894 
L 442.511567 353.223878 
L 467.312876 353.223708 
L 492.114185 353.223437 
L 516.915494 353.222472 
L 541.716803 353.220164 
L 566.518112 353.214661 
L 591.319421 353.202735 
L 616.12073 353.178983 
L 640.922039 353.136612 
L 665.723348 353.066734 
L 690.524656 352.963589 
L 715.325965 352.813498 
L 740.127274 352.631891 
L 764.928583 352.391487 
L 789.729892 352.124439 
L 814.531201 351.77491 
L 839.33251 351.414624 
L 864.133819 350.894745 
L 888.935128 349.936279 
L 913.736437 346.270506 
L 938.537745 309.909668 
L 963.339054 336.815455 
" style="fill:none;stroke:#5cb85c;stroke-linecap:square;"/>
   </g>
   <g id="line2d_39">
    <path clip-path="url(#pd4e2339a40)" d="M 417.710259 353.223899 
L 442.511567 353.223857 
L 467.312876 353.223786 
L 492.114185 353.223499 
L 516.915494 353.222882 
L 541.716803 353.221274 
L 566.518112 353.217413 
L 591.319421 353.208246 
L 616.12073 353.188206 
L 640.922039 353.150314 
L 665.723348 353.085829 
L 690.524656 352.988721 
L 715.325965 352.847012 
L 740.127274 352.669355 
L 764.928583 352.430901 
L 789.729892 352.163624 
L 814.531201 351.827278 
L 839.33251 351.47212 
L 864.133819 350.90993 
L 888.935128 349.865148 
L 913.736437 345.672034 
L 938.537745 305.736533 
L 963.339054 337.416118 
" style="fill:none;stroke:#5cb85c;stroke-linecap:square;"/>
   </g>
   <g id="line2d_40">
    <path clip-path="url(#pd4e2339a40)" d="M 442.511567 353.223893 
L 467.312876 353.22383 
L 492.114185 353.22368 
L 516.915494 353.223315 
L 541.716803 353.222354 
L 566.518112 353.219539 
L 591.319421 353.212755 
L 616.12073 353.197949 
L 640.922039 353.168939 
L 665.723348 353.117009 
L 690.524656 353.039687 
L 715.325965 352.921989 
L 740.127274 352.774661 
L 764.928583 352.577769 
L 789.729892 352.348899 
L 814.531201 352.065849 
L 839.33251 351.740611 
L 864.133819 351.243638 
L 888.935128 350.338378 
L 913.736437 346.661407 
L 938.537745 311.014877 
L 963.339054 339.319011 
" style="fill:none;stroke:#5cb85c;stroke-linecap:square;"/>
   </g>
   <g id="line2d_41">
    <path clip-path="url(#pd4e2339a40)" d="M 442.511567 353.223882 
L 467.312876 353.223814 
L 492.114185 353.223587 
L 516.915494 353.222989 
L 541.716803 353.221327 
L 566.518112 353.217037 
L 591.319421 353.207328 
L 616.12073 353.186222 
L 640.922039 353.146574 
L 665.723348 353.078745 
L 690.524656 352.982183 
L 715.325965 352.843856 
L 740.127274 352.680275 
L 764.928583 352.461751 
L 789.729892 352.212078 
L 814.531201 351.896581 
L 839.33251 351.553108 
L 864.133819 351.027142 
L 888.935128 350.079173 
L 913.736437 346.346704 
L 938.537745 308.723564 
L 963.339054 337.253974 
" style="fill:none;stroke:#5cb85c;stroke-linecap:square;"/>
   </g>
   <g id="line2d_42">
    <path clip-path="url(#pd4e2339a40)" d="M 417.710259 353.223897 
L 442.511567 353.223878 
L 467.312876 353.223824 
L 492.114185 353.223609 
L 516.915494 353.223015 
L 541.716803 353.221158 
L 566.518112 353.216742 
L 591.319421 353.20684 
L 616.12073 353.186745 
L 640.922039 353.150399 
L 665.723348 353.089469 
L 690.524656 353.002622 
L 715.325965 352.875856 
L 740.127274 352.726388 
L 764.928583 352.524535 
L 789.729892 352.288419 
L 814.531201 351.985672 
L 839.33251 351.661774 
L 864.133819 351.175934 
L 888.935128 350.290226 
L 913.736437 346.878953 
L 938.537745 313.043728 
L 963.339054 338.653789 
" style="fill:none;stroke:#5cb85c;stroke-linecap:square;"/>
   </g>
   <g id="line2d_43">
    <path clip-path="url(#pd4e2339a40)" d="M 417.710259 353.223899 
L 442.511567 353.223882 
L 467.312876 353.223817 
L 492.114185 353.223549 
L 516.915494 353.223013 
L 541.716803 353.221544 
L 566.518112 353.217646 
L 591.319421 353.208649 
L 616.12073 353.188866 
L 640.922039 353.151562 
L 665.723348 353.088337 
L 690.524656 352.994344 
L 715.325965 352.859822 
L 740.127274 352.695273 
L 764.928583 352.474991 
L 789.729892 352.228879 
L 814.531201 351.919099 
L 839.33251 351.571425 
L 864.133819 351.040288 
L 888.935128 350.082121 
L 913.736437 346.261169 
L 938.537745 307.633887 
L 963.339054 336.987205 
" style="fill:none;stroke:#5cb85c;stroke-linecap:square;"/>
   </g>
   <g id="line2d_44">
    <path clip-path="url(#pd4e2339a40)" d="M 45.690625 353.2239 
L 993.100625 353.2239 
" style="fill:none;stroke:#dedede;stroke-linecap:square;stroke-width:2;"/>
   </g>
   <g id="text_21">
    <!-- FastQC: Per Sequence Quality Scores -->
    <g transform="translate(371.203125 19.3575)scale(0.16 -0.16)">
     <defs>
      <path d="M 628 4666 
L 3309 4666 
L 3309 4134 
L 1259 4134 
L 1259 2759 
L 3109 2759 
L 3109 2228 
L 1259 2228 
L 1259 0 
L 628 0 
L 628 4666 
z
" id="DejaVuSans-46" transform="scale(0.015625)"/>
      <path d="M 2834 3397 
L 2834 2853 
Q 2591 2978 2328 3040 
Q 2066 3103 1784 3103 
Q 1356 3103 1142 2972 
Q 928 2841 928 2578 
Q 928 2378 1081 2264 
Q 1234 2150 1697 2047 
L 1894 2003 
Q 2506 1872 2764 1633 
Q 3022 1394 3022 966 
Q 3022 478 2636 193 
Q 2250 -91 1575 -91 
Q 1294 -91 989 -36 
Q 684 19 347 128 
L 347 722 
Q 666 556 975 473 
Q 1284 391 1588 391 
Q 1994 391 2212 530 
Q 2431 669 2431 922 
Q 2431 1156 2273 1281 
Q 2116 1406 1581 1522 
L 1381 1569 
Q 847 1681 609 1914 
Q 372 2147 372 2553 
Q 372 3047 722 3315 
Q 1072 3584 1716 3584 
Q 2034 3584 2315 3537 
Q 2597 3491 2834 3397 
z
" id="DejaVuSans-73" transform="scale(0.015625)"/>
      <path d="M 750 794 
L 1409 794 
L 1409 0 
L 750 0 
L 750 794 
z
M 750 3309 
L 1409 3309 
L 1409 2516 
L 750 2516 
L 750 3309 
z
" id="DejaVuSans-3a" transform="scale(0.015625)"/>
     </defs>
     <use xlink:href="#DejaVuSans-46"/>
     <use x="48.394531" xlink:href="#DejaVuSans-61"/>
     <use x="109.673828" xlink:href="#DejaVuSans-73"/>
     <use x="161.773438" xlink:href="#DejaVuSans-74"/>
     <use x="200.982422" xlink:href="#DejaVuSans-51"/>
     <use x="279.693359" xlink:href="#DejaVuSans-43"/>
     <use x="349.517578" xlink:href="#DejaVuSans-3a"/>
     <use x="383.208984" xlink:href="#DejaVuSans-20"/>
     <use x="414.996094" xlink:href="#DejaVuSans-50"/>
     <use x="471.673828" xlink:href="#DejaVuSans-65"/>
     <use x="533.197266" xlink:href="#DejaVuSans-72"/>
     <use x="574.310547" xlink:href="#DejaVuSans-20"/>
     <use x="606.097656" xlink:href="#DejaVuSans-53"/>
     <use x="669.574219" xlink:href="#DejaVuSans-65"/>
     <use x="731.097656" xlink:href="#DejaVuSans-71"/>
     <use x="794.574219" xlink:href="#DejaVuSans-75"/>
     <use x="857.953125" xlink:href="#DejaVuSans-65"/>
     <use x="919.476562" xlink:href="#DejaVuSans-6e"/>
     <use x="982.855469" xlink:href="#DejaVuSans-63"/>
     <use x="1037.835938" xlink:href="#DejaVuSans-65"/>
     <use x="1099.359375" xlink:href="#DejaVuSans-20"/>
     <use x="1131.146484" xlink:href="#DejaVuSans-51"/>
     <use x="1209.857422" xlink:href="#DejaVuSans-75"/>
     <use x="1273.236328" xlink:href="#DejaVuSans-61"/>
     <use x="1334.515625" xlink:href="#DejaVuSans-6c"/>
     <use x="1362.298828" xlink:href="#DejaVuSans-69"/>
     <use x="1390.082031" xlink:href="#DejaVuSans-74"/>
     <use x="1429.291016" xlink:href="#DejaVuSans-79"/>
     <use x="1488.470703" xlink:href="#DejaVuSans-20"/>
     <use x="1520.257812" xlink:href="#DejaVuSans-53"/>
     <use x="1583.734375" xlink:href="#DejaVuSans-63"/>
     <use x="1638.714844" xlink:href="#DejaVuSans-6f"/>
     <use x="1699.896484" xlink:href="#DejaVuSans-72"/>
     <use x="1738.759766" xlink:href="#DejaVuSans-65"/>
     <use x="1800.283203" xlink:href="#DejaVuSans-73"/>
    </g>
   </g>
  </g>
 </g>
 <defs>
  <clipPath id="pd4e2339a40">
   <rect height="317.968" width="947.41" x="45.690625" y="35.2559"/>
  </clipPath>
 </defs>
</svg>
