<?xml version="1.0" encoding="utf-8" standalone="no"?>
<!DOCTYPE svg PUBLIC "-//W3C//DTD SVG 1.1//EN"
  "http://www.w3.org/Graphics/SVG/1.1/DTD/svg11.dtd">
<svg height="913.107826pt" version="1.1" viewBox="0 0 891.97625 913.107826" width="891.97625pt" xmlns="http://www.w3.org/2000/svg" xmlns:xlink="http://www.w3.org/1999/xlink">
 <metadata>
  <rdf:RDF xmlns:cc="http://creativecommons.org/ns#" xmlns:dc="http://purl.org/dc/elements/1.1/" xmlns:rdf="http://www.w3.org/1999/02/22-rdf-syntax-ns#">
   <cc:Work>
    <dc:type rdf:resource="http://purl.org/dc/dcmitype/StillImage"/>
    <dc:date>2022-11-03T13:38:25.249442</dc:date>
    <dc:format>image/svg+xml</dc:format>
    <dc:creator>
     <cc:Agent>
      <dc:title>Matplotlib v3.4.2, https://matplotlib.org/</dc:title>
     </cc:Agent>
    </dc:creator>
   </cc:Work>
  </rdf:RDF>
 </metadata>
 <defs>
  <style type="text/css">*{stroke-linecap:butt;stroke-linejoin:round;}</style>
 </defs>
 <g id="figure_1">
  <g id="axes_1">
   <g id="patch_1">
    <path d="M 103.57625 826.747826 
L 884.77625 826.747826 
L 884.77625 7.2 
L 103.57625 7.2 
z
" style="fill:#ffffff;"/>
   </g>
   <g id="matplotlib.axis_1">
    <g id="xtick_1">
     <g id="line2d_1">
      <path clip-path="url(#p89524affa4)" d="M 103.57625 826.747826 
L 103.57625 7.2 
" style="fill:none;stroke:#dedede;stroke-linecap:square;"/>
     </g>
     <g id="text_1">
      <!-- 0.0 -->
      <g transform="translate(97.215 839.826576)scale(0.08 -0.08)">
       <defs>
        <path d="M 2034 4250 
Q 1547 4250 1301 3770 
Q 1056 3291 1056 2328 
Q 1056 1369 1301 889 
Q 1547 409 2034 409 
Q 2525 409 2770 889 
Q 3016 1369 3016 2328 
Q 3016 3291 2770 3770 
Q 2525 4250 2034 4250 
z
M 2034 4750 
Q 2819 4750 3233 4129 
Q 3647 3509 3647 2328 
Q 3647 1150 3233 529 
Q 2819 -91 2034 -91 
Q 1250 -91 836 529 
Q 422 1150 422 2328 
Q 422 3509 836 4129 
Q 1250 4750 2034 4750 
z
" id="DejaVuSans-30" transform="scale(0.015625)"/>
        <path d="M 684 794 
L 1344 794 
L 1344 0 
L 684 0 
L 684 794 
z
" id="DejaVuSans-2e" transform="scale(0.015625)"/>
       </defs>
       <use xlink:href="#DejaVuSans-30"/>
       <use x="63.623047" xlink:href="#DejaVuSans-2e"/>
       <use x="95.410156" xlink:href="#DejaVuSans-30"/>
      </g>
     </g>
    </g>
    <g id="xtick_2">
     <g id="line2d_2">
      <path clip-path="url(#p89524affa4)" d="M 207.010688 826.747826 
L 207.010688 7.2 
" style="fill:none;stroke:#dedede;stroke-linecap:square;"/>
     </g>
     <g id="text_2">
      <!-- 0.5 -->
      <g transform="translate(200.649438 839.826576)scale(0.08 -0.08)">
       <defs>
        <path d="M 691 4666 
L 3169 4666 
L 3169 4134 
L 1269 4134 
L 1269 2991 
Q 1406 3038 1543 3061 
Q 1681 3084 1819 3084 
Q 2600 3084 3056 2656 
Q 3513 2228 3513 1497 
Q 3513 744 3044 326 
Q 2575 -91 1722 -91 
Q 1428 -91 1123 -41 
Q 819 9 494 109 
L 494 744 
Q 775 591 1075 516 
Q 1375 441 1709 441 
Q 2250 441 2565 725 
Q 2881 1009 2881 1497 
Q 2881 1984 2565 2268 
Q 2250 2553 1709 2553 
Q 1456 2553 1204 2497 
Q 953 2441 691 2322 
L 691 4666 
z
" id="DejaVuSans-35" transform="scale(0.015625)"/>
       </defs>
       <use xlink:href="#DejaVuSans-30"/>
       <use x="63.623047" xlink:href="#DejaVuSans-2e"/>
       <use x="95.410156" xlink:href="#DejaVuSans-35"/>
      </g>
     </g>
    </g>
    <g id="xtick_3">
     <g id="line2d_3">
      <path clip-path="url(#p89524affa4)" d="M 310.445126 826.747826 
L 310.445126 7.2 
" style="fill:none;stroke:#dedede;stroke-linecap:square;"/>
     </g>
     <g id="text_3">
      <!-- 1.0 -->
      <g transform="translate(304.083876 839.826576)scale(0.08 -0.08)">
       <defs>
        <path d="M 794 531 
L 1825 531 
L 1825 4091 
L 703 3866 
L 703 4441 
L 1819 4666 
L 2450 4666 
L 2450 531 
L 3481 531 
L 3481 0 
L 794 0 
L 794 531 
z
" id="DejaVuSans-31" transform="scale(0.015625)"/>
       </defs>
       <use xlink:href="#DejaVuSans-31"/>
       <use x="63.623047" xlink:href="#DejaVuSans-2e"/>
       <use x="95.410156" xlink:href="#DejaVuSans-30"/>
      </g>
     </g>
    </g>
    <g id="xtick_4">
     <g id="line2d_4">
      <path clip-path="url(#p89524affa4)" d="M 413.879565 826.747826 
L 413.879565 7.2 
" style="fill:none;stroke:#dedede;stroke-linecap:square;"/>
     </g>
     <g id="text_4">
      <!-- 1.5 -->
      <g transform="translate(407.518315 839.826576)scale(0.08 -0.08)">
       <use xlink:href="#DejaVuSans-31"/>
       <use x="63.623047" xlink:href="#DejaVuSans-2e"/>
       <use x="95.410156" xlink:href="#DejaVuSans-35"/>
      </g>
     </g>
    </g>
    <g id="xtick_5">
     <g id="line2d_5">
      <path clip-path="url(#p89524affa4)" d="M 517.314003 826.747826 
L 517.314003 7.2 
" style="fill:none;stroke:#dedede;stroke-linecap:square;"/>
     </g>
     <g id="text_5">
      <!-- 2.0 -->
      <g transform="translate(510.952753 839.826576)scale(0.08 -0.08)">
       <defs>
        <path d="M 1228 531 
L 3431 531 
L 3431 0 
L 469 0 
L 469 531 
Q 828 903 1448 1529 
Q 2069 2156 2228 2338 
Q 2531 2678 2651 2914 
Q 2772 3150 2772 3378 
Q 2772 3750 2511 3984 
Q 2250 4219 1831 4219 
Q 1534 4219 1204 4116 
Q 875 4013 500 3803 
L 500 4441 
Q 881 4594 1212 4672 
Q 1544 4750 1819 4750 
Q 2544 4750 2975 4387 
Q 3406 4025 3406 3419 
Q 3406 3131 3298 2873 
Q 3191 2616 2906 2266 
Q 2828 2175 2409 1742 
Q 1991 1309 1228 531 
z
" id="DejaVuSans-32" transform="scale(0.015625)"/>
       </defs>
       <use xlink:href="#DejaVuSans-32"/>
       <use x="63.623047" xlink:href="#DejaVuSans-2e"/>
       <use x="95.410156" xlink:href="#DejaVuSans-30"/>
      </g>
     </g>
    </g>
    <g id="xtick_6">
     <g id="line2d_6">
      <path clip-path="url(#p89524affa4)" d="M 620.748441 826.747826 
L 620.748441 7.2 
" style="fill:none;stroke:#dedede;stroke-linecap:square;"/>
     </g>
     <g id="text_6">
      <!-- 2.5 -->
      <g transform="translate(614.387191 839.826576)scale(0.08 -0.08)">
       <use xlink:href="#DejaVuSans-32"/>
       <use x="63.623047" xlink:href="#DejaVuSans-2e"/>
       <use x="95.410156" xlink:href="#DejaVuSans-35"/>
      </g>
     </g>
    </g>
    <g id="xtick_7">
     <g id="line2d_7">
      <path clip-path="url(#p89524affa4)" d="M 724.182879 826.747826 
L 724.182879 7.2 
" style="fill:none;stroke:#dedede;stroke-linecap:square;"/>
     </g>
     <g id="text_7">
      <!-- 3.0 -->
      <g transform="translate(717.821629 839.826576)scale(0.08 -0.08)">
       <defs>
        <path d="M 2597 2516 
Q 3050 2419 3304 2112 
Q 3559 1806 3559 1356 
Q 3559 666 3084 287 
Q 2609 -91 1734 -91 
Q 1441 -91 1130 -33 
Q 819 25 488 141 
L 488 750 
Q 750 597 1062 519 
Q 1375 441 1716 441 
Q 2309 441 2620 675 
Q 2931 909 2931 1356 
Q 2931 1769 2642 2001 
Q 2353 2234 1838 2234 
L 1294 2234 
L 1294 2753 
L 1863 2753 
Q 2328 2753 2575 2939 
Q 2822 3125 2822 3475 
Q 2822 3834 2567 4026 
Q 2313 4219 1838 4219 
Q 1578 4219 1281 4162 
Q 984 4106 628 3988 
L 628 4550 
Q 988 4650 1302 4700 
Q 1616 4750 1894 4750 
Q 2613 4750 3031 4423 
Q 3450 4097 3450 3541 
Q 3450 3153 3228 2886 
Q 3006 2619 2597 2516 
z
" id="DejaVuSans-33" transform="scale(0.015625)"/>
       </defs>
       <use xlink:href="#DejaVuSans-33"/>
       <use x="63.623047" xlink:href="#DejaVuSans-2e"/>
       <use x="95.410156" xlink:href="#DejaVuSans-30"/>
      </g>
     </g>
    </g>
    <g id="xtick_8">
     <g id="line2d_8">
      <path clip-path="url(#p89524affa4)" d="M 827.617317 826.747826 
L 827.617317 7.2 
" style="fill:none;stroke:#dedede;stroke-linecap:square;"/>
     </g>
     <g id="text_8">
      <!-- 3.5 -->
      <g transform="translate(821.256067 839.826576)scale(0.08 -0.08)">
       <use xlink:href="#DejaVuSans-33"/>
       <use x="63.623047" xlink:href="#DejaVuSans-2e"/>
       <use x="95.410156" xlink:href="#DejaVuSans-35"/>
      </g>
     </g>
    </g>
    <g id="text_9">
     <!-- # Reads -->
     <g transform="translate(473.228594 853.088764)scale(0.1 -0.1)">
      <defs>
       <path d="M 3272 2816 
L 2363 2816 
L 2100 1772 
L 3016 1772 
L 3272 2816 
z
M 2803 4594 
L 2478 3297 
L 3391 3297 
L 3719 4594 
L 4219 4594 
L 3897 3297 
L 4872 3297 
L 4872 2816 
L 3775 2816 
L 3519 1772 
L 4513 1772 
L 4513 1294 
L 3397 1294 
L 3072 0 
L 2572 0 
L 2894 1294 
L 1978 1294 
L 1656 0 
L 1153 0 
L 1478 1294 
L 494 1294 
L 494 1772 
L 1594 1772 
L 1856 2816 
L 850 2816 
L 850 3297 
L 1978 3297 
L 2297 4594 
L 2803 4594 
z
" id="DejaVuSans-23" transform="scale(0.015625)"/>
       <path id="DejaVuSans-20" transform="scale(0.015625)"/>
       <path d="M 2841 2188 
Q 3044 2119 3236 1894 
Q 3428 1669 3622 1275 
L 4263 0 
L 3584 0 
L 2988 1197 
Q 2756 1666 2539 1819 
Q 2322 1972 1947 1972 
L 1259 1972 
L 1259 0 
L 628 0 
L 628 4666 
L 2053 4666 
Q 2853 4666 3247 4331 
Q 3641 3997 3641 3322 
Q 3641 2881 3436 2590 
Q 3231 2300 2841 2188 
z
M 1259 4147 
L 1259 2491 
L 2053 2491 
Q 2509 2491 2742 2702 
Q 2975 2913 2975 3322 
Q 2975 3731 2742 3939 
Q 2509 4147 2053 4147 
L 1259 4147 
z
" id="DejaVuSans-52" transform="scale(0.015625)"/>
       <path d="M 3597 1894 
L 3597 1613 
L 953 1613 
Q 991 1019 1311 708 
Q 1631 397 2203 397 
Q 2534 397 2845 478 
Q 3156 559 3463 722 
L 3463 178 
Q 3153 47 2828 -22 
Q 2503 -91 2169 -91 
Q 1331 -91 842 396 
Q 353 884 353 1716 
Q 353 2575 817 3079 
Q 1281 3584 2069 3584 
Q 2775 3584 3186 3129 
Q 3597 2675 3597 1894 
z
M 3022 2063 
Q 3016 2534 2758 2815 
Q 2500 3097 2075 3097 
Q 1594 3097 1305 2825 
Q 1016 2553 972 2059 
L 3022 2063 
z
" id="DejaVuSans-65" transform="scale(0.015625)"/>
       <path d="M 2194 1759 
Q 1497 1759 1228 1600 
Q 959 1441 959 1056 
Q 959 750 1161 570 
Q 1363 391 1709 391 
Q 2188 391 2477 730 
Q 2766 1069 2766 1631 
L 2766 1759 
L 2194 1759 
z
M 3341 1997 
L 3341 0 
L 2766 0 
L 2766 531 
Q 2569 213 2275 61 
Q 1981 -91 1556 -91 
Q 1019 -91 701 211 
Q 384 513 384 1019 
Q 384 1609 779 1909 
Q 1175 2209 1959 2209 
L 2766 2209 
L 2766 2266 
Q 2766 2663 2505 2880 
Q 2244 3097 1772 3097 
Q 1472 3097 1187 3025 
Q 903 2953 641 2809 
L 641 3341 
Q 956 3463 1253 3523 
Q 1550 3584 1831 3584 
Q 2591 3584 2966 3190 
Q 3341 2797 3341 1997 
z
" id="DejaVuSans-61" transform="scale(0.015625)"/>
       <path d="M 2906 2969 
L 2906 4863 
L 3481 4863 
L 3481 0 
L 2906 0 
L 2906 525 
Q 2725 213 2448 61 
Q 2172 -91 1784 -91 
Q 1150 -91 751 415 
Q 353 922 353 1747 
Q 353 2572 751 3078 
Q 1150 3584 1784 3584 
Q 2172 3584 2448 3432 
Q 2725 3281 2906 2969 
z
M 947 1747 
Q 947 1113 1208 752 
Q 1469 391 1925 391 
Q 2381 391 2643 752 
Q 2906 1113 2906 1747 
Q 2906 2381 2643 2742 
Q 2381 3103 1925 3103 
Q 1469 3103 1208 2742 
Q 947 2381 947 1747 
z
" id="DejaVuSans-64" transform="scale(0.015625)"/>
       <path d="M 2834 3397 
L 2834 2853 
Q 2591 2978 2328 3040 
Q 2066 3103 1784 3103 
Q 1356 3103 1142 2972 
Q 928 2841 928 2578 
Q 928 2378 1081 2264 
Q 1234 2150 1697 2047 
L 1894 2003 
Q 2506 1872 2764 1633 
Q 3022 1394 3022 966 
Q 3022 478 2636 193 
Q 2250 -91 1575 -91 
Q 1294 -91 989 -36 
Q 684 19 347 128 
L 347 722 
Q 666 556 975 473 
Q 1284 391 1588 391 
Q 1994 391 2212 530 
Q 2431 669 2431 922 
Q 2431 1156 2273 1281 
Q 2116 1406 1581 1522 
L 1381 1569 
Q 847 1681 609 1914 
Q 372 2147 372 2553 
Q 372 3047 722 3315 
Q 1072 3584 1716 3584 
Q 2034 3584 2315 3537 
Q 2597 3491 2834 3397 
z
" id="DejaVuSans-73" transform="scale(0.015625)"/>
      </defs>
      <use xlink:href="#DejaVuSans-23"/>
      <use x="83.789062" xlink:href="#DejaVuSans-20"/>
      <use x="115.576172" xlink:href="#DejaVuSans-52"/>
      <use x="180.558594" xlink:href="#DejaVuSans-65"/>
      <use x="242.082031" xlink:href="#DejaVuSans-61"/>
      <use x="303.361328" xlink:href="#DejaVuSans-64"/>
      <use x="366.837891" xlink:href="#DejaVuSans-73"/>
     </g>
    </g>
    <g id="text_10">
     <!-- 1e8 -->
     <g transform="translate(865.898125 852.088764)scale(0.1 -0.1)">
      <defs>
       <path d="M 2034 2216 
Q 1584 2216 1326 1975 
Q 1069 1734 1069 1313 
Q 1069 891 1326 650 
Q 1584 409 2034 409 
Q 2484 409 2743 651 
Q 3003 894 3003 1313 
Q 3003 1734 2745 1975 
Q 2488 2216 2034 2216 
z
M 1403 2484 
Q 997 2584 770 2862 
Q 544 3141 544 3541 
Q 544 4100 942 4425 
Q 1341 4750 2034 4750 
Q 2731 4750 3128 4425 
Q 3525 4100 3525 3541 
Q 3525 3141 3298 2862 
Q 3072 2584 2669 2484 
Q 3125 2378 3379 2068 
Q 3634 1759 3634 1313 
Q 3634 634 3220 271 
Q 2806 -91 2034 -91 
Q 1263 -91 848 271 
Q 434 634 434 1313 
Q 434 1759 690 2068 
Q 947 2378 1403 2484 
z
M 1172 3481 
Q 1172 3119 1398 2916 
Q 1625 2713 2034 2713 
Q 2441 2713 2670 2916 
Q 2900 3119 2900 3481 
Q 2900 3844 2670 4047 
Q 2441 4250 2034 4250 
Q 1625 4250 1398 4047 
Q 1172 3844 1172 3481 
z
" id="DejaVuSans-38" transform="scale(0.015625)"/>
      </defs>
      <use xlink:href="#DejaVuSans-31"/>
      <use x="63.623047" xlink:href="#DejaVuSans-65"/>
      <use x="125.146484" xlink:href="#DejaVuSans-38"/>
     </g>
    </g>
   </g>
   <g id="matplotlib.axis_2">
    <g id="ytick_1">
     <g id="text_11">
      <!-- CTR_1 -->
      <g transform="translate(71.455 22.220924)scale(0.08 -0.08)">
       <defs>
        <path d="M 4122 4306 
L 4122 3641 
Q 3803 3938 3442 4084 
Q 3081 4231 2675 4231 
Q 1875 4231 1450 3742 
Q 1025 3253 1025 2328 
Q 1025 1406 1450 917 
Q 1875 428 2675 428 
Q 3081 428 3442 575 
Q 3803 722 4122 1019 
L 4122 359 
Q 3791 134 3420 21 
Q 3050 -91 2638 -91 
Q 1578 -91 968 557 
Q 359 1206 359 2328 
Q 359 3453 968 4101 
Q 1578 4750 2638 4750 
Q 3056 4750 3426 4639 
Q 3797 4528 4122 4306 
z
" id="DejaVuSans-43" transform="scale(0.015625)"/>
        <path d="M -19 4666 
L 3928 4666 
L 3928 4134 
L 2272 4134 
L 2272 0 
L 1638 0 
L 1638 4134 
L -19 4134 
L -19 4666 
z
" id="DejaVuSans-54" transform="scale(0.015625)"/>
        <path d="M 3263 -1063 
L 3263 -1509 
L -63 -1509 
L -63 -1063 
L 3263 -1063 
z
" id="DejaVuSans-5f" transform="scale(0.015625)"/>
       </defs>
       <use xlink:href="#DejaVuSans-43"/>
       <use x="69.824219" xlink:href="#DejaVuSans-54"/>
       <use x="130.908203" xlink:href="#DejaVuSans-52"/>
       <use x="200.390625" xlink:href="#DejaVuSans-5f"/>
       <use x="250.390625" xlink:href="#DejaVuSans-31"/>
      </g>
     </g>
    </g>
    <g id="ytick_2">
     <g id="text_12">
      <!-- CTR_2 -->
      <g transform="translate(71.455 46.325272)scale(0.08 -0.08)">
       <use xlink:href="#DejaVuSans-43"/>
       <use x="69.824219" xlink:href="#DejaVuSans-54"/>
       <use x="130.908203" xlink:href="#DejaVuSans-52"/>
       <use x="200.390625" xlink:href="#DejaVuSans-5f"/>
       <use x="250.390625" xlink:href="#DejaVuSans-32"/>
      </g>
     </g>
    </g>
    <g id="ytick_3">
     <g id="text_13">
      <!-- CTR_3 -->
      <g transform="translate(71.455 70.42962)scale(0.08 -0.08)">
       <use xlink:href="#DejaVuSans-43"/>
       <use x="69.824219" xlink:href="#DejaVuSans-54"/>
       <use x="130.908203" xlink:href="#DejaVuSans-52"/>
       <use x="200.390625" xlink:href="#DejaVuSans-5f"/>
       <use x="250.390625" xlink:href="#DejaVuSans-33"/>
      </g>
     </g>
    </g>
    <g id="ytick_4">
     <g id="text_14">
      <!-- CTR_4 -->
      <g transform="translate(71.455 94.533967)scale(0.08 -0.08)">
       <defs>
        <path d="M 2419 4116 
L 825 1625 
L 2419 1625 
L 2419 4116 
z
M 2253 4666 
L 3047 4666 
L 3047 1625 
L 3713 1625 
L 3713 1100 
L 3047 1100 
L 3047 0 
L 2419 0 
L 2419 1100 
L 313 1100 
L 313 1709 
L 2253 4666 
z
" id="DejaVuSans-34" transform="scale(0.015625)"/>
       </defs>
       <use xlink:href="#DejaVuSans-43"/>
       <use x="69.824219" xlink:href="#DejaVuSans-54"/>
       <use x="130.908203" xlink:href="#DejaVuSans-52"/>
       <use x="200.390625" xlink:href="#DejaVuSans-5f"/>
       <use x="250.390625" xlink:href="#DejaVuSans-34"/>
      </g>
     </g>
    </g>
    <g id="ytick_5">
     <g id="text_15">
      <!-- CTR_5 -->
      <g transform="translate(71.455 118.638315)scale(0.08 -0.08)">
       <use xlink:href="#DejaVuSans-43"/>
       <use x="69.824219" xlink:href="#DejaVuSans-54"/>
       <use x="130.908203" xlink:href="#DejaVuSans-52"/>
       <use x="200.390625" xlink:href="#DejaVuSans-5f"/>
       <use x="250.390625" xlink:href="#DejaVuSans-35"/>
      </g>
     </g>
    </g>
    <g id="ytick_6">
     <g id="text_16">
      <!-- CTR_6 -->
      <g transform="translate(71.455 142.742663)scale(0.08 -0.08)">
       <defs>
        <path d="M 2113 2584 
Q 1688 2584 1439 2293 
Q 1191 2003 1191 1497 
Q 1191 994 1439 701 
Q 1688 409 2113 409 
Q 2538 409 2786 701 
Q 3034 994 3034 1497 
Q 3034 2003 2786 2293 
Q 2538 2584 2113 2584 
z
M 3366 4563 
L 3366 3988 
Q 3128 4100 2886 4159 
Q 2644 4219 2406 4219 
Q 1781 4219 1451 3797 
Q 1122 3375 1075 2522 
Q 1259 2794 1537 2939 
Q 1816 3084 2150 3084 
Q 2853 3084 3261 2657 
Q 3669 2231 3669 1497 
Q 3669 778 3244 343 
Q 2819 -91 2113 -91 
Q 1303 -91 875 529 
Q 447 1150 447 2328 
Q 447 3434 972 4092 
Q 1497 4750 2381 4750 
Q 2619 4750 2861 4703 
Q 3103 4656 3366 4563 
z
" id="DejaVuSans-36" transform="scale(0.015625)"/>
       </defs>
       <use xlink:href="#DejaVuSans-43"/>
       <use x="69.824219" xlink:href="#DejaVuSans-54"/>
       <use x="130.908203" xlink:href="#DejaVuSans-52"/>
       <use x="200.390625" xlink:href="#DejaVuSans-5f"/>
       <use x="250.390625" xlink:href="#DejaVuSans-36"/>
      </g>
     </g>
    </g>
    <g id="ytick_7">
     <g id="text_17">
      <!-- GEM_50_TAX_10_1 -->
      <g transform="translate(21.75125 166.847011)scale(0.08 -0.08)">
       <defs>
        <path d="M 3809 666 
L 3809 1919 
L 2778 1919 
L 2778 2438 
L 4434 2438 
L 4434 434 
Q 4069 175 3628 42 
Q 3188 -91 2688 -91 
Q 1594 -91 976 548 
Q 359 1188 359 2328 
Q 359 3472 976 4111 
Q 1594 4750 2688 4750 
Q 3144 4750 3555 4637 
Q 3966 4525 4313 4306 
L 4313 3634 
Q 3963 3931 3569 4081 
Q 3175 4231 2741 4231 
Q 1884 4231 1454 3753 
Q 1025 3275 1025 2328 
Q 1025 1384 1454 906 
Q 1884 428 2741 428 
Q 3075 428 3337 486 
Q 3600 544 3809 666 
z
" id="DejaVuSans-47" transform="scale(0.015625)"/>
        <path d="M 628 4666 
L 3578 4666 
L 3578 4134 
L 1259 4134 
L 1259 2753 
L 3481 2753 
L 3481 2222 
L 1259 2222 
L 1259 531 
L 3634 531 
L 3634 0 
L 628 0 
L 628 4666 
z
" id="DejaVuSans-45" transform="scale(0.015625)"/>
        <path d="M 628 4666 
L 1569 4666 
L 2759 1491 
L 3956 4666 
L 4897 4666 
L 4897 0 
L 4281 0 
L 4281 4097 
L 3078 897 
L 2444 897 
L 1241 4097 
L 1241 0 
L 628 0 
L 628 4666 
z
" id="DejaVuSans-4d" transform="scale(0.015625)"/>
        <path d="M 2188 4044 
L 1331 1722 
L 3047 1722 
L 2188 4044 
z
M 1831 4666 
L 2547 4666 
L 4325 0 
L 3669 0 
L 3244 1197 
L 1141 1197 
L 716 0 
L 50 0 
L 1831 4666 
z
" id="DejaVuSans-41" transform="scale(0.015625)"/>
        <path d="M 403 4666 
L 1081 4666 
L 2241 2931 
L 3406 4666 
L 4084 4666 
L 2584 2425 
L 4184 0 
L 3506 0 
L 2194 1984 
L 872 0 
L 191 0 
L 1856 2491 
L 403 4666 
z
" id="DejaVuSans-58" transform="scale(0.015625)"/>
       </defs>
       <use xlink:href="#DejaVuSans-47"/>
       <use x="77.490234" xlink:href="#DejaVuSans-45"/>
       <use x="140.673828" xlink:href="#DejaVuSans-4d"/>
       <use x="226.953125" xlink:href="#DejaVuSans-5f"/>
       <use x="276.953125" xlink:href="#DejaVuSans-35"/>
       <use x="340.576172" xlink:href="#DejaVuSans-30"/>
       <use x="404.199219" xlink:href="#DejaVuSans-5f"/>
       <use x="454.199219" xlink:href="#DejaVuSans-54"/>
       <use x="507.533203" xlink:href="#DejaVuSans-41"/>
       <use x="575.941406" xlink:href="#DejaVuSans-58"/>
       <use x="644.447266" xlink:href="#DejaVuSans-5f"/>
       <use x="694.447266" xlink:href="#DejaVuSans-31"/>
       <use x="758.070312" xlink:href="#DejaVuSans-30"/>
       <use x="821.693359" xlink:href="#DejaVuSans-5f"/>
       <use x="871.693359" xlink:href="#DejaVuSans-31"/>
      </g>
     </g>
    </g>
    <g id="ytick_8">
     <g id="text_18">
      <!-- GEM_50_TAX_10_2 -->
      <g transform="translate(21.75125 190.951359)scale(0.08 -0.08)">
       <use xlink:href="#DejaVuSans-47"/>
       <use x="77.490234" xlink:href="#DejaVuSans-45"/>
       <use x="140.673828" xlink:href="#DejaVuSans-4d"/>
       <use x="226.953125" xlink:href="#DejaVuSans-5f"/>
       <use x="276.953125" xlink:href="#DejaVuSans-35"/>
       <use x="340.576172" xlink:href="#DejaVuSans-30"/>
       <use x="404.199219" xlink:href="#DejaVuSans-5f"/>
       <use x="454.199219" xlink:href="#DejaVuSans-54"/>
       <use x="507.533203" xlink:href="#DejaVuSans-41"/>
       <use x="575.941406" xlink:href="#DejaVuSans-58"/>
       <use x="644.447266" xlink:href="#DejaVuSans-5f"/>
       <use x="694.447266" xlink:href="#DejaVuSans-31"/>
       <use x="758.070312" xlink:href="#DejaVuSans-30"/>
       <use x="821.693359" xlink:href="#DejaVuSans-5f"/>
       <use x="871.693359" xlink:href="#DejaVuSans-32"/>
      </g>
     </g>
    </g>
    <g id="ytick_9">
     <g id="text_19">
      <!-- GEM_50_TAX_10_3 -->
      <g transform="translate(21.75125 215.055707)scale(0.08 -0.08)">
       <use xlink:href="#DejaVuSans-47"/>
       <use x="77.490234" xlink:href="#DejaVuSans-45"/>
       <use x="140.673828" xlink:href="#DejaVuSans-4d"/>
       <use x="226.953125" xlink:href="#DejaVuSans-5f"/>
       <use x="276.953125" xlink:href="#DejaVuSans-35"/>
       <use x="340.576172" xlink:href="#DejaVuSans-30"/>
       <use x="404.199219" xlink:href="#DejaVuSans-5f"/>
       <use x="454.199219" xlink:href="#DejaVuSans-54"/>
       <use x="507.533203" xlink:href="#DejaVuSans-41"/>
       <use x="575.941406" xlink:href="#DejaVuSans-58"/>
       <use x="644.447266" xlink:href="#DejaVuSans-5f"/>
       <use x="694.447266" xlink:href="#DejaVuSans-31"/>
       <use x="758.070312" xlink:href="#DejaVuSans-30"/>
       <use x="821.693359" xlink:href="#DejaVuSans-5f"/>
       <use x="871.693359" xlink:href="#DejaVuSans-33"/>
      </g>
     </g>
    </g>
    <g id="ytick_10">
     <g id="text_20">
      <!-- GEM_50_TAX_10_5 -->
      <g transform="translate(21.75125 239.160054)scale(0.08 -0.08)">
       <use xlink:href="#DejaVuSans-47"/>
       <use x="77.490234" xlink:href="#DejaVuSans-45"/>
       <use x="140.673828" xlink:href="#DejaVuSans-4d"/>
       <use x="226.953125" xlink:href="#DejaVuSans-5f"/>
       <use x="276.953125" xlink:href="#DejaVuSans-35"/>
       <use x="340.576172" xlink:href="#DejaVuSans-30"/>
       <use x="404.199219" xlink:href="#DejaVuSans-5f"/>
       <use x="454.199219" xlink:href="#DejaVuSans-54"/>
       <use x="507.533203" xlink:href="#DejaVuSans-41"/>
       <use x="575.941406" xlink:href="#DejaVuSans-58"/>
       <use x="644.447266" xlink:href="#DejaVuSans-5f"/>
       <use x="694.447266" xlink:href="#DejaVuSans-31"/>
       <use x="758.070312" xlink:href="#DejaVuSans-30"/>
       <use x="821.693359" xlink:href="#DejaVuSans-5f"/>
       <use x="871.693359" xlink:href="#DejaVuSans-35"/>
      </g>
     </g>
    </g>
    <g id="ytick_11">
     <g id="text_21">
      <!-- GEM_50_TAX_10_6 -->
      <g transform="translate(21.75125 263.264402)scale(0.08 -0.08)">
       <use xlink:href="#DejaVuSans-47"/>
       <use x="77.490234" xlink:href="#DejaVuSans-45"/>
       <use x="140.673828" xlink:href="#DejaVuSans-4d"/>
       <use x="226.953125" xlink:href="#DejaVuSans-5f"/>
       <use x="276.953125" xlink:href="#DejaVuSans-35"/>
       <use x="340.576172" xlink:href="#DejaVuSans-30"/>
       <use x="404.199219" xlink:href="#DejaVuSans-5f"/>
       <use x="454.199219" xlink:href="#DejaVuSans-54"/>
       <use x="507.533203" xlink:href="#DejaVuSans-41"/>
       <use x="575.941406" xlink:href="#DejaVuSans-58"/>
       <use x="644.447266" xlink:href="#DejaVuSans-5f"/>
       <use x="694.447266" xlink:href="#DejaVuSans-31"/>
       <use x="758.070312" xlink:href="#DejaVuSans-30"/>
       <use x="821.693359" xlink:href="#DejaVuSans-5f"/>
       <use x="871.693359" xlink:href="#DejaVuSans-36"/>
      </g>
     </g>
    </g>
    <g id="ytick_12">
     <g id="text_22">
      <!-- SIM_1 -->
      <g transform="translate(73.145 287.36875)scale(0.08 -0.08)">
       <defs>
        <path d="M 3425 4513 
L 3425 3897 
Q 3066 4069 2747 4153 
Q 2428 4238 2131 4238 
Q 1616 4238 1336 4038 
Q 1056 3838 1056 3469 
Q 1056 3159 1242 3001 
Q 1428 2844 1947 2747 
L 2328 2669 
Q 3034 2534 3370 2195 
Q 3706 1856 3706 1288 
Q 3706 609 3251 259 
Q 2797 -91 1919 -91 
Q 1588 -91 1214 -16 
Q 841 59 441 206 
L 441 856 
Q 825 641 1194 531 
Q 1563 422 1919 422 
Q 2459 422 2753 634 
Q 3047 847 3047 1241 
Q 3047 1584 2836 1778 
Q 2625 1972 2144 2069 
L 1759 2144 
Q 1053 2284 737 2584 
Q 422 2884 422 3419 
Q 422 4038 858 4394 
Q 1294 4750 2059 4750 
Q 2388 4750 2728 4690 
Q 3069 4631 3425 4513 
z
" id="DejaVuSans-53" transform="scale(0.015625)"/>
        <path d="M 628 4666 
L 1259 4666 
L 1259 0 
L 628 0 
L 628 4666 
z
" id="DejaVuSans-49" transform="scale(0.015625)"/>
       </defs>
       <use xlink:href="#DejaVuSans-53"/>
       <use x="63.476562" xlink:href="#DejaVuSans-49"/>
       <use x="92.96875" xlink:href="#DejaVuSans-4d"/>
       <use x="179.248047" xlink:href="#DejaVuSans-5f"/>
       <use x="229.248047" xlink:href="#DejaVuSans-31"/>
      </g>
     </g>
    </g>
    <g id="ytick_13">
     <g id="text_23">
      <!-- SIM_2 -->
      <g transform="translate(73.145 311.473098)scale(0.08 -0.08)">
       <use xlink:href="#DejaVuSans-53"/>
       <use x="63.476562" xlink:href="#DejaVuSans-49"/>
       <use x="92.96875" xlink:href="#DejaVuSans-4d"/>
       <use x="179.248047" xlink:href="#DejaVuSans-5f"/>
       <use x="229.248047" xlink:href="#DejaVuSans-32"/>
      </g>
     </g>
    </g>
    <g id="ytick_14">
     <g id="text_24">
      <!-- SIM_3 -->
      <g transform="translate(73.145 335.577446)scale(0.08 -0.08)">
       <use xlink:href="#DejaVuSans-53"/>
       <use x="63.476562" xlink:href="#DejaVuSans-49"/>
       <use x="92.96875" xlink:href="#DejaVuSans-4d"/>
       <use x="179.248047" xlink:href="#DejaVuSans-5f"/>
       <use x="229.248047" xlink:href="#DejaVuSans-33"/>
      </g>
     </g>
    </g>
    <g id="ytick_15">
     <g id="text_25">
      <!-- SIM_4 -->
      <g transform="translate(73.145 359.681793)scale(0.08 -0.08)">
       <use xlink:href="#DejaVuSans-53"/>
       <use x="63.476562" xlink:href="#DejaVuSans-49"/>
       <use x="92.96875" xlink:href="#DejaVuSans-4d"/>
       <use x="179.248047" xlink:href="#DejaVuSans-5f"/>
       <use x="229.248047" xlink:href="#DejaVuSans-34"/>
      </g>
     </g>
    </g>
    <g id="ytick_16">
     <g id="text_26">
      <!-- SIM_5 -->
      <g transform="translate(73.145 383.786141)scale(0.08 -0.08)">
       <use xlink:href="#DejaVuSans-53"/>
       <use x="63.476562" xlink:href="#DejaVuSans-49"/>
       <use x="92.96875" xlink:href="#DejaVuSans-4d"/>
       <use x="179.248047" xlink:href="#DejaVuSans-5f"/>
       <use x="229.248047" xlink:href="#DejaVuSans-35"/>
      </g>
     </g>
    </g>
    <g id="ytick_17">
     <g id="text_27">
      <!-- SIM_6 -->
      <g transform="translate(73.145 407.890489)scale(0.08 -0.08)">
       <use xlink:href="#DejaVuSans-53"/>
       <use x="63.476562" xlink:href="#DejaVuSans-49"/>
       <use x="92.96875" xlink:href="#DejaVuSans-4d"/>
       <use x="179.248047" xlink:href="#DejaVuSans-5f"/>
       <use x="229.248047" xlink:href="#DejaVuSans-36"/>
      </g>
     </g>
    </g>
    <g id="ytick_18">
     <g id="text_28">
      <!-- VPA_1 -->
      <g transform="translate(72.2275 431.954212)scale(0.08 -0.08)">
       <defs>
        <path d="M 1831 0 
L 50 4666 
L 709 4666 
L 2188 738 
L 3669 4666 
L 4325 4666 
L 2547 0 
L 1831 0 
z
" id="DejaVuSans-56" transform="scale(0.015625)"/>
        <path d="M 1259 4147 
L 1259 2394 
L 2053 2394 
Q 2494 2394 2734 2622 
Q 2975 2850 2975 3272 
Q 2975 3691 2734 3919 
Q 2494 4147 2053 4147 
L 1259 4147 
z
M 628 4666 
L 2053 4666 
Q 2838 4666 3239 4311 
Q 3641 3956 3641 3272 
Q 3641 2581 3239 2228 
Q 2838 1875 2053 1875 
L 1259 1875 
L 1259 0 
L 628 0 
L 628 4666 
z
" id="DejaVuSans-50" transform="scale(0.015625)"/>
       </defs>
       <use xlink:href="#DejaVuSans-56"/>
       <use x="68.408203" xlink:href="#DejaVuSans-50"/>
       <use x="122.335938" xlink:href="#DejaVuSans-41"/>
       <use x="190.744141" xlink:href="#DejaVuSans-5f"/>
       <use x="240.744141" xlink:href="#DejaVuSans-31"/>
      </g>
     </g>
    </g>
    <g id="ytick_19">
     <g id="text_29">
      <!-- VPA_2 -->
      <g transform="translate(72.2275 456.099185)scale(0.08 -0.08)">
       <use xlink:href="#DejaVuSans-56"/>
       <use x="68.408203" xlink:href="#DejaVuSans-50"/>
       <use x="122.335938" xlink:href="#DejaVuSans-41"/>
       <use x="190.744141" xlink:href="#DejaVuSans-5f"/>
       <use x="240.744141" xlink:href="#DejaVuSans-32"/>
      </g>
     </g>
    </g>
    <g id="ytick_20">
     <g id="text_30">
      <!-- VPA_3 -->
      <g transform="translate(72.2275 480.203533)scale(0.08 -0.08)">
       <use xlink:href="#DejaVuSans-56"/>
       <use x="68.408203" xlink:href="#DejaVuSans-50"/>
       <use x="122.335938" xlink:href="#DejaVuSans-41"/>
       <use x="190.744141" xlink:href="#DejaVuSans-5f"/>
       <use x="240.744141" xlink:href="#DejaVuSans-33"/>
      </g>
     </g>
    </g>
    <g id="ytick_21">
     <g id="text_31">
      <!-- VPA_4 -->
      <g transform="translate(72.2275 504.267255)scale(0.08 -0.08)">
       <use xlink:href="#DejaVuSans-56"/>
       <use x="68.408203" xlink:href="#DejaVuSans-50"/>
       <use x="122.335938" xlink:href="#DejaVuSans-41"/>
       <use x="190.744141" xlink:href="#DejaVuSans-5f"/>
       <use x="240.744141" xlink:href="#DejaVuSans-34"/>
      </g>
     </g>
    </g>
    <g id="ytick_22">
     <g id="text_32">
      <!-- VPA_5 -->
      <g transform="translate(72.2275 528.371603)scale(0.08 -0.08)">
       <use xlink:href="#DejaVuSans-56"/>
       <use x="68.408203" xlink:href="#DejaVuSans-50"/>
       <use x="122.335938" xlink:href="#DejaVuSans-41"/>
       <use x="190.744141" xlink:href="#DejaVuSans-5f"/>
       <use x="240.744141" xlink:href="#DejaVuSans-35"/>
      </g>
     </g>
    </g>
    <g id="ytick_23">
     <g id="text_33">
      <!-- VPA_6 -->
      <g transform="translate(72.2275 552.516576)scale(0.08 -0.08)">
       <use xlink:href="#DejaVuSans-56"/>
       <use x="68.408203" xlink:href="#DejaVuSans-50"/>
       <use x="122.335938" xlink:href="#DejaVuSans-41"/>
       <use x="190.744141" xlink:href="#DejaVuSans-5f"/>
       <use x="240.744141" xlink:href="#DejaVuSans-36"/>
      </g>
     </g>
    </g>
    <g id="ytick_24">
     <g id="text_34">
      <!-- VPA_SIM_1 -->
      <g transform="translate(53.88625 576.620924)scale(0.08 -0.08)">
       <use xlink:href="#DejaVuSans-56"/>
       <use x="68.408203" xlink:href="#DejaVuSans-50"/>
       <use x="122.335938" xlink:href="#DejaVuSans-41"/>
       <use x="190.744141" xlink:href="#DejaVuSans-5f"/>
       <use x="240.744141" xlink:href="#DejaVuSans-53"/>
       <use x="304.220703" xlink:href="#DejaVuSans-49"/>
       <use x="333.712891" xlink:href="#DejaVuSans-4d"/>
       <use x="419.992188" xlink:href="#DejaVuSans-5f"/>
       <use x="469.992188" xlink:href="#DejaVuSans-31"/>
      </g>
     </g>
    </g>
    <g id="ytick_25">
     <g id="text_35">
      <!-- VPA_SIM_2 -->
      <g transform="translate(53.88625 600.725272)scale(0.08 -0.08)">
       <use xlink:href="#DejaVuSans-56"/>
       <use x="68.408203" xlink:href="#DejaVuSans-50"/>
       <use x="122.335938" xlink:href="#DejaVuSans-41"/>
       <use x="190.744141" xlink:href="#DejaVuSans-5f"/>
       <use x="240.744141" xlink:href="#DejaVuSans-53"/>
       <use x="304.220703" xlink:href="#DejaVuSans-49"/>
       <use x="333.712891" xlink:href="#DejaVuSans-4d"/>
       <use x="419.992188" xlink:href="#DejaVuSans-5f"/>
       <use x="469.992188" xlink:href="#DejaVuSans-32"/>
      </g>
     </g>
    </g>
    <g id="ytick_26">
     <g id="text_36">
      <!-- VPA_SIM_3 -->
      <g transform="translate(53.88625 624.82962)scale(0.08 -0.08)">
       <use xlink:href="#DejaVuSans-56"/>
       <use x="68.408203" xlink:href="#DejaVuSans-50"/>
       <use x="122.335938" xlink:href="#DejaVuSans-41"/>
       <use x="190.744141" xlink:href="#DejaVuSans-5f"/>
       <use x="240.744141" xlink:href="#DejaVuSans-53"/>
       <use x="304.220703" xlink:href="#DejaVuSans-49"/>
       <use x="333.712891" xlink:href="#DejaVuSans-4d"/>
       <use x="419.992188" xlink:href="#DejaVuSans-5f"/>
       <use x="469.992188" xlink:href="#DejaVuSans-33"/>
      </g>
     </g>
    </g>
    <g id="ytick_27">
     <g id="text_37">
      <!-- VPA_SIM_5 -->
      <g transform="translate(53.88625 648.933967)scale(0.08 -0.08)">
       <use xlink:href="#DejaVuSans-56"/>
       <use x="68.408203" xlink:href="#DejaVuSans-50"/>
       <use x="122.335938" xlink:href="#DejaVuSans-41"/>
       <use x="190.744141" xlink:href="#DejaVuSans-5f"/>
       <use x="240.744141" xlink:href="#DejaVuSans-53"/>
       <use x="304.220703" xlink:href="#DejaVuSans-49"/>
       <use x="333.712891" xlink:href="#DejaVuSans-4d"/>
       <use x="419.992188" xlink:href="#DejaVuSans-5f"/>
       <use x="469.992188" xlink:href="#DejaVuSans-35"/>
      </g>
     </g>
    </g>
    <g id="ytick_28">
     <g id="text_38">
      <!-- VPA_SIM_6 -->
      <g transform="translate(53.88625 673.038315)scale(0.08 -0.08)">
       <use xlink:href="#DejaVuSans-56"/>
       <use x="68.408203" xlink:href="#DejaVuSans-50"/>
       <use x="122.335938" xlink:href="#DejaVuSans-41"/>
       <use x="190.744141" xlink:href="#DejaVuSans-5f"/>
       <use x="240.744141" xlink:href="#DejaVuSans-53"/>
       <use x="304.220703" xlink:href="#DejaVuSans-49"/>
       <use x="333.712891" xlink:href="#DejaVuSans-4d"/>
       <use x="419.992188" xlink:href="#DejaVuSans-5f"/>
       <use x="469.992188" xlink:href="#DejaVuSans-36"/>
      </g>
     </g>
    </g>
    <g id="ytick_29">
     <g id="text_39">
      <!-- VS_GEM_50_TAX_10_1 -->
      <g transform="translate(7.2 697.142663)scale(0.08 -0.08)">
       <use xlink:href="#DejaVuSans-56"/>
       <use x="68.408203" xlink:href="#DejaVuSans-53"/>
       <use x="131.884766" xlink:href="#DejaVuSans-5f"/>
       <use x="181.884766" xlink:href="#DejaVuSans-47"/>
       <use x="259.375" xlink:href="#DejaVuSans-45"/>
       <use x="322.558594" xlink:href="#DejaVuSans-4d"/>
       <use x="408.837891" xlink:href="#DejaVuSans-5f"/>
       <use x="458.837891" xlink:href="#DejaVuSans-35"/>
       <use x="522.460938" xlink:href="#DejaVuSans-30"/>
       <use x="586.083984" xlink:href="#DejaVuSans-5f"/>
       <use x="636.083984" xlink:href="#DejaVuSans-54"/>
       <use x="689.417969" xlink:href="#DejaVuSans-41"/>
       <use x="757.826172" xlink:href="#DejaVuSans-58"/>
       <use x="826.332031" xlink:href="#DejaVuSans-5f"/>
       <use x="876.332031" xlink:href="#DejaVuSans-31"/>
       <use x="939.955078" xlink:href="#DejaVuSans-30"/>
       <use x="1003.578125" xlink:href="#DejaVuSans-5f"/>
       <use x="1053.578125" xlink:href="#DejaVuSans-31"/>
      </g>
     </g>
    </g>
    <g id="ytick_30">
     <g id="text_40">
      <!-- VS_GEM_50_TAX_10_2 -->
      <g transform="translate(7.2 721.247011)scale(0.08 -0.08)">
       <use xlink:href="#DejaVuSans-56"/>
       <use x="68.408203" xlink:href="#DejaVuSans-53"/>
       <use x="131.884766" xlink:href="#DejaVuSans-5f"/>
       <use x="181.884766" xlink:href="#DejaVuSans-47"/>
       <use x="259.375" xlink:href="#DejaVuSans-45"/>
       <use x="322.558594" xlink:href="#DejaVuSans-4d"/>
       <use x="408.837891" xlink:href="#DejaVuSans-5f"/>
       <use x="458.837891" xlink:href="#DejaVuSans-35"/>
       <use x="522.460938" xlink:href="#DejaVuSans-30"/>
       <use x="586.083984" xlink:href="#DejaVuSans-5f"/>
       <use x="636.083984" xlink:href="#DejaVuSans-54"/>
       <use x="689.417969" xlink:href="#DejaVuSans-41"/>
       <use x="757.826172" xlink:href="#DejaVuSans-58"/>
       <use x="826.332031" xlink:href="#DejaVuSans-5f"/>
       <use x="876.332031" xlink:href="#DejaVuSans-31"/>
       <use x="939.955078" xlink:href="#DejaVuSans-30"/>
       <use x="1003.578125" xlink:href="#DejaVuSans-5f"/>
       <use x="1053.578125" xlink:href="#DejaVuSans-32"/>
      </g>
     </g>
    </g>
    <g id="ytick_31">
     <g id="text_41">
      <!-- VS_GEM_50_TAX_10_3 -->
      <g transform="translate(7.2 745.351359)scale(0.08 -0.08)">
       <use xlink:href="#DejaVuSans-56"/>
       <use x="68.408203" xlink:href="#DejaVuSans-53"/>
       <use x="131.884766" xlink:href="#DejaVuSans-5f"/>
       <use x="181.884766" xlink:href="#DejaVuSans-47"/>
       <use x="259.375" xlink:href="#DejaVuSans-45"/>
       <use x="322.558594" xlink:href="#DejaVuSans-4d"/>
       <use x="408.837891" xlink:href="#DejaVuSans-5f"/>
       <use x="458.837891" xlink:href="#DejaVuSans-35"/>
       <use x="522.460938" xlink:href="#DejaVuSans-30"/>
       <use x="586.083984" xlink:href="#DejaVuSans-5f"/>
       <use x="636.083984" xlink:href="#DejaVuSans-54"/>
       <use x="689.417969" xlink:href="#DejaVuSans-41"/>
       <use x="757.826172" xlink:href="#DejaVuSans-58"/>
       <use x="826.332031" xlink:href="#DejaVuSans-5f"/>
       <use x="876.332031" xlink:href="#DejaVuSans-31"/>
       <use x="939.955078" xlink:href="#DejaVuSans-30"/>
       <use x="1003.578125" xlink:href="#DejaVuSans-5f"/>
       <use x="1053.578125" xlink:href="#DejaVuSans-33"/>
      </g>
     </g>
    </g>
    <g id="ytick_32">
     <g id="text_42">
      <!-- VS_GEM_50_TAX_10_4 -->
      <g transform="translate(7.2 769.455707)scale(0.08 -0.08)">
       <use xlink:href="#DejaVuSans-56"/>
       <use x="68.408203" xlink:href="#DejaVuSans-53"/>
       <use x="131.884766" xlink:href="#DejaVuSans-5f"/>
       <use x="181.884766" xlink:href="#DejaVuSans-47"/>
       <use x="259.375" xlink:href="#DejaVuSans-45"/>
       <use x="322.558594" xlink:href="#DejaVuSans-4d"/>
       <use x="408.837891" xlink:href="#DejaVuSans-5f"/>
       <use x="458.837891" xlink:href="#DejaVuSans-35"/>
       <use x="522.460938" xlink:href="#DejaVuSans-30"/>
       <use x="586.083984" xlink:href="#DejaVuSans-5f"/>
       <use x="636.083984" xlink:href="#DejaVuSans-54"/>
       <use x="689.417969" xlink:href="#DejaVuSans-41"/>
       <use x="757.826172" xlink:href="#DejaVuSans-58"/>
       <use x="826.332031" xlink:href="#DejaVuSans-5f"/>
       <use x="876.332031" xlink:href="#DejaVuSans-31"/>
       <use x="939.955078" xlink:href="#DejaVuSans-30"/>
       <use x="1003.578125" xlink:href="#DejaVuSans-5f"/>
       <use x="1053.578125" xlink:href="#DejaVuSans-34"/>
      </g>
     </g>
    </g>
    <g id="ytick_33">
     <g id="text_43">
      <!-- VS_GEM_50_TAX_10_5 -->
      <g transform="translate(7.2 793.560054)scale(0.08 -0.08)">
       <use xlink:href="#DejaVuSans-56"/>
       <use x="68.408203" xlink:href="#DejaVuSans-53"/>
       <use x="131.884766" xlink:href="#DejaVuSans-5f"/>
       <use x="181.884766" xlink:href="#DejaVuSans-47"/>
       <use x="259.375" xlink:href="#DejaVuSans-45"/>
       <use x="322.558594" xlink:href="#DejaVuSans-4d"/>
       <use x="408.837891" xlink:href="#DejaVuSans-5f"/>
       <use x="458.837891" xlink:href="#DejaVuSans-35"/>
       <use x="522.460938" xlink:href="#DejaVuSans-30"/>
       <use x="586.083984" xlink:href="#DejaVuSans-5f"/>
       <use x="636.083984" xlink:href="#DejaVuSans-54"/>
       <use x="689.417969" xlink:href="#DejaVuSans-41"/>
       <use x="757.826172" xlink:href="#DejaVuSans-58"/>
       <use x="826.332031" xlink:href="#DejaVuSans-5f"/>
       <use x="876.332031" xlink:href="#DejaVuSans-31"/>
       <use x="939.955078" xlink:href="#DejaVuSans-30"/>
       <use x="1003.578125" xlink:href="#DejaVuSans-5f"/>
       <use x="1053.578125" xlink:href="#DejaVuSans-35"/>
      </g>
     </g>
    </g>
    <g id="ytick_34">
     <g id="text_44">
      <!-- VS_GEM_50_TAX_10_6 -->
      <g transform="translate(7.2 817.664402)scale(0.08 -0.08)">
       <use xlink:href="#DejaVuSans-56"/>
       <use x="68.408203" xlink:href="#DejaVuSans-53"/>
       <use x="131.884766" xlink:href="#DejaVuSans-5f"/>
       <use x="181.884766" xlink:href="#DejaVuSans-47"/>
       <use x="259.375" xlink:href="#DejaVuSans-45"/>
       <use x="322.558594" xlink:href="#DejaVuSans-4d"/>
       <use x="408.837891" xlink:href="#DejaVuSans-5f"/>
       <use x="458.837891" xlink:href="#DejaVuSans-35"/>
       <use x="522.460938" xlink:href="#DejaVuSans-30"/>
       <use x="586.083984" xlink:href="#DejaVuSans-5f"/>
       <use x="636.083984" xlink:href="#DejaVuSans-54"/>
       <use x="689.417969" xlink:href="#DejaVuSans-41"/>
       <use x="757.826172" xlink:href="#DejaVuSans-58"/>
       <use x="826.332031" xlink:href="#DejaVuSans-5f"/>
       <use x="876.332031" xlink:href="#DejaVuSans-31"/>
       <use x="939.955078" xlink:href="#DejaVuSans-30"/>
       <use x="1003.578125" xlink:href="#DejaVuSans-5f"/>
       <use x="1053.578125" xlink:href="#DejaVuSans-36"/>
      </g>
     </g>
    </g>
   </g>
   <g id="patch_2">
    <path clip-path="url(#p89524affa4)" d="M 103.57625 9.610435 
L 179.381567 9.610435 
L 179.381567 28.893913 
L 103.57625 28.893913 
z
" style="fill:#437bb1;"/>
   </g>
   <g id="patch_3">
    <path clip-path="url(#p89524affa4)" d="M 103.57625 33.714783 
L 169.296678 33.714783 
L 169.296678 52.998261 
L 103.57625 52.998261 
z
" style="fill:#437bb1;"/>
   </g>
   <g id="patch_4">
    <path clip-path="url(#p89524affa4)" d="M 103.57625 57.81913 
L 173.065202 57.81913 
L 173.065202 77.102609 
L 103.57625 77.102609 
z
" style="fill:#437bb1;"/>
   </g>
   <g id="patch_5">
    <path clip-path="url(#p89524affa4)" d="M 103.57625 81.923478 
L 173.037732 81.923478 
L 173.037732 101.206957 
L 103.57625 101.206957 
z
" style="fill:#437bb1;"/>
   </g>
   <g id="patch_6">
    <path clip-path="url(#p89524affa4)" d="M 103.57625 106.027826 
L 195.561325 106.027826 
L 195.561325 125.311304 
L 103.57625 125.311304 
z
" style="fill:#437bb1;"/>
   </g>
   <g id="patch_7">
    <path clip-path="url(#p89524affa4)" d="M 103.57625 130.132174 
L 183.211762 130.132174 
L 183.211762 149.415652 
L 103.57625 149.415652 
z
" style="fill:#437bb1;"/>
   </g>
   <g id="patch_8">
    <path clip-path="url(#p89524affa4)" d="M 103.57625 154.236522 
L 194.062943 154.236522 
L 194.062943 173.52 
L 103.57625 173.52 
z
" style="fill:#437bb1;"/>
   </g>
   <g id="patch_9">
    <path clip-path="url(#p89524affa4)" d="M 103.57625 178.34087 
L 714.73929 178.34087 
L 714.73929 197.624348 
L 103.57625 197.624348 
z
" style="fill:#437bb1;"/>
   </g>
   <g id="patch_10">
    <path clip-path="url(#p89524affa4)" d="M 103.57625 202.445217 
L 179.630856 202.445217 
L 179.630856 221.728696 
L 103.57625 221.728696 
z
" style="fill:#437bb1;"/>
   </g>
   <g id="patch_11">
    <path clip-path="url(#p89524affa4)" d="M 103.57625 226.549565 
L 175.313689 226.549565 
L 175.313689 245.833043 
L 103.57625 245.833043 
z
" style="fill:#437bb1;"/>
   </g>
   <g id="patch_12">
    <path clip-path="url(#p89524affa4)" d="M 103.57625 250.653913 
L 189.300522 250.653913 
L 189.300522 269.937391 
L 103.57625 269.937391 
z
" style="fill:#437bb1;"/>
   </g>
   <g id="patch_13">
    <path clip-path="url(#p89524affa4)" d="M 103.57625 274.758261 
L 196.30819 274.758261 
L 196.30819 294.041739 
L 103.57625 294.041739 
z
" style="fill:#437bb1;"/>
   </g>
   <g id="patch_14">
    <path clip-path="url(#p89524affa4)" d="M 103.57625 298.862609 
L 192.089544 298.862609 
L 192.089544 318.146087 
L 103.57625 318.146087 
z
" style="fill:#437bb1;"/>
   </g>
   <g id="patch_15">
    <path clip-path="url(#p89524affa4)" d="M 103.57625 322.966957 
L 188.737094 322.966957 
L 188.737094 342.250435 
L 103.57625 342.250435 
z
" style="fill:#437bb1;"/>
   </g>
   <g id="patch_16">
    <path clip-path="url(#p89524affa4)" d="M 103.57625 347.071304 
L 184.230747 347.071304 
L 184.230747 366.354783 
L 103.57625 366.354783 
z
" style="fill:#437bb1;"/>
   </g>
   <g id="patch_17">
    <path clip-path="url(#p89524affa4)" d="M 103.57625 371.175652 
L 177.533226 371.175652 
L 177.533226 390.45913 
L 103.57625 390.45913 
z
" style="fill:#437bb1;"/>
   </g>
   <g id="patch_18">
    <path clip-path="url(#p89524affa4)" d="M 103.57625 395.28 
L 183.225205 395.28 
L 183.225205 414.563478 
L 103.57625 414.563478 
z
" style="fill:#437bb1;"/>
   </g>
   <g id="patch_19">
    <path clip-path="url(#p89524affa4)" d="M 103.57625 419.384348 
L 168.632347 419.384348 
L 168.632347 438.667826 
L 103.57625 438.667826 
z
" style="fill:#437bb1;"/>
   </g>
   <g id="patch_20">
    <path clip-path="url(#p89524affa4)" d="M 103.57625 443.488696 
L 170.485092 443.488696 
L 170.485092 462.772174 
L 103.57625 462.772174 
z
" style="fill:#437bb1;"/>
   </g>
   <g id="patch_21">
    <path clip-path="url(#p89524affa4)" d="M 103.57625 467.593043 
L 192.360418 467.593043 
L 192.360418 486.876522 
L 103.57625 486.876522 
z
" style="fill:#437bb1;"/>
   </g>
   <g id="patch_22">
    <path clip-path="url(#p89524affa4)" d="M 103.57625 491.697391 
L 192.779597 491.697391 
L 192.779597 510.98087 
L 103.57625 510.98087 
z
" style="fill:#437bb1;"/>
   </g>
   <g id="patch_23">
    <path clip-path="url(#p89524affa4)" d="M 103.57625 515.801739 
L 171.817992 515.801739 
L 171.817992 535.085217 
L 103.57625 535.085217 
z
" style="fill:#437bb1;"/>
   </g>
   <g id="patch_24">
    <path clip-path="url(#p89524affa4)" d="M 103.57625 539.906087 
L 182.874341 539.906087 
L 182.874341 559.189565 
L 103.57625 559.189565 
z
" style="fill:#437bb1;"/>
   </g>
   <g id="patch_25">
    <path clip-path="url(#p89524affa4)" d="M 103.57625 564.010435 
L 186.952512 564.010435 
L 186.952512 583.293913 
L 103.57625 583.293913 
z
" style="fill:#437bb1;"/>
   </g>
   <g id="patch_26">
    <path clip-path="url(#p89524affa4)" d="M 103.57625 588.114783 
L 186.959041 588.114783 
L 186.959041 607.398261 
L 103.57625 607.398261 
z
" style="fill:#437bb1;"/>
   </g>
   <g id="patch_27">
    <path clip-path="url(#p89524affa4)" d="M 103.57625 612.21913 
L 184.934477 612.21913 
L 184.934477 631.502609 
L 103.57625 631.502609 
z
" style="fill:#437bb1;"/>
   </g>
   <g id="patch_28">
    <path clip-path="url(#p89524affa4)" d="M 103.57625 636.323478 
L 193.141719 636.323478 
L 193.141719 655.606957 
L 103.57625 655.606957 
z
" style="fill:#437bb1;"/>
   </g>
   <g id="patch_29">
    <path clip-path="url(#p89524affa4)" d="M 103.57625 660.427826 
L 191.930315 660.427826 
L 191.930315 679.711304 
L 103.57625 679.711304 
z
" style="fill:#437bb1;"/>
   </g>
   <g id="patch_30">
    <path clip-path="url(#p89524affa4)" d="M 103.57625 684.532174 
L 188.74711 684.532174 
L 188.74711 703.815652 
L 103.57625 703.815652 
z
" style="fill:#437bb1;"/>
   </g>
   <g id="patch_31">
    <path clip-path="url(#p89524affa4)" d="M 103.57625 708.636522 
L 192.448907 708.636522 
L 192.448907 727.92 
L 103.57625 727.92 
z
" style="fill:#437bb1;"/>
   </g>
   <g id="patch_32">
    <path clip-path="url(#p89524affa4)" d="M 103.57625 732.74087 
L 186.786293 732.74087 
L 186.786293 752.024348 
L 103.57625 752.024348 
z
" style="fill:#437bb1;"/>
   </g>
   <g id="patch_33">
    <path clip-path="url(#p89524affa4)" d="M 103.57625 756.845217 
L 191.801223 756.845217 
L 191.801223 776.128696 
L 103.57625 776.128696 
z
" style="fill:#437bb1;"/>
   </g>
   <g id="patch_34">
    <path clip-path="url(#p89524affa4)" d="M 103.57625 780.949565 
L 185.430214 780.949565 
L 185.430214 800.233043 
L 103.57625 800.233043 
z
" style="fill:#437bb1;"/>
   </g>
   <g id="patch_35">
    <path clip-path="url(#p89524affa4)" d="M 103.57625 805.053913 
L 193.761405 805.053913 
L 193.761405 824.337391 
L 103.57625 824.337391 
z
" style="fill:#437bb1;"/>
   </g>
   <g id="patch_36">
    <path clip-path="url(#p89524affa4)" d="M 179.381567 9.610435 
L 186.164325 9.610435 
L 186.164325 28.893913 
L 179.381567 28.893913 
z
" style="fill:#7cb5ec;"/>
   </g>
   <g id="patch_37">
    <path clip-path="url(#p89524affa4)" d="M 169.296678 33.714783 
L 176.062058 33.714783 
L 176.062058 52.998261 
L 169.296678 52.998261 
z
" style="fill:#7cb5ec;"/>
   </g>
   <g id="patch_38">
    <path clip-path="url(#p89524affa4)" d="M 173.065202 57.81913 
L 177.978598 57.81913 
L 177.978598 77.102609 
L 173.065202 77.102609 
z
" style="fill:#7cb5ec;"/>
   </g>
   <g id="patch_39">
    <path clip-path="url(#p89524affa4)" d="M 173.037732 81.923478 
L 180.18886 81.923478 
L 180.18886 101.206957 
L 173.037732 101.206957 
z
" style="fill:#7cb5ec;"/>
   </g>
   <g id="patch_40">
    <path clip-path="url(#p89524affa4)" d="M 195.561325 106.027826 
L 202.864504 106.027826 
L 202.864504 125.311304 
L 195.561325 125.311304 
z
" style="fill:#7cb5ec;"/>
   </g>
   <g id="patch_41">
    <path clip-path="url(#p89524affa4)" d="M 183.211762 130.132174 
L 188.826782 130.132174 
L 188.826782 149.415652 
L 183.211762 149.415652 
z
" style="fill:#7cb5ec;"/>
   </g>
   <g id="patch_42">
    <path clip-path="url(#p89524affa4)" d="M 194.062943 154.236522 
L 201.218966 154.236522 
L 201.218966 173.52 
L 194.062943 173.52 
z
" style="fill:#7cb5ec;"/>
   </g>
   <g id="patch_43">
    <path clip-path="url(#p89524affa4)" d="M 714.73929 178.34087 
L 764.18553 178.34087 
L 764.18553 197.624348 
L 714.73929 197.624348 
z
" style="fill:#7cb5ec;"/>
   </g>
   <g id="patch_44">
    <path clip-path="url(#p89524affa4)" d="M 179.630856 202.445217 
L 185.097784 202.445217 
L 185.097784 221.728696 
L 179.630856 221.728696 
z
" style="fill:#7cb5ec;"/>
   </g>
   <g id="patch_45">
    <path clip-path="url(#p89524affa4)" d="M 175.313689 226.549565 
L 180.336626 226.549565 
L 180.336626 245.833043 
L 175.313689 245.833043 
z
" style="fill:#7cb5ec;"/>
   </g>
   <g id="patch_46">
    <path clip-path="url(#p89524affa4)" d="M 189.300522 250.653913 
L 197.025057 250.653913 
L 197.025057 269.937391 
L 189.300522 269.937391 
z
" style="fill:#7cb5ec;"/>
   </g>
   <g id="patch_47">
    <path clip-path="url(#p89524affa4)" d="M 196.30819 274.758261 
L 204.725265 274.758261 
L 204.725265 294.041739 
L 196.30819 294.041739 
z
" style="fill:#7cb5ec;"/>
   </g>
   <g id="patch_48">
    <path clip-path="url(#p89524affa4)" d="M 192.089544 298.862609 
L 199.331618 298.862609 
L 199.331618 318.146087 
L 192.089544 318.146087 
z
" style="fill:#7cb5ec;"/>
   </g>
   <g id="patch_49">
    <path clip-path="url(#p89524affa4)" d="M 188.737094 322.966957 
L 196.214713 322.966957 
L 196.214713 342.250435 
L 188.737094 342.250435 
z
" style="fill:#7cb5ec;"/>
   </g>
   <g id="patch_50">
    <path clip-path="url(#p89524affa4)" d="M 184.230747 347.071304 
L 189.444953 347.071304 
L 189.444953 366.354783 
L 184.230747 366.354783 
z
" style="fill:#7cb5ec;"/>
   </g>
   <g id="patch_51">
    <path clip-path="url(#p89524affa4)" d="M 177.533226 371.175652 
L 182.479209 371.175652 
L 182.479209 390.45913 
L 177.533226 390.45913 
z
" style="fill:#7cb5ec;"/>
   </g>
   <g id="patch_52">
    <path clip-path="url(#p89524affa4)" d="M 183.225205 395.28 
L 189.148802 395.28 
L 189.148802 414.563478 
L 183.225205 414.563478 
z
" style="fill:#7cb5ec;"/>
   </g>
   <g id="patch_53">
    <path clip-path="url(#p89524affa4)" d="M 168.632347 419.384348 
L 175.820989 419.384348 
L 175.820989 438.667826 
L 168.632347 438.667826 
z
" style="fill:#7cb5ec;"/>
   </g>
   <g id="patch_54">
    <path clip-path="url(#p89524affa4)" d="M 170.485092 443.488696 
L 177.442754 443.488696 
L 177.442754 462.772174 
L 170.485092 462.772174 
z
" style="fill:#7cb5ec;"/>
   </g>
   <g id="patch_55">
    <path clip-path="url(#p89524affa4)" d="M 192.360418 467.593043 
L 201.516491 467.593043 
L 201.516491 486.876522 
L 192.360418 486.876522 
z
" style="fill:#7cb5ec;"/>
   </g>
   <g id="patch_56">
    <path clip-path="url(#p89524affa4)" d="M 192.779597 491.697391 
L 199.168198 491.697391 
L 199.168198 510.98087 
L 192.779597 510.98087 
z
" style="fill:#7cb5ec;"/>
   </g>
   <g id="patch_57">
    <path clip-path="url(#p89524affa4)" d="M 171.817992 515.801739 
L 177.064542 515.801739 
L 177.064542 535.085217 
L 171.817992 535.085217 
z
" style="fill:#7cb5ec;"/>
   </g>
   <g id="patch_58">
    <path clip-path="url(#p89524affa4)" d="M 182.874341 539.906087 
L 189.054159 539.906087 
L 189.054159 559.189565 
L 182.874341 559.189565 
z
" style="fill:#7cb5ec;"/>
   </g>
   <g id="patch_59">
    <path clip-path="url(#p89524affa4)" d="M 186.952512 564.010435 
L 192.196326 564.010435 
L 192.196326 583.293913 
L 186.952512 583.293913 
z
" style="fill:#7cb5ec;"/>
   </g>
   <g id="patch_60">
    <path clip-path="url(#p89524affa4)" d="M 186.959041 588.114783 
L 192.381316 588.114783 
L 192.381316 607.398261 
L 186.959041 607.398261 
z
" style="fill:#7cb5ec;"/>
   </g>
   <g id="patch_61">
    <path clip-path="url(#p89524affa4)" d="M 184.934477 612.21913 
L 190.48267 612.21913 
L 190.48267 631.502609 
L 184.934477 631.502609 
z
" style="fill:#7cb5ec;"/>
   </g>
   <g id="patch_62">
    <path clip-path="url(#p89524affa4)" d="M 193.141719 636.323478 
L 201.700058 636.323478 
L 201.700058 655.606957 
L 193.141719 655.606957 
z
" style="fill:#7cb5ec;"/>
   </g>
   <g id="patch_63">
    <path clip-path="url(#p89524affa4)" d="M 191.930315 660.427826 
L 199.308327 660.427826 
L 199.308327 679.711304 
L 191.930315 679.711304 
z
" style="fill:#7cb5ec;"/>
   </g>
   <g id="patch_64">
    <path clip-path="url(#p89524affa4)" d="M 188.74711 684.532174 
L 194.513981 684.532174 
L 194.513981 703.815652 
L 188.74711 703.815652 
z
" style="fill:#7cb5ec;"/>
   </g>
   <g id="patch_65">
    <path clip-path="url(#p89524affa4)" d="M 192.448907 708.636522 
L 199.740462 708.636522 
L 199.740462 727.92 
L 192.448907 727.92 
z
" style="fill:#7cb5ec;"/>
   </g>
   <g id="patch_66">
    <path clip-path="url(#p89524affa4)" d="M 186.786293 732.74087 
L 193.69399 732.74087 
L 193.69399 752.024348 
L 186.786293 752.024348 
z
" style="fill:#7cb5ec;"/>
   </g>
   <g id="patch_67">
    <path clip-path="url(#p89524affa4)" d="M 191.801223 756.845217 
L 199.402605 756.845217 
L 199.402605 776.128696 
L 191.801223 776.128696 
z
" style="fill:#7cb5ec;"/>
   </g>
   <g id="patch_68">
    <path clip-path="url(#p89524affa4)" d="M 185.430214 780.949565 
L 191.282522 780.949565 
L 191.282522 800.233043 
L 185.430214 800.233043 
z
" style="fill:#7cb5ec;"/>
   </g>
   <g id="patch_69">
    <path clip-path="url(#p89524affa4)" d="M 193.761405 805.053913 
L 202.151102 805.053913 
L 202.151102 824.337391 
L 193.761405 824.337391 
z
" style="fill:#7cb5ec;"/>
   </g>
   <g id="patch_70">
    <path clip-path="url(#p89524affa4)" d="M 186.164325 9.610435 
L 186.201824 9.610435 
L 186.201824 28.893913 
L 186.164325 28.893913 
z
" style="fill:#f7a35c;"/>
   </g>
   <g id="patch_71">
    <path clip-path="url(#p89524affa4)" d="M 176.062058 33.714783 
L 176.09406 33.714783 
L 176.09406 52.998261 
L 176.062058 52.998261 
z
" style="fill:#f7a35c;"/>
   </g>
   <g id="patch_72">
    <path clip-path="url(#p89524affa4)" d="M 177.978598 57.81913 
L 178.016604 57.81913 
L 178.016604 77.102609 
L 177.978598 77.102609 
z
" style="fill:#f7a35c;"/>
   </g>
   <g id="patch_73">
    <path clip-path="url(#p89524affa4)" d="M 180.18886 81.923478 
L 180.219915 81.923478 
L 180.219915 101.206957 
L 180.18886 101.206957 
z
" style="fill:#f7a35c;"/>
   </g>
   <g id="patch_74">
    <path clip-path="url(#p89524affa4)" d="M 202.864504 106.027826 
L 202.910595 106.027826 
L 202.910595 125.311304 
L 202.864504 125.311304 
z
" style="fill:#f7a35c;"/>
   </g>
   <g id="patch_75">
    <path clip-path="url(#p89524affa4)" d="M 188.826782 130.132174 
L 188.872398 130.132174 
L 188.872398 149.415652 
L 188.826782 149.415652 
z
" style="fill:#f7a35c;"/>
   </g>
   <g id="patch_76">
    <path clip-path="url(#p89524affa4)" d="M 201.218966 154.236522 
L 201.263304 154.236522 
L 201.263304 173.52 
L 201.218966 173.52 
z
" style="fill:#f7a35c;"/>
   </g>
   <g id="patch_77">
    <path clip-path="url(#p89524affa4)" d="M 764.18553 178.34087 
L 764.502689 178.34087 
L 764.502689 197.624348 
L 764.18553 197.624348 
z
" style="fill:#f7a35c;"/>
   </g>
   <g id="patch_78">
    <path clip-path="url(#p89524affa4)" d="M 185.097784 202.445217 
L 185.137554 202.445217 
L 185.137554 221.728696 
L 185.097784 221.728696 
z
" style="fill:#f7a35c;"/>
   </g>
   <g id="patch_79">
    <path clip-path="url(#p89524affa4)" d="M 180.336626 226.549565 
L 180.369777 226.549565 
L 180.369777 245.833043 
L 180.336626 245.833043 
z
" style="fill:#f7a35c;"/>
   </g>
   <g id="patch_80">
    <path clip-path="url(#p89524affa4)" d="M 197.025057 250.653913 
L 197.067519 250.653913 
L 197.067519 269.937391 
L 197.025057 269.937391 
z
" style="fill:#f7a35c;"/>
   </g>
   <g id="patch_81">
    <path clip-path="url(#p89524affa4)" d="M 204.725265 274.758261 
L 204.777408 274.758261 
L 204.777408 294.041739 
L 204.725265 294.041739 
z
" style="fill:#f7a35c;"/>
   </g>
   <g id="patch_82">
    <path clip-path="url(#p89524affa4)" d="M 199.331618 298.862609 
L 199.379848 298.862609 
L 199.379848 318.146087 
L 199.331618 318.146087 
z
" style="fill:#f7a35c;"/>
   </g>
   <g id="patch_83">
    <path clip-path="url(#p89524affa4)" d="M 196.214713 322.966957 
L 196.257718 322.966957 
L 196.257718 342.250435 
L 196.214713 342.250435 
z
" style="fill:#f7a35c;"/>
   </g>
   <g id="patch_84">
    <path clip-path="url(#p89524affa4)" d="M 189.444953 347.071304 
L 189.488044 347.071304 
L 189.488044 366.354783 
L 189.444953 366.354783 
z
" style="fill:#f7a35c;"/>
   </g>
   <g id="patch_85">
    <path clip-path="url(#p89524affa4)" d="M 182.479209 371.175652 
L 182.518046 371.175652 
L 182.518046 390.45913 
L 182.479209 390.45913 
z
" style="fill:#f7a35c;"/>
   </g>
   <g id="patch_86">
    <path clip-path="url(#p89524affa4)" d="M 189.148802 395.28 
L 189.187428 395.28 
L 189.187428 414.563478 
L 189.148802 414.563478 
z
" style="fill:#f7a35c;"/>
   </g>
   <g id="patch_87">
    <path clip-path="url(#p89524affa4)" d="M 175.820989 419.384348 
L 175.852247 419.384348 
L 175.852247 438.667826 
L 175.820989 438.667826 
z
" style="fill:#f7a35c;"/>
   </g>
   <g id="patch_88">
    <path clip-path="url(#p89524affa4)" d="M 177.442754 443.488696 
L 177.479542 443.488696 
L 177.479542 462.772174 
L 177.442754 462.772174 
z
" style="fill:#f7a35c;"/>
   </g>
   <g id="patch_89">
    <path clip-path="url(#p89524affa4)" d="M 201.516491 467.593043 
L 201.565306 467.593043 
L 201.565306 486.876522 
L 201.516491 486.876522 
z
" style="fill:#f7a35c;"/>
   </g>
   <g id="patch_90">
    <path clip-path="url(#p89524affa4)" d="M 199.168198 491.697391 
L 199.21842 491.697391 
L 199.21842 510.98087 
L 199.168198 510.98087 
z
" style="fill:#f7a35c;"/>
   </g>
   <g id="patch_91">
    <path clip-path="url(#p89524affa4)" d="M 177.064542 515.801739 
L 177.096259 515.801739 
L 177.096259 535.085217 
L 177.064542 535.085217 
z
" style="fill:#f7a35c;"/>
   </g>
   <g id="patch_92">
    <path clip-path="url(#p89524affa4)" d="M 189.054159 539.906087 
L 189.097529 539.906087 
L 189.097529 559.189565 
L 189.054159 559.189565 
z
" style="fill:#f7a35c;"/>
   </g>
   <g id="patch_93">
    <path clip-path="url(#p89524affa4)" d="M 192.196326 564.010435 
L 192.24054 564.010435 
L 192.24054 583.293913 
L 192.196326 583.293913 
z
" style="fill:#f7a35c;"/>
   </g>
   <g id="patch_94">
    <path clip-path="url(#p89524affa4)" d="M 192.381316 588.114783 
L 192.434387 588.114783 
L 192.434387 607.398261 
L 192.381316 607.398261 
z
" style="fill:#f7a35c;"/>
   </g>
   <g id="patch_95">
    <path clip-path="url(#p89524affa4)" d="M 190.48267 612.21913 
L 190.527118 612.21913 
L 190.527118 631.502609 
L 190.48267 631.502609 
z
" style="fill:#f7a35c;"/>
   </g>
   <g id="patch_96">
    <path clip-path="url(#p89524affa4)" d="M 201.700058 636.323478 
L 201.745751 636.323478 
L 201.745751 655.606957 
L 201.700058 655.606957 
z
" style="fill:#f7a35c;"/>
   </g>
   <g id="patch_97">
    <path clip-path="url(#p89524affa4)" d="M 199.308327 660.427826 
L 199.353459 660.427826 
L 199.353459 679.711304 
L 199.308327 679.711304 
z
" style="fill:#f7a35c;"/>
   </g>
   <g id="patch_98">
    <path clip-path="url(#p89524affa4)" d="M 194.513981 684.532174 
L 194.566609 684.532174 
L 194.566609 703.815652 
L 194.513981 703.815652 
z
" style="fill:#f7a35c;"/>
   </g>
   <g id="patch_99">
    <path clip-path="url(#p89524affa4)" d="M 199.740462 708.636522 
L 199.789518 708.636522 
L 199.789518 727.92 
L 199.740462 727.92 
z
" style="fill:#f7a35c;"/>
   </g>
   <g id="patch_100">
    <path clip-path="url(#p89524affa4)" d="M 193.69399 732.74087 
L 193.734626 732.74087 
L 193.734626 752.024348 
L 193.69399 752.024348 
z
" style="fill:#f7a35c;"/>
   </g>
   <g id="patch_101">
    <path clip-path="url(#p89524affa4)" d="M 199.402605 756.845217 
L 199.450398 756.845217 
L 199.450398 776.128696 
L 199.402605 776.128696 
z
" style="fill:#f7a35c;"/>
   </g>
   <g id="patch_102">
    <path clip-path="url(#p89524affa4)" d="M 191.282522 780.949565 
L 191.329279 780.949565 
L 191.329279 800.233043 
L 191.282522 800.233043 
z
" style="fill:#f7a35c;"/>
   </g>
   <g id="patch_103">
    <path clip-path="url(#p89524affa4)" d="M 202.151102 805.053913 
L 202.197321 805.053913 
L 202.197321 824.337391 
L 202.151102 824.337391 
z
" style="fill:#f7a35c;"/>
   </g>
   <g id="patch_104">
    <path clip-path="url(#p89524affa4)" d="M 186.201824 9.610435 
L 193.932206 9.610435 
L 193.932206 28.893913 
L 186.201824 28.893913 
z
" style="fill:#b1084c;"/>
   </g>
   <g id="patch_105">
    <path clip-path="url(#p89524affa4)" d="M 176.09406 33.714783 
L 184.316299 33.714783 
L 184.316299 52.998261 
L 176.09406 52.998261 
z
" style="fill:#b1084c;"/>
   </g>
   <g id="patch_106">
    <path clip-path="url(#p89524affa4)" d="M 178.016604 57.81913 
L 184.336726 57.81913 
L 184.336726 77.102609 
L 178.016604 77.102609 
z
" style="fill:#b1084c;"/>
   </g>
   <g id="patch_107">
    <path clip-path="url(#p89524affa4)" d="M 180.219915 81.923478 
L 189.407403 81.923478 
L 189.407403 101.206957 
L 180.219915 101.206957 
z
" style="fill:#b1084c;"/>
   </g>
   <g id="patch_108">
    <path clip-path="url(#p89524affa4)" d="M 202.910595 106.027826 
L 211.399114 106.027826 
L 211.399114 125.311304 
L 202.910595 125.311304 
z
" style="fill:#b1084c;"/>
   </g>
   <g id="patch_109">
    <path clip-path="url(#p89524affa4)" d="M 188.872398 130.132174 
L 197.556574 130.132174 
L 197.556574 149.415652 
L 188.872398 149.415652 
z
" style="fill:#b1084c;"/>
   </g>
   <g id="patch_110">
    <path clip-path="url(#p89524affa4)" d="M 201.263304 154.236522 
L 213.606822 154.236522 
L 213.606822 173.52 
L 201.263304 173.52 
z
" style="fill:#b1084c;"/>
   </g>
   <g id="patch_111">
    <path clip-path="url(#p89524affa4)" d="M 764.502689 178.34087 
L 845.34309 178.34087 
L 845.34309 197.624348 
L 764.502689 197.624348 
z
" style="fill:#b1084c;"/>
   </g>
   <g id="patch_112">
    <path clip-path="url(#p89524affa4)" d="M 185.137554 202.445217 
L 196.364661 202.445217 
L 196.364661 221.728696 
L 185.137554 221.728696 
z
" style="fill:#b1084c;"/>
   </g>
   <g id="patch_113">
    <path clip-path="url(#p89524affa4)" d="M 180.369777 226.549565 
L 187.862601 226.549565 
L 187.862601 245.833043 
L 180.369777 245.833043 
z
" style="fill:#b1084c;"/>
   </g>
   <g id="patch_114">
    <path clip-path="url(#p89524affa4)" d="M 197.067519 250.653913 
L 208.60086 250.653913 
L 208.60086 269.937391 
L 197.067519 269.937391 
z
" style="fill:#b1084c;"/>
   </g>
   <g id="patch_115">
    <path clip-path="url(#p89524affa4)" d="M 204.777408 274.758261 
L 215.869004 274.758261 
L 215.869004 294.041739 
L 204.777408 294.041739 
z
" style="fill:#b1084c;"/>
   </g>
   <g id="patch_116">
    <path clip-path="url(#p89524affa4)" d="M 199.379848 298.862609 
L 210.850201 298.862609 
L 210.850201 318.146087 
L 199.379848 318.146087 
z
" style="fill:#b1084c;"/>
   </g>
   <g id="patch_117">
    <path clip-path="url(#p89524affa4)" d="M 196.257718 322.966957 
L 203.228498 322.966957 
L 203.228498 342.250435 
L 196.257718 342.250435 
z
" style="fill:#b1084c;"/>
   </g>
   <g id="patch_118">
    <path clip-path="url(#p89524affa4)" d="M 189.488044 347.071304 
L 197.30518 347.071304 
L 197.30518 366.354783 
L 189.488044 366.354783 
z
" style="fill:#b1084c;"/>
   </g>
   <g id="patch_119">
    <path clip-path="url(#p89524affa4)" d="M 182.518046 371.175652 
L 188.510762 371.175652 
L 188.510762 390.45913 
L 182.518046 390.45913 
z
" style="fill:#b1084c;"/>
   </g>
   <g id="patch_120">
    <path clip-path="url(#p89524affa4)" d="M 189.187428 395.28 
L 200.752865 395.28 
L 200.752865 414.563478 
L 189.187428 414.563478 
z
" style="fill:#b1084c;"/>
   </g>
   <g id="patch_121">
    <path clip-path="url(#p89524affa4)" d="M 175.852247 419.384348 
L 184.834636 419.384348 
L 184.834636 438.667826 
L 175.852247 438.667826 
z
" style="fill:#b1084c;"/>
   </g>
   <g id="patch_122">
    <path clip-path="url(#p89524affa4)" d="M 177.479542 443.488696 
L 185.668883 443.488696 
L 185.668883 462.772174 
L 177.479542 462.772174 
z
" style="fill:#b1084c;"/>
   </g>
   <g id="patch_123">
    <path clip-path="url(#p89524affa4)" d="M 201.565306 467.593043 
L 211.751666 467.593043 
L 211.751666 486.876522 
L 201.565306 486.876522 
z
" style="fill:#b1084c;"/>
   </g>
   <g id="patch_124">
    <path clip-path="url(#p89524affa4)" d="M 199.21842 491.697391 
L 207.341546 491.697391 
L 207.341546 510.98087 
L 199.21842 510.98087 
z
" style="fill:#b1084c;"/>
   </g>
   <g id="patch_125">
    <path clip-path="url(#p89524affa4)" d="M 177.096259 515.801739 
L 182.75667 515.801739 
L 182.75667 535.085217 
L 177.096259 535.085217 
z
" style="fill:#b1084c;"/>
   </g>
   <g id="patch_126">
    <path clip-path="url(#p89524affa4)" d="M 189.097529 539.906087 
L 198.444105 539.906087 
L 198.444105 559.189565 
L 189.097529 559.189565 
z
" style="fill:#b1084c;"/>
   </g>
   <g id="patch_127">
    <path clip-path="url(#p89524affa4)" d="M 192.24054 564.010435 
L 203.139859 564.010435 
L 203.139859 583.293913 
L 192.24054 583.293913 
z
" style="fill:#b1084c;"/>
   </g>
   <g id="patch_128">
    <path clip-path="url(#p89524affa4)" d="M 192.434387 588.114783 
L 218.426722 588.114783 
L 218.426722 607.398261 
L 192.434387 607.398261 
z
" style="fill:#b1084c;"/>
   </g>
   <g id="patch_129">
    <path clip-path="url(#p89524affa4)" d="M 190.527118 612.21913 
L 197.165188 612.21913 
L 197.165188 631.502609 
L 190.527118 631.502609 
z
" style="fill:#b1084c;"/>
   </g>
   <g id="patch_130">
    <path clip-path="url(#p89524affa4)" d="M 201.745751 636.323478 
L 212.961329 636.323478 
L 212.961329 655.606957 
L 201.745751 655.606957 
z
" style="fill:#b1084c;"/>
   </g>
   <g id="patch_131">
    <path clip-path="url(#p89524affa4)" d="M 199.353459 660.427826 
L 209.119927 660.427826 
L 209.119927 679.711304 
L 199.353459 679.711304 
z
" style="fill:#b1084c;"/>
   </g>
   <g id="patch_132">
    <path clip-path="url(#p89524affa4)" d="M 194.566609 684.532174 
L 213.572987 684.532174 
L 213.572987 703.815652 
L 194.566609 703.815652 
z
" style="fill:#b1084c;"/>
   </g>
   <g id="patch_133">
    <path clip-path="url(#p89524affa4)" d="M 199.789518 708.636522 
L 218.99653 708.636522 
L 218.99653 727.92 
L 199.789518 727.92 
z
" style="fill:#b1084c;"/>
   </g>
   <g id="patch_134">
    <path clip-path="url(#p89524affa4)" d="M 193.734626 732.74087 
L 204.922709 732.74087 
L 204.922709 752.024348 
L 193.734626 752.024348 
z
" style="fill:#b1084c;"/>
   </g>
   <g id="patch_135">
    <path clip-path="url(#p89524affa4)" d="M 199.450398 756.845217 
L 213.364972 756.845217 
L 213.364972 776.128696 
L 199.450398 776.128696 
z
" style="fill:#b1084c;"/>
   </g>
   <g id="patch_136">
    <path clip-path="url(#p89524affa4)" d="M 191.329279 780.949565 
L 203.530411 780.949565 
L 203.530411 800.233043 
L 191.329279 800.233043 
z
" style="fill:#b1084c;"/>
   </g>
   <g id="patch_137">
    <path clip-path="url(#p89524affa4)" d="M 202.197321 805.053913 
L 215.163227 805.053913 
L 215.163227 824.337391 
L 202.197321 824.337391 
z
" style="fill:#b1084c;"/>
   </g>
   <g id="patch_138">
    <path clip-path="url(#p89524affa4)" d="M 193.932206 9.610435 
L 194.02262 9.610435 
L 194.02262 28.893913 
L 193.932206 28.893913 
z
" style="fill:#7f0000;"/>
   </g>
   <g id="patch_139">
    <path clip-path="url(#p89524affa4)" d="M 184.316299 33.714783 
L 184.397067 33.714783 
L 184.397067 52.998261 
L 184.316299 52.998261 
z
" style="fill:#7f0000;"/>
   </g>
   <g id="patch_140">
    <path clip-path="url(#p89524affa4)" d="M 184.336726 57.81913 
L 184.425628 57.81913 
L 184.425628 77.102609 
L 184.336726 77.102609 
z
" style="fill:#7f0000;"/>
   </g>
   <g id="patch_141">
    <path clip-path="url(#p89524affa4)" d="M 189.407403 81.923478 
L 189.484753 81.923478 
L 189.484753 101.206957 
L 189.407403 101.206957 
z
" style="fill:#7f0000;"/>
   </g>
   <g id="patch_142">
    <path clip-path="url(#p89524affa4)" d="M 211.399114 106.027826 
L 211.507109 106.027826 
L 211.507109 125.311304 
L 211.399114 125.311304 
z
" style="fill:#7f0000;"/>
   </g>
   <g id="patch_143">
    <path clip-path="url(#p89524affa4)" d="M 197.556574 130.132174 
L 197.669477 130.132174 
L 197.669477 149.415652 
L 197.556574 149.415652 
z
" style="fill:#7f0000;"/>
   </g>
   <g id="patch_144">
    <path clip-path="url(#p89524affa4)" d="M 213.606822 154.236522 
L 213.705923 154.236522 
L 213.705923 173.52 
L 213.606822 173.52 
z
" style="fill:#7f0000;"/>
   </g>
   <g id="patch_145">
    <path clip-path="url(#p89524affa4)" d="M 845.34309 178.34087 
L 847.57625 178.34087 
L 847.57625 197.624348 
L 845.34309 197.624348 
z
" style="fill:#7f0000;"/>
   </g>
   <g id="patch_146">
    <path clip-path="url(#p89524affa4)" d="M 196.364661 202.445217 
L 196.457525 202.445217 
L 196.457525 221.728696 
L 196.364661 221.728696 
z
" style="fill:#7f0000;"/>
   </g>
   <g id="patch_147">
    <path clip-path="url(#p89524affa4)" d="M 187.862601 226.549565 
L 187.946979 226.549565 
L 187.946979 245.833043 
L 187.862601 245.833043 
z
" style="fill:#7f0000;"/>
   </g>
   <g id="patch_148">
    <path clip-path="url(#p89524affa4)" d="M 208.60086 250.653913 
L 208.705995 250.653913 
L 208.705995 269.937391 
L 208.60086 269.937391 
z
" style="fill:#7f0000;"/>
   </g>
   <g id="patch_149">
    <path clip-path="url(#p89524affa4)" d="M 215.869004 274.758261 
L 215.992744 274.758261 
L 215.992744 294.041739 
L 215.869004 294.041739 
z
" style="fill:#7f0000;"/>
   </g>
   <g id="patch_150">
    <path clip-path="url(#p89524affa4)" d="M 210.850201 298.862609 
L 210.957602 298.862609 
L 210.957602 318.146087 
L 210.850201 318.146087 
z
" style="fill:#7f0000;"/>
   </g>
   <g id="patch_151">
    <path clip-path="url(#p89524affa4)" d="M 203.228498 322.966957 
L 203.328366 322.966957 
L 203.328366 342.250435 
L 203.228498 342.250435 
z
" style="fill:#7f0000;"/>
   </g>
   <g id="patch_152">
    <path clip-path="url(#p89524affa4)" d="M 197.30518 347.071304 
L 197.408408 347.071304 
L 197.408408 366.354783 
L 197.30518 366.354783 
z
" style="fill:#7f0000;"/>
   </g>
   <g id="patch_153">
    <path clip-path="url(#p89524affa4)" d="M 188.510762 371.175652 
L 188.604265 371.175652 
L 188.604265 390.45913 
L 188.510762 390.45913 
z
" style="fill:#7f0000;"/>
   </g>
   <g id="patch_154">
    <path clip-path="url(#p89524affa4)" d="M 200.752865 395.28 
L 200.850135 395.28 
L 200.850135 414.563478 
L 200.752865 414.563478 
z
" style="fill:#7f0000;"/>
   </g>
   <g id="patch_155">
    <path clip-path="url(#p89524affa4)" d="M 184.834636 419.384348 
L 184.907862 419.384348 
L 184.907862 438.667826 
L 184.834636 438.667826 
z
" style="fill:#7f0000;"/>
   </g>
   <g id="patch_156">
    <path clip-path="url(#p89524affa4)" d="M 185.668883 443.488696 
L 185.751105 443.488696 
L 185.751105 462.772174 
L 185.668883 462.772174 
z
" style="fill:#7f0000;"/>
   </g>
   <g id="patch_157">
    <path clip-path="url(#p89524affa4)" d="M 211.751666 467.593043 
L 211.860032 467.593043 
L 211.860032 486.876522 
L 211.751666 486.876522 
z
" style="fill:#7f0000;"/>
   </g>
   <g id="patch_158">
    <path clip-path="url(#p89524affa4)" d="M 207.341546 491.697391 
L 207.466197 491.697391 
L 207.466197 510.98087 
L 207.341546 510.98087 
z
" style="fill:#7f0000;"/>
   </g>
   <g id="patch_159">
    <path clip-path="url(#p89524affa4)" d="M 182.75667 515.801739 
L 182.835948 515.801739 
L 182.835948 535.085217 
L 182.75667 535.085217 
z
" style="fill:#7f0000;"/>
   </g>
   <g id="patch_160">
    <path clip-path="url(#p89524affa4)" d="M 198.444105 539.906087 
L 198.548589 539.906087 
L 198.548589 559.189565 
L 198.444105 559.189565 
z
" style="fill:#7f0000;"/>
   </g>
   <g id="patch_161">
    <path clip-path="url(#p89524affa4)" d="M 203.139859 564.010435 
L 203.239578 564.010435 
L 203.239578 583.293913 
L 203.139859 583.293913 
z
" style="fill:#7f0000;"/>
   </g>
   <g id="patch_162">
    <path clip-path="url(#p89524affa4)" d="M 218.426722 588.114783 
L 218.564673 588.114783 
L 218.564673 607.398261 
L 218.426722 607.398261 
z
" style="fill:#7f0000;"/>
   </g>
   <g id="patch_163">
    <path clip-path="url(#p89524affa4)" d="M 197.165188 612.21913 
L 197.277539 612.21913 
L 197.277539 631.502609 
L 197.165188 631.502609 
z
" style="fill:#7f0000;"/>
   </g>
   <g id="patch_164">
    <path clip-path="url(#p89524affa4)" d="M 212.961329 636.323478 
L 213.070856 636.323478 
L 213.070856 655.606957 
L 212.961329 655.606957 
z
" style="fill:#7f0000;"/>
   </g>
   <g id="patch_165">
    <path clip-path="url(#p89524affa4)" d="M 209.119927 660.427826 
L 209.23607 660.427826 
L 209.23607 679.711304 
L 209.119927 679.711304 
z
" style="fill:#7f0000;"/>
   </g>
   <g id="patch_166">
    <path clip-path="url(#p89524affa4)" d="M 213.572987 684.532174 
L 213.694117 684.532174 
L 213.694117 703.815652 
L 213.572987 703.815652 
z
" style="fill:#7f0000;"/>
   </g>
   <g id="patch_167">
    <path clip-path="url(#p89524affa4)" d="M 218.99653 708.636522 
L 219.112027 708.636522 
L 219.112027 727.92 
L 218.99653 727.92 
z
" style="fill:#7f0000;"/>
   </g>
   <g id="patch_168">
    <path clip-path="url(#p89524affa4)" d="M 204.922709 732.74087 
L 205.024143 732.74087 
L 205.024143 752.024348 
L 204.922709 752.024348 
z
" style="fill:#7f0000;"/>
   </g>
   <g id="patch_169">
    <path clip-path="url(#p89524affa4)" d="M 213.364972 756.845217 
L 213.474881 756.845217 
L 213.474881 776.128696 
L 213.364972 776.128696 
z
" style="fill:#7f0000;"/>
   </g>
   <g id="patch_170">
    <path clip-path="url(#p89524affa4)" d="M 203.530411 780.949565 
L 203.640511 780.949565 
L 203.640511 800.233043 
L 203.530411 800.233043 
z
" style="fill:#7f0000;"/>
   </g>
   <g id="patch_171">
    <path clip-path="url(#p89524affa4)" d="M 215.163227 805.053913 
L 215.274905 805.053913 
L 215.274905 824.337391 
L 215.163227 824.337391 
z
" style="fill:#7f0000;"/>
   </g>
   <g id="text_45">
    <!-- STAR: Alignment Scores -->
    <g transform="translate(398.71125 -20.52)scale(0.16 -0.16)">
     <defs>
      <path d="M 750 794 
L 1409 794 
L 1409 0 
L 750 0 
L 750 794 
z
M 750 3309 
L 1409 3309 
L 1409 2516 
L 750 2516 
L 750 3309 
z
" id="DejaVuSans-3a" transform="scale(0.015625)"/>
      <path d="M 603 4863 
L 1178 4863 
L 1178 0 
L 603 0 
L 603 4863 
z
" id="DejaVuSans-6c" transform="scale(0.015625)"/>
      <path d="M 603 3500 
L 1178 3500 
L 1178 0 
L 603 0 
L 603 3500 
z
M 603 4863 
L 1178 4863 
L 1178 4134 
L 603 4134 
L 603 4863 
z
" id="DejaVuSans-69" transform="scale(0.015625)"/>
      <path d="M 2906 1791 
Q 2906 2416 2648 2759 
Q 2391 3103 1925 3103 
Q 1463 3103 1205 2759 
Q 947 2416 947 1791 
Q 947 1169 1205 825 
Q 1463 481 1925 481 
Q 2391 481 2648 825 
Q 2906 1169 2906 1791 
z
M 3481 434 
Q 3481 -459 3084 -895 
Q 2688 -1331 1869 -1331 
Q 1566 -1331 1297 -1286 
Q 1028 -1241 775 -1147 
L 775 -588 
Q 1028 -725 1275 -790 
Q 1522 -856 1778 -856 
Q 2344 -856 2625 -561 
Q 2906 -266 2906 331 
L 2906 616 
Q 2728 306 2450 153 
Q 2172 0 1784 0 
Q 1141 0 747 490 
Q 353 981 353 1791 
Q 353 2603 747 3093 
Q 1141 3584 1784 3584 
Q 2172 3584 2450 3431 
Q 2728 3278 2906 2969 
L 2906 3500 
L 3481 3500 
L 3481 434 
z
" id="DejaVuSans-67" transform="scale(0.015625)"/>
      <path d="M 3513 2113 
L 3513 0 
L 2938 0 
L 2938 2094 
Q 2938 2591 2744 2837 
Q 2550 3084 2163 3084 
Q 1697 3084 1428 2787 
Q 1159 2491 1159 1978 
L 1159 0 
L 581 0 
L 581 3500 
L 1159 3500 
L 1159 2956 
Q 1366 3272 1645 3428 
Q 1925 3584 2291 3584 
Q 2894 3584 3203 3211 
Q 3513 2838 3513 2113 
z
" id="DejaVuSans-6e" transform="scale(0.015625)"/>
      <path d="M 3328 2828 
Q 3544 3216 3844 3400 
Q 4144 3584 4550 3584 
Q 5097 3584 5394 3201 
Q 5691 2819 5691 2113 
L 5691 0 
L 5113 0 
L 5113 2094 
Q 5113 2597 4934 2840 
Q 4756 3084 4391 3084 
Q 3944 3084 3684 2787 
Q 3425 2491 3425 1978 
L 3425 0 
L 2847 0 
L 2847 2094 
Q 2847 2600 2669 2842 
Q 2491 3084 2119 3084 
Q 1678 3084 1418 2786 
Q 1159 2488 1159 1978 
L 1159 0 
L 581 0 
L 581 3500 
L 1159 3500 
L 1159 2956 
Q 1356 3278 1631 3431 
Q 1906 3584 2284 3584 
Q 2666 3584 2933 3390 
Q 3200 3197 3328 2828 
z
" id="DejaVuSans-6d" transform="scale(0.015625)"/>
      <path d="M 1172 4494 
L 1172 3500 
L 2356 3500 
L 2356 3053 
L 1172 3053 
L 1172 1153 
Q 1172 725 1289 603 
Q 1406 481 1766 481 
L 2356 481 
L 2356 0 
L 1766 0 
Q 1100 0 847 248 
Q 594 497 594 1153 
L 594 3053 
L 172 3053 
L 172 3500 
L 594 3500 
L 594 4494 
L 1172 4494 
z
" id="DejaVuSans-74" transform="scale(0.015625)"/>
      <path d="M 3122 3366 
L 3122 2828 
Q 2878 2963 2633 3030 
Q 2388 3097 2138 3097 
Q 1578 3097 1268 2742 
Q 959 2388 959 1747 
Q 959 1106 1268 751 
Q 1578 397 2138 397 
Q 2388 397 2633 464 
Q 2878 531 3122 666 
L 3122 134 
Q 2881 22 2623 -34 
Q 2366 -91 2075 -91 
Q 1284 -91 818 406 
Q 353 903 353 1747 
Q 353 2603 823 3093 
Q 1294 3584 2113 3584 
Q 2378 3584 2631 3529 
Q 2884 3475 3122 3366 
z
" id="DejaVuSans-63" transform="scale(0.015625)"/>
      <path d="M 1959 3097 
Q 1497 3097 1228 2736 
Q 959 2375 959 1747 
Q 959 1119 1226 758 
Q 1494 397 1959 397 
Q 2419 397 2687 759 
Q 2956 1122 2956 1747 
Q 2956 2369 2687 2733 
Q 2419 3097 1959 3097 
z
M 1959 3584 
Q 2709 3584 3137 3096 
Q 3566 2609 3566 1747 
Q 3566 888 3137 398 
Q 2709 -91 1959 -91 
Q 1206 -91 779 398 
Q 353 888 353 1747 
Q 353 2609 779 3096 
Q 1206 3584 1959 3584 
z
" id="DejaVuSans-6f" transform="scale(0.015625)"/>
      <path d="M 2631 2963 
Q 2534 3019 2420 3045 
Q 2306 3072 2169 3072 
Q 1681 3072 1420 2755 
Q 1159 2438 1159 1844 
L 1159 0 
L 581 0 
L 581 3500 
L 1159 3500 
L 1159 2956 
Q 1341 3275 1631 3429 
Q 1922 3584 2338 3584 
Q 2397 3584 2469 3576 
Q 2541 3569 2628 3553 
L 2631 2963 
z
" id="DejaVuSans-72" transform="scale(0.015625)"/>
     </defs>
     <use xlink:href="#DejaVuSans-53"/>
     <use x="63.476562" xlink:href="#DejaVuSans-54"/>
     <use x="116.810547" xlink:href="#DejaVuSans-41"/>
     <use x="185.21875" xlink:href="#DejaVuSans-52"/>
     <use x="251.576172" xlink:href="#DejaVuSans-3a"/>
     <use x="285.267578" xlink:href="#DejaVuSans-20"/>
     <use x="317.054688" xlink:href="#DejaVuSans-41"/>
     <use x="385.462891" xlink:href="#DejaVuSans-6c"/>
     <use x="413.246094" xlink:href="#DejaVuSans-69"/>
     <use x="441.029297" xlink:href="#DejaVuSans-67"/>
     <use x="504.505859" xlink:href="#DejaVuSans-6e"/>
     <use x="567.884766" xlink:href="#DejaVuSans-6d"/>
     <use x="665.296875" xlink:href="#DejaVuSans-65"/>
     <use x="726.820312" xlink:href="#DejaVuSans-6e"/>
     <use x="790.199219" xlink:href="#DejaVuSans-74"/>
     <use x="829.408203" xlink:href="#DejaVuSans-20"/>
     <use x="861.195312" xlink:href="#DejaVuSans-53"/>
     <use x="924.671875" xlink:href="#DejaVuSans-63"/>
     <use x="979.652344" xlink:href="#DejaVuSans-6f"/>
     <use x="1040.833984" xlink:href="#DejaVuSans-72"/>
     <use x="1079.697266" xlink:href="#DejaVuSans-65"/>
     <use x="1141.220703" xlink:href="#DejaVuSans-73"/>
    </g>
   </g>
   <g id="legend_1">
    <g id="patch_172">
     <path d="M 110.77625 901.044076 
L 126.77625 901.044076 
L 126.77625 895.444076 
L 110.77625 895.444076 
z
" style="fill:#437bb1;"/>
    </g>
    <g id="text_46">
     <!-- Uniquely mapped -->
     <g transform="translate(133.17625 901.044076)scale(0.08 -0.08)">
      <defs>
       <path d="M 556 4666 
L 1191 4666 
L 1191 1831 
Q 1191 1081 1462 751 
Q 1734 422 2344 422 
Q 2950 422 3222 751 
Q 3494 1081 3494 1831 
L 3494 4666 
L 4128 4666 
L 4128 1753 
Q 4128 841 3676 375 
Q 3225 -91 2344 -91 
Q 1459 -91 1007 375 
Q 556 841 556 1753 
L 556 4666 
z
" id="DejaVuSans-55" transform="scale(0.015625)"/>
       <path d="M 947 1747 
Q 947 1113 1208 752 
Q 1469 391 1925 391 
Q 2381 391 2643 752 
Q 2906 1113 2906 1747 
Q 2906 2381 2643 2742 
Q 2381 3103 1925 3103 
Q 1469 3103 1208 2742 
Q 947 2381 947 1747 
z
M 2906 525 
Q 2725 213 2448 61 
Q 2172 -91 1784 -91 
Q 1150 -91 751 415 
Q 353 922 353 1747 
Q 353 2572 751 3078 
Q 1150 3584 1784 3584 
Q 2172 3584 2448 3432 
Q 2725 3281 2906 2969 
L 2906 3500 
L 3481 3500 
L 3481 -1331 
L 2906 -1331 
L 2906 525 
z
" id="DejaVuSans-71" transform="scale(0.015625)"/>
       <path d="M 544 1381 
L 544 3500 
L 1119 3500 
L 1119 1403 
Q 1119 906 1312 657 
Q 1506 409 1894 409 
Q 2359 409 2629 706 
Q 2900 1003 2900 1516 
L 2900 3500 
L 3475 3500 
L 3475 0 
L 2900 0 
L 2900 538 
Q 2691 219 2414 64 
Q 2138 -91 1772 -91 
Q 1169 -91 856 284 
Q 544 659 544 1381 
z
M 1991 3584 
L 1991 3584 
z
" id="DejaVuSans-75" transform="scale(0.015625)"/>
       <path d="M 2059 -325 
Q 1816 -950 1584 -1140 
Q 1353 -1331 966 -1331 
L 506 -1331 
L 506 -850 
L 844 -850 
Q 1081 -850 1212 -737 
Q 1344 -625 1503 -206 
L 1606 56 
L 191 3500 
L 800 3500 
L 1894 763 
L 2988 3500 
L 3597 3500 
L 2059 -325 
z
" id="DejaVuSans-79" transform="scale(0.015625)"/>
       <path d="M 1159 525 
L 1159 -1331 
L 581 -1331 
L 581 3500 
L 1159 3500 
L 1159 2969 
Q 1341 3281 1617 3432 
Q 1894 3584 2278 3584 
Q 2916 3584 3314 3078 
Q 3713 2572 3713 1747 
Q 3713 922 3314 415 
Q 2916 -91 2278 -91 
Q 1894 -91 1617 61 
Q 1341 213 1159 525 
z
M 3116 1747 
Q 3116 2381 2855 2742 
Q 2594 3103 2138 3103 
Q 1681 3103 1420 2742 
Q 1159 2381 1159 1747 
Q 1159 1113 1420 752 
Q 1681 391 2138 391 
Q 2594 391 2855 752 
Q 3116 1113 3116 1747 
z
" id="DejaVuSans-70" transform="scale(0.015625)"/>
      </defs>
      <use xlink:href="#DejaVuSans-55"/>
      <use x="73.193359" xlink:href="#DejaVuSans-6e"/>
      <use x="136.572266" xlink:href="#DejaVuSans-69"/>
      <use x="164.355469" xlink:href="#DejaVuSans-71"/>
      <use x="227.832031" xlink:href="#DejaVuSans-75"/>
      <use x="291.210938" xlink:href="#DejaVuSans-65"/>
      <use x="352.734375" xlink:href="#DejaVuSans-6c"/>
      <use x="380.517578" xlink:href="#DejaVuSans-79"/>
      <use x="439.697266" xlink:href="#DejaVuSans-20"/>
      <use x="471.484375" xlink:href="#DejaVuSans-6d"/>
      <use x="568.896484" xlink:href="#DejaVuSans-61"/>
      <use x="630.175781" xlink:href="#DejaVuSans-70"/>
      <use x="693.652344" xlink:href="#DejaVuSans-70"/>
      <use x="757.128906" xlink:href="#DejaVuSans-65"/>
      <use x="818.652344" xlink:href="#DejaVuSans-64"/>
     </g>
    </g>
    <g id="patch_173">
     <path d="M 262.623125 901.044076 
L 278.623125 901.044076 
L 278.623125 895.444076 
L 262.623125 895.444076 
z
" style="fill:#7cb5ec;"/>
    </g>
    <g id="text_47">
     <!-- Mapped to multiple loci -->
     <g transform="translate(285.023125 901.044076)scale(0.08 -0.08)">
      <use xlink:href="#DejaVuSans-4d"/>
      <use x="86.279297" xlink:href="#DejaVuSans-61"/>
      <use x="147.558594" xlink:href="#DejaVuSans-70"/>
      <use x="211.035156" xlink:href="#DejaVuSans-70"/>
      <use x="274.511719" xlink:href="#DejaVuSans-65"/>
      <use x="336.035156" xlink:href="#DejaVuSans-64"/>
      <use x="399.511719" xlink:href="#DejaVuSans-20"/>
      <use x="431.298828" xlink:href="#DejaVuSans-74"/>
      <use x="470.507812" xlink:href="#DejaVuSans-6f"/>
      <use x="531.689453" xlink:href="#DejaVuSans-20"/>
      <use x="563.476562" xlink:href="#DejaVuSans-6d"/>
      <use x="660.888672" xlink:href="#DejaVuSans-75"/>
      <use x="724.267578" xlink:href="#DejaVuSans-6c"/>
      <use x="752.050781" xlink:href="#DejaVuSans-74"/>
      <use x="791.259766" xlink:href="#DejaVuSans-69"/>
      <use x="819.042969" xlink:href="#DejaVuSans-70"/>
      <use x="882.519531" xlink:href="#DejaVuSans-6c"/>
      <use x="910.302734" xlink:href="#DejaVuSans-65"/>
      <use x="971.826172" xlink:href="#DejaVuSans-20"/>
      <use x="1003.613281" xlink:href="#DejaVuSans-6c"/>
      <use x="1031.396484" xlink:href="#DejaVuSans-6f"/>
      <use x="1092.578125" xlink:href="#DejaVuSans-63"/>
      <use x="1147.558594" xlink:href="#DejaVuSans-69"/>
     </g>
    </g>
    <g id="patch_174">
     <path d="M 437.92625 901.044076 
L 453.92625 901.044076 
L 453.92625 895.444076 
L 437.92625 895.444076 
z
" style="fill:#f7a35c;"/>
    </g>
    <g id="text_48">
     <!-- Mapped to too many loci -->
     <g transform="translate(460.32625 901.044076)scale(0.08 -0.08)">
      <use xlink:href="#DejaVuSans-4d"/>
      <use x="86.279297" xlink:href="#DejaVuSans-61"/>
      <use x="147.558594" xlink:href="#DejaVuSans-70"/>
      <use x="211.035156" xlink:href="#DejaVuSans-70"/>
      <use x="274.511719" xlink:href="#DejaVuSans-65"/>
      <use x="336.035156" xlink:href="#DejaVuSans-64"/>
      <use x="399.511719" xlink:href="#DejaVuSans-20"/>
      <use x="431.298828" xlink:href="#DejaVuSans-74"/>
      <use x="470.507812" xlink:href="#DejaVuSans-6f"/>
      <use x="531.689453" xlink:href="#DejaVuSans-20"/>
      <use x="563.476562" xlink:href="#DejaVuSans-74"/>
      <use x="602.685547" xlink:href="#DejaVuSans-6f"/>
      <use x="663.867188" xlink:href="#DejaVuSans-6f"/>
      <use x="725.048828" xlink:href="#DejaVuSans-20"/>
      <use x="756.835938" xlink:href="#DejaVuSans-6d"/>
      <use x="854.248047" xlink:href="#DejaVuSans-61"/>
      <use x="915.527344" xlink:href="#DejaVuSans-6e"/>
      <use x="978.90625" xlink:href="#DejaVuSans-79"/>
      <use x="1038.085938" xlink:href="#DejaVuSans-20"/>
      <use x="1069.873047" xlink:href="#DejaVuSans-6c"/>
      <use x="1097.65625" xlink:href="#DejaVuSans-6f"/>
      <use x="1158.837891" xlink:href="#DejaVuSans-63"/>
      <use x="1213.818359" xlink:href="#DejaVuSans-69"/>
     </g>
    </g>
    <g id="patch_175">
     <path d="M 618.530625 901.044076 
L 634.530625 901.044076 
L 634.530625 895.444076 
L 618.530625 895.444076 
z
" style="fill:#b1084c;"/>
    </g>
    <g id="text_49">
     <!-- Unmapped: too short -->
     <g transform="translate(640.930625 901.044076)scale(0.08 -0.08)">
      <defs>
       <path d="M 3513 2113 
L 3513 0 
L 2938 0 
L 2938 2094 
Q 2938 2591 2744 2837 
Q 2550 3084 2163 3084 
Q 1697 3084 1428 2787 
Q 1159 2491 1159 1978 
L 1159 0 
L 581 0 
L 581 4863 
L 1159 4863 
L 1159 2956 
Q 1366 3272 1645 3428 
Q 1925 3584 2291 3584 
Q 2894 3584 3203 3211 
Q 3513 2838 3513 2113 
z
" id="DejaVuSans-68" transform="scale(0.015625)"/>
      </defs>
      <use xlink:href="#DejaVuSans-55"/>
      <use x="73.193359" xlink:href="#DejaVuSans-6e"/>
      <use x="136.572266" xlink:href="#DejaVuSans-6d"/>
      <use x="233.984375" xlink:href="#DejaVuSans-61"/>
      <use x="295.263672" xlink:href="#DejaVuSans-70"/>
      <use x="358.740234" xlink:href="#DejaVuSans-70"/>
      <use x="422.216797" xlink:href="#DejaVuSans-65"/>
      <use x="483.740234" xlink:href="#DejaVuSans-64"/>
      <use x="547.216797" xlink:href="#DejaVuSans-3a"/>
      <use x="580.908203" xlink:href="#DejaVuSans-20"/>
      <use x="612.695312" xlink:href="#DejaVuSans-74"/>
      <use x="651.904297" xlink:href="#DejaVuSans-6f"/>
      <use x="713.085938" xlink:href="#DejaVuSans-6f"/>
      <use x="774.267578" xlink:href="#DejaVuSans-20"/>
      <use x="806.054688" xlink:href="#DejaVuSans-73"/>
      <use x="858.154297" xlink:href="#DejaVuSans-68"/>
      <use x="921.533203" xlink:href="#DejaVuSans-6f"/>
      <use x="982.714844" xlink:href="#DejaVuSans-72"/>
      <use x="1023.828125" xlink:href="#DejaVuSans-74"/>
     </g>
    </g>
    <g id="patch_176">
     <path d="M 784.8475 901.044076 
L 800.8475 901.044076 
L 800.8475 895.444076 
L 784.8475 895.444076 
z
" style="fill:#7f0000;"/>
    </g>
    <g id="text_50">
     <!-- Unmapped: other -->
     <g transform="translate(807.2475 901.044076)scale(0.08 -0.08)">
      <use xlink:href="#DejaVuSans-55"/>
      <use x="73.193359" xlink:href="#DejaVuSans-6e"/>
      <use x="136.572266" xlink:href="#DejaVuSans-6d"/>
      <use x="233.984375" xlink:href="#DejaVuSans-61"/>
      <use x="295.263672" xlink:href="#DejaVuSans-70"/>
      <use x="358.740234" xlink:href="#DejaVuSans-70"/>
      <use x="422.216797" xlink:href="#DejaVuSans-65"/>
      <use x="483.740234" xlink:href="#DejaVuSans-64"/>
      <use x="547.216797" xlink:href="#DejaVuSans-3a"/>
      <use x="580.908203" xlink:href="#DejaVuSans-20"/>
      <use x="612.695312" xlink:href="#DejaVuSans-6f"/>
      <use x="673.876953" xlink:href="#DejaVuSans-74"/>
      <use x="713.085938" xlink:href="#DejaVuSans-68"/>
      <use x="776.464844" xlink:href="#DejaVuSans-65"/>
      <use x="837.988281" xlink:href="#DejaVuSans-72"/>
     </g>
    </g>
   </g>
  </g>
 </g>
 <defs>
  <clipPath id="p89524affa4">
   <rect height="819.547826" width="781.2" x="103.57625" y="7.2"/>
  </clipPath>
 </defs>
</svg>
