<?xml version="1.0" encoding="utf-8" standalone="no"?>
<!DOCTYPE svg PUBLIC "-//W3C//DTD SVG 1.1//EN"
  "http://www.w3.org/Graphics/SVG/1.1/DTD/svg11.dtd">
<svg height="388.844525pt" version="1.1" viewBox="0 0 1000.340625 388.844525" width="1000.340625pt" xmlns="http://www.w3.org/2000/svg" xmlns:xlink="http://www.w3.org/1999/xlink">
 <metadata>
  <rdf:RDF xmlns:cc="http://creativecommons.org/ns#" xmlns:dc="http://purl.org/dc/elements/1.1/" xmlns:rdf="http://www.w3.org/1999/02/22-rdf-syntax-ns#">
   <cc:Work>
    <dc:type rdf:resource="http://purl.org/dc/dcmitype/StillImage"/>
    <dc:date>2022-11-03T13:38:24.412958</dc:date>
    <dc:format>image/svg+xml</dc:format>
    <dc:creator>
     <cc:Agent>
      <dc:title>Matplotlib v3.4.2, https://matplotlib.org/</dc:title>
     </cc:Agent>
    </dc:creator>
   </cc:Work>
  </rdf:RDF>
 </metadata>
 <defs>
  <style type="text/css">*{stroke-linecap:butt;stroke-linejoin:round;}</style>
 </defs>
 <g id="figure_1">
  <g id="axes_1">
   <g id="patch_1">
    <path d="M 40.600625 353.2239 
L 993.140625 353.2239 
L 993.140625 35.2559 
L 40.600625 35.2559 
z
" style="fill:#ffffff;"/>
   </g>
   <g id="matplotlib.axis_1">
    <g id="xtick_1">
     <g id="text_1">
      <!-- 1 -->
      <g transform="translate(81.352898 366.30265)scale(0.08 -0.08)">
       <defs>
        <path d="M 794 531 
L 1825 531 
L 1825 4091 
L 703 3866 
L 703 4441 
L 1819 4666 
L 2450 4666 
L 2450 531 
L 3481 531 
L 3481 0 
L 794 0 
L 794 531 
z
" id="DejaVuSans-31" transform="scale(0.015625)"/>
       </defs>
       <use xlink:href="#DejaVuSans-31"/>
      </g>
     </g>
    </g>
    <g id="xtick_2">
     <g id="text_2">
      <!-- 2 -->
      <g transform="translate(119.0027 366.30265)scale(0.08 -0.08)">
       <defs>
        <path d="M 1228 531 
L 3431 531 
L 3431 0 
L 469 0 
L 469 531 
Q 828 903 1448 1529 
Q 2069 2156 2228 2338 
Q 2531 2678 2651 2914 
Q 2772 3150 2772 3378 
Q 2772 3750 2511 3984 
Q 2250 4219 1831 4219 
Q 1534 4219 1204 4116 
Q 875 4013 500 3803 
L 500 4441 
Q 881 4594 1212 4672 
Q 1544 4750 1819 4750 
Q 2544 4750 2975 4387 
Q 3406 4025 3406 3419 
Q 3406 3131 3298 2873 
Q 3191 2616 2906 2266 
Q 2828 2175 2409 1742 
Q 1991 1309 1228 531 
z
" id="DejaVuSans-32" transform="scale(0.015625)"/>
       </defs>
       <use xlink:href="#DejaVuSans-32"/>
      </g>
     </g>
    </g>
    <g id="xtick_3">
     <g id="text_3">
      <!-- 3 -->
      <g transform="translate(156.652502 366.30265)scale(0.08 -0.08)">
       <defs>
        <path d="M 2597 2516 
Q 3050 2419 3304 2112 
Q 3559 1806 3559 1356 
Q 3559 666 3084 287 
Q 2609 -91 1734 -91 
Q 1441 -91 1130 -33 
Q 819 25 488 141 
L 488 750 
Q 750 597 1062 519 
Q 1375 441 1716 441 
Q 2309 441 2620 675 
Q 2931 909 2931 1356 
Q 2931 1769 2642 2001 
Q 2353 2234 1838 2234 
L 1294 2234 
L 1294 2753 
L 1863 2753 
Q 2328 2753 2575 2939 
Q 2822 3125 2822 3475 
Q 2822 3834 2567 4026 
Q 2313 4219 1838 4219 
Q 1578 4219 1281 4162 
Q 984 4106 628 3988 
L 628 4550 
Q 988 4650 1302 4700 
Q 1616 4750 1894 4750 
Q 2613 4750 3031 4423 
Q 3450 4097 3450 3541 
Q 3450 3153 3228 2886 
Q 3006 2619 2597 2516 
z
" id="DejaVuSans-33" transform="scale(0.015625)"/>
       </defs>
       <use xlink:href="#DejaVuSans-33"/>
      </g>
     </g>
    </g>
    <g id="xtick_4">
     <g id="text_4">
      <!-- 4 -->
      <g transform="translate(194.302305 366.30265)scale(0.08 -0.08)">
       <defs>
        <path d="M 2419 4116 
L 825 1625 
L 2419 1625 
L 2419 4116 
z
M 2253 4666 
L 3047 4666 
L 3047 1625 
L 3713 1625 
L 3713 1100 
L 3047 1100 
L 3047 0 
L 2419 0 
L 2419 1100 
L 313 1100 
L 313 1709 
L 2253 4666 
z
" id="DejaVuSans-34" transform="scale(0.015625)"/>
       </defs>
       <use xlink:href="#DejaVuSans-34"/>
      </g>
     </g>
    </g>
    <g id="xtick_5">
     <g id="text_5">
      <!-- 5 -->
      <g transform="translate(231.952107 366.30265)scale(0.08 -0.08)">
       <defs>
        <path d="M 691 4666 
L 3169 4666 
L 3169 4134 
L 1269 4134 
L 1269 2991 
Q 1406 3038 1543 3061 
Q 1681 3084 1819 3084 
Q 2600 3084 3056 2656 
Q 3513 2228 3513 1497 
Q 3513 744 3044 326 
Q 2575 -91 1722 -91 
Q 1428 -91 1123 -41 
Q 819 9 494 109 
L 494 744 
Q 775 591 1075 516 
Q 1375 441 1709 441 
Q 2250 441 2565 725 
Q 2881 1009 2881 1497 
Q 2881 1984 2565 2268 
Q 2250 2553 1709 2553 
Q 1456 2553 1204 2497 
Q 953 2441 691 2322 
L 691 4666 
z
" id="DejaVuSans-35" transform="scale(0.015625)"/>
       </defs>
       <use xlink:href="#DejaVuSans-35"/>
      </g>
     </g>
    </g>
    <g id="xtick_6">
     <g id="text_6">
      <!-- 6 -->
      <g transform="translate(269.60191 366.30265)scale(0.08 -0.08)">
       <defs>
        <path d="M 2113 2584 
Q 1688 2584 1439 2293 
Q 1191 2003 1191 1497 
Q 1191 994 1439 701 
Q 1688 409 2113 409 
Q 2538 409 2786 701 
Q 3034 994 3034 1497 
Q 3034 2003 2786 2293 
Q 2538 2584 2113 2584 
z
M 3366 4563 
L 3366 3988 
Q 3128 4100 2886 4159 
Q 2644 4219 2406 4219 
Q 1781 4219 1451 3797 
Q 1122 3375 1075 2522 
Q 1259 2794 1537 2939 
Q 1816 3084 2150 3084 
Q 2853 3084 3261 2657 
Q 3669 2231 3669 1497 
Q 3669 778 3244 343 
Q 2819 -91 2113 -91 
Q 1303 -91 875 529 
Q 447 1150 447 2328 
Q 447 3434 972 4092 
Q 1497 4750 2381 4750 
Q 2619 4750 2861 4703 
Q 3103 4656 3366 4563 
z
" id="DejaVuSans-36" transform="scale(0.015625)"/>
       </defs>
       <use xlink:href="#DejaVuSans-36"/>
      </g>
     </g>
    </g>
    <g id="xtick_7">
     <g id="text_7">
      <!-- 7 -->
      <g transform="translate(307.251712 366.30265)scale(0.08 -0.08)">
       <defs>
        <path d="M 525 4666 
L 3525 4666 
L 3525 4397 
L 1831 0 
L 1172 0 
L 2766 4134 
L 525 4134 
L 525 4666 
z
" id="DejaVuSans-37" transform="scale(0.015625)"/>
       </defs>
       <use xlink:href="#DejaVuSans-37"/>
      </g>
     </g>
    </g>
    <g id="xtick_8">
     <g id="text_8">
      <!-- 8 -->
      <g transform="translate(344.901514 366.30265)scale(0.08 -0.08)">
       <defs>
        <path d="M 2034 2216 
Q 1584 2216 1326 1975 
Q 1069 1734 1069 1313 
Q 1069 891 1326 650 
Q 1584 409 2034 409 
Q 2484 409 2743 651 
Q 3003 894 3003 1313 
Q 3003 1734 2745 1975 
Q 2488 2216 2034 2216 
z
M 1403 2484 
Q 997 2584 770 2862 
Q 544 3141 544 3541 
Q 544 4100 942 4425 
Q 1341 4750 2034 4750 
Q 2731 4750 3128 4425 
Q 3525 4100 3525 3541 
Q 3525 3141 3298 2862 
Q 3072 2584 2669 2484 
Q 3125 2378 3379 2068 
Q 3634 1759 3634 1313 
Q 3634 634 3220 271 
Q 2806 -91 2034 -91 
Q 1263 -91 848 271 
Q 434 634 434 1313 
Q 434 1759 690 2068 
Q 947 2378 1403 2484 
z
M 1172 3481 
Q 1172 3119 1398 2916 
Q 1625 2713 2034 2713 
Q 2441 2713 2670 2916 
Q 2900 3119 2900 3481 
Q 2900 3844 2670 4047 
Q 2441 4250 2034 4250 
Q 1625 4250 1398 4047 
Q 1172 3844 1172 3481 
z
" id="DejaVuSans-38" transform="scale(0.015625)"/>
       </defs>
       <use xlink:href="#DejaVuSans-38"/>
      </g>
     </g>
    </g>
    <g id="xtick_9">
     <g id="text_9">
      <!-- 9 -->
      <g transform="translate(382.551317 366.30265)scale(0.08 -0.08)">
       <defs>
        <path d="M 703 97 
L 703 672 
Q 941 559 1184 500 
Q 1428 441 1663 441 
Q 2288 441 2617 861 
Q 2947 1281 2994 2138 
Q 2813 1869 2534 1725 
Q 2256 1581 1919 1581 
Q 1219 1581 811 2004 
Q 403 2428 403 3163 
Q 403 3881 828 4315 
Q 1253 4750 1959 4750 
Q 2769 4750 3195 4129 
Q 3622 3509 3622 2328 
Q 3622 1225 3098 567 
Q 2575 -91 1691 -91 
Q 1453 -91 1209 -44 
Q 966 3 703 97 
z
M 1959 2075 
Q 2384 2075 2632 2365 
Q 2881 2656 2881 3163 
Q 2881 3666 2632 3958 
Q 2384 4250 1959 4250 
Q 1534 4250 1286 3958 
Q 1038 3666 1038 3163 
Q 1038 2656 1286 2365 
Q 1534 2075 1959 2075 
z
" id="DejaVuSans-39" transform="scale(0.015625)"/>
       </defs>
       <use xlink:href="#DejaVuSans-39"/>
      </g>
     </g>
    </g>
    <g id="xtick_10">
     <g id="text_10">
      <!-- 10 -->
      <g transform="translate(417.656119 366.30265)scale(0.08 -0.08)">
       <defs>
        <path d="M 2034 4250 
Q 1547 4250 1301 3770 
Q 1056 3291 1056 2328 
Q 1056 1369 1301 889 
Q 1547 409 2034 409 
Q 2525 409 2770 889 
Q 3016 1369 3016 2328 
Q 3016 3291 2770 3770 
Q 2525 4250 2034 4250 
z
M 2034 4750 
Q 2819 4750 3233 4129 
Q 3647 3509 3647 2328 
Q 3647 1150 3233 529 
Q 2819 -91 2034 -91 
Q 1250 -91 836 529 
Q 422 1150 422 2328 
Q 422 3509 836 4129 
Q 1250 4750 2034 4750 
z
" id="DejaVuSans-30" transform="scale(0.015625)"/>
       </defs>
       <use xlink:href="#DejaVuSans-31"/>
       <use x="63.623047" xlink:href="#DejaVuSans-30"/>
      </g>
     </g>
    </g>
    <g id="xtick_11">
     <g id="text_11">
      <!-- 11 -->
      <g transform="translate(455.305921 366.30265)scale(0.08 -0.08)">
       <use xlink:href="#DejaVuSans-31"/>
       <use x="63.623047" xlink:href="#DejaVuSans-31"/>
      </g>
     </g>
    </g>
    <g id="xtick_12">
     <g id="text_12">
      <!-- 12 -->
      <g transform="translate(492.955724 366.30265)scale(0.08 -0.08)">
       <use xlink:href="#DejaVuSans-31"/>
       <use x="63.623047" xlink:href="#DejaVuSans-32"/>
      </g>
     </g>
    </g>
    <g id="xtick_13">
     <g id="text_13">
      <!-- 13 -->
      <g transform="translate(530.605526 366.30265)scale(0.08 -0.08)">
       <use xlink:href="#DejaVuSans-31"/>
       <use x="63.623047" xlink:href="#DejaVuSans-33"/>
      </g>
     </g>
    </g>
    <g id="xtick_14">
     <g id="text_14">
      <!-- 14 -->
      <g transform="translate(568.255329 366.30265)scale(0.08 -0.08)">
       <use xlink:href="#DejaVuSans-31"/>
       <use x="63.623047" xlink:href="#DejaVuSans-34"/>
      </g>
     </g>
    </g>
    <g id="xtick_15">
     <g id="text_15">
      <!-- 15 -->
      <g transform="translate(605.905131 366.30265)scale(0.08 -0.08)">
       <use xlink:href="#DejaVuSans-31"/>
       <use x="63.623047" xlink:href="#DejaVuSans-35"/>
      </g>
     </g>
    </g>
    <g id="xtick_16">
     <g id="text_16">
      <!-- 16 -->
      <g transform="translate(643.554933 366.30265)scale(0.08 -0.08)">
       <use xlink:href="#DejaVuSans-31"/>
       <use x="63.623047" xlink:href="#DejaVuSans-36"/>
      </g>
     </g>
    </g>
    <g id="xtick_17">
     <g id="text_17">
      <!-- 17 -->
      <g transform="translate(681.204736 366.30265)scale(0.08 -0.08)">
       <use xlink:href="#DejaVuSans-31"/>
       <use x="63.623047" xlink:href="#DejaVuSans-37"/>
      </g>
     </g>
    </g>
    <g id="xtick_18">
     <g id="text_18">
      <!-- 18 -->
      <g transform="translate(718.854538 366.30265)scale(0.08 -0.08)">
       <use xlink:href="#DejaVuSans-31"/>
       <use x="63.623047" xlink:href="#DejaVuSans-38"/>
      </g>
     </g>
    </g>
    <g id="xtick_19">
     <g id="text_19">
      <!-- 19 -->
      <g transform="translate(756.50434 366.30265)scale(0.08 -0.08)">
       <use xlink:href="#DejaVuSans-31"/>
       <use x="63.623047" xlink:href="#DejaVuSans-39"/>
      </g>
     </g>
    </g>
    <g id="xtick_20">
     <g id="text_20">
      <!-- 20 -->
      <g transform="translate(794.154143 366.30265)scale(0.08 -0.08)">
       <use xlink:href="#DejaVuSans-32"/>
       <use x="63.623047" xlink:href="#DejaVuSans-30"/>
      </g>
     </g>
    </g>
    <g id="xtick_21">
     <g id="text_21">
      <!-- 21 -->
      <g transform="translate(831.803945 366.30265)scale(0.08 -0.08)">
       <use xlink:href="#DejaVuSans-32"/>
       <use x="63.623047" xlink:href="#DejaVuSans-31"/>
      </g>
     </g>
    </g>
    <g id="xtick_22">
     <g id="text_22">
      <!-- 22 -->
      <g transform="translate(869.453748 366.30265)scale(0.08 -0.08)">
       <use xlink:href="#DejaVuSans-32"/>
       <use x="63.623047" xlink:href="#DejaVuSans-32"/>
      </g>
     </g>
    </g>
    <g id="xtick_23">
     <g id="text_23">
      <!-- X -->
      <g transform="translate(909.45355 366.30265)scale(0.08 -0.08)">
       <defs>
        <path d="M 403 4666 
L 1081 4666 
L 2241 2931 
L 3406 4666 
L 4084 4666 
L 2584 2425 
L 4184 0 
L 3506 0 
L 2194 1984 
L 872 0 
L 191 0 
L 1856 2491 
L 403 4666 
z
" id="DejaVuSans-58" transform="scale(0.015625)"/>
       </defs>
       <use xlink:href="#DejaVuSans-58"/>
      </g>
     </g>
    </g>
    <g id="xtick_24">
     <g id="text_24">
      <!-- MT -->
      <g transform="translate(943.948977 366.30265)scale(0.08 -0.08)">
       <defs>
        <path d="M 628 4666 
L 1569 4666 
L 2759 1491 
L 3956 4666 
L 4897 4666 
L 4897 0 
L 4281 0 
L 4281 4097 
L 3078 897 
L 2444 897 
L 1241 4097 
L 1241 0 
L 628 0 
L 628 4666 
z
" id="DejaVuSans-4d" transform="scale(0.015625)"/>
        <path d="M -19 4666 
L 3928 4666 
L 3928 4134 
L 2272 4134 
L 2272 0 
L 1638 0 
L 1638 4134 
L -19 4134 
L -19 4666 
z
" id="DejaVuSans-54" transform="scale(0.015625)"/>
       </defs>
       <use xlink:href="#DejaVuSans-4d"/>
       <use x="86.279297" xlink:href="#DejaVuSans-54"/>
      </g>
     </g>
    </g>
    <g id="text_25">
     <!-- Chromosome Name -->
     <g transform="translate(467.326875 379.564837)scale(0.1 -0.1)">
      <defs>
       <path d="M 4122 4306 
L 4122 3641 
Q 3803 3938 3442 4084 
Q 3081 4231 2675 4231 
Q 1875 4231 1450 3742 
Q 1025 3253 1025 2328 
Q 1025 1406 1450 917 
Q 1875 428 2675 428 
Q 3081 428 3442 575 
Q 3803 722 4122 1019 
L 4122 359 
Q 3791 134 3420 21 
Q 3050 -91 2638 -91 
Q 1578 -91 968 557 
Q 359 1206 359 2328 
Q 359 3453 968 4101 
Q 1578 4750 2638 4750 
Q 3056 4750 3426 4639 
Q 3797 4528 4122 4306 
z
" id="DejaVuSans-43" transform="scale(0.015625)"/>
       <path d="M 3513 2113 
L 3513 0 
L 2938 0 
L 2938 2094 
Q 2938 2591 2744 2837 
Q 2550 3084 2163 3084 
Q 1697 3084 1428 2787 
Q 1159 2491 1159 1978 
L 1159 0 
L 581 0 
L 581 4863 
L 1159 4863 
L 1159 2956 
Q 1366 3272 1645 3428 
Q 1925 3584 2291 3584 
Q 2894 3584 3203 3211 
Q 3513 2838 3513 2113 
z
" id="DejaVuSans-68" transform="scale(0.015625)"/>
       <path d="M 2631 2963 
Q 2534 3019 2420 3045 
Q 2306 3072 2169 3072 
Q 1681 3072 1420 2755 
Q 1159 2438 1159 1844 
L 1159 0 
L 581 0 
L 581 3500 
L 1159 3500 
L 1159 2956 
Q 1341 3275 1631 3429 
Q 1922 3584 2338 3584 
Q 2397 3584 2469 3576 
Q 2541 3569 2628 3553 
L 2631 2963 
z
" id="DejaVuSans-72" transform="scale(0.015625)"/>
       <path d="M 1959 3097 
Q 1497 3097 1228 2736 
Q 959 2375 959 1747 
Q 959 1119 1226 758 
Q 1494 397 1959 397 
Q 2419 397 2687 759 
Q 2956 1122 2956 1747 
Q 2956 2369 2687 2733 
Q 2419 3097 1959 3097 
z
M 1959 3584 
Q 2709 3584 3137 3096 
Q 3566 2609 3566 1747 
Q 3566 888 3137 398 
Q 2709 -91 1959 -91 
Q 1206 -91 779 398 
Q 353 888 353 1747 
Q 353 2609 779 3096 
Q 1206 3584 1959 3584 
z
" id="DejaVuSans-6f" transform="scale(0.015625)"/>
       <path d="M 3328 2828 
Q 3544 3216 3844 3400 
Q 4144 3584 4550 3584 
Q 5097 3584 5394 3201 
Q 5691 2819 5691 2113 
L 5691 0 
L 5113 0 
L 5113 2094 
Q 5113 2597 4934 2840 
Q 4756 3084 4391 3084 
Q 3944 3084 3684 2787 
Q 3425 2491 3425 1978 
L 3425 0 
L 2847 0 
L 2847 2094 
Q 2847 2600 2669 2842 
Q 2491 3084 2119 3084 
Q 1678 3084 1418 2786 
Q 1159 2488 1159 1978 
L 1159 0 
L 581 0 
L 581 3500 
L 1159 3500 
L 1159 2956 
Q 1356 3278 1631 3431 
Q 1906 3584 2284 3584 
Q 2666 3584 2933 3390 
Q 3200 3197 3328 2828 
z
" id="DejaVuSans-6d" transform="scale(0.015625)"/>
       <path d="M 2834 3397 
L 2834 2853 
Q 2591 2978 2328 3040 
Q 2066 3103 1784 3103 
Q 1356 3103 1142 2972 
Q 928 2841 928 2578 
Q 928 2378 1081 2264 
Q 1234 2150 1697 2047 
L 1894 2003 
Q 2506 1872 2764 1633 
Q 3022 1394 3022 966 
Q 3022 478 2636 193 
Q 2250 -91 1575 -91 
Q 1294 -91 989 -36 
Q 684 19 347 128 
L 347 722 
Q 666 556 975 473 
Q 1284 391 1588 391 
Q 1994 391 2212 530 
Q 2431 669 2431 922 
Q 2431 1156 2273 1281 
Q 2116 1406 1581 1522 
L 1381 1569 
Q 847 1681 609 1914 
Q 372 2147 372 2553 
Q 372 3047 722 3315 
Q 1072 3584 1716 3584 
Q 2034 3584 2315 3537 
Q 2597 3491 2834 3397 
z
" id="DejaVuSans-73" transform="scale(0.015625)"/>
       <path d="M 3597 1894 
L 3597 1613 
L 953 1613 
Q 991 1019 1311 708 
Q 1631 397 2203 397 
Q 2534 397 2845 478 
Q 3156 559 3463 722 
L 3463 178 
Q 3153 47 2828 -22 
Q 2503 -91 2169 -91 
Q 1331 -91 842 396 
Q 353 884 353 1716 
Q 353 2575 817 3079 
Q 1281 3584 2069 3584 
Q 2775 3584 3186 3129 
Q 3597 2675 3597 1894 
z
M 3022 2063 
Q 3016 2534 2758 2815 
Q 2500 3097 2075 3097 
Q 1594 3097 1305 2825 
Q 1016 2553 972 2059 
L 3022 2063 
z
" id="DejaVuSans-65" transform="scale(0.015625)"/>
       <path id="DejaVuSans-20" transform="scale(0.015625)"/>
       <path d="M 628 4666 
L 1478 4666 
L 3547 763 
L 3547 4666 
L 4159 4666 
L 4159 0 
L 3309 0 
L 1241 3903 
L 1241 0 
L 628 0 
L 628 4666 
z
" id="DejaVuSans-4e" transform="scale(0.015625)"/>
       <path d="M 2194 1759 
Q 1497 1759 1228 1600 
Q 959 1441 959 1056 
Q 959 750 1161 570 
Q 1363 391 1709 391 
Q 2188 391 2477 730 
Q 2766 1069 2766 1631 
L 2766 1759 
L 2194 1759 
z
M 3341 1997 
L 3341 0 
L 2766 0 
L 2766 531 
Q 2569 213 2275 61 
Q 1981 -91 1556 -91 
Q 1019 -91 701 211 
Q 384 513 384 1019 
Q 384 1609 779 1909 
Q 1175 2209 1959 2209 
L 2766 2209 
L 2766 2266 
Q 2766 2663 2505 2880 
Q 2244 3097 1772 3097 
Q 1472 3097 1187 3025 
Q 903 2953 641 2809 
L 641 3341 
Q 956 3463 1253 3523 
Q 1550 3584 1831 3584 
Q 2591 3584 2966 3190 
Q 3341 2797 3341 1997 
z
" id="DejaVuSans-61" transform="scale(0.015625)"/>
      </defs>
      <use xlink:href="#DejaVuSans-43"/>
      <use x="69.824219" xlink:href="#DejaVuSans-68"/>
      <use x="133.203125" xlink:href="#DejaVuSans-72"/>
      <use x="172.066406" xlink:href="#DejaVuSans-6f"/>
      <use x="233.248047" xlink:href="#DejaVuSans-6d"/>
      <use x="330.660156" xlink:href="#DejaVuSans-6f"/>
      <use x="391.841797" xlink:href="#DejaVuSans-73"/>
      <use x="443.941406" xlink:href="#DejaVuSans-6f"/>
      <use x="505.123047" xlink:href="#DejaVuSans-6d"/>
      <use x="602.535156" xlink:href="#DejaVuSans-65"/>
      <use x="664.058594" xlink:href="#DejaVuSans-20"/>
      <use x="695.845703" xlink:href="#DejaVuSans-4e"/>
      <use x="770.650391" xlink:href="#DejaVuSans-61"/>
      <use x="831.929688" xlink:href="#DejaVuSans-6d"/>
      <use x="929.341797" xlink:href="#DejaVuSans-65"/>
     </g>
    </g>
   </g>
   <g id="matplotlib.axis_2">
    <g id="ytick_1">
     <g id="line2d_1">
      <path clip-path="url(#p01424d51a1)" d="M 40.600625 340.172272 
L 993.140625 340.172272 
" style="fill:none;stroke:#dedede;stroke-linecap:square;"/>
     </g>
     <g id="text_26">
      <!-- 0.0 -->
      <g transform="translate(20.878125 343.211647)scale(0.08 -0.08)">
       <defs>
        <path d="M 684 794 
L 1344 794 
L 1344 0 
L 684 0 
L 684 794 
z
" id="DejaVuSans-2e" transform="scale(0.015625)"/>
       </defs>
       <use xlink:href="#DejaVuSans-30"/>
       <use x="63.623047" xlink:href="#DejaVuSans-2e"/>
       <use x="95.410156" xlink:href="#DejaVuSans-30"/>
      </g>
     </g>
    </g>
    <g id="ytick_2">
     <g id="line2d_2">
      <path clip-path="url(#p01424d51a1)" d="M 40.600625 301.797468 
L 993.140625 301.797468 
" style="fill:none;stroke:#dedede;stroke-linecap:square;"/>
     </g>
     <g id="text_27">
      <!-- 0.5 -->
      <g transform="translate(20.878125 304.836843)scale(0.08 -0.08)">
       <use xlink:href="#DejaVuSans-30"/>
       <use x="63.623047" xlink:href="#DejaVuSans-2e"/>
       <use x="95.410156" xlink:href="#DejaVuSans-35"/>
      </g>
     </g>
    </g>
    <g id="ytick_3">
     <g id="line2d_3">
      <path clip-path="url(#p01424d51a1)" d="M 40.600625 263.422664 
L 993.140625 263.422664 
" style="fill:none;stroke:#dedede;stroke-linecap:square;"/>
     </g>
     <g id="text_28">
      <!-- 1.0 -->
      <g transform="translate(20.878125 266.462039)scale(0.08 -0.08)">
       <use xlink:href="#DejaVuSans-31"/>
       <use x="63.623047" xlink:href="#DejaVuSans-2e"/>
       <use x="95.410156" xlink:href="#DejaVuSans-30"/>
      </g>
     </g>
    </g>
    <g id="ytick_4">
     <g id="line2d_4">
      <path clip-path="url(#p01424d51a1)" d="M 40.600625 225.04786 
L 993.140625 225.04786 
" style="fill:none;stroke:#dedede;stroke-linecap:square;"/>
     </g>
     <g id="text_29">
      <!-- 1.5 -->
      <g transform="translate(20.878125 228.087235)scale(0.08 -0.08)">
       <use xlink:href="#DejaVuSans-31"/>
       <use x="63.623047" xlink:href="#DejaVuSans-2e"/>
       <use x="95.410156" xlink:href="#DejaVuSans-35"/>
      </g>
     </g>
    </g>
    <g id="ytick_5">
     <g id="line2d_5">
      <path clip-path="url(#p01424d51a1)" d="M 40.600625 186.673056 
L 993.140625 186.673056 
" style="fill:none;stroke:#dedede;stroke-linecap:square;"/>
     </g>
     <g id="text_30">
      <!-- 2.0 -->
      <g transform="translate(20.878125 189.712431)scale(0.08 -0.08)">
       <use xlink:href="#DejaVuSans-32"/>
       <use x="63.623047" xlink:href="#DejaVuSans-2e"/>
       <use x="95.410156" xlink:href="#DejaVuSans-30"/>
      </g>
     </g>
    </g>
    <g id="ytick_6">
     <g id="line2d_6">
      <path clip-path="url(#p01424d51a1)" d="M 40.600625 148.298252 
L 993.140625 148.298252 
" style="fill:none;stroke:#dedede;stroke-linecap:square;"/>
     </g>
     <g id="text_31">
      <!-- 2.5 -->
      <g transform="translate(20.878125 151.337627)scale(0.08 -0.08)">
       <use xlink:href="#DejaVuSans-32"/>
       <use x="63.623047" xlink:href="#DejaVuSans-2e"/>
       <use x="95.410156" xlink:href="#DejaVuSans-35"/>
      </g>
     </g>
    </g>
    <g id="ytick_7">
     <g id="line2d_7">
      <path clip-path="url(#p01424d51a1)" d="M 40.600625 109.923448 
L 993.140625 109.923448 
" style="fill:none;stroke:#dedede;stroke-linecap:square;"/>
     </g>
     <g id="text_32">
      <!-- 3.0 -->
      <g transform="translate(20.878125 112.962823)scale(0.08 -0.08)">
       <use xlink:href="#DejaVuSans-33"/>
       <use x="63.623047" xlink:href="#DejaVuSans-2e"/>
       <use x="95.410156" xlink:href="#DejaVuSans-30"/>
      </g>
     </g>
    </g>
    <g id="ytick_8">
     <g id="line2d_8">
      <path clip-path="url(#p01424d51a1)" d="M 40.600625 71.548644 
L 993.140625 71.548644 
" style="fill:none;stroke:#dedede;stroke-linecap:square;"/>
     </g>
     <g id="text_33">
      <!-- 3.5 -->
      <g transform="translate(20.878125 74.588019)scale(0.08 -0.08)">
       <use xlink:href="#DejaVuSans-33"/>
       <use x="63.623047" xlink:href="#DejaVuSans-2e"/>
       <use x="95.410156" xlink:href="#DejaVuSans-35"/>
      </g>
     </g>
    </g>
    <g id="text_34">
     <!-- # mapped reads -->
     <g transform="translate(14.798438 236.003963)rotate(-90)scale(0.1 -0.1)">
      <defs>
       <path d="M 3272 2816 
L 2363 2816 
L 2100 1772 
L 3016 1772 
L 3272 2816 
z
M 2803 4594 
L 2478 3297 
L 3391 3297 
L 3719 4594 
L 4219 4594 
L 3897 3297 
L 4872 3297 
L 4872 2816 
L 3775 2816 
L 3519 1772 
L 4513 1772 
L 4513 1294 
L 3397 1294 
L 3072 0 
L 2572 0 
L 2894 1294 
L 1978 1294 
L 1656 0 
L 1153 0 
L 1478 1294 
L 494 1294 
L 494 1772 
L 1594 1772 
L 1856 2816 
L 850 2816 
L 850 3297 
L 1978 3297 
L 2297 4594 
L 2803 4594 
z
" id="DejaVuSans-23" transform="scale(0.015625)"/>
       <path d="M 1159 525 
L 1159 -1331 
L 581 -1331 
L 581 3500 
L 1159 3500 
L 1159 2969 
Q 1341 3281 1617 3432 
Q 1894 3584 2278 3584 
Q 2916 3584 3314 3078 
Q 3713 2572 3713 1747 
Q 3713 922 3314 415 
Q 2916 -91 2278 -91 
Q 1894 -91 1617 61 
Q 1341 213 1159 525 
z
M 3116 1747 
Q 3116 2381 2855 2742 
Q 2594 3103 2138 3103 
Q 1681 3103 1420 2742 
Q 1159 2381 1159 1747 
Q 1159 1113 1420 752 
Q 1681 391 2138 391 
Q 2594 391 2855 752 
Q 3116 1113 3116 1747 
z
" id="DejaVuSans-70" transform="scale(0.015625)"/>
       <path d="M 2906 2969 
L 2906 4863 
L 3481 4863 
L 3481 0 
L 2906 0 
L 2906 525 
Q 2725 213 2448 61 
Q 2172 -91 1784 -91 
Q 1150 -91 751 415 
Q 353 922 353 1747 
Q 353 2572 751 3078 
Q 1150 3584 1784 3584 
Q 2172 3584 2448 3432 
Q 2725 3281 2906 2969 
z
M 947 1747 
Q 947 1113 1208 752 
Q 1469 391 1925 391 
Q 2381 391 2643 752 
Q 2906 1113 2906 1747 
Q 2906 2381 2643 2742 
Q 2381 3103 1925 3103 
Q 1469 3103 1208 2742 
Q 947 2381 947 1747 
z
" id="DejaVuSans-64" transform="scale(0.015625)"/>
      </defs>
      <use xlink:href="#DejaVuSans-23"/>
      <use x="83.789062" xlink:href="#DejaVuSans-20"/>
      <use x="115.576172" xlink:href="#DejaVuSans-6d"/>
      <use x="212.988281" xlink:href="#DejaVuSans-61"/>
      <use x="274.267578" xlink:href="#DejaVuSans-70"/>
      <use x="337.744141" xlink:href="#DejaVuSans-70"/>
      <use x="401.220703" xlink:href="#DejaVuSans-65"/>
      <use x="462.744141" xlink:href="#DejaVuSans-64"/>
      <use x="526.220703" xlink:href="#DejaVuSans-20"/>
      <use x="558.007812" xlink:href="#DejaVuSans-72"/>
      <use x="596.871094" xlink:href="#DejaVuSans-65"/>
      <use x="658.394531" xlink:href="#DejaVuSans-61"/>
      <use x="719.673828" xlink:href="#DejaVuSans-64"/>
      <use x="783.150391" xlink:href="#DejaVuSans-73"/>
     </g>
    </g>
    <g id="text_35">
     <!-- 1e7 -->
     <g transform="translate(40.600625 32.2559)scale(0.1 -0.1)">
      <use xlink:href="#DejaVuSans-31"/>
      <use x="63.623047" xlink:href="#DejaVuSans-65"/>
      <use x="125.146484" xlink:href="#DejaVuSans-37"/>
     </g>
    </g>
   </g>
   <g id="line2d_9">
    <path clip-path="url(#p01424d51a1)" d="M 83.897898 309.514281 
L 121.5477 313.569784 
L 159.197502 320.145345 
L 196.847305 327.309184 
L 234.497107 320.333128 
L 272.14691 320.252134 
L 309.796712 320.459542 
L 347.446514 324.077572 
L 385.096317 321.467027 
L 422.746119 328.493668 
L 460.395921 318.879644 
L 498.045724 316.012478 
L 535.695526 334.526302 
L 573.345329 306.014591 
L 610.995131 330.455427 
L 648.644933 328.509164 
L 686.294736 322.762253 
L 723.944538 336.859161 
L 761.59434 333.137411 
L 799.244143 332.735964 
L 836.893945 336.299863 
L 874.543748 335.0752 
L 912.19355 333.4281 
L 949.843352 338.200099 
" style="fill:none;stroke:#7cb5ec;stroke-linecap:square;"/>
   </g>
   <g id="line2d_10">
    <path clip-path="url(#p01424d51a1)" d="M 83.897898 313.346473 
L 121.5477 317.70526 
L 159.197502 322.364076 
L 196.847305 329.379228 
L 234.497107 322.926459 
L 272.14691 322.47587 
L 309.796712 323.006915 
L 347.446514 325.871763 
L 385.096317 323.534577 
L 422.746119 330.240343 
L 460.395921 322.275737 
L 498.045724 320.198279 
L 535.695526 335.265371 
L 573.345329 302.341823 
L 610.995131 331.780816 
L 648.644933 329.816824 
L 686.294736 317.768632 
L 723.944538 337.378932 
L 761.59434 333.602207 
L 799.244143 333.375619 
L 836.893945 336.683335 
L 874.543748 335.509557 
L 912.19355 334.279852 
L 949.843352 337.866445 
" style="fill:none;stroke:#434348;stroke-linecap:square;"/>
   </g>
   <g id="line2d_11">
    <path clip-path="url(#p01424d51a1)" d="M 83.897898 311.653691 
L 121.5477 315.40456 
L 159.197502 323.769592 
L 196.847305 328.079167 
L 234.497107 321.837973 
L 272.14691 324.673188 
L 309.796712 321.232442 
L 347.446514 324.893659 
L 385.096317 325.592633 
L 422.746119 329.54021 
L 460.395921 320.688356 
L 498.045724 319.717773 
L 535.695526 335.054747 
L 573.345329 318.758525 
L 610.995131 331.613885 
L 648.644933 327.644986 
L 686.294736 321.86594 
L 723.944538 337.269817 
L 761.59434 333.788516 
L 799.244143 333.120073 
L 836.893945 335.955956 
L 874.543748 335.786746 
L 912.19355 334.069819 
L 949.843352 337.951338 
" style="fill:none;stroke:#90ed7d;stroke-linecap:square;"/>
   </g>
   <g id="line2d_12">
    <path clip-path="url(#p01424d51a1)" d="M 83.897898 310.98237 
L 121.5477 314.583922 
L 159.197502 322.597456 
L 196.847305 328.653261 
L 234.497107 322.16673 
L 272.14691 323.577733 
L 309.796712 323.073849 
L 347.446514 325.492505 
L 385.096317 321.481801 
L 422.746119 330.3583 
L 460.395921 320.212754 
L 498.045724 316.559043 
L 535.695526 335.345582 
L 573.345329 307.27604 
L 610.995131 332.065165 
L 648.644933 326.56604 
L 686.294736 321.388282 
L 723.944538 337.317218 
L 761.59434 333.540861 
L 799.244143 333.732151 
L 836.893945 333.362218 
L 874.543748 336.055178 
L 912.19355 334.080195 
L 949.843352 337.607546 
" style="fill:none;stroke:#f7a35c;stroke-linecap:square;"/>
   </g>
   <g id="line2d_13">
    <path clip-path="url(#p01424d51a1)" d="M 83.897898 302.663519 
L 121.5477 306.915002 
L 159.197502 315.792445 
L 196.847305 323.474489 
L 234.497107 314.54019 
L 272.14691 317.488166 
L 309.796712 315.465852 
L 347.446514 319.863344 
L 385.096317 320.109019 
L 422.746119 325.848892 
L 460.395921 315.81032 
L 498.045724 313.352037 
L 535.695526 332.992838 
L 573.345329 302.312696 
L 610.995131 328.398146 
L 648.644933 326.456972 
L 686.294736 315.464294 
L 723.944538 336.090828 
L 761.59434 332.161401 
L 799.244143 331.464116 
L 836.893945 335.828605 
L 874.543748 334.494804 
L 912.19355 331.778375 
L 949.843352 337.855578 
" style="fill:none;stroke:#8085e9;stroke-linecap:square;"/>
   </g>
   <g id="line2d_14">
    <path clip-path="url(#p01424d51a1)" d="M 83.897898 307.321138 
L 121.5477 311.668404 
L 159.197502 320.787163 
L 196.847305 326.114814 
L 234.497107 318.932133 
L 272.14691 322.426335 
L 309.796712 318.010631 
L 347.446514 322.702619 
L 385.096317 324.102033 
L 422.746119 327.742151 
L 460.395921 318.531124 
L 498.045724 317.987361 
L 535.695526 334.11669 
L 573.345329 313.501239 
L 610.995131 330.218163 
L 648.644933 326.595881 
L 686.294736 317.096582 
L 723.944538 336.835982 
L 761.59434 333.095621 
L 799.244143 331.939664 
L 836.893945 336.04715 
L 874.543748 335.07474 
L 912.19355 333.134379 
L 949.843352 337.514349 
" style="fill:none;stroke:#f15c80;stroke-linecap:square;"/>
   </g>
   <g id="line2d_15">
    <path clip-path="url(#p01424d51a1)" d="M 83.897898 303.514518 
L 121.5477 308.221057 
L 159.197502 316.660751 
L 196.847305 325.152888 
L 234.497107 316.401315 
L 272.14691 318.342957 
L 309.796712 316.157105 
L 347.446514 320.593125 
L 385.096317 320.852631 
L 422.746119 325.956196 
L 460.395921 315.561382 
L 498.045724 314.306457 
L 535.695526 333.667659 
L 573.345329 301.491283 
L 610.995131 328.486891 
L 648.644933 325.483172 
L 686.294736 316.09008 
L 723.944538 336.109409 
L 761.59434 331.831892 
L 799.244143 331.152443 
L 836.893945 335.815005 
L 874.543748 334.256175 
L 912.19355 332.191579 
L 949.843352 337.675324 
" style="fill:none;stroke:#e4d354;stroke-linecap:square;"/>
   </g>
   <g id="line2d_16">
    <path clip-path="url(#p01424d51a1)" d="M 83.897898 91.628314 
L 121.5477 126.909119 
L 159.197502 174.982142 
L 196.847305 242.765062 
L 234.497107 185.837813 
L 272.14691 198.700564 
L 309.796712 176.072178 
L 347.446514 207.780941 
L 385.096317 198.809641 
L 422.746119 244.031139 
L 460.395921 168.932277 
L 498.045724 160.705172 
L 535.695526 297.247782 
L 573.345329 49.708991 
L 610.995131 261.777705 
L 648.644933 231.232405 
L 686.294736 175.919339 
L 723.944538 313.899984 
L 761.59434 280.758858 
L 799.244143 276.637166 
L 836.893945 310.000405 
L 874.543748 298.580025 
L 912.19355 287.796628 
L 949.843352 320.013642 
" style="fill:none;stroke:#2b908f;stroke-linecap:square;"/>
   </g>
   <g id="line2d_17">
    <path clip-path="url(#p01424d51a1)" d="M 83.897898 309.654817 
L 121.5477 313.522375 
L 159.197502 321.132813 
L 196.847305 327.730831 
L 234.497107 320.269318 
L 272.14691 322.2854 
L 309.796712 319.709676 
L 347.446514 323.52849 
L 385.096317 324.208538 
L 422.746119 328.241484 
L 460.395921 319.799948 
L 498.045724 317.897602 
L 535.695526 334.887248 
L 573.345329 313.632757 
L 610.995131 330.520349 
L 648.644933 327.255068 
L 686.294736 321.470626 
L 723.944538 336.772978 
L 761.59434 333.088675 
L 799.244143 332.185862 
L 836.893945 336.096784 
L 874.543748 335.151896 
L 912.19355 333.608201 
L 949.843352 338.13754 
" style="fill:none;stroke:#f45b5b;stroke-linecap:square;"/>
   </g>
   <g id="line2d_18">
    <path clip-path="url(#p01424d51a1)" d="M 83.897898 311.535543 
L 121.5477 314.600661 
L 159.197502 321.757163 
L 196.847305 327.952154 
L 234.497107 320.996644 
L 272.14691 321.537214 
L 309.796712 321.487358 
L 347.446514 325.055194 
L 385.096317 325.449771 
L 422.746119 329.047378 
L 460.395921 321.701643 
L 498.045724 319.922257 
L 535.695526 335.219843 
L 573.345329 313.804254 
L 610.995131 331.008246 
L 648.644933 329.446162 
L 686.294736 323.84948 
L 723.944538 336.79763 
L 761.59434 333.580348 
L 799.244143 333.115184 
L 836.893945 336.584297 
L 874.543748 335.568271 
L 912.19355 333.962807 
L 949.843352 338.591376 
" style="fill:none;stroke:#91e8e1;stroke-linecap:square;"/>
   </g>
   <g id="line2d_19">
    <path clip-path="url(#p01424d51a1)" d="M 83.897898 305.64369 
L 121.5477 310.311724 
L 159.197502 317.290129 
L 196.847305 326.252572 
L 234.497107 317.454703 
L 272.14691 318.615257 
L 309.796712 317.411209 
L 347.446514 321.471662 
L 385.096317 319.484147 
L 422.746119 326.830466 
L 460.395921 317.081761 
L 498.045724 313.376359 
L 535.695526 333.90295 
L 573.345329 300.390771 
L 610.995131 329.331736 
L 648.644933 326.252518 
L 686.294736 316.923719 
L 723.944538 336.382116 
L 761.59434 331.9509 
L 799.244143 331.228257 
L 836.893945 335.515789 
L 874.543748 334.384178 
L 912.19355 332.728036 
L 949.843352 337.71805 
" style="fill:none;stroke:#7cb5ec;stroke-linecap:square;"/>
   </g>
   <g id="line2d_20">
    <path clip-path="url(#p01424d51a1)" d="M 83.897898 302.925081 
L 121.5477 307.469686 
L 159.197502 314.702577 
L 196.847305 324.576276 
L 234.497107 315.423433 
L 272.14691 317.225183 
L 309.796712 314.900906 
L 347.446514 319.511193 
L 385.096317 317.205328 
L 422.746119 325.68147 
L 460.395921 313.737129 
L 498.045724 312.629931 
L 535.695526 333.291294 
L 573.345329 293.622637 
L 610.995131 328.430081 
L 648.644933 324.72372 
L 686.294736 315.333144 
L 723.944538 336.190364 
L 761.59434 331.832061 
L 799.244143 330.993587 
L 836.893945 335.530425 
L 874.543748 334.099836 
L 912.19355 331.86478 
L 949.843352 336.700043 
" style="fill:none;stroke:#434348;stroke-linecap:square;"/>
   </g>
   <g id="line2d_21">
    <path clip-path="url(#p01424d51a1)" d="M 83.897898 304.50567 
L 121.5477 309.628262 
L 159.197502 318.140399 
L 196.847305 325.826903 
L 234.497107 317.717256 
L 272.14691 321.068098 
L 309.796712 316.104202 
L 347.446514 320.617854 
L 385.096317 320.222002 
L 422.746119 326.451614 
L 460.395921 315.16504 
L 498.045724 313.800117 
L 535.695526 333.503292 
L 573.345329 303.575895 
L 610.995131 329.124205 
L 648.644933 324.146839 
L 686.294736 311.329938 
L 723.944538 336.5526 
L 761.59434 331.672223 
L 799.244143 330.543919 
L 836.893945 335.226351 
L 874.543748 334.211061 
L 912.19355 332.60737 
L 949.843352 337.178439 
" style="fill:none;stroke:#90ed7d;stroke-linecap:square;"/>
   </g>
   <g id="line2d_22">
    <path clip-path="url(#p01424d51a1)" d="M 83.897898 305.898929 
L 121.5477 310.05591 
L 159.197502 316.726909 
L 196.847305 325.612173 
L 234.497107 317.579682 
L 272.14691 318.160362 
L 309.796712 317.518474 
L 347.446514 321.646644 
L 385.096317 320.309566 
L 422.746119 326.823927 
L 460.395921 317.217531 
L 498.045724 315.306105 
L 535.695526 333.748913 
L 573.345329 298.333283 
L 610.995131 329.395745 
L 648.644933 327.113672 
L 686.294736 316.467473 
L 723.944538 336.406752 
L 761.59434 332.32494 
L 799.244143 331.898365 
L 836.893945 336.028239 
L 874.543748 334.478311 
L 912.19355 332.56545 
L 949.843352 338.276979 
" style="fill:none;stroke:#f7a35c;stroke-linecap:square;"/>
   </g>
   <g id="line2d_23">
    <path clip-path="url(#p01424d51a1)" d="M 83.897898 307.908295 
L 121.5477 311.566918 
L 159.197502 320.670089 
L 196.847305 325.975606 
L 234.497107 318.424411 
L 272.14691 322.649116 
L 309.796712 317.510477 
L 347.446514 321.952245 
L 385.096317 324.765487 
L 422.746119 327.471402 
L 460.395921 317.971903 
L 498.045724 317.8848 
L 535.695526 334.079489 
L 573.345329 315.382126 
L 610.995131 329.965242 
L 648.644933 325.928804 
L 686.294736 320.019475 
L 723.944538 336.760768 
L 761.59434 333.108361 
L 799.244143 331.904912 
L 836.893945 336.200672 
L 874.543748 335.137498 
L 912.19355 333.123266 
L 949.843352 337.978945 
" style="fill:none;stroke:#8085e9;stroke-linecap:square;"/>
   </g>
   <g id="line2d_24">
    <path clip-path="url(#p01424d51a1)" d="M 83.897898 310.399188 
L 121.5477 313.540112 
L 159.197502 321.613173 
L 196.847305 327.154787 
L 234.497107 320.045394 
L 272.14691 323.250219 
L 309.796712 319.93984 
L 347.446514 323.770459 
L 385.096317 325.805375 
L 422.746119 328.433189 
L 460.395921 320.448344 
L 498.045724 319.097091 
L 535.695526 334.24546 
L 573.345329 316.603941 
L 610.995131 330.854118 
L 648.644933 328.394784 
L 686.294736 320.709999 
L 723.944538 336.941735 
L 761.59434 333.681619 
L 799.244143 332.847766 
L 836.893945 336.660962 
L 874.543748 335.605579 
L 912.19355 333.462415 
L 949.843352 338.324418 
" style="fill:none;stroke:#f15c80;stroke-linecap:square;"/>
   </g>
   <g id="line2d_25">
    <path clip-path="url(#p01424d51a1)" d="M 83.897898 308.16216 
L 121.5477 310.978018 
L 159.197502 320.286909 
L 196.847305 326.273586 
L 234.497107 318.794268 
L 272.14691 321.245412 
L 309.796712 318.907727 
L 347.446514 322.565229 
L 385.096317 323.578439 
L 422.746119 327.746964 
L 460.395921 319.4264 
L 498.045724 316.448661 
L 535.695526 334.172571 
L 573.345329 309.633127 
L 610.995131 329.960614 
L 648.644933 327.86974 
L 686.294736 321.595559 
L 723.944538 336.623194 
L 761.59434 333.207368 
L 799.244143 332.598851 
L 836.893945 336.688162 
L 874.543748 335.328535 
L 912.19355 333.094876 
L 949.843352 338.465491 
" style="fill:none;stroke:#e4d354;stroke-linecap:square;"/>
   </g>
   <g id="line2d_26">
    <path clip-path="url(#p01424d51a1)" d="M 83.897898 312.277075 
L 121.5477 316.965417 
L 159.197502 320.677411 
L 196.847305 329.654782 
L 234.497107 323.044078 
L 272.14691 321.964802 
L 309.796712 323.718223 
L 347.446514 326.860966 
L 385.096317 321.672762 
L 422.746119 329.962947 
L 460.395921 323.219627 
L 498.045724 320.907622 
L 535.695526 335.7252 
L 573.345329 300.560257 
L 610.995131 331.608298 
L 648.644933 330.434451 
L 686.294736 312.728009 
L 723.944538 337.133694 
L 761.59434 333.836607 
L 799.244143 333.956483 
L 836.893945 337.074904 
L 874.543748 335.627345 
L 912.19355 334.224116 
L 949.843352 338.391666 
" style="fill:none;stroke:#2b908f;stroke-linecap:square;"/>
   </g>
   <g id="line2d_27">
    <path clip-path="url(#p01424d51a1)" d="M 83.897898 311.937765 
L 121.5477 316.92728 
L 159.197502 322.024298 
L 196.847305 329.212981 
L 234.497107 322.772576 
L 272.14691 322.573203 
L 309.796712 322.506278 
L 347.446514 325.779979 
L 385.096317 322.651051 
L 422.746119 329.839112 
L 460.395921 321.689746 
L 498.045724 320.048057 
L 535.695526 335.331859 
L 573.345329 303.915044 
L 610.995131 331.722079 
L 648.644933 329.209297 
L 686.294736 310.116734 
L 723.944538 337.297485 
L 761.59434 333.772829 
L 799.244143 333.262229 
L 836.893945 336.654124 
L 874.543748 335.414265 
L 912.19355 334.199863 
L 949.843352 338.118054 
" style="fill:none;stroke:#f45b5b;stroke-linecap:square;"/>
   </g>
   <g id="line2d_28">
    <path clip-path="url(#p01424d51a1)" d="M 83.897898 301.145212 
L 121.5477 309.079126 
L 159.197502 314.623993 
L 196.847305 326.205171 
L 234.497107 317.425254 
L 272.14691 317.225153 
L 309.796712 316.54575 
L 347.446514 321.434032 
L 385.096317 315.619988 
L 422.746119 326.11232 
L 460.395921 315.748651 
L 498.045724 314.407851 
L 535.695526 333.969914 
L 573.345329 290.303025 
L 610.995131 328.914632 
L 648.644933 325.270361 
L 686.294736 302.927852 
L 723.944538 336.280752 
L 761.59434 331.532293 
L 799.244143 331.001109 
L 836.893945 335.650753 
L 874.543748 333.803628 
L 912.19355 332.339453 
L 949.843352 337.658439 
" style="fill:none;stroke:#91e8e1;stroke-linecap:square;"/>
   </g>
   <g id="line2d_29">
    <path clip-path="url(#p01424d51a1)" d="M 83.897898 303.500565 
L 121.5477 308.267875 
L 159.197502 317.890457 
L 196.847305 324.535591 
L 234.497107 316.19185 
L 272.14691 320.901014 
L 309.796712 315.529017 
L 347.446514 320.188846 
L 385.096317 321.850683 
L 422.746119 326.119887 
L 460.395921 314.890453 
L 498.045724 314.755358 
L 535.695526 333.43031 
L 573.345329 309.663789 
L 610.995131 328.990407 
L 648.644933 325.093008 
L 686.294736 315.212241 
L 723.944538 336.413606 
L 761.59434 332.173919 
L 799.244143 330.947606 
L 836.893945 335.62614 
L 874.543748 334.614342 
L 912.19355 332.18907 
L 949.843352 337.551212 
" style="fill:none;stroke:#7cb5ec;stroke-linecap:square;"/>
   </g>
   <g id="line2d_30">
    <path clip-path="url(#p01424d51a1)" d="M 83.897898 312.709091 
L 121.5477 315.860115 
L 159.197502 323.02225 
L 196.847305 328.101777 
L 234.497107 321.311969 
L 272.14691 322.068429 
L 309.796712 322.14514 
L 347.446514 325.521931 
L 385.096317 326.371741 
L 422.746119 329.590689 
L 460.395921 322.697123 
L 498.045724 320.654647 
L 535.695526 335.028936 
L 573.345329 313.210887 
L 610.995131 331.478361 
L 648.644933 330.064433 
L 686.294736 321.672792 
L 723.944538 337.097222 
L 761.59434 333.747877 
L 799.244143 333.649124 
L 836.893945 336.993756 
L 874.543748 335.766875 
L 912.19355 333.986991 
L 949.843352 338.770809 
" style="fill:none;stroke:#434348;stroke-linecap:square;"/>
   </g>
   <g id="line2d_31">
    <path clip-path="url(#p01424d51a1)" d="M 83.897898 308.806741 
L 121.5477 312.803086 
L 159.197502 320.17332 
L 196.847305 327.133596 
L 234.497107 319.362138 
L 272.14691 319.73927 
L 309.796712 318.954321 
L 347.446514 322.833576 
L 385.096317 322.046386 
L 422.746119 328.079566 
L 460.395921 317.982502 
L 498.045724 316.190069 
L 535.695526 334.378299 
L 573.345329 310.263411 
L 610.995131 330.213427 
L 648.644933 326.893209 
L 686.294736 323.440175 
L 723.944538 336.789656 
L 761.59434 332.440632 
L 799.244143 331.885517 
L 836.893945 335.682366 
L 874.543748 335.082031 
L 912.19355 333.324964 
L 949.843352 337.960195 
" style="fill:none;stroke:#90ed7d;stroke-linecap:square;"/>
   </g>
   <g id="line2d_32">
    <path clip-path="url(#p01424d51a1)" d="M 83.897898 306.970522 
L 121.5477 311.019087 
L 159.197502 320.208594 
L 196.847305 326.452735 
L 234.497107 318.143439 
L 272.14691 322.221145 
L 309.796712 317.277319 
L 347.446514 321.79243 
L 385.096317 324.376121 
L 422.746119 326.941676 
L 460.395921 317.446115 
L 498.045724 316.880823 
L 535.695526 334.094095 
L 573.345329 314.772143 
L 610.995131 329.593229 
L 648.644933 325.417935 
L 686.294736 319.6647 
L 723.944538 336.542921 
L 761.59434 332.46546 
L 799.244143 331.238035 
L 836.893945 335.51146 
L 874.543748 334.812786 
L 912.19355 332.863714 
L 949.843352 337.748965 
" style="fill:none;stroke:#f7a35c;stroke-linecap:square;"/>
   </g>
   <g id="line2d_33">
    <path clip-path="url(#p01424d51a1)" d="M 83.897898 305.919897 
L 121.5477 310.784026 
L 159.197502 320.482306 
L 196.847305 326.402848 
L 234.497107 318.644161 
L 272.14691 325.658369 
L 309.796712 316.891821 
L 347.446514 322.276812 
L 385.096317 325.240774 
L 422.746119 327.119505 
L 460.395921 316.574746 
L 498.045724 318.697325 
L 535.695526 334.205528 
L 573.345329 316.642945 
L 610.995131 329.940391 
L 648.644933 323.025051 
L 686.294736 321.20188 
L 723.944538 336.731971 
L 761.59434 332.099204 
L 799.244143 329.799655 
L 836.893945 333.183261 
L 874.543748 334.93534 
L 912.19355 332.624094 
L 949.843352 332.984687 
" style="fill:none;stroke:#8085e9;stroke-linecap:square;"/>
   </g>
   <g id="line2d_34">
    <path clip-path="url(#p01424d51a1)" d="M 83.897898 307.563398 
L 121.5477 311.206855 
L 159.197502 320.276901 
L 196.847305 326.050444 
L 234.497107 318.21546 
L 272.14691 322.028696 
L 309.796712 317.624481 
L 347.446514 321.938285 
L 385.096317 324.244441 
L 422.746119 327.411606 
L 460.395921 317.659809 
L 498.045724 317.167498 
L 535.695526 333.862649 
L 573.345329 313.636932 
L 610.995131 329.915332 
L 648.644933 326.220352 
L 686.294736 320.15972 
L 723.944538 336.733736 
L 761.59434 332.942513 
L 799.244143 331.886162 
L 836.893945 336.223183 
L 874.543748 335.128395 
L 912.19355 332.900354 
L 949.843352 337.921444 
" style="fill:none;stroke:#f15c80;stroke-linecap:square;"/>
   </g>
   <g id="line2d_35">
    <path clip-path="url(#p01424d51a1)" d="M 83.897898 304.19802 
L 121.5477 308.971239 
L 159.197502 315.297793 
L 196.847305 325.45476 
L 234.497107 316.103818 
L 272.14691 317.648219 
L 309.796712 315.87571 
L 347.446514 319.928972 
L 385.096317 317.73259 
L 422.746119 326.349499 
L 460.395921 315.645991 
L 498.045724 313.406875 
L 535.695526 333.702081 
L 573.345329 293.4044 
L 610.995131 328.791065 
L 648.644933 324.959203 
L 686.294736 315.070737 
L 723.944538 336.421642 
L 761.59434 331.484048 
L 799.244143 331.135021 
L 836.893945 335.817062 
L 874.543748 334.165234 
L 912.19355 332.227107 
L 949.843352 337.583577 
" style="fill:none;stroke:#e4d354;stroke-linecap:square;"/>
   </g>
   <g id="line2d_36">
    <path clip-path="url(#p01424d51a1)" d="M 83.897898 304.795531 
L 121.5477 309.435466 
L 159.197502 317.720756 
L 196.847305 325.397244 
L 234.497107 317.035635 
L 272.14691 319.365538 
L 309.796712 316.049088 
L 347.446514 320.554796 
L 385.096317 320.689093 
L 422.746119 326.271506 
L 460.395921 316.309867 
L 498.045724 313.777729 
L 535.695526 333.504627 
L 573.345329 299.666892 
L 610.995131 328.918255 
L 648.644933 325.640187 
L 686.294736 317.29148 
L 723.944538 336.416469 
L 761.59434 331.771989 
L 799.244143 331.24693 
L 836.893945 336.07283 
L 874.543748 334.417433 
L 912.19355 332.37079 
L 949.843352 338.051205 
" style="fill:none;stroke:#2b908f;stroke-linecap:square;"/>
   </g>
   <g id="line2d_37">
    <path clip-path="url(#p01424d51a1)" d="M 83.897898 305.702135 
L 121.5477 311.602944 
L 159.197502 321.134831 
L 196.847305 327.493744 
L 234.497107 320.195201 
L 272.14691 324.078831 
L 309.796712 316.476667 
L 347.446514 322.204706 
L 385.096317 324.409967 
L 422.746119 327.186001 
L 460.395921 316.734001 
L 498.045724 317.473 
L 535.695526 334.141081 
L 573.345329 314.209799 
L 610.995131 329.73847 
L 648.644933 322.615539 
L 686.294736 314.956879 
L 723.944538 336.869691 
L 761.59434 330.041961 
L 799.244143 328.676609 
L 836.893945 333.357391 
L 874.543748 333.728575 
L 912.19355 333.089066 
L 949.843352 335.511691 
" style="fill:none;stroke:#f45b5b;stroke-linecap:square;"/>
   </g>
   <g id="line2d_38">
    <path clip-path="url(#p01424d51a1)" d="M 83.897898 303.976505 
L 121.5477 309.772927 
L 159.197502 316.309706 
L 196.847305 326.332184 
L 234.497107 317.616207 
L 272.14691 320.957233 
L 309.796712 315.492116 
L 347.446514 320.813849 
L 385.096317 320.221933 
L 422.746119 326.081413 
L 460.395921 315.652622 
L 498.045724 316.045066 
L 535.695526 334.080004 
L 573.345329 299.243303 
L 610.995131 328.790106 
L 648.644933 323.505274 
L 686.294736 317.288571 
L 723.944538 336.473916 
L 761.59434 330.566238 
L 799.244143 330.216881 
L 836.893945 335.335067 
L 874.543748 333.993223 
L 912.19355 332.317756 
L 949.843352 336.866245 
" style="fill:none;stroke:#91e8e1;stroke-linecap:square;"/>
   </g>
   <g id="line2d_39">
    <path clip-path="url(#p01424d51a1)" d="M 83.897898 306.16918 
L 121.5477 309.980289 
L 159.197502 317.814789 
L 196.847305 326.180727 
L 234.497107 318.092738 
L 272.14691 319.721856 
L 309.796712 318.482204 
L 347.446514 322.204253 
L 385.096317 320.980265 
L 422.746119 327.19805 
L 460.395921 318.285111 
L 498.045724 316.09919 
L 535.695526 334.288248 
L 573.345329 301.460745 
L 610.995131 329.319555 
L 648.644933 326.854028 
L 686.294736 318.96829 
L 723.944538 336.407489 
L 761.59434 332.428014 
L 799.244143 331.969098 
L 836.893945 336.359996 
L 874.543748 334.780328 
L 912.19355 332.912673 
L 949.843352 338.369808 
" style="fill:none;stroke:#7cb5ec;stroke-linecap:square;"/>
   </g>
   <g id="line2d_40">
    <path clip-path="url(#p01424d51a1)" d="M 83.897898 304.328041 
L 121.5477 309.459405 
L 159.197502 317.521444 
L 196.847305 326.160964 
L 234.497107 317.809401 
L 272.14691 319.643855 
L 309.796712 316.730363 
L 347.446514 321.142053 
L 385.096317 318.608633 
L 422.746119 326.527612 
L 460.395921 316.072304 
L 498.045724 312.786193 
L 535.695526 334.255269 
L 573.345329 301.889015 
L 610.995131 329.043372 
L 648.644933 324.192428 
L 686.294736 313.376336 
L 723.944538 336.347494 
L 761.59434 331.440769 
L 799.244143 330.660187 
L 836.893945 335.287375 
L 874.543748 334.086443 
L 912.19355 332.69805 
L 949.843352 337.618091 
" style="fill:none;stroke:#434348;stroke-linecap:square;"/>
   </g>
   <g id="line2d_41">
    <path clip-path="url(#p01424d51a1)" d="M 83.897898 307.103453 
L 121.5477 311.799807 
L 159.197502 320.601422 
L 196.847305 327.3359 
L 234.497107 319.576607 
L 272.14691 322.400363 
L 309.796712 317.802486 
L 347.446514 322.501819 
L 385.096317 323.070932 
L 422.746119 327.508871 
L 460.395921 317.77108 
L 498.045724 316.800313 
L 535.695526 334.710079 
L 573.345329 312.554409 
L 610.995131 329.92828 
L 648.644933 324.537234 
L 686.294736 318.768557 
L 723.944538 336.713198 
L 761.59434 331.950517 
L 799.244143 330.694241 
L 836.893945 335.1775 
L 874.543748 334.582399 
L 912.19355 333.296712 
L 949.843352 337.457109 
" style="fill:none;stroke:#90ed7d;stroke-linecap:square;"/>
   </g>
   <g id="line2d_42">
    <path clip-path="url(#p01424d51a1)" d="M 83.897898 302.863774 
L 121.5477 308.369207 
L 159.197502 314.805176 
L 196.847305 325.937192 
L 234.497107 317.03258 
L 272.14691 316.867929 
L 309.796712 316.613005 
L 347.446514 321.398505 
L 385.096317 316.709618 
L 422.746119 326.04478 
L 460.395921 316.662908 
L 498.045724 314.179068 
L 535.695526 334.227194 
L 573.345329 293.609214 
L 610.995131 328.577932 
L 648.644933 325.17754 
L 686.294736 309.554106 
L 723.944538 336.037556 
L 761.59434 331.143318 
L 799.244143 330.751734 
L 836.893945 335.61211 
L 874.543748 333.793213 
L 912.19355 332.263847 
L 949.843352 337.631384 
" style="fill:none;stroke:#f7a35c;stroke-linecap:square;"/>
   </g>
   <g id="line2d_43">
    <path clip-path="url(#p01424d51a1)" d="M 40.600625 340.172272 
L 993.140625 340.172272 
" style="fill:none;stroke:#dedede;stroke-linecap:square;stroke-width:2;"/>
   </g>
   <g id="text_36">
    <!-- Samtools idxstats: Mapped reads per contig -->
    <g transform="translate(340.591875 19.3575)scale(0.16 -0.16)">
     <defs>
      <path d="M 3425 4513 
L 3425 3897 
Q 3066 4069 2747 4153 
Q 2428 4238 2131 4238 
Q 1616 4238 1336 4038 
Q 1056 3838 1056 3469 
Q 1056 3159 1242 3001 
Q 1428 2844 1947 2747 
L 2328 2669 
Q 3034 2534 3370 2195 
Q 3706 1856 3706 1288 
Q 3706 609 3251 259 
Q 2797 -91 1919 -91 
Q 1588 -91 1214 -16 
Q 841 59 441 206 
L 441 856 
Q 825 641 1194 531 
Q 1563 422 1919 422 
Q 2459 422 2753 634 
Q 3047 847 3047 1241 
Q 3047 1584 2836 1778 
Q 2625 1972 2144 2069 
L 1759 2144 
Q 1053 2284 737 2584 
Q 422 2884 422 3419 
Q 422 4038 858 4394 
Q 1294 4750 2059 4750 
Q 2388 4750 2728 4690 
Q 3069 4631 3425 4513 
z
" id="DejaVuSans-53" transform="scale(0.015625)"/>
      <path d="M 1172 4494 
L 1172 3500 
L 2356 3500 
L 2356 3053 
L 1172 3053 
L 1172 1153 
Q 1172 725 1289 603 
Q 1406 481 1766 481 
L 2356 481 
L 2356 0 
L 1766 0 
Q 1100 0 847 248 
Q 594 497 594 1153 
L 594 3053 
L 172 3053 
L 172 3500 
L 594 3500 
L 594 4494 
L 1172 4494 
z
" id="DejaVuSans-74" transform="scale(0.015625)"/>
      <path d="M 603 4863 
L 1178 4863 
L 1178 0 
L 603 0 
L 603 4863 
z
" id="DejaVuSans-6c" transform="scale(0.015625)"/>
      <path d="M 603 3500 
L 1178 3500 
L 1178 0 
L 603 0 
L 603 3500 
z
M 603 4863 
L 1178 4863 
L 1178 4134 
L 603 4134 
L 603 4863 
z
" id="DejaVuSans-69" transform="scale(0.015625)"/>
      <path d="M 3513 3500 
L 2247 1797 
L 3578 0 
L 2900 0 
L 1881 1375 
L 863 0 
L 184 0 
L 1544 1831 
L 300 3500 
L 978 3500 
L 1906 2253 
L 2834 3500 
L 3513 3500 
z
" id="DejaVuSans-78" transform="scale(0.015625)"/>
      <path d="M 750 794 
L 1409 794 
L 1409 0 
L 750 0 
L 750 794 
z
M 750 3309 
L 1409 3309 
L 1409 2516 
L 750 2516 
L 750 3309 
z
" id="DejaVuSans-3a" transform="scale(0.015625)"/>
      <path d="M 3122 3366 
L 3122 2828 
Q 2878 2963 2633 3030 
Q 2388 3097 2138 3097 
Q 1578 3097 1268 2742 
Q 959 2388 959 1747 
Q 959 1106 1268 751 
Q 1578 397 2138 397 
Q 2388 397 2633 464 
Q 2878 531 3122 666 
L 3122 134 
Q 2881 22 2623 -34 
Q 2366 -91 2075 -91 
Q 1284 -91 818 406 
Q 353 903 353 1747 
Q 353 2603 823 3093 
Q 1294 3584 2113 3584 
Q 2378 3584 2631 3529 
Q 2884 3475 3122 3366 
z
" id="DejaVuSans-63" transform="scale(0.015625)"/>
      <path d="M 3513 2113 
L 3513 0 
L 2938 0 
L 2938 2094 
Q 2938 2591 2744 2837 
Q 2550 3084 2163 3084 
Q 1697 3084 1428 2787 
Q 1159 2491 1159 1978 
L 1159 0 
L 581 0 
L 581 3500 
L 1159 3500 
L 1159 2956 
Q 1366 3272 1645 3428 
Q 1925 3584 2291 3584 
Q 2894 3584 3203 3211 
Q 3513 2838 3513 2113 
z
" id="DejaVuSans-6e" transform="scale(0.015625)"/>
      <path d="M 2906 1791 
Q 2906 2416 2648 2759 
Q 2391 3103 1925 3103 
Q 1463 3103 1205 2759 
Q 947 2416 947 1791 
Q 947 1169 1205 825 
Q 1463 481 1925 481 
Q 2391 481 2648 825 
Q 2906 1169 2906 1791 
z
M 3481 434 
Q 3481 -459 3084 -895 
Q 2688 -1331 1869 -1331 
Q 1566 -1331 1297 -1286 
Q 1028 -1241 775 -1147 
L 775 -588 
Q 1028 -725 1275 -790 
Q 1522 -856 1778 -856 
Q 2344 -856 2625 -561 
Q 2906 -266 2906 331 
L 2906 616 
Q 2728 306 2450 153 
Q 2172 0 1784 0 
Q 1141 0 747 490 
Q 353 981 353 1791 
Q 353 2603 747 3093 
Q 1141 3584 1784 3584 
Q 2172 3584 2450 3431 
Q 2728 3278 2906 2969 
L 2906 3500 
L 3481 3500 
L 3481 434 
z
" id="DejaVuSans-67" transform="scale(0.015625)"/>
     </defs>
     <use xlink:href="#DejaVuSans-53"/>
     <use x="63.476562" xlink:href="#DejaVuSans-61"/>
     <use x="124.755859" xlink:href="#DejaVuSans-6d"/>
     <use x="222.167969" xlink:href="#DejaVuSans-74"/>
     <use x="261.376953" xlink:href="#DejaVuSans-6f"/>
     <use x="322.558594" xlink:href="#DejaVuSans-6f"/>
     <use x="383.740234" xlink:href="#DejaVuSans-6c"/>
     <use x="411.523438" xlink:href="#DejaVuSans-73"/>
     <use x="463.623047" xlink:href="#DejaVuSans-20"/>
     <use x="495.410156" xlink:href="#DejaVuSans-69"/>
     <use x="523.193359" xlink:href="#DejaVuSans-64"/>
     <use x="586.669922" xlink:href="#DejaVuSans-78"/>
     <use x="645.849609" xlink:href="#DejaVuSans-73"/>
     <use x="697.949219" xlink:href="#DejaVuSans-74"/>
     <use x="737.158203" xlink:href="#DejaVuSans-61"/>
     <use x="798.4375" xlink:href="#DejaVuSans-74"/>
     <use x="837.646484" xlink:href="#DejaVuSans-73"/>
     <use x="889.746094" xlink:href="#DejaVuSans-3a"/>
     <use x="923.4375" xlink:href="#DejaVuSans-20"/>
     <use x="955.224609" xlink:href="#DejaVuSans-4d"/>
     <use x="1041.503906" xlink:href="#DejaVuSans-61"/>
     <use x="1102.783203" xlink:href="#DejaVuSans-70"/>
     <use x="1166.259766" xlink:href="#DejaVuSans-70"/>
     <use x="1229.736328" xlink:href="#DejaVuSans-65"/>
     <use x="1291.259766" xlink:href="#DejaVuSans-64"/>
     <use x="1354.736328" xlink:href="#DejaVuSans-20"/>
     <use x="1386.523438" xlink:href="#DejaVuSans-72"/>
     <use x="1425.386719" xlink:href="#DejaVuSans-65"/>
     <use x="1486.910156" xlink:href="#DejaVuSans-61"/>
     <use x="1548.189453" xlink:href="#DejaVuSans-64"/>
     <use x="1611.666016" xlink:href="#DejaVuSans-73"/>
     <use x="1663.765625" xlink:href="#DejaVuSans-20"/>
     <use x="1695.552734" xlink:href="#DejaVuSans-70"/>
     <use x="1759.029297" xlink:href="#DejaVuSans-65"/>
     <use x="1820.552734" xlink:href="#DejaVuSans-72"/>
     <use x="1861.666016" xlink:href="#DejaVuSans-20"/>
     <use x="1893.453125" xlink:href="#DejaVuSans-63"/>
     <use x="1948.433594" xlink:href="#DejaVuSans-6f"/>
     <use x="2009.615234" xlink:href="#DejaVuSans-6e"/>
     <use x="2072.994141" xlink:href="#DejaVuSans-74"/>
     <use x="2112.203125" xlink:href="#DejaVuSans-69"/>
     <use x="2139.986328" xlink:href="#DejaVuSans-67"/>
    </g>
   </g>
  </g>
 </g>
 <defs>
  <clipPath id="p01424d51a1">
   <rect height="317.968" width="952.54" x="40.600625" y="35.2559"/>
  </clipPath>
 </defs>
</svg>
