<?xml version="1.0" encoding="utf-8" standalone="no"?>
<!DOCTYPE svg PUBLIC "-//W3C//DTD SVG 1.1//EN"
  "http://www.w3.org/Graphics/SVG/1.1/DTD/svg11.dtd">
<svg height="388.844525pt" version="1.1" viewBox="0 0 1000.278125 388.844525" width="1000.278125pt" xmlns="http://www.w3.org/2000/svg" xmlns:xlink="http://www.w3.org/1999/xlink">
 <metadata>
  <rdf:RDF xmlns:cc="http://creativecommons.org/ns#" xmlns:dc="http://purl.org/dc/elements/1.1/" xmlns:rdf="http://www.w3.org/1999/02/22-rdf-syntax-ns#">
   <cc:Work>
    <dc:type rdf:resource="http://purl.org/dc/dcmitype/StillImage"/>
    <dc:date>2022-11-03T13:38:44.224389</dc:date>
    <dc:format>image/svg+xml</dc:format>
    <dc:creator>
     <cc:Agent>
      <dc:title>Matplotlib v3.4.2, https://matplotlib.org/</dc:title>
     </cc:Agent>
    </dc:creator>
   </cc:Work>
  </rdf:RDF>
 </metadata>
 <defs>
  <style type="text/css">*{stroke-linecap:butt;stroke-linejoin:round;}</style>
 </defs>
 <g id="figure_1">
  <g id="axes_1">
   <g id="patch_1">
    <path d="M 43.148125 353.2239 
L 993.078125 353.2239 
L 993.078125 35.2559 
L 43.148125 35.2559 
z
" style="fill:#ffffff;"/>
   </g>
   <g id="matplotlib.axis_1">
    <g id="xtick_1">
     <g id="text_1">
      <!-- 1.0 -->
      <g transform="translate(79.965511 366.30265)scale(0.08 -0.08)">
       <defs>
        <path d="M 794 531 
L 1825 531 
L 1825 4091 
L 703 3866 
L 703 4441 
L 1819 4666 
L 2450 4666 
L 2450 531 
L 3481 531 
L 3481 0 
L 794 0 
L 794 531 
z
" id="DejaVuSans-31" transform="scale(0.015625)"/>
        <path d="M 684 794 
L 1344 794 
L 1344 0 
L 684 0 
L 684 794 
z
" id="DejaVuSans-2e" transform="scale(0.015625)"/>
        <path d="M 2034 4250 
Q 1547 4250 1301 3770 
Q 1056 3291 1056 2328 
Q 1056 1369 1301 889 
Q 1547 409 2034 409 
Q 2525 409 2770 889 
Q 3016 1369 3016 2328 
Q 3016 3291 2770 3770 
Q 2525 4250 2034 4250 
z
M 2034 4750 
Q 2819 4750 3233 4129 
Q 3647 3509 3647 2328 
Q 3647 1150 3233 529 
Q 2819 -91 2034 -91 
Q 1250 -91 836 529 
Q 422 1150 422 2328 
Q 422 3509 836 4129 
Q 1250 4750 2034 4750 
z
" id="DejaVuSans-30" transform="scale(0.015625)"/>
       </defs>
       <use xlink:href="#DejaVuSans-31"/>
       <use x="63.623047" xlink:href="#DejaVuSans-2e"/>
       <use x="95.410156" xlink:href="#DejaVuSans-30"/>
      </g>
     </g>
    </g>
    <g id="xtick_2">
     <g id="text_2">
      <!-- 2.0 -->
      <g transform="translate(137.537027 366.30265)scale(0.08 -0.08)">
       <defs>
        <path d="M 1228 531 
L 3431 531 
L 3431 0 
L 469 0 
L 469 531 
Q 828 903 1448 1529 
Q 2069 2156 2228 2338 
Q 2531 2678 2651 2914 
Q 2772 3150 2772 3378 
Q 2772 3750 2511 3984 
Q 2250 4219 1831 4219 
Q 1534 4219 1204 4116 
Q 875 4013 500 3803 
L 500 4441 
Q 881 4594 1212 4672 
Q 1544 4750 1819 4750 
Q 2544 4750 2975 4387 
Q 3406 4025 3406 3419 
Q 3406 3131 3298 2873 
Q 3191 2616 2906 2266 
Q 2828 2175 2409 1742 
Q 1991 1309 1228 531 
z
" id="DejaVuSans-32" transform="scale(0.015625)"/>
       </defs>
       <use xlink:href="#DejaVuSans-32"/>
       <use x="63.623047" xlink:href="#DejaVuSans-2e"/>
       <use x="95.410156" xlink:href="#DejaVuSans-30"/>
      </g>
     </g>
    </g>
    <g id="xtick_3">
     <g id="text_3">
      <!-- 3.0 -->
      <g transform="translate(195.108542 366.30265)scale(0.08 -0.08)">
       <defs>
        <path d="M 2597 2516 
Q 3050 2419 3304 2112 
Q 3559 1806 3559 1356 
Q 3559 666 3084 287 
Q 2609 -91 1734 -91 
Q 1441 -91 1130 -33 
Q 819 25 488 141 
L 488 750 
Q 750 597 1062 519 
Q 1375 441 1716 441 
Q 2309 441 2620 675 
Q 2931 909 2931 1356 
Q 2931 1769 2642 2001 
Q 2353 2234 1838 2234 
L 1294 2234 
L 1294 2753 
L 1863 2753 
Q 2328 2753 2575 2939 
Q 2822 3125 2822 3475 
Q 2822 3834 2567 4026 
Q 2313 4219 1838 4219 
Q 1578 4219 1281 4162 
Q 984 4106 628 3988 
L 628 4550 
Q 988 4650 1302 4700 
Q 1616 4750 1894 4750 
Q 2613 4750 3031 4423 
Q 3450 4097 3450 3541 
Q 3450 3153 3228 2886 
Q 3006 2619 2597 2516 
z
" id="DejaVuSans-33" transform="scale(0.015625)"/>
       </defs>
       <use xlink:href="#DejaVuSans-33"/>
       <use x="63.623047" xlink:href="#DejaVuSans-2e"/>
       <use x="95.410156" xlink:href="#DejaVuSans-30"/>
      </g>
     </g>
    </g>
    <g id="xtick_4">
     <g id="text_4">
      <!-- 4.0 -->
      <g transform="translate(252.680057 366.30265)scale(0.08 -0.08)">
       <defs>
        <path d="M 2419 4116 
L 825 1625 
L 2419 1625 
L 2419 4116 
z
M 2253 4666 
L 3047 4666 
L 3047 1625 
L 3713 1625 
L 3713 1100 
L 3047 1100 
L 3047 0 
L 2419 0 
L 2419 1100 
L 313 1100 
L 313 1709 
L 2253 4666 
z
" id="DejaVuSans-34" transform="scale(0.015625)"/>
       </defs>
       <use xlink:href="#DejaVuSans-34"/>
       <use x="63.623047" xlink:href="#DejaVuSans-2e"/>
       <use x="95.410156" xlink:href="#DejaVuSans-30"/>
      </g>
     </g>
    </g>
    <g id="xtick_5">
     <g id="text_5">
      <!-- 5.0 -->
      <g transform="translate(310.251572 366.30265)scale(0.08 -0.08)">
       <defs>
        <path d="M 691 4666 
L 3169 4666 
L 3169 4134 
L 1269 4134 
L 1269 2991 
Q 1406 3038 1543 3061 
Q 1681 3084 1819 3084 
Q 2600 3084 3056 2656 
Q 3513 2228 3513 1497 
Q 3513 744 3044 326 
Q 2575 -91 1722 -91 
Q 1428 -91 1123 -41 
Q 819 9 494 109 
L 494 744 
Q 775 591 1075 516 
Q 1375 441 1709 441 
Q 2250 441 2565 725 
Q 2881 1009 2881 1497 
Q 2881 1984 2565 2268 
Q 2250 2553 1709 2553 
Q 1456 2553 1204 2497 
Q 953 2441 691 2322 
L 691 4666 
z
" id="DejaVuSans-35" transform="scale(0.015625)"/>
       </defs>
       <use xlink:href="#DejaVuSans-35"/>
       <use x="63.623047" xlink:href="#DejaVuSans-2e"/>
       <use x="95.410156" xlink:href="#DejaVuSans-30"/>
      </g>
     </g>
    </g>
    <g id="xtick_6">
     <g id="text_6">
      <!-- 6.0 -->
      <g transform="translate(367.823087 366.30265)scale(0.08 -0.08)">
       <defs>
        <path d="M 2113 2584 
Q 1688 2584 1439 2293 
Q 1191 2003 1191 1497 
Q 1191 994 1439 701 
Q 1688 409 2113 409 
Q 2538 409 2786 701 
Q 3034 994 3034 1497 
Q 3034 2003 2786 2293 
Q 2538 2584 2113 2584 
z
M 3366 4563 
L 3366 3988 
Q 3128 4100 2886 4159 
Q 2644 4219 2406 4219 
Q 1781 4219 1451 3797 
Q 1122 3375 1075 2522 
Q 1259 2794 1537 2939 
Q 1816 3084 2150 3084 
Q 2853 3084 3261 2657 
Q 3669 2231 3669 1497 
Q 3669 778 3244 343 
Q 2819 -91 2113 -91 
Q 1303 -91 875 529 
Q 447 1150 447 2328 
Q 447 3434 972 4092 
Q 1497 4750 2381 4750 
Q 2619 4750 2861 4703 
Q 3103 4656 3366 4563 
z
" id="DejaVuSans-36" transform="scale(0.015625)"/>
       </defs>
       <use xlink:href="#DejaVuSans-36"/>
       <use x="63.623047" xlink:href="#DejaVuSans-2e"/>
       <use x="95.410156" xlink:href="#DejaVuSans-30"/>
      </g>
     </g>
    </g>
    <g id="xtick_7">
     <g id="text_7">
      <!-- 7.0 -->
      <g transform="translate(425.394602 366.30265)scale(0.08 -0.08)">
       <defs>
        <path d="M 525 4666 
L 3525 4666 
L 3525 4397 
L 1831 0 
L 1172 0 
L 2766 4134 
L 525 4134 
L 525 4666 
z
" id="DejaVuSans-37" transform="scale(0.015625)"/>
       </defs>
       <use xlink:href="#DejaVuSans-37"/>
       <use x="63.623047" xlink:href="#DejaVuSans-2e"/>
       <use x="95.410156" xlink:href="#DejaVuSans-30"/>
      </g>
     </g>
    </g>
    <g id="xtick_8">
     <g id="text_8">
      <!-- 8.0 -->
      <g transform="translate(482.966117 366.30265)scale(0.08 -0.08)">
       <defs>
        <path d="M 2034 2216 
Q 1584 2216 1326 1975 
Q 1069 1734 1069 1313 
Q 1069 891 1326 650 
Q 1584 409 2034 409 
Q 2484 409 2743 651 
Q 3003 894 3003 1313 
Q 3003 1734 2745 1975 
Q 2488 2216 2034 2216 
z
M 1403 2484 
Q 997 2584 770 2862 
Q 544 3141 544 3541 
Q 544 4100 942 4425 
Q 1341 4750 2034 4750 
Q 2731 4750 3128 4425 
Q 3525 4100 3525 3541 
Q 3525 3141 3298 2862 
Q 3072 2584 2669 2484 
Q 3125 2378 3379 2068 
Q 3634 1759 3634 1313 
Q 3634 634 3220 271 
Q 2806 -91 2034 -91 
Q 1263 -91 848 271 
Q 434 634 434 1313 
Q 434 1759 690 2068 
Q 947 2378 1403 2484 
z
M 1172 3481 
Q 1172 3119 1398 2916 
Q 1625 2713 2034 2713 
Q 2441 2713 2670 2916 
Q 2900 3119 2900 3481 
Q 2900 3844 2670 4047 
Q 2441 4250 2034 4250 
Q 1625 4250 1398 4047 
Q 1172 3844 1172 3481 
z
" id="DejaVuSans-38" transform="scale(0.015625)"/>
       </defs>
       <use xlink:href="#DejaVuSans-38"/>
       <use x="63.623047" xlink:href="#DejaVuSans-2e"/>
       <use x="95.410156" xlink:href="#DejaVuSans-30"/>
      </g>
     </g>
    </g>
    <g id="xtick_9">
     <g id="text_9">
      <!-- 9.0 -->
      <g transform="translate(540.537633 366.30265)scale(0.08 -0.08)">
       <defs>
        <path d="M 703 97 
L 703 672 
Q 941 559 1184 500 
Q 1428 441 1663 441 
Q 2288 441 2617 861 
Q 2947 1281 2994 2138 
Q 2813 1869 2534 1725 
Q 2256 1581 1919 1581 
Q 1219 1581 811 2004 
Q 403 2428 403 3163 
Q 403 3881 828 4315 
Q 1253 4750 1959 4750 
Q 2769 4750 3195 4129 
Q 3622 3509 3622 2328 
Q 3622 1225 3098 567 
Q 2575 -91 1691 -91 
Q 1453 -91 1209 -44 
Q 966 3 703 97 
z
M 1959 2075 
Q 2384 2075 2632 2365 
Q 2881 2656 2881 3163 
Q 2881 3666 2632 3958 
Q 2384 4250 1959 4250 
Q 1534 4250 1286 3958 
Q 1038 3666 1038 3163 
Q 1038 2656 1286 2365 
Q 1534 2075 1959 2075 
z
" id="DejaVuSans-39" transform="scale(0.015625)"/>
       </defs>
       <use xlink:href="#DejaVuSans-39"/>
       <use x="63.623047" xlink:href="#DejaVuSans-2e"/>
       <use x="95.410156" xlink:href="#DejaVuSans-30"/>
      </g>
     </g>
    </g>
    <g id="xtick_10">
     <g id="text_10">
      <!-- &gt;10 -->
      <g transform="translate(596.028523 366.30265)scale(0.08 -0.08)">
       <defs>
        <path d="M 678 3150 
L 678 3719 
L 4684 2266 
L 4684 1747 
L 678 294 
L 678 863 
L 3897 2003 
L 678 3150 
z
" id="DejaVuSans-3e" transform="scale(0.015625)"/>
       </defs>
       <use xlink:href="#DejaVuSans-3e"/>
       <use x="83.789062" xlink:href="#DejaVuSans-31"/>
       <use x="147.412109" xlink:href="#DejaVuSans-30"/>
      </g>
     </g>
    </g>
    <g id="xtick_11">
     <g id="text_11">
      <!-- &gt;50 -->
      <g transform="translate(653.600038 366.30265)scale(0.08 -0.08)">
       <use xlink:href="#DejaVuSans-3e"/>
       <use x="83.789062" xlink:href="#DejaVuSans-35"/>
       <use x="147.412109" xlink:href="#DejaVuSans-30"/>
      </g>
     </g>
    </g>
    <g id="xtick_12">
     <g id="text_12">
      <!-- &gt;100 -->
      <g transform="translate(708.626553 366.30265)scale(0.08 -0.08)">
       <use xlink:href="#DejaVuSans-3e"/>
       <use x="83.789062" xlink:href="#DejaVuSans-31"/>
       <use x="147.412109" xlink:href="#DejaVuSans-30"/>
       <use x="211.035156" xlink:href="#DejaVuSans-30"/>
      </g>
     </g>
    </g>
    <g id="xtick_13">
     <g id="text_13">
      <!-- &gt;500 -->
      <g transform="translate(766.198068 366.30265)scale(0.08 -0.08)">
       <use xlink:href="#DejaVuSans-3e"/>
       <use x="83.789062" xlink:href="#DejaVuSans-35"/>
       <use x="147.412109" xlink:href="#DejaVuSans-30"/>
       <use x="211.035156" xlink:href="#DejaVuSans-30"/>
      </g>
     </g>
    </g>
    <g id="xtick_14">
     <g id="text_14">
      <!-- &gt;1k -->
      <g transform="translate(826.543333 366.30265)scale(0.08 -0.08)">
       <defs>
        <path d="M 581 4863 
L 1159 4863 
L 1159 1991 
L 2875 3500 
L 3609 3500 
L 1753 1863 
L 3688 0 
L 2938 0 
L 1159 1709 
L 1159 0 
L 581 0 
L 581 4863 
z
" id="DejaVuSans-6b" transform="scale(0.015625)"/>
       </defs>
       <use xlink:href="#DejaVuSans-3e"/>
       <use x="83.789062" xlink:href="#DejaVuSans-31"/>
       <use x="147.412109" xlink:href="#DejaVuSans-6b"/>
      </g>
     </g>
    </g>
    <g id="xtick_15">
     <g id="text_15">
      <!-- &gt;5k -->
      <g transform="translate(884.114848 366.30265)scale(0.08 -0.08)">
       <use xlink:href="#DejaVuSans-3e"/>
       <use x="83.789062" xlink:href="#DejaVuSans-35"/>
       <use x="147.412109" xlink:href="#DejaVuSans-6b"/>
      </g>
     </g>
    </g>
    <g id="xtick_16">
     <g id="text_16">
      <!-- &gt;10k+ -->
      <g transform="translate(935.789489 366.30265)scale(0.08 -0.08)">
       <defs>
        <path d="M 2944 4013 
L 2944 2272 
L 4684 2272 
L 4684 1741 
L 2944 1741 
L 2944 0 
L 2419 0 
L 2419 1741 
L 678 1741 
L 678 2272 
L 2419 2272 
L 2419 4013 
L 2944 4013 
z
" id="DejaVuSans-2b" transform="scale(0.015625)"/>
       </defs>
       <use xlink:href="#DejaVuSans-3e"/>
       <use x="83.789062" xlink:href="#DejaVuSans-31"/>
       <use x="147.412109" xlink:href="#DejaVuSans-30"/>
       <use x="211.035156" xlink:href="#DejaVuSans-6b"/>
       <use x="268.945312" xlink:href="#DejaVuSans-2b"/>
      </g>
     </g>
    </g>
    <g id="text_17">
     <!-- Sequence Duplication Level -->
     <g transform="translate(448.708437 379.564837)scale(0.1 -0.1)">
      <defs>
       <path d="M 3425 4513 
L 3425 3897 
Q 3066 4069 2747 4153 
Q 2428 4238 2131 4238 
Q 1616 4238 1336 4038 
Q 1056 3838 1056 3469 
Q 1056 3159 1242 3001 
Q 1428 2844 1947 2747 
L 2328 2669 
Q 3034 2534 3370 2195 
Q 3706 1856 3706 1288 
Q 3706 609 3251 259 
Q 2797 -91 1919 -91 
Q 1588 -91 1214 -16 
Q 841 59 441 206 
L 441 856 
Q 825 641 1194 531 
Q 1563 422 1919 422 
Q 2459 422 2753 634 
Q 3047 847 3047 1241 
Q 3047 1584 2836 1778 
Q 2625 1972 2144 2069 
L 1759 2144 
Q 1053 2284 737 2584 
Q 422 2884 422 3419 
Q 422 4038 858 4394 
Q 1294 4750 2059 4750 
Q 2388 4750 2728 4690 
Q 3069 4631 3425 4513 
z
" id="DejaVuSans-53" transform="scale(0.015625)"/>
       <path d="M 3597 1894 
L 3597 1613 
L 953 1613 
Q 991 1019 1311 708 
Q 1631 397 2203 397 
Q 2534 397 2845 478 
Q 3156 559 3463 722 
L 3463 178 
Q 3153 47 2828 -22 
Q 2503 -91 2169 -91 
Q 1331 -91 842 396 
Q 353 884 353 1716 
Q 353 2575 817 3079 
Q 1281 3584 2069 3584 
Q 2775 3584 3186 3129 
Q 3597 2675 3597 1894 
z
M 3022 2063 
Q 3016 2534 2758 2815 
Q 2500 3097 2075 3097 
Q 1594 3097 1305 2825 
Q 1016 2553 972 2059 
L 3022 2063 
z
" id="DejaVuSans-65" transform="scale(0.015625)"/>
       <path d="M 947 1747 
Q 947 1113 1208 752 
Q 1469 391 1925 391 
Q 2381 391 2643 752 
Q 2906 1113 2906 1747 
Q 2906 2381 2643 2742 
Q 2381 3103 1925 3103 
Q 1469 3103 1208 2742 
Q 947 2381 947 1747 
z
M 2906 525 
Q 2725 213 2448 61 
Q 2172 -91 1784 -91 
Q 1150 -91 751 415 
Q 353 922 353 1747 
Q 353 2572 751 3078 
Q 1150 3584 1784 3584 
Q 2172 3584 2448 3432 
Q 2725 3281 2906 2969 
L 2906 3500 
L 3481 3500 
L 3481 -1331 
L 2906 -1331 
L 2906 525 
z
" id="DejaVuSans-71" transform="scale(0.015625)"/>
       <path d="M 544 1381 
L 544 3500 
L 1119 3500 
L 1119 1403 
Q 1119 906 1312 657 
Q 1506 409 1894 409 
Q 2359 409 2629 706 
Q 2900 1003 2900 1516 
L 2900 3500 
L 3475 3500 
L 3475 0 
L 2900 0 
L 2900 538 
Q 2691 219 2414 64 
Q 2138 -91 1772 -91 
Q 1169 -91 856 284 
Q 544 659 544 1381 
z
M 1991 3584 
L 1991 3584 
z
" id="DejaVuSans-75" transform="scale(0.015625)"/>
       <path d="M 3513 2113 
L 3513 0 
L 2938 0 
L 2938 2094 
Q 2938 2591 2744 2837 
Q 2550 3084 2163 3084 
Q 1697 3084 1428 2787 
Q 1159 2491 1159 1978 
L 1159 0 
L 581 0 
L 581 3500 
L 1159 3500 
L 1159 2956 
Q 1366 3272 1645 3428 
Q 1925 3584 2291 3584 
Q 2894 3584 3203 3211 
Q 3513 2838 3513 2113 
z
" id="DejaVuSans-6e" transform="scale(0.015625)"/>
       <path d="M 3122 3366 
L 3122 2828 
Q 2878 2963 2633 3030 
Q 2388 3097 2138 3097 
Q 1578 3097 1268 2742 
Q 959 2388 959 1747 
Q 959 1106 1268 751 
Q 1578 397 2138 397 
Q 2388 397 2633 464 
Q 2878 531 3122 666 
L 3122 134 
Q 2881 22 2623 -34 
Q 2366 -91 2075 -91 
Q 1284 -91 818 406 
Q 353 903 353 1747 
Q 353 2603 823 3093 
Q 1294 3584 2113 3584 
Q 2378 3584 2631 3529 
Q 2884 3475 3122 3366 
z
" id="DejaVuSans-63" transform="scale(0.015625)"/>
       <path id="DejaVuSans-20" transform="scale(0.015625)"/>
       <path d="M 1259 4147 
L 1259 519 
L 2022 519 
Q 2988 519 3436 956 
Q 3884 1394 3884 2338 
Q 3884 3275 3436 3711 
Q 2988 4147 2022 4147 
L 1259 4147 
z
M 628 4666 
L 1925 4666 
Q 3281 4666 3915 4102 
Q 4550 3538 4550 2338 
Q 4550 1131 3912 565 
Q 3275 0 1925 0 
L 628 0 
L 628 4666 
z
" id="DejaVuSans-44" transform="scale(0.015625)"/>
       <path d="M 1159 525 
L 1159 -1331 
L 581 -1331 
L 581 3500 
L 1159 3500 
L 1159 2969 
Q 1341 3281 1617 3432 
Q 1894 3584 2278 3584 
Q 2916 3584 3314 3078 
Q 3713 2572 3713 1747 
Q 3713 922 3314 415 
Q 2916 -91 2278 -91 
Q 1894 -91 1617 61 
Q 1341 213 1159 525 
z
M 3116 1747 
Q 3116 2381 2855 2742 
Q 2594 3103 2138 3103 
Q 1681 3103 1420 2742 
Q 1159 2381 1159 1747 
Q 1159 1113 1420 752 
Q 1681 391 2138 391 
Q 2594 391 2855 752 
Q 3116 1113 3116 1747 
z
" id="DejaVuSans-70" transform="scale(0.015625)"/>
       <path d="M 603 4863 
L 1178 4863 
L 1178 0 
L 603 0 
L 603 4863 
z
" id="DejaVuSans-6c" transform="scale(0.015625)"/>
       <path d="M 603 3500 
L 1178 3500 
L 1178 0 
L 603 0 
L 603 3500 
z
M 603 4863 
L 1178 4863 
L 1178 4134 
L 603 4134 
L 603 4863 
z
" id="DejaVuSans-69" transform="scale(0.015625)"/>
       <path d="M 2194 1759 
Q 1497 1759 1228 1600 
Q 959 1441 959 1056 
Q 959 750 1161 570 
Q 1363 391 1709 391 
Q 2188 391 2477 730 
Q 2766 1069 2766 1631 
L 2766 1759 
L 2194 1759 
z
M 3341 1997 
L 3341 0 
L 2766 0 
L 2766 531 
Q 2569 213 2275 61 
Q 1981 -91 1556 -91 
Q 1019 -91 701 211 
Q 384 513 384 1019 
Q 384 1609 779 1909 
Q 1175 2209 1959 2209 
L 2766 2209 
L 2766 2266 
Q 2766 2663 2505 2880 
Q 2244 3097 1772 3097 
Q 1472 3097 1187 3025 
Q 903 2953 641 2809 
L 641 3341 
Q 956 3463 1253 3523 
Q 1550 3584 1831 3584 
Q 2591 3584 2966 3190 
Q 3341 2797 3341 1997 
z
" id="DejaVuSans-61" transform="scale(0.015625)"/>
       <path d="M 1172 4494 
L 1172 3500 
L 2356 3500 
L 2356 3053 
L 1172 3053 
L 1172 1153 
Q 1172 725 1289 603 
Q 1406 481 1766 481 
L 2356 481 
L 2356 0 
L 1766 0 
Q 1100 0 847 248 
Q 594 497 594 1153 
L 594 3053 
L 172 3053 
L 172 3500 
L 594 3500 
L 594 4494 
L 1172 4494 
z
" id="DejaVuSans-74" transform="scale(0.015625)"/>
       <path d="M 1959 3097 
Q 1497 3097 1228 2736 
Q 959 2375 959 1747 
Q 959 1119 1226 758 
Q 1494 397 1959 397 
Q 2419 397 2687 759 
Q 2956 1122 2956 1747 
Q 2956 2369 2687 2733 
Q 2419 3097 1959 3097 
z
M 1959 3584 
Q 2709 3584 3137 3096 
Q 3566 2609 3566 1747 
Q 3566 888 3137 398 
Q 2709 -91 1959 -91 
Q 1206 -91 779 398 
Q 353 888 353 1747 
Q 353 2609 779 3096 
Q 1206 3584 1959 3584 
z
" id="DejaVuSans-6f" transform="scale(0.015625)"/>
       <path d="M 628 4666 
L 1259 4666 
L 1259 531 
L 3531 531 
L 3531 0 
L 628 0 
L 628 4666 
z
" id="DejaVuSans-4c" transform="scale(0.015625)"/>
       <path d="M 191 3500 
L 800 3500 
L 1894 563 
L 2988 3500 
L 3597 3500 
L 2284 0 
L 1503 0 
L 191 3500 
z
" id="DejaVuSans-76" transform="scale(0.015625)"/>
      </defs>
      <use xlink:href="#DejaVuSans-53"/>
      <use x="63.476562" xlink:href="#DejaVuSans-65"/>
      <use x="125" xlink:href="#DejaVuSans-71"/>
      <use x="188.476562" xlink:href="#DejaVuSans-75"/>
      <use x="251.855469" xlink:href="#DejaVuSans-65"/>
      <use x="313.378906" xlink:href="#DejaVuSans-6e"/>
      <use x="376.757812" xlink:href="#DejaVuSans-63"/>
      <use x="431.738281" xlink:href="#DejaVuSans-65"/>
      <use x="493.261719" xlink:href="#DejaVuSans-20"/>
      <use x="525.048828" xlink:href="#DejaVuSans-44"/>
      <use x="602.050781" xlink:href="#DejaVuSans-75"/>
      <use x="665.429688" xlink:href="#DejaVuSans-70"/>
      <use x="728.90625" xlink:href="#DejaVuSans-6c"/>
      <use x="756.689453" xlink:href="#DejaVuSans-69"/>
      <use x="784.472656" xlink:href="#DejaVuSans-63"/>
      <use x="839.453125" xlink:href="#DejaVuSans-61"/>
      <use x="900.732422" xlink:href="#DejaVuSans-74"/>
      <use x="939.941406" xlink:href="#DejaVuSans-69"/>
      <use x="967.724609" xlink:href="#DejaVuSans-6f"/>
      <use x="1028.90625" xlink:href="#DejaVuSans-6e"/>
      <use x="1092.285156" xlink:href="#DejaVuSans-20"/>
      <use x="1124.072266" xlink:href="#DejaVuSans-4c"/>
      <use x="1178.035156" xlink:href="#DejaVuSans-65"/>
      <use x="1239.558594" xlink:href="#DejaVuSans-76"/>
      <use x="1298.738281" xlink:href="#DejaVuSans-65"/>
      <use x="1360.261719" xlink:href="#DejaVuSans-6c"/>
     </g>
    </g>
   </g>
   <g id="matplotlib.axis_2">
    <g id="ytick_1">
     <g id="line2d_1">
      <path clip-path="url(#pc39bd271e8)" d="M 43.148125 353.2239 
L 993.078125 353.2239 
" style="fill:none;stroke:#dedede;stroke-linecap:square;"/>
     </g>
     <g id="text_18">
      <!-- 0 -->
      <g transform="translate(31.058125 356.263275)scale(0.08 -0.08)">
       <use xlink:href="#DejaVuSans-30"/>
      </g>
     </g>
    </g>
    <g id="ytick_2">
     <g id="line2d_2">
      <path clip-path="url(#pc39bd271e8)" d="M 43.148125 289.6303 
L 993.078125 289.6303 
" style="fill:none;stroke:#dedede;stroke-linecap:square;"/>
     </g>
     <g id="text_19">
      <!-- 20 -->
      <g transform="translate(25.968125 292.669675)scale(0.08 -0.08)">
       <use xlink:href="#DejaVuSans-32"/>
       <use x="63.623047" xlink:href="#DejaVuSans-30"/>
      </g>
     </g>
    </g>
    <g id="ytick_3">
     <g id="line2d_3">
      <path clip-path="url(#pc39bd271e8)" d="M 43.148125 226.0367 
L 993.078125 226.0367 
" style="fill:none;stroke:#dedede;stroke-linecap:square;"/>
     </g>
     <g id="text_20">
      <!-- 40 -->
      <g transform="translate(25.968125 229.076075)scale(0.08 -0.08)">
       <use xlink:href="#DejaVuSans-34"/>
       <use x="63.623047" xlink:href="#DejaVuSans-30"/>
      </g>
     </g>
    </g>
    <g id="ytick_4">
     <g id="line2d_4">
      <path clip-path="url(#pc39bd271e8)" d="M 43.148125 162.4431 
L 993.078125 162.4431 
" style="fill:none;stroke:#dedede;stroke-linecap:square;"/>
     </g>
     <g id="text_21">
      <!-- 60 -->
      <g transform="translate(25.968125 165.482475)scale(0.08 -0.08)">
       <use xlink:href="#DejaVuSans-36"/>
       <use x="63.623047" xlink:href="#DejaVuSans-30"/>
      </g>
     </g>
    </g>
    <g id="ytick_5">
     <g id="line2d_5">
      <path clip-path="url(#pc39bd271e8)" d="M 43.148125 98.8495 
L 993.078125 98.8495 
" style="fill:none;stroke:#dedede;stroke-linecap:square;"/>
     </g>
     <g id="text_22">
      <!-- 80 -->
      <g transform="translate(25.968125 101.888875)scale(0.08 -0.08)">
       <use xlink:href="#DejaVuSans-38"/>
       <use x="63.623047" xlink:href="#DejaVuSans-30"/>
      </g>
     </g>
    </g>
    <g id="ytick_6">
     <g id="line2d_6">
      <path clip-path="url(#pc39bd271e8)" d="M 43.148125 35.2559 
L 993.078125 35.2559 
" style="fill:none;stroke:#dedede;stroke-linecap:square;"/>
     </g>
     <g id="text_23">
      <!-- 100 -->
      <g transform="translate(20.878125 38.295275)scale(0.08 -0.08)">
       <use xlink:href="#DejaVuSans-31"/>
       <use x="63.623047" xlink:href="#DejaVuSans-30"/>
       <use x="127.246094" xlink:href="#DejaVuSans-30"/>
      </g>
     </g>
    </g>
    <g id="text_24">
     <!-- % of Library -->
     <g transform="translate(14.798437 224.471931)rotate(-90)scale(0.1 -0.1)">
      <defs>
       <path d="M 4653 2053 
Q 4381 2053 4226 1822 
Q 4072 1591 4072 1178 
Q 4072 772 4226 539 
Q 4381 306 4653 306 
Q 4919 306 5073 539 
Q 5228 772 5228 1178 
Q 5228 1588 5073 1820 
Q 4919 2053 4653 2053 
z
M 4653 2450 
Q 5147 2450 5437 2106 
Q 5728 1763 5728 1178 
Q 5728 594 5436 251 
Q 5144 -91 4653 -91 
Q 4153 -91 3862 251 
Q 3572 594 3572 1178 
Q 3572 1766 3864 2108 
Q 4156 2450 4653 2450 
z
M 1428 4353 
Q 1159 4353 1004 4120 
Q 850 3888 850 3481 
Q 850 3069 1003 2837 
Q 1156 2606 1428 2606 
Q 1700 2606 1854 2837 
Q 2009 3069 2009 3481 
Q 2009 3884 1853 4118 
Q 1697 4353 1428 4353 
z
M 4250 4750 
L 4750 4750 
L 1831 -91 
L 1331 -91 
L 4250 4750 
z
M 1428 4750 
Q 1922 4750 2215 4408 
Q 2509 4066 2509 3481 
Q 2509 2891 2217 2550 
Q 1925 2209 1428 2209 
Q 931 2209 642 2551 
Q 353 2894 353 3481 
Q 353 4063 643 4406 
Q 934 4750 1428 4750 
z
" id="DejaVuSans-25" transform="scale(0.015625)"/>
       <path d="M 2375 4863 
L 2375 4384 
L 1825 4384 
Q 1516 4384 1395 4259 
Q 1275 4134 1275 3809 
L 1275 3500 
L 2222 3500 
L 2222 3053 
L 1275 3053 
L 1275 0 
L 697 0 
L 697 3053 
L 147 3053 
L 147 3500 
L 697 3500 
L 697 3744 
Q 697 4328 969 4595 
Q 1241 4863 1831 4863 
L 2375 4863 
z
" id="DejaVuSans-66" transform="scale(0.015625)"/>
       <path d="M 3116 1747 
Q 3116 2381 2855 2742 
Q 2594 3103 2138 3103 
Q 1681 3103 1420 2742 
Q 1159 2381 1159 1747 
Q 1159 1113 1420 752 
Q 1681 391 2138 391 
Q 2594 391 2855 752 
Q 3116 1113 3116 1747 
z
M 1159 2969 
Q 1341 3281 1617 3432 
Q 1894 3584 2278 3584 
Q 2916 3584 3314 3078 
Q 3713 2572 3713 1747 
Q 3713 922 3314 415 
Q 2916 -91 2278 -91 
Q 1894 -91 1617 61 
Q 1341 213 1159 525 
L 1159 0 
L 581 0 
L 581 4863 
L 1159 4863 
L 1159 2969 
z
" id="DejaVuSans-62" transform="scale(0.015625)"/>
       <path d="M 2631 2963 
Q 2534 3019 2420 3045 
Q 2306 3072 2169 3072 
Q 1681 3072 1420 2755 
Q 1159 2438 1159 1844 
L 1159 0 
L 581 0 
L 581 3500 
L 1159 3500 
L 1159 2956 
Q 1341 3275 1631 3429 
Q 1922 3584 2338 3584 
Q 2397 3584 2469 3576 
Q 2541 3569 2628 3553 
L 2631 2963 
z
" id="DejaVuSans-72" transform="scale(0.015625)"/>
       <path d="M 2059 -325 
Q 1816 -950 1584 -1140 
Q 1353 -1331 966 -1331 
L 506 -1331 
L 506 -850 
L 844 -850 
Q 1081 -850 1212 -737 
Q 1344 -625 1503 -206 
L 1606 56 
L 191 3500 
L 800 3500 
L 1894 763 
L 2988 3500 
L 3597 3500 
L 2059 -325 
z
" id="DejaVuSans-79" transform="scale(0.015625)"/>
      </defs>
      <use xlink:href="#DejaVuSans-25"/>
      <use x="95.019531" xlink:href="#DejaVuSans-20"/>
      <use x="126.806641" xlink:href="#DejaVuSans-6f"/>
      <use x="187.988281" xlink:href="#DejaVuSans-66"/>
      <use x="223.193359" xlink:href="#DejaVuSans-20"/>
      <use x="254.980469" xlink:href="#DejaVuSans-4c"/>
      <use x="310.693359" xlink:href="#DejaVuSans-69"/>
      <use x="338.476562" xlink:href="#DejaVuSans-62"/>
      <use x="401.953125" xlink:href="#DejaVuSans-72"/>
      <use x="443.066406" xlink:href="#DejaVuSans-61"/>
      <use x="504.345703" xlink:href="#DejaVuSans-72"/>
      <use x="545.458984" xlink:href="#DejaVuSans-79"/>
     </g>
    </g>
   </g>
   <g id="line2d_7">
    <path clip-path="url(#pc39bd271e8)" d="M 86.326761 192.19784 
L 143.898277 312.407219 
L 201.469792 336.482765 
L 259.041307 343.693074 
L 316.612822 346.967264 
L 374.184337 348.495443 
L 431.755852 349.689662 
L 489.327367 350.452321 
L 546.898883 350.550935 
L 604.470398 329.258082 
L 662.041913 346.741633 
L 719.613428 342.279105 
L 777.184943 349.314844 
L 834.756458 344.452022 
L 892.327973 349.204646 
L 949.899489 341.427545 
" style="fill:none;stroke:#f0ad4e;stroke-linecap:square;"/>
   </g>
   <g id="line2d_8">
    <path clip-path="url(#pc39bd271e8)" d="M 86.326761 192.587723 
L 143.898277 312.062952 
L 201.469792 337.422895 
L 259.041307 344.828879 
L 316.612822 347.419582 
L 374.184337 349.187198 
L 431.755852 349.823889 
L 489.327367 350.542944 
L 546.898883 350.996519 
L 604.470398 331.109367 
L 662.041913 346.266233 
L 719.613428 340.939083 
L 777.184943 348.736277 
L 834.756458 343.184338 
L 892.327973 348.663399 
L 949.899489 339.843123 
" style="fill:none;stroke:#f0ad4e;stroke-linecap:square;"/>
   </g>
   <g id="line2d_9">
    <path clip-path="url(#pc39bd271e8)" d="M 86.326761 182.054812 
L 143.898277 305.604325 
L 201.469792 335.557939 
L 259.041307 344.147584 
L 316.612822 347.683201 
L 374.184337 349.338015 
L 431.755852 350.487078 
L 489.327367 350.985495 
L 546.898883 351.396054 
L 604.470398 335.325954 
L 662.041913 348.2076 
L 719.613428 343.211592 
L 777.184943 349.079287 
L 834.756458 344.539316 
L 892.327973 349.421566 
L 949.899489 346.57458 
" style="fill:none;stroke:#f0ad4e;stroke-linecap:square;"/>
   </g>
   <g id="line2d_10">
    <path clip-path="url(#pc39bd271e8)" d="M 86.326761 203.202913 
L 143.898277 314.313347 
L 201.469792 337.98602 
L 259.041307 345.005622 
L 316.612822 347.64437 
L 374.184337 349.21301 
L 431.755852 350.460489 
L 489.327367 350.774394 
L 546.898883 351.150135 
L 604.470398 331.578027 
L 662.041913 346.025193 
L 719.613428 338.177383 
L 777.184943 346.053909 
L 834.756458 336.436668 
L 892.327973 346.520367 
L 949.899489 339.072553 
" style="fill:none;stroke:#f0ad4e;stroke-linecap:square;"/>
   </g>
   <g id="line2d_11">
    <path clip-path="url(#pc39bd271e8)" d="M 86.326761 193.17588 
L 143.898277 307.269781 
L 201.469792 334.378243 
L 259.041307 343.186391 
L 316.612822 346.601042 
L 374.184337 348.384201 
L 431.755852 349.336025 
L 489.327367 350.233397 
L 546.898883 350.891444 
L 604.470398 329.730691 
L 662.041913 347.296623 
L 719.613428 343.0689 
L 777.184943 350.08866 
L 834.756458 346.42282 
L 892.327973 350.274962 
L 949.899489 343.27534 
" style="fill:none;stroke:#f0ad4e;stroke-linecap:square;"/>
   </g>
   <g id="line2d_12">
    <path clip-path="url(#pc39bd271e8)" d="M 86.326761 186.147286 
L 143.898277 304.947423 
L 201.469792 334.755875 
L 259.041307 343.934195 
L 316.612822 347.525702 
L 374.184337 348.969317 
L 431.755852 350.176911 
L 489.327367 350.818826 
L 546.898883 351.242886 
L 604.470398 334.4735 
L 662.041913 348.443401 
L 719.613428 344.146086 
L 777.184943 349.666592 
L 834.756458 343.779492 
L 892.327973 349.835929 
L 949.899489 344.75098 
" style="fill:none;stroke:#f0ad4e;stroke-linecap:square;"/>
   </g>
   <g id="line2d_13">
    <path clip-path="url(#pc39bd271e8)" d="M 86.326761 185.49182 
L 143.898277 310.527533 
L 201.469792 336.364957 
L 259.041307 343.581618 
L 316.612822 347.007689 
L 374.184337 348.534563 
L 431.755852 349.629055 
L 489.327367 350.363945 
L 546.898883 350.874692 
L 604.470398 330.580762 
L 662.041913 347.787735 
L 719.613428 344.241131 
L 777.184943 350.092863 
L 834.756458 345.820265 
L 892.327973 349.535717 
L 949.899489 343.180056 
" style="fill:none;stroke:#f0ad4e;stroke-linecap:square;"/>
   </g>
   <g id="line2d_14">
    <path clip-path="url(#pc39bd271e8)" d="M 86.326761 254.198441 
L 143.898277 313.528134 
L 201.469792 331.856848 
L 259.041307 339.834202 
L 316.612822 343.171282 
L 374.184337 345.38937 
L 431.755852 347.138485 
L 489.327367 348.112039 
L 546.898883 348.811593 
L 604.470398 308.25386 
L 662.041913 342.611289 
L 719.613428 337.078553 
L 777.184943 348.311708 
L 834.756458 344.622584 
L 892.327973 349.588775 
L 949.899489 331.107236 
" style="fill:none;stroke:#d9534f;stroke-linecap:square;"/>
   </g>
   <g id="line2d_15">
    <path clip-path="url(#pc39bd271e8)" d="M 86.326761 179.032864 
L 143.898277 310.87216 
L 201.469792 336.816388 
L 259.041307 344.466456 
L 316.612822 347.462729 
L 374.184337 348.925596 
L 431.755852 349.877857 
L 489.327367 350.776304 
L 546.898883 351.191041 
L 604.470398 333.663988 
L 662.041913 348.269174 
L 719.613428 344.545508 
L 777.184943 349.481206 
L 834.756458 344.379441 
L 892.327973 349.03693 
L 949.899489 344.81676 
" style="fill:none;stroke:#f0ad4e;stroke-linecap:square;"/>
   </g>
   <g id="line2d_16">
    <path clip-path="url(#pc39bd271e8)" d="M 86.326761 178.522528 
L 143.898277 311.258778 
L 201.469792 336.592237 
L 259.041307 343.771552 
L 316.612822 347.101184 
L 374.184337 348.684414 
L 431.755852 349.710885 
L 489.327367 350.456252 
L 546.898883 351.006141 
L 604.470398 332.167682 
L 662.041913 347.974222 
L 719.613428 344.747986 
L 777.184943 350.226055 
L 834.756458 346.477149 
L 892.327973 349.950577 
L 949.899489 344.966759 
" style="fill:none;stroke:#f0ad4e;stroke-linecap:square;"/>
   </g>
   <g id="line2d_17">
    <path clip-path="url(#pc39bd271e8)" d="M 86.326761 192.450957 
L 143.898277 313.033117 
L 201.469792 336.566484 
L 259.041307 343.546604 
L 316.612822 347.091239 
L 374.184337 348.910491 
L 431.755852 349.825542 
L 489.327367 350.234239 
L 546.898883 350.824213 
L 604.470398 330.119509 
L 662.041913 346.844567 
L 719.613428 341.980679 
L 777.184943 349.0378 
L 834.756458 342.97525 
L 892.327973 348.750383 
L 949.899489 341.423323 
" style="fill:none;stroke:#f0ad4e;stroke-linecap:square;"/>
   </g>
   <g id="line2d_18">
    <path clip-path="url(#pc39bd271e8)" d="M 86.326761 192.181888 
L 143.898277 311.683901 
L 201.469792 336.0406 
L 259.041307 343.662258 
L 316.612822 346.985793 
L 374.184337 348.765421 
L 431.755852 349.763796 
L 489.327367 350.345162 
L 546.898883 350.945257 
L 604.470398 331.121816 
L 662.041913 347.389908 
L 719.613428 342.043538 
L 777.184943 349.380877 
L 834.756458 343.51406 
L 892.327973 348.694669 
L 949.899489 341.095457 
" style="fill:none;stroke:#f0ad4e;stroke-linecap:square;"/>
   </g>
   <g id="line2d_19">
    <path clip-path="url(#pc39bd271e8)" d="M 86.326761 187.673315 
L 143.898277 311.467553 
L 201.469792 336.394327 
L 259.041307 344.159237 
L 316.612822 347.178852 
L 374.184337 349.204787 
L 431.755852 349.877653 
L 489.327367 350.778066 
L 546.898883 351.210508 
L 604.470398 334.168032 
L 662.041913 347.780648 
L 719.613428 342.784536 
L 777.184943 349.229346 
L 834.756458 342.221994 
L 892.327973 347.86046 
L 949.899489 341.625087 
" style="fill:none;stroke:#f0ad4e;stroke-linecap:square;"/>
   </g>
   <g id="line2d_20">
    <path clip-path="url(#pc39bd271e8)" d="M 86.326761 182.481773 
L 143.898277 311.988517 
L 201.469792 336.3015 
L 259.041307 343.938257 
L 316.612822 347.300941 
L 374.184337 348.767612 
L 431.755852 349.857097 
L 489.327367 350.408532 
L 546.898883 350.916903 
L 604.470398 331.385591 
L 662.041913 348.015633 
L 719.613428 344.322818 
L 777.184943 350.505522 
L 834.756458 346.570348 
L 892.327973 349.624443 
L 949.899489 341.228913 
" style="fill:none;stroke:#f0ad4e;stroke-linecap:square;"/>
   </g>
   <g id="line2d_21">
    <path clip-path="url(#pc39bd271e8)" d="M 86.326761 169.65659 
L 143.898277 311.426019 
L 201.469792 336.683573 
L 259.041307 344.190037 
L 316.612822 347.664948 
L 374.184337 349.111909 
L 431.755852 350.35191 
L 489.327367 350.872312 
L 546.898883 351.222155 
L 604.470398 335.377675 
L 662.041913 348.571433 
L 719.613428 345.363559 
L 777.184943 350.058066 
L 834.756458 346.135023 
L 892.327973 350.025808 
L 949.899489 346.903383 
" style="fill:none;stroke:#f0ad4e;stroke-linecap:square;"/>
   </g>
   <g id="line2d_22">
    <path clip-path="url(#pc39bd271e8)" d="M 86.326761 169.98218 
L 143.898277 311.54611 
L 201.469792 336.803723 
L 259.041307 344.107939 
L 316.612822 347.637495 
L 374.184337 349.222634 
L 431.755852 350.311607 
L 489.327367 350.745415 
L 546.898883 351.213652 
L 604.470398 334.080178 
L 662.041913 348.31142 
L 719.613428 345.073722 
L 777.184943 350.439623 
L 834.756458 347.085435 
L 892.327973 350.101232 
L 949.899489 346.952034 
" style="fill:none;stroke:#f0ad4e;stroke-linecap:square;"/>
   </g>
   <g id="line2d_23">
    <path clip-path="url(#pc39bd271e8)" d="M 86.326761 180.384164 
L 143.898277 312.541281 
L 201.469792 335.954681 
L 259.041307 343.846302 
L 316.612822 346.766311 
L 374.184337 348.54922 
L 431.755852 349.629437 
L 489.327367 350.25829 
L 546.898883 350.966392 
L 604.470398 330.831098 
L 662.041913 347.901914 
L 719.613428 344.677775 
L 777.184943 350.632946 
L 834.756458 346.511152 
L 892.327973 349.616728 
L 949.899489 344.546708 
" style="fill:none;stroke:#f0ad4e;stroke-linecap:square;"/>
   </g>
   <g id="line2d_24">
    <path clip-path="url(#pc39bd271e8)" d="M 86.326761 187.813509 
L 143.898277 311.35484 
L 201.469792 337.141123 
L 259.041307 344.401499 
L 316.612822 347.330751 
L 374.184337 349.044777 
L 431.755852 349.709555 
L 489.327367 350.390842 
L 546.898883 350.954709 
L 604.470398 331.211737 
L 662.041913 347.349739 
L 719.613428 342.992922 
L 777.184943 349.744301 
L 834.756458 345.103915 
L 892.327973 349.346265 
L 949.899489 339.723916 
" style="fill:none;stroke:#f0ad4e;stroke-linecap:square;"/>
   </g>
   <g id="line2d_25">
    <path clip-path="url(#pc39bd271e8)" d="M 86.326761 192.405352 
L 143.898277 309.617528 
L 201.469792 336.158844 
L 259.041307 344.366138 
L 316.612822 347.753293 
L 374.184337 349.174338 
L 431.755852 350.286952 
L 489.327367 350.722104 
L 546.898883 351.21032 
L 604.470398 332.734349 
L 662.041913 347.286454 
L 719.613428 342.147219 
L 777.184943 348.970908 
L 834.756458 342.259664 
L 892.327973 348.666028 
L 949.899489 339.85491 
" style="fill:none;stroke:#f0ad4e;stroke-linecap:square;"/>
   </g>
   <g id="line2d_26">
    <path clip-path="url(#pc39bd271e8)" d="M 86.326761 199.240116 
L 143.898277 308.095045 
L 201.469792 335.281514 
L 259.041307 343.387012 
L 316.612822 346.713376 
L 374.184337 348.470334 
L 431.755852 349.651148 
L 489.327367 350.381007 
L 546.898883 351.040188 
L 604.470398 330.691824 
L 662.041913 347.382251 
L 719.613428 342.750206 
L 777.184943 349.227708 
L 834.756458 343.877254 
L 892.327973 348.781519 
L 949.899489 338.643897 
" style="fill:none;stroke:#f0ad4e;stroke-linecap:square;"/>
   </g>
   <g id="line2d_27">
    <path clip-path="url(#pc39bd271e8)" d="M 86.326761 188.70771 
L 143.898277 303.544156 
L 201.469792 334.183844 
L 259.041307 343.172138 
L 316.612822 346.758635 
L 374.184337 348.893969 
L 431.755852 349.98252 
L 489.327367 350.609945 
L 546.898883 351.104044 
L 604.470398 333.692981 
L 662.041913 348.003783 
L 719.613428 343.886576 
L 777.184943 349.899194 
L 834.756458 345.315478 
L 892.327973 349.987909 
L 949.899489 345.871518 
" style="fill:none;stroke:#f0ad4e;stroke-linecap:square;"/>
   </g>
   <g id="line2d_28">
    <path clip-path="url(#pc39bd271e8)" d="M 86.326761 195.50717 
L 143.898277 301.571058 
L 201.469792 333.389774 
L 259.041307 342.788831 
L 316.612822 346.756135 
L 374.184337 348.822554 
L 431.755852 349.625071 
L 489.327367 350.406133 
L 546.898883 350.971742 
L 604.470398 331.193437 
L 662.041913 347.609856 
L 719.613428 343.607554 
L 777.184943 350.402267 
L 834.756458 347.273313 
L 892.327973 349.757672 
L 949.899489 343.931833 
" style="fill:none;stroke:#f0ad4e;stroke-linecap:square;"/>
   </g>
   <g id="line2d_29">
    <path clip-path="url(#pc39bd271e8)" d="M 86.326761 199.93663 
L 143.898277 307.528465 
L 201.469792 334.574177 
L 259.041307 343.217874 
L 316.612822 346.730486 
L 374.184337 348.671612 
L 431.755852 349.617034 
L 489.327367 350.250309 
L 546.898883 350.864774 
L 604.470398 330.18669 
L 662.041913 346.983638 
L 719.613428 341.563225 
L 777.184943 348.957741 
L 834.756458 343.053296 
L 892.327973 349.412165 
L 949.899489 342.066283 
" style="fill:none;stroke:#f0ad4e;stroke-linecap:square;"/>
   </g>
   <g id="line2d_30">
    <path clip-path="url(#pc39bd271e8)" d="M 86.326761 172.81693 
L 143.898277 312.16432 
L 201.469792 336.97531 
L 259.041307 344.639545 
L 316.612822 347.640278 
L 374.184337 349.267603 
L 431.755852 350.143546 
L 489.327367 350.9767 
L 546.898883 351.162579 
L 604.470398 334.80898 
L 662.041913 348.28899 
L 719.613428 344.19861 
L 777.184943 349.784386 
L 834.756458 344.221068 
L 892.327973 349.663484 
L 949.899489 346.862072 
" style="fill:none;stroke:#f0ad4e;stroke-linecap:square;"/>
   </g>
   <g id="line2d_31">
    <path clip-path="url(#pc39bd271e8)" d="M 86.326761 226.598512 
L 143.898277 288.434928 
L 201.469792 324.74932 
L 259.041307 340.379708 
L 316.612822 346.396199 
L 374.184337 349.043975 
L 431.755852 350.387214 
L 489.327367 351.155531 
L 546.898883 351.485913 
L 604.470398 337.664756 
L 662.041913 347.889984 
L 719.613428 340.59488 
L 777.184943 347.252336 
L 834.756458 340.487393 
L 892.327973 347.963862 
L 949.899489 343.129887 
" style="fill:none;stroke:#f0ad4e;stroke-linecap:square;"/>
   </g>
   <g id="line2d_32">
    <path clip-path="url(#pc39bd271e8)" d="M 86.326761 175.835963 
L 143.898277 311.068782 
L 201.469792 336.52959 
L 259.041307 343.797127 
L 316.612822 347.395183 
L 374.184337 348.986959 
L 431.755852 350.022044 
L 489.327367 350.633447 
L 546.898883 350.939812 
L 604.470398 333.424228 
L 662.041913 347.902966 
L 719.613428 344.477931 
L 777.184943 350.059024 
L 834.756458 346.586031 
L 892.327973 349.879679 
L 949.899489 346.075634 
" style="fill:none;stroke:#f0ad4e;stroke-linecap:square;"/>
   </g>
   <g id="line2d_33">
    <path clip-path="url(#pc39bd271e8)" d="M 86.326761 191.372234 
L 143.898277 312.499305 
L 201.469792 336.86015 
L 259.041307 343.620894 
L 316.612822 346.881616 
L 374.184337 348.645627 
L 431.755852 349.81479 
L 489.327367 350.334784 
L 546.898883 350.934557 
L 604.470398 330.868447 
L 662.041913 347.237088 
L 719.613428 341.701442 
L 777.184943 349.429134 
L 834.756458 344.38486 
L 892.327973 348.977682 
L 949.899489 340.05179 
" style="fill:none;stroke:#f0ad4e;stroke-linecap:square;"/>
   </g>
   <g id="line2d_34">
    <path clip-path="url(#pc39bd271e8)" d="M 86.326761 185.744102 
L 143.898277 311.310004 
L 201.469792 336.15361 
L 259.041307 343.617354 
L 316.612822 346.845655 
L 374.184337 348.614201 
L 431.755852 349.971726 
L 489.327367 350.324611 
L 546.898883 350.99686 
L 604.470398 331.448902 
L 662.041913 347.800976 
L 719.613428 344.087036 
L 777.184943 349.987295 
L 834.756458 345.649447 
L 892.327973 349.373186 
L 949.899489 341.689437 
" style="fill:none;stroke:#f0ad4e;stroke-linecap:square;"/>
   </g>
   <g id="line2d_35">
    <path clip-path="url(#pc39bd271e8)" d="M 86.326761 202.694784 
L 143.898277 302.484706 
L 201.469792 333.458969 
L 259.041307 343.809082 
L 316.612822 347.527311 
L 374.184337 349.405855 
L 431.755852 350.427512 
L 489.327367 350.890981 
L 546.898883 351.346942 
L 604.470398 336.679003 
L 662.041913 348.353221 
L 719.613428 342.210355 
L 777.184943 347.840003 
L 834.756458 339.261094 
L 892.327973 346.675693 
L 949.899489 340.548888 
" style="fill:none;stroke:#f0ad4e;stroke-linecap:square;"/>
   </g>
   <g id="line2d_36">
    <path clip-path="url(#pc39bd271e8)" d="M 86.326761 203.562563 
L 143.898277 299.174873 
L 201.469792 332.175912 
L 259.041307 342.880519 
L 316.612822 346.819566 
L 374.184337 348.792783 
L 431.755852 349.864167 
L 489.327367 350.559178 
L 546.898883 351.079358 
L 604.470398 333.30843 
L 662.041913 347.775395 
L 719.613428 342.8025 
L 777.184943 349.239304 
L 834.756458 344.180024 
L 892.327973 348.795626 
L 949.899489 342.604201 
" style="fill:none;stroke:#f0ad4e;stroke-linecap:square;"/>
   </g>
   <g id="line2d_37">
    <path clip-path="url(#pc39bd271e8)" d="M 86.326761 181.413129 
L 143.898277 312.223893 
L 201.469792 336.614557 
L 259.041307 343.523969 
L 316.612822 346.992915 
L 374.184337 348.564579 
L 431.755852 349.611005 
L 489.327367 350.296948 
L 546.898883 350.951716 
L 604.470398 330.992144 
L 662.041913 347.820448 
L 719.613428 344.846693 
L 777.184943 350.382741 
L 834.756458 345.931051 
L 892.327973 350.240451 
L 949.899489 343.20816 
" style="fill:none;stroke:#f0ad4e;stroke-linecap:square;"/>
   </g>
   <g id="line2d_38">
    <path clip-path="url(#pc39bd271e8)" d="M 86.326761 186.154901 
L 143.898277 313.203015 
L 201.469792 337.118449 
L 259.041307 344.075983 
L 316.612822 347.256531 
L 374.184337 349.045382 
L 431.755852 349.913396 
L 489.327367 350.638203 
L 546.898883 351.056643 
L 604.470398 332.564828 
L 662.041913 347.873321 
L 719.613428 343.408217 
L 777.184943 349.390809 
L 834.756458 342.616366 
L 892.327973 348.618275 
L 949.899489 340.680081 
" style="fill:none;stroke:#f0ad4e;stroke-linecap:square;"/>
   </g>
   <g id="line2d_39">
    <path clip-path="url(#pc39bd271e8)" d="M 86.326761 181.664729 
L 143.898277 311.803336 
L 201.469792 337.049175 
L 259.041307 344.449355 
L 316.612822 347.596728 
L 374.184337 349.253715 
L 431.755852 350.212864 
L 489.327367 350.818615 
L 546.898883 351.21273 
L 604.470398 334.904645 
L 662.041913 348.423919 
L 719.613428 343.408 
L 777.184943 349.424251 
L 834.756458 342.042089 
L 892.327973 348.386751 
L 949.899489 342.963499 
" style="fill:none;stroke:#f0ad4e;stroke-linecap:square;"/>
   </g>
   <g id="line2d_40">
    <path clip-path="url(#pc39bd271e8)" d="M 86.326761 187.789249 
L 143.898277 312.334087 
L 201.469792 336.530526 
L 259.041307 343.412139 
L 316.612822 347.153897 
L 374.184337 348.732219 
L 431.755852 349.612708 
L 489.327367 350.392709 
L 546.898883 350.808387 
L 604.470398 330.952727 
L 662.041913 347.777399 
L 719.613428 343.972611 
L 777.184943 349.899372 
L 834.756458 344.720479 
L 892.327973 349.10904 
L 949.899489 340.416851 
" style="fill:none;stroke:#f0ad4e;stroke-linecap:square;"/>
   </g>
   <g id="line2d_41">
    <path clip-path="url(#pc39bd271e8)" d="M 43.148125 353.2239 
L 993.078125 353.2239 
" style="fill:none;stroke:#dedede;stroke-linecap:square;stroke-width:2;"/>
   </g>
   <g id="text_25">
    <!-- FastQC: Sequence Duplication Levels -->
    <g transform="translate(369.699375 19.3575)scale(0.16 -0.16)">
     <defs>
      <path d="M 628 4666 
L 3309 4666 
L 3309 4134 
L 1259 4134 
L 1259 2759 
L 3109 2759 
L 3109 2228 
L 1259 2228 
L 1259 0 
L 628 0 
L 628 4666 
z
" id="DejaVuSans-46" transform="scale(0.015625)"/>
      <path d="M 2834 3397 
L 2834 2853 
Q 2591 2978 2328 3040 
Q 2066 3103 1784 3103 
Q 1356 3103 1142 2972 
Q 928 2841 928 2578 
Q 928 2378 1081 2264 
Q 1234 2150 1697 2047 
L 1894 2003 
Q 2506 1872 2764 1633 
Q 3022 1394 3022 966 
Q 3022 478 2636 193 
Q 2250 -91 1575 -91 
Q 1294 -91 989 -36 
Q 684 19 347 128 
L 347 722 
Q 666 556 975 473 
Q 1284 391 1588 391 
Q 1994 391 2212 530 
Q 2431 669 2431 922 
Q 2431 1156 2273 1281 
Q 2116 1406 1581 1522 
L 1381 1569 
Q 847 1681 609 1914 
Q 372 2147 372 2553 
Q 372 3047 722 3315 
Q 1072 3584 1716 3584 
Q 2034 3584 2315 3537 
Q 2597 3491 2834 3397 
z
" id="DejaVuSans-73" transform="scale(0.015625)"/>
      <path d="M 2522 4238 
Q 1834 4238 1429 3725 
Q 1025 3213 1025 2328 
Q 1025 1447 1429 934 
Q 1834 422 2522 422 
Q 3209 422 3611 934 
Q 4013 1447 4013 2328 
Q 4013 3213 3611 3725 
Q 3209 4238 2522 4238 
z
M 3406 84 
L 4238 -825 
L 3475 -825 
L 2784 -78 
Q 2681 -84 2626 -87 
Q 2572 -91 2522 -91 
Q 1538 -91 948 567 
Q 359 1225 359 2328 
Q 359 3434 948 4092 
Q 1538 4750 2522 4750 
Q 3503 4750 4090 4092 
Q 4678 3434 4678 2328 
Q 4678 1516 4351 937 
Q 4025 359 3406 84 
z
" id="DejaVuSans-51" transform="scale(0.015625)"/>
      <path d="M 4122 4306 
L 4122 3641 
Q 3803 3938 3442 4084 
Q 3081 4231 2675 4231 
Q 1875 4231 1450 3742 
Q 1025 3253 1025 2328 
Q 1025 1406 1450 917 
Q 1875 428 2675 428 
Q 3081 428 3442 575 
Q 3803 722 4122 1019 
L 4122 359 
Q 3791 134 3420 21 
Q 3050 -91 2638 -91 
Q 1578 -91 968 557 
Q 359 1206 359 2328 
Q 359 3453 968 4101 
Q 1578 4750 2638 4750 
Q 3056 4750 3426 4639 
Q 3797 4528 4122 4306 
z
" id="DejaVuSans-43" transform="scale(0.015625)"/>
      <path d="M 750 794 
L 1409 794 
L 1409 0 
L 750 0 
L 750 794 
z
M 750 3309 
L 1409 3309 
L 1409 2516 
L 750 2516 
L 750 3309 
z
" id="DejaVuSans-3a" transform="scale(0.015625)"/>
     </defs>
     <use xlink:href="#DejaVuSans-46"/>
     <use x="48.394531" xlink:href="#DejaVuSans-61"/>
     <use x="109.673828" xlink:href="#DejaVuSans-73"/>
     <use x="161.773438" xlink:href="#DejaVuSans-74"/>
     <use x="200.982422" xlink:href="#DejaVuSans-51"/>
     <use x="279.693359" xlink:href="#DejaVuSans-43"/>
     <use x="349.517578" xlink:href="#DejaVuSans-3a"/>
     <use x="383.208984" xlink:href="#DejaVuSans-20"/>
     <use x="414.996094" xlink:href="#DejaVuSans-53"/>
     <use x="478.472656" xlink:href="#DejaVuSans-65"/>
     <use x="539.996094" xlink:href="#DejaVuSans-71"/>
     <use x="603.472656" xlink:href="#DejaVuSans-75"/>
     <use x="666.851562" xlink:href="#DejaVuSans-65"/>
     <use x="728.375" xlink:href="#DejaVuSans-6e"/>
     <use x="791.753906" xlink:href="#DejaVuSans-63"/>
     <use x="846.734375" xlink:href="#DejaVuSans-65"/>
     <use x="908.257812" xlink:href="#DejaVuSans-20"/>
     <use x="940.044922" xlink:href="#DejaVuSans-44"/>
     <use x="1017.046875" xlink:href="#DejaVuSans-75"/>
     <use x="1080.425781" xlink:href="#DejaVuSans-70"/>
     <use x="1143.902344" xlink:href="#DejaVuSans-6c"/>
     <use x="1171.685547" xlink:href="#DejaVuSans-69"/>
     <use x="1199.46875" xlink:href="#DejaVuSans-63"/>
     <use x="1254.449219" xlink:href="#DejaVuSans-61"/>
     <use x="1315.728516" xlink:href="#DejaVuSans-74"/>
     <use x="1354.9375" xlink:href="#DejaVuSans-69"/>
     <use x="1382.720703" xlink:href="#DejaVuSans-6f"/>
     <use x="1443.902344" xlink:href="#DejaVuSans-6e"/>
     <use x="1507.28125" xlink:href="#DejaVuSans-20"/>
     <use x="1539.068359" xlink:href="#DejaVuSans-4c"/>
     <use x="1593.03125" xlink:href="#DejaVuSans-65"/>
     <use x="1654.554688" xlink:href="#DejaVuSans-76"/>
     <use x="1713.734375" xlink:href="#DejaVuSans-65"/>
     <use x="1775.257812" xlink:href="#DejaVuSans-6c"/>
     <use x="1803.041016" xlink:href="#DejaVuSans-73"/>
    </g>
   </g>
  </g>
 </g>
 <defs>
  <clipPath id="pc39bd271e8">
   <rect height="317.968" width="949.93" x="43.148125" y="35.2559"/>
  </clipPath>
 </defs>
</svg>
