<?xml version="1.0" encoding="utf-8" standalone="no"?>
<!DOCTYPE svg PUBLIC "-//W3C//DTD SVG 1.1//EN"
  "http://www.w3.org/Graphics/SVG/1.1/DTD/svg11.dtd">
<svg height="388.844525pt" version="1.1" viewBox="0 0 1000.098125 388.844525" width="1000.098125pt" xmlns="http://www.w3.org/2000/svg" xmlns:xlink="http://www.w3.org/1999/xlink">
 <metadata>
  <rdf:RDF xmlns:cc="http://creativecommons.org/ns#" xmlns:dc="http://purl.org/dc/elements/1.1/" xmlns:rdf="http://www.w3.org/1999/02/22-rdf-syntax-ns#">
   <cc:Work>
    <dc:type rdf:resource="http://purl.org/dc/dcmitype/StillImage"/>
    <dc:date>2022-11-03T13:38:17.888023</dc:date>
    <dc:format>image/svg+xml</dc:format>
    <dc:creator>
     <cc:Agent>
      <dc:title>Matplotlib v3.4.2, https://matplotlib.org/</dc:title>
     </cc:Agent>
    </dc:creator>
   </cc:Work>
  </rdf:RDF>
 </metadata>
 <defs>
  <style type="text/css">*{stroke-linecap:butt;stroke-linejoin:round;}</style>
 </defs>
 <g id="figure_1">
  <g id="axes_1">
   <g id="patch_1">
    <path d="M 58.418125 353.2239 
L 985.263125 353.2239 
L 985.263125 35.2559 
L 58.418125 35.2559 
z
" style="fill:#ffffff;"/>
   </g>
   <g id="matplotlib.axis_1">
    <g id="xtick_1">
     <g id="text_1">
      <!-- 0 -->
      <g transform="translate(55.873125 366.30265)scale(0.08 -0.08)">
       <defs>
        <path d="M 2034 4250 
Q 1547 4250 1301 3770 
Q 1056 3291 1056 2328 
Q 1056 1369 1301 889 
Q 1547 409 2034 409 
Q 2525 409 2770 889 
Q 3016 1369 3016 2328 
Q 3016 3291 2770 3770 
Q 2525 4250 2034 4250 
z
M 2034 4750 
Q 2819 4750 3233 4129 
Q 3647 3509 3647 2328 
Q 3647 1150 3233 529 
Q 2819 -91 2034 -91 
Q 1250 -91 836 529 
Q 422 1150 422 2328 
Q 422 3509 836 4129 
Q 1250 4750 2034 4750 
z
" id="DejaVuSans-30" transform="scale(0.015625)"/>
       </defs>
       <use xlink:href="#DejaVuSans-30"/>
      </g>
     </g>
    </g>
    <g id="xtick_2">
     <g id="text_2">
      <!-- 20 -->
      <g transform="translate(238.697125 366.30265)scale(0.08 -0.08)">
       <defs>
        <path d="M 1228 531 
L 3431 531 
L 3431 0 
L 469 0 
L 469 531 
Q 828 903 1448 1529 
Q 2069 2156 2228 2338 
Q 2531 2678 2651 2914 
Q 2772 3150 2772 3378 
Q 2772 3750 2511 3984 
Q 2250 4219 1831 4219 
Q 1534 4219 1204 4116 
Q 875 4013 500 3803 
L 500 4441 
Q 881 4594 1212 4672 
Q 1544 4750 1819 4750 
Q 2544 4750 2975 4387 
Q 3406 4025 3406 3419 
Q 3406 3131 3298 2873 
Q 3191 2616 2906 2266 
Q 2828 2175 2409 1742 
Q 1991 1309 1228 531 
z
" id="DejaVuSans-32" transform="scale(0.015625)"/>
       </defs>
       <use xlink:href="#DejaVuSans-32"/>
       <use x="63.623047" xlink:href="#DejaVuSans-30"/>
      </g>
     </g>
    </g>
    <g id="xtick_3">
     <g id="text_3">
      <!-- 40 -->
      <g transform="translate(424.066125 366.30265)scale(0.08 -0.08)">
       <defs>
        <path d="M 2419 4116 
L 825 1625 
L 2419 1625 
L 2419 4116 
z
M 2253 4666 
L 3047 4666 
L 3047 1625 
L 3713 1625 
L 3713 1100 
L 3047 1100 
L 3047 0 
L 2419 0 
L 2419 1100 
L 313 1100 
L 313 1709 
L 2253 4666 
z
" id="DejaVuSans-34" transform="scale(0.015625)"/>
       </defs>
       <use xlink:href="#DejaVuSans-34"/>
       <use x="63.623047" xlink:href="#DejaVuSans-30"/>
      </g>
     </g>
    </g>
    <g id="xtick_4">
     <g id="text_4">
      <!-- 60 -->
      <g transform="translate(609.435125 366.30265)scale(0.08 -0.08)">
       <defs>
        <path d="M 2113 2584 
Q 1688 2584 1439 2293 
Q 1191 2003 1191 1497 
Q 1191 994 1439 701 
Q 1688 409 2113 409 
Q 2538 409 2786 701 
Q 3034 994 3034 1497 
Q 3034 2003 2786 2293 
Q 2538 2584 2113 2584 
z
M 3366 4563 
L 3366 3988 
Q 3128 4100 2886 4159 
Q 2644 4219 2406 4219 
Q 1781 4219 1451 3797 
Q 1122 3375 1075 2522 
Q 1259 2794 1537 2939 
Q 1816 3084 2150 3084 
Q 2853 3084 3261 2657 
Q 3669 2231 3669 1497 
Q 3669 778 3244 343 
Q 2819 -91 2113 -91 
Q 1303 -91 875 529 
Q 447 1150 447 2328 
Q 447 3434 972 4092 
Q 1497 4750 2381 4750 
Q 2619 4750 2861 4703 
Q 3103 4656 3366 4563 
z
" id="DejaVuSans-36" transform="scale(0.015625)"/>
       </defs>
       <use xlink:href="#DejaVuSans-36"/>
       <use x="63.623047" xlink:href="#DejaVuSans-30"/>
      </g>
     </g>
    </g>
    <g id="xtick_5">
     <g id="text_5">
      <!-- 80 -->
      <g transform="translate(794.804125 366.30265)scale(0.08 -0.08)">
       <defs>
        <path d="M 2034 2216 
Q 1584 2216 1326 1975 
Q 1069 1734 1069 1313 
Q 1069 891 1326 650 
Q 1584 409 2034 409 
Q 2484 409 2743 651 
Q 3003 894 3003 1313 
Q 3003 1734 2745 1975 
Q 2488 2216 2034 2216 
z
M 1403 2484 
Q 997 2584 770 2862 
Q 544 3141 544 3541 
Q 544 4100 942 4425 
Q 1341 4750 2034 4750 
Q 2731 4750 3128 4425 
Q 3525 4100 3525 3541 
Q 3525 3141 3298 2862 
Q 3072 2584 2669 2484 
Q 3125 2378 3379 2068 
Q 3634 1759 3634 1313 
Q 3634 634 3220 271 
Q 2806 -91 2034 -91 
Q 1263 -91 848 271 
Q 434 634 434 1313 
Q 434 1759 690 2068 
Q 947 2378 1403 2484 
z
M 1172 3481 
Q 1172 3119 1398 2916 
Q 1625 2713 2034 2713 
Q 2441 2713 2670 2916 
Q 2900 3119 2900 3481 
Q 2900 3844 2670 4047 
Q 2441 4250 2034 4250 
Q 1625 4250 1398 4047 
Q 1172 3844 1172 3481 
z
" id="DejaVuSans-38" transform="scale(0.015625)"/>
       </defs>
       <use xlink:href="#DejaVuSans-38"/>
       <use x="63.623047" xlink:href="#DejaVuSans-30"/>
      </g>
     </g>
    </g>
    <g id="xtick_6">
     <g id="text_6">
      <!-- 100 -->
      <g transform="translate(977.628125 366.30265)scale(0.08 -0.08)">
       <defs>
        <path d="M 794 531 
L 1825 531 
L 1825 4091 
L 703 3866 
L 703 4441 
L 1819 4666 
L 2450 4666 
L 2450 531 
L 3481 531 
L 3481 0 
L 794 0 
L 794 531 
z
" id="DejaVuSans-31" transform="scale(0.015625)"/>
       </defs>
       <use xlink:href="#DejaVuSans-31"/>
       <use x="63.623047" xlink:href="#DejaVuSans-30"/>
       <use x="127.246094" xlink:href="#DejaVuSans-30"/>
      </g>
     </g>
    </g>
    <g id="text_7">
     <!-- Percent of reads -->
     <g transform="translate(481.172656 379.564837)scale(0.1 -0.1)">
      <defs>
       <path d="M 1259 4147 
L 1259 2394 
L 2053 2394 
Q 2494 2394 2734 2622 
Q 2975 2850 2975 3272 
Q 2975 3691 2734 3919 
Q 2494 4147 2053 4147 
L 1259 4147 
z
M 628 4666 
L 2053 4666 
Q 2838 4666 3239 4311 
Q 3641 3956 3641 3272 
Q 3641 2581 3239 2228 
Q 2838 1875 2053 1875 
L 1259 1875 
L 1259 0 
L 628 0 
L 628 4666 
z
" id="DejaVuSans-50" transform="scale(0.015625)"/>
       <path d="M 3597 1894 
L 3597 1613 
L 953 1613 
Q 991 1019 1311 708 
Q 1631 397 2203 397 
Q 2534 397 2845 478 
Q 3156 559 3463 722 
L 3463 178 
Q 3153 47 2828 -22 
Q 2503 -91 2169 -91 
Q 1331 -91 842 396 
Q 353 884 353 1716 
Q 353 2575 817 3079 
Q 1281 3584 2069 3584 
Q 2775 3584 3186 3129 
Q 3597 2675 3597 1894 
z
M 3022 2063 
Q 3016 2534 2758 2815 
Q 2500 3097 2075 3097 
Q 1594 3097 1305 2825 
Q 1016 2553 972 2059 
L 3022 2063 
z
" id="DejaVuSans-65" transform="scale(0.015625)"/>
       <path d="M 2631 2963 
Q 2534 3019 2420 3045 
Q 2306 3072 2169 3072 
Q 1681 3072 1420 2755 
Q 1159 2438 1159 1844 
L 1159 0 
L 581 0 
L 581 3500 
L 1159 3500 
L 1159 2956 
Q 1341 3275 1631 3429 
Q 1922 3584 2338 3584 
Q 2397 3584 2469 3576 
Q 2541 3569 2628 3553 
L 2631 2963 
z
" id="DejaVuSans-72" transform="scale(0.015625)"/>
       <path d="M 3122 3366 
L 3122 2828 
Q 2878 2963 2633 3030 
Q 2388 3097 2138 3097 
Q 1578 3097 1268 2742 
Q 959 2388 959 1747 
Q 959 1106 1268 751 
Q 1578 397 2138 397 
Q 2388 397 2633 464 
Q 2878 531 3122 666 
L 3122 134 
Q 2881 22 2623 -34 
Q 2366 -91 2075 -91 
Q 1284 -91 818 406 
Q 353 903 353 1747 
Q 353 2603 823 3093 
Q 1294 3584 2113 3584 
Q 2378 3584 2631 3529 
Q 2884 3475 3122 3366 
z
" id="DejaVuSans-63" transform="scale(0.015625)"/>
       <path d="M 3513 2113 
L 3513 0 
L 2938 0 
L 2938 2094 
Q 2938 2591 2744 2837 
Q 2550 3084 2163 3084 
Q 1697 3084 1428 2787 
Q 1159 2491 1159 1978 
L 1159 0 
L 581 0 
L 581 3500 
L 1159 3500 
L 1159 2956 
Q 1366 3272 1645 3428 
Q 1925 3584 2291 3584 
Q 2894 3584 3203 3211 
Q 3513 2838 3513 2113 
z
" id="DejaVuSans-6e" transform="scale(0.015625)"/>
       <path d="M 1172 4494 
L 1172 3500 
L 2356 3500 
L 2356 3053 
L 1172 3053 
L 1172 1153 
Q 1172 725 1289 603 
Q 1406 481 1766 481 
L 2356 481 
L 2356 0 
L 1766 0 
Q 1100 0 847 248 
Q 594 497 594 1153 
L 594 3053 
L 172 3053 
L 172 3500 
L 594 3500 
L 594 4494 
L 1172 4494 
z
" id="DejaVuSans-74" transform="scale(0.015625)"/>
       <path id="DejaVuSans-20" transform="scale(0.015625)"/>
       <path d="M 1959 3097 
Q 1497 3097 1228 2736 
Q 959 2375 959 1747 
Q 959 1119 1226 758 
Q 1494 397 1959 397 
Q 2419 397 2687 759 
Q 2956 1122 2956 1747 
Q 2956 2369 2687 2733 
Q 2419 3097 1959 3097 
z
M 1959 3584 
Q 2709 3584 3137 3096 
Q 3566 2609 3566 1747 
Q 3566 888 3137 398 
Q 2709 -91 1959 -91 
Q 1206 -91 779 398 
Q 353 888 353 1747 
Q 353 2609 779 3096 
Q 1206 3584 1959 3584 
z
" id="DejaVuSans-6f" transform="scale(0.015625)"/>
       <path d="M 2375 4863 
L 2375 4384 
L 1825 4384 
Q 1516 4384 1395 4259 
Q 1275 4134 1275 3809 
L 1275 3500 
L 2222 3500 
L 2222 3053 
L 1275 3053 
L 1275 0 
L 697 0 
L 697 3053 
L 147 3053 
L 147 3500 
L 697 3500 
L 697 3744 
Q 697 4328 969 4595 
Q 1241 4863 1831 4863 
L 2375 4863 
z
" id="DejaVuSans-66" transform="scale(0.015625)"/>
       <path d="M 2194 1759 
Q 1497 1759 1228 1600 
Q 959 1441 959 1056 
Q 959 750 1161 570 
Q 1363 391 1709 391 
Q 2188 391 2477 730 
Q 2766 1069 2766 1631 
L 2766 1759 
L 2194 1759 
z
M 3341 1997 
L 3341 0 
L 2766 0 
L 2766 531 
Q 2569 213 2275 61 
Q 1981 -91 1556 -91 
Q 1019 -91 701 211 
Q 384 513 384 1019 
Q 384 1609 779 1909 
Q 1175 2209 1959 2209 
L 2766 2209 
L 2766 2266 
Q 2766 2663 2505 2880 
Q 2244 3097 1772 3097 
Q 1472 3097 1187 3025 
Q 903 2953 641 2809 
L 641 3341 
Q 956 3463 1253 3523 
Q 1550 3584 1831 3584 
Q 2591 3584 2966 3190 
Q 3341 2797 3341 1997 
z
" id="DejaVuSans-61" transform="scale(0.015625)"/>
       <path d="M 2906 2969 
L 2906 4863 
L 3481 4863 
L 3481 0 
L 2906 0 
L 2906 525 
Q 2725 213 2448 61 
Q 2172 -91 1784 -91 
Q 1150 -91 751 415 
Q 353 922 353 1747 
Q 353 2572 751 3078 
Q 1150 3584 1784 3584 
Q 2172 3584 2448 3432 
Q 2725 3281 2906 2969 
z
M 947 1747 
Q 947 1113 1208 752 
Q 1469 391 1925 391 
Q 2381 391 2643 752 
Q 2906 1113 2906 1747 
Q 2906 2381 2643 2742 
Q 2381 3103 1925 3103 
Q 1469 3103 1208 2742 
Q 947 2381 947 1747 
z
" id="DejaVuSans-64" transform="scale(0.015625)"/>
       <path d="M 2834 3397 
L 2834 2853 
Q 2591 2978 2328 3040 
Q 2066 3103 1784 3103 
Q 1356 3103 1142 2972 
Q 928 2841 928 2578 
Q 928 2378 1081 2264 
Q 1234 2150 1697 2047 
L 1894 2003 
Q 2506 1872 2764 1633 
Q 3022 1394 3022 966 
Q 3022 478 2636 193 
Q 2250 -91 1575 -91 
Q 1294 -91 989 -36 
Q 684 19 347 128 
L 347 722 
Q 666 556 975 473 
Q 1284 391 1588 391 
Q 1994 391 2212 530 
Q 2431 669 2431 922 
Q 2431 1156 2273 1281 
Q 2116 1406 1581 1522 
L 1381 1569 
Q 847 1681 609 1914 
Q 372 2147 372 2553 
Q 372 3047 722 3315 
Q 1072 3584 1716 3584 
Q 2034 3584 2315 3537 
Q 2597 3491 2834 3397 
z
" id="DejaVuSans-73" transform="scale(0.015625)"/>
      </defs>
      <use xlink:href="#DejaVuSans-50"/>
      <use x="56.677734" xlink:href="#DejaVuSans-65"/>
      <use x="118.201172" xlink:href="#DejaVuSans-72"/>
      <use x="157.064453" xlink:href="#DejaVuSans-63"/>
      <use x="212.044922" xlink:href="#DejaVuSans-65"/>
      <use x="273.568359" xlink:href="#DejaVuSans-6e"/>
      <use x="336.947266" xlink:href="#DejaVuSans-74"/>
      <use x="376.15625" xlink:href="#DejaVuSans-20"/>
      <use x="407.943359" xlink:href="#DejaVuSans-6f"/>
      <use x="469.125" xlink:href="#DejaVuSans-66"/>
      <use x="504.330078" xlink:href="#DejaVuSans-20"/>
      <use x="536.117188" xlink:href="#DejaVuSans-72"/>
      <use x="574.980469" xlink:href="#DejaVuSans-65"/>
      <use x="636.503906" xlink:href="#DejaVuSans-61"/>
      <use x="697.783203" xlink:href="#DejaVuSans-64"/>
      <use x="761.259766" xlink:href="#DejaVuSans-73"/>
     </g>
    </g>
   </g>
   <g id="matplotlib.axis_2">
    <g id="ytick_1">
     <g id="line2d_1">
      <path clip-path="url(#p107c7e8558)" d="M 58.418125 353.2239 
L 985.263125 353.2239 
" style="fill:none;stroke:#dedede;stroke-linecap:square;"/>
     </g>
     <g id="text_8">
      <!-- 0 -->
      <g transform="translate(46.328125 356.263275)scale(0.08 -0.08)">
       <use xlink:href="#DejaVuSans-30"/>
      </g>
     </g>
    </g>
    <g id="ytick_2">
     <g id="line2d_2">
      <path clip-path="url(#p107c7e8558)" d="M 58.418125 314.473353 
L 985.263125 314.473353 
" style="fill:none;stroke:#dedede;stroke-linecap:square;"/>
     </g>
     <g id="text_9">
      <!-- 50000 -->
      <g transform="translate(25.968125 317.512728)scale(0.08 -0.08)">
       <defs>
        <path d="M 691 4666 
L 3169 4666 
L 3169 4134 
L 1269 4134 
L 1269 2991 
Q 1406 3038 1543 3061 
Q 1681 3084 1819 3084 
Q 2600 3084 3056 2656 
Q 3513 2228 3513 1497 
Q 3513 744 3044 326 
Q 2575 -91 1722 -91 
Q 1428 -91 1123 -41 
Q 819 9 494 109 
L 494 744 
Q 775 591 1075 516 
Q 1375 441 1709 441 
Q 2250 441 2565 725 
Q 2881 1009 2881 1497 
Q 2881 1984 2565 2268 
Q 2250 2553 1709 2553 
Q 1456 2553 1204 2497 
Q 953 2441 691 2322 
L 691 4666 
z
" id="DejaVuSans-35" transform="scale(0.015625)"/>
       </defs>
       <use xlink:href="#DejaVuSans-35"/>
       <use x="63.623047" xlink:href="#DejaVuSans-30"/>
       <use x="127.246094" xlink:href="#DejaVuSans-30"/>
       <use x="190.869141" xlink:href="#DejaVuSans-30"/>
       <use x="254.492188" xlink:href="#DejaVuSans-30"/>
      </g>
     </g>
    </g>
    <g id="ytick_3">
     <g id="line2d_3">
      <path clip-path="url(#p107c7e8558)" d="M 58.418125 275.722806 
L 985.263125 275.722806 
" style="fill:none;stroke:#dedede;stroke-linecap:square;"/>
     </g>
     <g id="text_10">
      <!-- 100000 -->
      <g transform="translate(20.878125 278.762181)scale(0.08 -0.08)">
       <use xlink:href="#DejaVuSans-31"/>
       <use x="63.623047" xlink:href="#DejaVuSans-30"/>
       <use x="127.246094" xlink:href="#DejaVuSans-30"/>
       <use x="190.869141" xlink:href="#DejaVuSans-30"/>
       <use x="254.492188" xlink:href="#DejaVuSans-30"/>
       <use x="318.115234" xlink:href="#DejaVuSans-30"/>
      </g>
     </g>
    </g>
    <g id="ytick_4">
     <g id="line2d_4">
      <path clip-path="url(#p107c7e8558)" d="M 58.418125 236.972259 
L 985.263125 236.972259 
" style="fill:none;stroke:#dedede;stroke-linecap:square;"/>
     </g>
     <g id="text_11">
      <!-- 150000 -->
      <g transform="translate(20.878125 240.011634)scale(0.08 -0.08)">
       <use xlink:href="#DejaVuSans-31"/>
       <use x="63.623047" xlink:href="#DejaVuSans-35"/>
       <use x="127.246094" xlink:href="#DejaVuSans-30"/>
       <use x="190.869141" xlink:href="#DejaVuSans-30"/>
       <use x="254.492188" xlink:href="#DejaVuSans-30"/>
       <use x="318.115234" xlink:href="#DejaVuSans-30"/>
      </g>
     </g>
    </g>
    <g id="ytick_5">
     <g id="line2d_5">
      <path clip-path="url(#p107c7e8558)" d="M 58.418125 198.221712 
L 985.263125 198.221712 
" style="fill:none;stroke:#dedede;stroke-linecap:square;"/>
     </g>
     <g id="text_12">
      <!-- 200000 -->
      <g transform="translate(20.878125 201.261087)scale(0.08 -0.08)">
       <use xlink:href="#DejaVuSans-32"/>
       <use x="63.623047" xlink:href="#DejaVuSans-30"/>
       <use x="127.246094" xlink:href="#DejaVuSans-30"/>
       <use x="190.869141" xlink:href="#DejaVuSans-30"/>
       <use x="254.492188" xlink:href="#DejaVuSans-30"/>
       <use x="318.115234" xlink:href="#DejaVuSans-30"/>
      </g>
     </g>
    </g>
    <g id="ytick_6">
     <g id="line2d_6">
      <path clip-path="url(#p107c7e8558)" d="M 58.418125 159.471166 
L 985.263125 159.471166 
" style="fill:none;stroke:#dedede;stroke-linecap:square;"/>
     </g>
     <g id="text_13">
      <!-- 250000 -->
      <g transform="translate(20.878125 162.510541)scale(0.08 -0.08)">
       <use xlink:href="#DejaVuSans-32"/>
       <use x="63.623047" xlink:href="#DejaVuSans-35"/>
       <use x="127.246094" xlink:href="#DejaVuSans-30"/>
       <use x="190.869141" xlink:href="#DejaVuSans-30"/>
       <use x="254.492188" xlink:href="#DejaVuSans-30"/>
       <use x="318.115234" xlink:href="#DejaVuSans-30"/>
      </g>
     </g>
    </g>
    <g id="ytick_7">
     <g id="line2d_7">
      <path clip-path="url(#p107c7e8558)" d="M 58.418125 120.720619 
L 985.263125 120.720619 
" style="fill:none;stroke:#dedede;stroke-linecap:square;"/>
     </g>
     <g id="text_14">
      <!-- 300000 -->
      <g transform="translate(20.878125 123.759994)scale(0.08 -0.08)">
       <defs>
        <path d="M 2597 2516 
Q 3050 2419 3304 2112 
Q 3559 1806 3559 1356 
Q 3559 666 3084 287 
Q 2609 -91 1734 -91 
Q 1441 -91 1130 -33 
Q 819 25 488 141 
L 488 750 
Q 750 597 1062 519 
Q 1375 441 1716 441 
Q 2309 441 2620 675 
Q 2931 909 2931 1356 
Q 2931 1769 2642 2001 
Q 2353 2234 1838 2234 
L 1294 2234 
L 1294 2753 
L 1863 2753 
Q 2328 2753 2575 2939 
Q 2822 3125 2822 3475 
Q 2822 3834 2567 4026 
Q 2313 4219 1838 4219 
Q 1578 4219 1281 4162 
Q 984 4106 628 3988 
L 628 4550 
Q 988 4650 1302 4700 
Q 1616 4750 1894 4750 
Q 2613 4750 3031 4423 
Q 3450 4097 3450 3541 
Q 3450 3153 3228 2886 
Q 3006 2619 2597 2516 
z
" id="DejaVuSans-33" transform="scale(0.015625)"/>
       </defs>
       <use xlink:href="#DejaVuSans-33"/>
       <use x="63.623047" xlink:href="#DejaVuSans-30"/>
       <use x="127.246094" xlink:href="#DejaVuSans-30"/>
       <use x="190.869141" xlink:href="#DejaVuSans-30"/>
       <use x="254.492188" xlink:href="#DejaVuSans-30"/>
       <use x="318.115234" xlink:href="#DejaVuSans-30"/>
      </g>
     </g>
    </g>
    <g id="ytick_8">
     <g id="line2d_8">
      <path clip-path="url(#p107c7e8558)" d="M 58.418125 81.970072 
L 985.263125 81.970072 
" style="fill:none;stroke:#dedede;stroke-linecap:square;"/>
     </g>
     <g id="text_15">
      <!-- 350000 -->
      <g transform="translate(20.878125 85.009447)scale(0.08 -0.08)">
       <use xlink:href="#DejaVuSans-33"/>
       <use x="63.623047" xlink:href="#DejaVuSans-35"/>
       <use x="127.246094" xlink:href="#DejaVuSans-30"/>
       <use x="190.869141" xlink:href="#DejaVuSans-30"/>
       <use x="254.492188" xlink:href="#DejaVuSans-30"/>
       <use x="318.115234" xlink:href="#DejaVuSans-30"/>
      </g>
     </g>
    </g>
    <g id="ytick_9">
     <g id="line2d_9">
      <path clip-path="url(#p107c7e8558)" d="M 58.418125 43.219525 
L 985.263125 43.219525 
" style="fill:none;stroke:#dedede;stroke-linecap:square;"/>
     </g>
     <g id="text_16">
      <!-- 400000 -->
      <g transform="translate(20.878125 46.2589)scale(0.08 -0.08)">
       <use xlink:href="#DejaVuSans-34"/>
       <use x="63.623047" xlink:href="#DejaVuSans-30"/>
       <use x="127.246094" xlink:href="#DejaVuSans-30"/>
       <use x="190.869141" xlink:href="#DejaVuSans-30"/>
       <use x="254.492188" xlink:href="#DejaVuSans-30"/>
       <use x="318.115234" xlink:href="#DejaVuSans-30"/>
      </g>
     </g>
    </g>
    <g id="text_17">
     <!-- Number of Junctions -->
     <g transform="translate(14.798438 245.067244)rotate(-90)scale(0.1 -0.1)">
      <defs>
       <path d="M 628 4666 
L 1478 4666 
L 3547 763 
L 3547 4666 
L 4159 4666 
L 4159 0 
L 3309 0 
L 1241 3903 
L 1241 0 
L 628 0 
L 628 4666 
z
" id="DejaVuSans-4e" transform="scale(0.015625)"/>
       <path d="M 544 1381 
L 544 3500 
L 1119 3500 
L 1119 1403 
Q 1119 906 1312 657 
Q 1506 409 1894 409 
Q 2359 409 2629 706 
Q 2900 1003 2900 1516 
L 2900 3500 
L 3475 3500 
L 3475 0 
L 2900 0 
L 2900 538 
Q 2691 219 2414 64 
Q 2138 -91 1772 -91 
Q 1169 -91 856 284 
Q 544 659 544 1381 
z
M 1991 3584 
L 1991 3584 
z
" id="DejaVuSans-75" transform="scale(0.015625)"/>
       <path d="M 3328 2828 
Q 3544 3216 3844 3400 
Q 4144 3584 4550 3584 
Q 5097 3584 5394 3201 
Q 5691 2819 5691 2113 
L 5691 0 
L 5113 0 
L 5113 2094 
Q 5113 2597 4934 2840 
Q 4756 3084 4391 3084 
Q 3944 3084 3684 2787 
Q 3425 2491 3425 1978 
L 3425 0 
L 2847 0 
L 2847 2094 
Q 2847 2600 2669 2842 
Q 2491 3084 2119 3084 
Q 1678 3084 1418 2786 
Q 1159 2488 1159 1978 
L 1159 0 
L 581 0 
L 581 3500 
L 1159 3500 
L 1159 2956 
Q 1356 3278 1631 3431 
Q 1906 3584 2284 3584 
Q 2666 3584 2933 3390 
Q 3200 3197 3328 2828 
z
" id="DejaVuSans-6d" transform="scale(0.015625)"/>
       <path d="M 3116 1747 
Q 3116 2381 2855 2742 
Q 2594 3103 2138 3103 
Q 1681 3103 1420 2742 
Q 1159 2381 1159 1747 
Q 1159 1113 1420 752 
Q 1681 391 2138 391 
Q 2594 391 2855 752 
Q 3116 1113 3116 1747 
z
M 1159 2969 
Q 1341 3281 1617 3432 
Q 1894 3584 2278 3584 
Q 2916 3584 3314 3078 
Q 3713 2572 3713 1747 
Q 3713 922 3314 415 
Q 2916 -91 2278 -91 
Q 1894 -91 1617 61 
Q 1341 213 1159 525 
L 1159 0 
L 581 0 
L 581 4863 
L 1159 4863 
L 1159 2969 
z
" id="DejaVuSans-62" transform="scale(0.015625)"/>
       <path d="M 628 4666 
L 1259 4666 
L 1259 325 
Q 1259 -519 939 -900 
Q 619 -1281 -91 -1281 
L -331 -1281 
L -331 -750 
L -134 -750 
Q 284 -750 456 -515 
Q 628 -281 628 325 
L 628 4666 
z
" id="DejaVuSans-4a" transform="scale(0.015625)"/>
       <path d="M 603 3500 
L 1178 3500 
L 1178 0 
L 603 0 
L 603 3500 
z
M 603 4863 
L 1178 4863 
L 1178 4134 
L 603 4134 
L 603 4863 
z
" id="DejaVuSans-69" transform="scale(0.015625)"/>
      </defs>
      <use xlink:href="#DejaVuSans-4e"/>
      <use x="74.804688" xlink:href="#DejaVuSans-75"/>
      <use x="138.183594" xlink:href="#DejaVuSans-6d"/>
      <use x="235.595703" xlink:href="#DejaVuSans-62"/>
      <use x="299.072266" xlink:href="#DejaVuSans-65"/>
      <use x="360.595703" xlink:href="#DejaVuSans-72"/>
      <use x="401.708984" xlink:href="#DejaVuSans-20"/>
      <use x="433.496094" xlink:href="#DejaVuSans-6f"/>
      <use x="494.677734" xlink:href="#DejaVuSans-66"/>
      <use x="529.882812" xlink:href="#DejaVuSans-20"/>
      <use x="561.669922" xlink:href="#DejaVuSans-4a"/>
      <use x="591.162109" xlink:href="#DejaVuSans-75"/>
      <use x="654.541016" xlink:href="#DejaVuSans-6e"/>
      <use x="717.919922" xlink:href="#DejaVuSans-63"/>
      <use x="772.900391" xlink:href="#DejaVuSans-74"/>
      <use x="812.109375" xlink:href="#DejaVuSans-69"/>
      <use x="839.892578" xlink:href="#DejaVuSans-6f"/>
      <use x="901.074219" xlink:href="#DejaVuSans-6e"/>
      <use x="964.453125" xlink:href="#DejaVuSans-73"/>
     </g>
    </g>
   </g>
   <g id="line2d_10">
    <path clip-path="url(#p107c7e8558)" d="M 104.760375 303.072942 
L 151.102625 281.489663 
L 197.444875 269.118938 
L 243.787125 260.426415 
L 290.129375 253.838047 
L 336.471625 248.462571 
L 382.813875 243.813281 
L 429.156125 239.648372 
L 475.498375 235.963195 
L 521.840625 232.484946 
L 568.182875 229.282601 
L 614.525125 226.267033 
L 660.867375 223.435918 
L 707.209625 220.70788 
L 753.551875 218.152669 
L 799.894125 215.688909 
L 846.236375 213.460753 
L 892.578625 211.090769 
L 938.920875 208.876563 
L 985.263125 206.765433 
" style="fill:none;stroke:#7cb5ec;stroke-linecap:square;"/>
   </g>
   <g id="line2d_11">
    <path clip-path="url(#p107c7e8558)" d="M 104.760375 306.651168 
L 151.102625 285.809574 
L 197.444875 273.228821 
L 243.787125 264.450272 
L 290.129375 257.770453 
L 336.471625 252.270975 
L 382.813875 247.64571 
L 429.156125 243.404075 
L 475.498375 239.710373 
L 521.840625 236.264674 
L 568.182875 233.11813 
L 614.525125 230.087062 
L 660.867375 227.271447 
L 707.209625 224.59456 
L 753.551875 222.036249 
L 799.894125 219.681765 
L 846.236375 217.321857 
L 892.578625 215.112301 
L 938.920875 212.891894 
L 985.263125 210.76759 
" style="fill:none;stroke:#434348;stroke-linecap:square;"/>
   </g>
   <g id="line2d_12">
    <path clip-path="url(#p107c7e8558)" d="M 104.760375 310.017815 
L 151.102625 289.11267 
L 197.444875 276.462167 
L 243.787125 267.479015 
L 290.129375 260.689919 
L 336.471625 255.158666 
L 382.813875 250.316398 
L 429.156125 246.21814 
L 475.498375 242.495762 
L 521.840625 239.079514 
L 568.182875 235.921345 
L 614.525125 232.973978 
L 660.867375 230.192464 
L 707.209625 227.585327 
L 753.551875 225.120017 
L 799.894125 222.692683 
L 846.236375 220.464526 
L 892.578625 218.278996 
L 938.920875 216.141515 
L 985.263125 213.985435 
" style="fill:none;stroke:#90ed7d;stroke-linecap:square;"/>
   </g>
   <g id="line2d_13">
    <path clip-path="url(#p107c7e8558)" d="M 104.760375 308.022937 
L 151.102625 287.353395 
L 197.444875 275.043122 
L 243.787125 266.314173 
L 290.129375 259.68318 
L 336.471625 254.333279 
L 382.813875 249.779315 
L 429.156125 245.811259 
L 475.498375 242.319835 
L 521.840625 238.984188 
L 568.182875 235.866319 
L 614.525125 232.959253 
L 660.867375 230.333516 
L 707.209625 227.769779 
L 753.551875 225.389721 
L 799.894125 223.081738 
L 846.236375 220.876057 
L 892.578625 218.772677 
L 938.920875 216.735174 
L 985.263125 214.72557 
" style="fill:none;stroke:#f7a35c;stroke-linecap:square;"/>
   </g>
   <g id="line2d_14">
    <path clip-path="url(#p107c7e8558)" d="M 104.760375 301.11294 
L 151.102625 279.607936 
L 197.444875 266.976033 
L 243.787125 258.141683 
L 290.129375 251.330887 
L 336.471625 245.832184 
L 382.813875 241.086017 
L 429.156125 236.857558 
L 475.498375 233.030554 
L 521.840625 229.461628 
L 568.182875 226.144582 
L 614.525125 222.984862 
L 660.867375 219.950694 
L 707.209625 217.090904 
L 753.551875 214.431066 
L 799.894125 211.780529 
L 846.236375 209.300494 
L 892.578625 206.90571 
L 938.920875 204.577577 
L 985.263125 202.233944 
" style="fill:none;stroke:#8085e9;stroke-linecap:square;"/>
   </g>
   <g id="line2d_15">
    <path clip-path="url(#p107c7e8558)" d="M 104.760375 306.586842 
L 151.102625 284.887311 
L 197.444875 271.959353 
L 243.787125 263.025802 
L 290.129375 256.12433 
L 336.471625 250.4621 
L 382.813875 245.793434 
L 429.156125 241.687426 
L 475.498375 237.887547 
L 521.840625 234.320947 
L 568.182875 231.03025 
L 614.525125 227.857356 
L 660.867375 224.98439 
L 707.209625 222.178076 
L 753.551875 219.563189 
L 799.894125 217.042078 
L 846.236375 214.69922 
L 892.578625 212.304436 
L 938.920875 210.001879 
L 985.263125 207.850448 
" style="fill:none;stroke:#f15c80;stroke-linecap:square;"/>
   </g>
   <g id="line2d_16">
    <path clip-path="url(#p107c7e8558)" d="M 104.760375 299.40714 
L 151.102625 277.175177 
L 197.444875 264.198394 
L 243.787125 255.192766 
L 290.129375 248.237818 
L 336.471625 242.36401 
L 382.813875 237.277614 
L 429.156125 232.833701 
L 475.498375 228.829219 
L 521.840625 225.024691 
L 568.182875 221.43174 
L 614.525125 218.134068 
L 660.867375 214.934823 
L 707.209625 211.813079 
L 753.551875 208.926164 
L 799.894125 206.115974 
L 846.236375 203.37631 
L 892.578625 200.756773 
L 938.920875 198.197687 
L 985.263125 195.737802 
" style="fill:none;stroke:#e4d354;stroke-linecap:square;"/>
   </g>
   <g id="line2d_17">
    <path clip-path="url(#p107c7e8558)" d="M 104.760375 254.790536 
L 151.102625 225.398246 
L 197.444875 206.443803 
L 243.787125 191.344265 
L 290.129375 178.053603 
L 336.471625 166.010708 
L 382.813875 154.904801 
L 429.156125 144.511904 
L 475.498375 134.716541 
L 521.840625 125.435785 
L 568.182875 116.371257 
L 614.525125 107.728335 
L 660.867375 99.56592 
L 707.209625 91.598033 
L 753.551875 83.858773 
L 799.894125 76.393093 
L 846.236375 69.189366 
L 892.578625 62.103441 
L 938.920875 55.135318 
L 985.263125 48.408223 
" style="fill:none;stroke:#2b908f;stroke-linecap:square;"/>
   </g>
   <g id="line2d_18">
    <path clip-path="url(#p107c7e8558)" d="M 104.760375 304.354035 
L 151.102625 282.491752 
L 197.444875 269.366167 
L 243.787125 260.273738 
L 290.129375 253.359091 
L 336.471625 247.730186 
L 382.813875 242.848392 
L 429.156125 238.43238 
L 475.498375 234.526325 
L 521.840625 230.873698 
L 568.182875 227.504726 
L 614.525125 224.396932 
L 660.867375 221.434065 
L 707.209625 218.644801 
L 753.551875 215.888862 
L 799.894125 213.228249 
L 846.236375 210.575387 
L 892.578625 208.127902 
L 938.920875 205.743194 
L 985.263125 203.318959 
" style="fill:none;stroke:#f45b5b;stroke-linecap:square;"/>
   </g>
   <g id="line2d_19">
    <path clip-path="url(#p107c7e8558)" d="M 104.760375 303.716976 
L 151.102625 282.026745 
L 197.444875 269.319666 
L 243.787125 260.566692 
L 290.129375 253.867498 
L 336.471625 248.185893 
L 382.813875 243.349049 
L 429.156125 239.12214 
L 475.498375 235.22771 
L 521.840625 231.646384 
L 568.182875 228.380488 
L 614.525125 225.33547 
L 660.867375 222.329978 
L 707.209625 219.498863 
L 753.551875 216.752224 
L 799.894125 214.207863 
L 846.236375 211.722403 
L 892.578625 209.416745 
L 938.920875 207.087838 
L 985.263125 204.862781 
" style="fill:none;stroke:#91e8e1;stroke-linecap:square;"/>
   </g>
   <g id="line2d_20">
    <path clip-path="url(#p107c7e8558)" d="M 104.760375 301.074964 
L 151.102625 278.953827 
L 197.444875 265.997194 
L 243.787125 257.074493 
L 290.129375 250.110245 
L 336.471625 244.43794 
L 382.813875 239.461594 
L 429.156125 235.052557 
L 475.498375 230.984525 
L 521.840625 227.287723 
L 568.182875 223.828849 
L 614.525125 220.568378 
L 660.867375 217.438109 
L 707.209625 214.489967 
L 753.551875 211.631727 
L 799.894125 208.951739 
L 846.236375 206.246176 
L 892.578625 203.668489 
L 938.920875 201.186129 
L 985.263125 198.76577 
" style="fill:none;stroke:#7cb5ec;stroke-linecap:square;"/>
   </g>
   <g id="line2d_21">
    <path clip-path="url(#p107c7e8558)" d="M 104.760375 301.13309 
L 151.102625 278.735274 
L 197.444875 265.846067 
L 243.787125 256.683888 
L 290.129375 249.78474 
L 336.471625 244.027959 
L 382.813875 239.064789 
L 429.156125 234.654977 
L 475.498375 230.597019 
L 521.840625 226.887042 
L 568.182875 223.443668 
L 614.525125 220.159172 
L 660.867375 217.038978 
L 707.209625 214.045111 
L 753.551875 211.170595 
L 799.894125 208.487507 
L 846.236375 205.879596 
L 892.578625 203.320509 
L 938.920875 200.890075 
L 985.263125 198.586743 
" style="fill:none;stroke:#434348;stroke-linecap:square;"/>
   </g>
   <g id="line2d_22">
    <path clip-path="url(#p107c7e8558)" d="M 104.760375 304.031631 
L 151.102625 281.874068 
L 197.444875 268.808934 
L 243.787125 259.659155 
L 290.129375 252.550754 
L 336.471625 246.766073 
L 382.813875 241.671926 
L 429.156125 237.263663 
L 475.498375 233.259957 
L 521.840625 229.526729 
L 568.182875 226.000429 
L 614.525125 222.688033 
L 660.867375 219.68409 
L 707.209625 216.79795 
L 753.551875 214.01411 
L 799.894125 211.309322 
L 846.236375 208.675835 
L 892.578625 206.144649 
L 938.920875 203.639814 
L 985.263125 201.277581 
" style="fill:none;stroke:#90ed7d;stroke-linecap:square;"/>
   </g>
   <g id="line2d_23">
    <path clip-path="url(#p107c7e8558)" d="M 104.760375 301.309792 
L 151.102625 279.20958 
L 197.444875 266.483901 
L 243.787125 257.568175 
L 290.129375 250.765129 
L 336.471625 245.103674 
L 382.813875 240.243581 
L 429.156125 235.930645 
L 475.498375 232.084265 
L 521.840625 228.441714 
L 568.182875 225.091342 
L 614.525125 221.930847 
L 660.867375 218.919155 
L 707.209625 216.035339 
L 753.551875 213.2887 
L 799.894125 210.568412 
L 846.236375 208.039551 
L 892.578625 205.650967 
L 938.920875 203.181007 
L 985.263125 200.88155 
" style="fill:none;stroke:#f7a35c;stroke-linecap:square;"/>
   </g>
   <g id="line2d_24">
    <path clip-path="url(#p107c7e8558)" d="M 104.760375 306.746494 
L 151.102625 285.19964 
L 197.444875 272.188756 
L 243.787125 263.086253 
L 290.129375 256.12433 
L 336.471625 250.562076 
L 382.813875 245.745383 
L 429.156125 241.587449 
L 475.498375 237.670544 
L 521.840625 234.147344 
L 568.182875 230.913224 
L 614.525125 227.815505 
L 660.867375 224.927814 
L 707.209625 222.238526 
L 753.551875 219.653865 
L 799.894125 217.051378 
L 846.236375 214.581418 
L 892.578625 212.181209 
L 938.920875 209.939878 
L 985.263125 207.738072 
" style="fill:none;stroke:#8085e9;stroke-linecap:square;"/>
   </g>
   <g id="line2d_25">
    <path clip-path="url(#p107c7e8558)" d="M 104.760375 307.123149 
L 151.102625 285.804924 
L 197.444875 272.954467 
L 243.787125 264.182893 
L 290.129375 257.384497 
L 336.471625 251.91447 
L 382.813875 247.157453 
L 429.156125 243.005719 
L 475.498375 239.312792 
L 521.840625 235.829893 
L 568.182875 232.613598 
L 614.525125 229.683281 
L 660.867375 226.864567 
L 707.209625 224.200079 
L 753.551875 221.640218 
L 799.894125 219.178783 
L 846.236375 216.735949 
L 892.578625 214.498492 
L 938.920875 212.322261 
L 985.263125 210.167731 
" style="fill:none;stroke:#f15c80;stroke-linecap:square;"/>
   </g>
   <g id="line2d_26">
    <path clip-path="url(#p107c7e8558)" d="M 104.760375 302.874539 
L 151.102625 281.487338 
L 197.444875 269.023612 
L 243.787125 260.38534 
L 290.129375 253.741171 
L 336.471625 248.302919 
L 382.813875 243.719505 
L 429.156125 239.628997 
L 475.498375 235.852369 
L 521.840625 232.453946 
L 568.182875 229.332202 
L 614.525125 226.283308 
L 660.867375 223.390193 
L 707.209625 220.604803 
L 753.551875 217.89149 
L 799.894125 215.40603 
L 846.236375 212.980246 
L 892.578625 210.635063 
L 938.920875 208.389856 
L 985.263125 206.164025 
" style="fill:none;stroke:#e4d354;stroke-linecap:square;"/>
   </g>
   <g id="line2d_27">
    <path clip-path="url(#p107c7e8558)" d="M 104.760375 304.407511 
L 151.102625 282.842832 
L 197.444875 270.032676 
L 243.787125 261.268077 
L 290.129375 254.632434 
L 336.471625 249.349959 
L 382.813875 244.603792 
L 429.156125 240.470659 
L 475.498375 236.742856 
L 521.840625 233.307233 
L 568.182875 230.178513 
L 614.525125 227.159071 
L 660.867375 224.342681 
L 707.209625 221.675868 
L 753.551875 219.190408 
L 799.894125 216.787874 
L 846.236375 214.455092 
L 892.578625 212.189735 
L 938.920875 209.963128 
L 985.263125 207.893849 
" style="fill:none;stroke:#2b908f;stroke-linecap:square;"/>
   </g>
   <g id="line2d_28">
    <path clip-path="url(#p107c7e8558)" d="M 104.760375 306.44579 
L 151.102625 285.243816 
L 197.444875 272.334458 
L 243.787125 263.429583 
L 290.129375 256.554461 
L 336.471625 251.014683 
L 382.813875 246.392517 
L 429.156125 242.234584 
L 475.498375 238.44478 
L 521.840625 235.068057 
L 568.182875 231.911438 
L 614.525125 228.990422 
L 660.867375 226.218983 
L 707.209625 223.569995 
L 753.551875 220.993859 
L 799.894125 218.458798 
L 846.236375 216.12679 
L 892.578625 213.98156 
L 938.920875 211.780529 
L 985.263125 209.670949 
" style="fill:none;stroke:#f45b5b;stroke-linecap:square;"/>
   </g>
   <g id="line2d_29">
    <path clip-path="url(#p107c7e8558)" d="M 104.760375 300.265078 
L 151.102625 277.764185 
L 197.444875 264.718426 
L 243.787125 255.645373 
L 290.129375 248.705925 
L 336.471625 243.006494 
L 382.813875 238.05805 
L 429.156125 233.589337 
L 475.498375 229.540679 
L 521.840625 225.737701 
L 568.182875 222.290452 
L 614.525125 218.954805 
L 660.867375 215.873362 
L 707.209625 212.973271 
L 753.551875 210.09023 
L 799.894125 207.390092 
L 846.236375 204.789155 
L 892.578625 202.254094 
L 938.920875 199.84071 
L 985.263125 197.452127 
" style="fill:none;stroke:#91e8e1;stroke-linecap:square;"/>
   </g>
   <g id="line2d_30">
    <path clip-path="url(#p107c7e8558)" d="M 104.760375 303.961105 
L 151.102625 282.04302 
L 197.444875 269.22434 
L 243.787125 260.260563 
L 290.129375 253.364516 
L 336.471625 247.680585 
L 382.813875 242.829017 
L 429.156125 238.517631 
L 475.498375 234.664277 
L 521.840625 231.0256 
L 568.182875 227.583002 
L 614.525125 224.427157 
L 660.867375 221.475141 
L 707.209625 218.583575 
L 753.551875 215.923737 
L 799.894125 213.294125 
L 846.236375 210.766814 
L 892.578625 208.32553 
L 938.920875 205.926096 
L 985.263125 203.640589 
" style="fill:none;stroke:#7cb5ec;stroke-linecap:square;"/>
   </g>
   <g id="line2d_31">
    <path clip-path="url(#p107c7e8558)" d="M 104.760375 307.473454 
L 151.102625 286.672936 
L 197.444875 274.222385 
L 243.787125 265.703465 
L 290.129375 258.939169 
L 336.471625 253.511768 
L 382.813875 248.782651 
L 429.156125 244.756469 
L 475.498375 241.058892 
L 521.840625 237.775946 
L 568.182875 234.693727 
L 614.525125 231.813787 
L 660.867375 229.060948 
L 707.209625 226.429786 
L 753.551875 223.970676 
L 799.894125 221.591392 
L 846.236375 219.27101 
L 892.578625 217.046728 
L 938.920875 214.964274 
L 985.263125 212.935295 
" style="fill:none;stroke:#434348;stroke-linecap:square;"/>
   </g>
   <g id="line2d_32">
    <path clip-path="url(#p107c7e8558)" d="M 104.760375 305.118971 
L 151.102625 283.369064 
L 197.444875 270.535658 
L 243.787125 261.587382 
L 290.129375 254.69831 
L 336.471625 248.912853 
L 382.813875 243.943483 
L 429.156125 239.627447 
L 475.498375 235.734567 
L 521.840625 232.173392 
L 568.182875 228.88657 
L 614.525125 225.698175 
L 660.867375 222.677183 
L 707.209625 219.869318 
L 753.551875 217.232731 
L 799.894125 214.657369 
L 846.236375 212.092858 
L 892.578625 209.674049 
L 938.920875 207.397067 
L 985.263125 205.196036 
" style="fill:none;stroke:#90ed7d;stroke-linecap:square;"/>
   </g>
   <g id="line2d_33">
    <path clip-path="url(#p107c7e8558)" d="M 104.760375 304.215308 
L 151.102625 282.224373 
L 197.444875 269.105763 
L 243.787125 259.907933 
L 290.129375 252.811933 
L 336.471625 247.040426 
L 382.813875 242.076481 
L 429.156125 237.686044 
L 475.498375 233.642812 
L 521.840625 229.960735 
L 568.182875 226.535187 
L 614.525125 223.290991 
L 660.867375 220.256048 
L 707.209625 217.317207 
L 753.551875 214.535693 
L 799.894125 211.86733 
L 846.236375 209.338469 
L 892.578625 206.849134 
L 938.920875 204.472176 
L 985.263125 202.119242 
" style="fill:none;stroke:#f7a35c;stroke-linecap:square;"/>
   </g>
   <g id="line2d_34">
    <path clip-path="url(#p107c7e8558)" d="M 104.760375 311.454686 
L 151.102625 289.994633 
L 197.444875 276.486967 
L 243.787125 266.883031 
L 290.129375 259.390226 
L 336.471625 253.176188 
L 382.813875 247.896039 
L 429.156125 243.318049 
L 475.498375 239.155465 
L 521.840625 235.361012 
L 568.182875 231.960264 
L 614.525125 228.696693 
L 660.867375 225.524573 
L 707.209625 222.602007 
L 753.551875 219.802667 
L 799.894125 217.15368 
L 846.236375 214.613969 
L 892.578625 212.150984 
L 938.920875 209.722875 
L 985.263125 207.367617 
" style="fill:none;stroke:#8085e9;stroke-linecap:square;"/>
   </g>
   <g id="line2d_35">
    <path clip-path="url(#p107c7e8558)" d="M 104.760375 305.593278 
L 151.102625 284.337053 
L 197.444875 271.637724 
L 243.787125 262.715023 
L 290.129375 255.913527 
L 336.471625 250.374523 
L 382.813875 245.53303 
L 429.156125 241.30302 
L 475.498375 237.494617 
L 521.840625 233.937317 
L 568.182875 230.658245 
L 614.525125 227.607027 
L 660.867375 224.672061 
L 707.209625 221.913022 
L 753.551875 219.353161 
L 799.894125 216.894051 
L 846.236375 214.444241 
L 892.578625 212.115334 
L 938.920875 209.819751 
L 985.263125 207.593145 
" style="fill:none;stroke:#f15c80;stroke-linecap:square;"/>
   </g>
   <g id="line2d_36">
    <path clip-path="url(#p107c7e8558)" d="M 104.760375 300.304603 
L 151.102625 278.240817 
L 197.444875 265.363235 
L 243.787125 256.473085 
L 290.129375 249.621213 
L 336.471625 243.917132 
L 382.813875 239.008988 
L 429.156125 234.5395 
L 475.498375 230.462167 
L 521.840625 226.797141 
L 568.182875 223.304166 
L 614.525125 220.080121 
L 660.867375 216.951402 
L 707.209625 214.01256 
L 753.551875 211.16827 
L 799.894125 208.485182 
L 846.236375 205.884246 
L 892.578625 203.339885 
L 938.920875 200.877675 
L 985.263125 198.465841 
" style="fill:none;stroke:#e4d354;stroke-linecap:square;"/>
   </g>
   <g id="line2d_37">
    <path clip-path="url(#p107c7e8558)" d="M 104.760375 301.808899 
L 151.102625 280.090768 
L 197.444875 267.311613 
L 243.787125 258.64234 
L 290.129375 251.88657 
L 336.471625 246.384767 
L 382.813875 241.6479 
L 429.156125 237.332639 
L 475.498375 233.465335 
L 521.840625 229.94446 
L 568.182875 226.621213 
L 614.525125 223.506444 
L 660.867375 220.511027 
L 707.209625 217.745788 
L 753.551875 214.935598 
L 799.894125 212.24631 
L 846.236375 209.7624 
L 892.578625 207.321891 
L 938.920875 204.981358 
L 985.263125 202.689651 
" style="fill:none;stroke:#2b908f;stroke-linecap:square;"/>
   </g>
   <g id="line2d_38">
    <path clip-path="url(#p107c7e8558)" d="M 104.760375 305.896307 
L 151.102625 283.556617 
L 197.444875 269.986175 
L 243.787125 260.331089 
L 290.129375 252.880909 
L 336.471625 246.607195 
L 382.813875 241.226294 
L 429.156125 236.348376 
L 475.498375 232.05714 
L 521.840625 228.045683 
L 568.182875 224.27138 
L 614.525125 220.786156 
L 660.867375 217.479184 
L 707.209625 214.421766 
L 753.551875 211.422474 
L 799.894125 208.537883 
L 846.236375 205.749394 
L 892.578625 203.075606 
L 938.920875 200.452194 
L 985.263125 197.893108 
" style="fill:none;stroke:#f45b5b;stroke-linecap:square;"/>
   </g>
   <g id="line2d_39">
    <path clip-path="url(#p107c7e8558)" d="M 104.760375 302.004977 
L 151.102625 279.460684 
L 197.444875 266.07702 
L 243.787125 256.648237 
L 290.129375 249.487911 
L 336.471625 243.583878 
L 382.813875 238.480431 
L 429.156125 234.110919 
L 475.498375 229.95686 
L 521.840625 226.092656 
L 568.182875 222.51908 
L 614.525125 219.199709 
L 660.867375 215.979538 
L 707.209625 212.96087 
L 753.551875 210.016604 
L 799.894125 207.23509 
L 846.236375 204.537277 
L 892.578625 201.905339 
L 938.920875 199.437705 
L 985.263125 197.01037 
" style="fill:none;stroke:#91e8e1;stroke-linecap:square;"/>
   </g>
   <g id="line2d_40">
    <path clip-path="url(#p107c7e8558)" d="M 104.760375 300.285228 
L 151.102625 278.10674 
L 197.444875 265.188858 
L 243.787125 256.270032 
L 290.129375 249.313534 
L 336.471625 243.600153 
L 382.813875 238.705184 
L 429.156125 234.357372 
L 475.498375 230.293215 
L 521.840625 226.515037 
L 568.182875 223.124364 
L 614.525125 219.834442 
L 660.867375 216.678598 
L 707.209625 213.800982 
L 753.551875 211.018693 
L 799.894125 208.320105 
L 846.236375 205.724593 
L 892.578625 203.241458 
L 938.920875 200.767623 
L 985.263125 198.307739 
" style="fill:none;stroke:#7cb5ec;stroke-linecap:square;"/>
   </g>
   <g id="line2d_41">
    <path clip-path="url(#p107c7e8558)" d="M 104.760375 300.442555 
L 151.102625 277.689784 
L 197.444875 264.440972 
L 243.787125 255.124566 
L 290.129375 248.075066 
L 336.471625 242.198158 
L 382.813875 237.052085 
L 429.156125 232.508196 
L 475.498375 228.440164 
L 521.840625 224.635635 
L 568.182875 221.027184 
L 614.525125 217.669062 
L 660.867375 214.549643 
L 707.209625 211.534075 
L 753.551875 208.589809 
L 799.894125 205.774194 
L 846.236375 203.038405 
L 892.578625 200.387868 
L 938.920875 197.860557 
L 985.263125 195.308446 
" style="fill:none;stroke:#434348;stroke-linecap:square;"/>
   </g>
   <g id="line2d_42">
    <path clip-path="url(#p107c7e8558)" d="M 104.760375 304.536163 
L 151.102625 282.03217 
L 197.444875 268.478779 
L 243.787125 259.031396 
L 290.129375 251.710642 
L 336.471625 245.660907 
L 382.813875 240.52956 
L 429.156125 235.95777 
L 475.498375 231.783561 
L 521.840625 227.983682 
L 568.182875 224.428707 
L 614.525125 221.070585 
L 660.867375 217.912415 
L 707.209625 214.978999 
L 753.551875 212.056433 
L 799.894125 209.330719 
L 846.236375 206.648406 
L 892.578625 204.08622 
L 938.920875 201.61626 
L 985.263125 199.153276 
" style="fill:none;stroke:#90ed7d;stroke-linecap:square;"/>
   </g>
   <g id="line2d_43">
    <path clip-path="url(#p107c7e8558)" d="M 104.760375 297.050332 
L 151.102625 274.25416 
L 197.444875 261.142525 
L 243.787125 252.122173 
L 290.129375 245.068799 
L 336.471625 239.249241 
L 382.813875 234.100069 
L 429.156125 229.57788 
L 475.498375 225.395146 
L 521.840625 221.534041 
L 568.182875 217.89769 
L 614.525125 214.537243 
L 660.867375 211.228721 
L 707.209625 208.058926 
L 753.551875 205.12706 
L 799.894125 202.170393 
L 846.236375 199.351678 
L 892.578625 196.717416 
L 938.920875 194.159105 
L 985.263125 191.650395 
" style="fill:none;stroke:#f7a35c;stroke-linecap:square;"/>
   </g>
   <g id="line2d_44">
    <path clip-path="url(#p107c7e8558)" d="M 58.418125 353.2239 
L 985.263125 353.2239 
" style="fill:none;stroke:#dedede;stroke-linecap:square;stroke-width:2;"/>
   </g>
   <g id="text_18">
    <!-- RSeQC: Junction Saturation -->
    <g transform="translate(412.691875 19.3575)scale(0.16 -0.16)">
     <defs>
      <path d="M 2841 2188 
Q 3044 2119 3236 1894 
Q 3428 1669 3622 1275 
L 4263 0 
L 3584 0 
L 2988 1197 
Q 2756 1666 2539 1819 
Q 2322 1972 1947 1972 
L 1259 1972 
L 1259 0 
L 628 0 
L 628 4666 
L 2053 4666 
Q 2853 4666 3247 4331 
Q 3641 3997 3641 3322 
Q 3641 2881 3436 2590 
Q 3231 2300 2841 2188 
z
M 1259 4147 
L 1259 2491 
L 2053 2491 
Q 2509 2491 2742 2702 
Q 2975 2913 2975 3322 
Q 2975 3731 2742 3939 
Q 2509 4147 2053 4147 
L 1259 4147 
z
" id="DejaVuSans-52" transform="scale(0.015625)"/>
      <path d="M 3425 4513 
L 3425 3897 
Q 3066 4069 2747 4153 
Q 2428 4238 2131 4238 
Q 1616 4238 1336 4038 
Q 1056 3838 1056 3469 
Q 1056 3159 1242 3001 
Q 1428 2844 1947 2747 
L 2328 2669 
Q 3034 2534 3370 2195 
Q 3706 1856 3706 1288 
Q 3706 609 3251 259 
Q 2797 -91 1919 -91 
Q 1588 -91 1214 -16 
Q 841 59 441 206 
L 441 856 
Q 825 641 1194 531 
Q 1563 422 1919 422 
Q 2459 422 2753 634 
Q 3047 847 3047 1241 
Q 3047 1584 2836 1778 
Q 2625 1972 2144 2069 
L 1759 2144 
Q 1053 2284 737 2584 
Q 422 2884 422 3419 
Q 422 4038 858 4394 
Q 1294 4750 2059 4750 
Q 2388 4750 2728 4690 
Q 3069 4631 3425 4513 
z
" id="DejaVuSans-53" transform="scale(0.015625)"/>
      <path d="M 2522 4238 
Q 1834 4238 1429 3725 
Q 1025 3213 1025 2328 
Q 1025 1447 1429 934 
Q 1834 422 2522 422 
Q 3209 422 3611 934 
Q 4013 1447 4013 2328 
Q 4013 3213 3611 3725 
Q 3209 4238 2522 4238 
z
M 3406 84 
L 4238 -825 
L 3475 -825 
L 2784 -78 
Q 2681 -84 2626 -87 
Q 2572 -91 2522 -91 
Q 1538 -91 948 567 
Q 359 1225 359 2328 
Q 359 3434 948 4092 
Q 1538 4750 2522 4750 
Q 3503 4750 4090 4092 
Q 4678 3434 4678 2328 
Q 4678 1516 4351 937 
Q 4025 359 3406 84 
z
" id="DejaVuSans-51" transform="scale(0.015625)"/>
      <path d="M 4122 4306 
L 4122 3641 
Q 3803 3938 3442 4084 
Q 3081 4231 2675 4231 
Q 1875 4231 1450 3742 
Q 1025 3253 1025 2328 
Q 1025 1406 1450 917 
Q 1875 428 2675 428 
Q 3081 428 3442 575 
Q 3803 722 4122 1019 
L 4122 359 
Q 3791 134 3420 21 
Q 3050 -91 2638 -91 
Q 1578 -91 968 557 
Q 359 1206 359 2328 
Q 359 3453 968 4101 
Q 1578 4750 2638 4750 
Q 3056 4750 3426 4639 
Q 3797 4528 4122 4306 
z
" id="DejaVuSans-43" transform="scale(0.015625)"/>
      <path d="M 750 794 
L 1409 794 
L 1409 0 
L 750 0 
L 750 794 
z
M 750 3309 
L 1409 3309 
L 1409 2516 
L 750 2516 
L 750 3309 
z
" id="DejaVuSans-3a" transform="scale(0.015625)"/>
     </defs>
     <use xlink:href="#DejaVuSans-52"/>
     <use x="69.482422" xlink:href="#DejaVuSans-53"/>
     <use x="132.958984" xlink:href="#DejaVuSans-65"/>
     <use x="194.482422" xlink:href="#DejaVuSans-51"/>
     <use x="273.193359" xlink:href="#DejaVuSans-43"/>
     <use x="343.017578" xlink:href="#DejaVuSans-3a"/>
     <use x="376.708984" xlink:href="#DejaVuSans-20"/>
     <use x="408.496094" xlink:href="#DejaVuSans-4a"/>
     <use x="437.988281" xlink:href="#DejaVuSans-75"/>
     <use x="501.367188" xlink:href="#DejaVuSans-6e"/>
     <use x="564.746094" xlink:href="#DejaVuSans-63"/>
     <use x="619.726562" xlink:href="#DejaVuSans-74"/>
     <use x="658.935547" xlink:href="#DejaVuSans-69"/>
     <use x="686.71875" xlink:href="#DejaVuSans-6f"/>
     <use x="747.900391" xlink:href="#DejaVuSans-6e"/>
     <use x="811.279297" xlink:href="#DejaVuSans-20"/>
     <use x="843.066406" xlink:href="#DejaVuSans-53"/>
     <use x="906.542969" xlink:href="#DejaVuSans-61"/>
     <use x="967.822266" xlink:href="#DejaVuSans-74"/>
     <use x="1007.03125" xlink:href="#DejaVuSans-75"/>
     <use x="1070.410156" xlink:href="#DejaVuSans-72"/>
     <use x="1111.523438" xlink:href="#DejaVuSans-61"/>
     <use x="1172.802734" xlink:href="#DejaVuSans-74"/>
     <use x="1212.011719" xlink:href="#DejaVuSans-69"/>
     <use x="1239.794922" xlink:href="#DejaVuSans-6f"/>
     <use x="1300.976562" xlink:href="#DejaVuSans-6e"/>
    </g>
   </g>
  </g>
 </g>
 <defs>
  <clipPath id="p107c7e8558">
   <rect height="317.968" width="926.845" x="58.418125" y="35.2559"/>
  </clipPath>
 </defs>
</svg>
