<?xml version="1.0" encoding="utf-8" standalone="no"?>
<!DOCTYPE svg PUBLIC "-//W3C//DTD SVG 1.1//EN"
  "http://www.w3.org/Graphics/SVG/1.1/DTD/svg11.dtd">
<svg height="388.844525pt" version="1.1" viewBox="0 0 1000.278125 388.844525" width="1000.278125pt" xmlns="http://www.w3.org/2000/svg" xmlns:xlink="http://www.w3.org/1999/xlink">
 <metadata>
  <rdf:RDF xmlns:cc="http://creativecommons.org/ns#" xmlns:dc="http://purl.org/dc/elements/1.1/" xmlns:rdf="http://www.w3.org/1999/02/22-rdf-syntax-ns#">
   <cc:Work>
    <dc:type rdf:resource="http://purl.org/dc/dcmitype/StillImage"/>
    <dc:date>2022-11-03T13:37:57.078516</dc:date>
    <dc:format>image/svg+xml</dc:format>
    <dc:creator>
     <cc:Agent>
      <dc:title>Matplotlib v3.4.2, https://matplotlib.org/</dc:title>
     </cc:Agent>
    </dc:creator>
   </cc:Work>
  </rdf:RDF>
 </metadata>
 <defs>
  <style type="text/css">*{stroke-linecap:butt;stroke-linejoin:round;}</style>
 </defs>
 <g id="figure_1">
  <g id="axes_1">
   <g id="patch_1">
    <path d="M 43.148125 353.2239 
L 993.078125 353.2239 
L 993.078125 35.2559 
L 43.148125 35.2559 
z
" style="fill:#ffffff;"/>
   </g>
   <g id="matplotlib.axis_1">
    <g id="xtick_1">
     <g id="text_1">
      <!-- 0 -->
      <g transform="translate(83.781757 366.30265)scale(0.08 -0.08)">
       <defs>
        <path d="M 2034 4250 
Q 1547 4250 1301 3770 
Q 1056 3291 1056 2328 
Q 1056 1369 1301 889 
Q 1547 409 2034 409 
Q 2525 409 2770 889 
Q 3016 1369 3016 2328 
Q 3016 3291 2770 3770 
Q 2525 4250 2034 4250 
z
M 2034 4750 
Q 2819 4750 3233 4129 
Q 3647 3509 3647 2328 
Q 3647 1150 3233 529 
Q 2819 -91 2034 -91 
Q 1250 -91 836 529 
Q 422 1150 422 2328 
Q 422 3509 836 4129 
Q 1250 4750 2034 4750 
z
" id="DejaVuSans-30" transform="scale(0.015625)"/>
       </defs>
       <use xlink:href="#DejaVuSans-30"/>
      </g>
     </g>
    </g>
    <g id="xtick_2">
     <g id="text_2">
      <!-- 1 -->
      <g transform="translate(248.365603 366.30265)scale(0.08 -0.08)">
       <defs>
        <path d="M 794 531 
L 1825 531 
L 1825 4091 
L 703 3866 
L 703 4441 
L 1819 4666 
L 2450 4666 
L 2450 531 
L 3481 531 
L 3481 0 
L 794 0 
L 794 531 
z
" id="DejaVuSans-31" transform="scale(0.015625)"/>
       </defs>
       <use xlink:href="#DejaVuSans-31"/>
      </g>
     </g>
    </g>
    <g id="xtick_3">
     <g id="text_3">
      <!-- 2 -->
      <g transform="translate(412.94945 366.30265)scale(0.08 -0.08)">
       <defs>
        <path d="M 1228 531 
L 3431 531 
L 3431 0 
L 469 0 
L 469 531 
Q 828 903 1448 1529 
Q 2069 2156 2228 2338 
Q 2531 2678 2651 2914 
Q 2772 3150 2772 3378 
Q 2772 3750 2511 3984 
Q 2250 4219 1831 4219 
Q 1534 4219 1204 4116 
Q 875 4013 500 3803 
L 500 4441 
Q 881 4594 1212 4672 
Q 1544 4750 1819 4750 
Q 2544 4750 2975 4387 
Q 3406 4025 3406 3419 
Q 3406 3131 3298 2873 
Q 3191 2616 2906 2266 
Q 2828 2175 2409 1742 
Q 1991 1309 1228 531 
z
" id="DejaVuSans-32" transform="scale(0.015625)"/>
       </defs>
       <use xlink:href="#DejaVuSans-32"/>
      </g>
     </g>
    </g>
    <g id="xtick_4">
     <g id="text_4">
      <!-- 3 -->
      <g transform="translate(577.533296 366.30265)scale(0.08 -0.08)">
       <defs>
        <path d="M 2597 2516 
Q 3050 2419 3304 2112 
Q 3559 1806 3559 1356 
Q 3559 666 3084 287 
Q 2609 -91 1734 -91 
Q 1441 -91 1130 -33 
Q 819 25 488 141 
L 488 750 
Q 750 597 1062 519 
Q 1375 441 1716 441 
Q 2309 441 2620 675 
Q 2931 909 2931 1356 
Q 2931 1769 2642 2001 
Q 2353 2234 1838 2234 
L 1294 2234 
L 1294 2753 
L 1863 2753 
Q 2328 2753 2575 2939 
Q 2822 3125 2822 3475 
Q 2822 3834 2567 4026 
Q 2313 4219 1838 4219 
Q 1578 4219 1281 4162 
Q 984 4106 628 3988 
L 628 4550 
Q 988 4650 1302 4700 
Q 1616 4750 1894 4750 
Q 2613 4750 3031 4423 
Q 3450 4097 3450 3541 
Q 3450 3153 3228 2886 
Q 3006 2619 2597 2516 
z
" id="DejaVuSans-33" transform="scale(0.015625)"/>
       </defs>
       <use xlink:href="#DejaVuSans-33"/>
      </g>
     </g>
    </g>
    <g id="xtick_5">
     <g id="text_5">
      <!-- 4 -->
      <g transform="translate(742.117142 366.30265)scale(0.08 -0.08)">
       <defs>
        <path d="M 2419 4116 
L 825 1625 
L 2419 1625 
L 2419 4116 
z
M 2253 4666 
L 3047 4666 
L 3047 1625 
L 3713 1625 
L 3713 1100 
L 3047 1100 
L 3047 0 
L 2419 0 
L 2419 1100 
L 313 1100 
L 313 1709 
L 2253 4666 
z
" id="DejaVuSans-34" transform="scale(0.015625)"/>
       </defs>
       <use xlink:href="#DejaVuSans-34"/>
      </g>
     </g>
    </g>
    <g id="xtick_6">
     <g id="text_6">
      <!-- 5 -->
      <g transform="translate(906.700989 366.30265)scale(0.08 -0.08)">
       <defs>
        <path d="M 691 4666 
L 3169 4666 
L 3169 4134 
L 1269 4134 
L 1269 2991 
Q 1406 3038 1543 3061 
Q 1681 3084 1819 3084 
Q 2600 3084 3056 2656 
Q 3513 2228 3513 1497 
Q 3513 744 3044 326 
Q 2575 -91 1722 -91 
Q 1428 -91 1123 -41 
Q 819 9 494 109 
L 494 744 
Q 775 591 1075 516 
Q 1375 441 1709 441 
Q 2250 441 2565 725 
Q 2881 1009 2881 1497 
Q 2881 1984 2565 2268 
Q 2250 2553 1709 2553 
Q 1456 2553 1204 2497 
Q 953 2441 691 2322 
L 691 4666 
z
" id="DejaVuSans-35" transform="scale(0.015625)"/>
       </defs>
       <use xlink:href="#DejaVuSans-35"/>
      </g>
     </g>
    </g>
    <g id="text_7">
     <!-- expression (reads/kbp) -->
     <g transform="translate(460.863125 379.564837)scale(0.1 -0.1)">
      <defs>
       <path d="M 3597 1894 
L 3597 1613 
L 953 1613 
Q 991 1019 1311 708 
Q 1631 397 2203 397 
Q 2534 397 2845 478 
Q 3156 559 3463 722 
L 3463 178 
Q 3153 47 2828 -22 
Q 2503 -91 2169 -91 
Q 1331 -91 842 396 
Q 353 884 353 1716 
Q 353 2575 817 3079 
Q 1281 3584 2069 3584 
Q 2775 3584 3186 3129 
Q 3597 2675 3597 1894 
z
M 3022 2063 
Q 3016 2534 2758 2815 
Q 2500 3097 2075 3097 
Q 1594 3097 1305 2825 
Q 1016 2553 972 2059 
L 3022 2063 
z
" id="DejaVuSans-65" transform="scale(0.015625)"/>
       <path d="M 3513 3500 
L 2247 1797 
L 3578 0 
L 2900 0 
L 1881 1375 
L 863 0 
L 184 0 
L 1544 1831 
L 300 3500 
L 978 3500 
L 1906 2253 
L 2834 3500 
L 3513 3500 
z
" id="DejaVuSans-78" transform="scale(0.015625)"/>
       <path d="M 1159 525 
L 1159 -1331 
L 581 -1331 
L 581 3500 
L 1159 3500 
L 1159 2969 
Q 1341 3281 1617 3432 
Q 1894 3584 2278 3584 
Q 2916 3584 3314 3078 
Q 3713 2572 3713 1747 
Q 3713 922 3314 415 
Q 2916 -91 2278 -91 
Q 1894 -91 1617 61 
Q 1341 213 1159 525 
z
M 3116 1747 
Q 3116 2381 2855 2742 
Q 2594 3103 2138 3103 
Q 1681 3103 1420 2742 
Q 1159 2381 1159 1747 
Q 1159 1113 1420 752 
Q 1681 391 2138 391 
Q 2594 391 2855 752 
Q 3116 1113 3116 1747 
z
" id="DejaVuSans-70" transform="scale(0.015625)"/>
       <path d="M 2631 2963 
Q 2534 3019 2420 3045 
Q 2306 3072 2169 3072 
Q 1681 3072 1420 2755 
Q 1159 2438 1159 1844 
L 1159 0 
L 581 0 
L 581 3500 
L 1159 3500 
L 1159 2956 
Q 1341 3275 1631 3429 
Q 1922 3584 2338 3584 
Q 2397 3584 2469 3576 
Q 2541 3569 2628 3553 
L 2631 2963 
z
" id="DejaVuSans-72" transform="scale(0.015625)"/>
       <path d="M 2834 3397 
L 2834 2853 
Q 2591 2978 2328 3040 
Q 2066 3103 1784 3103 
Q 1356 3103 1142 2972 
Q 928 2841 928 2578 
Q 928 2378 1081 2264 
Q 1234 2150 1697 2047 
L 1894 2003 
Q 2506 1872 2764 1633 
Q 3022 1394 3022 966 
Q 3022 478 2636 193 
Q 2250 -91 1575 -91 
Q 1294 -91 989 -36 
Q 684 19 347 128 
L 347 722 
Q 666 556 975 473 
Q 1284 391 1588 391 
Q 1994 391 2212 530 
Q 2431 669 2431 922 
Q 2431 1156 2273 1281 
Q 2116 1406 1581 1522 
L 1381 1569 
Q 847 1681 609 1914 
Q 372 2147 372 2553 
Q 372 3047 722 3315 
Q 1072 3584 1716 3584 
Q 2034 3584 2315 3537 
Q 2597 3491 2834 3397 
z
" id="DejaVuSans-73" transform="scale(0.015625)"/>
       <path d="M 603 3500 
L 1178 3500 
L 1178 0 
L 603 0 
L 603 3500 
z
M 603 4863 
L 1178 4863 
L 1178 4134 
L 603 4134 
L 603 4863 
z
" id="DejaVuSans-69" transform="scale(0.015625)"/>
       <path d="M 1959 3097 
Q 1497 3097 1228 2736 
Q 959 2375 959 1747 
Q 959 1119 1226 758 
Q 1494 397 1959 397 
Q 2419 397 2687 759 
Q 2956 1122 2956 1747 
Q 2956 2369 2687 2733 
Q 2419 3097 1959 3097 
z
M 1959 3584 
Q 2709 3584 3137 3096 
Q 3566 2609 3566 1747 
Q 3566 888 3137 398 
Q 2709 -91 1959 -91 
Q 1206 -91 779 398 
Q 353 888 353 1747 
Q 353 2609 779 3096 
Q 1206 3584 1959 3584 
z
" id="DejaVuSans-6f" transform="scale(0.015625)"/>
       <path d="M 3513 2113 
L 3513 0 
L 2938 0 
L 2938 2094 
Q 2938 2591 2744 2837 
Q 2550 3084 2163 3084 
Q 1697 3084 1428 2787 
Q 1159 2491 1159 1978 
L 1159 0 
L 581 0 
L 581 3500 
L 1159 3500 
L 1159 2956 
Q 1366 3272 1645 3428 
Q 1925 3584 2291 3584 
Q 2894 3584 3203 3211 
Q 3513 2838 3513 2113 
z
" id="DejaVuSans-6e" transform="scale(0.015625)"/>
       <path id="DejaVuSans-20" transform="scale(0.015625)"/>
       <path d="M 1984 4856 
Q 1566 4138 1362 3434 
Q 1159 2731 1159 2009 
Q 1159 1288 1364 580 
Q 1569 -128 1984 -844 
L 1484 -844 
Q 1016 -109 783 600 
Q 550 1309 550 2009 
Q 550 2706 781 3412 
Q 1013 4119 1484 4856 
L 1984 4856 
z
" id="DejaVuSans-28" transform="scale(0.015625)"/>
       <path d="M 2194 1759 
Q 1497 1759 1228 1600 
Q 959 1441 959 1056 
Q 959 750 1161 570 
Q 1363 391 1709 391 
Q 2188 391 2477 730 
Q 2766 1069 2766 1631 
L 2766 1759 
L 2194 1759 
z
M 3341 1997 
L 3341 0 
L 2766 0 
L 2766 531 
Q 2569 213 2275 61 
Q 1981 -91 1556 -91 
Q 1019 -91 701 211 
Q 384 513 384 1019 
Q 384 1609 779 1909 
Q 1175 2209 1959 2209 
L 2766 2209 
L 2766 2266 
Q 2766 2663 2505 2880 
Q 2244 3097 1772 3097 
Q 1472 3097 1187 3025 
Q 903 2953 641 2809 
L 641 3341 
Q 956 3463 1253 3523 
Q 1550 3584 1831 3584 
Q 2591 3584 2966 3190 
Q 3341 2797 3341 1997 
z
" id="DejaVuSans-61" transform="scale(0.015625)"/>
       <path d="M 2906 2969 
L 2906 4863 
L 3481 4863 
L 3481 0 
L 2906 0 
L 2906 525 
Q 2725 213 2448 61 
Q 2172 -91 1784 -91 
Q 1150 -91 751 415 
Q 353 922 353 1747 
Q 353 2572 751 3078 
Q 1150 3584 1784 3584 
Q 2172 3584 2448 3432 
Q 2725 3281 2906 2969 
z
M 947 1747 
Q 947 1113 1208 752 
Q 1469 391 1925 391 
Q 2381 391 2643 752 
Q 2906 1113 2906 1747 
Q 2906 2381 2643 2742 
Q 2381 3103 1925 3103 
Q 1469 3103 1208 2742 
Q 947 2381 947 1747 
z
" id="DejaVuSans-64" transform="scale(0.015625)"/>
       <path d="M 1625 4666 
L 2156 4666 
L 531 -594 
L 0 -594 
L 1625 4666 
z
" id="DejaVuSans-2f" transform="scale(0.015625)"/>
       <path d="M 581 4863 
L 1159 4863 
L 1159 1991 
L 2875 3500 
L 3609 3500 
L 1753 1863 
L 3688 0 
L 2938 0 
L 1159 1709 
L 1159 0 
L 581 0 
L 581 4863 
z
" id="DejaVuSans-6b" transform="scale(0.015625)"/>
       <path d="M 3116 1747 
Q 3116 2381 2855 2742 
Q 2594 3103 2138 3103 
Q 1681 3103 1420 2742 
Q 1159 2381 1159 1747 
Q 1159 1113 1420 752 
Q 1681 391 2138 391 
Q 2594 391 2855 752 
Q 3116 1113 3116 1747 
z
M 1159 2969 
Q 1341 3281 1617 3432 
Q 1894 3584 2278 3584 
Q 2916 3584 3314 3078 
Q 3713 2572 3713 1747 
Q 3713 922 3314 415 
Q 2916 -91 2278 -91 
Q 1894 -91 1617 61 
Q 1341 213 1159 525 
L 1159 0 
L 581 0 
L 581 4863 
L 1159 4863 
L 1159 2969 
z
" id="DejaVuSans-62" transform="scale(0.015625)"/>
       <path d="M 513 4856 
L 1013 4856 
Q 1481 4119 1714 3412 
Q 1947 2706 1947 2009 
Q 1947 1309 1714 600 
Q 1481 -109 1013 -844 
L 513 -844 
Q 928 -128 1133 580 
Q 1338 1288 1338 2009 
Q 1338 2731 1133 3434 
Q 928 4138 513 4856 
z
" id="DejaVuSans-29" transform="scale(0.015625)"/>
      </defs>
      <use xlink:href="#DejaVuSans-65"/>
      <use x="59.773438" xlink:href="#DejaVuSans-78"/>
      <use x="118.953125" xlink:href="#DejaVuSans-70"/>
      <use x="182.429688" xlink:href="#DejaVuSans-72"/>
      <use x="221.292969" xlink:href="#DejaVuSans-65"/>
      <use x="282.816406" xlink:href="#DejaVuSans-73"/>
      <use x="334.916016" xlink:href="#DejaVuSans-73"/>
      <use x="387.015625" xlink:href="#DejaVuSans-69"/>
      <use x="414.798828" xlink:href="#DejaVuSans-6f"/>
      <use x="475.980469" xlink:href="#DejaVuSans-6e"/>
      <use x="539.359375" xlink:href="#DejaVuSans-20"/>
      <use x="571.146484" xlink:href="#DejaVuSans-28"/>
      <use x="610.160156" xlink:href="#DejaVuSans-72"/>
      <use x="649.023438" xlink:href="#DejaVuSans-65"/>
      <use x="710.546875" xlink:href="#DejaVuSans-61"/>
      <use x="771.826172" xlink:href="#DejaVuSans-64"/>
      <use x="835.302734" xlink:href="#DejaVuSans-73"/>
      <use x="887.402344" xlink:href="#DejaVuSans-2f"/>
      <use x="921.09375" xlink:href="#DejaVuSans-6b"/>
      <use x="979.003906" xlink:href="#DejaVuSans-62"/>
      <use x="1042.480469" xlink:href="#DejaVuSans-70"/>
      <use x="1105.957031" xlink:href="#DejaVuSans-29"/>
     </g>
    </g>
    <g id="text_8">
     <!-- 1e6 -->
     <g transform="translate(974.2 378.564837)scale(0.1 -0.1)">
      <defs>
       <path d="M 2113 2584 
Q 1688 2584 1439 2293 
Q 1191 2003 1191 1497 
Q 1191 994 1439 701 
Q 1688 409 2113 409 
Q 2538 409 2786 701 
Q 3034 994 3034 1497 
Q 3034 2003 2786 2293 
Q 2538 2584 2113 2584 
z
M 3366 4563 
L 3366 3988 
Q 3128 4100 2886 4159 
Q 2644 4219 2406 4219 
Q 1781 4219 1451 3797 
Q 1122 3375 1075 2522 
Q 1259 2794 1537 2939 
Q 1816 3084 2150 3084 
Q 2853 3084 3261 2657 
Q 3669 2231 3669 1497 
Q 3669 778 3244 343 
Q 2819 -91 2113 -91 
Q 1303 -91 875 529 
Q 447 1150 447 2328 
Q 447 3434 972 4092 
Q 1497 4750 2381 4750 
Q 2619 4750 2861 4703 
Q 3103 4656 3366 4563 
z
" id="DejaVuSans-36" transform="scale(0.015625)"/>
      </defs>
      <use xlink:href="#DejaVuSans-31"/>
      <use x="63.623047" xlink:href="#DejaVuSans-65"/>
      <use x="125.146484" xlink:href="#DejaVuSans-36"/>
     </g>
    </g>
   </g>
   <g id="matplotlib.axis_2">
    <g id="ytick_1">
     <g id="line2d_1">
      <path clip-path="url(#p1991625b99)" d="M 43.148125 353.2239 
L 993.078125 353.2239 
" style="fill:none;stroke:#dedede;stroke-linecap:square;"/>
     </g>
     <g id="text_9">
      <!-- 0 -->
      <g transform="translate(31.058125 356.263275)scale(0.08 -0.08)">
       <use xlink:href="#DejaVuSans-30"/>
      </g>
     </g>
    </g>
    <g id="ytick_2">
     <g id="line2d_2">
      <path clip-path="url(#p1991625b99)" d="M 43.148125 289.6303 
L 993.078125 289.6303 
" style="fill:none;stroke:#dedede;stroke-linecap:square;"/>
     </g>
     <g id="text_10">
      <!-- 20 -->
      <g transform="translate(25.968125 292.669675)scale(0.08 -0.08)">
       <use xlink:href="#DejaVuSans-32"/>
       <use x="63.623047" xlink:href="#DejaVuSans-30"/>
      </g>
     </g>
    </g>
    <g id="ytick_3">
     <g id="line2d_3">
      <path clip-path="url(#p1991625b99)" d="M 43.148125 226.0367 
L 993.078125 226.0367 
" style="fill:none;stroke:#dedede;stroke-linecap:square;"/>
     </g>
     <g id="text_11">
      <!-- 40 -->
      <g transform="translate(25.968125 229.076075)scale(0.08 -0.08)">
       <use xlink:href="#DejaVuSans-34"/>
       <use x="63.623047" xlink:href="#DejaVuSans-30"/>
      </g>
     </g>
    </g>
    <g id="ytick_4">
     <g id="line2d_4">
      <path clip-path="url(#p1991625b99)" d="M 43.148125 162.4431 
L 993.078125 162.4431 
" style="fill:none;stroke:#dedede;stroke-linecap:square;"/>
     </g>
     <g id="text_12">
      <!-- 60 -->
      <g transform="translate(25.968125 165.482475)scale(0.08 -0.08)">
       <use xlink:href="#DejaVuSans-36"/>
       <use x="63.623047" xlink:href="#DejaVuSans-30"/>
      </g>
     </g>
    </g>
    <g id="ytick_5">
     <g id="line2d_5">
      <path clip-path="url(#p1991625b99)" d="M 43.148125 98.8495 
L 993.078125 98.8495 
" style="fill:none;stroke:#dedede;stroke-linecap:square;"/>
     </g>
     <g id="text_13">
      <!-- 80 -->
      <g transform="translate(25.968125 101.888875)scale(0.08 -0.08)">
       <defs>
        <path d="M 2034 2216 
Q 1584 2216 1326 1975 
Q 1069 1734 1069 1313 
Q 1069 891 1326 650 
Q 1584 409 2034 409 
Q 2484 409 2743 651 
Q 3003 894 3003 1313 
Q 3003 1734 2745 1975 
Q 2488 2216 2034 2216 
z
M 1403 2484 
Q 997 2584 770 2862 
Q 544 3141 544 3541 
Q 544 4100 942 4425 
Q 1341 4750 2034 4750 
Q 2731 4750 3128 4425 
Q 3525 4100 3525 3541 
Q 3525 3141 3298 2862 
Q 3072 2584 2669 2484 
Q 3125 2378 3379 2068 
Q 3634 1759 3634 1313 
Q 3634 634 3220 271 
Q 2806 -91 2034 -91 
Q 1263 -91 848 271 
Q 434 634 434 1313 
Q 434 1759 690 2068 
Q 947 2378 1403 2484 
z
M 1172 3481 
Q 1172 3119 1398 2916 
Q 1625 2713 2034 2713 
Q 2441 2713 2670 2916 
Q 2900 3119 2900 3481 
Q 2900 3844 2670 4047 
Q 2441 4250 2034 4250 
Q 1625 4250 1398 4047 
Q 1172 3844 1172 3481 
z
" id="DejaVuSans-38" transform="scale(0.015625)"/>
       </defs>
       <use xlink:href="#DejaVuSans-38"/>
       <use x="63.623047" xlink:href="#DejaVuSans-30"/>
      </g>
     </g>
    </g>
    <g id="ytick_6">
     <g id="line2d_6">
      <path clip-path="url(#p1991625b99)" d="M 43.148125 35.2559 
L 993.078125 35.2559 
" style="fill:none;stroke:#dedede;stroke-linecap:square;"/>
     </g>
     <g id="text_14">
      <!-- 100 -->
      <g transform="translate(20.878125 38.295275)scale(0.08 -0.08)">
       <use xlink:href="#DejaVuSans-31"/>
       <use x="63.623047" xlink:href="#DejaVuSans-30"/>
       <use x="127.246094" xlink:href="#DejaVuSans-30"/>
      </g>
     </g>
    </g>
    <g id="text_15">
     <!-- % duplicate reads -->
     <g transform="translate(14.798438 239.176619)rotate(-90)scale(0.1 -0.1)">
      <defs>
       <path d="M 4653 2053 
Q 4381 2053 4226 1822 
Q 4072 1591 4072 1178 
Q 4072 772 4226 539 
Q 4381 306 4653 306 
Q 4919 306 5073 539 
Q 5228 772 5228 1178 
Q 5228 1588 5073 1820 
Q 4919 2053 4653 2053 
z
M 4653 2450 
Q 5147 2450 5437 2106 
Q 5728 1763 5728 1178 
Q 5728 594 5436 251 
Q 5144 -91 4653 -91 
Q 4153 -91 3862 251 
Q 3572 594 3572 1178 
Q 3572 1766 3864 2108 
Q 4156 2450 4653 2450 
z
M 1428 4353 
Q 1159 4353 1004 4120 
Q 850 3888 850 3481 
Q 850 3069 1003 2837 
Q 1156 2606 1428 2606 
Q 1700 2606 1854 2837 
Q 2009 3069 2009 3481 
Q 2009 3884 1853 4118 
Q 1697 4353 1428 4353 
z
M 4250 4750 
L 4750 4750 
L 1831 -91 
L 1331 -91 
L 4250 4750 
z
M 1428 4750 
Q 1922 4750 2215 4408 
Q 2509 4066 2509 3481 
Q 2509 2891 2217 2550 
Q 1925 2209 1428 2209 
Q 931 2209 642 2551 
Q 353 2894 353 3481 
Q 353 4063 643 4406 
Q 934 4750 1428 4750 
z
" id="DejaVuSans-25" transform="scale(0.015625)"/>
       <path d="M 544 1381 
L 544 3500 
L 1119 3500 
L 1119 1403 
Q 1119 906 1312 657 
Q 1506 409 1894 409 
Q 2359 409 2629 706 
Q 2900 1003 2900 1516 
L 2900 3500 
L 3475 3500 
L 3475 0 
L 2900 0 
L 2900 538 
Q 2691 219 2414 64 
Q 2138 -91 1772 -91 
Q 1169 -91 856 284 
Q 544 659 544 1381 
z
M 1991 3584 
L 1991 3584 
z
" id="DejaVuSans-75" transform="scale(0.015625)"/>
       <path d="M 603 4863 
L 1178 4863 
L 1178 0 
L 603 0 
L 603 4863 
z
" id="DejaVuSans-6c" transform="scale(0.015625)"/>
       <path d="M 3122 3366 
L 3122 2828 
Q 2878 2963 2633 3030 
Q 2388 3097 2138 3097 
Q 1578 3097 1268 2742 
Q 959 2388 959 1747 
Q 959 1106 1268 751 
Q 1578 397 2138 397 
Q 2388 397 2633 464 
Q 2878 531 3122 666 
L 3122 134 
Q 2881 22 2623 -34 
Q 2366 -91 2075 -91 
Q 1284 -91 818 406 
Q 353 903 353 1747 
Q 353 2603 823 3093 
Q 1294 3584 2113 3584 
Q 2378 3584 2631 3529 
Q 2884 3475 3122 3366 
z
" id="DejaVuSans-63" transform="scale(0.015625)"/>
       <path d="M 1172 4494 
L 1172 3500 
L 2356 3500 
L 2356 3053 
L 1172 3053 
L 1172 1153 
Q 1172 725 1289 603 
Q 1406 481 1766 481 
L 2356 481 
L 2356 0 
L 1766 0 
Q 1100 0 847 248 
Q 594 497 594 1153 
L 594 3053 
L 172 3053 
L 172 3500 
L 594 3500 
L 594 4494 
L 1172 4494 
z
" id="DejaVuSans-74" transform="scale(0.015625)"/>
      </defs>
      <use xlink:href="#DejaVuSans-25"/>
      <use x="95.019531" xlink:href="#DejaVuSans-20"/>
      <use x="126.806641" xlink:href="#DejaVuSans-64"/>
      <use x="190.283203" xlink:href="#DejaVuSans-75"/>
      <use x="253.662109" xlink:href="#DejaVuSans-70"/>
      <use x="317.138672" xlink:href="#DejaVuSans-6c"/>
      <use x="344.921875" xlink:href="#DejaVuSans-69"/>
      <use x="372.705078" xlink:href="#DejaVuSans-63"/>
      <use x="427.685547" xlink:href="#DejaVuSans-61"/>
      <use x="488.964844" xlink:href="#DejaVuSans-74"/>
      <use x="528.173828" xlink:href="#DejaVuSans-65"/>
      <use x="589.697266" xlink:href="#DejaVuSans-20"/>
      <use x="621.484375" xlink:href="#DejaVuSans-72"/>
      <use x="660.347656" xlink:href="#DejaVuSans-65"/>
      <use x="721.871094" xlink:href="#DejaVuSans-61"/>
      <use x="783.150391" xlink:href="#DejaVuSans-64"/>
      <use x="846.626953" xlink:href="#DejaVuSans-73"/>
     </g>
    </g>
   </g>
   <g id="line2d_7">
    <path clip-path="url(#p1991625b99)" d="M 86.326761 352.367862 
L 86.438919 169.399082 
L 86.658064 121.978095 
L 86.962649 99.093985 
L 87.349556 85.476989 
L 87.718714 77.975583 
L 88.239763 71.25055 
L 90.231287 59.444406 
L 156.771531 39.619369 
L 156.771531 39.619369 
" style="fill:none;stroke:#7cb5ec;stroke-linecap:square;"/>
   </g>
   <g id="line2d_8">
    <path clip-path="url(#p1991625b99)" d="M 86.326765 351.514538 
L 86.438723 175.393408 
L 86.653816 130.105472 
L 86.913546 109.312954 
L 87.25235 95.455803 
L 87.66512 85.768994 
L 88.312346 76.84824 
L 89.518434 67.924422 
L 97.380116 52.118646 
L 97.380116 52.118646 
" style="fill:none;stroke:#434348;stroke-linecap:square;"/>
   </g>
   <g id="line2d_9">
    <path clip-path="url(#p1991625b99)" d="M 86.326761 351.356597 
L 86.438472 183.558542 
L 86.668636 139.641908 
L 86.925207 120.338142 
L 87.17388 109.564399 
L 87.802388 94.407803 
L 89.060793 80.494109 
L 94.214871 63.009302 
L 237.88538 41.667553 
L 237.88538 41.667553 
" style="fill:none;stroke:#90ed7d;stroke-linecap:square;"/>
   </g>
   <g id="line2d_10">
    <path clip-path="url(#p1991625b99)" d="M 86.326766 351.157335 
L 86.439305 176.169429 
L 86.656112 131.92707 
L 86.974195 108.530551 
L 87.338309 95.422029 
L 87.726527 87.063946 
L 88.018533 82.635594 
L 88.911521 73.858464 
L 91.168731 63.452886 
L 182.846154 40.965583 
L 182.846154 40.965583 
" style="fill:none;stroke:#f7a35c;stroke-linecap:square;"/>
   </g>
   <g id="line2d_11">
    <path clip-path="url(#p1991625b99)" d="M 86.326767 350.716037 
L 86.439008 174.206261 
L 86.661312 130.392211 
L 86.984744 107.658349 
L 87.333278 95.475542 
L 87.86069 85.013762 
L 88.584642 76.763047 
L 90.538992 65.918251 
L 102.162538 50.885902 
L 102.162538 50.885902 
" style="fill:none;stroke:#8085e9;stroke-linecap:square;"/>
   </g>
   <g id="line2d_12">
    <path clip-path="url(#p1991625b99)" d="M 86.326766 350.602338 
L 86.438804 182.079515 
L 86.646924 140.409545 
L 86.96738 116.497644 
L 87.184341 107.578702 
L 87.435221 100.322144 
L 87.842987 92.215733 
L 88.295705 86.076413 
L 90.825624 70.139584 
L 123.156964 47.726577 
L 123.156964 47.726577 
" style="fill:none;stroke:#f15c80;stroke-linecap:square;"/>
   </g>
   <g id="line2d_13">
    <path clip-path="url(#p1991625b99)" d="M 86.326766 351.695209 
L 86.439636 175.162433 
L 86.658397 128.630304 
L 86.961911 105.438325 
L 87.368998 90.74549 
L 87.674463 84.131405 
L 88.062907 78.259375 
L 88.983866 69.738452 
L 93.70965 55.087581 
L 211.685217 39.178078 
L 211.685217 39.178078 
" style="fill:none;stroke:#e4d354;stroke-linecap:square;"/>
   </g>
   <g id="line2d_14">
    <path clip-path="url(#p1991625b99)" d="M 86.326769 350.391184 
L 86.439372 166.164951 
L 86.664703 123.059292 
L 86.979998 101.888276 
L 87.371936 89.243898 
L 87.837992 80.720654 
L 88.400093 74.331672 
L 89.020601 69.640935 
L 89.514302 66.893464 
L 90.327939 63.492681 
L 90.863142 61.75928 
L 92.06564 58.770975 
L 93.594433 56.084361 
L 95.100528 54.149496 
L 97.275124 52.090293 
L 99.443194 50.568899 
L 107.262075 47.215658 
L 139.571389 42.508758 
L 949.899489 36.841654 
L 949.899489 36.841654 
" style="fill:none;stroke:#2b908f;stroke-linecap:square;"/>
   </g>
   <g id="line2d_15">
    <path clip-path="url(#p1991625b99)" d="M 86.326765 351.738941 
L 86.43806 177.610258 
L 86.662495 129.993819 
L 86.978715 106.284174 
L 87.294529 94.331508 
L 87.693622 85.208532 
L 88.510586 74.700595 
L 94.794848 54.38078 
L 184.222384 40.030469 
L 184.222384 40.030469 
" style="fill:none;stroke:#f45b5b;stroke-linecap:square;"/>
   </g>
   <g id="line2d_16">
    <path clip-path="url(#p1991625b99)" d="M 86.326764 352.239855 
L 86.439138 171.77579 
L 86.65449 123.643371 
L 86.961216 99.782779 
L 87.38938 84.750061 
L 87.633783 79.572653 
L 88.241257 71.218669 
L 91.924441 54.704011 
L 182.422876 38.712161 
L 182.422876 38.712161 
" style="fill:none;stroke:#91e8e1;stroke-linecap:square;"/>
   </g>
   <g id="line2d_17">
    <path clip-path="url(#p1991625b99)" d="M 86.326761 352.300035 
L 86.439112 174.543109 
L 86.659212 127.133791 
L 86.942561 104.939269 
L 87.344053 89.923169 
L 87.714469 81.991058 
L 88.479314 72.4275 
L 90.558966 61.030193 
L 102.849896 47.171655 
L 102.849896 47.171655 
" style="fill:none;stroke:#7cb5ec;stroke-linecap:square;"/>
   </g>
   <g id="line2d_18">
    <path clip-path="url(#p1991625b99)" d="M 86.326761 352.166239 
L 86.439361 176.476344 
L 86.657848 130.145093 
L 86.937835 108.123244 
L 87.245466 95.603603 
L 87.635762 86.127049 
L 87.960483 80.832605 
L 88.399628 75.664206 
L 89.172861 69.566793 
L 96.6092 52.42854 
L 200.561103 39.638064 
L 200.561103 39.638064 
" style="fill:none;stroke:#434348;stroke-linecap:square;"/>
   </g>
   <g id="line2d_19">
    <path clip-path="url(#p1991625b99)" d="M 86.326761 352.347084 
L 86.438853 180.147462 
L 86.66184 131.578533 
L 86.981733 106.915291 
L 87.3625 92.833572 
L 88.052502 79.793034 
L 88.828593 71.938227 
L 92.682661 57.335815 
L 182.124431 39.863727 
L 182.124431 39.863727 
" style="fill:none;stroke:#90ed7d;stroke-linecap:square;"/>
   </g>
   <g id="line2d_20">
    <path clip-path="url(#p1991625b99)" d="M 86.326764 352.339296 
L 86.440115 174.706183 
L 86.659936 125.280599 
L 86.949956 102.017745 
L 87.370302 86.429292 
L 87.717127 79.105901 
L 88.339871 70.980835 
L 91.028767 57.166855 
L 147.208343 39.845423 
L 147.208343 39.845423 
" style="fill:none;stroke:#f7a35c;stroke-linecap:square;"/>
   </g>
   <g id="line2d_21">
    <path clip-path="url(#p1991625b99)" d="M 86.326766 352.092078 
L 86.439965 181.156883 
L 86.659215 131.913 
L 86.966251 107.104099 
L 87.198096 97.063522 
L 87.475029 89.036754 
L 87.840034 81.861847 
L 88.733598 71.601247 
L 94.1316 53.970232 
L 183.94123 39.39731 
L 183.94123 39.39731 
" style="fill:none;stroke:#8085e9;stroke-linecap:square;"/>
   </g>
   <g id="line2d_22">
    <path clip-path="url(#p1991625b99)" d="M 86.326767 352.083213 
L 86.440326 177.238445 
L 86.65268 128.914943 
L 86.944343 104.82636 
L 87.349782 89.20353 
L 87.520859 85.01295 
L 88.054279 76.077111 
L 89.723564 63.250351 
L 108.020063 44.610561 
L 108.020063 44.610561 
" style="fill:none;stroke:#f15c80;stroke-linecap:square;"/>
   </g>
   <g id="line2d_23">
    <path clip-path="url(#p1991625b99)" d="M 86.326764 352.147251 
L 86.439168 172.190429 
L 86.654937 124.618798 
L 86.957441 101.145069 
L 87.357365 86.726864 
L 87.825966 77.524712 
L 88.165302 73.126164 
L 90.251876 60.093627 
L 134.341462 40.912977 
L 134.341462 40.912977 
" style="fill:none;stroke:#e4d354;stroke-linecap:square;"/>
   </g>
   <g id="line2d_24">
    <path clip-path="url(#p1991625b99)" d="M 86.326764 351.733168 
L 86.439046 170.169811 
L 86.650114 125.603789 
L 86.934664 103.708756 
L 87.232829 91.996911 
L 87.628043 82.78521 
L 88.066561 76.316706 
L 89.072083 67.679347 
L 91.803204 57.661419 
L 209.970986 39.099592 
L 209.970986 39.099592 
" style="fill:none;stroke:#2b908f;stroke-linecap:square;"/>
   </g>
   <g id="line2d_25">
    <path clip-path="url(#p1991625b99)" d="M 86.326765 350.899314 
L 86.439151 179.400016 
L 86.65402 136.587409 
L 86.932664 115.272639 
L 87.355419 99.508017 
L 87.863427 89.184771 
L 88.149239 85.214733 
L 90.071714 71.020162 
L 99.890085 54.268748 
L 99.890085 54.268748 
" style="fill:none;stroke:#f45b5b;stroke-linecap:square;"/>
   </g>
   <g id="line2d_26">
    <path clip-path="url(#p1991625b99)" d="M 86.326765 350.944068 
L 86.439164 174.687277 
L 86.657601 131.496094 
L 86.928604 111.134173 
L 87.322572 96.448748 
L 87.648698 89.189997 
L 88.061862 82.882442 
L 88.572492 77.473552 
L 89.312822 72.113417 
L 94.105948 58.228143 
L 166.483523 42.066387 
L 166.483523 42.066387 
" style="fill:none;stroke:#91e8e1;stroke-linecap:square;"/>
   </g>
   <g id="line2d_27">
    <path clip-path="url(#p1991625b99)" d="M 86.326765 350.435128 
L 86.437552 183.060882 
L 86.66269 140.114022 
L 86.922684 120.589951 
L 87.295498 105.966044 
L 87.728663 96.10164 
L 88.151604 89.730074 
L 89.900434 75.888154 
L 97.700676 59.069416 
L 283.541464 41.113435 
L 283.541464 41.113435 
" style="fill:none;stroke:#7cb5ec;stroke-linecap:square;"/>
   </g>
   <g id="line2d_28">
    <path clip-path="url(#p1991625b99)" d="M 86.326766 349.456415 
L 86.43842 175.599372 
L 86.660606 135.379688 
L 86.943489 115.803163 
L 87.254633 104.264718 
L 87.535323 97.461763 
L 87.830797 92.225415 
L 88.264163 86.601559 
L 89.285897 78.206616 
L 113.780497 50.9393 
L 113.780497 50.9393 
" style="fill:none;stroke:#434348;stroke-linecap:square;"/>
   </g>
   <g id="line2d_29">
    <path clip-path="url(#p1991625b99)" d="M 86.326766 350.447376 
L 86.438597 170.835666 
L 86.660272 128.568939 
L 86.966345 107.427307 
L 87.305594 95.565547 
L 87.618861 88.666416 
L 88.405331 78.336166 
L 90.990969 64.658499 
L 161.562455 42.454971 
L 161.562455 42.454971 
" style="fill:none;stroke:#90ed7d;stroke-linecap:square;"/>
   </g>
   <g id="line2d_30">
    <path clip-path="url(#p1991625b99)" d="M 86.326764 352.355842 
L 86.439385 178.638538 
L 86.662553 128.153623 
L 86.964025 103.975007 
L 87.274118 91.474519 
L 87.565907 84.070807 
L 88.04858 76.109831 
L 90.587201 59.712198 
L 124.291679 41.799869 
L 124.291679 41.799869 
" style="fill:none;stroke:#f7a35c;stroke-linecap:square;"/>
   </g>
   <g id="line2d_31">
    <path clip-path="url(#p1991625b99)" d="M 86.326765 337.494197 
L 86.436622 176.71402 
L 86.639795 149.95802 
L 86.913461 135.0185 
L 87.409248 121.532262 
L 88.479023 107.838453 
L 93.29636 88.147088 
L 134.423013 65.329398 
L 134.423013 65.329398 
" style="fill:none;stroke:#8085e9;stroke-linecap:square;"/>
   </g>
   <g id="line2d_32">
    <path clip-path="url(#p1991625b99)" d="M 86.326765 352.23667 
L 86.439744 176.85681 
L 86.662654 126.829544 
L 86.945924 103.892197 
L 87.300567 89.792942 
L 87.4895 84.934597 
L 87.972595 76.441891 
L 88.589264 69.779505 
L 91.405914 56.950374 
L 177.258718 39.001288 
L 177.258718 39.001288 
" style="fill:none;stroke:#f15c80;stroke-linecap:square;"/>
   </g>
   <g id="line2d_33">
    <path clip-path="url(#p1991625b99)" d="M 86.326764 352.11715 
L 86.439724 175.365928 
L 86.661873 127.131451 
L 86.96536 103.726779 
L 87.373224 88.949291 
L 87.851492 79.483326 
L 88.330313 73.524381 
L 88.799479 69.418136 
L 91.424525 58.123493 
L 151.861052 40.377621 
L 151.861052 40.377621 
" style="fill:none;stroke:#e4d354;stroke-linecap:square;"/>
   </g>
   <g id="line2d_34">
    <path clip-path="url(#p1991625b99)" d="M 86.326766 351.805541 
L 86.439175 177.433177 
L 86.655265 130.445907 
L 86.936792 107.810508 
L 87.26285 94.533494 
L 87.720362 83.94933 
L 88.106669 78.243935 
L 88.71369 72.155794 
L 92.051781 58.26487 
L 183.795043 39.782225 
L 183.795043 39.782225 
" style="fill:none;stroke:#2b908f;stroke-linecap:square;"/>
   </g>
   <g id="line2d_35">
    <path clip-path="url(#p1991625b99)" d="M 86.326765 348.096235 
L 86.43799 187.435382 
L 86.662703 149.85039 
L 86.946846 130.850495 
L 87.312205 117.757175 
L 87.812507 107.173021 
L 89.037084 93.478542 
L 96.354105 70.788163 
L 207.993998 48.012376 
L 207.993998 48.012376 
" style="fill:none;stroke:#f45b5b;stroke-linecap:square;"/>
   </g>
   <g id="line2d_36">
    <path clip-path="url(#p1991625b99)" d="M 86.326761 349.303721 
L 86.438015 179.684249 
L 86.662302 142.075728 
L 86.991633 121.410594 
L 87.361769 109.46125 
L 87.716305 102.173602 
L 88.183084 95.533852 
L 89.871493 82.551695 
L 100.681645 62.310172 
L 100.681645 62.310172 
" style="fill:none;stroke:#91e8e1;stroke-linecap:square;"/>
   </g>
   <g id="line2d_37">
    <path clip-path="url(#p1991625b99)" d="M 86.326761 352.443269 
L 86.439973 171.428735 
L 86.660034 123.358206 
L 86.952176 100.735489 
L 87.359106 86.027348 
L 87.743419 78.196685 
L 88.35685 70.55797 
L 90.332593 59.32908 
L 153.959168 39.700736 
L 153.959168 39.700736 
" style="fill:none;stroke:#7cb5ec;stroke-linecap:square;"/>
   </g>
   <g id="line2d_38">
    <path clip-path="url(#p1991625b99)" d="M 86.326765 351.959215 
L 86.439257 174.488157 
L 86.658525 126.740094 
L 86.935647 104.687986 
L 87.292592 90.680053 
L 87.722759 81.174897 
L 88.001474 77.000346 
L 88.582568 70.86661 
L 92.185443 56.236171 
L 183.987618 39.272951 
L 183.987618 39.272951 
" style="fill:none;stroke:#434348;stroke-linecap:square;"/>
   </g>
   <g id="line2d_39">
    <path clip-path="url(#p1991625b99)" d="M 86.326765 351.986242 
L 86.439328 176.150969 
L 86.66105 127.898966 
L 86.948712 105.223639 
L 87.387671 89.144545 
L 87.571675 84.940522 
L 88.047741 77.249855 
L 89.444599 65.759652 
L 108.410671 45.223216 
L 108.410671 45.223216 
" style="fill:none;stroke:#90ed7d;stroke-linecap:square;"/>
   </g>
   <g id="line2d_40">
    <path clip-path="url(#p1991625b99)" d="M 86.326766 351.939095 
L 86.439547 173.179919 
L 86.66284 124.978147 
L 86.963763 102.054407 
L 87.382779 87.203218 
L 87.841915 78.311738 
L 88.467455 71.036871 
L 90.26829 60.790896 
L 100.896474 47.272827 
L 333.375563 37.455173 
L 333.375563 37.455173 
" style="fill:none;stroke:#f7a35c;stroke-linecap:square;"/>
   </g>
   <g id="line2d_41">
    <path clip-path="url(#p1991625b99)" d="M 43.148125 353.2239 
L 993.078125 353.2239 
" style="fill:none;stroke:#dedede;stroke-linecap:square;stroke-width:2;"/>
   </g>
   <g id="text_16">
    <!-- DupRadar General Linear Model -->
    <g transform="translate(390.213125 19.3575)scale(0.16 -0.16)">
     <defs>
      <path d="M 1259 4147 
L 1259 519 
L 2022 519 
Q 2988 519 3436 956 
Q 3884 1394 3884 2338 
Q 3884 3275 3436 3711 
Q 2988 4147 2022 4147 
L 1259 4147 
z
M 628 4666 
L 1925 4666 
Q 3281 4666 3915 4102 
Q 4550 3538 4550 2338 
Q 4550 1131 3912 565 
Q 3275 0 1925 0 
L 628 0 
L 628 4666 
z
" id="DejaVuSans-44" transform="scale(0.015625)"/>
      <path d="M 2841 2188 
Q 3044 2119 3236 1894 
Q 3428 1669 3622 1275 
L 4263 0 
L 3584 0 
L 2988 1197 
Q 2756 1666 2539 1819 
Q 2322 1972 1947 1972 
L 1259 1972 
L 1259 0 
L 628 0 
L 628 4666 
L 2053 4666 
Q 2853 4666 3247 4331 
Q 3641 3997 3641 3322 
Q 3641 2881 3436 2590 
Q 3231 2300 2841 2188 
z
M 1259 4147 
L 1259 2491 
L 2053 2491 
Q 2509 2491 2742 2702 
Q 2975 2913 2975 3322 
Q 2975 3731 2742 3939 
Q 2509 4147 2053 4147 
L 1259 4147 
z
" id="DejaVuSans-52" transform="scale(0.015625)"/>
      <path d="M 3809 666 
L 3809 1919 
L 2778 1919 
L 2778 2438 
L 4434 2438 
L 4434 434 
Q 4069 175 3628 42 
Q 3188 -91 2688 -91 
Q 1594 -91 976 548 
Q 359 1188 359 2328 
Q 359 3472 976 4111 
Q 1594 4750 2688 4750 
Q 3144 4750 3555 4637 
Q 3966 4525 4313 4306 
L 4313 3634 
Q 3963 3931 3569 4081 
Q 3175 4231 2741 4231 
Q 1884 4231 1454 3753 
Q 1025 3275 1025 2328 
Q 1025 1384 1454 906 
Q 1884 428 2741 428 
Q 3075 428 3337 486 
Q 3600 544 3809 666 
z
" id="DejaVuSans-47" transform="scale(0.015625)"/>
      <path d="M 628 4666 
L 1259 4666 
L 1259 531 
L 3531 531 
L 3531 0 
L 628 0 
L 628 4666 
z
" id="DejaVuSans-4c" transform="scale(0.015625)"/>
      <path d="M 628 4666 
L 1569 4666 
L 2759 1491 
L 3956 4666 
L 4897 4666 
L 4897 0 
L 4281 0 
L 4281 4097 
L 3078 897 
L 2444 897 
L 1241 4097 
L 1241 0 
L 628 0 
L 628 4666 
z
" id="DejaVuSans-4d" transform="scale(0.015625)"/>
     </defs>
     <use xlink:href="#DejaVuSans-44"/>
     <use x="77.001953" xlink:href="#DejaVuSans-75"/>
     <use x="140.380859" xlink:href="#DejaVuSans-70"/>
     <use x="203.857422" xlink:href="#DejaVuSans-52"/>
     <use x="271.089844" xlink:href="#DejaVuSans-61"/>
     <use x="332.369141" xlink:href="#DejaVuSans-64"/>
     <use x="395.845703" xlink:href="#DejaVuSans-61"/>
     <use x="457.125" xlink:href="#DejaVuSans-72"/>
     <use x="498.238281" xlink:href="#DejaVuSans-20"/>
     <use x="530.025391" xlink:href="#DejaVuSans-47"/>
     <use x="607.515625" xlink:href="#DejaVuSans-65"/>
     <use x="669.039062" xlink:href="#DejaVuSans-6e"/>
     <use x="732.417969" xlink:href="#DejaVuSans-65"/>
     <use x="793.941406" xlink:href="#DejaVuSans-72"/>
     <use x="835.054688" xlink:href="#DejaVuSans-61"/>
     <use x="896.333984" xlink:href="#DejaVuSans-6c"/>
     <use x="924.117188" xlink:href="#DejaVuSans-20"/>
     <use x="955.904297" xlink:href="#DejaVuSans-4c"/>
     <use x="1011.617188" xlink:href="#DejaVuSans-69"/>
     <use x="1039.400391" xlink:href="#DejaVuSans-6e"/>
     <use x="1102.779297" xlink:href="#DejaVuSans-65"/>
     <use x="1164.302734" xlink:href="#DejaVuSans-61"/>
     <use x="1225.582031" xlink:href="#DejaVuSans-72"/>
     <use x="1266.695312" xlink:href="#DejaVuSans-20"/>
     <use x="1298.482422" xlink:href="#DejaVuSans-4d"/>
     <use x="1384.761719" xlink:href="#DejaVuSans-6f"/>
     <use x="1445.943359" xlink:href="#DejaVuSans-64"/>
     <use x="1509.419922" xlink:href="#DejaVuSans-65"/>
     <use x="1570.943359" xlink:href="#DejaVuSans-6c"/>
    </g>
   </g>
  </g>
 </g>
 <defs>
  <clipPath id="p1991625b99">
   <rect height="317.968" width="949.93" x="43.148125" y="35.2559"/>
  </clipPath>
 </defs>
</svg>
