<?xml version="1.0" encoding="utf-8" standalone="no"?>
<!DOCTYPE svg PUBLIC "-//W3C//DTD SVG 1.1//EN"
  "http://www.w3.org/Graphics/SVG/1.1/DTD/svg11.dtd">
<svg height="388.844525pt" version="1.1" viewBox="0 0 1000.098125 388.844525" width="1000.098125pt" xmlns="http://www.w3.org/2000/svg" xmlns:xlink="http://www.w3.org/1999/xlink">
 <metadata>
  <rdf:RDF xmlns:cc="http://creativecommons.org/ns#" xmlns:dc="http://purl.org/dc/elements/1.1/" xmlns:rdf="http://www.w3.org/1999/02/22-rdf-syntax-ns#">
   <cc:Work>
    <dc:type rdf:resource="http://purl.org/dc/dcmitype/StillImage"/>
    <dc:date>2022-11-03T13:38:18.713176</dc:date>
    <dc:format>image/svg+xml</dc:format>
    <dc:creator>
     <cc:Agent>
      <dc:title>Matplotlib v3.4.2, https://matplotlib.org/</dc:title>
     </cc:Agent>
    </dc:creator>
   </cc:Work>
  </rdf:RDF>
 </metadata>
 <defs>
  <style type="text/css">*{stroke-linecap:butt;stroke-linejoin:round;}</style>
 </defs>
 <g id="figure_1">
  <g id="axes_1">
   <g id="patch_1">
    <path d="M 58.418125 353.2239 
L 985.263125 353.2239 
L 985.263125 35.2559 
L 58.418125 35.2559 
z
" style="fill:#ffffff;"/>
   </g>
   <g id="matplotlib.axis_1">
    <g id="xtick_1">
     <g id="text_1">
      <!-- 0 -->
      <g transform="translate(55.873125 366.30265)scale(0.08 -0.08)">
       <defs>
        <path d="M 2034 4250 
Q 1547 4250 1301 3770 
Q 1056 3291 1056 2328 
Q 1056 1369 1301 889 
Q 1547 409 2034 409 
Q 2525 409 2770 889 
Q 3016 1369 3016 2328 
Q 3016 3291 2770 3770 
Q 2525 4250 2034 4250 
z
M 2034 4750 
Q 2819 4750 3233 4129 
Q 3647 3509 3647 2328 
Q 3647 1150 3233 529 
Q 2819 -91 2034 -91 
Q 1250 -91 836 529 
Q 422 1150 422 2328 
Q 422 3509 836 4129 
Q 1250 4750 2034 4750 
z
" id="DejaVuSans-30" transform="scale(0.015625)"/>
       </defs>
       <use xlink:href="#DejaVuSans-30"/>
      </g>
     </g>
    </g>
    <g id="xtick_2">
     <g id="text_2">
      <!-- 20 -->
      <g transform="translate(238.697125 366.30265)scale(0.08 -0.08)">
       <defs>
        <path d="M 1228 531 
L 3431 531 
L 3431 0 
L 469 0 
L 469 531 
Q 828 903 1448 1529 
Q 2069 2156 2228 2338 
Q 2531 2678 2651 2914 
Q 2772 3150 2772 3378 
Q 2772 3750 2511 3984 
Q 2250 4219 1831 4219 
Q 1534 4219 1204 4116 
Q 875 4013 500 3803 
L 500 4441 
Q 881 4594 1212 4672 
Q 1544 4750 1819 4750 
Q 2544 4750 2975 4387 
Q 3406 4025 3406 3419 
Q 3406 3131 3298 2873 
Q 3191 2616 2906 2266 
Q 2828 2175 2409 1742 
Q 1991 1309 1228 531 
z
" id="DejaVuSans-32" transform="scale(0.015625)"/>
       </defs>
       <use xlink:href="#DejaVuSans-32"/>
       <use x="63.623047" xlink:href="#DejaVuSans-30"/>
      </g>
     </g>
    </g>
    <g id="xtick_3">
     <g id="text_3">
      <!-- 40 -->
      <g transform="translate(424.066125 366.30265)scale(0.08 -0.08)">
       <defs>
        <path d="M 2419 4116 
L 825 1625 
L 2419 1625 
L 2419 4116 
z
M 2253 4666 
L 3047 4666 
L 3047 1625 
L 3713 1625 
L 3713 1100 
L 3047 1100 
L 3047 0 
L 2419 0 
L 2419 1100 
L 313 1100 
L 313 1709 
L 2253 4666 
z
" id="DejaVuSans-34" transform="scale(0.015625)"/>
       </defs>
       <use xlink:href="#DejaVuSans-34"/>
       <use x="63.623047" xlink:href="#DejaVuSans-30"/>
      </g>
     </g>
    </g>
    <g id="xtick_4">
     <g id="text_4">
      <!-- 60 -->
      <g transform="translate(609.435125 366.30265)scale(0.08 -0.08)">
       <defs>
        <path d="M 2113 2584 
Q 1688 2584 1439 2293 
Q 1191 2003 1191 1497 
Q 1191 994 1439 701 
Q 1688 409 2113 409 
Q 2538 409 2786 701 
Q 3034 994 3034 1497 
Q 3034 2003 2786 2293 
Q 2538 2584 2113 2584 
z
M 3366 4563 
L 3366 3988 
Q 3128 4100 2886 4159 
Q 2644 4219 2406 4219 
Q 1781 4219 1451 3797 
Q 1122 3375 1075 2522 
Q 1259 2794 1537 2939 
Q 1816 3084 2150 3084 
Q 2853 3084 3261 2657 
Q 3669 2231 3669 1497 
Q 3669 778 3244 343 
Q 2819 -91 2113 -91 
Q 1303 -91 875 529 
Q 447 1150 447 2328 
Q 447 3434 972 4092 
Q 1497 4750 2381 4750 
Q 2619 4750 2861 4703 
Q 3103 4656 3366 4563 
z
" id="DejaVuSans-36" transform="scale(0.015625)"/>
       </defs>
       <use xlink:href="#DejaVuSans-36"/>
       <use x="63.623047" xlink:href="#DejaVuSans-30"/>
      </g>
     </g>
    </g>
    <g id="xtick_5">
     <g id="text_5">
      <!-- 80 -->
      <g transform="translate(794.804125 366.30265)scale(0.08 -0.08)">
       <defs>
        <path d="M 2034 2216 
Q 1584 2216 1326 1975 
Q 1069 1734 1069 1313 
Q 1069 891 1326 650 
Q 1584 409 2034 409 
Q 2484 409 2743 651 
Q 3003 894 3003 1313 
Q 3003 1734 2745 1975 
Q 2488 2216 2034 2216 
z
M 1403 2484 
Q 997 2584 770 2862 
Q 544 3141 544 3541 
Q 544 4100 942 4425 
Q 1341 4750 2034 4750 
Q 2731 4750 3128 4425 
Q 3525 4100 3525 3541 
Q 3525 3141 3298 2862 
Q 3072 2584 2669 2484 
Q 3125 2378 3379 2068 
Q 3634 1759 3634 1313 
Q 3634 634 3220 271 
Q 2806 -91 2034 -91 
Q 1263 -91 848 271 
Q 434 634 434 1313 
Q 434 1759 690 2068 
Q 947 2378 1403 2484 
z
M 1172 3481 
Q 1172 3119 1398 2916 
Q 1625 2713 2034 2713 
Q 2441 2713 2670 2916 
Q 2900 3119 2900 3481 
Q 2900 3844 2670 4047 
Q 2441 4250 2034 4250 
Q 1625 4250 1398 4047 
Q 1172 3844 1172 3481 
z
" id="DejaVuSans-38" transform="scale(0.015625)"/>
       </defs>
       <use xlink:href="#DejaVuSans-38"/>
       <use x="63.623047" xlink:href="#DejaVuSans-30"/>
      </g>
     </g>
    </g>
    <g id="xtick_6">
     <g id="text_6">
      <!-- 100 -->
      <g transform="translate(977.628125 366.30265)scale(0.08 -0.08)">
       <defs>
        <path d="M 794 531 
L 1825 531 
L 1825 4091 
L 703 3866 
L 703 4441 
L 1819 4666 
L 2450 4666 
L 2450 531 
L 3481 531 
L 3481 0 
L 794 0 
L 794 531 
z
" id="DejaVuSans-31" transform="scale(0.015625)"/>
       </defs>
       <use xlink:href="#DejaVuSans-31"/>
       <use x="63.623047" xlink:href="#DejaVuSans-30"/>
       <use x="127.246094" xlink:href="#DejaVuSans-30"/>
      </g>
     </g>
    </g>
    <g id="text_7">
     <!-- Percent of reads -->
     <g transform="translate(481.172656 379.564837)scale(0.1 -0.1)">
      <defs>
       <path d="M 1259 4147 
L 1259 2394 
L 2053 2394 
Q 2494 2394 2734 2622 
Q 2975 2850 2975 3272 
Q 2975 3691 2734 3919 
Q 2494 4147 2053 4147 
L 1259 4147 
z
M 628 4666 
L 2053 4666 
Q 2838 4666 3239 4311 
Q 3641 3956 3641 3272 
Q 3641 2581 3239 2228 
Q 2838 1875 2053 1875 
L 1259 1875 
L 1259 0 
L 628 0 
L 628 4666 
z
" id="DejaVuSans-50" transform="scale(0.015625)"/>
       <path d="M 3597 1894 
L 3597 1613 
L 953 1613 
Q 991 1019 1311 708 
Q 1631 397 2203 397 
Q 2534 397 2845 478 
Q 3156 559 3463 722 
L 3463 178 
Q 3153 47 2828 -22 
Q 2503 -91 2169 -91 
Q 1331 -91 842 396 
Q 353 884 353 1716 
Q 353 2575 817 3079 
Q 1281 3584 2069 3584 
Q 2775 3584 3186 3129 
Q 3597 2675 3597 1894 
z
M 3022 2063 
Q 3016 2534 2758 2815 
Q 2500 3097 2075 3097 
Q 1594 3097 1305 2825 
Q 1016 2553 972 2059 
L 3022 2063 
z
" id="DejaVuSans-65" transform="scale(0.015625)"/>
       <path d="M 2631 2963 
Q 2534 3019 2420 3045 
Q 2306 3072 2169 3072 
Q 1681 3072 1420 2755 
Q 1159 2438 1159 1844 
L 1159 0 
L 581 0 
L 581 3500 
L 1159 3500 
L 1159 2956 
Q 1341 3275 1631 3429 
Q 1922 3584 2338 3584 
Q 2397 3584 2469 3576 
Q 2541 3569 2628 3553 
L 2631 2963 
z
" id="DejaVuSans-72" transform="scale(0.015625)"/>
       <path d="M 3122 3366 
L 3122 2828 
Q 2878 2963 2633 3030 
Q 2388 3097 2138 3097 
Q 1578 3097 1268 2742 
Q 959 2388 959 1747 
Q 959 1106 1268 751 
Q 1578 397 2138 397 
Q 2388 397 2633 464 
Q 2878 531 3122 666 
L 3122 134 
Q 2881 22 2623 -34 
Q 2366 -91 2075 -91 
Q 1284 -91 818 406 
Q 353 903 353 1747 
Q 353 2603 823 3093 
Q 1294 3584 2113 3584 
Q 2378 3584 2631 3529 
Q 2884 3475 3122 3366 
z
" id="DejaVuSans-63" transform="scale(0.015625)"/>
       <path d="M 3513 2113 
L 3513 0 
L 2938 0 
L 2938 2094 
Q 2938 2591 2744 2837 
Q 2550 3084 2163 3084 
Q 1697 3084 1428 2787 
Q 1159 2491 1159 1978 
L 1159 0 
L 581 0 
L 581 3500 
L 1159 3500 
L 1159 2956 
Q 1366 3272 1645 3428 
Q 1925 3584 2291 3584 
Q 2894 3584 3203 3211 
Q 3513 2838 3513 2113 
z
" id="DejaVuSans-6e" transform="scale(0.015625)"/>
       <path d="M 1172 4494 
L 1172 3500 
L 2356 3500 
L 2356 3053 
L 1172 3053 
L 1172 1153 
Q 1172 725 1289 603 
Q 1406 481 1766 481 
L 2356 481 
L 2356 0 
L 1766 0 
Q 1100 0 847 248 
Q 594 497 594 1153 
L 594 3053 
L 172 3053 
L 172 3500 
L 594 3500 
L 594 4494 
L 1172 4494 
z
" id="DejaVuSans-74" transform="scale(0.015625)"/>
       <path id="DejaVuSans-20" transform="scale(0.015625)"/>
       <path d="M 1959 3097 
Q 1497 3097 1228 2736 
Q 959 2375 959 1747 
Q 959 1119 1226 758 
Q 1494 397 1959 397 
Q 2419 397 2687 759 
Q 2956 1122 2956 1747 
Q 2956 2369 2687 2733 
Q 2419 3097 1959 3097 
z
M 1959 3584 
Q 2709 3584 3137 3096 
Q 3566 2609 3566 1747 
Q 3566 888 3137 398 
Q 2709 -91 1959 -91 
Q 1206 -91 779 398 
Q 353 888 353 1747 
Q 353 2609 779 3096 
Q 1206 3584 1959 3584 
z
" id="DejaVuSans-6f" transform="scale(0.015625)"/>
       <path d="M 2375 4863 
L 2375 4384 
L 1825 4384 
Q 1516 4384 1395 4259 
Q 1275 4134 1275 3809 
L 1275 3500 
L 2222 3500 
L 2222 3053 
L 1275 3053 
L 1275 0 
L 697 0 
L 697 3053 
L 147 3053 
L 147 3500 
L 697 3500 
L 697 3744 
Q 697 4328 969 4595 
Q 1241 4863 1831 4863 
L 2375 4863 
z
" id="DejaVuSans-66" transform="scale(0.015625)"/>
       <path d="M 2194 1759 
Q 1497 1759 1228 1600 
Q 959 1441 959 1056 
Q 959 750 1161 570 
Q 1363 391 1709 391 
Q 2188 391 2477 730 
Q 2766 1069 2766 1631 
L 2766 1759 
L 2194 1759 
z
M 3341 1997 
L 3341 0 
L 2766 0 
L 2766 531 
Q 2569 213 2275 61 
Q 1981 -91 1556 -91 
Q 1019 -91 701 211 
Q 384 513 384 1019 
Q 384 1609 779 1909 
Q 1175 2209 1959 2209 
L 2766 2209 
L 2766 2266 
Q 2766 2663 2505 2880 
Q 2244 3097 1772 3097 
Q 1472 3097 1187 3025 
Q 903 2953 641 2809 
L 641 3341 
Q 956 3463 1253 3523 
Q 1550 3584 1831 3584 
Q 2591 3584 2966 3190 
Q 3341 2797 3341 1997 
z
" id="DejaVuSans-61" transform="scale(0.015625)"/>
       <path d="M 2906 2969 
L 2906 4863 
L 3481 4863 
L 3481 0 
L 2906 0 
L 2906 525 
Q 2725 213 2448 61 
Q 2172 -91 1784 -91 
Q 1150 -91 751 415 
Q 353 922 353 1747 
Q 353 2572 751 3078 
Q 1150 3584 1784 3584 
Q 2172 3584 2448 3432 
Q 2725 3281 2906 2969 
z
M 947 1747 
Q 947 1113 1208 752 
Q 1469 391 1925 391 
Q 2381 391 2643 752 
Q 2906 1113 2906 1747 
Q 2906 2381 2643 2742 
Q 2381 3103 1925 3103 
Q 1469 3103 1208 2742 
Q 947 2381 947 1747 
z
" id="DejaVuSans-64" transform="scale(0.015625)"/>
       <path d="M 2834 3397 
L 2834 2853 
Q 2591 2978 2328 3040 
Q 2066 3103 1784 3103 
Q 1356 3103 1142 2972 
Q 928 2841 928 2578 
Q 928 2378 1081 2264 
Q 1234 2150 1697 2047 
L 1894 2003 
Q 2506 1872 2764 1633 
Q 3022 1394 3022 966 
Q 3022 478 2636 193 
Q 2250 -91 1575 -91 
Q 1294 -91 989 -36 
Q 684 19 347 128 
L 347 722 
Q 666 556 975 473 
Q 1284 391 1588 391 
Q 1994 391 2212 530 
Q 2431 669 2431 922 
Q 2431 1156 2273 1281 
Q 2116 1406 1581 1522 
L 1381 1569 
Q 847 1681 609 1914 
Q 372 2147 372 2553 
Q 372 3047 722 3315 
Q 1072 3584 1716 3584 
Q 2034 3584 2315 3537 
Q 2597 3491 2834 3397 
z
" id="DejaVuSans-73" transform="scale(0.015625)"/>
      </defs>
      <use xlink:href="#DejaVuSans-50"/>
      <use x="56.677734" xlink:href="#DejaVuSans-65"/>
      <use x="118.201172" xlink:href="#DejaVuSans-72"/>
      <use x="157.064453" xlink:href="#DejaVuSans-63"/>
      <use x="212.044922" xlink:href="#DejaVuSans-65"/>
      <use x="273.568359" xlink:href="#DejaVuSans-6e"/>
      <use x="336.947266" xlink:href="#DejaVuSans-74"/>
      <use x="376.15625" xlink:href="#DejaVuSans-20"/>
      <use x="407.943359" xlink:href="#DejaVuSans-6f"/>
      <use x="469.125" xlink:href="#DejaVuSans-66"/>
      <use x="504.330078" xlink:href="#DejaVuSans-20"/>
      <use x="536.117188" xlink:href="#DejaVuSans-72"/>
      <use x="574.980469" xlink:href="#DejaVuSans-65"/>
      <use x="636.503906" xlink:href="#DejaVuSans-61"/>
      <use x="697.783203" xlink:href="#DejaVuSans-64"/>
      <use x="761.259766" xlink:href="#DejaVuSans-73"/>
     </g>
    </g>
   </g>
   <g id="matplotlib.axis_2">
    <g id="ytick_1">
     <g id="line2d_1">
      <path clip-path="url(#p392edb12e8)" d="M 58.418125 353.2239 
L 985.263125 353.2239 
" style="fill:none;stroke:#dedede;stroke-linecap:square;"/>
     </g>
     <g id="text_8">
      <!-- 0 -->
      <g transform="translate(46.328125 356.263275)scale(0.08 -0.08)">
       <use xlink:href="#DejaVuSans-30"/>
      </g>
     </g>
    </g>
    <g id="ytick_2">
     <g id="line2d_2">
      <path clip-path="url(#p392edb12e8)" d="M 58.418125 316.222575 
L 985.263125 316.222575 
" style="fill:none;stroke:#dedede;stroke-linecap:square;"/>
     </g>
     <g id="text_9">
      <!-- 25000 -->
      <g transform="translate(25.968125 319.26195)scale(0.08 -0.08)">
       <defs>
        <path d="M 691 4666 
L 3169 4666 
L 3169 4134 
L 1269 4134 
L 1269 2991 
Q 1406 3038 1543 3061 
Q 1681 3084 1819 3084 
Q 2600 3084 3056 2656 
Q 3513 2228 3513 1497 
Q 3513 744 3044 326 
Q 2575 -91 1722 -91 
Q 1428 -91 1123 -41 
Q 819 9 494 109 
L 494 744 
Q 775 591 1075 516 
Q 1375 441 1709 441 
Q 2250 441 2565 725 
Q 2881 1009 2881 1497 
Q 2881 1984 2565 2268 
Q 2250 2553 1709 2553 
Q 1456 2553 1204 2497 
Q 953 2441 691 2322 
L 691 4666 
z
" id="DejaVuSans-35" transform="scale(0.015625)"/>
       </defs>
       <use xlink:href="#DejaVuSans-32"/>
       <use x="63.623047" xlink:href="#DejaVuSans-35"/>
       <use x="127.246094" xlink:href="#DejaVuSans-30"/>
       <use x="190.869141" xlink:href="#DejaVuSans-30"/>
       <use x="254.492188" xlink:href="#DejaVuSans-30"/>
      </g>
     </g>
    </g>
    <g id="ytick_3">
     <g id="line2d_3">
      <path clip-path="url(#p392edb12e8)" d="M 58.418125 279.22125 
L 985.263125 279.22125 
" style="fill:none;stroke:#dedede;stroke-linecap:square;"/>
     </g>
     <g id="text_10">
      <!-- 50000 -->
      <g transform="translate(25.968125 282.260625)scale(0.08 -0.08)">
       <use xlink:href="#DejaVuSans-35"/>
       <use x="63.623047" xlink:href="#DejaVuSans-30"/>
       <use x="127.246094" xlink:href="#DejaVuSans-30"/>
       <use x="190.869141" xlink:href="#DejaVuSans-30"/>
       <use x="254.492188" xlink:href="#DejaVuSans-30"/>
      </g>
     </g>
    </g>
    <g id="ytick_4">
     <g id="line2d_4">
      <path clip-path="url(#p392edb12e8)" d="M 58.418125 242.219925 
L 985.263125 242.219925 
" style="fill:none;stroke:#dedede;stroke-linecap:square;"/>
     </g>
     <g id="text_11">
      <!-- 75000 -->
      <g transform="translate(25.968125 245.2593)scale(0.08 -0.08)">
       <defs>
        <path d="M 525 4666 
L 3525 4666 
L 3525 4397 
L 1831 0 
L 1172 0 
L 2766 4134 
L 525 4134 
L 525 4666 
z
" id="DejaVuSans-37" transform="scale(0.015625)"/>
       </defs>
       <use xlink:href="#DejaVuSans-37"/>
       <use x="63.623047" xlink:href="#DejaVuSans-35"/>
       <use x="127.246094" xlink:href="#DejaVuSans-30"/>
       <use x="190.869141" xlink:href="#DejaVuSans-30"/>
       <use x="254.492188" xlink:href="#DejaVuSans-30"/>
      </g>
     </g>
    </g>
    <g id="ytick_5">
     <g id="line2d_5">
      <path clip-path="url(#p392edb12e8)" d="M 58.418125 205.2186 
L 985.263125 205.2186 
" style="fill:none;stroke:#dedede;stroke-linecap:square;"/>
     </g>
     <g id="text_12">
      <!-- 100000 -->
      <g transform="translate(20.878125 208.257975)scale(0.08 -0.08)">
       <use xlink:href="#DejaVuSans-31"/>
       <use x="63.623047" xlink:href="#DejaVuSans-30"/>
       <use x="127.246094" xlink:href="#DejaVuSans-30"/>
       <use x="190.869141" xlink:href="#DejaVuSans-30"/>
       <use x="254.492188" xlink:href="#DejaVuSans-30"/>
       <use x="318.115234" xlink:href="#DejaVuSans-30"/>
      </g>
     </g>
    </g>
    <g id="ytick_6">
     <g id="line2d_6">
      <path clip-path="url(#p392edb12e8)" d="M 58.418125 168.217275 
L 985.263125 168.217275 
" style="fill:none;stroke:#dedede;stroke-linecap:square;"/>
     </g>
     <g id="text_13">
      <!-- 125000 -->
      <g transform="translate(20.878125 171.25665)scale(0.08 -0.08)">
       <use xlink:href="#DejaVuSans-31"/>
       <use x="63.623047" xlink:href="#DejaVuSans-32"/>
       <use x="127.246094" xlink:href="#DejaVuSans-35"/>
       <use x="190.869141" xlink:href="#DejaVuSans-30"/>
       <use x="254.492188" xlink:href="#DejaVuSans-30"/>
       <use x="318.115234" xlink:href="#DejaVuSans-30"/>
      </g>
     </g>
    </g>
    <g id="ytick_7">
     <g id="line2d_7">
      <path clip-path="url(#p392edb12e8)" d="M 58.418125 131.21595 
L 985.263125 131.21595 
" style="fill:none;stroke:#dedede;stroke-linecap:square;"/>
     </g>
     <g id="text_14">
      <!-- 150000 -->
      <g transform="translate(20.878125 134.255325)scale(0.08 -0.08)">
       <use xlink:href="#DejaVuSans-31"/>
       <use x="63.623047" xlink:href="#DejaVuSans-35"/>
       <use x="127.246094" xlink:href="#DejaVuSans-30"/>
       <use x="190.869141" xlink:href="#DejaVuSans-30"/>
       <use x="254.492188" xlink:href="#DejaVuSans-30"/>
       <use x="318.115234" xlink:href="#DejaVuSans-30"/>
      </g>
     </g>
    </g>
    <g id="ytick_8">
     <g id="line2d_8">
      <path clip-path="url(#p392edb12e8)" d="M 58.418125 94.214625 
L 985.263125 94.214625 
" style="fill:none;stroke:#dedede;stroke-linecap:square;"/>
     </g>
     <g id="text_15">
      <!-- 175000 -->
      <g transform="translate(20.878125 97.254)scale(0.08 -0.08)">
       <use xlink:href="#DejaVuSans-31"/>
       <use x="63.623047" xlink:href="#DejaVuSans-37"/>
       <use x="127.246094" xlink:href="#DejaVuSans-35"/>
       <use x="190.869141" xlink:href="#DejaVuSans-30"/>
       <use x="254.492188" xlink:href="#DejaVuSans-30"/>
       <use x="318.115234" xlink:href="#DejaVuSans-30"/>
      </g>
     </g>
    </g>
    <g id="ytick_9">
     <g id="line2d_9">
      <path clip-path="url(#p392edb12e8)" d="M 58.418125 57.2133 
L 985.263125 57.2133 
" style="fill:none;stroke:#dedede;stroke-linecap:square;"/>
     </g>
     <g id="text_16">
      <!-- 200000 -->
      <g transform="translate(20.878125 60.252675)scale(0.08 -0.08)">
       <use xlink:href="#DejaVuSans-32"/>
       <use x="63.623047" xlink:href="#DejaVuSans-30"/>
       <use x="127.246094" xlink:href="#DejaVuSans-30"/>
       <use x="190.869141" xlink:href="#DejaVuSans-30"/>
       <use x="254.492188" xlink:href="#DejaVuSans-30"/>
       <use x="318.115234" xlink:href="#DejaVuSans-30"/>
      </g>
     </g>
    </g>
    <g id="text_17">
     <!-- Number of Junctions -->
     <g transform="translate(14.798438 245.067244)rotate(-90)scale(0.1 -0.1)">
      <defs>
       <path d="M 628 4666 
L 1478 4666 
L 3547 763 
L 3547 4666 
L 4159 4666 
L 4159 0 
L 3309 0 
L 1241 3903 
L 1241 0 
L 628 0 
L 628 4666 
z
" id="DejaVuSans-4e" transform="scale(0.015625)"/>
       <path d="M 544 1381 
L 544 3500 
L 1119 3500 
L 1119 1403 
Q 1119 906 1312 657 
Q 1506 409 1894 409 
Q 2359 409 2629 706 
Q 2900 1003 2900 1516 
L 2900 3500 
L 3475 3500 
L 3475 0 
L 2900 0 
L 2900 538 
Q 2691 219 2414 64 
Q 2138 -91 1772 -91 
Q 1169 -91 856 284 
Q 544 659 544 1381 
z
M 1991 3584 
L 1991 3584 
z
" id="DejaVuSans-75" transform="scale(0.015625)"/>
       <path d="M 3328 2828 
Q 3544 3216 3844 3400 
Q 4144 3584 4550 3584 
Q 5097 3584 5394 3201 
Q 5691 2819 5691 2113 
L 5691 0 
L 5113 0 
L 5113 2094 
Q 5113 2597 4934 2840 
Q 4756 3084 4391 3084 
Q 3944 3084 3684 2787 
Q 3425 2491 3425 1978 
L 3425 0 
L 2847 0 
L 2847 2094 
Q 2847 2600 2669 2842 
Q 2491 3084 2119 3084 
Q 1678 3084 1418 2786 
Q 1159 2488 1159 1978 
L 1159 0 
L 581 0 
L 581 3500 
L 1159 3500 
L 1159 2956 
Q 1356 3278 1631 3431 
Q 1906 3584 2284 3584 
Q 2666 3584 2933 3390 
Q 3200 3197 3328 2828 
z
" id="DejaVuSans-6d" transform="scale(0.015625)"/>
       <path d="M 3116 1747 
Q 3116 2381 2855 2742 
Q 2594 3103 2138 3103 
Q 1681 3103 1420 2742 
Q 1159 2381 1159 1747 
Q 1159 1113 1420 752 
Q 1681 391 2138 391 
Q 2594 391 2855 752 
Q 3116 1113 3116 1747 
z
M 1159 2969 
Q 1341 3281 1617 3432 
Q 1894 3584 2278 3584 
Q 2916 3584 3314 3078 
Q 3713 2572 3713 1747 
Q 3713 922 3314 415 
Q 2916 -91 2278 -91 
Q 1894 -91 1617 61 
Q 1341 213 1159 525 
L 1159 0 
L 581 0 
L 581 4863 
L 1159 4863 
L 1159 2969 
z
" id="DejaVuSans-62" transform="scale(0.015625)"/>
       <path d="M 628 4666 
L 1259 4666 
L 1259 325 
Q 1259 -519 939 -900 
Q 619 -1281 -91 -1281 
L -331 -1281 
L -331 -750 
L -134 -750 
Q 284 -750 456 -515 
Q 628 -281 628 325 
L 628 4666 
z
" id="DejaVuSans-4a" transform="scale(0.015625)"/>
       <path d="M 603 3500 
L 1178 3500 
L 1178 0 
L 603 0 
L 603 3500 
z
M 603 4863 
L 1178 4863 
L 1178 4134 
L 603 4134 
L 603 4863 
z
" id="DejaVuSans-69" transform="scale(0.015625)"/>
      </defs>
      <use xlink:href="#DejaVuSans-4e"/>
      <use x="74.804688" xlink:href="#DejaVuSans-75"/>
      <use x="138.183594" xlink:href="#DejaVuSans-6d"/>
      <use x="235.595703" xlink:href="#DejaVuSans-62"/>
      <use x="299.072266" xlink:href="#DejaVuSans-65"/>
      <use x="360.595703" xlink:href="#DejaVuSans-72"/>
      <use x="401.708984" xlink:href="#DejaVuSans-20"/>
      <use x="433.496094" xlink:href="#DejaVuSans-6f"/>
      <use x="494.677734" xlink:href="#DejaVuSans-66"/>
      <use x="529.882812" xlink:href="#DejaVuSans-20"/>
      <use x="561.669922" xlink:href="#DejaVuSans-4a"/>
      <use x="591.162109" xlink:href="#DejaVuSans-75"/>
      <use x="654.541016" xlink:href="#DejaVuSans-6e"/>
      <use x="717.919922" xlink:href="#DejaVuSans-63"/>
      <use x="772.900391" xlink:href="#DejaVuSans-74"/>
      <use x="812.109375" xlink:href="#DejaVuSans-69"/>
      <use x="839.892578" xlink:href="#DejaVuSans-6f"/>
      <use x="901.074219" xlink:href="#DejaVuSans-6e"/>
      <use x="964.453125" xlink:href="#DejaVuSans-73"/>
     </g>
    </g>
   </g>
   <g id="line2d_10">
    <path clip-path="url(#p392edb12e8)" d="M 104.760375 349.054591 
L 151.102625 344.980005 
L 197.444875 341.290233 
L 243.787125 337.57974 
L 290.129375 334.23482 
L 336.471625 331.012745 
L 382.813875 327.82323 
L 429.156125 324.72696 
L 475.498375 321.851217 
L 521.840625 318.891111 
L 568.182875 316.022768 
L 614.525125 313.191426 
L 660.867375 310.48293 
L 707.209625 307.759632 
L 753.551875 305.150299 
L 799.894125 302.462522 
L 846.236375 300.091477 
L 892.578625 297.530986 
L 938.920875 295.097779 
L 985.263125 292.762255 
" style="fill:none;stroke:#7cb5ec;stroke-linecap:square;"/>
   </g>
   <g id="line2d_11">
    <path clip-path="url(#p392edb12e8)" d="M 104.760375 349.198156 
L 151.102625 345.573506 
L 197.444875 341.969577 
L 243.787125 338.630577 
L 290.129375 335.472144 
L 336.471625 332.297431 
L 382.813875 329.389127 
L 429.156125 326.323937 
L 475.498375 323.520716 
L 521.840625 320.717496 
L 568.182875 318.072641 
L 614.525125 315.328623 
L 660.867375 312.651207 
L 707.209625 310.124757 
L 753.551875 307.636788 
L 799.894125 305.19174 
L 846.236375 302.651969 
L 892.578625 300.298685 
L 938.920875 297.840317 
L 985.263125 295.41451 
" style="fill:none;stroke:#434348;stroke-linecap:square;"/>
   </g>
   <g id="line2d_12">
    <path clip-path="url(#p392edb12e8)" d="M 104.760375 349.285479 
L 151.102625 345.734832 
L 197.444875 342.441714 
L 243.787125 339.200398 
L 290.129375 336.163329 
L 336.471625 333.241704 
L 382.813875 330.309719 
L 429.156125 327.547941 
L 475.498375 324.803922 
L 521.840625 322.182748 
L 568.182875 319.568975 
L 614.525125 316.968522 
L 660.867375 314.39619 
L 707.209625 311.915621 
L 753.551875 309.443932 
L 799.894125 307.025526 
L 846.236375 304.688522 
L 892.578625 302.39444 
L 938.920875 300.089997 
L 985.263125 297.667151 
" style="fill:none;stroke:#90ed7d;stroke-linecap:square;"/>
   </g>
   <g id="line2d_13">
    <path clip-path="url(#p392edb12e8)" d="M 104.760375 349.535608 
L 151.102625 346.226209 
L 197.444875 343.015974 
L 243.787125 339.916743 
L 290.129375 336.876715 
L 336.471625 334.060174 
L 382.813875 331.256953 
L 429.156125 328.504055 
L 475.498375 325.916922 
L 521.840625 323.301669 
L 568.182875 320.782618 
L 614.525125 318.248768 
L 660.867375 315.882163 
L 707.209625 313.460796 
L 753.551875 311.163754 
L 799.894125 308.890392 
L 846.236375 306.680673 
L 892.578625 304.512396 
L 938.920875 302.321917 
L 985.263125 300.095918 
" style="fill:none;stroke:#f7a35c;stroke-linecap:square;"/>
   </g>
   <g id="line2d_14">
    <path clip-path="url(#p392edb12e8)" d="M 104.760375 348.403367 
L 151.102625 344.050532 
L 197.444875 339.8235 
L 243.787125 335.886559 
L 290.129375 332.039901 
L 336.471625 328.36937 
L 382.813875 324.869045 
L 429.156125 321.39832 
L 475.498375 318.219167 
L 521.840625 314.915688 
L 568.182875 311.831258 
L 614.525125 308.702426 
L 660.867375 305.591354 
L 707.209625 302.583887 
L 753.551875 299.705184 
L 799.894125 296.785039 
L 846.236375 294.00698 
L 892.578625 291.194879 
L 938.920875 288.464181 
L 985.263125 285.684642 
" style="fill:none;stroke:#8085e9;stroke-linecap:square;"/>
   </g>
   <g id="line2d_15">
    <path clip-path="url(#p392edb12e8)" d="M 104.760375 348.851823 
L 151.102625 344.633672 
L 197.444875 340.821056 
L 243.787125 337.137204 
L 290.129375 333.67388 
L 336.471625 330.297879 
L 382.813875 327.277091 
L 429.156125 324.201541 
L 475.498375 321.10971 
L 521.840625 318.053401 
L 568.182875 315.072574 
L 614.525125 312.145029 
L 660.867375 309.255966 
L 707.209625 306.386143 
L 753.551875 303.625844 
L 799.894125 300.899586 
L 846.236375 298.362775 
L 892.578625 295.621717 
L 938.920875 292.994623 
L 985.263125 290.503694 
" style="fill:none;stroke:#f15c80;stroke-linecap:square;"/>
   </g>
   <g id="line2d_16">
    <path clip-path="url(#p392edb12e8)" d="M 104.760375 348.085156 
L 151.102625 343.263143 
L 197.444875 338.743061 
L 243.787125 334.455348 
L 290.129375 330.31564 
L 336.471625 326.164091 
L 382.813875 322.175348 
L 429.156125 318.410093 
L 475.498375 314.749922 
L 521.840625 311.113432 
L 568.182875 307.547984 
L 614.525125 304.206025 
L 660.867375 300.745661 
L 707.209625 297.300097 
L 753.551875 294.055821 
L 799.894125 290.832266 
L 846.236375 287.679753 
L 892.578625 284.601243 
L 938.920875 281.475371 
L 985.263125 278.467903 
" style="fill:none;stroke:#e4d354;stroke-linecap:square;"/>
   </g>
   <g id="line2d_17">
    <path clip-path="url(#p392edb12e8)" d="M 104.760375 327.506499 
L 151.102625 305.273143 
L 197.444875 284.977176 
L 243.787125 266.36255 
L 290.129375 248.818001 
L 336.471625 232.217727 
L 382.813875 216.37228 
L 429.156125 201.101093 
L 475.498375 186.525531 
L 521.840625 172.578991 
L 568.182875 158.789338 
L 614.525125 145.46294 
L 660.867375 132.547998 
L 707.209625 120.006029 
L 753.551875 107.730469 
L 799.894125 95.765721 
L 846.236375 84.144345 
L 892.578625 72.675414 
L 938.920875 61.292326 
L 985.263125 50.22449 
" style="fill:none;stroke:#2b908f;stroke-linecap:square;"/>
   </g>
   <g id="line2d_18">
    <path clip-path="url(#p392edb12e8)" d="M 104.760375 348.597254 
L 151.102625 344.530069 
L 197.444875 340.421442 
L 243.787125 336.582184 
L 290.129375 332.907212 
L 336.471625 329.445369 
L 382.813875 326.042727 
L 429.156125 322.690407 
L 475.498375 319.493492 
L 521.840625 316.389821 
L 568.182875 313.262469 
L 614.525125 310.21652 
L 660.867375 307.328937 
L 707.209625 304.441353 
L 753.551875 301.56265 
L 799.894125 298.636585 
L 846.236375 295.741602 
L 892.578625 292.950222 
L 938.920875 290.136641 
L 985.263125 287.294939 
" style="fill:none;stroke:#f45b5b;stroke-linecap:square;"/>
   </g>
   <g id="line2d_19">
    <path clip-path="url(#p392edb12e8)" d="M 104.760375 348.887345 
L 151.102625 344.866041 
L 197.444875 341.174789 
L 243.787125 337.603421 
L 290.129375 334.280702 
L 336.471625 330.89434 
L 382.813875 327.570141 
L 429.156125 324.46499 
L 475.498375 321.281396 
L 521.840625 318.170325 
L 568.182875 315.199858 
L 614.525125 312.346316 
L 660.867375 309.340329 
L 707.209625 306.504547 
L 753.551875 303.690966 
L 799.894125 300.955828 
L 846.236375 298.20885 
L 892.578625 295.617277 
L 938.920875 292.91322 
L 985.263125 290.326088 
" style="fill:none;stroke:#91e8e1;stroke-linecap:square;"/>
   </g>
   <g id="line2d_20">
    <path clip-path="url(#p392edb12e8)" d="M 104.760375 348.147318 
L 151.102625 343.356387 
L 197.444875 339.018351 
L 243.787125 334.838682 
L 290.129375 330.87658 
L 336.471625 327.022522 
L 382.813875 323.288348 
L 429.156125 319.628177 
L 475.498375 316.055329 
L 521.840625 312.590525 
L 568.182875 309.217484 
L 614.525125 305.903646 
L 660.867375 302.628288 
L 707.209625 299.458015 
L 753.551875 296.268501 
L 799.894125 293.18999 
L 846.236375 290.021197 
L 892.578625 287.012249 
L 938.920875 284.108385 
L 985.263125 281.200081 
" style="fill:none;stroke:#7cb5ec;stroke-linecap:square;"/>
   </g>
   <g id="line2d_21">
    <path clip-path="url(#p392edb12e8)" d="M 104.760375 348.141398 
L 151.102625 343.368227 
L 197.444875 339.081994 
L 243.787125 334.849042 
L 290.129375 330.929862 
L 336.471625 327.095044 
L 382.813875 323.285388 
L 429.156125 319.635577 
L 475.498375 316.043489 
L 521.840625 312.559444 
L 568.182875 309.187883 
L 614.525125 305.902165 
L 660.867375 302.594247 
L 707.209625 299.31741 
L 753.551875 296.144176 
L 799.894125 293.129308 
L 846.236375 290.089279 
L 892.578625 287.081812 
L 938.920875 284.182388 
L 985.263125 281.399888 
" style="fill:none;stroke:#434348;stroke-linecap:square;"/>
   </g>
   <g id="line2d_22">
    <path clip-path="url(#p392edb12e8)" d="M 104.760375 348.307164 
L 151.102625 343.636117 
L 197.444875 339.188557 
L 243.787125 334.976327 
L 290.129375 330.990544 
L 336.471625 327.053603 
L 382.813875 323.134423 
L 429.156125 319.555654 
L 475.498375 315.984287 
L 521.840625 312.483961 
L 568.182875 309.09464 
L 614.525125 305.555833 
L 660.867375 302.360399 
L 707.209625 299.224166 
L 753.551875 296.042052 
L 799.894125 292.945782 
L 846.236375 289.922033 
L 892.578625 286.861284 
L 938.920875 283.790174 
L 985.263125 280.924791 
" style="fill:none;stroke:#90ed7d;stroke-linecap:square;"/>
   </g>
   <g id="line2d_23">
    <path clip-path="url(#p392edb12e8)" d="M 104.760375 348.46849 
L 151.102625 344.00909 
L 197.444875 339.841261 
L 243.787125 335.821437 
L 290.129375 332.038421 
L 336.471625 328.327929 
L 382.813875 324.784682 
L 429.156125 321.279916 
L 475.498375 318.04748 
L 521.840625 314.816525 
L 568.182875 311.547088 
L 614.525125 308.359053 
L 660.867375 305.270183 
L 707.209625 302.203513 
L 753.551875 299.283368 
L 799.894125 296.292181 
L 846.236375 293.406078 
L 892.578625 290.724222 
L 938.920875 287.88548 
L 985.263125 285.178463 
" style="fill:none;stroke:#f7a35c;stroke-linecap:square;"/>
   </g>
   <g id="line2d_24">
    <path clip-path="url(#p392edb12e8)" d="M 104.760375 348.693458 
L 151.102625 344.469387 
L 197.444875 340.530965 
L 243.787125 336.731669 
L 290.129375 333.1233 
L 336.471625 329.77838 
L 382.813875 326.331337 
L 429.156125 323.138863 
L 475.498375 319.965629 
L 521.840625 316.887119 
L 568.182875 313.915172 
L 614.525125 311.021669 
L 660.867375 308.098564 
L 707.209625 305.276103 
L 753.551875 302.517284 
L 799.894125 299.699263 
L 846.236375 296.940445 
L 892.578625 294.265989 
L 938.920875 291.689217 
L 985.263125 289.121325 
" style="fill:none;stroke:#8085e9;stroke-linecap:square;"/>
   </g>
   <g id="line2d_25">
    <path clip-path="url(#p392edb12e8)" d="M 104.760375 349.112313 
L 151.102625 345.243454 
L 197.444875 341.606964 
L 243.787125 338.14364 
L 290.129375 334.78836 
L 336.471625 331.462681 
L 382.813875 328.230245 
L 429.156125 325.202057 
L 475.498375 322.302633 
L 521.840625 319.320326 
L 568.182875 316.422382 
L 614.525125 313.638402 
L 660.867375 310.882544 
L 707.209625 308.199208 
L 753.551875 305.46851 
L 799.894125 302.857696 
L 846.236375 300.230602 
L 892.578625 297.683431 
L 938.920875 295.204342 
L 985.263125 292.765215 
" style="fill:none;stroke:#f15c80;stroke-linecap:square;"/>
   </g>
   <g id="line2d_26">
    <path clip-path="url(#p392edb12e8)" d="M 104.760375 348.925826 
L 151.102625 344.793518 
L 197.444875 340.797375 
L 243.787125 337.146084 
L 290.129375 333.737522 
L 336.471625 330.291959 
L 382.813875 327.041762 
L 429.156125 323.858168 
L 475.498375 320.625733 
L 521.840625 317.625665 
L 568.182875 314.776563 
L 614.525125 311.749855 
L 660.867375 308.80899 
L 707.209625 305.919926 
L 753.551875 303.027903 
L 799.894125 300.391928 
L 846.236375 297.66271 
L 892.578625 295.054857 
L 938.920875 292.518046 
L 985.263125 289.969395 
" style="fill:none;stroke:#e4d354;stroke-linecap:square;"/>
   </g>
   <g id="line2d_27">
    <path clip-path="url(#p392edb12e8)" d="M 104.760375 349.152274 
L 151.102625 345.577946 
L 197.444875 342.033219 
L 243.787125 338.803744 
L 290.129375 335.670471 
L 336.471625 332.745887 
L 382.813875 329.800581 
L 429.156125 326.911518 
L 475.498375 324.056496 
L 521.840625 321.290277 
L 568.182875 318.60694 
L 614.525125 315.954685 
L 660.867375 313.336472 
L 707.209625 310.790781 
L 753.551875 308.397535 
L 799.894125 305.973208 
L 846.236375 303.50448 
L 892.578625 301.109754 
L 938.920875 298.752029 
L 985.263125 296.515669 
" style="fill:none;stroke:#2b908f;stroke-linecap:square;"/>
   </g>
   <g id="line2d_28">
    <path clip-path="url(#p392edb12e8)" d="M 104.760375 349.249958 
L 151.102625 345.560186 
L 197.444875 341.917775 
L 243.787125 338.479612 
L 290.129375 335.222015 
L 336.471625 332.146465 
L 382.813875 329.236681 
L 429.156125 326.357978 
L 475.498375 323.517756 
L 521.840625 320.714536 
L 568.182875 318.068201 
L 614.525125 315.476628 
L 660.867375 312.914657 
L 707.209625 310.453328 
L 753.551875 307.923918 
L 799.894125 305.329385 
L 846.236375 302.902098 
L 892.578625 300.545854 
L 938.920875 298.120047 
L 985.263125 295.759362 
" style="fill:none;stroke:#f45b5b;stroke-linecap:square;"/>
   </g>
   <g id="line2d_29">
    <path clip-path="url(#p392edb12e8)" d="M 104.760375 348.015593 
L 151.102625 343.45407 
L 197.444875 339.129355 
L 243.787125 334.880123 
L 290.129375 330.907661 
L 336.471625 327.092084 
L 382.813875 323.34903 
L 429.156125 319.688859 
L 475.498375 316.170773 
L 521.840625 312.617166 
L 568.182875 309.238205 
L 614.525125 305.834083 
L 660.867375 302.68897 
L 707.209625 299.548298 
L 753.551875 296.361744 
L 799.894125 293.269913 
L 846.236375 290.343848 
L 892.578625 287.392623 
L 938.920875 284.589402 
L 985.263125 281.73734 
" style="fill:none;stroke:#91e8e1;stroke-linecap:square;"/>
   </g>
   <g id="line2d_30">
    <path clip-path="url(#p392edb12e8)" d="M 104.760375 348.542492 
L 151.102625 344.160055 
L 197.444875 339.983346 
L 243.787125 336.010884 
L 290.129375 332.29151 
L 336.471625 328.535136 
L 382.813875 324.978569 
L 429.156125 321.463443 
L 475.498375 318.087442 
L 521.840625 314.622638 
L 568.182875 311.351721 
L 614.525125 308.222889 
L 660.867375 305.097017 
L 707.209625 302.055508 
L 753.551875 299.231567 
L 799.894125 296.326223 
L 846.236375 293.491921 
L 892.578625 290.651699 
L 938.920875 287.814438 
L 985.263125 285.000857 
" style="fill:none;stroke:#7cb5ec;stroke-linecap:square;"/>
   </g>
   <g id="line2d_31">
    <path clip-path="url(#p392edb12e8)" d="M 104.760375 349.59629 
L 151.102625 346.033803 
L 197.444875 342.666682 
L 243.787125 339.659214 
L 290.129375 336.588104 
L 336.471625 333.635399 
L 382.813875 330.710814 
L 429.156125 328.023038 
L 475.498375 325.247938 
L 521.840625 322.647485 
L 568.182875 320.044072 
L 614.525125 317.427338 
L 660.867375 314.946769 
L 707.209625 312.483961 
L 753.551875 310.083315 
L 799.894125 307.774433 
L 846.236375 305.345666 
L 892.578625 302.9539 
L 938.920875 300.758981 
L 985.263125 298.49302 
" style="fill:none;stroke:#434348;stroke-linecap:square;"/>
   </g>
   <g id="line2d_32">
    <path clip-path="url(#p392edb12e8)" d="M 104.760375 348.76894 
L 151.102625 344.498988 
L 197.444875 340.522085 
L 243.787125 336.705028 
L 290.129375 333.050778 
L 336.471625 329.541572 
L 382.813875 325.992405 
L 429.156125 322.727408 
L 475.498375 319.487572 
L 521.840625 316.451983 
L 568.182875 313.428235 
L 614.525125 310.346765 
L 660.867375 307.351137 
L 707.209625 304.541997 
L 753.551875 301.709175 
L 799.894125 298.897075 
L 846.236375 296.005051 
L 892.578625 293.275833 
L 938.920875 290.67242 
L 985.263125 288.119329 
" style="fill:none;stroke:#90ed7d;stroke-linecap:square;"/>
   </g>
   <g id="line2d_33">
    <path clip-path="url(#p392edb12e8)" d="M 104.760375 348.277563 
L 151.102625 343.887726 
L 197.444875 339.709536 
L 243.787125 335.666031 
L 290.129375 331.868215 
L 336.471625 328.185843 
L 382.813875 324.681078 
L 429.156125 321.225154 
L 475.498375 317.821032 
L 521.840625 314.569356 
L 568.182875 311.3458 
L 614.525125 308.218448 
L 660.867375 305.166579 
L 707.209625 302.052548 
L 753.551875 299.073201 
L 799.894125 296.139736 
L 846.236375 293.300994 
L 892.578625 290.39269 
L 938.920875 287.59539 
L 985.263125 284.786249 
" style="fill:none;stroke:#f7a35c;stroke-linecap:square;"/>
   </g>
   <g id="line2d_34">
    <path clip-path="url(#p392edb12e8)" d="M 104.760375 348.708258 
L 151.102625 344.467906 
L 197.444875 340.553166 
L 243.787125 336.821953 
L 290.129375 333.145501 
L 336.471625 329.615575 
L 382.813875 326.100449 
L 429.156125 322.79401 
L 475.498375 319.43725 
L 521.840625 316.197414 
L 568.182875 313.197347 
L 614.525125 310.178039 
L 660.867375 307.14245 
L 707.209625 304.158663 
L 753.551875 301.245919 
L 799.894125 298.349455 
L 846.236375 295.664639 
L 892.578625 292.8999 
L 938.920875 290.067078 
L 985.263125 287.345261 
" style="fill:none;stroke:#8085e9;stroke-linecap:square;"/>
   </g>
   <g id="line2d_35">
    <path clip-path="url(#p392edb12e8)" d="M 104.760375 348.792621 
L 151.102625 344.695835 
L 197.444875 340.755934 
L 243.787125 337.049881 
L 290.129375 333.435591 
L 336.471625 329.975227 
L 382.813875 326.531144 
L 429.156125 323.161063 
L 475.498375 320.007071 
L 521.840625 316.947801 
L 568.182875 313.919613 
L 614.525125 310.934346 
L 660.867375 307.957959 
L 707.209625 305.102937 
L 753.551875 302.351518 
L 799.894125 299.681503 
L 846.236375 297.007047 
L 892.578625 294.280789 
L 938.920875 291.677376 
L 985.263125 289.060642 
" style="fill:none;stroke:#f15c80;stroke-linecap:square;"/>
   </g>
   <g id="line2d_36">
    <path clip-path="url(#p392edb12e8)" d="M 104.760375 348.045195 
L 151.102625 343.199501 
L 197.444875 338.682379 
L 243.787125 334.442027 
L 290.129375 330.351161 
L 336.471625 326.510423 
L 382.813875 322.737768 
L 429.156125 318.911831 
L 475.498375 315.164337 
L 521.840625 311.677332 
L 568.182875 308.113365 
L 614.525125 304.764005 
L 660.867375 301.420565 
L 707.209625 298.259172 
L 753.551875 295.099259 
L 799.894125 291.942306 
L 846.236375 288.850475 
L 892.578625 285.894809 
L 938.920875 282.925823 
L 985.263125 280.06488 
" style="fill:none;stroke:#e4d354;stroke-linecap:square;"/>
   </g>
   <g id="line2d_37">
    <path clip-path="url(#p392edb12e8)" d="M 104.760375 348.407808 
L 151.102625 343.938047 
L 197.444875 339.8235 
L 243.787125 335.856958 
L 290.129375 331.970339 
L 336.471625 328.301288 
L 382.813875 324.796522 
L 429.156125 321.310997 
L 475.498375 317.930556 
L 521.840625 314.67444 
L 568.182875 311.384282 
L 614.525125 308.243609 
L 660.867375 305.071856 
L 707.209625 302.052548 
L 753.551875 298.914835 
L 799.894125 295.953249 
L 846.236375 293.101187 
L 892.578625 290.198803 
L 938.920875 287.32306 
L 985.263125 284.542041 
" style="fill:none;stroke:#2b908f;stroke-linecap:square;"/>
   </g>
   <g id="line2d_38">
    <path clip-path="url(#p392edb12e8)" d="M 104.760375 347.725503 
L 151.102625 342.733284 
L 197.444875 338.112559 
L 243.787125 333.657599 
L 290.129375 329.403927 
L 336.471625 325.273099 
L 382.813875 321.09639 
L 429.156125 316.972962 
L 475.498375 313.102623 
L 521.840625 309.261886 
L 568.182875 305.543993 
L 614.525125 301.954864 
L 660.867375 298.389416 
L 707.209625 295.025256 
L 753.551875 291.628534 
L 799.894125 288.317656 
L 846.236375 285.006777 
L 892.578625 281.768421 
L 938.920875 278.635149 
L 985.263125 275.455995 
" style="fill:none;stroke:#f45b5b;stroke-linecap:square;"/>
   </g>
   <g id="line2d_39">
    <path clip-path="url(#p392edb12e8)" d="M 104.760375 348.178399 
L 151.102625 343.402268 
L 197.444875 338.932508 
L 243.787125 334.675876 
L 290.129375 330.453285 
L 336.471625 326.501543 
L 382.813875 322.677086 
L 429.156125 319.159 
L 475.498375 315.552111 
L 521.840625 311.89786 
L 568.182875 308.467097 
L 614.525125 305.209501 
L 660.867375 301.889742 
L 707.209625 298.615865 
L 753.551875 295.42043 
L 799.894125 292.287158 
L 846.236375 289.168686 
L 892.578625 286.053175 
L 938.920875 283.207033 
L 985.263125 280.282448 
" style="fill:none;stroke:#91e8e1;stroke-linecap:square;"/>
   </g>
   <g id="line2d_40">
    <path clip-path="url(#p392edb12e8)" d="M 104.760375 348.391527 
L 151.102625 343.795962 
L 197.444875 339.52749 
L 243.787125 335.510626 
L 290.129375 331.535203 
L 336.471625 327.644144 
L 382.813875 324.023934 
L 429.156125 320.461447 
L 475.498375 316.964082 
L 521.840625 313.506678 
L 568.182875 310.23132 
L 614.525125 306.908602 
L 660.867375 303.566642 
L 707.209625 300.44817 
L 753.551875 297.430342 
L 799.894125 294.375513 
L 846.236375 291.458328 
L 892.578625 288.550024 
L 938.920875 285.570677 
L 985.263125 282.626852 
" style="fill:none;stroke:#7cb5ec;stroke-linecap:square;"/>
   </g>
   <g id="line2d_41">
    <path clip-path="url(#p392edb12e8)" d="M 104.760375 347.734383 
L 151.102625 342.60452 
L 197.444875 337.86391 
L 243.787125 333.334948 
L 290.129375 329.143438 
L 336.471625 325.068852 
L 382.813875 321.179273 
L 429.156125 317.322254 
L 475.498375 313.614722 
L 521.840625 310.047794 
L 568.182875 306.485306 
L 614.525125 302.95242 
L 660.867375 299.625261 
L 707.209625 296.306982 
L 753.551875 293.034585 
L 799.894125 289.812509 
L 846.236375 286.621515 
L 892.578625 283.535605 
L 938.920875 280.439334 
L 985.263125 277.341583 
" style="fill:none;stroke:#434348;stroke-linecap:square;"/>
   </g>
   <g id="line2d_42">
    <path clip-path="url(#p392edb12e8)" d="M 104.760375 348.163599 
L 151.102625 343.420029 
L 197.444875 338.923628 
L 243.787125 334.705477 
L 290.129375 330.627931 
L 336.471625 326.642148 
L 382.813875 322.979017 
L 429.156125 319.233003 
L 475.498375 315.603913 
L 521.840625 312.116908 
L 568.182875 308.721666 
L 614.525125 305.385627 
L 660.867375 302.077709 
L 707.209625 298.926676 
L 753.551875 295.70164 
L 799.894125 292.692692 
L 846.236375 289.648223 
L 892.578625 286.654076 
L 938.920875 283.781293 
L 985.263125 280.754585 
" style="fill:none;stroke:#90ed7d;stroke-linecap:square;"/>
   </g>
   <g id="line2d_43">
    <path clip-path="url(#p392edb12e8)" d="M 104.760375 347.855748 
L 151.102625 342.835408 
L 197.444875 338.108119 
L 243.787125 333.555476 
L 290.129375 329.177479 
L 336.471625 324.944527 
L 382.813875 320.713056 
L 429.156125 316.705072 
L 475.498375 312.845094 
L 521.840625 309.137561 
L 568.182875 305.379707 
L 614.525125 301.82758 
L 660.867375 298.225131 
L 707.209625 294.702604 
L 753.551875 291.332524 
L 799.894125 287.87956 
L 846.236375 284.552401 
L 892.578625 281.411729 
L 938.920875 278.278456 
L 985.263125 275.047501 
" style="fill:none;stroke:#f7a35c;stroke-linecap:square;"/>
   </g>
   <g id="line2d_44">
    <path clip-path="url(#p392edb12e8)" d="M 58.418125 353.2239 
L 985.263125 353.2239 
" style="fill:none;stroke:#dedede;stroke-linecap:square;stroke-width:2;"/>
   </g>
   <g id="text_18">
    <!-- RSeQC: Junction Saturation -->
    <g transform="translate(412.691875 19.3575)scale(0.16 -0.16)">
     <defs>
      <path d="M 2841 2188 
Q 3044 2119 3236 1894 
Q 3428 1669 3622 1275 
L 4263 0 
L 3584 0 
L 2988 1197 
Q 2756 1666 2539 1819 
Q 2322 1972 1947 1972 
L 1259 1972 
L 1259 0 
L 628 0 
L 628 4666 
L 2053 4666 
Q 2853 4666 3247 4331 
Q 3641 3997 3641 3322 
Q 3641 2881 3436 2590 
Q 3231 2300 2841 2188 
z
M 1259 4147 
L 1259 2491 
L 2053 2491 
Q 2509 2491 2742 2702 
Q 2975 2913 2975 3322 
Q 2975 3731 2742 3939 
Q 2509 4147 2053 4147 
L 1259 4147 
z
" id="DejaVuSans-52" transform="scale(0.015625)"/>
      <path d="M 3425 4513 
L 3425 3897 
Q 3066 4069 2747 4153 
Q 2428 4238 2131 4238 
Q 1616 4238 1336 4038 
Q 1056 3838 1056 3469 
Q 1056 3159 1242 3001 
Q 1428 2844 1947 2747 
L 2328 2669 
Q 3034 2534 3370 2195 
Q 3706 1856 3706 1288 
Q 3706 609 3251 259 
Q 2797 -91 1919 -91 
Q 1588 -91 1214 -16 
Q 841 59 441 206 
L 441 856 
Q 825 641 1194 531 
Q 1563 422 1919 422 
Q 2459 422 2753 634 
Q 3047 847 3047 1241 
Q 3047 1584 2836 1778 
Q 2625 1972 2144 2069 
L 1759 2144 
Q 1053 2284 737 2584 
Q 422 2884 422 3419 
Q 422 4038 858 4394 
Q 1294 4750 2059 4750 
Q 2388 4750 2728 4690 
Q 3069 4631 3425 4513 
z
" id="DejaVuSans-53" transform="scale(0.015625)"/>
      <path d="M 2522 4238 
Q 1834 4238 1429 3725 
Q 1025 3213 1025 2328 
Q 1025 1447 1429 934 
Q 1834 422 2522 422 
Q 3209 422 3611 934 
Q 4013 1447 4013 2328 
Q 4013 3213 3611 3725 
Q 3209 4238 2522 4238 
z
M 3406 84 
L 4238 -825 
L 3475 -825 
L 2784 -78 
Q 2681 -84 2626 -87 
Q 2572 -91 2522 -91 
Q 1538 -91 948 567 
Q 359 1225 359 2328 
Q 359 3434 948 4092 
Q 1538 4750 2522 4750 
Q 3503 4750 4090 4092 
Q 4678 3434 4678 2328 
Q 4678 1516 4351 937 
Q 4025 359 3406 84 
z
" id="DejaVuSans-51" transform="scale(0.015625)"/>
      <path d="M 4122 4306 
L 4122 3641 
Q 3803 3938 3442 4084 
Q 3081 4231 2675 4231 
Q 1875 4231 1450 3742 
Q 1025 3253 1025 2328 
Q 1025 1406 1450 917 
Q 1875 428 2675 428 
Q 3081 428 3442 575 
Q 3803 722 4122 1019 
L 4122 359 
Q 3791 134 3420 21 
Q 3050 -91 2638 -91 
Q 1578 -91 968 557 
Q 359 1206 359 2328 
Q 359 3453 968 4101 
Q 1578 4750 2638 4750 
Q 3056 4750 3426 4639 
Q 3797 4528 4122 4306 
z
" id="DejaVuSans-43" transform="scale(0.015625)"/>
      <path d="M 750 794 
L 1409 794 
L 1409 0 
L 750 0 
L 750 794 
z
M 750 3309 
L 1409 3309 
L 1409 2516 
L 750 2516 
L 750 3309 
z
" id="DejaVuSans-3a" transform="scale(0.015625)"/>
     </defs>
     <use xlink:href="#DejaVuSans-52"/>
     <use x="69.482422" xlink:href="#DejaVuSans-53"/>
     <use x="132.958984" xlink:href="#DejaVuSans-65"/>
     <use x="194.482422" xlink:href="#DejaVuSans-51"/>
     <use x="273.193359" xlink:href="#DejaVuSans-43"/>
     <use x="343.017578" xlink:href="#DejaVuSans-3a"/>
     <use x="376.708984" xlink:href="#DejaVuSans-20"/>
     <use x="408.496094" xlink:href="#DejaVuSans-4a"/>
     <use x="437.988281" xlink:href="#DejaVuSans-75"/>
     <use x="501.367188" xlink:href="#DejaVuSans-6e"/>
     <use x="564.746094" xlink:href="#DejaVuSans-63"/>
     <use x="619.726562" xlink:href="#DejaVuSans-74"/>
     <use x="658.935547" xlink:href="#DejaVuSans-69"/>
     <use x="686.71875" xlink:href="#DejaVuSans-6f"/>
     <use x="747.900391" xlink:href="#DejaVuSans-6e"/>
     <use x="811.279297" xlink:href="#DejaVuSans-20"/>
     <use x="843.066406" xlink:href="#DejaVuSans-53"/>
     <use x="906.542969" xlink:href="#DejaVuSans-61"/>
     <use x="967.822266" xlink:href="#DejaVuSans-74"/>
     <use x="1007.03125" xlink:href="#DejaVuSans-75"/>
     <use x="1070.410156" xlink:href="#DejaVuSans-72"/>
     <use x="1111.523438" xlink:href="#DejaVuSans-61"/>
     <use x="1172.802734" xlink:href="#DejaVuSans-74"/>
     <use x="1212.011719" xlink:href="#DejaVuSans-69"/>
     <use x="1239.794922" xlink:href="#DejaVuSans-6f"/>
     <use x="1300.976562" xlink:href="#DejaVuSans-6e"/>
    </g>
   </g>
  </g>
 </g>
 <defs>
  <clipPath id="p392edb12e8">
   <rect height="317.968" width="926.845" x="58.418125" y="35.2559"/>
  </clipPath>
 </defs>
</svg>
