<?xml version="1.0" encoding="utf-8" standalone="no"?>
<!DOCTYPE svg PUBLIC "-//W3C//DTD SVG 1.1//EN"
  "http://www.w3.org/Graphics/SVG/1.1/DTD/svg11.dtd">
<svg height="388.844525pt" version="1.1" viewBox="0 0 1000.318125 388.844525" width="1000.318125pt" xmlns="http://www.w3.org/2000/svg" xmlns:xlink="http://www.w3.org/1999/xlink">
 <metadata>
  <rdf:RDF xmlns:cc="http://creativecommons.org/ns#" xmlns:dc="http://purl.org/dc/elements/1.1/" xmlns:rdf="http://www.w3.org/1999/02/22-rdf-syntax-ns#">
   <cc:Work>
    <dc:type rdf:resource="http://purl.org/dc/dcmitype/StillImage"/>
    <dc:date>2022-11-03T13:38:32.014515</dc:date>
    <dc:format>image/svg+xml</dc:format>
    <dc:creator>
     <cc:Agent>
      <dc:title>Matplotlib v3.4.2, https://matplotlib.org/</dc:title>
     </cc:Agent>
    </dc:creator>
   </cc:Work>
  </rdf:RDF>
 </metadata>
 <defs>
  <style type="text/css">*{stroke-linecap:butt;stroke-linejoin:round;}</style>
 </defs>
 <g id="figure_1">
  <g id="axes_1">
   <g id="patch_1">
    <path d="M 38.058125 353.2239 
L 993.118125 353.2239 
L 993.118125 35.2559 
L 38.058125 35.2559 
z
" style="fill:#ffffff;"/>
   </g>
   <g id="patch_2">
    <path clip-path="url(#pe05d83ccda)" d="M 38.058125 108.681569 
L 958.476371 108.681569 
L 958.476371 -520.141568 
L 38.058125 -520.141568 
z
" style="fill:#c3e6c3;"/>
   </g>
   <g id="patch_3">
    <path clip-path="url(#pe05d83ccda)" d="M 38.058125 178.550806 
L 958.476371 178.550806 
L 958.476371 108.681569 
L 38.058125 108.681569 
z
" style="fill:#e6dcc3;"/>
   </g>
   <g id="patch_4">
    <path clip-path="url(#pe05d83ccda)" d="M 38.058125 353.2239 
L 958.476371 353.2239 
L 958.476371 178.550806 
L 38.058125 178.550806 
z
" style="fill:#e6c3c3;"/>
   </g>
   <g id="matplotlib.axis_1">
    <g id="xtick_1">
     <g id="text_1">
      <!-- 0 -->
      <g transform="translate(70.154879 366.30265)scale(0.08 -0.08)">
       <defs>
        <path d="M 2034 4250 
Q 1547 4250 1301 3770 
Q 1056 3291 1056 2328 
Q 1056 1369 1301 889 
Q 1547 409 2034 409 
Q 2525 409 2770 889 
Q 3016 1369 3016 2328 
Q 3016 3291 2770 3770 
Q 2525 4250 2034 4250 
z
M 2034 4750 
Q 2819 4750 3233 4129 
Q 3647 3509 3647 2328 
Q 3647 1150 3233 529 
Q 2819 -91 2034 -91 
Q 1250 -91 836 529 
Q 422 1150 422 2328 
Q 422 3509 836 4129 
Q 1250 4750 2034 4750 
z
" id="DejaVuSans-30" transform="scale(0.015625)"/>
       </defs>
       <use xlink:href="#DejaVuSans-30"/>
      </g>
     </g>
    </g>
    <g id="xtick_2">
     <g id="text_2">
      <!-- 20 -->
      <g transform="translate(243.011164 366.30265)scale(0.08 -0.08)">
       <defs>
        <path d="M 1228 531 
L 3431 531 
L 3431 0 
L 469 0 
L 469 531 
Q 828 903 1448 1529 
Q 2069 2156 2228 2338 
Q 2531 2678 2651 2914 
Q 2772 3150 2772 3378 
Q 2772 3750 2511 3984 
Q 2250 4219 1831 4219 
Q 1534 4219 1204 4116 
Q 875 4013 500 3803 
L 500 4441 
Q 881 4594 1212 4672 
Q 1544 4750 1819 4750 
Q 2544 4750 2975 4387 
Q 3406 4025 3406 3419 
Q 3406 3131 3298 2873 
Q 3191 2616 2906 2266 
Q 2828 2175 2409 1742 
Q 1991 1309 1228 531 
z
" id="DejaVuSans-32" transform="scale(0.015625)"/>
       </defs>
       <use xlink:href="#DejaVuSans-32"/>
       <use x="63.623047" xlink:href="#DejaVuSans-30"/>
      </g>
     </g>
    </g>
    <g id="xtick_3">
     <g id="text_3">
      <!-- 40 -->
      <g transform="translate(418.41245 366.30265)scale(0.08 -0.08)">
       <defs>
        <path d="M 2419 4116 
L 825 1625 
L 2419 1625 
L 2419 4116 
z
M 2253 4666 
L 3047 4666 
L 3047 1625 
L 3713 1625 
L 3713 1100 
L 3047 1100 
L 3047 0 
L 2419 0 
L 2419 1100 
L 313 1100 
L 313 1709 
L 2253 4666 
z
" id="DejaVuSans-34" transform="scale(0.015625)"/>
       </defs>
       <use xlink:href="#DejaVuSans-34"/>
       <use x="63.623047" xlink:href="#DejaVuSans-30"/>
      </g>
     </g>
    </g>
    <g id="xtick_4">
     <g id="text_4">
      <!-- 60 -->
      <g transform="translate(593.813736 366.30265)scale(0.08 -0.08)">
       <defs>
        <path d="M 2113 2584 
Q 1688 2584 1439 2293 
Q 1191 2003 1191 1497 
Q 1191 994 1439 701 
Q 1688 409 2113 409 
Q 2538 409 2786 701 
Q 3034 994 3034 1497 
Q 3034 2003 2786 2293 
Q 2538 2584 2113 2584 
z
M 3366 4563 
L 3366 3988 
Q 3128 4100 2886 4159 
Q 2644 4219 2406 4219 
Q 1781 4219 1451 3797 
Q 1122 3375 1075 2522 
Q 1259 2794 1537 2939 
Q 1816 3084 2150 3084 
Q 2853 3084 3261 2657 
Q 3669 2231 3669 1497 
Q 3669 778 3244 343 
Q 2819 -91 2113 -91 
Q 1303 -91 875 529 
Q 447 1150 447 2328 
Q 447 3434 972 4092 
Q 1497 4750 2381 4750 
Q 2619 4750 2861 4703 
Q 3103 4656 3366 4563 
z
" id="DejaVuSans-36" transform="scale(0.015625)"/>
       </defs>
       <use xlink:href="#DejaVuSans-36"/>
       <use x="63.623047" xlink:href="#DejaVuSans-30"/>
      </g>
     </g>
    </g>
    <g id="xtick_5">
     <g id="text_5">
      <!-- 80 -->
      <g transform="translate(769.215021 366.30265)scale(0.08 -0.08)">
       <defs>
        <path d="M 2034 2216 
Q 1584 2216 1326 1975 
Q 1069 1734 1069 1313 
Q 1069 891 1326 650 
Q 1584 409 2034 409 
Q 2484 409 2743 651 
Q 3003 894 3003 1313 
Q 3003 1734 2745 1975 
Q 2488 2216 2034 2216 
z
M 1403 2484 
Q 997 2584 770 2862 
Q 544 3141 544 3541 
Q 544 4100 942 4425 
Q 1341 4750 2034 4750 
Q 2731 4750 3128 4425 
Q 3525 4100 3525 3541 
Q 3525 3141 3298 2862 
Q 3072 2584 2669 2484 
Q 3125 2378 3379 2068 
Q 3634 1759 3634 1313 
Q 3634 634 3220 271 
Q 2806 -91 2034 -91 
Q 1263 -91 848 271 
Q 434 634 434 1313 
Q 434 1759 690 2068 
Q 947 2378 1403 2484 
z
M 1172 3481 
Q 1172 3119 1398 2916 
Q 1625 2713 2034 2713 
Q 2441 2713 2670 2916 
Q 2900 3119 2900 3481 
Q 2900 3844 2670 4047 
Q 2441 4250 2034 4250 
Q 1625 4250 1398 4047 
Q 1172 3844 1172 3481 
z
" id="DejaVuSans-38" transform="scale(0.015625)"/>
       </defs>
       <use xlink:href="#DejaVuSans-38"/>
       <use x="63.623047" xlink:href="#DejaVuSans-30"/>
      </g>
     </g>
    </g>
    <g id="xtick_6">
     <g id="text_6">
      <!-- 100 -->
      <g transform="translate(942.071307 366.30265)scale(0.08 -0.08)">
       <defs>
        <path d="M 794 531 
L 1825 531 
L 1825 4091 
L 703 3866 
L 703 4441 
L 1819 4666 
L 2450 4666 
L 2450 531 
L 3481 531 
L 3481 0 
L 794 0 
L 794 531 
z
" id="DejaVuSans-31" transform="scale(0.015625)"/>
       </defs>
       <use xlink:href="#DejaVuSans-31"/>
       <use x="63.623047" xlink:href="#DejaVuSans-30"/>
       <use x="127.246094" xlink:href="#DejaVuSans-30"/>
      </g>
     </g>
    </g>
    <g id="text_7">
     <!-- Position (bp) -->
     <g transform="translate(484.285 379.564837)scale(0.1 -0.1)">
      <defs>
       <path d="M 1259 4147 
L 1259 2394 
L 2053 2394 
Q 2494 2394 2734 2622 
Q 2975 2850 2975 3272 
Q 2975 3691 2734 3919 
Q 2494 4147 2053 4147 
L 1259 4147 
z
M 628 4666 
L 2053 4666 
Q 2838 4666 3239 4311 
Q 3641 3956 3641 3272 
Q 3641 2581 3239 2228 
Q 2838 1875 2053 1875 
L 1259 1875 
L 1259 0 
L 628 0 
L 628 4666 
z
" id="DejaVuSans-50" transform="scale(0.015625)"/>
       <path d="M 1959 3097 
Q 1497 3097 1228 2736 
Q 959 2375 959 1747 
Q 959 1119 1226 758 
Q 1494 397 1959 397 
Q 2419 397 2687 759 
Q 2956 1122 2956 1747 
Q 2956 2369 2687 2733 
Q 2419 3097 1959 3097 
z
M 1959 3584 
Q 2709 3584 3137 3096 
Q 3566 2609 3566 1747 
Q 3566 888 3137 398 
Q 2709 -91 1959 -91 
Q 1206 -91 779 398 
Q 353 888 353 1747 
Q 353 2609 779 3096 
Q 1206 3584 1959 3584 
z
" id="DejaVuSans-6f" transform="scale(0.015625)"/>
       <path d="M 2834 3397 
L 2834 2853 
Q 2591 2978 2328 3040 
Q 2066 3103 1784 3103 
Q 1356 3103 1142 2972 
Q 928 2841 928 2578 
Q 928 2378 1081 2264 
Q 1234 2150 1697 2047 
L 1894 2003 
Q 2506 1872 2764 1633 
Q 3022 1394 3022 966 
Q 3022 478 2636 193 
Q 2250 -91 1575 -91 
Q 1294 -91 989 -36 
Q 684 19 347 128 
L 347 722 
Q 666 556 975 473 
Q 1284 391 1588 391 
Q 1994 391 2212 530 
Q 2431 669 2431 922 
Q 2431 1156 2273 1281 
Q 2116 1406 1581 1522 
L 1381 1569 
Q 847 1681 609 1914 
Q 372 2147 372 2553 
Q 372 3047 722 3315 
Q 1072 3584 1716 3584 
Q 2034 3584 2315 3537 
Q 2597 3491 2834 3397 
z
" id="DejaVuSans-73" transform="scale(0.015625)"/>
       <path d="M 603 3500 
L 1178 3500 
L 1178 0 
L 603 0 
L 603 3500 
z
M 603 4863 
L 1178 4863 
L 1178 4134 
L 603 4134 
L 603 4863 
z
" id="DejaVuSans-69" transform="scale(0.015625)"/>
       <path d="M 1172 4494 
L 1172 3500 
L 2356 3500 
L 2356 3053 
L 1172 3053 
L 1172 1153 
Q 1172 725 1289 603 
Q 1406 481 1766 481 
L 2356 481 
L 2356 0 
L 1766 0 
Q 1100 0 847 248 
Q 594 497 594 1153 
L 594 3053 
L 172 3053 
L 172 3500 
L 594 3500 
L 594 4494 
L 1172 4494 
z
" id="DejaVuSans-74" transform="scale(0.015625)"/>
       <path d="M 3513 2113 
L 3513 0 
L 2938 0 
L 2938 2094 
Q 2938 2591 2744 2837 
Q 2550 3084 2163 3084 
Q 1697 3084 1428 2787 
Q 1159 2491 1159 1978 
L 1159 0 
L 581 0 
L 581 3500 
L 1159 3500 
L 1159 2956 
Q 1366 3272 1645 3428 
Q 1925 3584 2291 3584 
Q 2894 3584 3203 3211 
Q 3513 2838 3513 2113 
z
" id="DejaVuSans-6e" transform="scale(0.015625)"/>
       <path id="DejaVuSans-20" transform="scale(0.015625)"/>
       <path d="M 1984 4856 
Q 1566 4138 1362 3434 
Q 1159 2731 1159 2009 
Q 1159 1288 1364 580 
Q 1569 -128 1984 -844 
L 1484 -844 
Q 1016 -109 783 600 
Q 550 1309 550 2009 
Q 550 2706 781 3412 
Q 1013 4119 1484 4856 
L 1984 4856 
z
" id="DejaVuSans-28" transform="scale(0.015625)"/>
       <path d="M 3116 1747 
Q 3116 2381 2855 2742 
Q 2594 3103 2138 3103 
Q 1681 3103 1420 2742 
Q 1159 2381 1159 1747 
Q 1159 1113 1420 752 
Q 1681 391 2138 391 
Q 2594 391 2855 752 
Q 3116 1113 3116 1747 
z
M 1159 2969 
Q 1341 3281 1617 3432 
Q 1894 3584 2278 3584 
Q 2916 3584 3314 3078 
Q 3713 2572 3713 1747 
Q 3713 922 3314 415 
Q 2916 -91 2278 -91 
Q 1894 -91 1617 61 
Q 1341 213 1159 525 
L 1159 0 
L 581 0 
L 581 4863 
L 1159 4863 
L 1159 2969 
z
" id="DejaVuSans-62" transform="scale(0.015625)"/>
       <path d="M 1159 525 
L 1159 -1331 
L 581 -1331 
L 581 3500 
L 1159 3500 
L 1159 2969 
Q 1341 3281 1617 3432 
Q 1894 3584 2278 3584 
Q 2916 3584 3314 3078 
Q 3713 2572 3713 1747 
Q 3713 922 3314 415 
Q 2916 -91 2278 -91 
Q 1894 -91 1617 61 
Q 1341 213 1159 525 
z
M 3116 1747 
Q 3116 2381 2855 2742 
Q 2594 3103 2138 3103 
Q 1681 3103 1420 2742 
Q 1159 2381 1159 1747 
Q 1159 1113 1420 752 
Q 1681 391 2138 391 
Q 2594 391 2855 752 
Q 3116 1113 3116 1747 
z
" id="DejaVuSans-70" transform="scale(0.015625)"/>
       <path d="M 513 4856 
L 1013 4856 
Q 1481 4119 1714 3412 
Q 1947 2706 1947 2009 
Q 1947 1309 1714 600 
Q 1481 -109 1013 -844 
L 513 -844 
Q 928 -128 1133 580 
Q 1338 1288 1338 2009 
Q 1338 2731 1133 3434 
Q 928 4138 513 4856 
z
" id="DejaVuSans-29" transform="scale(0.015625)"/>
      </defs>
      <use xlink:href="#DejaVuSans-50"/>
      <use x="56.677734" xlink:href="#DejaVuSans-6f"/>
      <use x="117.859375" xlink:href="#DejaVuSans-73"/>
      <use x="169.958984" xlink:href="#DejaVuSans-69"/>
      <use x="197.742188" xlink:href="#DejaVuSans-74"/>
      <use x="236.951172" xlink:href="#DejaVuSans-69"/>
      <use x="264.734375" xlink:href="#DejaVuSans-6f"/>
      <use x="325.916016" xlink:href="#DejaVuSans-6e"/>
      <use x="389.294922" xlink:href="#DejaVuSans-20"/>
      <use x="421.082031" xlink:href="#DejaVuSans-28"/>
      <use x="460.095703" xlink:href="#DejaVuSans-62"/>
      <use x="523.572266" xlink:href="#DejaVuSans-70"/>
      <use x="587.048828" xlink:href="#DejaVuSans-29"/>
     </g>
    </g>
   </g>
   <g id="matplotlib.axis_2">
    <g id="ytick_1">
     <g id="line2d_1">
      <path clip-path="url(#pe05d83ccda)" d="M 38.058125 353.2239 
L 993.118125 353.2239 
" style="fill:none;stroke:#dedede;stroke-linecap:square;"/>
     </g>
     <g id="text_8">
      <!-- 0 -->
      <g transform="translate(25.968125 356.263275)scale(0.08 -0.08)">
       <use xlink:href="#DejaVuSans-30"/>
      </g>
     </g>
    </g>
    <g id="ytick_2">
     <g id="line2d_2">
      <path clip-path="url(#pe05d83ccda)" d="M 38.058125 309.555627 
L 993.118125 309.555627 
" style="fill:none;stroke:#dedede;stroke-linecap:square;"/>
     </g>
     <g id="text_9">
      <!-- 5 -->
      <g transform="translate(25.968125 312.595002)scale(0.08 -0.08)">
       <defs>
        <path d="M 691 4666 
L 3169 4666 
L 3169 4134 
L 1269 4134 
L 1269 2991 
Q 1406 3038 1543 3061 
Q 1681 3084 1819 3084 
Q 2600 3084 3056 2656 
Q 3513 2228 3513 1497 
Q 3513 744 3044 326 
Q 2575 -91 1722 -91 
Q 1428 -91 1123 -41 
Q 819 9 494 109 
L 494 744 
Q 775 591 1075 516 
Q 1375 441 1709 441 
Q 2250 441 2565 725 
Q 2881 1009 2881 1497 
Q 2881 1984 2565 2268 
Q 2250 2553 1709 2553 
Q 1456 2553 1204 2497 
Q 953 2441 691 2322 
L 691 4666 
z
" id="DejaVuSans-35" transform="scale(0.015625)"/>
       </defs>
       <use xlink:href="#DejaVuSans-35"/>
      </g>
     </g>
    </g>
    <g id="ytick_3">
     <g id="line2d_3">
      <path clip-path="url(#pe05d83ccda)" d="M 38.058125 265.887353 
L 993.118125 265.887353 
" style="fill:none;stroke:#dedede;stroke-linecap:square;"/>
     </g>
     <g id="text_10">
      <!-- 10 -->
      <g transform="translate(20.878125 268.926728)scale(0.08 -0.08)">
       <use xlink:href="#DejaVuSans-31"/>
       <use x="63.623047" xlink:href="#DejaVuSans-30"/>
      </g>
     </g>
    </g>
    <g id="ytick_4">
     <g id="line2d_4">
      <path clip-path="url(#pe05d83ccda)" d="M 38.058125 222.21908 
L 993.118125 222.21908 
" style="fill:none;stroke:#dedede;stroke-linecap:square;"/>
     </g>
     <g id="text_11">
      <!-- 15 -->
      <g transform="translate(20.878125 225.258455)scale(0.08 -0.08)">
       <use xlink:href="#DejaVuSans-31"/>
       <use x="63.623047" xlink:href="#DejaVuSans-35"/>
      </g>
     </g>
    </g>
    <g id="ytick_5">
     <g id="line2d_5">
      <path clip-path="url(#pe05d83ccda)" d="M 38.058125 178.550806 
L 993.118125 178.550806 
" style="fill:none;stroke:#dedede;stroke-linecap:square;"/>
     </g>
     <g id="text_12">
      <!-- 20 -->
      <g transform="translate(20.878125 181.590181)scale(0.08 -0.08)">
       <use xlink:href="#DejaVuSans-32"/>
       <use x="63.623047" xlink:href="#DejaVuSans-30"/>
      </g>
     </g>
    </g>
    <g id="ytick_6">
     <g id="line2d_6">
      <path clip-path="url(#pe05d83ccda)" d="M 38.058125 134.882533 
L 993.118125 134.882533 
" style="fill:none;stroke:#dedede;stroke-linecap:square;"/>
     </g>
     <g id="text_13">
      <!-- 25 -->
      <g transform="translate(20.878125 137.921908)scale(0.08 -0.08)">
       <use xlink:href="#DejaVuSans-32"/>
       <use x="63.623047" xlink:href="#DejaVuSans-35"/>
      </g>
     </g>
    </g>
    <g id="ytick_7">
     <g id="line2d_7">
      <path clip-path="url(#pe05d83ccda)" d="M 38.058125 91.21426 
L 993.118125 91.21426 
" style="fill:none;stroke:#dedede;stroke-linecap:square;"/>
     </g>
     <g id="text_14">
      <!-- 30 -->
      <g transform="translate(20.878125 94.253635)scale(0.08 -0.08)">
       <defs>
        <path d="M 2597 2516 
Q 3050 2419 3304 2112 
Q 3559 1806 3559 1356 
Q 3559 666 3084 287 
Q 2609 -91 1734 -91 
Q 1441 -91 1130 -33 
Q 819 25 488 141 
L 488 750 
Q 750 597 1062 519 
Q 1375 441 1716 441 
Q 2309 441 2620 675 
Q 2931 909 2931 1356 
Q 2931 1769 2642 2001 
Q 2353 2234 1838 2234 
L 1294 2234 
L 1294 2753 
L 1863 2753 
Q 2328 2753 2575 2939 
Q 2822 3125 2822 3475 
Q 2822 3834 2567 4026 
Q 2313 4219 1838 4219 
Q 1578 4219 1281 4162 
Q 984 4106 628 3988 
L 628 4550 
Q 988 4650 1302 4700 
Q 1616 4750 1894 4750 
Q 2613 4750 3031 4423 
Q 3450 4097 3450 3541 
Q 3450 3153 3228 2886 
Q 3006 2619 2597 2516 
z
" id="DejaVuSans-33" transform="scale(0.015625)"/>
       </defs>
       <use xlink:href="#DejaVuSans-33"/>
       <use x="63.623047" xlink:href="#DejaVuSans-30"/>
      </g>
     </g>
    </g>
    <g id="ytick_8">
     <g id="line2d_8">
      <path clip-path="url(#pe05d83ccda)" d="M 38.058125 47.545986 
L 993.118125 47.545986 
" style="fill:none;stroke:#dedede;stroke-linecap:square;"/>
     </g>
     <g id="text_15">
      <!-- 35 -->
      <g transform="translate(20.878125 50.585361)scale(0.08 -0.08)">
       <use xlink:href="#DejaVuSans-33"/>
       <use x="63.623047" xlink:href="#DejaVuSans-35"/>
      </g>
     </g>
    </g>
    <g id="text_16">
     <!-- Phred Score -->
     <g transform="translate(14.798438 224.20865)rotate(-90)scale(0.1 -0.1)">
      <defs>
       <path d="M 3513 2113 
L 3513 0 
L 2938 0 
L 2938 2094 
Q 2938 2591 2744 2837 
Q 2550 3084 2163 3084 
Q 1697 3084 1428 2787 
Q 1159 2491 1159 1978 
L 1159 0 
L 581 0 
L 581 4863 
L 1159 4863 
L 1159 2956 
Q 1366 3272 1645 3428 
Q 1925 3584 2291 3584 
Q 2894 3584 3203 3211 
Q 3513 2838 3513 2113 
z
" id="DejaVuSans-68" transform="scale(0.015625)"/>
       <path d="M 2631 2963 
Q 2534 3019 2420 3045 
Q 2306 3072 2169 3072 
Q 1681 3072 1420 2755 
Q 1159 2438 1159 1844 
L 1159 0 
L 581 0 
L 581 3500 
L 1159 3500 
L 1159 2956 
Q 1341 3275 1631 3429 
Q 1922 3584 2338 3584 
Q 2397 3584 2469 3576 
Q 2541 3569 2628 3553 
L 2631 2963 
z
" id="DejaVuSans-72" transform="scale(0.015625)"/>
       <path d="M 3597 1894 
L 3597 1613 
L 953 1613 
Q 991 1019 1311 708 
Q 1631 397 2203 397 
Q 2534 397 2845 478 
Q 3156 559 3463 722 
L 3463 178 
Q 3153 47 2828 -22 
Q 2503 -91 2169 -91 
Q 1331 -91 842 396 
Q 353 884 353 1716 
Q 353 2575 817 3079 
Q 1281 3584 2069 3584 
Q 2775 3584 3186 3129 
Q 3597 2675 3597 1894 
z
M 3022 2063 
Q 3016 2534 2758 2815 
Q 2500 3097 2075 3097 
Q 1594 3097 1305 2825 
Q 1016 2553 972 2059 
L 3022 2063 
z
" id="DejaVuSans-65" transform="scale(0.015625)"/>
       <path d="M 2906 2969 
L 2906 4863 
L 3481 4863 
L 3481 0 
L 2906 0 
L 2906 525 
Q 2725 213 2448 61 
Q 2172 -91 1784 -91 
Q 1150 -91 751 415 
Q 353 922 353 1747 
Q 353 2572 751 3078 
Q 1150 3584 1784 3584 
Q 2172 3584 2448 3432 
Q 2725 3281 2906 2969 
z
M 947 1747 
Q 947 1113 1208 752 
Q 1469 391 1925 391 
Q 2381 391 2643 752 
Q 2906 1113 2906 1747 
Q 2906 2381 2643 2742 
Q 2381 3103 1925 3103 
Q 1469 3103 1208 2742 
Q 947 2381 947 1747 
z
" id="DejaVuSans-64" transform="scale(0.015625)"/>
       <path d="M 3425 4513 
L 3425 3897 
Q 3066 4069 2747 4153 
Q 2428 4238 2131 4238 
Q 1616 4238 1336 4038 
Q 1056 3838 1056 3469 
Q 1056 3159 1242 3001 
Q 1428 2844 1947 2747 
L 2328 2669 
Q 3034 2534 3370 2195 
Q 3706 1856 3706 1288 
Q 3706 609 3251 259 
Q 2797 -91 1919 -91 
Q 1588 -91 1214 -16 
Q 841 59 441 206 
L 441 856 
Q 825 641 1194 531 
Q 1563 422 1919 422 
Q 2459 422 2753 634 
Q 3047 847 3047 1241 
Q 3047 1584 2836 1778 
Q 2625 1972 2144 2069 
L 1759 2144 
Q 1053 2284 737 2584 
Q 422 2884 422 3419 
Q 422 4038 858 4394 
Q 1294 4750 2059 4750 
Q 2388 4750 2728 4690 
Q 3069 4631 3425 4513 
z
" id="DejaVuSans-53" transform="scale(0.015625)"/>
       <path d="M 3122 3366 
L 3122 2828 
Q 2878 2963 2633 3030 
Q 2388 3097 2138 3097 
Q 1578 3097 1268 2742 
Q 959 2388 959 1747 
Q 959 1106 1268 751 
Q 1578 397 2138 397 
Q 2388 397 2633 464 
Q 2878 531 3122 666 
L 3122 134 
Q 2881 22 2623 -34 
Q 2366 -91 2075 -91 
Q 1284 -91 818 406 
Q 353 903 353 1747 
Q 353 2603 823 3093 
Q 1294 3584 2113 3584 
Q 2378 3584 2631 3529 
Q 2884 3475 3122 3366 
z
" id="DejaVuSans-63" transform="scale(0.015625)"/>
      </defs>
      <use xlink:href="#DejaVuSans-50"/>
      <use x="60.302734" xlink:href="#DejaVuSans-68"/>
      <use x="123.681641" xlink:href="#DejaVuSans-72"/>
      <use x="162.544922" xlink:href="#DejaVuSans-65"/>
      <use x="224.068359" xlink:href="#DejaVuSans-64"/>
      <use x="287.544922" xlink:href="#DejaVuSans-20"/>
      <use x="319.332031" xlink:href="#DejaVuSans-53"/>
      <use x="382.808594" xlink:href="#DejaVuSans-63"/>
      <use x="437.789062" xlink:href="#DejaVuSans-6f"/>
      <use x="498.970703" xlink:href="#DejaVuSans-72"/>
      <use x="537.833984" xlink:href="#DejaVuSans-65"/>
     </g>
    </g>
   </g>
   <g id="line2d_9">
    <path clip-path="url(#pe05d83ccda)" d="M 81.469943 39.404246 
L 90.240007 39.439049 
L 99.010072 36.996832 
L 107.780136 36.333576 
L 116.5502 36.086542 
L 125.320265 36.227235 
L 134.090329 37.108482 
L 142.860393 36.539375 
L 151.630457 36.772872 
L 160.400522 36.039595 
L 177.94065 36.33478 
L 195.480779 36.514424 
L 213.020907 36.554596 
L 230.561036 36.573251 
L 248.101164 36.647978 
L 265.641293 36.914432 
L 283.181422 37.099675 
L 300.72155 37.514337 
L 318.261679 37.753053 
L 335.801807 37.899232 
L 353.341936 37.996074 
L 370.882064 38.107913 
L 388.422193 38.303535 
L 405.962322 38.309616 
L 423.50245 38.554783 
L 441.042579 38.716486 
L 458.582707 38.869064 
L 476.122836 38.881402 
L 493.662964 39.295365 
L 511.203093 39.273637 
L 528.743221 39.435074 
L 546.28335 39.493873 
L 563.823479 39.8335 
L 581.363607 39.790095 
L 598.903736 40.185274 
L 616.443864 40.105388 
L 633.983993 40.085484 
L 651.524121 40.064528 
L 669.06425 40.168868 
L 686.604378 40.23897 
L 704.144507 40.592043 
L 721.684636 40.394566 
L 739.224764 40.649099 
L 756.764893 40.49147 
L 774.305021 40.676658 
L 791.84515 40.721806 
L 809.385278 40.775344 
L 826.925407 41.096668 
L 844.465535 41.259722 
L 862.005664 41.219058 
L 879.545793 41.416511 
L 897.085921 41.625207 
L 914.62605 41.862467 
L 932.166178 42.254179 
L 949.706307 44.266279 
" style="fill:none;stroke:#5cb85c;stroke-linecap:square;"/>
   </g>
   <g id="line2d_10">
    <path clip-path="url(#pe05d83ccda)" d="M 81.469943 39.770988 
L 90.240007 39.718457 
L 99.010072 37.187927 
L 107.780136 36.470502 
L 116.5502 36.256594 
L 125.320265 36.387401 
L 134.090329 37.210059 
L 142.860393 36.612983 
L 151.630457 36.904011 
L 160.400522 36.14349 
L 177.94065 36.428561 
L 195.480779 36.572361 
L 213.020907 36.655901 
L 230.561036 36.696905 
L 248.101164 36.78932 
L 265.641293 37.031046 
L 283.181422 37.246597 
L 300.72155 37.652009 
L 318.261679 37.928369 
L 335.801807 38.081795 
L 353.341936 38.238445 
L 370.882064 38.343135 
L 388.422193 38.805876 
L 405.962322 38.669937 
L 423.50245 38.748984 
L 441.042579 39.065225 
L 458.582707 39.968004 
L 476.122836 39.609726 
L 493.662964 41.079713 
L 511.203093 40.102093 
L 528.743221 40.613918 
L 546.28335 40.652721 
L 563.823479 41.713991 
L 581.363607 41.454969 
L 598.903736 41.358771 
L 616.443864 41.966112 
L 633.983993 41.279412 
L 651.524121 41.919456 
L 669.06425 42.170264 
L 686.604378 42.113452 
L 704.144507 41.480483 
L 721.684636 40.98943 
L 739.224764 41.137547 
L 756.764893 40.969953 
L 774.305021 41.159291 
L 791.84515 41.217085 
L 809.385278 41.265834 
L 826.925407 41.613364 
L 844.465535 41.771423 
L 862.005664 41.697946 
L 879.545793 41.876964 
L 897.085921 42.078099 
L 914.62605 42.345792 
L 932.166178 42.772786 
L 949.706307 44.858337 
" style="fill:none;stroke:#5cb85c;stroke-linecap:square;"/>
   </g>
   <g id="line2d_11">
    <path clip-path="url(#pe05d83ccda)" d="M 81.469943 39.99353 
L 90.240007 39.877751 
L 99.010072 37.393603 
L 107.780136 36.642591 
L 116.5502 36.472408 
L 125.320265 36.589542 
L 134.090329 37.40672 
L 142.860393 36.858984 
L 151.630457 37.166537 
L 160.400522 36.358219 
L 177.94065 36.606353 
L 195.480779 36.748448 
L 213.020907 36.842712 
L 230.561036 36.880244 
L 248.101164 36.970357 
L 265.641293 37.177051 
L 283.181422 37.413086 
L 300.72155 37.849802 
L 318.261679 38.146899 
L 335.801807 38.248139 
L 353.341936 38.318402 
L 370.882064 38.495269 
L 388.422193 38.706231 
L 405.962322 38.683999 
L 423.50245 39.031027 
L 441.042579 39.44165 
L 458.582707 40.571656 
L 476.122836 39.744375 
L 493.662964 42.192709 
L 511.203093 41.656325 
L 528.743221 42.317035 
L 546.28335 41.931732 
L 563.823479 42.841354 
L 581.363607 42.703841 
L 598.903736 42.358987 
L 616.443864 42.852135 
L 633.983993 42.594679 
L 651.524121 43.174027 
L 669.06425 43.280039 
L 686.604378 43.377914 
L 704.144507 42.762052 
L 721.684636 41.605206 
L 739.224764 41.501552 
L 756.764893 41.354357 
L 774.305021 41.495721 
L 791.84515 41.528917 
L 809.385278 41.571746 
L 826.925407 41.872531 
L 844.465535 42.029245 
L 862.005664 41.9817 
L 879.545793 42.160918 
L 897.085921 42.299193 
L 914.62605 42.586305 
L 932.166178 42.958105 
L 949.706307 45.097921 
" style="fill:none;stroke:#5cb85c;stroke-linecap:square;"/>
   </g>
   <g id="line2d_12">
    <path clip-path="url(#pe05d83ccda)" d="M 81.469943 40.406026 
L 90.240007 40.09464 
L 99.010072 37.450417 
L 107.780136 36.672183 
L 116.5502 36.470665 
L 125.320265 36.595013 
L 134.090329 37.514341 
L 142.860393 36.905815 
L 151.630457 37.196633 
L 160.400522 36.425076 
L 177.94065 36.67232 
L 195.480779 36.798335 
L 213.020907 36.868864 
L 230.561036 36.921579 
L 248.101164 37.01196 
L 265.641293 37.267063 
L 283.181422 37.477178 
L 300.72155 37.937002 
L 318.261679 38.177884 
L 335.801807 38.343638 
L 353.341936 38.485483 
L 370.882064 38.639377 
L 388.422193 38.834637 
L 405.962322 38.853722 
L 423.50245 39.082318 
L 441.042579 39.381534 
L 458.582707 40.010742 
L 476.122836 39.796405 
L 493.662964 40.218645 
L 511.203093 39.942885 
L 528.743221 40.071045 
L 546.28335 40.213314 
L 563.823479 40.899279 
L 581.363607 40.996145 
L 598.903736 41.116988 
L 616.443864 41.259614 
L 633.983993 41.002364 
L 651.524121 41.40031 
L 669.06425 41.959722 
L 686.604378 41.89729 
L 704.144507 41.576457 
L 721.684636 41.218513 
L 739.224764 41.451966 
L 756.764893 41.37302 
L 774.305021 41.593334 
L 791.84515 41.630025 
L 809.385278 41.587403 
L 826.925407 41.917521 
L 844.465535 42.137452 
L 862.005664 42.098465 
L 879.545793 42.261311 
L 897.085921 42.38754 
L 914.62605 42.634888 
L 932.166178 43.157292 
L 949.706307 45.334434 
" style="fill:none;stroke:#5cb85c;stroke-linecap:square;"/>
   </g>
   <g id="line2d_13">
    <path clip-path="url(#pe05d83ccda)" d="M 81.469943 39.302329 
L 90.240007 39.250427 
L 99.010072 36.893341 
L 107.780136 36.200296 
L 116.5502 35.9993 
L 125.320265 36.142064 
L 134.090329 37.019606 
L 142.860393 36.452116 
L 151.630457 36.732925 
L 160.400522 35.965323 
L 177.94065 36.25133 
L 195.480779 36.381335 
L 213.020907 36.461297 
L 230.561036 36.501756 
L 248.101164 36.583908 
L 265.641293 36.807216 
L 283.181422 37.010128 
L 300.72155 37.401545 
L 318.261679 37.661002 
L 335.801807 37.773331 
L 353.341936 37.836627 
L 370.882064 37.992026 
L 388.422193 38.203475 
L 405.962322 38.227526 
L 423.50245 38.486967 
L 441.042579 38.628642 
L 458.582707 39.297829 
L 476.122836 38.970327 
L 493.662964 39.382372 
L 511.203093 39.08068 
L 528.743221 39.222491 
L 546.28335 39.364193 
L 563.823479 40.056923 
L 581.363607 40.124202 
L 598.903736 40.199403 
L 616.443864 40.50245 
L 633.983993 40.086272 
L 651.524121 40.577029 
L 669.06425 41.05712 
L 686.604378 40.998126 
L 704.144507 40.609708 
L 721.684636 40.261377 
L 739.224764 40.505569 
L 756.764893 40.422195 
L 774.305021 40.612559 
L 791.84515 40.642382 
L 809.385278 40.660228 
L 826.925407 40.96154 
L 844.465535 41.15604 
L 862.005664 41.128909 
L 879.545793 41.305332 
L 897.085921 41.447549 
L 914.62605 41.673941 
L 932.166178 42.083881 
L 949.706307 44.100589 
" style="fill:none;stroke:#5cb85c;stroke-linecap:square;"/>
   </g>
   <g id="line2d_14">
    <path clip-path="url(#pe05d83ccda)" d="M 81.469943 39.473766 
L 90.240007 39.428461 
L 99.010072 37.018586 
L 107.780136 36.344619 
L 116.5502 36.164964 
L 125.320265 36.332919 
L 134.090329 37.164477 
L 142.860393 36.596874 
L 151.630457 36.906192 
L 160.400522 36.116765 
L 177.94065 36.404162 
L 195.480779 36.545497 
L 213.020907 36.639859 
L 230.561036 36.693813 
L 248.101164 36.782523 
L 265.641293 36.99264 
L 283.181422 37.204821 
L 300.72155 37.609335 
L 318.261679 37.889043 
L 335.801807 38.038554 
L 353.341936 38.097453 
L 370.882064 38.283814 
L 388.422193 38.532235 
L 405.962322 38.534396 
L 423.50245 38.778143 
L 441.042579 39.215734 
L 458.582707 40.101929 
L 476.122836 39.447759 
L 493.662964 40.82082 
L 511.203093 40.018863 
L 528.743221 40.381701 
L 546.28335 40.576404 
L 563.823479 41.626194 
L 581.363607 41.408908 
L 598.903736 41.307907 
L 616.443864 42.10341 
L 633.983993 41.220801 
L 651.524121 41.97621 
L 669.06425 42.388177 
L 686.604378 42.483613 
L 704.144507 41.627728 
L 721.684636 40.96584 
L 739.224764 41.144529 
L 756.764893 41.060844 
L 774.305021 41.258635 
L 791.84515 41.258239 
L 809.385278 41.317921 
L 826.925407 41.643379 
L 844.465535 41.817685 
L 862.005664 41.779513 
L 879.545793 42.046517 
L 897.085921 42.132533 
L 914.62605 42.419573 
L 932.166178 42.783573 
L 949.706307 44.782607 
" style="fill:none;stroke:#5cb85c;stroke-linecap:square;"/>
   </g>
   <g id="line2d_15">
    <path clip-path="url(#pe05d83ccda)" d="M 81.469943 39.176566 
L 90.240007 39.101369 
L 99.010072 36.760967 
L 107.780136 36.147345 
L 116.5502 35.960508 
L 125.320265 36.09264 
L 134.090329 36.973631 
L 142.860393 36.360141 
L 151.630457 36.598868 
L 160.400522 35.853202 
L 177.94065 36.211087 
L 195.480779 36.369928 
L 213.020907 36.418931 
L 230.561036 36.449301 
L 248.101164 36.516821 
L 265.641293 36.77159 
L 283.181422 36.9626 
L 300.72155 37.336179 
L 318.261679 37.610015 
L 335.801807 37.740154 
L 353.341936 37.839172 
L 370.882064 37.949728 
L 388.422193 38.105752 
L 405.962322 38.138107 
L 423.50245 38.359808 
L 441.042579 38.486886 
L 458.582707 38.659009 
L 476.122836 38.721219 
L 493.662964 39.061165 
L 511.203093 39.008982 
L 528.743221 39.095488 
L 546.28335 39.200005 
L 563.823479 39.514142 
L 581.363607 39.439427 
L 598.903736 39.752284 
L 616.443864 39.685339 
L 633.983993 39.796837 
L 651.524121 39.840516 
L 669.06425 39.966939 
L 686.604378 40.012773 
L 704.144507 40.307317 
L 721.684636 40.206681 
L 739.224764 40.526113 
L 756.764893 40.406662 
L 774.305021 40.596474 
L 791.84515 40.667661 
L 809.385278 40.752879 
L 826.925407 41.103575 
L 844.465535 41.26088 
L 862.005664 41.177633 
L 879.545793 41.367588 
L 897.085921 41.591801 
L 914.62605 41.840649 
L 932.166178 42.248025 
L 949.706307 44.247443 
" style="fill:none;stroke:#5cb85c;stroke-linecap:square;"/>
   </g>
   <g id="line2d_16">
    <path clip-path="url(#pe05d83ccda)" d="M 81.469943 39.695301 
L 90.240007 39.733468 
L 99.010072 37.271727 
L 107.780136 36.592978 
L 116.5502 36.381846 
L 125.320265 36.503732 
L 134.090329 37.382377 
L 142.860393 36.789023 
L 151.630457 37.007449 
L 160.400522 36.267726 
L 177.94065 36.587102 
L 195.480779 36.751679 
L 213.020907 36.820907 
L 230.561036 36.853874 
L 248.101164 36.940881 
L 265.641293 37.206604 
L 283.181422 37.40351 
L 300.72155 37.85404 
L 318.261679 38.111022 
L 335.801807 38.246784 
L 353.341936 38.363079 
L 370.882064 38.492808 
L 388.422193 38.681653 
L 405.962322 38.729746 
L 423.50245 38.942753 
L 441.042579 39.108077 
L 458.582707 39.291449 
L 476.122836 39.298451 
L 493.662964 39.630749 
L 511.203093 39.531644 
L 528.743221 39.659193 
L 546.28335 39.766821 
L 563.823479 40.124094 
L 581.363607 40.0951 
L 598.903736 40.361917 
L 616.443864 40.339092 
L 633.983993 40.38899 
L 651.524121 40.490645 
L 669.06425 40.694099 
L 686.604378 40.712551 
L 704.144507 40.934912 
L 721.684636 40.809801 
L 739.224764 41.140768 
L 756.764893 41.054108 
L 774.305021 41.267866 
L 791.84515 41.312582 
L 809.385278 41.360614 
L 826.925407 41.712179 
L 844.465535 41.881806 
L 862.005664 41.84494 
L 879.545793 42.03889 
L 897.085921 42.230047 
L 914.62605 42.481603 
L 932.166178 42.9094 
L 949.706307 45.007132 
" style="fill:none;stroke:#5cb85c;stroke-linecap:square;"/>
   </g>
   <g id="line2d_17">
    <path clip-path="url(#pe05d83ccda)" d="M 81.469943 39.954494 
L 90.240007 39.920131 
L 99.010072 37.327743 
L 107.780136 36.652687 
L 116.5502 36.428352 
L 125.320265 36.548451 
L 134.090329 37.493108 
L 142.860393 36.812483 
L 151.630457 37.109515 
L 160.400522 36.325255 
L 177.94065 36.644514 
L 195.480779 36.794118 
L 213.020907 36.86076 
L 230.561036 36.896908 
L 248.101164 36.979898 
L 265.641293 37.243973 
L 283.181422 37.43714 
L 300.72155 37.881133 
L 318.261679 38.147799 
L 335.801807 38.277438 
L 353.341936 38.361913 
L 370.882064 38.504049 
L 388.422193 38.697357 
L 405.962322 38.711669 
L 423.50245 38.951576 
L 441.042579 39.098661 
L 458.582707 39.340643 
L 476.122836 39.457582 
L 493.662964 39.912845 
L 511.203093 39.784051 
L 528.743221 39.940155 
L 546.28335 39.980667 
L 563.823479 40.352689 
L 581.363607 40.265863 
L 598.903736 40.481584 
L 616.443864 40.449206 
L 633.983993 40.544415 
L 651.524121 40.627977 
L 669.06425 40.787048 
L 686.604378 40.848655 
L 704.144507 41.058155 
L 721.684636 40.859467 
L 739.224764 41.164344 
L 756.764893 41.089442 
L 774.305021 41.318795 
L 791.84515 41.35094 
L 809.385278 41.364965 
L 826.925407 41.713167 
L 844.465535 41.931599 
L 862.005664 41.883047 
L 879.545793 42.047975 
L 897.085921 42.246361 
L 914.62605 42.502471 
L 932.166178 42.924785 
L 949.706307 45.034922 
" style="fill:none;stroke:#5cb85c;stroke-linecap:square;"/>
   </g>
   <g id="line2d_18">
    <path clip-path="url(#pe05d83ccda)" d="M 81.469943 39.823131 
L 90.240007 39.74067 
L 99.010072 37.215664 
L 107.780136 36.543168 
L 116.5502 36.313862 
L 125.320265 36.44772 
L 134.090329 37.349061 
L 142.860393 36.703143 
L 151.630457 36.974632 
L 160.400522 36.198657 
L 177.94065 36.528563 
L 195.480779 36.695469 
L 213.020907 36.759254 
L 230.561036 36.780176 
L 248.101164 36.858619 
L 265.641293 37.111836 
L 283.181422 37.307399 
L 300.72155 37.742267 
L 318.261679 37.995818 
L 335.801807 38.135627 
L 353.341936 38.230911 
L 370.882064 38.319604 
L 388.422193 38.496037 
L 405.962322 38.507277 
L 423.50245 38.749575 
L 441.042579 38.866648 
L 458.582707 38.998257 
L 476.122836 39.071982 
L 493.662964 39.442485 
L 511.203093 39.373718 
L 528.743221 39.489129 
L 546.28335 39.545281 
L 563.823479 39.892657 
L 581.363607 39.802868 
L 598.903736 40.092927 
L 616.443864 40.013152 
L 633.983993 40.105767 
L 651.524121 40.133635 
L 669.06425 40.262699 
L 686.604378 40.300775 
L 704.144507 40.623156 
L 721.684636 40.504652 
L 739.224764 40.808953 
L 756.764893 40.704156 
L 774.305021 40.901412 
L 791.84515 40.969913 
L 809.385278 41.015834 
L 826.925407 41.34951 
L 844.465535 41.51035 
L 862.005664 41.456344 
L 879.545793 41.648333 
L 897.085921 41.856185 
L 914.62605 42.106804 
L 932.166178 42.514097 
L 949.706307 44.56656 
" style="fill:none;stroke:#5cb85c;stroke-linecap:square;"/>
   </g>
   <g id="line2d_19">
    <path clip-path="url(#pe05d83ccda)" d="M 81.469943 39.684003 
L 90.240007 39.640727 
L 99.010072 37.192247 
L 107.780136 36.516779 
L 116.5502 36.29538 
L 125.320265 36.405351 
L 134.090329 37.292965 
L 142.860393 36.684531 
L 151.630457 36.950747 
L 160.400522 36.180757 
L 177.94065 36.497218 
L 195.480779 36.655055 
L 213.020907 36.714986 
L 230.561036 36.75221 
L 248.101164 36.85421 
L 265.641293 37.120221 
L 283.181422 37.320394 
L 300.72155 37.763657 
L 318.261679 38.020371 
L 335.801807 38.175942 
L 353.341936 38.271757 
L 370.882064 38.411853 
L 388.422193 38.592832 
L 405.962322 38.62001 
L 423.50245 38.872693 
L 441.042579 39.046621 
L 458.582707 39.221082 
L 476.122836 39.272539 
L 493.662964 39.666968 
L 511.203093 39.564897 
L 528.743221 39.684982 
L 546.28335 39.780212 
L 563.823479 40.192447 
L 581.363607 40.112373 
L 598.903736 40.379515 
L 616.443864 40.33349 
L 633.983993 40.416487 
L 651.524121 40.498065 
L 669.06425 40.717922 
L 686.604378 40.756838 
L 704.144507 41.010468 
L 721.684636 40.857417 
L 739.224764 41.144509 
L 756.764893 41.062781 
L 774.305021 41.296146 
L 791.84515 41.340015 
L 809.385278 41.354505 
L 826.925407 41.694443 
L 844.465535 41.888851 
L 862.005664 41.848818 
L 879.545793 42.041354 
L 897.085921 42.236772 
L 914.62605 42.498082 
L 932.166178 42.962249 
L 949.706307 45.049863 
" style="fill:none;stroke:#5cb85c;stroke-linecap:square;"/>
   </g>
   <g id="line2d_20">
    <path clip-path="url(#pe05d83ccda)" d="M 81.469943 39.503882 
L 90.240007 39.461172 
L 99.010072 37.109263 
L 107.780136 36.438197 
L 116.5502 36.231746 
L 125.320265 36.357673 
L 134.090329 37.214436 
L 142.860393 36.624004 
L 151.630457 36.873595 
L 160.400522 36.124569 
L 177.94065 36.482718 
L 195.480779 36.634547 
L 213.020907 36.699668 
L 230.561036 36.744287 
L 248.101164 36.842894 
L 265.641293 37.106441 
L 283.181422 37.323057 
L 300.72155 37.790319 
L 318.261679 38.053832 
L 335.801807 38.217674 
L 353.341936 38.309574 
L 370.882064 38.416226 
L 388.422193 38.601143 
L 405.962322 38.615135 
L 423.50245 38.837783 
L 441.042579 38.975224 
L 458.582707 39.144896 
L 476.122836 39.272621 
L 493.662964 39.647934 
L 511.203093 39.590835 
L 528.743221 39.69455 
L 546.28335 39.806335 
L 563.823479 40.149568 
L 581.363607 40.051037 
L 598.903736 40.378205 
L 616.443864 40.274829 
L 633.983993 40.436789 
L 651.524121 40.422341 
L 669.06425 40.624613 
L 686.604378 40.660771 
L 704.144507 41.038413 
L 721.684636 40.919631 
L 739.224764 41.21041 
L 756.764893 41.112421 
L 774.305021 41.359343 
L 791.84515 41.438508 
L 809.385278 41.453158 
L 826.925407 41.737142 
L 844.465535 41.958858 
L 862.005664 41.905044 
L 879.545793 42.085638 
L 897.085921 42.316427 
L 914.62605 42.597009 
L 932.166178 43.069099 
L 949.706307 45.218143 
" style="fill:none;stroke:#5cb85c;stroke-linecap:square;"/>
   </g>
   <g id="line2d_21">
    <path clip-path="url(#pe05d83ccda)" d="M 81.469943 39.358568 
L 90.240007 39.269161 
L 99.010072 36.889142 
L 107.780136 36.275673 
L 116.5502 36.087098 
L 125.320265 36.228538 
L 134.090329 37.045951 
L 142.860393 36.460681 
L 151.630457 36.713896 
L 160.400522 35.949695 
L 177.94065 36.313394 
L 195.480779 36.453056 
L 213.020907 36.517033 
L 230.561036 36.560264 
L 248.101164 36.667955 
L 265.641293 36.924566 
L 283.181422 37.136612 
L 300.72155 37.561059 
L 318.261679 37.845493 
L 335.801807 38.022436 
L 353.341936 38.15858 
L 370.882064 38.306582 
L 388.422193 38.497794 
L 405.962322 38.525625 
L 423.50245 38.800193 
L 441.042579 38.944495 
L 458.582707 39.25961 
L 476.122836 39.293108 
L 493.662964 39.794257 
L 511.203093 39.573269 
L 528.743221 39.812558 
L 546.28335 39.912819 
L 563.823479 40.350492 
L 581.363607 40.278191 
L 598.903736 40.528057 
L 616.443864 40.624804 
L 633.983993 40.611743 
L 651.524121 40.801419 
L 669.06425 41.051331 
L 686.604378 41.100125 
L 704.144507 41.180786 
L 721.684636 41.020341 
L 739.224764 41.335772 
L 756.764893 41.24887 
L 774.305021 41.474121 
L 791.84515 41.52664 
L 809.385278 41.607822 
L 826.925407 41.996099 
L 844.465535 42.167285 
L 862.005664 42.124486 
L 879.545793 42.3879 
L 897.085921 42.569795 
L 914.62605 42.854667 
L 932.166178 43.330215 
L 949.706307 45.317572 
" style="fill:none;stroke:#5cb85c;stroke-linecap:square;"/>
   </g>
   <g id="line2d_22">
    <path clip-path="url(#pe05d83ccda)" d="M 81.469943 39.225317 
L 90.240007 39.206491 
L 99.010072 36.865653 
L 107.780136 36.219131 
L 116.5502 36.035806 
L 125.320265 36.206681 
L 134.090329 37.085463 
L 142.860393 36.486973 
L 151.630457 36.748528 
L 160.400522 35.966835 
L 177.94065 36.339772 
L 195.480779 36.496726 
L 213.020907 36.540405 
L 230.561036 36.569907 
L 248.101164 36.644939 
L 265.641293 36.889416 
L 283.181422 37.079642 
L 300.72155 37.464383 
L 318.261679 37.721138 
L 335.801807 37.839242 
L 353.341936 37.92928 
L 370.882064 38.028124 
L 388.422193 38.190222 
L 405.962322 38.196993 
L 423.50245 38.415806 
L 441.042579 38.538257 
L 458.582707 38.676079 
L 476.122836 38.738534 
L 493.662964 39.052354 
L 511.203093 38.984271 
L 528.743221 39.088499 
L 546.28335 39.16696 
L 563.823479 39.496379 
L 581.363607 39.440231 
L 598.903736 39.734176 
L 616.443864 39.661293 
L 633.983993 39.752295 
L 651.524121 39.77538 
L 669.06425 39.894795 
L 686.604378 39.949151 
L 704.144507 40.288447 
L 721.684636 40.186098 
L 739.224764 40.487222 
L 756.764893 40.367696 
L 774.305021 40.570889 
L 791.84515 40.632913 
L 809.385278 40.709747 
L 826.925407 41.041019 
L 844.465535 41.211601 
L 862.005664 41.142876 
L 879.545793 41.337517 
L 897.085921 41.54932 
L 914.62605 41.772893 
L 932.166178 42.174224 
L 949.706307 44.254551 
" style="fill:none;stroke:#5cb85c;stroke-linecap:square;"/>
   </g>
   <g id="line2d_23">
    <path clip-path="url(#pe05d83ccda)" d="M 81.469943 39.686952 
L 90.240007 39.711094 
L 99.010072 37.234841 
L 107.780136 36.559147 
L 116.5502 36.362663 
L 125.320265 36.518752 
L 134.090329 37.456914 
L 142.860393 36.785994 
L 151.630457 37.032456 
L 160.400522 36.215452 
L 177.94065 36.612264 
L 195.480779 36.76679 
L 213.020907 36.816945 
L 230.561036 36.846161 
L 248.101164 36.921836 
L 265.641293 37.169581 
L 283.181422 37.381489 
L 300.72155 37.811713 
L 318.261679 38.076922 
L 335.801807 38.230313 
L 353.341936 38.327724 
L 370.882064 38.442924 
L 388.422193 38.618358 
L 405.962322 38.629036 
L 423.50245 38.863381 
L 441.042579 39.008018 
L 458.582707 39.104814 
L 476.122836 39.187588 
L 493.662964 39.512294 
L 511.203093 39.506327 
L 528.743221 39.638641 
L 546.28335 39.711901 
L 563.823479 39.964747 
L 581.363607 39.881718 
L 598.903736 40.178384 
L 616.443864 40.179152 
L 633.983993 40.339901 
L 651.524121 40.327318 
L 669.06425 40.445412 
L 686.604378 40.479547 
L 704.144507 40.855384 
L 721.684636 40.767117 
L 739.224764 41.099102 
L 756.764893 40.984677 
L 774.305021 41.190965 
L 791.84515 41.288338 
L 809.385278 41.356977 
L 826.925407 41.689403 
L 844.465535 41.85772 
L 862.005664 41.793093 
L 879.545793 41.989757 
L 897.085921 42.214903 
L 914.62605 42.486758 
L 932.166178 42.899231 
L 949.706307 44.896426 
" style="fill:none;stroke:#5cb85c;stroke-linecap:square;"/>
   </g>
   <g id="line2d_24">
    <path clip-path="url(#pe05d83ccda)" d="M 81.469943 39.478787 
L 90.240007 39.449354 
L 99.010072 37.005235 
L 107.780136 36.358644 
L 116.5502 36.16526 
L 125.320265 36.317522 
L 134.090329 37.238623 
L 142.860393 36.600503 
L 151.630457 36.882783 
L 160.400522 36.101003 
L 177.94065 36.456198 
L 195.480779 36.596584 
L 213.020907 36.646294 
L 230.561036 36.680286 
L 248.101164 36.778499 
L 265.641293 37.022507 
L 283.181422 37.223871 
L 300.72155 37.627005 
L 318.261679 37.887441 
L 335.801807 38.008405 
L 353.341936 38.089752 
L 370.882064 38.205927 
L 388.422193 38.378381 
L 405.962322 38.393411 
L 423.50245 38.625965 
L 441.042579 38.746731 
L 458.582707 38.883345 
L 476.122836 38.964725 
L 493.662964 39.404744 
L 511.203093 39.315114 
L 528.743221 39.421068 
L 546.28335 39.482367 
L 563.823479 39.801711 
L 581.363607 39.71752 
L 598.903736 40.00271 
L 616.443864 39.946331 
L 633.983993 40.045461 
L 651.524121 40.092991 
L 669.06425 40.213428 
L 686.604378 40.276561 
L 704.144507 40.570406 
L 721.684636 40.424007 
L 739.224764 40.744155 
L 756.764893 40.666391 
L 774.305021 40.873101 
L 791.84515 40.948193 
L 809.385278 40.976679 
L 826.925407 41.307069 
L 844.465535 41.502171 
L 862.005664 41.457524 
L 879.545793 41.638581 
L 897.085921 41.831528 
L 914.62605 42.060411 
L 932.166178 42.451776 
L 949.706307 44.479602 
" style="fill:none;stroke:#5cb85c;stroke-linecap:square;"/>
   </g>
   <g id="line2d_25">
    <path clip-path="url(#pe05d83ccda)" d="M 81.469943 39.566033 
L 90.240007 39.401854 
L 99.010072 36.972454 
L 107.780136 36.358189 
L 116.5502 36.156826 
L 125.320265 36.320912 
L 134.090329 37.241732 
L 142.860393 36.592552 
L 151.630457 36.865561 
L 160.400522 36.07511 
L 177.94065 36.41613 
L 195.480779 36.57229 
L 213.020907 36.627182 
L 230.561036 36.666804 
L 248.101164 36.745595 
L 265.641293 36.988217 
L 283.181422 37.177628 
L 300.72155 37.575085 
L 318.261679 37.826181 
L 335.801807 37.966416 
L 353.341936 38.042716 
L 370.882064 38.155822 
L 388.422193 38.334049 
L 405.962322 38.340804 
L 423.50245 38.566549 
L 441.042579 38.713296 
L 458.582707 38.80504 
L 476.122836 38.867576 
L 493.662964 39.206087 
L 511.203093 39.132651 
L 528.743221 39.24106 
L 546.28335 39.322967 
L 563.823479 39.571344 
L 581.363607 39.448513 
L 598.903736 39.753088 
L 616.443864 39.678602 
L 633.983993 39.853469 
L 651.524121 39.847185 
L 669.06425 39.94378 
L 686.604378 39.981041 
L 704.144507 40.336095 
L 721.684636 40.24107 
L 739.224764 40.577501 
L 756.764893 40.458722 
L 774.305021 40.651994 
L 791.84515 40.726675 
L 809.385278 40.782933 
L 826.925407 41.124985 
L 844.465535 41.290191 
L 862.005664 41.226726 
L 879.545793 41.4129 
L 897.085921 41.6466 
L 914.62605 41.871525 
L 932.166178 42.275769 
L 949.706307 44.303585 
" style="fill:none;stroke:#5cb85c;stroke-linecap:square;"/>
   </g>
   <g id="line2d_26">
    <path clip-path="url(#pe05d83ccda)" d="M 81.469943 39.788659 
L 90.240007 39.703103 
L 99.010072 37.285641 
L 107.780136 36.530805 
L 116.5502 36.368323 
L 125.320265 36.524628 
L 134.090329 37.394415 
L 142.860393 36.766855 
L 151.630457 37.093146 
L 160.400522 36.29636 
L 177.94065 36.595555 
L 195.480779 36.749092 
L 213.020907 36.814434 
L 230.561036 36.859687 
L 248.101164 36.920646 
L 265.641293 37.119914 
L 283.181422 37.329893 
L 300.72155 37.755408 
L 318.261679 38.014546 
L 335.801807 38.132963 
L 353.341936 38.223424 
L 370.882064 38.394044 
L 388.422193 38.56306 
L 405.962322 38.568209 
L 423.50245 38.787984 
L 441.042579 39.046129 
L 458.582707 40.060295 
L 476.122836 39.518627 
L 493.662964 40.478159 
L 511.203093 39.757818 
L 528.743221 39.994003 
L 546.28335 40.184784 
L 563.823479 41.277104 
L 581.363607 41.234501 
L 598.903736 41.119312 
L 616.443864 41.772653 
L 633.983993 40.881317 
L 651.524121 41.648977 
L 669.06425 42.130844 
L 686.604378 42.076295 
L 704.144507 41.281583 
L 721.684636 40.725308 
L 739.224764 40.871693 
L 756.764893 40.74917 
L 774.305021 40.913252 
L 791.84515 40.935696 
L 809.385278 40.930664 
L 826.925407 41.251727 
L 844.465535 41.435443 
L 862.005664 41.406429 
L 879.545793 41.604873 
L 897.085921 41.720916 
L 914.62605 41.930054 
L 932.166178 42.387557 
L 949.706307 44.463343 
" style="fill:none;stroke:#5cb85c;stroke-linecap:square;"/>
   </g>
   <g id="line2d_27">
    <path clip-path="url(#pe05d83ccda)" d="M 81.469943 39.616969 
L 90.240007 39.516363 
L 99.010072 37.116874 
L 107.780136 36.37579 
L 116.5502 36.203396 
L 125.320265 36.329007 
L 134.090329 37.08865 
L 142.860393 36.5382 
L 151.630457 36.842017 
L 160.400522 36.089683 
L 177.94065 36.347276 
L 195.480779 36.501115 
L 213.020907 36.599147 
L 230.561036 36.654943 
L 248.101164 37.249077 
L 265.641293 36.935336 
L 283.181422 37.18924 
L 300.72155 37.611071 
L 318.261679 37.900437 
L 335.801807 38.052365 
L 353.341936 38.132132 
L 370.882064 38.335954 
L 388.422193 38.716902 
L 405.962322 38.575542 
L 423.50245 38.796901 
L 441.042579 39.161725 
L 458.582707 40.90771 
L 476.122836 40.750701 
L 493.662964 43.183157 
L 511.203093 41.699463 
L 528.743221 42.435424 
L 546.28335 42.494779 
L 563.823479 43.76437 
L 581.363607 43.331501 
L 598.903736 42.88887 
L 616.443864 43.874672 
L 633.983993 42.926758 
L 651.524121 43.85859 
L 669.06425 43.910062 
L 686.604378 44.173079 
L 704.144507 42.723787 
L 721.684636 41.442046 
L 739.224764 41.367892 
L 756.764893 41.16086 
L 774.305021 41.325656 
L 791.84515 41.343318 
L 809.385278 41.367145 
L 826.925407 41.697509 
L 844.465535 41.846722 
L 862.005664 41.812501 
L 879.545793 41.996877 
L 897.085921 42.162592 
L 914.62605 42.421236 
L 932.166178 42.868225 
L 949.706307 44.824677 
" style="fill:none;stroke:#5cb85c;stroke-linecap:square;"/>
   </g>
   <g id="line2d_28">
    <path clip-path="url(#pe05d83ccda)" d="M 81.469943 39.118801 
L 90.240007 38.986954 
L 99.010072 36.820332 
L 107.780136 36.062341 
L 116.5502 35.956956 
L 125.320265 36.098678 
L 134.090329 36.693505 
L 142.860393 36.217605 
L 151.630457 36.631152 
L 160.400522 35.833149 
L 177.94065 36.032394 
L 195.480779 36.159326 
L 213.020907 36.292889 
L 230.561036 36.310378 
L 248.101164 36.416491 
L 265.641293 36.548641 
L 283.181422 36.798621 
L 300.72155 37.183459 
L 318.261679 37.46291 
L 335.801807 37.624143 
L 353.341936 37.798161 
L 370.882064 37.907994 
L 388.422193 38.058744 
L 405.962322 38.177981 
L 423.50245 38.37399 
L 441.042579 39.625925 
L 458.582707 41.60109 
L 476.122836 39.212255 
L 493.662964 45.706342 
L 511.203093 43.73774 
L 528.743221 45.45669 
L 546.28335 44.579619 
L 563.823479 46.504572 
L 581.363607 46.158512 
L 598.903736 44.779846 
L 616.443864 46.310323 
L 633.983993 45.159361 
L 651.524121 46.833528 
L 669.06425 46.787241 
L 686.604378 46.824464 
L 704.144507 44.1046 
L 721.684636 41.451057 
L 739.224764 40.909691 
L 756.764893 40.562134 
L 774.305021 40.631153 
L 791.84515 40.648603 
L 809.385278 40.678053 
L 826.925407 40.956899 
L 844.465535 41.07298 
L 862.005664 41.001695 
L 879.545793 41.175629 
L 897.085921 41.396061 
L 914.62605 41.631584 
L 932.166178 41.985696 
L 949.706307 43.77422 
" style="fill:none;stroke:#5cb85c;stroke-linecap:square;"/>
   </g>
   <g id="line2d_29">
    <path clip-path="url(#pe05d83ccda)" d="M 81.469943 39.232653 
L 90.240007 39.188752 
L 99.010072 36.828348 
L 107.780136 36.180215 
L 116.5502 35.981158 
L 125.320265 36.109921 
L 134.090329 36.925446 
L 142.860393 36.352426 
L 151.630457 36.642296 
L 160.400522 35.886419 
L 177.94065 36.181836 
L 195.480779 36.341692 
L 213.020907 36.425722 
L 230.561036 36.488218 
L 248.101164 36.560746 
L 265.641293 36.782994 
L 283.181422 37.011667 
L 300.72155 37.414691 
L 318.261679 37.690411 
L 335.801807 37.844667 
L 353.341936 37.918897 
L 370.882064 38.061552 
L 388.422193 38.276335 
L 405.962322 38.333051 
L 423.50245 38.70271 
L 441.042579 38.854055 
L 458.582707 39.6546 
L 476.122836 39.198952 
L 493.662964 39.735413 
L 511.203093 39.404957 
L 528.743221 39.621366 
L 546.28335 39.773112 
L 563.823479 40.526252 
L 581.363607 40.599394 
L 598.903736 40.663266 
L 616.443864 41.119204 
L 633.983993 40.590634 
L 651.524121 41.164625 
L 669.06425 41.723401 
L 686.604378 41.677404 
L 704.144507 41.080109 
L 721.684636 40.672493 
L 739.224764 40.907588 
L 756.764893 40.783593 
L 774.305021 40.97973 
L 791.84515 41.032978 
L 809.385278 41.090416 
L 826.925407 41.444796 
L 844.465535 41.585829 
L 862.005664 41.56256 
L 879.545793 41.769027 
L 897.085921 41.965354 
L 914.62605 42.216355 
L 932.166178 42.63741 
L 949.706307 44.512862 
" style="fill:none;stroke:#5cb85c;stroke-linecap:square;"/>
   </g>
   <g id="line2d_30">
    <path clip-path="url(#pe05d83ccda)" d="M 81.469943 39.632461 
L 90.240007 39.581725 
L 99.010072 37.086606 
L 107.780136 36.382783 
L 116.5502 36.173777 
L 125.320265 36.320292 
L 134.090329 37.194585 
L 142.860393 36.557747 
L 151.630457 36.880885 
L 160.400522 36.091545 
L 177.94065 36.391691 
L 195.480779 36.565482 
L 213.020907 36.630157 
L 230.561036 36.638053 
L 248.101164 36.69477 
L 265.641293 36.916455 
L 283.181422 37.132261 
L 300.72155 37.529602 
L 318.261679 37.790226 
L 335.801807 37.910316 
L 353.341936 37.989813 
L 370.882064 38.096055 
L 388.422193 38.257656 
L 405.962322 38.250981 
L 423.50245 38.508361 
L 441.042579 38.772636 
L 458.582707 39.498226 
L 476.122836 39.036533 
L 493.662964 40.715392 
L 511.203093 40.263687 
L 528.743221 40.801451 
L 546.28335 40.566125 
L 563.823479 41.204743 
L 581.363607 41.038625 
L 598.903736 41.025955 
L 616.443864 41.283539 
L 633.983993 41.068991 
L 651.524121 41.385792 
L 669.06425 41.403914 
L 686.604378 41.494996 
L 704.144507 41.195121 
L 721.684636 40.54658 
L 739.224764 40.676154 
L 756.764893 40.492709 
L 774.305021 40.656056 
L 791.84515 40.725671 
L 809.385278 40.788207 
L 826.925407 41.101472 
L 844.465535 41.253562 
L 862.005664 41.176942 
L 879.545793 41.354192 
L 897.085921 41.567401 
L 914.62605 41.784138 
L 932.166178 42.152603 
L 949.706307 44.225745 
" style="fill:none;stroke:#5cb85c;stroke-linecap:square;"/>
   </g>
   <g id="line2d_31">
    <path clip-path="url(#pe05d83ccda)" d="M 81.469943 39.831262 
L 90.240007 39.738786 
L 99.010072 37.149297 
L 107.780136 36.427205 
L 116.5502 36.148292 
L 125.320265 36.26682 
L 134.090329 37.155539 
L 142.860393 36.552413 
L 151.630457 36.808938 
L 160.400522 36.050131 
L 177.94065 36.302843 
L 195.480779 36.476229 
L 213.020907 36.53759 
L 230.561036 36.573788 
L 248.101164 36.663162 
L 265.641293 36.928967 
L 283.181422 37.143007 
L 300.72155 37.586517 
L 318.261679 37.842034 
L 335.801807 38.012613 
L 353.341936 38.119935 
L 370.882064 38.297329 
L 388.422193 38.528144 
L 405.962322 38.536834 
L 423.50245 38.827718 
L 441.042579 39.007137 
L 458.582707 39.340585 
L 476.122836 39.289001 
L 493.662964 39.709815 
L 511.203093 39.533069 
L 528.743221 39.719953 
L 546.28335 39.830712 
L 563.823479 40.366222 
L 581.363607 40.32888 
L 598.903736 40.578775 
L 616.443864 40.606086 
L 633.983993 40.498199 
L 651.524121 40.706993 
L 669.06425 41.023951 
L 686.604378 40.978906 
L 704.144507 41.065038 
L 721.684636 40.857309 
L 739.224764 41.149117 
L 756.764893 41.051439 
L 774.305021 41.267953 
L 791.84515 41.287693 
L 809.385278 41.299331 
L 826.925407 41.637925 
L 844.465535 41.853718 
L 862.005664 41.812749 
L 879.545793 41.957943 
L 897.085921 42.143537 
L 914.62605 42.432071 
L 932.166178 42.876437 
L 949.706307 44.94292 
" style="fill:none;stroke:#5cb85c;stroke-linecap:square;"/>
   </g>
   <g id="line2d_32">
    <path clip-path="url(#pe05d83ccda)" d="M 81.469943 39.866124 
L 90.240007 39.813011 
L 99.010072 37.238815 
L 107.780136 36.61852 
L 116.5502 36.426209 
L 125.320265 36.565428 
L 134.090329 37.5192 
L 142.860393 36.810663 
L 151.630457 37.064698 
L 160.400522 36.304697 
L 177.94065 36.684888 
L 195.480779 36.852899 
L 213.020907 36.904449 
L 230.561036 36.9559 
L 248.101164 37.054056 
L 265.641293 37.32314 
L 283.181422 37.525203 
L 300.72155 37.964052 
L 318.261679 38.25623 
L 335.801807 38.422079 
L 353.341936 38.512468 
L 370.882064 38.647809 
L 388.422193 38.825812 
L 405.962322 38.872285 
L 423.50245 39.144581 
L 441.042579 39.32215 
L 458.582707 39.403192 
L 476.122836 39.481399 
L 493.662964 39.850267 
L 511.203093 39.841731 
L 528.743221 39.973247 
L 546.28335 40.037443 
L 563.823479 40.231189 
L 581.363607 40.148118 
L 598.903736 40.451123 
L 616.443864 40.421968 
L 633.983993 40.608414 
L 651.524121 40.615691 
L 669.06425 40.746998 
L 686.604378 40.825935 
L 704.144507 41.151347 
L 721.684636 41.055797 
L 739.224764 41.402016 
L 756.764893 41.287642 
L 774.305021 41.510802 
L 791.84515 41.577956 
L 809.385278 41.656728 
L 826.925407 42.021037 
L 844.465535 42.175999 
L 862.005664 42.127168 
L 879.545793 42.351171 
L 897.085921 42.5843 
L 914.62605 42.852103 
L 932.166178 43.293094 
L 949.706307 45.293701 
" style="fill:none;stroke:#5cb85c;stroke-linecap:square;"/>
   </g>
   <g id="line2d_33">
    <path clip-path="url(#pe05d83ccda)" d="M 81.469943 39.839619 
L 90.240007 39.922709 
L 99.010072 37.271457 
L 107.780136 36.621318 
L 116.5502 36.364622 
L 125.320265 36.433003 
L 134.090329 37.275276 
L 142.860393 36.703798 
L 151.630457 36.880581 
L 160.400522 36.240747 
L 177.94065 36.52087 
L 195.480779 36.67119 
L 213.020907 36.771462 
L 230.561036 36.860046 
L 248.101164 36.975463 
L 265.641293 37.27884 
L 283.181422 37.534153 
L 300.72155 38.012217 
L 318.261679 38.284759 
L 335.801807 38.510778 
L 353.341936 38.700525 
L 370.882064 38.928706 
L 388.422193 39.202542 
L 405.962322 39.279053 
L 423.50245 39.571618 
L 441.042579 39.795774 
L 458.582707 40.016153 
L 476.122836 40.034349 
L 493.662964 40.410077 
L 511.203093 40.38835 
L 528.743221 40.630184 
L 546.28335 40.769422 
L 563.823479 41.098126 
L 581.363607 41.128602 
L 598.903736 41.390381 
L 616.443864 41.366189 
L 633.983993 41.554856 
L 651.524121 41.766261 
L 669.06425 42.147792 
L 686.604378 42.234463 
L 704.144507 42.270119 
L 721.684636 42.178491 
L 739.224764 42.603076 
L 756.764893 42.555791 
L 774.305021 42.879687 
L 791.84515 42.910587 
L 809.385278 42.977915 
L 826.925407 43.417831 
L 844.465535 43.521298 
L 862.005664 43.525496 
L 879.545793 43.774643 
L 897.085921 43.944382 
L 914.62605 44.243496 
L 932.166178 44.670237 
L 949.706307 46.512615 
" style="fill:none;stroke:#5cb85c;stroke-linecap:square;"/>
   </g>
   <g id="line2d_34">
    <path clip-path="url(#pe05d83ccda)" d="M 81.469943 39.60367 
L 90.240007 39.586274 
L 99.010072 37.05051 
L 107.780136 36.429659 
L 116.5502 36.238688 
L 125.320265 36.391772 
L 134.090329 37.335902 
L 142.860393 36.674583 
L 151.630457 36.957474 
L 160.400522 36.169377 
L 177.94065 36.513694 
L 195.480779 36.668601 
L 213.020907 36.722311 
L 230.561036 36.760763 
L 248.101164 36.850974 
L 265.641293 37.101485 
L 283.181422 37.30162 
L 300.72155 37.706912 
L 318.261679 37.974212 
L 335.801807 38.105892 
L 353.341936 38.194257 
L 370.882064 38.304571 
L 388.422193 38.489558 
L 405.962322 38.506503 
L 423.50245 38.741388 
L 441.042579 38.862329 
L 458.582707 38.988527 
L 476.122836 39.078624 
L 493.662964 39.459235 
L 511.203093 39.440535 
L 528.743221 39.533745 
L 546.28335 39.605348 
L 563.823479 39.913919 
L 581.363607 39.850299 
L 598.903736 40.133684 
L 616.443864 39.993263 
L 633.983993 40.163366 
L 651.524121 40.181807 
L 669.06425 40.322947 
L 686.604378 40.370218 
L 704.144507 40.721733 
L 721.684636 40.56565 
L 739.224764 40.905129 
L 756.764893 40.808976 
L 774.305021 41.019049 
L 791.84515 41.071438 
L 809.385278 41.104964 
L 826.925407 41.44908 
L 844.465535 41.638103 
L 862.005664 41.589256 
L 879.545793 41.786108 
L 897.085921 41.976709 
L 914.62605 42.219379 
L 932.166178 42.644902 
L 949.706307 44.73525 
" style="fill:none;stroke:#5cb85c;stroke-linecap:square;"/>
   </g>
   <g id="line2d_35">
    <path clip-path="url(#pe05d83ccda)" d="M 81.469943 39.120431 
L 90.240007 39.073349 
L 99.010072 36.7328 
L 107.780136 36.115888 
L 116.5502 35.928981 
L 125.320265 36.062187 
L 134.090329 36.93473 
L 142.860393 36.321569 
L 151.630457 36.550661 
L 160.400522 35.807216 
L 177.94065 36.15067 
L 195.480779 36.310856 
L 213.020907 36.356 
L 230.561036 36.395453 
L 248.101164 36.480528 
L 265.641293 36.736297 
L 283.181422 36.917901 
L 300.72155 37.308885 
L 318.261679 37.56553 
L 335.801807 37.702402 
L 353.341936 37.803924 
L 370.882064 37.910952 
L 388.422193 38.081083 
L 405.962322 38.154231 
L 423.50245 38.341963 
L 441.042579 38.490945 
L 458.582707 38.642623 
L 476.122836 38.700787 
L 493.662964 38.999417 
L 511.203093 38.934516 
L 528.743221 39.072245 
L 546.28335 39.181642 
L 563.823479 39.508602 
L 581.363607 39.428246 
L 598.903736 39.738644 
L 616.443864 39.692144 
L 633.983993 39.806097 
L 651.524121 39.848381 
L 669.06425 40.022406 
L 686.604378 40.062882 
L 704.144507 40.386027 
L 721.684636 40.297056 
L 739.224764 40.567198 
L 756.764893 40.432329 
L 774.305021 40.644799 
L 791.84515 40.711319 
L 809.385278 40.768599 
L 826.925407 41.095246 
L 844.465535 41.251089 
L 862.005664 41.186399 
L 879.545793 41.426659 
L 897.085921 41.617331 
L 914.62605 41.862665 
L 932.166178 42.296949 
L 949.706307 44.399753 
" style="fill:none;stroke:#5cb85c;stroke-linecap:square;"/>
   </g>
   <g id="line2d_36">
    <path clip-path="url(#pe05d83ccda)" d="M 81.469943 39.42074 
L 90.240007 39.326324 
L 99.010072 36.944343 
L 107.780136 36.341081 
L 116.5502 36.139932 
L 125.320265 36.28417 
L 134.090329 37.182892 
L 142.860393 36.556424 
L 151.630457 36.815129 
L 160.400522 36.052154 
L 177.94065 36.392611 
L 195.480779 36.53879 
L 213.020907 36.590225 
L 230.561036 36.630672 
L 248.101164 36.7111 
L 265.641293 36.953767 
L 283.181422 37.138975 
L 300.72155 37.545199 
L 318.261679 37.80494 
L 335.801807 37.942867 
L 353.341936 38.024312 
L 370.882064 38.145312 
L 388.422193 38.341426 
L 405.962322 38.342718 
L 423.50245 38.575555 
L 441.042579 38.713003 
L 458.582707 38.795194 
L 476.122836 38.867375 
L 493.662964 39.234971 
L 511.203093 39.239305 
L 528.743221 39.290866 
L 546.28335 39.331283 
L 563.823479 39.573835 
L 581.363607 39.537102 
L 598.903736 39.815138 
L 616.443864 39.710837 
L 633.983993 39.906836 
L 651.524121 39.913982 
L 669.06425 40.043839 
L 686.604378 40.124008 
L 704.144507 40.448076 
L 721.684636 40.331188 
L 739.224764 40.642586 
L 756.764893 40.539608 
L 774.305021 40.753907 
L 791.84515 40.798729 
L 809.385278 40.835594 
L 826.925407 41.17483 
L 844.465535 41.348433 
L 862.005664 41.314285 
L 879.545793 41.511167 
L 897.085921 41.667803 
L 914.62605 41.889358 
L 932.166178 42.361261 
L 949.706307 44.438773 
" style="fill:none;stroke:#5cb85c;stroke-linecap:square;"/>
   </g>
   <g id="line2d_37">
    <path clip-path="url(#pe05d83ccda)" d="M 81.469943 39.718762 
L 90.240007 39.825598 
L 99.010072 37.206876 
L 107.780136 36.492256 
L 116.5502 36.353175 
L 125.320265 36.330872 
L 134.090329 37.11061 
L 142.860393 36.512362 
L 151.630457 36.670114 
L 160.400522 36.050667 
L 177.94065 36.353785 
L 195.480779 36.48682 
L 213.020907 36.60418 
L 230.561036 36.617848 
L 248.101164 36.73824 
L 265.641293 37.040861 
L 283.181422 37.251407 
L 300.72155 37.707147 
L 318.261679 37.969693 
L 335.801807 38.170971 
L 353.341936 38.329943 
L 370.882064 38.5719 
L 388.422193 38.807862 
L 405.962322 38.849315 
L 423.50245 39.153291 
L 441.042579 39.277344 
L 458.582707 39.622121 
L 476.122836 39.575207 
L 493.662964 40.069371 
L 511.203093 39.925422 
L 528.743221 40.250051 
L 546.28335 40.359244 
L 563.823479 41.011081 
L 581.363607 40.870897 
L 598.903736 41.19887 
L 616.443864 41.410033 
L 633.983993 41.422845 
L 651.524121 41.629022 
L 669.06425 42.031661 
L 686.604378 42.024244 
L 704.144507 42.101502 
L 721.684636 41.915338 
L 739.224764 42.25418 
L 756.764893 42.238243 
L 774.305021 42.502683 
L 791.84515 42.601581 
L 809.385278 42.631042 
L 826.925407 42.965214 
L 844.465535 43.167703 
L 862.005664 43.101085 
L 879.545793 43.171301 
L 897.085921 43.419409 
L 914.62605 43.84314 
L 932.166178 44.228748 
L 949.706307 46.394308 
" style="fill:none;stroke:#5cb85c;stroke-linecap:square;"/>
   </g>
   <g id="line2d_38">
    <path clip-path="url(#pe05d83ccda)" d="M 81.469943 39.657423 
L 90.240007 39.618453 
L 99.010072 37.169475 
L 107.780136 36.546435 
L 116.5502 36.345757 
L 125.320265 36.466062 
L 134.090329 37.302041 
L 142.860393 36.702062 
L 151.630457 36.931194 
L 160.400522 36.237857 
L 177.94065 36.540569 
L 195.480779 36.673195 
L 213.020907 36.744046 
L 230.561036 36.791403 
L 248.101164 36.881551 
L 265.641293 37.132203 
L 283.181422 37.323725 
L 300.72155 37.731011 
L 318.261679 37.989423 
L 335.801807 38.106969 
L 353.341936 38.210054 
L 370.882064 38.372151 
L 388.422193 38.551662 
L 405.962322 38.572082 
L 423.50245 38.805744 
L 441.042579 38.973629 
L 458.582707 39.510641 
L 476.122836 39.338194 
L 493.662964 40.386178 
L 511.203093 39.986241 
L 528.743221 40.220013 
L 546.28335 40.336319 
L 563.823479 40.910833 
L 581.363607 40.754531 
L 598.903736 40.813744 
L 616.443864 41.07695 
L 633.983993 40.932778 
L 651.524121 41.233808 
L 669.06425 41.399198 
L 686.604378 41.482205 
L 704.144507 41.336144 
L 721.684636 40.972612 
L 739.224764 41.234632 
L 756.764893 41.131973 
L 774.305021 41.371133 
L 791.84515 41.459639 
L 809.385278 41.499644 
L 826.925407 41.811226 
L 844.465535 41.990099 
L 862.005664 41.950501 
L 879.545793 42.138403 
L 897.085921 42.332456 
L 914.62605 42.559739 
L 932.166178 42.995504 
L 949.706307 45.038665 
" style="fill:none;stroke:#5cb85c;stroke-linecap:square;"/>
   </g>
   <g id="line2d_39">
    <path clip-path="url(#pe05d83ccda)" d="M 81.469943 39.425809 
L 90.240007 39.412323 
L 99.010072 37.002955 
L 107.780136 36.35185 
L 116.5502 36.161614 
L 125.320265 36.323721 
L 134.090329 37.276191 
L 142.860393 36.647963 
L 151.630457 36.924883 
L 160.400522 36.151835 
L 177.94065 36.466742 
L 195.480779 36.591881 
L 213.020907 36.648363 
L 230.561036 36.687894 
L 248.101164 36.773239 
L 265.641293 37.02546 
L 283.181422 37.207189 
L 300.72155 37.599274 
L 318.261679 37.850625 
L 335.801807 37.960754 
L 353.341936 38.045299 
L 370.882064 38.17456 
L 388.422193 38.353016 
L 405.962322 38.355477 
L 423.50245 38.552236 
L 441.042579 38.70329 
L 458.582707 38.817833 
L 476.122836 38.875069 
L 493.662964 39.28445 
L 511.203093 39.232931 
L 528.743221 39.278698 
L 546.28335 39.328546 
L 563.823479 39.670955 
L 581.363607 39.611506 
L 598.903736 39.883836 
L 616.443864 39.731986 
L 633.983993 39.872898 
L 651.524121 39.908344 
L 669.06425 40.054844 
L 686.604378 40.11694 
L 704.144507 40.440957 
L 721.684636 40.263543 
L 739.224764 40.547972 
L 756.764893 40.456353 
L 774.305021 40.656956 
L 791.84515 40.686826 
L 809.385278 40.702806 
L 826.925407 41.019972 
L 844.465535 41.225526 
L 862.005664 41.190631 
L 879.545793 41.373211 
L 897.085921 41.518277 
L 914.62605 41.736255 
L 932.166178 42.152625 
L 949.706307 44.301692 
" style="fill:none;stroke:#5cb85c;stroke-linecap:square;"/>
   </g>
   <g id="line2d_40">
    <path clip-path="url(#pe05d83ccda)" d="M 81.469943 39.590617 
L 90.240007 39.642495 
L 99.010072 37.207758 
L 107.780136 36.504941 
L 116.5502 36.254899 
L 125.320265 36.382651 
L 134.090329 37.233853 
L 142.860393 36.63913 
L 151.630457 36.865705 
L 160.400522 36.141645 
L 177.94065 36.435204 
L 195.480779 36.584827 
L 213.020907 36.657326 
L 230.561036 36.704294 
L 248.101164 36.78016 
L 265.641293 37.044754 
L 283.181422 37.249429 
L 300.72155 37.679413 
L 318.261679 37.947489 
L 335.801807 38.10962 
L 353.341936 38.240488 
L 370.882064 38.387832 
L 388.422193 38.560063 
L 405.962322 38.594556 
L 423.50245 38.822922 
L 441.042579 38.996252 
L 458.582707 39.258674 
L 476.122836 39.254245 
L 493.662964 39.507088 
L 511.203093 39.444729 
L 528.743221 39.59816 
L 546.28335 39.702644 
L 563.823479 40.056954 
L 581.363607 40.031444 
L 598.903736 40.319752 
L 616.443864 40.309764 
L 633.983993 40.414173 
L 651.524121 40.489458 
L 669.06425 40.783993 
L 686.604378 40.764868 
L 704.144507 40.987252 
L 721.684636 40.859995 
L 739.224764 41.139375 
L 756.764893 41.063553 
L 774.305021 41.267752 
L 791.84515 41.328013 
L 809.385278 41.384288 
L 826.925407 41.694889 
L 844.465535 41.898039 
L 862.005664 41.825447 
L 879.545793 41.970511 
L 897.085921 42.200208 
L 914.62605 42.527035 
L 932.166178 42.960029 
L 949.706307 45.07739 
" style="fill:none;stroke:#5cb85c;stroke-linecap:square;"/>
   </g>
   <g id="line2d_41">
    <path clip-path="url(#pe05d83ccda)" d="M 81.469943 39.634789 
L 90.240007 39.591658 
L 99.010072 37.171585 
L 107.780136 36.446929 
L 116.5502 36.197487 
L 125.320265 36.309231 
L 134.090329 37.120409 
L 142.860393 36.570299 
L 151.630457 36.766667 
L 160.400522 36.041172 
L 177.94065 36.343178 
L 195.480779 36.50683 
L 213.020907 36.566254 
L 230.561036 36.61433 
L 248.101164 36.715809 
L 265.641293 36.996513 
L 283.181422 37.215477 
L 300.72155 37.642116 
L 318.261679 37.922631 
L 335.801807 38.095469 
L 353.341936 38.236065 
L 370.882064 38.381546 
L 388.422193 38.575448 
L 405.962322 38.63535 
L 423.50245 38.88537 
L 441.042579 39.114221 
L 458.582707 39.449381 
L 476.122836 39.372595 
L 493.662964 39.801762 
L 511.203093 39.629501 
L 528.743221 39.887006 
L 546.28335 39.983019 
L 563.823479 40.49069 
L 581.363607 40.420439 
L 598.903736 40.683231 
L 616.443864 40.804052 
L 633.983993 40.760666 
L 651.524121 40.944484 
L 669.06425 41.232071 
L 686.604378 41.190781 
L 704.144507 41.334092 
L 721.684636 41.163309 
L 739.224764 41.435688 
L 756.764893 41.376527 
L 774.305021 41.610786 
L 791.84515 41.687088 
L 809.385278 41.742203 
L 826.925407 42.05411 
L 844.465535 42.258483 
L 862.005664 42.21416 
L 879.545793 42.367664 
L 897.085921 42.614939 
L 914.62605 42.967293 
L 932.166178 43.377086 
L 949.706307 45.496224 
" style="fill:none;stroke:#5cb85c;stroke-linecap:square;"/>
   </g>
   <g id="line2d_42">
    <path clip-path="url(#pe05d83ccda)" d="M 81.469943 39.288193 
L 90.240007 39.271429 
L 99.010072 36.957672 
L 107.780136 36.296454 
L 116.5502 36.113678 
L 125.320265 36.262757 
L 134.090329 37.0803 
L 142.860393 36.510511 
L 151.630457 36.744571 
L 160.400522 36.021305 
L 177.94065 36.353914 
L 195.480779 36.501177 
L 213.020907 36.578342 
L 230.561036 36.617733 
L 248.101164 36.693567 
L 265.641293 36.943937 
L 283.181422 37.151137 
L 300.72155 37.584518 
L 318.261679 37.839901 
L 335.801807 37.976754 
L 353.341936 38.085518 
L 370.882064 38.242262 
L 388.422193 38.42516 
L 405.962322 38.446926 
L 423.50245 38.655908 
L 441.042579 38.889245 
L 458.582707 39.354833 
L 476.122836 39.263559 
L 493.662964 39.764172 
L 511.203093 39.389766 
L 528.743221 39.613536 
L 546.28335 39.715374 
L 563.823479 40.330287 
L 581.363607 40.277113 
L 598.903736 40.375963 
L 616.443864 40.600275 
L 633.983993 40.35112 
L 651.524121 40.731979 
L 669.06425 41.029001 
L 686.604378 41.013702 
L 704.144507 40.857049 
L 721.684636 40.56472 
L 739.224764 40.835303 
L 756.764893 40.758291 
L 774.305021 40.967728 
L 791.84515 41.003312 
L 809.385278 41.037316 
L 826.925407 41.385202 
L 844.465535 41.599221 
L 862.005664 41.579151 
L 879.545793 41.785001 
L 897.085921 41.935092 
L 914.62605 42.185494 
L 932.166178 42.655868 
L 949.706307 44.727758 
" style="fill:none;stroke:#5cb85c;stroke-linecap:square;"/>
   </g>
   <g id="line2d_43">
    <path clip-path="url(#pe05d83ccda)" d="M 38.058125 353.2239 
L 993.118125 353.2239 
" style="fill:none;stroke:#dedede;stroke-linecap:square;stroke-width:2;"/>
   </g>
   <g id="text_17">
    <!-- FastQC: Mean Quality Scores -->
    <g transform="translate(400.349375 19.3575)scale(0.16 -0.16)">
     <defs>
      <path d="M 628 4666 
L 3309 4666 
L 3309 4134 
L 1259 4134 
L 1259 2759 
L 3109 2759 
L 3109 2228 
L 1259 2228 
L 1259 0 
L 628 0 
L 628 4666 
z
" id="DejaVuSans-46" transform="scale(0.015625)"/>
      <path d="M 2194 1759 
Q 1497 1759 1228 1600 
Q 959 1441 959 1056 
Q 959 750 1161 570 
Q 1363 391 1709 391 
Q 2188 391 2477 730 
Q 2766 1069 2766 1631 
L 2766 1759 
L 2194 1759 
z
M 3341 1997 
L 3341 0 
L 2766 0 
L 2766 531 
Q 2569 213 2275 61 
Q 1981 -91 1556 -91 
Q 1019 -91 701 211 
Q 384 513 384 1019 
Q 384 1609 779 1909 
Q 1175 2209 1959 2209 
L 2766 2209 
L 2766 2266 
Q 2766 2663 2505 2880 
Q 2244 3097 1772 3097 
Q 1472 3097 1187 3025 
Q 903 2953 641 2809 
L 641 3341 
Q 956 3463 1253 3523 
Q 1550 3584 1831 3584 
Q 2591 3584 2966 3190 
Q 3341 2797 3341 1997 
z
" id="DejaVuSans-61" transform="scale(0.015625)"/>
      <path d="M 2522 4238 
Q 1834 4238 1429 3725 
Q 1025 3213 1025 2328 
Q 1025 1447 1429 934 
Q 1834 422 2522 422 
Q 3209 422 3611 934 
Q 4013 1447 4013 2328 
Q 4013 3213 3611 3725 
Q 3209 4238 2522 4238 
z
M 3406 84 
L 4238 -825 
L 3475 -825 
L 2784 -78 
Q 2681 -84 2626 -87 
Q 2572 -91 2522 -91 
Q 1538 -91 948 567 
Q 359 1225 359 2328 
Q 359 3434 948 4092 
Q 1538 4750 2522 4750 
Q 3503 4750 4090 4092 
Q 4678 3434 4678 2328 
Q 4678 1516 4351 937 
Q 4025 359 3406 84 
z
" id="DejaVuSans-51" transform="scale(0.015625)"/>
      <path d="M 4122 4306 
L 4122 3641 
Q 3803 3938 3442 4084 
Q 3081 4231 2675 4231 
Q 1875 4231 1450 3742 
Q 1025 3253 1025 2328 
Q 1025 1406 1450 917 
Q 1875 428 2675 428 
Q 3081 428 3442 575 
Q 3803 722 4122 1019 
L 4122 359 
Q 3791 134 3420 21 
Q 3050 -91 2638 -91 
Q 1578 -91 968 557 
Q 359 1206 359 2328 
Q 359 3453 968 4101 
Q 1578 4750 2638 4750 
Q 3056 4750 3426 4639 
Q 3797 4528 4122 4306 
z
" id="DejaVuSans-43" transform="scale(0.015625)"/>
      <path d="M 750 794 
L 1409 794 
L 1409 0 
L 750 0 
L 750 794 
z
M 750 3309 
L 1409 3309 
L 1409 2516 
L 750 2516 
L 750 3309 
z
" id="DejaVuSans-3a" transform="scale(0.015625)"/>
      <path d="M 628 4666 
L 1569 4666 
L 2759 1491 
L 3956 4666 
L 4897 4666 
L 4897 0 
L 4281 0 
L 4281 4097 
L 3078 897 
L 2444 897 
L 1241 4097 
L 1241 0 
L 628 0 
L 628 4666 
z
" id="DejaVuSans-4d" transform="scale(0.015625)"/>
      <path d="M 544 1381 
L 544 3500 
L 1119 3500 
L 1119 1403 
Q 1119 906 1312 657 
Q 1506 409 1894 409 
Q 2359 409 2629 706 
Q 2900 1003 2900 1516 
L 2900 3500 
L 3475 3500 
L 3475 0 
L 2900 0 
L 2900 538 
Q 2691 219 2414 64 
Q 2138 -91 1772 -91 
Q 1169 -91 856 284 
Q 544 659 544 1381 
z
M 1991 3584 
L 1991 3584 
z
" id="DejaVuSans-75" transform="scale(0.015625)"/>
      <path d="M 603 4863 
L 1178 4863 
L 1178 0 
L 603 0 
L 603 4863 
z
" id="DejaVuSans-6c" transform="scale(0.015625)"/>
      <path d="M 2059 -325 
Q 1816 -950 1584 -1140 
Q 1353 -1331 966 -1331 
L 506 -1331 
L 506 -850 
L 844 -850 
Q 1081 -850 1212 -737 
Q 1344 -625 1503 -206 
L 1606 56 
L 191 3500 
L 800 3500 
L 1894 763 
L 2988 3500 
L 3597 3500 
L 2059 -325 
z
" id="DejaVuSans-79" transform="scale(0.015625)"/>
     </defs>
     <use xlink:href="#DejaVuSans-46"/>
     <use x="48.394531" xlink:href="#DejaVuSans-61"/>
     <use x="109.673828" xlink:href="#DejaVuSans-73"/>
     <use x="161.773438" xlink:href="#DejaVuSans-74"/>
     <use x="200.982422" xlink:href="#DejaVuSans-51"/>
     <use x="279.693359" xlink:href="#DejaVuSans-43"/>
     <use x="349.517578" xlink:href="#DejaVuSans-3a"/>
     <use x="383.208984" xlink:href="#DejaVuSans-20"/>
     <use x="414.996094" xlink:href="#DejaVuSans-4d"/>
     <use x="501.275391" xlink:href="#DejaVuSans-65"/>
     <use x="562.798828" xlink:href="#DejaVuSans-61"/>
     <use x="624.078125" xlink:href="#DejaVuSans-6e"/>
     <use x="687.457031" xlink:href="#DejaVuSans-20"/>
     <use x="719.244141" xlink:href="#DejaVuSans-51"/>
     <use x="797.955078" xlink:href="#DejaVuSans-75"/>
     <use x="861.333984" xlink:href="#DejaVuSans-61"/>
     <use x="922.613281" xlink:href="#DejaVuSans-6c"/>
     <use x="950.396484" xlink:href="#DejaVuSans-69"/>
     <use x="978.179688" xlink:href="#DejaVuSans-74"/>
     <use x="1017.388672" xlink:href="#DejaVuSans-79"/>
     <use x="1076.568359" xlink:href="#DejaVuSans-20"/>
     <use x="1108.355469" xlink:href="#DejaVuSans-53"/>
     <use x="1171.832031" xlink:href="#DejaVuSans-63"/>
     <use x="1226.8125" xlink:href="#DejaVuSans-6f"/>
     <use x="1287.994141" xlink:href="#DejaVuSans-72"/>
     <use x="1326.857422" xlink:href="#DejaVuSans-65"/>
     <use x="1388.380859" xlink:href="#DejaVuSans-73"/>
    </g>
   </g>
  </g>
 </g>
 <defs>
  <clipPath id="pe05d83ccda">
   <rect height="317.968" width="955.06" x="38.058125" y="35.2559"/>
  </clipPath>
 </defs>
</svg>
