<?xml version="1.0" encoding="utf-8" standalone="no"?>
<!DOCTYPE svg PUBLIC "-//W3C//DTD SVG 1.1//EN"
  "http://www.w3.org/Graphics/SVG/1.1/DTD/svg11.dtd">
<svg height="388.844525pt" version="1.1" viewBox="0 0 1000.278125 388.844525" width="1000.278125pt" xmlns="http://www.w3.org/2000/svg" xmlns:xlink="http://www.w3.org/1999/xlink">
 <metadata>
  <rdf:RDF xmlns:cc="http://creativecommons.org/ns#" xmlns:dc="http://purl.org/dc/elements/1.1/" xmlns:rdf="http://www.w3.org/1999/02/22-rdf-syntax-ns#">
   <cc:Work>
    <dc:type rdf:resource="http://purl.org/dc/dcmitype/StillImage"/>
    <dc:date>2022-11-03T13:38:07.659164</dc:date>
    <dc:format>image/svg+xml</dc:format>
    <dc:creator>
     <cc:Agent>
      <dc:title>Matplotlib v3.4.2, https://matplotlib.org/</dc:title>
     </cc:Agent>
    </dc:creator>
   </cc:Work>
  </rdf:RDF>
 </metadata>
 <defs>
  <style type="text/css">*{stroke-linecap:butt;stroke-linejoin:round;}</style>
 </defs>
 <g id="figure_1">
  <g id="axes_1">
   <g id="patch_1">
    <path d="M 43.148125 353.2239 
L 993.078125 353.2239 
L 993.078125 35.2559 
L 43.148125 35.2559 
z
" style="fill:#ffffff;"/>
   </g>
   <g id="matplotlib.axis_1">
    <g id="xtick_1">
     <g id="text_1">
      <!-- 0 -->
      <g transform="translate(40.603125 366.30265)scale(0.08 -0.08)">
       <defs>
        <path d="M 2034 4250 
Q 1547 4250 1301 3770 
Q 1056 3291 1056 2328 
Q 1056 1369 1301 889 
Q 1547 409 2034 409 
Q 2525 409 2770 889 
Q 3016 1369 3016 2328 
Q 3016 3291 2770 3770 
Q 2525 4250 2034 4250 
z
M 2034 4750 
Q 2819 4750 3233 4129 
Q 3647 3509 3647 2328 
Q 3647 1150 3233 529 
Q 2819 -91 2034 -91 
Q 1250 -91 836 529 
Q 422 1150 422 2328 
Q 422 3509 836 4129 
Q 1250 4750 2034 4750 
z
" id="DejaVuSans-30" transform="scale(0.015625)"/>
       </defs>
       <use xlink:href="#DejaVuSans-30"/>
      </g>
     </g>
    </g>
    <g id="xtick_2">
     <g id="text_2">
      <!-- 500 -->
      <g transform="translate(229.139297 366.30265)scale(0.08 -0.08)">
       <defs>
        <path d="M 691 4666 
L 3169 4666 
L 3169 4134 
L 1269 4134 
L 1269 2991 
Q 1406 3038 1543 3061 
Q 1681 3084 1819 3084 
Q 2600 3084 3056 2656 
Q 3513 2228 3513 1497 
Q 3513 744 3044 326 
Q 2575 -91 1722 -91 
Q 1428 -91 1123 -41 
Q 819 9 494 109 
L 494 744 
Q 775 591 1075 516 
Q 1375 441 1709 441 
Q 2250 441 2565 725 
Q 2881 1009 2881 1497 
Q 2881 1984 2565 2268 
Q 2250 2553 1709 2553 
Q 1456 2553 1204 2497 
Q 953 2441 691 2322 
L 691 4666 
z
" id="DejaVuSans-35" transform="scale(0.015625)"/>
       </defs>
       <use xlink:href="#DejaVuSans-35"/>
       <use x="63.623047" xlink:href="#DejaVuSans-30"/>
       <use x="127.246094" xlink:href="#DejaVuSans-30"/>
      </g>
     </g>
    </g>
    <g id="xtick_3">
     <g id="text_3">
      <!-- 1000 -->
      <g transform="translate(420.220469 366.30265)scale(0.08 -0.08)">
       <defs>
        <path d="M 794 531 
L 1825 531 
L 1825 4091 
L 703 3866 
L 703 4441 
L 1819 4666 
L 2450 4666 
L 2450 531 
L 3481 531 
L 3481 0 
L 794 0 
L 794 531 
z
" id="DejaVuSans-31" transform="scale(0.015625)"/>
       </defs>
       <use xlink:href="#DejaVuSans-31"/>
       <use x="63.623047" xlink:href="#DejaVuSans-30"/>
       <use x="127.246094" xlink:href="#DejaVuSans-30"/>
       <use x="190.869141" xlink:href="#DejaVuSans-30"/>
      </g>
     </g>
    </g>
    <g id="xtick_4">
     <g id="text_4">
      <!-- 1500 -->
      <g transform="translate(613.846641 366.30265)scale(0.08 -0.08)">
       <use xlink:href="#DejaVuSans-31"/>
       <use x="63.623047" xlink:href="#DejaVuSans-35"/>
       <use x="127.246094" xlink:href="#DejaVuSans-30"/>
       <use x="190.869141" xlink:href="#DejaVuSans-30"/>
      </g>
     </g>
    </g>
    <g id="xtick_5">
     <g id="text_5">
      <!-- 2000 -->
      <g transform="translate(807.472813 366.30265)scale(0.08 -0.08)">
       <defs>
        <path d="M 1228 531 
L 3431 531 
L 3431 0 
L 469 0 
L 469 531 
Q 828 903 1448 1529 
Q 2069 2156 2228 2338 
Q 2531 2678 2651 2914 
Q 2772 3150 2772 3378 
Q 2772 3750 2511 3984 
Q 2250 4219 1831 4219 
Q 1534 4219 1204 4116 
Q 875 4013 500 3803 
L 500 4441 
Q 881 4594 1212 4672 
Q 1544 4750 1819 4750 
Q 2544 4750 2975 4387 
Q 3406 4025 3406 3419 
Q 3406 3131 3298 2873 
Q 3191 2616 2906 2266 
Q 2828 2175 2409 1742 
Q 1991 1309 1228 531 
z
" id="DejaVuSans-32" transform="scale(0.015625)"/>
       </defs>
       <use xlink:href="#DejaVuSans-32"/>
       <use x="63.623047" xlink:href="#DejaVuSans-30"/>
       <use x="127.246094" xlink:href="#DejaVuSans-30"/>
       <use x="190.869141" xlink:href="#DejaVuSans-30"/>
      </g>
     </g>
    </g>
    <g id="text_6">
     <!-- Total molecules (including duplicates) -->
     <g transform="translate(423.863125 379.564837)scale(0.1 -0.1)">
      <defs>
       <path d="M -19 4666 
L 3928 4666 
L 3928 4134 
L 2272 4134 
L 2272 0 
L 1638 0 
L 1638 4134 
L -19 4134 
L -19 4666 
z
" id="DejaVuSans-54" transform="scale(0.015625)"/>
       <path d="M 1959 3097 
Q 1497 3097 1228 2736 
Q 959 2375 959 1747 
Q 959 1119 1226 758 
Q 1494 397 1959 397 
Q 2419 397 2687 759 
Q 2956 1122 2956 1747 
Q 2956 2369 2687 2733 
Q 2419 3097 1959 3097 
z
M 1959 3584 
Q 2709 3584 3137 3096 
Q 3566 2609 3566 1747 
Q 3566 888 3137 398 
Q 2709 -91 1959 -91 
Q 1206 -91 779 398 
Q 353 888 353 1747 
Q 353 2609 779 3096 
Q 1206 3584 1959 3584 
z
" id="DejaVuSans-6f" transform="scale(0.015625)"/>
       <path d="M 1172 4494 
L 1172 3500 
L 2356 3500 
L 2356 3053 
L 1172 3053 
L 1172 1153 
Q 1172 725 1289 603 
Q 1406 481 1766 481 
L 2356 481 
L 2356 0 
L 1766 0 
Q 1100 0 847 248 
Q 594 497 594 1153 
L 594 3053 
L 172 3053 
L 172 3500 
L 594 3500 
L 594 4494 
L 1172 4494 
z
" id="DejaVuSans-74" transform="scale(0.015625)"/>
       <path d="M 2194 1759 
Q 1497 1759 1228 1600 
Q 959 1441 959 1056 
Q 959 750 1161 570 
Q 1363 391 1709 391 
Q 2188 391 2477 730 
Q 2766 1069 2766 1631 
L 2766 1759 
L 2194 1759 
z
M 3341 1997 
L 3341 0 
L 2766 0 
L 2766 531 
Q 2569 213 2275 61 
Q 1981 -91 1556 -91 
Q 1019 -91 701 211 
Q 384 513 384 1019 
Q 384 1609 779 1909 
Q 1175 2209 1959 2209 
L 2766 2209 
L 2766 2266 
Q 2766 2663 2505 2880 
Q 2244 3097 1772 3097 
Q 1472 3097 1187 3025 
Q 903 2953 641 2809 
L 641 3341 
Q 956 3463 1253 3523 
Q 1550 3584 1831 3584 
Q 2591 3584 2966 3190 
Q 3341 2797 3341 1997 
z
" id="DejaVuSans-61" transform="scale(0.015625)"/>
       <path d="M 603 4863 
L 1178 4863 
L 1178 0 
L 603 0 
L 603 4863 
z
" id="DejaVuSans-6c" transform="scale(0.015625)"/>
       <path id="DejaVuSans-20" transform="scale(0.015625)"/>
       <path d="M 3328 2828 
Q 3544 3216 3844 3400 
Q 4144 3584 4550 3584 
Q 5097 3584 5394 3201 
Q 5691 2819 5691 2113 
L 5691 0 
L 5113 0 
L 5113 2094 
Q 5113 2597 4934 2840 
Q 4756 3084 4391 3084 
Q 3944 3084 3684 2787 
Q 3425 2491 3425 1978 
L 3425 0 
L 2847 0 
L 2847 2094 
Q 2847 2600 2669 2842 
Q 2491 3084 2119 3084 
Q 1678 3084 1418 2786 
Q 1159 2488 1159 1978 
L 1159 0 
L 581 0 
L 581 3500 
L 1159 3500 
L 1159 2956 
Q 1356 3278 1631 3431 
Q 1906 3584 2284 3584 
Q 2666 3584 2933 3390 
Q 3200 3197 3328 2828 
z
" id="DejaVuSans-6d" transform="scale(0.015625)"/>
       <path d="M 3597 1894 
L 3597 1613 
L 953 1613 
Q 991 1019 1311 708 
Q 1631 397 2203 397 
Q 2534 397 2845 478 
Q 3156 559 3463 722 
L 3463 178 
Q 3153 47 2828 -22 
Q 2503 -91 2169 -91 
Q 1331 -91 842 396 
Q 353 884 353 1716 
Q 353 2575 817 3079 
Q 1281 3584 2069 3584 
Q 2775 3584 3186 3129 
Q 3597 2675 3597 1894 
z
M 3022 2063 
Q 3016 2534 2758 2815 
Q 2500 3097 2075 3097 
Q 1594 3097 1305 2825 
Q 1016 2553 972 2059 
L 3022 2063 
z
" id="DejaVuSans-65" transform="scale(0.015625)"/>
       <path d="M 3122 3366 
L 3122 2828 
Q 2878 2963 2633 3030 
Q 2388 3097 2138 3097 
Q 1578 3097 1268 2742 
Q 959 2388 959 1747 
Q 959 1106 1268 751 
Q 1578 397 2138 397 
Q 2388 397 2633 464 
Q 2878 531 3122 666 
L 3122 134 
Q 2881 22 2623 -34 
Q 2366 -91 2075 -91 
Q 1284 -91 818 406 
Q 353 903 353 1747 
Q 353 2603 823 3093 
Q 1294 3584 2113 3584 
Q 2378 3584 2631 3529 
Q 2884 3475 3122 3366 
z
" id="DejaVuSans-63" transform="scale(0.015625)"/>
       <path d="M 544 1381 
L 544 3500 
L 1119 3500 
L 1119 1403 
Q 1119 906 1312 657 
Q 1506 409 1894 409 
Q 2359 409 2629 706 
Q 2900 1003 2900 1516 
L 2900 3500 
L 3475 3500 
L 3475 0 
L 2900 0 
L 2900 538 
Q 2691 219 2414 64 
Q 2138 -91 1772 -91 
Q 1169 -91 856 284 
Q 544 659 544 1381 
z
M 1991 3584 
L 1991 3584 
z
" id="DejaVuSans-75" transform="scale(0.015625)"/>
       <path d="M 2834 3397 
L 2834 2853 
Q 2591 2978 2328 3040 
Q 2066 3103 1784 3103 
Q 1356 3103 1142 2972 
Q 928 2841 928 2578 
Q 928 2378 1081 2264 
Q 1234 2150 1697 2047 
L 1894 2003 
Q 2506 1872 2764 1633 
Q 3022 1394 3022 966 
Q 3022 478 2636 193 
Q 2250 -91 1575 -91 
Q 1294 -91 989 -36 
Q 684 19 347 128 
L 347 722 
Q 666 556 975 473 
Q 1284 391 1588 391 
Q 1994 391 2212 530 
Q 2431 669 2431 922 
Q 2431 1156 2273 1281 
Q 2116 1406 1581 1522 
L 1381 1569 
Q 847 1681 609 1914 
Q 372 2147 372 2553 
Q 372 3047 722 3315 
Q 1072 3584 1716 3584 
Q 2034 3584 2315 3537 
Q 2597 3491 2834 3397 
z
" id="DejaVuSans-73" transform="scale(0.015625)"/>
       <path d="M 1984 4856 
Q 1566 4138 1362 3434 
Q 1159 2731 1159 2009 
Q 1159 1288 1364 580 
Q 1569 -128 1984 -844 
L 1484 -844 
Q 1016 -109 783 600 
Q 550 1309 550 2009 
Q 550 2706 781 3412 
Q 1013 4119 1484 4856 
L 1984 4856 
z
" id="DejaVuSans-28" transform="scale(0.015625)"/>
       <path d="M 603 3500 
L 1178 3500 
L 1178 0 
L 603 0 
L 603 3500 
z
M 603 4863 
L 1178 4863 
L 1178 4134 
L 603 4134 
L 603 4863 
z
" id="DejaVuSans-69" transform="scale(0.015625)"/>
       <path d="M 3513 2113 
L 3513 0 
L 2938 0 
L 2938 2094 
Q 2938 2591 2744 2837 
Q 2550 3084 2163 3084 
Q 1697 3084 1428 2787 
Q 1159 2491 1159 1978 
L 1159 0 
L 581 0 
L 581 3500 
L 1159 3500 
L 1159 2956 
Q 1366 3272 1645 3428 
Q 1925 3584 2291 3584 
Q 2894 3584 3203 3211 
Q 3513 2838 3513 2113 
z
" id="DejaVuSans-6e" transform="scale(0.015625)"/>
       <path d="M 2906 2969 
L 2906 4863 
L 3481 4863 
L 3481 0 
L 2906 0 
L 2906 525 
Q 2725 213 2448 61 
Q 2172 -91 1784 -91 
Q 1150 -91 751 415 
Q 353 922 353 1747 
Q 353 2572 751 3078 
Q 1150 3584 1784 3584 
Q 2172 3584 2448 3432 
Q 2725 3281 2906 2969 
z
M 947 1747 
Q 947 1113 1208 752 
Q 1469 391 1925 391 
Q 2381 391 2643 752 
Q 2906 1113 2906 1747 
Q 2906 2381 2643 2742 
Q 2381 3103 1925 3103 
Q 1469 3103 1208 2742 
Q 947 2381 947 1747 
z
" id="DejaVuSans-64" transform="scale(0.015625)"/>
       <path d="M 2906 1791 
Q 2906 2416 2648 2759 
Q 2391 3103 1925 3103 
Q 1463 3103 1205 2759 
Q 947 2416 947 1791 
Q 947 1169 1205 825 
Q 1463 481 1925 481 
Q 2391 481 2648 825 
Q 2906 1169 2906 1791 
z
M 3481 434 
Q 3481 -459 3084 -895 
Q 2688 -1331 1869 -1331 
Q 1566 -1331 1297 -1286 
Q 1028 -1241 775 -1147 
L 775 -588 
Q 1028 -725 1275 -790 
Q 1522 -856 1778 -856 
Q 2344 -856 2625 -561 
Q 2906 -266 2906 331 
L 2906 616 
Q 2728 306 2450 153 
Q 2172 0 1784 0 
Q 1141 0 747 490 
Q 353 981 353 1791 
Q 353 2603 747 3093 
Q 1141 3584 1784 3584 
Q 2172 3584 2450 3431 
Q 2728 3278 2906 2969 
L 2906 3500 
L 3481 3500 
L 3481 434 
z
" id="DejaVuSans-67" transform="scale(0.015625)"/>
       <path d="M 1159 525 
L 1159 -1331 
L 581 -1331 
L 581 3500 
L 1159 3500 
L 1159 2969 
Q 1341 3281 1617 3432 
Q 1894 3584 2278 3584 
Q 2916 3584 3314 3078 
Q 3713 2572 3713 1747 
Q 3713 922 3314 415 
Q 2916 -91 2278 -91 
Q 1894 -91 1617 61 
Q 1341 213 1159 525 
z
M 3116 1747 
Q 3116 2381 2855 2742 
Q 2594 3103 2138 3103 
Q 1681 3103 1420 2742 
Q 1159 2381 1159 1747 
Q 1159 1113 1420 752 
Q 1681 391 2138 391 
Q 2594 391 2855 752 
Q 3116 1113 3116 1747 
z
" id="DejaVuSans-70" transform="scale(0.015625)"/>
       <path d="M 513 4856 
L 1013 4856 
Q 1481 4119 1714 3412 
Q 1947 2706 1947 2009 
Q 1947 1309 1714 600 
Q 1481 -109 1013 -844 
L 513 -844 
Q 928 -128 1133 580 
Q 1338 1288 1338 2009 
Q 1338 2731 1133 3434 
Q 928 4138 513 4856 
z
" id="DejaVuSans-29" transform="scale(0.015625)"/>
      </defs>
      <use xlink:href="#DejaVuSans-54"/>
      <use x="44.083984" xlink:href="#DejaVuSans-6f"/>
      <use x="105.265625" xlink:href="#DejaVuSans-74"/>
      <use x="144.474609" xlink:href="#DejaVuSans-61"/>
      <use x="205.753906" xlink:href="#DejaVuSans-6c"/>
      <use x="233.537109" xlink:href="#DejaVuSans-20"/>
      <use x="265.324219" xlink:href="#DejaVuSans-6d"/>
      <use x="362.736328" xlink:href="#DejaVuSans-6f"/>
      <use x="423.917969" xlink:href="#DejaVuSans-6c"/>
      <use x="451.701172" xlink:href="#DejaVuSans-65"/>
      <use x="513.224609" xlink:href="#DejaVuSans-63"/>
      <use x="568.205078" xlink:href="#DejaVuSans-75"/>
      <use x="631.583984" xlink:href="#DejaVuSans-6c"/>
      <use x="659.367188" xlink:href="#DejaVuSans-65"/>
      <use x="720.890625" xlink:href="#DejaVuSans-73"/>
      <use x="772.990234" xlink:href="#DejaVuSans-20"/>
      <use x="804.777344" xlink:href="#DejaVuSans-28"/>
      <use x="843.791016" xlink:href="#DejaVuSans-69"/>
      <use x="871.574219" xlink:href="#DejaVuSans-6e"/>
      <use x="934.953125" xlink:href="#DejaVuSans-63"/>
      <use x="989.933594" xlink:href="#DejaVuSans-6c"/>
      <use x="1017.716797" xlink:href="#DejaVuSans-75"/>
      <use x="1081.095703" xlink:href="#DejaVuSans-64"/>
      <use x="1144.572266" xlink:href="#DejaVuSans-69"/>
      <use x="1172.355469" xlink:href="#DejaVuSans-6e"/>
      <use x="1235.734375" xlink:href="#DejaVuSans-67"/>
      <use x="1299.210938" xlink:href="#DejaVuSans-20"/>
      <use x="1330.998047" xlink:href="#DejaVuSans-64"/>
      <use x="1394.474609" xlink:href="#DejaVuSans-75"/>
      <use x="1457.853516" xlink:href="#DejaVuSans-70"/>
      <use x="1521.330078" xlink:href="#DejaVuSans-6c"/>
      <use x="1549.113281" xlink:href="#DejaVuSans-69"/>
      <use x="1576.896484" xlink:href="#DejaVuSans-63"/>
      <use x="1631.876953" xlink:href="#DejaVuSans-61"/>
      <use x="1693.15625" xlink:href="#DejaVuSans-74"/>
      <use x="1732.365234" xlink:href="#DejaVuSans-65"/>
      <use x="1793.888672" xlink:href="#DejaVuSans-73"/>
      <use x="1845.988281" xlink:href="#DejaVuSans-29"/>
     </g>
    </g>
   </g>
   <g id="matplotlib.axis_2">
    <g id="ytick_1">
     <g id="line2d_1">
      <path clip-path="url(#p0fbee8bcd7)" d="M 43.148125 353.2239 
L 993.078125 353.2239 
" style="fill:none;stroke:#dedede;stroke-linecap:square;"/>
     </g>
     <g id="text_7">
      <!-- 0 -->
      <g transform="translate(31.058125 356.263275)scale(0.08 -0.08)">
       <use xlink:href="#DejaVuSans-30"/>
      </g>
     </g>
    </g>
    <g id="ytick_2">
     <g id="line2d_2">
      <path clip-path="url(#p0fbee8bcd7)" d="M 43.148125 285.17063 
L 993.078125 285.17063 
" style="fill:none;stroke:#dedede;stroke-linecap:square;"/>
     </g>
     <g id="text_8">
      <!-- 50 -->
      <g transform="translate(25.968125 288.210005)scale(0.08 -0.08)">
       <use xlink:href="#DejaVuSans-35"/>
       <use x="63.623047" xlink:href="#DejaVuSans-30"/>
      </g>
     </g>
    </g>
    <g id="ytick_3">
     <g id="line2d_3">
      <path clip-path="url(#p0fbee8bcd7)" d="M 43.148125 217.11736 
L 993.078125 217.11736 
" style="fill:none;stroke:#dedede;stroke-linecap:square;"/>
     </g>
     <g id="text_9">
      <!-- 100 -->
      <g transform="translate(20.878125 220.156735)scale(0.08 -0.08)">
       <use xlink:href="#DejaVuSans-31"/>
       <use x="63.623047" xlink:href="#DejaVuSans-30"/>
       <use x="127.246094" xlink:href="#DejaVuSans-30"/>
      </g>
     </g>
    </g>
    <g id="ytick_4">
     <g id="line2d_4">
      <path clip-path="url(#p0fbee8bcd7)" d="M 43.148125 149.06409 
L 993.078125 149.06409 
" style="fill:none;stroke:#dedede;stroke-linecap:square;"/>
     </g>
     <g id="text_10">
      <!-- 150 -->
      <g transform="translate(20.878125 152.103465)scale(0.08 -0.08)">
       <use xlink:href="#DejaVuSans-31"/>
       <use x="63.623047" xlink:href="#DejaVuSans-35"/>
       <use x="127.246094" xlink:href="#DejaVuSans-30"/>
      </g>
     </g>
    </g>
    <g id="ytick_5">
     <g id="line2d_5">
      <path clip-path="url(#p0fbee8bcd7)" d="M 43.148125 81.01082 
L 993.078125 81.01082 
" style="fill:none;stroke:#dedede;stroke-linecap:square;"/>
     </g>
     <g id="text_11">
      <!-- 200 -->
      <g transform="translate(20.878125 84.050195)scale(0.08 -0.08)">
       <use xlink:href="#DejaVuSans-32"/>
       <use x="63.623047" xlink:href="#DejaVuSans-30"/>
       <use x="127.246094" xlink:href="#DejaVuSans-30"/>
      </g>
     </g>
    </g>
    <g id="text_12">
     <!-- Unique molecules -->
     <g transform="translate(14.798438 238.849275)rotate(-90)scale(0.1 -0.1)">
      <defs>
       <path d="M 556 4666 
L 1191 4666 
L 1191 1831 
Q 1191 1081 1462 751 
Q 1734 422 2344 422 
Q 2950 422 3222 751 
Q 3494 1081 3494 1831 
L 3494 4666 
L 4128 4666 
L 4128 1753 
Q 4128 841 3676 375 
Q 3225 -91 2344 -91 
Q 1459 -91 1007 375 
Q 556 841 556 1753 
L 556 4666 
z
" id="DejaVuSans-55" transform="scale(0.015625)"/>
       <path d="M 947 1747 
Q 947 1113 1208 752 
Q 1469 391 1925 391 
Q 2381 391 2643 752 
Q 2906 1113 2906 1747 
Q 2906 2381 2643 2742 
Q 2381 3103 1925 3103 
Q 1469 3103 1208 2742 
Q 947 2381 947 1747 
z
M 2906 525 
Q 2725 213 2448 61 
Q 2172 -91 1784 -91 
Q 1150 -91 751 415 
Q 353 922 353 1747 
Q 353 2572 751 3078 
Q 1150 3584 1784 3584 
Q 2172 3584 2448 3432 
Q 2725 3281 2906 2969 
L 2906 3500 
L 3481 3500 
L 3481 -1331 
L 2906 -1331 
L 2906 525 
z
" id="DejaVuSans-71" transform="scale(0.015625)"/>
      </defs>
      <use xlink:href="#DejaVuSans-55"/>
      <use x="73.193359" xlink:href="#DejaVuSans-6e"/>
      <use x="136.572266" xlink:href="#DejaVuSans-69"/>
      <use x="164.355469" xlink:href="#DejaVuSans-71"/>
      <use x="227.832031" xlink:href="#DejaVuSans-75"/>
      <use x="291.210938" xlink:href="#DejaVuSans-65"/>
      <use x="352.734375" xlink:href="#DejaVuSans-20"/>
      <use x="384.521484" xlink:href="#DejaVuSans-6d"/>
      <use x="481.933594" xlink:href="#DejaVuSans-6f"/>
      <use x="543.115234" xlink:href="#DejaVuSans-6c"/>
      <use x="570.898438" xlink:href="#DejaVuSans-65"/>
      <use x="632.421875" xlink:href="#DejaVuSans-63"/>
      <use x="687.402344" xlink:href="#DejaVuSans-75"/>
      <use x="750.78125" xlink:href="#DejaVuSans-6c"/>
      <use x="778.564453" xlink:href="#DejaVuSans-65"/>
      <use x="840.087891" xlink:href="#DejaVuSans-73"/>
     </g>
    </g>
   </g>
   <g id="line2d_6">
    <path clip-path="url(#p0fbee8bcd7)" d="M 43.148125 353.2239 
L 44.309882 350.091735 
L 46.246144 345.691003 
L 48.569658 341.075093 
L 50.893172 336.931292 
L 53.603938 332.532458 
L 56.701957 327.949644 
L 59.799976 323.74592 
L 63.285247 319.387841 
L 67.15777 314.929771 
L 71.030294 310.812526 
L 75.29007 306.621007 
L 79.549845 302.736603 
L 84.196873 298.800121 
L 89.231154 294.851739 
L 93.878182 291.476994 
L 99.299715 287.792194 
L 105.1085 284.125268 
L 110.917285 280.722524 
L 117.113323 277.373405 
L 124.471117 273.662373 
L 131.054407 270.588603 
L 138.024949 267.574261 
L 144.608239 264.914338 
L 152.740538 261.842911 
L 160.098333 259.276666 
L 169.779642 256.172281 
L 177.524688 253.879862 
L 190.304016 250.371065 
L 202.308838 247.35363 
L 212.377399 245.036041 
L 225.156727 242.343407 
L 237.548802 239.958809 
L 249.166372 237.885994 
L 261.945699 235.786593 
L 278.59755 233.280833 
L 293.700392 231.207459 
L 311.513999 228.987352 
L 330.876617 226.79918 
L 352.175496 224.618733 
L 376.959646 222.340257 
L 399.033029 220.520433 
L 425.753441 218.542094 
L 452.861105 216.748728 
L 485.00305 214.851958 
L 517.144994 213.129954 
L 554.321219 211.384901 
L 593.433706 209.770772 
L 638.354978 208.125451 
L 687.536026 206.550696 
L 745.236625 204.962521 
L 806.809748 203.497087 
L 875.740665 202.084063 
L 952.803881 200.730858 
L 993.078125 200.102053 
L 993.078125 200.102053 
" style="fill:none;stroke:#7cb5ec;stroke-linecap:square;"/>
   </g>
   <g id="line2d_7">
    <path clip-path="url(#p0fbee8bcd7)" d="M 43.148125 353.2239 
L 44.309882 350.166502 
L 46.246144 345.870577 
L 48.569658 341.370064 
L 50.893172 337.340351 
L 53.603938 333.077541 
L 56.701957 328.655986 
L 59.799976 324.620121 
L 63.285247 320.458343 
L 66.770518 316.631819 
L 70.643041 312.714024 
L 74.515565 309.098325 
L 78.775341 305.424447 
L 83.422369 301.735826 
L 88.069397 298.342424 
L 93.103677 294.924 
L 98.137958 291.770151 
L 103.559491 288.623357 
L 109.368276 285.525444 
L 115.951566 282.285907 
L 122.922108 279.121347 
L 128.730893 276.697315 
L 136.088688 273.857283 
L 143.833734 271.094068 
L 153.515043 267.9502 
L 162.034595 265.449627 
L 171.715903 262.846344 
L 181.009959 260.578809 
L 191.853025 258.148515 
L 203.857848 255.69504 
L 214.700913 253.688209 
L 227.867493 251.477083 
L 242.19583 249.300826 
L 255.749662 247.436784 
L 272.401513 245.375818 
L 289.827868 243.41636 
L 308.803233 241.510222 
L 332.425626 239.386643 
L 353.724505 237.678365 
L 377.73415 235.966669 
L 405.229067 234.245862 
L 435.43475 232.582688 
L 468.738451 230.975811 
L 505.527424 229.426907 
L 546.576172 227.926151 
L 592.271949 226.48297 
L 646.487277 225.004918 
L 704.187876 223.668082 
L 769.24627 222.387694 
L 843.211468 221.159538 
L 927.632479 219.985728 
L 993.078125 219.206957 
L 993.078125 219.206957 
" style="fill:none;stroke:#434348;stroke-linecap:square;"/>
   </g>
   <g id="line2d_8">
    <path clip-path="url(#p0fbee8bcd7)" d="M 43.148125 353.2239 
L 44.309882 349.925458 
L 46.246144 345.184769 
L 48.569658 340.188834 
L 50.893172 335.716432 
L 53.603938 330.999 
L 56.314705 326.711338 
L 59.412723 322.240459 
L 62.510742 318.152114 
L 65.996013 313.937316 
L 69.481284 310.069823 
L 73.353808 306.12091 
L 77.226331 302.489403 
L 81.098855 299.140579 
L 85.358631 295.732113 
L 89.618406 292.57924 
L 95.427191 288.660189 
L 100.848724 285.32163 
L 106.270257 282.250448 
L 112.079042 279.230737 
L 118.27508 276.275308 
L 124.85837 273.405447 
L 131.828912 270.619355 
L 139.186706 267.930606 
L 146.544501 265.466885 
L 155.064052 262.858433 
L 163.970856 260.372555 
L 173.652165 257.927051 
L 183.720726 255.620391 
L 194.951044 253.286051 
L 206.955867 251.027656 
L 219.735194 248.852316 
L 233.289026 246.774873 
L 248.004615 244.749616 
L 263.881961 242.777718 
L 280.533812 240.932712 
L 298.734672 239.135562 
L 320.808056 237.199829 
L 340.945178 235.652956 
L 368.440094 233.769264 
L 395.93501 232.123353 
L 424.591684 230.629628 
L 457.895385 229.113878 
L 496.233368 227.598367 
L 535.733107 226.260577 
L 582.203388 224.906802 
L 637.193221 223.536806 
L 696.830082 222.282218 
L 762.66298 221.121926 
L 841.662458 219.964615 
L 930.730498 218.874055 
L 993.078125 218.223188 
L 993.078125 218.223188 
" style="fill:none;stroke:#90ed7d;stroke-linecap:square;"/>
   </g>
   <g id="line2d_9">
    <path clip-path="url(#p0fbee8bcd7)" d="M 43.148125 353.2239 
L 44.309882 350.326022 
L 46.246144 346.23329 
L 48.569658 341.932693 
L 50.893172 338.07532 
L 53.603938 333.990057 
L 56.701957 329.749609 
L 59.799976 325.877123 
L 63.285247 321.882677 
L 66.770518 318.21095 
L 70.643041 314.453191 
L 74.902817 310.655456 
L 79.162593 307.164237 
L 83.809621 303.652191 
L 88.843902 300.155506 
L 93.878182 296.940396 
L 99.299715 293.741515 
L 104.333995 291.012321 
L 110.530033 287.895171 
L 116.72607 285.019726 
L 123.30936 282.209515 
L 130.279902 279.470995 
L 137.637697 276.818822 
L 144.995491 274.384228 
L 153.515043 271.786886 
L 162.034595 269.42254 
L 172.490408 266.766563 
L 182.946221 264.369057 
L 194.176539 262.032658 
L 206.181362 259.766068 
L 218.186185 257.710131 
L 232.127269 255.545886 
L 247.23011 253.446928 
L 264.269213 251.330906 
L 284.019083 249.14201 
L 301.832691 247.415707 
L 325.842336 245.315003 
L 349.077477 243.521417 
L 371.15086 242.017894 
L 402.131048 240.151104 
L 432.336731 238.572384 
L 467.963946 236.932621 
L 506.301929 235.428616 
L 550.448696 233.918198 
L 598.080734 232.537333 
L 655.394081 231.110268 
L 712.707428 229.91069 
L 782.025597 228.688669 
L 860.637823 227.520888 
L 950.867619 226.408303 
L 993.078125 225.954373 
L 993.078125 225.954373 
" style="fill:none;stroke:#f7a35c;stroke-linecap:square;"/>
   </g>
   <g id="line2d_10">
    <path clip-path="url(#p0fbee8bcd7)" d="M 43.148125 353.2239 
L 44.309882 349.982329 
L 46.246144 345.389186 
L 48.569658 340.56253 
L 50.893172 336.233061 
L 53.603938 331.646636 
L 56.701957 326.88284 
L 59.799976 322.528697 
L 63.285247 318.03245 
L 66.770518 313.893698 
L 70.643041 309.650736 
L 74.515565 305.729535 
L 78.775341 301.737792 
L 83.035116 298.040684 
L 87.682145 294.299988 
L 92.716425 290.546425 
L 97.750706 287.069302 
L 103.172238 283.597351 
L 108.981023 280.154463 
L 115.177061 276.759889 
L 121.373099 273.626194 
L 127.956388 270.539143 
L 134.926931 267.51521 
L 142.671977 264.415492 
L 151.578781 261.125798 
L 158.936576 258.623356 
L 167.068875 256.074284 
L 177.137436 253.164851 
L 187.593249 250.392289 
L 198.436315 247.731139 
L 208.892128 245.383021 
L 219.347942 243.251 
L 233.289026 240.645426 
L 246.455606 238.402718 
L 264.656466 235.592116 
L 280.921064 233.34789 
L 297.960167 231.225239 
L 317.322785 229.034757 
L 337.072654 227.008528 
L 359.920542 224.910913 
L 385.091945 222.862617 
L 411.037852 220.975877 
L 438.145516 219.225642 
L 469.125703 217.463703 
L 503.20391 215.751656 
L 540.767387 214.091576 
L 582.203388 212.487462 
L 628.673669 210.916773 
L 679.403726 209.415932 
L 735.942569 207.969648 
L 799.064701 206.58075 
L 866.833861 205.310252 
L 946.995096 204.031053 
L 993.078125 203.384192 
L 993.078125 203.384192 
" style="fill:none;stroke:#8085e9;stroke-linecap:square;"/>
   </g>
   <g id="line2d_11">
    <path clip-path="url(#p0fbee8bcd7)" d="M 43.148125 353.2239 
L 44.309882 349.870423 
L 46.246144 345.031265 
L 48.569658 339.912517 
L 50.893172 335.313287 
L 53.603938 330.443889 
L 56.314705 326.00102 
L 59.412723 321.349946 
L 62.510742 317.0792 
L 65.996013 312.658666 
L 69.481284 308.586628 
L 73.353808 304.414974 
L 77.226331 300.568774 
L 81.486107 296.663943 
L 85.745883 293.04547 
L 90.392911 289.399155 
L 95.039939 286.037421 
L 100.07422 282.652574 
L 105.1085 279.52737 
L 110.917285 276.180434 
L 116.72607 273.08529 
L 122.922108 270.03792 
L 129.505398 267.066283 
L 136.088688 264.315561 
L 143.05923 261.616485 
L 150.804277 258.866665 
L 158.936576 256.227444 
L 167.068875 253.811118 
L 177.524688 250.94621 
L 187.593249 248.422484 
L 197.274558 246.219835 
L 209.279381 243.722236 
L 220.896951 241.544545 
L 235.225288 239.118954 
L 249.166372 236.987117 
L 263.494709 234.97599 
L 279.759307 232.925355 
L 297.572915 230.908257 
L 316.935532 228.958563 
L 339.008916 226.970974 
L 363.018561 225.049371 
L 387.415459 223.308664 
L 414.910375 221.57467 
L 443.567049 219.987974 
L 475.708993 218.42979 
L 512.497966 216.870507 
L 553.159462 215.372777 
L 601.566005 213.824195 
L 652.683315 212.418689 
L 707.673147 211.130038 
L 772.344289 209.843701 
L 845.14773 208.622367 
L 928.794236 207.452355 
L 993.078125 206.682255 
L 993.078125 206.682255 
" style="fill:none;stroke:#f15c80;stroke-linecap:square;"/>
   </g>
   <g id="line2d_12">
    <path clip-path="url(#p0fbee8bcd7)" d="M 43.148125 353.2239 
L 44.309882 349.947215 
L 46.246144 345.266121 
L 48.569658 340.305982 
L 51.280424 335.110974 
L 53.991191 330.38285 
L 57.089209 325.423129 
L 60.57448 320.298842 
L 64.059752 315.571442 
L 67.932275 310.708568 
L 71.804798 306.195224 
L 76.064574 301.577793 
L 80.32435 297.277923 
L 84.971378 292.904952 
L 90.005659 288.491685 
L 95.039939 284.37774 
L 100.07422 280.535895 
L 105.495752 276.668172 
L 111.304538 272.793261 
L 117.500575 268.931013 
L 123.696613 265.334277 
L 130.279902 261.769561 
L 137.250445 258.237458 
L 144.220987 254.936346 
L 151.966034 251.514542 
L 160.098333 248.170793 
L 169.005137 244.758163 
L 177.137436 241.863989 
L 186.818745 238.662325 
L 196.500053 235.677228 
L 207.730371 232.486146 
L 217.798932 229.825927 
L 228.641998 227.157049 
L 241.034073 224.332117 
L 254.975157 221.390784 
L 266.205475 219.213511 
L 280.921064 216.61818 
L 299.509177 213.590324 
L 314.999271 211.298421 
L 333.974635 208.722575 
L 353.337253 206.322732 
L 374.248879 203.959261 
L 396.322263 201.699892 
L 420.331908 199.470558 
L 445.890563 197.321595 
L 473.772732 195.205079 
L 503.591162 193.16679 
L 536.120359 191.1695 
L 571.360322 189.232052 
L 609.698304 187.350189 
L 651.134305 185.541204 
L 696.830082 183.780799 
L 747.172887 182.067673 
L 802.549972 180.410002 
L 863.735842 178.805614 
L 934.990273 177.169616 
L 993.078125 175.992088 
L 993.078125 175.992088 
" style="fill:none;stroke:#e4d354;stroke-linecap:square;"/>
   </g>
   <g id="line2d_13">
    <path clip-path="url(#p0fbee8bcd7)" d="M 43.148125 353.2239 
L 44.309882 349.939318 
L 46.246144 345.188433 
L 48.569658 340.092372 
L 51.280424 334.687379 
L 54.378443 329.021861 
L 57.863714 323.142257 
L 61.736238 317.090547 
L 65.608761 311.448428 
L 69.868537 305.633316 
L 74.515565 299.683081 
L 79.162593 294.082662 
L 84.196873 288.355803 
L 89.618406 282.532427 
L 95.427191 276.638805 
L 101.235977 271.059693 
L 107.432014 265.415253 
L 114.015304 259.726536 
L 120.985846 254.012099 
L 127.956388 248.582195 
L 135.314183 243.128219 
L 143.05923 237.665132 
L 151.191529 232.206238 
L 159.711081 226.763309 
L 168.617884 221.34674 
L 177.911941 215.965679 
L 187.593249 210.628168 
L 197.66181 205.341241 
L 208.117624 200.111025 
L 218.960689 194.94283 
L 230.191007 189.841226 
L 241.808578 184.810116 
L 253.8134 179.852806 
L 266.205475 174.972068 
L 279.372055 170.028173 
L 292.925887 165.178215 
L 306.866971 160.422733 
L 321.195308 155.76588 
L 336.685402 150.970074 
L 352.95 146.174495 
L 370.376356 141.285582 
L 387.415459 136.748478 
L 405.229067 132.2344 
L 423.817179 127.7543 
L 443.179796 123.318973 
L 463.704171 118.856355 
L 486.552059 114.129799 
L 508.625443 109.832369 
L 532.247836 105.466324 
L 557.031986 101.067882 
L 581.816136 96.951852 
L 608.9238 92.681845 
L 636.031464 88.638925 
L 664.300885 84.667845 
L 693.732063 80.757657 
L 729.359279 76.265931 
L 761.888476 72.433341 
L 793.255915 68.955001 
L 834.304664 64.652111 
L 877.289674 60.467674 
L 926.083469 56.000051 
L 965.195956 52.651182 
L 993.078125 50.397233 
L 993.078125 50.397233 
" style="fill:none;stroke:#2b908f;stroke-linecap:square;"/>
   </g>
   <g id="line2d_14">
    <path clip-path="url(#p0fbee8bcd7)" d="M 43.148125 353.2239 
L 44.309882 349.904093 
L 46.246144 345.137759 
L 48.569658 340.089842 
L 51.280424 334.815258 
L 53.991191 330.029092 
L 57.089209 325.024771 
L 60.187228 320.423559 
L 63.672499 315.646039 
L 67.15777 311.225443 
L 71.030294 306.670343 
L 74.902817 302.441678 
L 79.162593 298.121908 
L 83.422369 294.105606 
L 88.456649 289.701467 
L 93.103677 285.912242 
L 98.52521 281.811699 
L 103.946743 278.0035 
L 109.368276 274.458674 
L 115.177061 270.909966 
L 122.922108 266.558873 
L 129.505398 263.147134 
L 136.47594 259.792963 
L 143.833734 256.50387 
L 150.804277 253.603928 
L 158.936576 250.480199 
L 167.068875 247.583227 
L 175.588427 244.759676 
L 184.882483 241.894992 
L 194.951044 239.029639 
L 205.406857 236.287692 
L 217.41168 233.399253 
L 230.191007 230.56789 
L 242.583082 228.058755 
L 255.36241 225.701696 
L 270.077999 223.230786 
L 285.568092 220.842591 
L 302.994448 218.390949 
L 320.420803 216.156053 
L 340.557925 213.823002 
L 361.082299 211.663593 
L 383.542935 209.54614 
L 407.552581 207.507735 
L 433.88574 205.499996 
L 462.155161 203.570009 
L 494.684358 201.58002 
L 527.213555 199.811544 
L 564.002528 198.043534 
L 604.276772 196.332488 
L 648.810791 194.666744 
L 697.991839 193.054501 
L 752.207167 191.503349 
L 812.23128 190.011665 
L 879.613188 188.569878 
L 955.127395 187.181528 
L 993.078125 186.558967 
L 993.078125 186.558967 
" style="fill:none;stroke:#f45b5b;stroke-linecap:square;"/>
   </g>
   <g id="line2d_15">
    <path clip-path="url(#p0fbee8bcd7)" d="M 43.148125 353.2239 
L 44.309882 349.944461 
L 46.246144 345.288608 
L 48.569658 340.381302 
L 51.280424 335.263069 
L 53.991191 330.620169 
L 57.089209 325.763383 
L 60.57448 320.758006 
L 64.059752 316.151426 
L 67.932275 311.423727 
L 71.804798 307.046635 
L 76.064574 302.580073 
L 80.32435 298.431648 
L 84.971378 294.223886 
L 89.618406 290.321499 
L 94.652687 286.371254 
L 99.686967 282.689287 
L 105.495752 278.743781 
L 111.304538 275.077896 
L 117.500575 271.436405 
L 123.696613 268.054634 
L 130.279902 264.715053 
L 137.637697 261.241898 
L 145.382744 257.857412 
L 152.353286 255.024056 
L 161.26009 251.673551 
L 169.392389 248.852013 
L 178.686445 245.845771 
L 187.205997 243.30927 
L 198.049063 240.324841 
L 208.504876 237.671745 
L 220.896951 234.788314 
L 233.289026 232.122546 
L 246.842858 229.443426 
L 260.009438 227.0675 
L 274.725027 224.654889 
L 290.602373 222.279556 
L 308.028728 219.911191 
L 327.004093 217.556763 
L 346.36671 215.37886 
L 366.891085 213.295726 
L 390.513478 211.134584 
L 415.297628 209.074266 
L 440.856282 207.172275 
L 469.900208 205.235414 
L 501.267648 203.363462 
L 535.733107 201.532956 
L 572.134827 199.822774 
L 613.570828 198.10616 
L 660.428361 196.394807 
L 710.383914 194.796267 
L 765.760999 193.249541 
L 829.657636 191.695166 
L 898.588553 190.248643 
L 975.65177 188.858689 
L 993.078125 188.572489 
L 993.078125 188.572489 
" style="fill:none;stroke:#91e8e1;stroke-linecap:square;"/>
   </g>
   <g id="line2d_16">
    <path clip-path="url(#p0fbee8bcd7)" d="M 43.148125 353.2239 
L 44.309882 350.042053 
L 46.246144 345.517351 
L 48.569658 340.733974 
L 51.280424 335.732354 
L 53.991191 331.185762 
L 57.089209 326.420994 
L 60.57448 321.502279 
L 64.059752 316.967893 
L 67.932275 312.306715 
L 71.804798 307.984289 
L 76.064574 303.566265 
L 80.32435 299.455198 
L 84.971378 295.276871 
L 90.005659 291.067738 
L 95.039939 287.149901 
L 100.461472 283.216305 
L 105.883005 279.553312 
L 112.079042 275.650949 
L 118.27508 272.023361 
L 125.245622 268.230144 
L 132.216164 264.705703 
L 139.186706 261.428905 
L 146.544501 258.226721 
L 154.6768 254.919776 
L 163.970856 251.418794 
L 172.87766 248.359123 
L 183.333474 245.02217 
L 193.402034 242.058793 
L 203.857848 239.216083 
L 215.088166 236.396919 
L 226.705736 233.712035 
L 239.097811 231.075848 
L 252.651643 228.423158 
L 267.754485 225.729236 
L 284.793588 222.938407 
L 300.283681 220.626807 
L 317.710037 218.27437 
L 337.072654 215.889003 
L 358.758785 213.490741 
L 380.444917 211.327557 
L 404.06731 209.198828 
L 430.013217 207.091177 
L 457.895385 205.057962 
L 487.713816 203.103211 
L 522.566527 201.051157 
L 561.679014 199.006696 
L 604.276772 197.015169 
L 644.551015 195.360035 
L 691.795801 193.662456 
L 743.687615 192.024758 
L 797.128439 190.556882 
L 860.637823 189.037544 
L 931.11775 187.577227 
L 993.078125 186.453433 
L 993.078125 186.453433 
" style="fill:none;stroke:#7cb5ec;stroke-linecap:square;"/>
   </g>
   <g id="line2d_17">
    <path clip-path="url(#p0fbee8bcd7)" d="M 43.148125 353.2239 
L 44.309882 349.986104 
L 46.246144 345.334254 
L 48.569658 340.393076 
L 51.280424 335.212855 
L 53.991191 330.496927 
L 57.089209 325.550432 
L 60.57448 320.44128 
L 64.059752 315.729366 
L 67.932275 310.884144 
L 71.804798 306.389188 
L 76.064574 301.792814 
L 80.32435 297.513582 
L 84.971378 293.161834 
L 89.618406 289.101416 
L 94.652687 284.99339 
L 100.07422 280.866404 
L 105.883005 276.742931 
L 111.69179 272.902962 
L 117.887827 269.089106 
L 124.083865 265.528259 
L 131.054407 261.788736 
L 138.412202 258.119712 
L 144.995491 255.0433 
L 153.515043 251.329898 
L 161.647342 248.059811 
L 170.554146 244.710638 
L 177.137436 242.418022 
L 187.593249 238.995515 
L 197.66181 235.954675 
L 208.117624 233.049116 
L 219.347942 230.152862 
L 231.740017 227.191849 
L 244.132092 224.442835 
L 257.685924 221.676634 
L 270.852503 219.207617 
L 284.793588 216.801014 
L 299.896429 214.420381 
L 320.420803 211.460402 
L 336.685402 209.327008 
L 357.209776 206.85496 
L 377.73415 204.600336 
L 399.033029 202.46692 
L 426.915198 199.940748 
L 453.248357 197.81992 
L 481.905031 195.740059 
L 515.208732 193.559069 
L 548.899686 191.579811 
L 585.301407 189.667556 
L 622.477632 187.934169 
L 663.913633 186.22232 
L 710.771166 184.510321 
L 767.310008 182.685149 
L 825.010608 181.053229 
L 888.519992 179.482648 
L 958.999919 177.965214 
L 993.078125 177.302682 
L 993.078125 177.302682 
" style="fill:none;stroke:#434348;stroke-linecap:square;"/>
   </g>
   <g id="line2d_18">
    <path clip-path="url(#p0fbee8bcd7)" d="M 43.148125 353.2239 
L 44.697134 348.909823 
L 46.633396 344.226707 
L 48.95691 339.187016 
L 51.667677 333.864952 
L 54.765695 328.333187 
L 57.863714 323.262705 
L 61.348985 318.005092 
L 64.834256 313.141319 
L 68.70678 308.126906 
L 72.579303 303.464735 
L 76.839079 298.688657 
L 81.098855 294.234757 
L 85.745883 289.697487 
L 90.780163 285.114745 
L 95.814444 280.838614 
L 101.235977 276.533373 
L 106.657509 272.508299 
L 112.466295 268.463898 
L 117.887827 264.931161 
L 124.85837 260.678843 
L 130.667155 257.374903 
L 138.024949 253.452655 
L 145.769996 249.608149 
L 153.127791 246.22415 
L 162.809099 242.083148 
L 170.554146 239.015964 
L 180.235455 235.435533 
L 191.07852 231.727402 
L 201.534334 228.427618 
L 211.990147 225.348784 
L 222.44596 222.495917 
L 235.999792 219.050813 
L 247.23011 216.424881 
L 262.720204 213.144452 
L 275.112279 210.682653 
L 289.827868 207.989192 
L 304.93071 205.447099 
L 321.58256 202.85274 
L 337.847159 200.536264 
L 357.597028 197.932355 
L 377.73415 195.488988 
L 399.807534 193.038563 
L 423.042675 190.682759 
L 445.890563 188.582325 
L 472.610975 186.344636 
L 498.556882 184.387414 
L 532.247836 182.074346 
L 564.38978 180.055063 
L 600.404248 178.027574 
L 636.418716 176.223427 
L 680.952736 174.216759 
L 727.035765 172.365348 
L 776.991317 170.582595 
L 832.368402 168.849791 
L 893.16702 167.172922 
L 960.161676 165.550709 
L 993.078125 164.826863 
L 993.078125 164.826863 
" style="fill:none;stroke:#90ed7d;stroke-linecap:square;"/>
   </g>
   <g id="line2d_19">
    <path clip-path="url(#p0fbee8bcd7)" d="M 43.148125 353.2239 
L 44.309882 349.972527 
L 46.246144 345.306359 
L 48.569658 340.345513 
L 51.280424 335.135194 
L 53.991191 330.381122 
L 57.089209 325.381983 
L 60.57448 320.203515 
L 64.059752 315.413462 
L 67.932275 310.472787 
L 71.804798 305.874587 
L 76.064574 301.157347 
L 80.711602 296.364536 
L 85.358631 291.893608 
L 90.392911 287.367416 
L 95.427191 283.132651 
L 100.848724 278.865537 
L 106.270257 274.887299 
L 112.079042 270.886638 
L 117.887827 267.150418 
L 124.471117 263.17212 
L 130.667155 259.711677 
L 138.799454 255.410086 
L 146.157249 251.778933 
L 153.902295 248.206179 
L 162.034595 244.701076 
L 170.941399 241.132255 
L 180.622707 237.535837 
L 189.916763 234.299035 
L 199.598072 231.19039 
L 211.215642 227.743656 
L 222.44596 224.649748 
L 235.225288 221.36223 
L 246.068353 218.751368 
L 259.622185 215.751372 
L 273.56327 212.942718 
L 288.666111 210.133897 
L 304.156205 207.471888 
L 322.357065 204.582848 
L 340.170673 201.977296 
L 357.209776 199.70263 
L 378.895907 197.050416 
L 399.033029 194.790158 
L 422.26817 192.420056 
L 447.05232 190.119742 
L 473.385479 187.901647 
L 501.267648 185.746341 
L 533.409593 183.499288 
L 566.713294 181.400417 
L 602.727762 179.358117 
L 641.452997 177.38671 
L 683.663502 175.462847 
L 728.972026 173.621316 
L 779.314831 171.804168 
L 834.304664 170.045736 
L 894.71603 168.340547 
L 960.93618 166.696801 
L 993.078125 165.971469 
L 993.078125 165.971469 
" style="fill:none;stroke:#f7a35c;stroke-linecap:square;"/>
   </g>
   <g id="line2d_20">
    <path clip-path="url(#p0fbee8bcd7)" d="M 43.148125 353.2239 
L 44.697134 348.768516 
L 46.633396 343.92416 
L 48.95691 338.708288 
L 51.667677 333.197722 
L 54.765695 327.467225 
L 57.863714 322.211889 
L 61.348985 316.759592 
L 64.834256 311.7128 
L 68.70678 306.506717 
L 72.579303 301.66311 
L 76.839079 296.70014 
L 81.098855 292.071194 
L 85.745883 287.355023 
L 90.392911 282.933597 
L 95.427191 278.467638 
L 100.848724 273.946549 
L 106.270257 269.713719 
L 111.69179 265.76157 
L 117.500575 261.787492 
L 123.696613 257.802646 
L 130.667155 253.621256 
L 137.250445 249.921748 
L 142.671977 247.075791 
L 149.64252 243.640487 
L 158.936576 239.327932 
L 166.681623 235.972759 
L 174.039417 232.989155 
L 182.558969 229.777786 
L 192.240277 226.35399 
L 202.308838 223.051135 
L 212.764652 219.852166 
L 223.99497 216.65924 
L 235.61254 213.619955 
L 248.391867 210.508863 
L 261.171195 207.614712 
L 273.56327 205.024309 
L 287.891606 202.259937 
L 301.832691 199.762362 
L 320.033551 196.738745 
L 337.459906 194.087231 
L 356.048019 191.490537 
L 375.797889 188.96154 
L 395.547758 186.653189 
L 418.008394 184.251319 
L 442.018039 181.910784 
L 469.125703 179.50133 
L 497.007872 177.253622 
L 526.43905 175.105118 
L 558.580995 173.002046 
L 593.433706 170.947252 
L 630.997183 168.957004 
L 672.045932 167.008345 
L 716.579951 165.123256 
L 766.922756 163.219197 
L 819.976327 161.441678 
L 878.451431 159.709153 
L 942.73532 158.031852 
L 993.078125 156.857851 
L 993.078125 156.857851 
" style="fill:none;stroke:#8085e9;stroke-linecap:square;"/>
   </g>
   <g id="line2d_21">
    <path clip-path="url(#p0fbee8bcd7)" d="M 43.148125 353.2239 
L 44.309882 349.848978 
L 46.246144 344.972169 
L 48.569658 339.779648 
L 51.280424 334.329402 
L 53.991191 329.364462 
L 57.089209 324.154969 
L 60.57448 318.773221 
L 64.059752 313.809981 
L 67.932275 308.706861 
L 71.804798 303.973393 
L 76.064574 299.133961 
L 80.32435 294.629296 
L 84.971378 290.049576 
L 90.005659 285.432318 
L 94.652687 281.456131 
L 100.07422 277.105727 
L 105.495752 273.047539 
L 110.917285 269.242457 
L 116.72607 265.427881 
L 122.922108 261.637816 
L 129.89265 257.661801 
L 136.47594 254.160878 
L 144.220987 250.304606 
L 151.578781 246.894789 
L 159.323828 243.533817 
L 167.456127 240.24342 
L 175.588427 237.181686 
L 184.882483 233.94819 
L 194.563792 230.799965 
L 205.019605 227.676534 
L 217.024427 224.321124 
L 227.480241 221.622855 
L 240.259568 218.553879 
L 251.489886 216.072802 
L 265.43097 213.235016 
L 280.921064 210.320122 
L 296.023906 207.710856 
L 311.513999 205.258358 
L 328.940355 202.727462 
L 348.690224 200.093699 
L 368.440094 197.685351 
L 389.738973 195.315829 
L 412.586861 193.002384 
L 436.983759 190.758302 
L 462.542414 188.630887 
L 490.811835 186.50183 
L 521.40477 184.423941 
L 554.321219 182.412633 
L 589.561182 180.481762 
L 628.673669 178.570346 
L 671.271427 176.715494 
L 717.741708 174.918347 
L 768.471765 173.181559 
L 826.559617 171.423617 
L 888.13274 169.788248 
L 956.289152 168.204602 
L 993.078125 167.433371 
L 993.078125 167.433371 
" style="fill:none;stroke:#f15c80;stroke-linecap:square;"/>
   </g>
   <g id="line2d_22">
    <path clip-path="url(#p0fbee8bcd7)" d="M 43.148125 353.2239 
L 44.309882 349.952869 
L 46.246144 345.304081 
L 48.569658 340.395168 
L 51.280424 335.265659 
L 53.991191 330.604198 
L 57.089209 325.719748 
L 60.57448 320.677558 
L 64.059752 316.028935 
L 67.932275 311.2495 
L 71.804798 306.815831 
L 76.064574 302.28182 
L 80.32435 298.059466 
L 84.971378 293.765177 
L 90.005659 289.436666 
L 95.039939 285.40517 
L 100.461472 281.355602 
L 106.270257 277.311011 
L 112.079042 273.524444 
L 117.887827 270.006707 
L 124.083865 266.501387 
L 131.441659 262.619302 
L 138.024949 259.38453 
L 146.157249 255.656449 
L 153.902295 252.385132 
L 162.034595 249.189627 
L 171.328651 245.787633 
L 180.622707 242.630542 
L 189.916763 239.718588 
L 200.372577 236.673011 
L 211.215642 233.762164 
L 222.833213 230.87231 
L 234.838035 228.116635 
L 247.23011 225.513431 
L 260.783942 222.909127 
L 276.661288 220.093433 
L 292.151382 217.598297 
L 306.866971 215.424571 
L 325.842336 212.848977 
L 345.592206 210.426192 
L 366.11658 208.135094 
L 388.964468 205.816232 
L 412.586861 203.648617 
L 438.532768 201.494135 
L 467.963946 199.294687 
L 498.169629 197.294227 
L 531.473331 195.317068 
L 567.100547 193.424018 
L 605.825781 191.59201 
L 648.423539 189.804198 
L 694.89382 188.080267 
L 746.011129 186.410046 
L 803.711729 184.75329 
L 866.446608 183.18127 
L 935.764778 181.66491 
L 993.078125 180.564562 
L 993.078125 180.564562 
" style="fill:none;stroke:#e4d354;stroke-linecap:square;"/>
   </g>
   <g id="line2d_23">
    <path clip-path="url(#p0fbee8bcd7)" d="M 43.148125 353.2239 
L 44.309882 350.165511 
L 45.858891 346.701696 
L 47.795153 342.869136 
L 50.118667 338.751742 
L 52.829434 334.426842 
L 55.5402 330.496743 
L 58.638219 326.389995 
L 62.12349 322.170728 
L 65.608761 318.303844 
L 69.481284 314.35549 
L 73.353808 310.718575 
L 77.613584 307.02911 
L 81.873359 303.622558 
L 86.520388 300.187591 
L 91.167416 297.015589 
L 96.588948 293.606412 
L 102.397734 290.232354 
L 108.206519 287.118515 
L 114.789809 283.918029 
L 120.985846 281.137231 
L 127.181884 278.536822 
L 133.377921 276.150038 
L 141.897473 273.110662 
L 150.804277 270.222135 
L 159.323828 267.720021 
L 168.230632 265.341148 
L 179.46095 262.58522 
L 190.304016 260.168871 
L 201.534334 257.897559 
L 212.764652 255.820074 
L 225.156727 253.728852 
L 239.872316 251.484189 
L 255.36241 249.383738 
L 272.01426 247.335416 
L 287.891606 245.595104 
L 308.415981 243.578741 
L 328.16585 241.82999 
L 354.111757 239.781354 
L 378.121403 238.131619 
L 406.003571 236.443612 
L 439.307273 234.662979 
L 474.547236 233.015877 
L 512.110714 231.481054 
L 553.933967 229.998195 
L 600.7915 228.564498 
L 653.070567 227.191613 
L 711.932923 225.872359 
L 778.540326 224.606525 
L 854.441786 223.392194 
L 941.186311 222.232879 
L 993.078125 221.633259 
L 993.078125 221.633259 
" style="fill:none;stroke:#2b908f;stroke-linecap:square;"/>
   </g>
   <g id="line2d_24">
    <path clip-path="url(#p0fbee8bcd7)" d="M 43.148125 353.2239 
L 44.309882 350.102755 
L 46.246144 345.680607 
L 48.569658 341.040304 
L 50.893172 336.888704 
L 53.603938 332.505204 
L 56.314705 328.513619 
L 59.412723 324.341478 
L 62.510742 320.515556 
L 65.996013 316.559961 
L 69.481284 312.919417 
L 73.353808 309.190119 
L 77.226331 305.750521 
L 81.486107 302.262217 
L 86.133135 298.761988 
L 90.780163 295.544517 
L 95.814444 292.330947 
L 101.235977 289.142971 
L 107.044762 286.002468 
L 112.853547 283.130359 
L 117.887827 280.818556 
L 124.471117 278.031813 
L 131.441659 275.335331 
L 139.573959 272.433363 
L 146.931753 270.061648 
L 155.838557 267.447284 
L 165.132613 264.954821 
L 174.039417 262.762885 
L 184.882483 260.343588 
L 196.112801 258.084807 
L 208.892128 255.772203 
L 221.671456 253.683164 
L 235.61254 251.629721 
L 251.102634 249.579504 
L 266.97998 247.692037 
L 284.793588 245.792881 
L 305.705214 243.822127 
L 326.229589 242.088961 
L 348.302972 240.449447 
L 373.474374 238.799034 
L 401.743796 237.186888 
L 433.111235 235.625553 
L 467.576694 234.125168 
L 506.301929 232.667063 
L 549.286939 231.274676 
L 598.080734 229.92233 
L 652.683315 228.636264 
L 716.967204 227.353152 
L 790.157897 226.124017 
L 871.480889 224.987642 
L 959.387171 223.980326 
L 993.078125 223.637265 
L 993.078125 223.637265 
" style="fill:none;stroke:#f45b5b;stroke-linecap:square;"/>
   </g>
   <g id="line2d_25">
    <path clip-path="url(#p0fbee8bcd7)" d="M 43.148125 353.2239 
L 44.309882 350.071064 
L 46.246144 345.58678 
L 48.569658 340.862901 
L 50.893172 336.618304 
L 53.603938 332.115561 
L 56.701957 327.43273 
L 59.799976 323.147578 
L 63.285247 318.718362 
L 66.770518 314.637899 
L 70.643041 310.451574 
L 74.515565 306.579988 
L 78.775341 302.637487 
L 83.422369 298.662479 
L 88.069397 294.981446 
L 93.103677 291.28943 
L 98.137958 287.869813 
L 103.559491 284.45354 
L 109.368276 281.064497 
L 115.564313 277.708542 
L 122.147603 274.407548 
L 128.343641 271.540242 
L 134.926931 268.714358 
L 143.05923 265.467138 
L 150.417024 262.775166 
L 158.162071 260.134693 
L 166.29437 257.566689 
L 175.975679 254.749751 
L 187.593249 251.639435 
L 199.21082 248.805047 
L 207.343119 247.010859 
L 220.896951 244.215445 
L 232.127269 242.115501 
L 247.23011 239.500369 
L 262.720204 237.093847 
L 275.886784 235.221111 
L 292.925887 233.024087 
L 310.352242 230.996839 
L 332.425626 228.673002 
L 354.111757 226.625568 
L 377.346898 224.657985 
L 402.5183 222.75012 
L 425.366189 221.223018 
L 455.184619 219.439685 
L 486.939311 217.737184 
L 528.375312 215.773663 
L 568.262304 214.126451 
L 613.183575 212.500885 
L 661.977371 210.962863 
L 716.192699 209.480713 
L 776.604065 208.055395 
L 844.373225 206.683043 
L 921.049189 205.37023 
L 993.078125 204.311295 
L 993.078125 204.311295 
" style="fill:none;stroke:#91e8e1;stroke-linecap:square;"/>
   </g>
   <g id="line2d_26">
    <path clip-path="url(#p0fbee8bcd7)" d="M 43.148125 353.2239 
L 44.309882 349.860464 
L 46.246144 345.009464 
L 48.569658 339.876653 
L 50.893172 335.262334 
L 53.603938 330.373703 
L 56.314705 325.909871 
L 59.412723 321.232829 
L 62.510742 316.934489 
L 65.996013 312.481149 
L 69.481284 308.374331 
L 73.353808 304.160842 
L 77.226331 300.266679 
L 81.486107 296.312182 
L 86.133135 292.329344 
L 90.780163 288.656109 
L 96.201696 284.711394 
L 101.235977 281.331325 
L 106.657509 277.948043 
L 112.466295 274.609303 
L 118.27508 271.524121 
L 124.471117 268.463979 
L 131.054407 265.472002 
L 138.412202 262.375862 
L 145.382744 259.682157 
L 153.127791 256.913048 
L 161.26009 254.240334 
L 170.166894 251.550027 
L 178.686445 249.184211 
L 189.916763 246.314059 
L 199.598072 244.054941 
L 210.441138 241.759835 
L 222.44596 239.398957 
L 234.838035 237.220876 
L 248.77912 234.994564 
L 265.043718 232.635557 
L 282.082821 230.408448 
L 299.509177 228.351869 
L 318.484542 226.344564 
L 339.008916 224.397629 
L 361.469552 222.493108 
L 385.479197 220.681084 
L 412.199609 218.892384 
L 441.243535 217.159845 
L 474.934489 215.382427 
L 510.174452 213.750218 
L 548.125182 212.214933 
L 591.110192 210.703871 
L 639.516735 209.238422 
L 693.732063 207.825304 
L 755.692438 206.439737 
L 823.848851 205.134166 
L 895.490534 203.980001 
L 983.009564 202.790384 
L 993.078125 202.666398 
L 993.078125 202.666398 
" style="fill:none;stroke:#7cb5ec;stroke-linecap:square;"/>
   </g>
   <g id="line2d_27">
    <path clip-path="url(#p0fbee8bcd7)" d="M 43.148125 353.2239 
L 44.309882 350.027901 
L 45.858891 346.407546 
L 47.795153 342.430654 
L 50.118667 338.204409 
L 52.442181 334.420155 
L 55.152948 330.43999 
L 57.863714 326.838262 
L 60.961733 323.102986 
L 64.059752 319.708004 
L 67.545023 316.231304 
L 71.030294 313.063311 
L 74.902817 309.850709 
L 78.775341 306.917917 
L 82.647864 304.23512 
L 87.294892 301.293282 
L 92.329173 298.388617 
L 97.363453 295.744369 
L 102.397734 293.339595 
L 108.206519 290.81969 
L 114.015304 288.524919 
L 120.211341 286.295362 
L 127.181884 284.032228 
L 135.314183 281.634021 
L 143.05923 279.577359 
L 151.578781 277.555824 
L 160.872838 275.575671 
L 171.328651 273.58827 
L 182.171717 271.746186 
L 195.725549 269.69701 
L 209.279381 267.900361 
L 224.382222 266.122997 
L 241.808578 264.345681 
L 260.39669 262.676632 
L 280.14656 261.142858 
L 302.607196 259.632419 
L 327.004093 258.21422 
L 354.886262 256.823183 
L 385.86645 255.496289 
L 419.557403 254.276036 
L 459.057143 253.058989 
L 504.365667 251.891082 
L 556.257481 250.780865 
L 619.379613 249.673061 
L 688.697783 248.689223 
L 771.569784 247.742554 
L 870.319132 246.844067 
L 987.656592 246.001599 
L 993.078125 245.967402 
L 993.078125 245.967402 
" style="fill:none;stroke:#434348;stroke-linecap:square;"/>
   </g>
   <g id="line2d_28">
    <path clip-path="url(#p0fbee8bcd7)" d="M 43.148125 353.2239 
L 44.309882 350.039705 
L 45.858891 346.406206 
L 47.795153 342.385465 
L 50.118667 338.076045 
L 52.829434 333.567069 
L 55.5402 329.488357 
L 58.638219 325.246785 
L 61.736238 321.373054 
L 65.221509 317.381341 
L 68.70678 313.718078 
L 72.579303 309.976415 
L 76.451827 306.533019 
L 80.711602 303.043462 
L 85.358631 299.546077 
L 90.005659 296.32974 
L 95.039939 293.120841 
L 100.461472 289.945015 
L 105.883005 287.023067 
L 111.69179 284.141821 
L 118.27508 281.150024 
L 125.245622 278.259522 
L 131.828912 275.756722 
L 139.961211 272.911816 
L 147.319006 270.56338 
L 155.838557 268.083399 
L 165.519866 265.514618 
L 175.975679 262.996186 
L 185.656988 260.87565 
L 197.66181 258.501645 
L 209.666633 256.372878 
L 223.607717 254.136514 
L 238.323306 252.012248 
L 253.426148 250.05791 
L 269.690746 248.181675 
L 286.342597 246.464306 
L 308.028728 244.459823 
L 328.553103 242.791277 
L 354.886262 240.898458 
L 381.219421 239.252747 
L 410.6506 237.639982 
L 444.341553 236.0382 
L 477.645255 234.657978 
L 517.532246 233.229406 
L 563.615275 231.808658 
L 611.634566 230.54785 
L 668.173408 229.27606 
L 730.908288 228.089689 
L 811.456776 226.811222 
L 896.265039 225.693939 
L 987.656592 224.710459 
L 993.078125 224.657764 
L 993.078125 224.657764 
" style="fill:none;stroke:#90ed7d;stroke-linecap:square;"/>
   </g>
   <g id="line2d_29">
    <path clip-path="url(#p0fbee8bcd7)" d="M 43.148125 353.2239 
L 44.697134 348.770501 
L 46.633396 343.924199 
L 48.95691 338.697899 
L 51.667677 333.165621 
L 54.765695 327.400197 
L 57.863714 322.101461 
L 61.348985 316.592196 
L 64.834256 311.48159 
L 68.70678 306.198378 
L 72.579303 301.271397 
L 76.839079 296.209248 
L 81.486107 291.058043 
L 86.133135 286.245629 
L 91.167416 281.368658 
L 96.201696 276.811714 
L 101.623229 272.215046 
L 107.044762 267.898993 
L 112.466295 263.855268 
L 118.27508 259.770933 
L 124.083865 255.940497 
L 129.89265 252.341228 
L 136.863192 248.260951 
L 144.220987 244.240792 
L 151.966034 240.30173 
L 159.711081 236.631221 
L 168.230632 232.852153 
L 177.911941 228.87263 
L 187.205997 225.301493 
L 197.274558 221.705569 
L 206.955867 218.478235 
L 217.41168 215.255495 
L 229.02925 211.919368 
L 240.64682 208.82331 
L 252.651643 205.852041 
L 265.43097 202.921272 
L 280.533812 199.702876 
L 295.249401 196.820818 
L 310.739495 194.014576 
L 327.004093 191.298116 
L 345.204953 188.499829 
L 363.405814 185.924582 
L 383.930188 183.284291 
L 407.939833 180.446498 
L 432.723983 177.768071 
L 455.184619 175.584018 
L 481.130526 173.277094 
L 509.012695 171.022602 
L 536.120359 169.043983 
L 569.424061 166.836838 
L 604.276772 164.747746 
L 642.227501 162.699489 
L 682.888997 160.720541 
L 731.29554 158.601525 
L 779.702083 156.71631 
L 832.368402 154.89048 
L 890.069001 153.115858 
L 953.191134 151.399767 
L 993.078125 150.418682 
L 993.078125 150.418682 
" style="fill:none;stroke:#f7a35c;stroke-linecap:square;"/>
   </g>
   <g id="line2d_30">
    <path clip-path="url(#p0fbee8bcd7)" d="M 43.148125 353.2239 
L 44.309882 349.826602 
L 45.858891 345.898334 
L 47.795153 341.605328 
L 49.731415 337.823772 
L 52.054929 333.811638 
L 54.378443 330.261123 
L 56.701957 327.089071 
L 59.412723 323.78587 
L 62.12349 320.841578 
L 64.834256 318.199967 
L 67.932275 315.495235 
L 71.030294 313.07579 
L 74.515565 310.64314 
L 78.000836 308.471005 
L 81.873359 306.313986 
L 86.133135 304.207065 
L 90.780163 302.171747 
L 95.814444 300.227014 
L 100.848724 298.501564 
L 105.1085 297.191577 
L 112.079042 295.32286 
L 119.824089 293.529622 
L 127.956388 291.902039 
L 136.47594 290.412478 
L 144.995491 289.136136 
L 155.064052 287.822304 
L 167.456127 286.452101 
L 179.073698 285.355911 
L 194.563792 284.089036 
L 211.990147 282.881174 
L 230.191007 281.838083 
L 252.651643 280.787739 
L 278.984803 279.784412 
L 309.96499 278.833873 
L 346.753963 277.936158 
L 390.513478 277.097833 
L 443.567049 276.311456 
L 508.625443 275.578239 
L 589.948435 274.894097 
L 677.467465 274.277245 
L 806.035243 273.708857 
L 975.65177 273.192922 
L 993.078125 273.150103 
L 993.078125 273.150103 
" style="fill:none;stroke:#8085e9;stroke-linecap:square;"/>
   </g>
   <g id="line2d_31">
    <path clip-path="url(#p0fbee8bcd7)" d="M 43.148125 353.2239 
L 44.309882 349.8579 
L 46.246144 344.983711 
L 48.569658 339.785164 
L 51.280424 334.320981 
L 53.991191 329.337174 
L 57.089209 324.101676 
L 60.57448 318.686258 
L 64.059752 313.685615 
L 67.932275 308.537367 
L 71.804798 303.755621 
L 76.064574 298.861253 
L 80.32435 294.302282 
L 84.971378 289.661126 
L 89.618406 285.328682 
L 94.652687 280.937226 
L 100.07422 276.505969 
L 105.495752 272.367902 
L 111.304538 268.236554 
L 117.113323 264.363037 
L 124.083865 260.022673 
L 129.89265 256.639935 
L 136.47594 253.042728 
L 142.671977 249.862384 
L 150.417024 246.112916 
L 158.549324 242.450665 
L 167.068875 238.897461 
L 175.975679 235.422291 
L 185.656988 231.926783 
L 195.725549 228.531816 
L 207.343119 224.935556 
L 219.347942 221.510658 
L 231.352764 218.350701 
L 244.906596 215.049678 
L 258.073176 212.083015 
L 271.239756 209.317551 
L 284.406335 206.78378 
L 299.509177 204.094479 
L 315.773775 201.437332 
L 333.200131 198.821248 
L 351.788243 196.261025 
L 371.538113 193.761729 
L 393.611496 191.201378 
L 417.233889 188.668185 
L 440.46903 186.401377 
L 466.414937 184.122688 
L 494.297106 181.899992 
L 522.953779 179.842669 
L 555.482976 177.729938 
L 590.335687 175.691468 
L 628.286417 173.697636 
L 669.335165 171.766149 
L 714.256437 169.879036 
L 763.050233 168.054984 
L 816.491056 166.283 
L 874.96616 164.56937 
L 939.250049 162.910546 
L 993.078125 161.673206 
L 993.078125 161.673206 
" style="fill:none;stroke:#f15c80;stroke-linecap:square;"/>
   </g>
   <g id="line2d_32">
    <path clip-path="url(#p0fbee8bcd7)" d="M 43.148125 353.2239 
L 44.309882 350.037228 
L 46.246144 345.483228 
L 48.569658 340.65169 
L 51.280424 335.585189 
L 53.991191 330.968439 
L 57.089209 326.119129 
L 60.57448 321.101595 
L 64.059752 316.465752 
L 67.932275 311.689584 
L 71.804798 307.249914 
L 76.064574 302.701099 
L 80.32435 298.459192 
L 84.971378 294.138808 
L 90.005659 289.773092 
L 95.039939 285.695061 
L 100.461472 281.590337 
L 106.270257 277.488345 
L 112.079042 273.646861 
L 118.27508 269.811974 
L 124.471117 266.253354 
L 131.054407 262.707054 
L 138.412202 259.016274 
L 145.769996 255.576158 
L 153.127791 252.373582 
L 161.647342 248.890468 
L 169.779642 245.796909 
L 177.524688 243.051131 
L 189.142259 239.290709 
L 201.534334 235.533568 
L 210.82839 232.947678 
L 223.607717 229.625693 
L 233.676278 227.219907 
L 245.681101 224.56124 
L 259.234933 221.778543 
L 274.337774 218.918787 
L 289.440616 216.280471 
L 305.705214 213.670216 
L 320.808056 211.460737 
L 341.719682 208.636929 
L 361.469552 206.203619 
L 382.381178 203.852768 
L 404.841814 201.552623 
L 428.85146 199.317319 
L 454.410114 197.160191 
L 479.194264 195.284176 
L 509.399947 193.223555 
L 541.929144 191.228652 
L 577.55636 189.27004 
L 615.894342 187.378171 
L 657.717595 185.538669 
L 708.0604 183.560625 
L 758.403204 181.818067 
L 813.78029 180.12744 
L 874.578908 178.496669 
L 941.960816 176.915494 
L 993.078125 175.848149 
L 993.078125 175.848149 
" style="fill:none;stroke:#e4d354;stroke-linecap:square;"/>
   </g>
   <g id="line2d_33">
    <path clip-path="url(#p0fbee8bcd7)" d="M 43.148125 353.2239 
L 44.309882 349.9525 
L 46.246144 345.253584 
L 48.569658 340.261351 
L 51.280424 335.025245 
L 53.991191 330.255615 
L 57.089209 325.249419 
L 60.57448 320.074679 
L 64.059752 315.298891 
L 67.932275 310.384551 
L 71.804798 305.822441 
L 76.064574 301.154398 
L 80.32435 296.808963 
L 84.971378 292.393807 
L 89.618406 288.268984 
L 94.652687 284.081702 
L 99.686967 280.168024 
L 105.1085 276.225727 
L 110.917285 272.277546 
L 117.113323 268.343116 
L 123.30936 264.677959 
L 130.279902 260.845634 
L 136.863192 257.468228 
L 144.608239 253.768321 
L 152.353286 250.325214 
L 160.485585 246.962933 
L 169.392389 243.528146 
L 178.299193 240.332073 
L 187.593249 237.225704 
L 196.887306 234.351911 
L 207.343119 231.332098 
L 217.798932 228.532461 
L 228.641998 225.84261 
L 241.034073 223.01499 
L 253.038895 220.495853 
L 267.754485 217.638129 
L 283.631831 214.797746 
L 299.509177 212.192095 
L 316.935532 209.567003 
L 334.74914 207.124971 
L 353.724505 204.746939 
L 376.572393 202.154944 
L 398.645777 199.892948 
L 422.655422 197.660231 
L 448.601329 195.474709 
L 475.708993 193.415179 
L 507.463686 191.245617 
L 539.992882 189.254005 
L 576.781855 187.231728 
L 615.50709 185.343466 
L 657.717595 183.512222 
L 704.187876 181.722572 
L 754.530681 180.00471 
L 809.907766 178.340146 
L 868.38287 176.803963 
L 936.15203 175.248277 
L 993.078125 174.085725 
L 993.078125 174.085725 
" style="fill:none;stroke:#2b908f;stroke-linecap:square;"/>
   </g>
   <g id="line2d_34">
    <path clip-path="url(#p0fbee8bcd7)" d="M 43.148125 353.2239 
L 44.697134 348.810448 
L 46.633396 344.049763 
L 48.95691 338.997891 
L 51.280424 334.469245 
L 53.991191 329.696973 
L 56.701957 325.368907 
L 59.799976 320.869321 
L 62.897995 316.769004 
L 65.996013 313.008042 
L 69.481284 309.125308 
L 72.966555 305.561756 
L 76.839079 301.926881 
L 80.711602 298.591273 
L 84.971378 295.222067 
L 89.231154 292.130413 
L 93.878182 289.024651 
L 98.52521 286.172016 
L 103.559491 283.320671 
L 108.593771 280.717642 
L 114.015304 278.133708 
L 120.211341 275.443752 
L 127.956388 272.412779 
L 137.250445 269.123289 
L 144.995491 266.676428 
L 153.515043 264.25087 
L 162.034595 262.048749 
L 171.715903 259.786458 
L 181.784464 257.648368 
L 192.62753 255.570947 
L 205.406857 253.382062 
L 217.024427 251.615252 
L 232.127269 249.546098 
L 247.23011 247.726133 
L 265.43097 245.771803 
L 282.857326 244.128267 
L 302.994448 242.456627 
L 326.229589 240.758724 
L 351.013739 239.182749 
L 377.73415 237.709298 
L 408.327085 236.252317 
L 442.405292 234.856695 
L 480.743274 233.514 
L 524.115536 232.223387 
L 573.296584 230.988474 
L 628.286417 229.833253 
L 692.570306 228.709425 
L 766.535504 227.643967 
L 857.927057 226.562547 
L 960.161676 225.585609 
L 993.078125 225.309443 
L 993.078125 225.309443 
" style="fill:none;stroke:#f45b5b;stroke-linecap:square;"/>
   </g>
   <g id="line2d_35">
    <path clip-path="url(#p0fbee8bcd7)" d="M 43.148125 353.2239 
L 44.309882 349.897282 
L 46.246144 345.14546 
L 48.182405 340.954147 
L 50.50592 336.440698 
L 53.216686 331.715571 
L 55.927452 327.450078 
L 59.025471 323.0308 
L 62.12349 319.014515 
L 65.221509 315.337862 
L 68.70678 311.548103 
L 72.192051 308.073471 
L 76.064574 304.534496 
L 79.937098 301.283339 
L 84.196873 297.999535 
L 88.456649 294.984239 
L 93.103677 291.964389 
L 98.52521 288.735469 
L 103.559491 286.002965 
L 108.981023 283.303116 
L 114.789809 280.658812 
L 121.373099 277.919984 
L 127.956388 275.432672 
L 134.926931 273.031051 
L 142.671977 270.604673 
L 150.804277 268.294131 
L 159.323828 266.101012 
L 168.617884 263.931439 
L 178.686445 261.809791 
L 189.142259 259.829215 
L 201.534334 257.705196 
L 215.475418 255.580128 
L 230.191007 253.591036 
L 243.744839 251.964287 
L 260.783942 250.139947 
L 278.210298 248.494373 
L 299.509177 246.724753 
L 321.969813 245.097812 
L 345.979458 243.569709 
L 373.861627 242.01424 
L 402.905553 240.614886 
L 436.983759 239.204943 
L 474.934489 237.859564 
L 517.919499 236.562447 
L 566.326042 235.32297 
L 620.54137 234.160576 
L 684.050754 233.031899 
L 757.241447 231.959249 
L 847.083991 230.877292 
L 947.382348 229.91141 
L 993.078125 229.534587 
L 993.078125 229.534587 
" style="fill:none;stroke:#91e8e1;stroke-linecap:square;"/>
   </g>
   <g id="line2d_36">
    <path clip-path="url(#p0fbee8bcd7)" d="M 43.148125 353.2239 
L 44.309882 349.954798 
L 46.246144 345.303836 
L 48.569658 340.38874 
L 51.280424 335.248563 
L 53.991191 330.573868 
L 57.089209 325.67164 
L 60.57448 320.606628 
L 64.059752 315.932603 
L 67.932275 311.123877 
L 71.804798 306.659382 
L 76.064574 302.091027 
L 80.32435 297.837166 
L 84.971378 293.51502 
L 90.005659 289.159592 
L 95.427191 284.789006 
L 100.461472 281.009043 
L 106.270257 276.937536 
L 112.079042 273.142953 
L 118.27508 269.378603 
L 124.083865 266.084936 
L 133.377921 261.151838 
L 139.573959 258.149666 
L 148.09351 254.289211 
L 155.838557 251.031375 
L 163.583604 248.003281 
L 172.87766 244.589051 
L 183.333474 241.098674 
L 192.62753 238.197088 
L 203.083343 235.184975 
L 215.088166 231.974704 
L 226.318484 229.231731 
L 237.936054 226.635103 
L 253.038895 223.508571 
L 266.205475 221.010833 
L 281.308317 218.391582 
L 297.185663 215.855101 
L 314.224766 213.365488 
L 334.74914 210.613219 
L 354.111757 208.2809 
L 376.959646 205.793186 
L 399.420282 203.551241 
L 422.655422 201.455143 
L 448.601329 199.336589 
L 475.321741 197.374366 
L 505.914676 195.354165 
L 538.831125 193.406178 
L 574.845593 191.501605 
L 613.95808 189.65935 
L 659.653857 187.741612 
L 706.51139 186.007666 
L 758.015952 184.32739 
L 815.329299 182.705856 
L 878.451431 181.146029 
L 948.544105 179.639802 
L 993.078125 178.785691 
L 993.078125 178.785691 
" style="fill:none;stroke:#7cb5ec;stroke-linecap:square;"/>
   </g>
   <g id="line2d_37">
    <path clip-path="url(#p0fbee8bcd7)" d="M 43.148125 353.2239 
L 44.309882 349.97159 
L 46.246144 345.292577 
L 48.569658 340.32141 
L 51.280424 335.107781 
L 53.991191 330.358458 
L 57.089209 325.372804 
L 60.57448 320.217765 
L 64.059752 315.458106 
L 67.932275 310.557648 
L 71.804798 306.005041 
L 76.064574 301.342242 
L 80.32435 296.995671 
L 84.971378 292.567922 
L 90.005659 288.091352 
L 95.039939 283.91494 
L 100.461472 279.704829 
L 105.883005 275.771047 
L 111.69179 271.825739 
L 117.887827 267.921624 
L 125.245622 263.593844 
L 132.216164 259.779832 
L 139.186706 256.208979 
L 146.157249 252.866141 
L 154.6768 249.053936 
L 163.970856 245.169021 
L 172.103156 242.009134 
L 181.397212 238.655214 
L 191.465773 235.308362 
L 201.534334 232.25902 
L 215.475418 228.282667 
L 225.543979 225.614043 
L 237.548802 222.70856 
L 250.328129 219.847355 
L 264.269213 216.963074 
L 278.59755 214.198384 
L 292.538635 211.729695 
L 310.352242 208.825222 
L 327.391346 206.286488 
L 345.979458 203.768978 
L 370.376356 200.719719 
L 389.351721 198.568782 
L 411.812357 196.259453 
L 441.243535 193.529067 
L 467.963946 191.298209 
L 496.62062 189.133105 
L 529.924321 186.851255 
L 563.228023 184.785726 
L 599.242491 182.77701 
L 638.74223 180.821254 
L 681.72724 178.920573 
L 728.584774 177.076151 
L 779.702083 175.290761 
L 835.853673 173.556754 
L 897.426796 171.881973 
L 965.195956 170.264529 
L 993.078125 169.65781 
L 993.078125 169.65781 
" style="fill:none;stroke:#434348;stroke-linecap:square;"/>
   </g>
   <g id="line2d_38">
    <path clip-path="url(#p0fbee8bcd7)" d="M 43.148125 353.2239 
L 44.697134 348.857392 
L 46.633396 344.128695 
L 48.95691 339.056538 
L 51.667677 333.717177 
L 54.378443 328.848021 
L 57.476462 323.737475 
L 60.961733 318.458345 
L 64.447004 313.591375 
L 68.319527 308.589761 
L 72.192051 303.953402 
L 76.451827 299.217355 
L 80.711602 294.811397 
L 85.358631 290.333895 
L 90.005659 286.158434 
L 95.039939 281.934073 
L 100.461472 277.699569 
L 105.883005 273.753071 
L 111.304538 270.05966 
L 117.500575 266.129526 
L 123.30936 262.676314 
L 130.279902 258.804031 
L 136.863192 255.39828 
L 144.220987 251.848224 
L 152.740538 248.06615 
L 162.421847 244.083297 
L 170.166894 241.151107 
L 178.686445 238.164242 
L 188.755006 234.881196 
L 199.598072 231.574684 
L 211.602895 228.21228 
L 223.220465 225.221932 
L 235.225288 222.348726 
L 246.068353 219.965934 
L 259.234933 217.2964 
L 273.176017 214.697174 
L 287.891606 212.178813 
L 303.768953 209.693518 
L 321.58256 207.136917 
L 340.170673 204.688479 
L 359.920542 202.302376 
L 379.670412 200.123864 
L 401.743796 197.915501 
L 426.140693 195.720373 
L 454.022862 193.447459 
L 482.292283 191.36386 
L 512.885218 189.335168 
L 546.18892 187.354202 
L 582.203388 185.438186 
L 621.315875 183.582042 
L 661.977371 181.872357 
L 708.834904 180.136328 
L 763.050233 178.359551 
L 819.976327 176.716854 
L 882.711207 175.132773 
L 952.416629 173.599594 
L 993.078125 172.797657 
L 993.078125 172.797657 
" style="fill:none;stroke:#90ed7d;stroke-linecap:square;"/>
   </g>
   <g id="line2d_39">
    <path clip-path="url(#p0fbee8bcd7)" d="M 43.148125 353.2239 
L 44.309882 349.988368 
L 46.246144 345.354165 
L 48.569658 340.434748 
L 51.280424 335.273213 
L 53.991191 330.566798 
L 57.089209 325.620416 
L 60.57448 320.499259 
L 64.059752 315.764673 
L 67.932275 310.883838 
L 71.804798 306.344259 
L 76.064574 301.690134 
L 80.711602 296.965315 
L 85.358631 292.563338 
L 90.392911 288.113855 
L 95.427191 283.957873 
L 100.461472 280.075449 
L 106.657509 275.629761 
L 110.917285 272.782881 
L 117.500575 268.634773 
L 124.083865 264.732008 
L 128.730893 262.186708 
L 137.637697 257.546331 
L 145.769996 253.649435 
L 153.515043 250.18697 
L 160.872838 247.122495 
L 169.005137 243.953349 
L 177.524688 240.837975 
L 187.205997 237.537261 
L 196.112801 234.721585 
L 206.955867 231.539616 
L 216.249923 229.028168 
L 230.191007 225.503677 
L 240.259568 223.166274 
L 254.200653 220.148077 
L 267.367232 217.556311 
L 282.857326 214.733066 
L 298.34742 212.127794 
L 314.999271 209.556673 
L 333.974635 206.862579 
L 351.788243 204.55977 
L 371.925365 202.19093 
L 393.611496 199.866508 
L 416.459385 197.643911 
L 444.341553 195.21199 
L 476.096246 192.70059 
L 505.527424 190.603648 
L 537.282116 188.565299 
L 568.649556 186.76629 
L 606.213033 184.846188 
L 649.198043 182.8803 
L 693.732063 181.061331 
L 740.976849 179.353254 
L 792.094158 177.728749 
L 850.956515 176.081191 
L 916.014909 174.487213 
L 988.043845 172.949365 
L 993.078125 172.849613 
L 993.078125 172.849613 
" style="fill:none;stroke:#f7a35c;stroke-linecap:square;"/>
   </g>
   <g id="line2d_40">
    <path clip-path="url(#p0fbee8bcd7)" d="M 43.148125 353.2239 
L 129.306497 50.405386 
" style="fill:none;stroke:#000000;stroke-dasharray:3.7,1.6;stroke-dashoffset:0;"/>
   </g>
   <g id="line2d_41">
    <path clip-path="url(#p0fbee8bcd7)" d="M 43.148125 353.2239 
L 993.078125 353.2239 
" style="fill:none;stroke:#dedede;stroke-linecap:square;stroke-width:2;"/>
   </g>
   <g id="text_13">
    <!-- Preseq: Complexity curve -->
    <g transform="translate(415.848125 19.3575)scale(0.16 -0.16)">
     <defs>
      <path d="M 1259 4147 
L 1259 2394 
L 2053 2394 
Q 2494 2394 2734 2622 
Q 2975 2850 2975 3272 
Q 2975 3691 2734 3919 
Q 2494 4147 2053 4147 
L 1259 4147 
z
M 628 4666 
L 2053 4666 
Q 2838 4666 3239 4311 
Q 3641 3956 3641 3272 
Q 3641 2581 3239 2228 
Q 2838 1875 2053 1875 
L 1259 1875 
L 1259 0 
L 628 0 
L 628 4666 
z
" id="DejaVuSans-50" transform="scale(0.015625)"/>
      <path d="M 2631 2963 
Q 2534 3019 2420 3045 
Q 2306 3072 2169 3072 
Q 1681 3072 1420 2755 
Q 1159 2438 1159 1844 
L 1159 0 
L 581 0 
L 581 3500 
L 1159 3500 
L 1159 2956 
Q 1341 3275 1631 3429 
Q 1922 3584 2338 3584 
Q 2397 3584 2469 3576 
Q 2541 3569 2628 3553 
L 2631 2963 
z
" id="DejaVuSans-72" transform="scale(0.015625)"/>
      <path d="M 750 794 
L 1409 794 
L 1409 0 
L 750 0 
L 750 794 
z
M 750 3309 
L 1409 3309 
L 1409 2516 
L 750 2516 
L 750 3309 
z
" id="DejaVuSans-3a" transform="scale(0.015625)"/>
      <path d="M 4122 4306 
L 4122 3641 
Q 3803 3938 3442 4084 
Q 3081 4231 2675 4231 
Q 1875 4231 1450 3742 
Q 1025 3253 1025 2328 
Q 1025 1406 1450 917 
Q 1875 428 2675 428 
Q 3081 428 3442 575 
Q 3803 722 4122 1019 
L 4122 359 
Q 3791 134 3420 21 
Q 3050 -91 2638 -91 
Q 1578 -91 968 557 
Q 359 1206 359 2328 
Q 359 3453 968 4101 
Q 1578 4750 2638 4750 
Q 3056 4750 3426 4639 
Q 3797 4528 4122 4306 
z
" id="DejaVuSans-43" transform="scale(0.015625)"/>
      <path d="M 3513 3500 
L 2247 1797 
L 3578 0 
L 2900 0 
L 1881 1375 
L 863 0 
L 184 0 
L 1544 1831 
L 300 3500 
L 978 3500 
L 1906 2253 
L 2834 3500 
L 3513 3500 
z
" id="DejaVuSans-78" transform="scale(0.015625)"/>
      <path d="M 2059 -325 
Q 1816 -950 1584 -1140 
Q 1353 -1331 966 -1331 
L 506 -1331 
L 506 -850 
L 844 -850 
Q 1081 -850 1212 -737 
Q 1344 -625 1503 -206 
L 1606 56 
L 191 3500 
L 800 3500 
L 1894 763 
L 2988 3500 
L 3597 3500 
L 2059 -325 
z
" id="DejaVuSans-79" transform="scale(0.015625)"/>
      <path d="M 191 3500 
L 800 3500 
L 1894 563 
L 2988 3500 
L 3597 3500 
L 2284 0 
L 1503 0 
L 191 3500 
z
" id="DejaVuSans-76" transform="scale(0.015625)"/>
     </defs>
     <use xlink:href="#DejaVuSans-50"/>
     <use x="58.552734" xlink:href="#DejaVuSans-72"/>
     <use x="97.416016" xlink:href="#DejaVuSans-65"/>
     <use x="158.939453" xlink:href="#DejaVuSans-73"/>
     <use x="211.039062" xlink:href="#DejaVuSans-65"/>
     <use x="272.5625" xlink:href="#DejaVuSans-71"/>
     <use x="336.039062" xlink:href="#DejaVuSans-3a"/>
     <use x="369.730469" xlink:href="#DejaVuSans-20"/>
     <use x="401.517578" xlink:href="#DejaVuSans-43"/>
     <use x="471.341797" xlink:href="#DejaVuSans-6f"/>
     <use x="532.523438" xlink:href="#DejaVuSans-6d"/>
     <use x="629.935547" xlink:href="#DejaVuSans-70"/>
     <use x="693.412109" xlink:href="#DejaVuSans-6c"/>
     <use x="721.195312" xlink:href="#DejaVuSans-65"/>
     <use x="780.96875" xlink:href="#DejaVuSans-78"/>
     <use x="840.148438" xlink:href="#DejaVuSans-69"/>
     <use x="867.931641" xlink:href="#DejaVuSans-74"/>
     <use x="907.140625" xlink:href="#DejaVuSans-79"/>
     <use x="966.320312" xlink:href="#DejaVuSans-20"/>
     <use x="998.107422" xlink:href="#DejaVuSans-63"/>
     <use x="1053.087891" xlink:href="#DejaVuSans-75"/>
     <use x="1116.466797" xlink:href="#DejaVuSans-72"/>
     <use x="1157.580078" xlink:href="#DejaVuSans-76"/>
     <use x="1216.759766" xlink:href="#DejaVuSans-65"/>
    </g>
   </g>
  </g>
 </g>
 <defs>
  <clipPath id="p0fbee8bcd7">
   <rect height="317.968" width="949.93" x="43.148125" y="35.2559"/>
  </clipPath>
 </defs>
</svg>
