<?xml version="1.0" encoding="utf-8" standalone="no"?>
<!DOCTYPE svg PUBLIC "-//W3C//DTD SVG 1.1//EN"
  "http://www.w3.org/Graphics/SVG/1.1/DTD/svg11.dtd">
<svg height="330.541644pt" version="1.1" viewBox="0 0 1000.358125 330.541644" width="1000.358125pt" xmlns="http://www.w3.org/2000/svg" xmlns:xlink="http://www.w3.org/1999/xlink">
 <metadata>
  <rdf:RDF xmlns:cc="http://creativecommons.org/ns#" xmlns:dc="http://purl.org/dc/elements/1.1/" xmlns:rdf="http://www.w3.org/1999/02/22-rdf-syntax-ns#">
   <cc:Work>
    <dc:type rdf:resource="http://purl.org/dc/dcmitype/StillImage"/>
    <dc:date>2022-11-03T13:38:35.993668</dc:date>
    <dc:format>image/svg+xml</dc:format>
    <dc:creator>
     <cc:Agent>
      <dc:title>Matplotlib v3.4.2, https://matplotlib.org/</dc:title>
     </cc:Agent>
    </dc:creator>
   </cc:Work>
  </rdf:RDF>
 </metadata>
 <defs>
  <style type="text/css">*{stroke-linecap:butt;stroke-linejoin:round;}</style>
 </defs>
 <g id="figure_1">
  <g id="axes_1">
   <g id="patch_1">
    <path d="M 32.968125 273.99006 
L 993.158125 273.99006 
L 993.158125 31.48286 
L 32.968125 31.48286 
z
" style="fill:#ffffff;"/>
   </g>
   <g id="patch_2">
    <path clip-path="url(#pc571cf03ff)" d="M 32.968125 -696.03874 
L 959.546458 -696.03874 
L 959.546458 -4576.15394 
L 32.968125 -4576.15394 
z
" style="fill:#e6c3c3;"/>
   </g>
   <g id="patch_3">
    <path clip-path="url(#pc571cf03ff)" d="M 32.968125 31.48286 
L 959.546458 31.48286 
L 959.546458 -696.03874 
L 32.968125 -696.03874 
z
" style="fill:#e6dcc3;"/>
   </g>
   <g id="patch_4">
    <path clip-path="url(#pc571cf03ff)" d="M 32.968125 273.99006 
L 959.546458 273.99006 
L 959.546458 31.48286 
L 32.968125 31.48286 
z
" style="fill:#c3e6c3;"/>
   </g>
   <g id="matplotlib.axis_1">
    <g id="xtick_1">
     <g id="text_1">
      <!-- 0 -->
      <g transform="translate(64.034792 287.06881)scale(0.08 -0.08)">
       <defs>
        <path d="M 2034 4250 
Q 1547 4250 1301 3770 
Q 1056 3291 1056 2328 
Q 1056 1369 1301 889 
Q 1547 409 2034 409 
Q 2525 409 2770 889 
Q 3016 1369 3016 2328 
Q 3016 3291 2770 3770 
Q 2525 4250 2034 4250 
z
M 2034 4750 
Q 2819 4750 3233 4129 
Q 3647 3509 3647 2328 
Q 3647 1150 3233 529 
Q 2819 -91 2034 -91 
Q 1250 -91 836 529 
Q 422 1150 422 2328 
Q 422 3509 836 4129 
Q 1250 4750 2034 4750 
z
" id="DejaVuSans-30" transform="scale(0.015625)"/>
       </defs>
       <use xlink:href="#DejaVuSans-30"/>
      </g>
     </g>
    </g>
    <g id="xtick_2">
     <g id="text_2">
      <!-- 20 -->
      <g transform="translate(262.156458 287.06881)scale(0.08 -0.08)">
       <defs>
        <path d="M 1228 531 
L 3431 531 
L 3431 0 
L 469 0 
L 469 531 
Q 828 903 1448 1529 
Q 2069 2156 2228 2338 
Q 2531 2678 2651 2914 
Q 2772 3150 2772 3378 
Q 2772 3750 2511 3984 
Q 2250 4219 1831 4219 
Q 1534 4219 1204 4116 
Q 875 4013 500 3803 
L 500 4441 
Q 881 4594 1212 4672 
Q 1544 4750 1819 4750 
Q 2544 4750 2975 4387 
Q 3406 4025 3406 3419 
Q 3406 3131 3298 2873 
Q 3191 2616 2906 2266 
Q 2828 2175 2409 1742 
Q 1991 1309 1228 531 
z
" id="DejaVuSans-32" transform="scale(0.015625)"/>
       </defs>
       <use xlink:href="#DejaVuSans-32"/>
       <use x="63.623047" xlink:href="#DejaVuSans-30"/>
      </g>
     </g>
    </g>
    <g id="xtick_3">
     <g id="text_3">
      <!-- 40 -->
      <g transform="translate(462.823125 287.06881)scale(0.08 -0.08)">
       <defs>
        <path d="M 2419 4116 
L 825 1625 
L 2419 1625 
L 2419 4116 
z
M 2253 4666 
L 3047 4666 
L 3047 1625 
L 3713 1625 
L 3713 1100 
L 3047 1100 
L 3047 0 
L 2419 0 
L 2419 1100 
L 313 1100 
L 313 1709 
L 2253 4666 
z
" id="DejaVuSans-34" transform="scale(0.015625)"/>
       </defs>
       <use xlink:href="#DejaVuSans-34"/>
       <use x="63.623047" xlink:href="#DejaVuSans-30"/>
      </g>
     </g>
    </g>
    <g id="xtick_4">
     <g id="text_4">
      <!-- 60 -->
      <g transform="translate(663.489792 287.06881)scale(0.08 -0.08)">
       <defs>
        <path d="M 2113 2584 
Q 1688 2584 1439 2293 
Q 1191 2003 1191 1497 
Q 1191 994 1439 701 
Q 1688 409 2113 409 
Q 2538 409 2786 701 
Q 3034 994 3034 1497 
Q 3034 2003 2786 2293 
Q 2538 2584 2113 2584 
z
M 3366 4563 
L 3366 3988 
Q 3128 4100 2886 4159 
Q 2644 4219 2406 4219 
Q 1781 4219 1451 3797 
Q 1122 3375 1075 2522 
Q 1259 2794 1537 2939 
Q 1816 3084 2150 3084 
Q 2853 3084 3261 2657 
Q 3669 2231 3669 1497 
Q 3669 778 3244 343 
Q 2819 -91 2113 -91 
Q 1303 -91 875 529 
Q 447 1150 447 2328 
Q 447 3434 972 4092 
Q 1497 4750 2381 4750 
Q 2619 4750 2861 4703 
Q 3103 4656 3366 4563 
z
" id="DejaVuSans-36" transform="scale(0.015625)"/>
       </defs>
       <use xlink:href="#DejaVuSans-36"/>
       <use x="63.623047" xlink:href="#DejaVuSans-30"/>
      </g>
     </g>
    </g>
    <g id="xtick_5">
     <g id="text_5">
      <!-- 80 -->
      <g transform="translate(864.156458 287.06881)scale(0.08 -0.08)">
       <defs>
        <path d="M 2034 2216 
Q 1584 2216 1326 1975 
Q 1069 1734 1069 1313 
Q 1069 891 1326 650 
Q 1584 409 2034 409 
Q 2484 409 2743 651 
Q 3003 894 3003 1313 
Q 3003 1734 2745 1975 
Q 2488 2216 2034 2216 
z
M 1403 2484 
Q 997 2584 770 2862 
Q 544 3141 544 3541 
Q 544 4100 942 4425 
Q 1341 4750 2034 4750 
Q 2731 4750 3128 4425 
Q 3525 4100 3525 3541 
Q 3525 3141 3298 2862 
Q 3072 2584 2669 2484 
Q 3125 2378 3379 2068 
Q 3634 1759 3634 1313 
Q 3634 634 3220 271 
Q 2806 -91 2034 -91 
Q 1263 -91 848 271 
Q 434 634 434 1313 
Q 434 1759 690 2068 
Q 947 2378 1403 2484 
z
M 1172 3481 
Q 1172 3119 1398 2916 
Q 1625 2713 2034 2713 
Q 2441 2713 2670 2916 
Q 2900 3119 2900 3481 
Q 2900 3844 2670 4047 
Q 2441 4250 2034 4250 
Q 1625 4250 1398 4047 
Q 1172 3844 1172 3481 
z
" id="DejaVuSans-38" transform="scale(0.015625)"/>
       </defs>
       <use xlink:href="#DejaVuSans-38"/>
       <use x="63.623047" xlink:href="#DejaVuSans-30"/>
      </g>
     </g>
    </g>
    <g id="text_6">
     <!-- Position (bp) -->
     <g transform="translate(481.76 300.330997)scale(0.1 -0.1)">
      <defs>
       <path d="M 1259 4147 
L 1259 2394 
L 2053 2394 
Q 2494 2394 2734 2622 
Q 2975 2850 2975 3272 
Q 2975 3691 2734 3919 
Q 2494 4147 2053 4147 
L 1259 4147 
z
M 628 4666 
L 2053 4666 
Q 2838 4666 3239 4311 
Q 3641 3956 3641 3272 
Q 3641 2581 3239 2228 
Q 2838 1875 2053 1875 
L 1259 1875 
L 1259 0 
L 628 0 
L 628 4666 
z
" id="DejaVuSans-50" transform="scale(0.015625)"/>
       <path d="M 1959 3097 
Q 1497 3097 1228 2736 
Q 959 2375 959 1747 
Q 959 1119 1226 758 
Q 1494 397 1959 397 
Q 2419 397 2687 759 
Q 2956 1122 2956 1747 
Q 2956 2369 2687 2733 
Q 2419 3097 1959 3097 
z
M 1959 3584 
Q 2709 3584 3137 3096 
Q 3566 2609 3566 1747 
Q 3566 888 3137 398 
Q 2709 -91 1959 -91 
Q 1206 -91 779 398 
Q 353 888 353 1747 
Q 353 2609 779 3096 
Q 1206 3584 1959 3584 
z
" id="DejaVuSans-6f" transform="scale(0.015625)"/>
       <path d="M 2834 3397 
L 2834 2853 
Q 2591 2978 2328 3040 
Q 2066 3103 1784 3103 
Q 1356 3103 1142 2972 
Q 928 2841 928 2578 
Q 928 2378 1081 2264 
Q 1234 2150 1697 2047 
L 1894 2003 
Q 2506 1872 2764 1633 
Q 3022 1394 3022 966 
Q 3022 478 2636 193 
Q 2250 -91 1575 -91 
Q 1294 -91 989 -36 
Q 684 19 347 128 
L 347 722 
Q 666 556 975 473 
Q 1284 391 1588 391 
Q 1994 391 2212 530 
Q 2431 669 2431 922 
Q 2431 1156 2273 1281 
Q 2116 1406 1581 1522 
L 1381 1569 
Q 847 1681 609 1914 
Q 372 2147 372 2553 
Q 372 3047 722 3315 
Q 1072 3584 1716 3584 
Q 2034 3584 2315 3537 
Q 2597 3491 2834 3397 
z
" id="DejaVuSans-73" transform="scale(0.015625)"/>
       <path d="M 603 3500 
L 1178 3500 
L 1178 0 
L 603 0 
L 603 3500 
z
M 603 4863 
L 1178 4863 
L 1178 4134 
L 603 4134 
L 603 4863 
z
" id="DejaVuSans-69" transform="scale(0.015625)"/>
       <path d="M 1172 4494 
L 1172 3500 
L 2356 3500 
L 2356 3053 
L 1172 3053 
L 1172 1153 
Q 1172 725 1289 603 
Q 1406 481 1766 481 
L 2356 481 
L 2356 0 
L 1766 0 
Q 1100 0 847 248 
Q 594 497 594 1153 
L 594 3053 
L 172 3053 
L 172 3500 
L 594 3500 
L 594 4494 
L 1172 4494 
z
" id="DejaVuSans-74" transform="scale(0.015625)"/>
       <path d="M 3513 2113 
L 3513 0 
L 2938 0 
L 2938 2094 
Q 2938 2591 2744 2837 
Q 2550 3084 2163 3084 
Q 1697 3084 1428 2787 
Q 1159 2491 1159 1978 
L 1159 0 
L 581 0 
L 581 3500 
L 1159 3500 
L 1159 2956 
Q 1366 3272 1645 3428 
Q 1925 3584 2291 3584 
Q 2894 3584 3203 3211 
Q 3513 2838 3513 2113 
z
" id="DejaVuSans-6e" transform="scale(0.015625)"/>
       <path id="DejaVuSans-20" transform="scale(0.015625)"/>
       <path d="M 1984 4856 
Q 1566 4138 1362 3434 
Q 1159 2731 1159 2009 
Q 1159 1288 1364 580 
Q 1569 -128 1984 -844 
L 1484 -844 
Q 1016 -109 783 600 
Q 550 1309 550 2009 
Q 550 2706 781 3412 
Q 1013 4119 1484 4856 
L 1984 4856 
z
" id="DejaVuSans-28" transform="scale(0.015625)"/>
       <path d="M 3116 1747 
Q 3116 2381 2855 2742 
Q 2594 3103 2138 3103 
Q 1681 3103 1420 2742 
Q 1159 2381 1159 1747 
Q 1159 1113 1420 752 
Q 1681 391 2138 391 
Q 2594 391 2855 752 
Q 3116 1113 3116 1747 
z
M 1159 2969 
Q 1341 3281 1617 3432 
Q 1894 3584 2278 3584 
Q 2916 3584 3314 3078 
Q 3713 2572 3713 1747 
Q 3713 922 3314 415 
Q 2916 -91 2278 -91 
Q 1894 -91 1617 61 
Q 1341 213 1159 525 
L 1159 0 
L 581 0 
L 581 4863 
L 1159 4863 
L 1159 2969 
z
" id="DejaVuSans-62" transform="scale(0.015625)"/>
       <path d="M 1159 525 
L 1159 -1331 
L 581 -1331 
L 581 3500 
L 1159 3500 
L 1159 2969 
Q 1341 3281 1617 3432 
Q 1894 3584 2278 3584 
Q 2916 3584 3314 3078 
Q 3713 2572 3713 1747 
Q 3713 922 3314 415 
Q 2916 -91 2278 -91 
Q 1894 -91 1617 61 
Q 1341 213 1159 525 
z
M 3116 1747 
Q 3116 2381 2855 2742 
Q 2594 3103 2138 3103 
Q 1681 3103 1420 2742 
Q 1159 2381 1159 1747 
Q 1159 1113 1420 752 
Q 1681 391 2138 391 
Q 2594 391 2855 752 
Q 3116 1113 3116 1747 
z
" id="DejaVuSans-70" transform="scale(0.015625)"/>
       <path d="M 513 4856 
L 1013 4856 
Q 1481 4119 1714 3412 
Q 1947 2706 1947 2009 
Q 1947 1309 1714 600 
Q 1481 -109 1013 -844 
L 513 -844 
Q 928 -128 1133 580 
Q 1338 1288 1338 2009 
Q 1338 2731 1133 3434 
Q 928 4138 513 4856 
z
" id="DejaVuSans-29" transform="scale(0.015625)"/>
      </defs>
      <use xlink:href="#DejaVuSans-50"/>
      <use x="56.677734" xlink:href="#DejaVuSans-6f"/>
      <use x="117.859375" xlink:href="#DejaVuSans-73"/>
      <use x="169.958984" xlink:href="#DejaVuSans-69"/>
      <use x="197.742188" xlink:href="#DejaVuSans-74"/>
      <use x="236.951172" xlink:href="#DejaVuSans-69"/>
      <use x="264.734375" xlink:href="#DejaVuSans-6f"/>
      <use x="325.916016" xlink:href="#DejaVuSans-6e"/>
      <use x="389.294922" xlink:href="#DejaVuSans-20"/>
      <use x="421.082031" xlink:href="#DejaVuSans-28"/>
      <use x="460.095703" xlink:href="#DejaVuSans-62"/>
      <use x="523.572266" xlink:href="#DejaVuSans-70"/>
      <use x="587.048828" xlink:href="#DejaVuSans-29"/>
     </g>
    </g>
   </g>
   <g id="matplotlib.axis_2">
    <g id="ytick_1">
     <g id="line2d_1">
      <path clip-path="url(#pc571cf03ff)" d="M 32.968125 273.99006 
L 993.158125 273.99006 
" style="fill:none;stroke:#dedede;stroke-linecap:square;"/>
     </g>
     <g id="text_7">
      <!-- 0 -->
      <g transform="translate(20.878125 277.029435)scale(0.08 -0.08)">
       <use xlink:href="#DejaVuSans-30"/>
      </g>
     </g>
    </g>
    <g id="ytick_2">
     <g id="line2d_2">
      <path clip-path="url(#pc571cf03ff)" d="M 32.968125 225.48862 
L 993.158125 225.48862 
" style="fill:none;stroke:#dedede;stroke-linecap:square;"/>
     </g>
     <g id="text_8">
      <!-- 1 -->
      <g transform="translate(20.878125 228.527995)scale(0.08 -0.08)">
       <defs>
        <path d="M 794 531 
L 1825 531 
L 1825 4091 
L 703 3866 
L 703 4441 
L 1819 4666 
L 2450 4666 
L 2450 531 
L 3481 531 
L 3481 0 
L 794 0 
L 794 531 
z
" id="DejaVuSans-31" transform="scale(0.015625)"/>
       </defs>
       <use xlink:href="#DejaVuSans-31"/>
      </g>
     </g>
    </g>
    <g id="ytick_3">
     <g id="line2d_3">
      <path clip-path="url(#pc571cf03ff)" d="M 32.968125 176.98718 
L 993.158125 176.98718 
" style="fill:none;stroke:#dedede;stroke-linecap:square;"/>
     </g>
     <g id="text_9">
      <!-- 2 -->
      <g transform="translate(20.878125 180.026555)scale(0.08 -0.08)">
       <use xlink:href="#DejaVuSans-32"/>
      </g>
     </g>
    </g>
    <g id="ytick_4">
     <g id="line2d_4">
      <path clip-path="url(#pc571cf03ff)" d="M 32.968125 128.48574 
L 993.158125 128.48574 
" style="fill:none;stroke:#dedede;stroke-linecap:square;"/>
     </g>
     <g id="text_10">
      <!-- 3 -->
      <g transform="translate(20.878125 131.525115)scale(0.08 -0.08)">
       <defs>
        <path d="M 2597 2516 
Q 3050 2419 3304 2112 
Q 3559 1806 3559 1356 
Q 3559 666 3084 287 
Q 2609 -91 1734 -91 
Q 1441 -91 1130 -33 
Q 819 25 488 141 
L 488 750 
Q 750 597 1062 519 
Q 1375 441 1716 441 
Q 2309 441 2620 675 
Q 2931 909 2931 1356 
Q 2931 1769 2642 2001 
Q 2353 2234 1838 2234 
L 1294 2234 
L 1294 2753 
L 1863 2753 
Q 2328 2753 2575 2939 
Q 2822 3125 2822 3475 
Q 2822 3834 2567 4026 
Q 2313 4219 1838 4219 
Q 1578 4219 1281 4162 
Q 984 4106 628 3988 
L 628 4550 
Q 988 4650 1302 4700 
Q 1616 4750 1894 4750 
Q 2613 4750 3031 4423 
Q 3450 4097 3450 3541 
Q 3450 3153 3228 2886 
Q 3006 2619 2597 2516 
z
" id="DejaVuSans-33" transform="scale(0.015625)"/>
       </defs>
       <use xlink:href="#DejaVuSans-33"/>
      </g>
     </g>
    </g>
    <g id="ytick_5">
     <g id="line2d_5">
      <path clip-path="url(#pc571cf03ff)" d="M 32.968125 79.9843 
L 993.158125 79.9843 
" style="fill:none;stroke:#dedede;stroke-linecap:square;"/>
     </g>
     <g id="text_11">
      <!-- 4 -->
      <g transform="translate(20.878125 83.023675)scale(0.08 -0.08)">
       <use xlink:href="#DejaVuSans-34"/>
      </g>
     </g>
    </g>
    <g id="ytick_6">
     <g id="line2d_6">
      <path clip-path="url(#pc571cf03ff)" d="M 32.968125 31.48286 
L 993.158125 31.48286 
" style="fill:none;stroke:#dedede;stroke-linecap:square;"/>
     </g>
     <g id="text_12">
      <!-- 5 -->
      <g transform="translate(20.878125 34.522235)scale(0.08 -0.08)">
       <defs>
        <path d="M 691 4666 
L 3169 4666 
L 3169 4134 
L 1269 4134 
L 1269 2991 
Q 1406 3038 1543 3061 
Q 1681 3084 1819 3084 
Q 2600 3084 3056 2656 
Q 3513 2228 3513 1497 
Q 3513 744 3044 326 
Q 2575 -91 1722 -91 
Q 1428 -91 1123 -41 
Q 819 9 494 109 
L 494 744 
Q 775 591 1075 516 
Q 1375 441 1709 441 
Q 2250 441 2565 725 
Q 2881 1009 2881 1497 
Q 2881 1984 2565 2268 
Q 2250 2553 1709 2553 
Q 1456 2553 1204 2497 
Q 953 2441 691 2322 
L 691 4666 
z
" id="DejaVuSans-35" transform="scale(0.015625)"/>
       </defs>
       <use xlink:href="#DejaVuSans-35"/>
      </g>
     </g>
    </g>
    <g id="text_13">
     <!-- % of Sequences -->
     <g transform="translate(14.798437 192.754429)rotate(-90)scale(0.1 -0.1)">
      <defs>
       <path d="M 4653 2053 
Q 4381 2053 4226 1822 
Q 4072 1591 4072 1178 
Q 4072 772 4226 539 
Q 4381 306 4653 306 
Q 4919 306 5073 539 
Q 5228 772 5228 1178 
Q 5228 1588 5073 1820 
Q 4919 2053 4653 2053 
z
M 4653 2450 
Q 5147 2450 5437 2106 
Q 5728 1763 5728 1178 
Q 5728 594 5436 251 
Q 5144 -91 4653 -91 
Q 4153 -91 3862 251 
Q 3572 594 3572 1178 
Q 3572 1766 3864 2108 
Q 4156 2450 4653 2450 
z
M 1428 4353 
Q 1159 4353 1004 4120 
Q 850 3888 850 3481 
Q 850 3069 1003 2837 
Q 1156 2606 1428 2606 
Q 1700 2606 1854 2837 
Q 2009 3069 2009 3481 
Q 2009 3884 1853 4118 
Q 1697 4353 1428 4353 
z
M 4250 4750 
L 4750 4750 
L 1831 -91 
L 1331 -91 
L 4250 4750 
z
M 1428 4750 
Q 1922 4750 2215 4408 
Q 2509 4066 2509 3481 
Q 2509 2891 2217 2550 
Q 1925 2209 1428 2209 
Q 931 2209 642 2551 
Q 353 2894 353 3481 
Q 353 4063 643 4406 
Q 934 4750 1428 4750 
z
" id="DejaVuSans-25" transform="scale(0.015625)"/>
       <path d="M 2375 4863 
L 2375 4384 
L 1825 4384 
Q 1516 4384 1395 4259 
Q 1275 4134 1275 3809 
L 1275 3500 
L 2222 3500 
L 2222 3053 
L 1275 3053 
L 1275 0 
L 697 0 
L 697 3053 
L 147 3053 
L 147 3500 
L 697 3500 
L 697 3744 
Q 697 4328 969 4595 
Q 1241 4863 1831 4863 
L 2375 4863 
z
" id="DejaVuSans-66" transform="scale(0.015625)"/>
       <path d="M 3425 4513 
L 3425 3897 
Q 3066 4069 2747 4153 
Q 2428 4238 2131 4238 
Q 1616 4238 1336 4038 
Q 1056 3838 1056 3469 
Q 1056 3159 1242 3001 
Q 1428 2844 1947 2747 
L 2328 2669 
Q 3034 2534 3370 2195 
Q 3706 1856 3706 1288 
Q 3706 609 3251 259 
Q 2797 -91 1919 -91 
Q 1588 -91 1214 -16 
Q 841 59 441 206 
L 441 856 
Q 825 641 1194 531 
Q 1563 422 1919 422 
Q 2459 422 2753 634 
Q 3047 847 3047 1241 
Q 3047 1584 2836 1778 
Q 2625 1972 2144 2069 
L 1759 2144 
Q 1053 2284 737 2584 
Q 422 2884 422 3419 
Q 422 4038 858 4394 
Q 1294 4750 2059 4750 
Q 2388 4750 2728 4690 
Q 3069 4631 3425 4513 
z
" id="DejaVuSans-53" transform="scale(0.015625)"/>
       <path d="M 3597 1894 
L 3597 1613 
L 953 1613 
Q 991 1019 1311 708 
Q 1631 397 2203 397 
Q 2534 397 2845 478 
Q 3156 559 3463 722 
L 3463 178 
Q 3153 47 2828 -22 
Q 2503 -91 2169 -91 
Q 1331 -91 842 396 
Q 353 884 353 1716 
Q 353 2575 817 3079 
Q 1281 3584 2069 3584 
Q 2775 3584 3186 3129 
Q 3597 2675 3597 1894 
z
M 3022 2063 
Q 3016 2534 2758 2815 
Q 2500 3097 2075 3097 
Q 1594 3097 1305 2825 
Q 1016 2553 972 2059 
L 3022 2063 
z
" id="DejaVuSans-65" transform="scale(0.015625)"/>
       <path d="M 947 1747 
Q 947 1113 1208 752 
Q 1469 391 1925 391 
Q 2381 391 2643 752 
Q 2906 1113 2906 1747 
Q 2906 2381 2643 2742 
Q 2381 3103 1925 3103 
Q 1469 3103 1208 2742 
Q 947 2381 947 1747 
z
M 2906 525 
Q 2725 213 2448 61 
Q 2172 -91 1784 -91 
Q 1150 -91 751 415 
Q 353 922 353 1747 
Q 353 2572 751 3078 
Q 1150 3584 1784 3584 
Q 2172 3584 2448 3432 
Q 2725 3281 2906 2969 
L 2906 3500 
L 3481 3500 
L 3481 -1331 
L 2906 -1331 
L 2906 525 
z
" id="DejaVuSans-71" transform="scale(0.015625)"/>
       <path d="M 544 1381 
L 544 3500 
L 1119 3500 
L 1119 1403 
Q 1119 906 1312 657 
Q 1506 409 1894 409 
Q 2359 409 2629 706 
Q 2900 1003 2900 1516 
L 2900 3500 
L 3475 3500 
L 3475 0 
L 2900 0 
L 2900 538 
Q 2691 219 2414 64 
Q 2138 -91 1772 -91 
Q 1169 -91 856 284 
Q 544 659 544 1381 
z
M 1991 3584 
L 1991 3584 
z
" id="DejaVuSans-75" transform="scale(0.015625)"/>
       <path d="M 3122 3366 
L 3122 2828 
Q 2878 2963 2633 3030 
Q 2388 3097 2138 3097 
Q 1578 3097 1268 2742 
Q 959 2388 959 1747 
Q 959 1106 1268 751 
Q 1578 397 2138 397 
Q 2388 397 2633 464 
Q 2878 531 3122 666 
L 3122 134 
Q 2881 22 2623 -34 
Q 2366 -91 2075 -91 
Q 1284 -91 818 406 
Q 353 903 353 1747 
Q 353 2603 823 3093 
Q 1294 3584 2113 3584 
Q 2378 3584 2631 3529 
Q 2884 3475 3122 3366 
z
" id="DejaVuSans-63" transform="scale(0.015625)"/>
      </defs>
      <use xlink:href="#DejaVuSans-25"/>
      <use x="95.019531" xlink:href="#DejaVuSans-20"/>
      <use x="126.806641" xlink:href="#DejaVuSans-6f"/>
      <use x="187.988281" xlink:href="#DejaVuSans-66"/>
      <use x="223.193359" xlink:href="#DejaVuSans-20"/>
      <use x="254.980469" xlink:href="#DejaVuSans-53"/>
      <use x="318.457031" xlink:href="#DejaVuSans-65"/>
      <use x="379.980469" xlink:href="#DejaVuSans-71"/>
      <use x="443.457031" xlink:href="#DejaVuSans-75"/>
      <use x="506.835938" xlink:href="#DejaVuSans-65"/>
      <use x="568.359375" xlink:href="#DejaVuSans-6e"/>
      <use x="631.738281" xlink:href="#DejaVuSans-63"/>
      <use x="686.71875" xlink:href="#DejaVuSans-65"/>
      <use x="748.242188" xlink:href="#DejaVuSans-73"/>
     </g>
    </g>
   </g>
   <g id="line2d_7">
    <path clip-path="url(#pc571cf03ff)" d="M 76.613125 273.920063 
L 86.646458 273.917726 
L 96.679792 273.917111 
L 106.713125 273.915758 
L 116.746458 273.91502 
L 126.779792 273.913913 
L 136.813125 273.912682 
L 146.846458 273.911206 
L 156.879792 273.909976 
L 166.913125 273.906716 
L 186.979792 273.904686 
L 207.046458 273.901242 
L 227.113125 273.89626 
L 247.179792 273.887894 
L 267.246458 273.873501 
L 287.313125 273.862738 
L 307.379792 273.845577 
L 327.446458 273.821527 
L 347.513125 273.793664 
L 367.579792 273.766538 
L 387.646458 273.738736 
L 407.713125 273.709397 
L 427.779792 273.677843 
L 447.846458 273.644875 
L 467.913125 273.615351 
L 487.979792 273.581336 
L 508.046458 273.548122 
L 528.113125 273.511463 
L 548.179792 273.470867 
L 568.246458 273.424305 
L 588.313125 273.365503 
L 608.379792 273.308177 
L 628.446458 273.246177 
L 648.513125 273.17249 
L 668.579792 273.075306 
L 688.646458 272.919198 
L 708.713125 272.779389 
L 728.779792 272.622297 
L 748.846458 272.46139 
L 768.913125 272.267393 
L 788.979792 272.021482 
L 809.046458 271.731716 
L 829.113125 271.430632 
L 849.179792 271.099716 
L 869.246458 270.708953 
L 889.313125 270.192098 
L 909.379792 269.604753 
L 929.446458 268.93302 
L 949.513125 268.188029 
" style="fill:none;stroke:#7cb5ec;stroke-linecap:square;"/>
   </g>
   <g id="line2d_8">
    <path clip-path="url(#pc571cf03ff)" d="M 76.613125 273.627819 
L 86.646458 273.623782 
L 96.679792 273.623293 
L 106.713125 273.622436 
L 116.746458 273.621091 
L 126.779792 273.61999 
L 136.813125 273.618522 
L 146.846458 273.615708 
L 156.879792 273.615096 
L 166.913125 273.609958 
L 186.979792 273.605982 
L 207.046458 273.602495 
L 227.113125 273.597663 
L 247.179792 273.590568 
L 267.246458 273.573685 
L 287.313125 273.559249 
L 307.379792 273.544691 
L 327.446458 273.521447 
L 347.513125 273.493982 
L 367.579792 273.465049 
L 387.646458 273.43575 
L 407.713125 273.407367 
L 427.779792 273.378373 
L 447.846458 273.35152 
L 467.913125 273.316654 
L 487.979792 273.276895 
L 508.046458 273.237563 
L 528.113125 273.200067 
L 548.179792 273.152172 
L 568.246458 273.08666 
L 588.313125 273.006713 
L 608.379792 272.922728 
L 628.446458 272.834339 
L 648.513125 272.708393 
L 668.579792 272.543116 
L 688.646458 272.072973 
L 708.713125 271.857293 
L 728.779792 271.600445 
L 748.846458 271.371919 
L 768.913125 271.105713 
L 788.979792 270.773751 
L 809.046458 270.383312 
L 829.113125 269.983207 
L 849.179792 269.55362 
L 869.246458 269.051425 
L 889.313125 268.404689 
L 909.379792 267.657575 
L 929.446458 266.849354 
L 949.513125 265.993788 
" style="fill:none;stroke:#434348;stroke-linecap:square;"/>
   </g>
   <g id="line2d_9">
    <path clip-path="url(#pc571cf03ff)" d="M 76.613125 273.768011 
L 86.646458 273.766734 
L 96.679792 273.766618 
L 106.713125 273.765109 
L 116.746458 273.761975 
L 126.779792 273.759654 
L 136.813125 273.755939 
L 146.846458 273.749555 
L 156.879792 273.747001 
L 166.913125 273.739225 
L 186.979792 273.723845 
L 207.046458 273.718157 
L 227.113125 273.711251 
L 247.179792 273.702371 
L 267.246458 273.678228 
L 287.313125 273.663719 
L 307.379792 273.646075 
L 327.446458 273.624079 
L 347.513125 273.602257 
L 367.579792 273.576953 
L 387.646458 273.548399 
L 407.713125 273.524546 
L 427.779792 273.495702 
L 447.846458 273.463375 
L 467.913125 273.429714 
L 487.979792 273.391409 
L 508.046458 273.351538 
L 528.113125 273.312827 
L 548.179792 273.267791 
L 568.246458 273.217473 
L 588.313125 273.154213 
L 608.379792 273.079983 
L 628.446458 272.998267 
L 648.513125 272.89856 
L 668.579792 272.754629 
L 688.646458 272.498628 
L 708.713125 272.299968 
L 728.779792 272.089236 
L 748.846458 271.880129 
L 768.913125 271.644151 
L 788.979792 271.336961 
L 809.046458 270.966512 
L 829.113125 270.572209 
L 849.179792 270.163339 
L 869.246458 269.664976 
L 889.313125 269.017343 
L 909.379792 268.276908 
L 929.446458 267.463405 
L 949.513125 266.580083 
" style="fill:none;stroke:#90ed7d;stroke-linecap:square;"/>
   </g>
   <g id="line2d_10">
    <path clip-path="url(#pc571cf03ff)" d="M 76.613125 273.77306 
L 86.646458 273.77186 
L 96.679792 273.771306 
L 106.713125 273.77066 
L 116.746458 273.769921 
L 126.779792 273.769551 
L 136.813125 273.767705 
L 146.846458 273.765858 
L 156.879792 273.765488 
L 166.913125 273.762349 
L 186.979792 273.759763 
L 207.046458 273.755931 
L 227.113125 273.752376 
L 247.179792 273.746559 
L 267.246458 273.735709 
L 287.313125 273.724766 
L 307.379792 273.711746 
L 327.446458 273.692863 
L 347.513125 273.670978 
L 367.579792 273.648863 
L 387.646458 273.629056 
L 407.713125 273.60754 
L 427.779792 273.583301 
L 447.846458 273.557123 
L 467.913125 273.52425 
L 487.979792 273.487775 
L 508.046458 273.451024 
L 528.113125 273.414919 
L 548.179792 273.370134 
L 568.246458 273.314175 
L 588.313125 273.24649 
L 608.379792 273.170632 
L 628.446458 273.087572 
L 648.513125 272.982581 
L 668.579792 272.845272 
L 688.646458 272.535839 
L 708.713125 272.3362 
L 728.779792 272.113383 
L 748.846458 271.901692 
L 768.913125 271.636907 
L 788.979792 271.31053 
L 809.046458 270.918269 
L 829.113125 270.513033 
L 849.179792 270.077141 
L 869.246458 269.553987 
L 889.313125 268.887706 
L 909.379792 268.105076 
L 929.446458 267.244603 
L 949.513125 266.303056 
" style="fill:none;stroke:#f7a35c;stroke-linecap:square;"/>
   </g>
   <g id="line2d_11">
    <path clip-path="url(#pc571cf03ff)" d="M 76.613125 273.949894 
L 86.646458 273.949156 
L 96.679792 273.948313 
L 106.713125 273.947048 
L 116.746458 273.94631 
L 126.779792 273.946204 
L 136.813125 273.944518 
L 146.846458 273.941987 
L 156.879792 273.941039 
L 166.913125 273.936242 
L 186.979792 273.930444 
L 207.046458 273.923697 
L 227.113125 273.916212 
L 247.179792 273.90393 
L 267.246458 273.886535 
L 287.313125 273.869035 
L 307.379792 273.846685 
L 327.446458 273.817062 
L 347.513125 273.783221 
L 367.579792 273.751278 
L 387.646458 273.717648 
L 407.713125 273.681014 
L 427.779792 273.644643 
L 447.846458 273.607377 
L 467.913125 273.561623 
L 487.979792 273.510072 
L 508.046458 273.458467 
L 528.113125 273.408813 
L 548.179792 273.346245 
L 568.246458 273.267442 
L 588.313125 273.167185 
L 608.379792 273.066717 
L 628.446458 272.957974 
L 648.513125 272.817815 
L 668.579792 272.633431 
L 688.646458 272.386848 
L 708.713125 272.12967 
L 728.779792 271.848877 
L 748.846458 271.541571 
L 768.913125 271.184031 
L 788.979792 270.738568 
L 809.046458 270.202811 
L 829.113125 269.635006 
L 849.179792 269.016861 
L 869.246458 268.25861 
L 889.313125 267.323092 
L 909.379792 266.194123 
L 929.446458 264.953669 
L 949.513125 263.613118 
" style="fill:none;stroke:#8085e9;stroke-linecap:square;"/>
   </g>
   <g id="line2d_12">
    <path clip-path="url(#pc571cf03ff)" d="M 76.613125 273.910073 
L 86.646458 273.909141 
L 96.679792 273.908861 
L 106.713125 273.907836 
L 116.746458 273.906624 
L 126.779792 273.906251 
L 136.813125 273.90476 
L 146.846458 273.90159 
L 156.879792 273.899259 
L 166.913125 273.897395 
L 186.979792 273.894598 
L 207.046458 273.890962 
L 227.113125 273.885835 
L 247.179792 273.876652 
L 267.246458 273.864114 
L 287.313125 273.851389 
L 307.379792 273.835028 
L 327.446458 273.810463 
L 347.513125 273.783894 
L 367.579792 273.760495 
L 387.646458 273.731642 
L 407.713125 273.701857 
L 427.779792 273.669834 
L 447.846458 273.642379 
L 467.913125 273.615997 
L 487.979792 273.586258 
L 508.046458 273.557825 
L 528.113125 273.529904 
L 548.179792 273.501937 
L 568.246458 273.465299 
L 588.313125 273.425027 
L 608.379792 273.37958 
L 628.446458 273.332128 
L 648.513125 273.279596 
L 668.579792 273.207161 
L 688.646458 273.110813 
L 708.713125 273.009945 
L 728.779792 272.889079 
L 748.846458 272.768447 
L 768.913125 272.616957 
L 788.979792 272.423097 
L 809.046458 272.186493 
L 829.113125 271.913532 
L 849.179792 271.613395 
L 869.246458 271.227633 
L 889.313125 270.723568 
L 909.379792 270.091366 
L 929.446458 269.360999 
L 949.513125 268.501796 
" style="fill:none;stroke:#f15c80;stroke-linecap:square;"/>
   </g>
   <g id="line2d_13">
    <path clip-path="url(#pc571cf03ff)" d="M 76.613125 273.527336 
L 86.646458 273.526848 
L 96.679792 273.526848 
L 106.713125 273.526238 
L 116.746458 273.526116 
L 126.779792 273.52575 
L 136.813125 273.524774 
L 146.846458 273.522943 
L 156.879792 273.520869 
L 166.913125 273.518062 
L 186.979792 273.514218 
L 207.046458 273.509764 
L 227.113125 273.506409 
L 247.179792 273.500368 
L 267.246458 273.481088 
L 287.313125 273.471692 
L 307.379792 273.461015 
L 327.446458 273.446921 
L 347.513125 273.429959 
L 367.579792 273.413913 
L 387.646458 273.397805 
L 407.713125 273.378464 
L 427.779792 273.358879 
L 447.846458 273.335084 
L 467.913125 273.300794 
L 487.979792 273.259977 
L 508.046458 273.220989 
L 528.113125 273.180842 
L 548.179792 273.129408 
L 568.246458 273.063026 
L 588.313125 272.981329 
L 608.379792 272.890176 
L 628.446458 272.790541 
L 648.513125 272.669003 
L 668.579792 272.493834 
L 688.646458 272.110184 
L 708.713125 271.834587 
L 728.779792 271.510546 
L 748.846458 271.181075 
L 768.913125 270.744648 
L 788.979792 270.185401 
L 809.046458 269.648242 
L 829.113125 269.102174 
L 849.179792 268.525111 
L 869.246458 267.821203 
L 889.313125 266.931814 
L 909.379792 265.896543 
L 929.446458 264.722283 
L 949.513125 263.443142 
" style="fill:none;stroke:#e4d354;stroke-linecap:square;"/>
   </g>
   <g id="line2d_14">
    <path clip-path="url(#pc571cf03ff)" d="M 76.613125 273.847715 
L 86.646458 273.846036 
L 96.679792 273.845796 
L 106.713125 273.844357 
L 116.746458 273.841839 
L 126.779792 273.84028 
L 136.813125 273.837402 
L 146.846458 273.831166 
L 156.879792 273.829007 
L 166.913125 273.819893 
L 186.979792 273.808021 
L 207.046458 273.800107 
L 227.113125 273.792432 
L 247.179792 273.777442 
L 267.246458 273.751899 
L 287.313125 273.730253 
L 307.379792 273.70435 
L 327.446458 273.668075 
L 347.513125 273.632758 
L 367.579792 273.59966 
L 387.646458 273.563804 
L 407.713125 273.52459 
L 427.779792 273.47944 
L 447.846458 273.43531 
L 467.913125 273.388841 
L 487.979792 273.337815 
L 508.046458 273.289187 
L 528.113125 273.235823 
L 548.179792 273.172685 
L 568.246458 273.097015 
L 588.313125 273.004377 
L 608.379792 272.904903 
L 628.446458 272.793318 
L 648.513125 272.664404 
L 668.579792 272.495077 
L 688.646458 272.191319 
L 708.713125 271.931452 
L 728.779792 271.641546 
L 748.846458 271.358175 
L 768.913125 271.021439 
L 788.979792 270.592365 
L 809.046458 270.06082 
L 829.113125 269.515363 
L 849.179792 268.926436 
L 869.246458 268.192405 
L 889.313125 267.257389 
L 909.379792 266.191419 
L 929.446458 264.991799 
L 949.513125 263.688388 
" style="fill:none;stroke:#2b908f;stroke-linecap:square;"/>
   </g>
   <g id="line2d_15">
    <path clip-path="url(#pc571cf03ff)" d="M 76.613125 273.774183 
L 86.646458 273.772034 
L 96.679792 273.771766 
L 106.713125 273.770512 
L 116.746458 273.769706 
L 126.779792 273.768811 
L 136.813125 273.767289 
L 146.846458 273.764424 
L 156.879792 273.763886 
L 166.913125 273.756499 
L 186.979792 273.752336 
L 207.046458 273.746829 
L 227.113125 273.740696 
L 247.179792 273.73125 
L 267.246458 273.716655 
L 287.313125 273.698702 
L 307.379792 273.678153 
L 327.446458 273.646367 
L 347.513125 273.612029 
L 367.579792 273.574961 
L 387.646458 273.531534 
L 407.713125 273.494152 
L 427.779792 273.451532 
L 447.846458 273.396735 
L 467.913125 273.325014 
L 487.979792 273.240893 
L 508.046458 273.151668 
L 528.113125 273.063786 
L 548.179792 272.947208 
L 568.246458 272.789978 
L 588.313125 272.597874 
L 608.379792 272.375909 
L 628.446458 272.139617 
L 648.513125 271.848125 
L 668.579792 271.446815 
L 688.646458 270.804467 
L 708.713125 270.15133 
L 728.779792 269.432517 
L 748.846458 268.70269 
L 768.913125 267.80198 
L 788.979792 266.632386 
L 809.046458 265.239484 
L 829.113125 263.744419 
L 849.179792 262.136087 
L 869.246458 260.165126 
L 889.313125 257.666023 
L 909.379792 254.707365 
L 929.446458 251.339517 
L 949.513125 247.68631 
" style="fill:none;stroke:#f45b5b;stroke-linecap:square;"/>
   </g>
   <g id="line2d_16">
    <path clip-path="url(#pc571cf03ff)" d="M 76.613125 273.932138 
L 86.646458 273.926563 
L 96.679792 273.925083 
L 106.713125 273.909143 
L 116.746458 273.863938 
L 126.779792 273.83685 
L 136.813125 273.79478 
L 146.846458 273.707679 
L 156.879792 273.629811 
L 166.913125 273.538485 
L 186.979792 273.423687 
L 207.046458 273.385536 
L 227.113125 273.340766 
L 247.179792 273.302486 
L 267.246458 273.082208 
L 287.313125 273.054684 
L 307.379792 273.020497 
L 327.446458 272.972939 
L 347.513125 272.923771 
L 367.579792 272.874341 
L 387.646458 272.818553 
L 407.713125 272.762417 
L 427.779792 272.707151 
L 447.846458 272.661554 
L 467.913125 272.619615 
L 487.979792 272.579113 
L 508.046458 272.538742 
L 528.113125 272.498719 
L 548.179792 272.461352 
L 568.246458 272.420938 
L 588.313125 272.374382 
L 608.379792 272.326477 
L 628.446458 272.282142 
L 648.513125 272.230404 
L 668.579792 272.164251 
L 688.646458 272.05764 
L 708.713125 271.957692 
L 728.779792 271.844112 
L 748.846458 271.733755 
L 768.913125 271.604193 
L 788.979792 271.438004 
L 809.046458 271.238935 
L 829.113125 271.019702 
L 849.179792 270.767022 
L 869.246458 270.461647 
L 889.313125 270.042822 
L 909.379792 269.550746 
L 929.446458 268.96717 
L 949.513125 268.304376 
" style="fill:none;stroke:#91e8e1;stroke-linecap:square;"/>
   </g>
   <g id="line2d_17">
    <path clip-path="url(#pc571cf03ff)" d="M 76.613125 273.118061 
L 86.646458 273.081293 
L 96.679792 273.077933 
L 106.713125 273.067584 
L 116.746458 273.053784 
L 126.779792 273.047792 
L 136.813125 273.036444 
L 146.846458 272.991868 
L 156.879792 272.98052 
L 166.913125 272.934492 
L 186.979792 272.838122 
L 207.046458 272.801263 
L 227.113125 272.758639 
L 247.179792 272.69291 
L 267.246458 270.610916 
L 287.313125 270.577552 
L 307.379792 270.5421 
L 327.446458 270.488491 
L 347.513125 270.425349 
L 367.579792 270.368926 
L 387.646458 270.303514 
L 407.713125 270.242279 
L 427.779792 270.182814 
L 447.846458 270.128524 
L 467.913125 270.077866 
L 487.979792 270.02117 
L 508.046458 269.978138 
L 528.113125 269.931746 
L 548.179792 269.879045 
L 568.246458 269.818763 
L 588.313125 269.746361 
L 608.379792 269.675321 
L 628.446458 269.598334 
L 648.513125 269.506414 
L 668.579792 269.383444 
L 688.646458 269.228836 
L 708.713125 269.063877 
L 728.779792 268.870821 
L 748.846458 268.674542 
L 768.913125 268.43868 
L 788.979792 268.146031 
L 809.046458 267.785747 
L 829.113125 267.395776 
L 849.179792 266.958642 
L 869.246458 266.429314 
L 889.313125 265.741838 
L 909.379792 264.897846 
L 929.446458 263.932927 
L 949.513125 262.819755 
" style="fill:none;stroke:#7cb5ec;stroke-linecap:square;"/>
   </g>
   <g id="line2d_18">
    <path clip-path="url(#pc571cf03ff)" d="M 76.613125 273.330226 
L 86.646458 273.296871 
L 96.679792 273.290995 
L 106.713125 273.257208 
L 116.746458 273.234137 
L 126.779792 273.216682 
L 136.813125 273.198708 
L 146.846458 273.1339 
L 156.879792 273.109705 
L 166.913125 273.066154 
L 186.979792 272.95248 
L 207.046458 272.906121 
L 227.113125 272.84654 
L 247.179792 272.798453 
L 267.246458 272.443476 
L 287.313125 272.430601 
L 307.379792 272.41522 
L 327.446458 272.39487 
L 347.513125 272.37128 
L 367.579792 272.349115 
L 387.646458 272.324532 
L 407.713125 272.302194 
L 427.779792 272.277956 
L 447.846458 272.254236 
L 467.913125 272.231035 
L 487.979792 272.206797 
L 508.046458 272.184027 
L 528.113125 272.159919 
L 548.179792 272.131576 
L 568.246458 272.097962 
L 588.313125 272.055275 
L 608.379792 272.014143 
L 628.446458 271.972018 
L 648.513125 271.911314 
L 668.579792 271.805245 
L 688.646458 271.591637 
L 708.713125 271.400971 
L 728.779792 271.221539 
L 748.846458 271.098187 
L 768.913125 270.954313 
L 788.979792 270.769566 
L 809.046458 270.538503 
L 829.113125 270.287609 
L 849.179792 269.993336 
L 869.246458 269.61788 
L 889.313125 269.137435 
L 909.379792 268.540983 
L 929.446458 267.841098 
L 949.513125 267.019459 
" style="fill:none;stroke:#434348;stroke-linecap:square;"/>
   </g>
   <g id="line2d_19">
    <path clip-path="url(#pc571cf03ff)" d="M 76.613125 273.87604 
L 86.646458 273.872485 
L 96.679792 273.871665 
L 106.713125 273.869295 
L 116.746458 273.867472 
L 126.779792 273.866014 
L 136.813125 273.865103 
L 146.846458 273.861184 
L 156.879792 273.858632 
L 166.913125 273.854302 
L 186.979792 273.848287 
L 207.046458 273.844778 
L 227.113125 273.840175 
L 247.179792 273.833066 
L 267.246458 273.817754 
L 287.313125 273.808002 
L 307.379792 273.796199 
L 327.446458 273.777833 
L 347.513125 273.759696 
L 367.579792 273.739963 
L 387.646458 273.718089 
L 407.713125 273.694938 
L 427.779792 273.671879 
L 447.846458 273.650096 
L 467.913125 273.62731 
L 487.979792 273.603021 
L 508.046458 273.576088 
L 528.113125 273.554077 
L 548.179792 273.525093 
L 568.246458 273.491097 
L 588.313125 273.453045 
L 608.379792 273.416678 
L 628.446458 273.372793 
L 648.513125 273.317287 
L 668.579792 273.240453 
L 688.646458 273.123972 
L 708.713125 273.0146 
L 728.779792 272.894565 
L 748.846458 272.767466 
L 768.913125 272.610927 
L 788.979792 272.41342 
L 809.046458 272.166103 
L 829.113125 271.893403 
L 849.179792 271.573445 
L 869.246458 271.170091 
L 889.313125 270.622138 
L 909.379792 269.965361 
L 929.446458 269.205136 
L 949.513125 268.323007 
" style="fill:none;stroke:#90ed7d;stroke-linecap:square;"/>
   </g>
   <g id="line2d_20">
    <path clip-path="url(#pc571cf03ff)" d="M 76.613125 273.915047 
L 86.646458 273.913247 
L 96.679792 273.912947 
L 106.713125 273.911747 
L 116.746458 273.911246 
L 126.779792 273.911046 
L 136.813125 273.910546 
L 146.846458 273.909546 
L 156.879792 273.908846 
L 166.913125 273.906546 
L 186.979792 273.903995 
L 207.046458 273.900895 
L 227.113125 273.896244 
L 247.179792 273.888893 
L 267.246458 273.87619 
L 287.313125 273.861888 
L 307.379792 273.843585 
L 327.446458 273.820381 
L 347.513125 273.797027 
L 367.579792 273.769572 
L 387.646458 273.738667 
L 407.713125 273.708261 
L 427.779792 273.676106 
L 447.846458 273.646101 
L 467.913125 273.617996 
L 487.979792 273.587941 
L 508.046458 273.558536 
L 528.113125 273.530331 
L 548.179792 273.499826 
L 568.246458 273.46497 
L 588.313125 273.423062 
L 608.379792 273.376454 
L 628.446458 273.329196 
L 648.513125 273.271586 
L 668.579792 273.196273 
L 688.646458 273.080753 
L 708.713125 272.977236 
L 728.779792 272.860516 
L 748.846458 272.732394 
L 768.913125 272.579067 
L 788.979792 272.379783 
L 809.046458 272.136691 
L 829.113125 271.858543 
L 849.179792 271.533087 
L 869.246458 271.127467 
L 889.313125 270.586224 
L 909.379792 269.928061 
L 929.446458 269.135274 
L 949.513125 268.209165 
" style="fill:none;stroke:#f7a35c;stroke-linecap:square;"/>
   </g>
   <g id="line2d_21">
    <path clip-path="url(#pc571cf03ff)" d="M 76.613125 273.589131 
L 86.646458 273.584212 
L 96.679792 273.583139 
L 106.713125 273.582513 
L 116.746458 273.581708 
L 126.779792 273.580992 
L 136.813125 273.580277 
L 146.846458 273.578309 
L 156.879792 273.577147 
L 166.913125 273.574777 
L 186.979792 273.571602 
L 207.046458 273.568159 
L 227.113125 273.564313 
L 247.179792 273.558411 
L 267.246458 273.548662 
L 287.313125 273.539585 
L 307.379792 273.528182 
L 327.446458 273.513381 
L 347.513125 273.498759 
L 367.579792 273.482482 
L 387.646458 273.463611 
L 407.713125 273.443578 
L 427.779792 273.42207 
L 447.846458 273.400382 
L 467.913125 273.375564 
L 487.979792 273.345604 
L 508.046458 273.316359 
L 528.113125 273.286042 
L 548.179792 273.249016 
L 568.246458 273.200946 
L 588.313125 273.141562 
L 608.379792 273.075471 
L 628.446458 273.003701 
L 648.513125 272.9178 
L 668.579792 272.798631 
L 688.646458 272.58569 
L 708.713125 272.401815 
L 728.779792 272.198802 
L 748.846458 271.986622 
L 768.913125 271.730216 
L 788.979792 271.395065 
L 809.046458 270.96981 
L 829.113125 270.49179 
L 849.179792 269.953134 
L 869.246458 269.267449 
L 889.313125 268.385056 
L 909.379792 267.290975 
L 929.446458 266.007161 
L 949.513125 264.552708 
" style="fill:none;stroke:#8085e9;stroke-linecap:square;"/>
   </g>
   <g id="line2d_22">
    <path clip-path="url(#pc571cf03ff)" d="M 32.968125 273.99006 
L 993.158125 273.99006 
" style="fill:none;stroke:#dedede;stroke-linecap:square;stroke-width:2;"/>
   </g>
   <g id="text_14">
    <!-- FastQC: Adapter Content -->
    <g transform="translate(413.765625 19.3575)scale(0.16 -0.16)">
     <defs>
      <path d="M 628 4666 
L 3309 4666 
L 3309 4134 
L 1259 4134 
L 1259 2759 
L 3109 2759 
L 3109 2228 
L 1259 2228 
L 1259 0 
L 628 0 
L 628 4666 
z
" id="DejaVuSans-46" transform="scale(0.015625)"/>
      <path d="M 2194 1759 
Q 1497 1759 1228 1600 
Q 959 1441 959 1056 
Q 959 750 1161 570 
Q 1363 391 1709 391 
Q 2188 391 2477 730 
Q 2766 1069 2766 1631 
L 2766 1759 
L 2194 1759 
z
M 3341 1997 
L 3341 0 
L 2766 0 
L 2766 531 
Q 2569 213 2275 61 
Q 1981 -91 1556 -91 
Q 1019 -91 701 211 
Q 384 513 384 1019 
Q 384 1609 779 1909 
Q 1175 2209 1959 2209 
L 2766 2209 
L 2766 2266 
Q 2766 2663 2505 2880 
Q 2244 3097 1772 3097 
Q 1472 3097 1187 3025 
Q 903 2953 641 2809 
L 641 3341 
Q 956 3463 1253 3523 
Q 1550 3584 1831 3584 
Q 2591 3584 2966 3190 
Q 3341 2797 3341 1997 
z
" id="DejaVuSans-61" transform="scale(0.015625)"/>
      <path d="M 2522 4238 
Q 1834 4238 1429 3725 
Q 1025 3213 1025 2328 
Q 1025 1447 1429 934 
Q 1834 422 2522 422 
Q 3209 422 3611 934 
Q 4013 1447 4013 2328 
Q 4013 3213 3611 3725 
Q 3209 4238 2522 4238 
z
M 3406 84 
L 4238 -825 
L 3475 -825 
L 2784 -78 
Q 2681 -84 2626 -87 
Q 2572 -91 2522 -91 
Q 1538 -91 948 567 
Q 359 1225 359 2328 
Q 359 3434 948 4092 
Q 1538 4750 2522 4750 
Q 3503 4750 4090 4092 
Q 4678 3434 4678 2328 
Q 4678 1516 4351 937 
Q 4025 359 3406 84 
z
" id="DejaVuSans-51" transform="scale(0.015625)"/>
      <path d="M 4122 4306 
L 4122 3641 
Q 3803 3938 3442 4084 
Q 3081 4231 2675 4231 
Q 1875 4231 1450 3742 
Q 1025 3253 1025 2328 
Q 1025 1406 1450 917 
Q 1875 428 2675 428 
Q 3081 428 3442 575 
Q 3803 722 4122 1019 
L 4122 359 
Q 3791 134 3420 21 
Q 3050 -91 2638 -91 
Q 1578 -91 968 557 
Q 359 1206 359 2328 
Q 359 3453 968 4101 
Q 1578 4750 2638 4750 
Q 3056 4750 3426 4639 
Q 3797 4528 4122 4306 
z
" id="DejaVuSans-43" transform="scale(0.015625)"/>
      <path d="M 750 794 
L 1409 794 
L 1409 0 
L 750 0 
L 750 794 
z
M 750 3309 
L 1409 3309 
L 1409 2516 
L 750 2516 
L 750 3309 
z
" id="DejaVuSans-3a" transform="scale(0.015625)"/>
      <path d="M 2188 4044 
L 1331 1722 
L 3047 1722 
L 2188 4044 
z
M 1831 4666 
L 2547 4666 
L 4325 0 
L 3669 0 
L 3244 1197 
L 1141 1197 
L 716 0 
L 50 0 
L 1831 4666 
z
" id="DejaVuSans-41" transform="scale(0.015625)"/>
      <path d="M 2906 2969 
L 2906 4863 
L 3481 4863 
L 3481 0 
L 2906 0 
L 2906 525 
Q 2725 213 2448 61 
Q 2172 -91 1784 -91 
Q 1150 -91 751 415 
Q 353 922 353 1747 
Q 353 2572 751 3078 
Q 1150 3584 1784 3584 
Q 2172 3584 2448 3432 
Q 2725 3281 2906 2969 
z
M 947 1747 
Q 947 1113 1208 752 
Q 1469 391 1925 391 
Q 2381 391 2643 752 
Q 2906 1113 2906 1747 
Q 2906 2381 2643 2742 
Q 2381 3103 1925 3103 
Q 1469 3103 1208 2742 
Q 947 2381 947 1747 
z
" id="DejaVuSans-64" transform="scale(0.015625)"/>
      <path d="M 2631 2963 
Q 2534 3019 2420 3045 
Q 2306 3072 2169 3072 
Q 1681 3072 1420 2755 
Q 1159 2438 1159 1844 
L 1159 0 
L 581 0 
L 581 3500 
L 1159 3500 
L 1159 2956 
Q 1341 3275 1631 3429 
Q 1922 3584 2338 3584 
Q 2397 3584 2469 3576 
Q 2541 3569 2628 3553 
L 2631 2963 
z
" id="DejaVuSans-72" transform="scale(0.015625)"/>
     </defs>
     <use xlink:href="#DejaVuSans-46"/>
     <use x="48.394531" xlink:href="#DejaVuSans-61"/>
     <use x="109.673828" xlink:href="#DejaVuSans-73"/>
     <use x="161.773438" xlink:href="#DejaVuSans-74"/>
     <use x="200.982422" xlink:href="#DejaVuSans-51"/>
     <use x="279.693359" xlink:href="#DejaVuSans-43"/>
     <use x="349.517578" xlink:href="#DejaVuSans-3a"/>
     <use x="383.208984" xlink:href="#DejaVuSans-20"/>
     <use x="414.996094" xlink:href="#DejaVuSans-41"/>
     <use x="481.654297" xlink:href="#DejaVuSans-64"/>
     <use x="545.130859" xlink:href="#DejaVuSans-61"/>
     <use x="606.410156" xlink:href="#DejaVuSans-70"/>
     <use x="669.886719" xlink:href="#DejaVuSans-74"/>
     <use x="709.095703" xlink:href="#DejaVuSans-65"/>
     <use x="770.619141" xlink:href="#DejaVuSans-72"/>
     <use x="811.732422" xlink:href="#DejaVuSans-20"/>
     <use x="843.519531" xlink:href="#DejaVuSans-43"/>
     <use x="913.34375" xlink:href="#DejaVuSans-6f"/>
     <use x="974.525391" xlink:href="#DejaVuSans-6e"/>
     <use x="1037.904297" xlink:href="#DejaVuSans-74"/>
     <use x="1077.113281" xlink:href="#DejaVuSans-65"/>
     <use x="1138.636719" xlink:href="#DejaVuSans-6e"/>
     <use x="1202.015625" xlink:href="#DejaVuSans-74"/>
    </g>
   </g>
   <g id="legend_1">
    <g id="line2d_23">
     <path d="M 40.168125 291.525394 
L 56.168125 291.525394 
" style="fill:none;stroke:#7cb5ec;stroke-linecap:square;"/>
    </g>
    <g id="line2d_24"/>
    <g id="text_15">
     <!-- CTR_2 - illumina_universal_adapter -->
     <g transform="translate(62.568125 294.325394)scale(0.08 -0.08)">
      <defs>
       <path d="M -19 4666 
L 3928 4666 
L 3928 4134 
L 2272 4134 
L 2272 0 
L 1638 0 
L 1638 4134 
L -19 4134 
L -19 4666 
z
" id="DejaVuSans-54" transform="scale(0.015625)"/>
       <path d="M 2841 2188 
Q 3044 2119 3236 1894 
Q 3428 1669 3622 1275 
L 4263 0 
L 3584 0 
L 2988 1197 
Q 2756 1666 2539 1819 
Q 2322 1972 1947 1972 
L 1259 1972 
L 1259 0 
L 628 0 
L 628 4666 
L 2053 4666 
Q 2853 4666 3247 4331 
Q 3641 3997 3641 3322 
Q 3641 2881 3436 2590 
Q 3231 2300 2841 2188 
z
M 1259 4147 
L 1259 2491 
L 2053 2491 
Q 2509 2491 2742 2702 
Q 2975 2913 2975 3322 
Q 2975 3731 2742 3939 
Q 2509 4147 2053 4147 
L 1259 4147 
z
" id="DejaVuSans-52" transform="scale(0.015625)"/>
       <path d="M 3263 -1063 
L 3263 -1509 
L -63 -1509 
L -63 -1063 
L 3263 -1063 
z
" id="DejaVuSans-5f" transform="scale(0.015625)"/>
       <path d="M 313 2009 
L 1997 2009 
L 1997 1497 
L 313 1497 
L 313 2009 
z
" id="DejaVuSans-2d" transform="scale(0.015625)"/>
       <path d="M 603 4863 
L 1178 4863 
L 1178 0 
L 603 0 
L 603 4863 
z
" id="DejaVuSans-6c" transform="scale(0.015625)"/>
       <path d="M 3328 2828 
Q 3544 3216 3844 3400 
Q 4144 3584 4550 3584 
Q 5097 3584 5394 3201 
Q 5691 2819 5691 2113 
L 5691 0 
L 5113 0 
L 5113 2094 
Q 5113 2597 4934 2840 
Q 4756 3084 4391 3084 
Q 3944 3084 3684 2787 
Q 3425 2491 3425 1978 
L 3425 0 
L 2847 0 
L 2847 2094 
Q 2847 2600 2669 2842 
Q 2491 3084 2119 3084 
Q 1678 3084 1418 2786 
Q 1159 2488 1159 1978 
L 1159 0 
L 581 0 
L 581 3500 
L 1159 3500 
L 1159 2956 
Q 1356 3278 1631 3431 
Q 1906 3584 2284 3584 
Q 2666 3584 2933 3390 
Q 3200 3197 3328 2828 
z
" id="DejaVuSans-6d" transform="scale(0.015625)"/>
       <path d="M 191 3500 
L 800 3500 
L 1894 563 
L 2988 3500 
L 3597 3500 
L 2284 0 
L 1503 0 
L 191 3500 
z
" id="DejaVuSans-76" transform="scale(0.015625)"/>
      </defs>
      <use xlink:href="#DejaVuSans-43"/>
      <use x="69.824219" xlink:href="#DejaVuSans-54"/>
      <use x="130.908203" xlink:href="#DejaVuSans-52"/>
      <use x="200.390625" xlink:href="#DejaVuSans-5f"/>
      <use x="250.390625" xlink:href="#DejaVuSans-32"/>
      <use x="314.013672" xlink:href="#DejaVuSans-20"/>
      <use x="345.800781" xlink:href="#DejaVuSans-2d"/>
      <use x="381.884766" xlink:href="#DejaVuSans-20"/>
      <use x="413.671875" xlink:href="#DejaVuSans-69"/>
      <use x="441.455078" xlink:href="#DejaVuSans-6c"/>
      <use x="469.238281" xlink:href="#DejaVuSans-6c"/>
      <use x="497.021484" xlink:href="#DejaVuSans-75"/>
      <use x="560.400391" xlink:href="#DejaVuSans-6d"/>
      <use x="657.8125" xlink:href="#DejaVuSans-69"/>
      <use x="685.595703" xlink:href="#DejaVuSans-6e"/>
      <use x="748.974609" xlink:href="#DejaVuSans-61"/>
      <use x="810.253906" xlink:href="#DejaVuSans-5f"/>
      <use x="860.253906" xlink:href="#DejaVuSans-75"/>
      <use x="923.632812" xlink:href="#DejaVuSans-6e"/>
      <use x="987.011719" xlink:href="#DejaVuSans-69"/>
      <use x="1014.794922" xlink:href="#DejaVuSans-76"/>
      <use x="1073.974609" xlink:href="#DejaVuSans-65"/>
      <use x="1135.498047" xlink:href="#DejaVuSans-72"/>
      <use x="1176.611328" xlink:href="#DejaVuSans-73"/>
      <use x="1228.710938" xlink:href="#DejaVuSans-61"/>
      <use x="1289.990234" xlink:href="#DejaVuSans-6c"/>
      <use x="1317.773438" xlink:href="#DejaVuSans-5f"/>
      <use x="1367.773438" xlink:href="#DejaVuSans-61"/>
      <use x="1429.052734" xlink:href="#DejaVuSans-64"/>
      <use x="1492.529297" xlink:href="#DejaVuSans-61"/>
      <use x="1553.808594" xlink:href="#DejaVuSans-70"/>
      <use x="1617.285156" xlink:href="#DejaVuSans-74"/>
      <use x="1656.494141" xlink:href="#DejaVuSans-65"/>
      <use x="1718.017578" xlink:href="#DejaVuSans-72"/>
     </g>
    </g>
    <g id="line2d_25">
     <path d="M 40.168125 303.490394 
L 56.168125 303.490394 
" style="fill:none;stroke:#434348;stroke-linecap:square;"/>
    </g>
    <g id="line2d_26"/>
    <g id="text_16">
     <!-- CTR_3 - illumina_universal_adapter -->
     <g transform="translate(62.568125 306.290394)scale(0.08 -0.08)">
      <use xlink:href="#DejaVuSans-43"/>
      <use x="69.824219" xlink:href="#DejaVuSans-54"/>
      <use x="130.908203" xlink:href="#DejaVuSans-52"/>
      <use x="200.390625" xlink:href="#DejaVuSans-5f"/>
      <use x="250.390625" xlink:href="#DejaVuSans-33"/>
      <use x="314.013672" xlink:href="#DejaVuSans-20"/>
      <use x="345.800781" xlink:href="#DejaVuSans-2d"/>
      <use x="381.884766" xlink:href="#DejaVuSans-20"/>
      <use x="413.671875" xlink:href="#DejaVuSans-69"/>
      <use x="441.455078" xlink:href="#DejaVuSans-6c"/>
      <use x="469.238281" xlink:href="#DejaVuSans-6c"/>
      <use x="497.021484" xlink:href="#DejaVuSans-75"/>
      <use x="560.400391" xlink:href="#DejaVuSans-6d"/>
      <use x="657.8125" xlink:href="#DejaVuSans-69"/>
      <use x="685.595703" xlink:href="#DejaVuSans-6e"/>
      <use x="748.974609" xlink:href="#DejaVuSans-61"/>
      <use x="810.253906" xlink:href="#DejaVuSans-5f"/>
      <use x="860.253906" xlink:href="#DejaVuSans-75"/>
      <use x="923.632812" xlink:href="#DejaVuSans-6e"/>
      <use x="987.011719" xlink:href="#DejaVuSans-69"/>
      <use x="1014.794922" xlink:href="#DejaVuSans-76"/>
      <use x="1073.974609" xlink:href="#DejaVuSans-65"/>
      <use x="1135.498047" xlink:href="#DejaVuSans-72"/>
      <use x="1176.611328" xlink:href="#DejaVuSans-73"/>
      <use x="1228.710938" xlink:href="#DejaVuSans-61"/>
      <use x="1289.990234" xlink:href="#DejaVuSans-6c"/>
      <use x="1317.773438" xlink:href="#DejaVuSans-5f"/>
      <use x="1367.773438" xlink:href="#DejaVuSans-61"/>
      <use x="1429.052734" xlink:href="#DejaVuSans-64"/>
      <use x="1492.529297" xlink:href="#DejaVuSans-61"/>
      <use x="1553.808594" xlink:href="#DejaVuSans-70"/>
      <use x="1617.285156" xlink:href="#DejaVuSans-74"/>
      <use x="1656.494141" xlink:href="#DejaVuSans-65"/>
      <use x="1718.017578" xlink:href="#DejaVuSans-72"/>
     </g>
    </g>
    <g id="line2d_27">
     <path d="M 40.168125 315.455394 
L 56.168125 315.455394 
" style="fill:none;stroke:#90ed7d;stroke-linecap:square;"/>
    </g>
    <g id="line2d_28"/>
    <g id="text_17">
     <!-- CTR_4 - illumina_universal_adapter -->
     <g transform="translate(62.568125 318.255394)scale(0.08 -0.08)">
      <use xlink:href="#DejaVuSans-43"/>
      <use x="69.824219" xlink:href="#DejaVuSans-54"/>
      <use x="130.908203" xlink:href="#DejaVuSans-52"/>
      <use x="200.390625" xlink:href="#DejaVuSans-5f"/>
      <use x="250.390625" xlink:href="#DejaVuSans-34"/>
      <use x="314.013672" xlink:href="#DejaVuSans-20"/>
      <use x="345.800781" xlink:href="#DejaVuSans-2d"/>
      <use x="381.884766" xlink:href="#DejaVuSans-20"/>
      <use x="413.671875" xlink:href="#DejaVuSans-69"/>
      <use x="441.455078" xlink:href="#DejaVuSans-6c"/>
      <use x="469.238281" xlink:href="#DejaVuSans-6c"/>
      <use x="497.021484" xlink:href="#DejaVuSans-75"/>
      <use x="560.400391" xlink:href="#DejaVuSans-6d"/>
      <use x="657.8125" xlink:href="#DejaVuSans-69"/>
      <use x="685.595703" xlink:href="#DejaVuSans-6e"/>
      <use x="748.974609" xlink:href="#DejaVuSans-61"/>
      <use x="810.253906" xlink:href="#DejaVuSans-5f"/>
      <use x="860.253906" xlink:href="#DejaVuSans-75"/>
      <use x="923.632812" xlink:href="#DejaVuSans-6e"/>
      <use x="987.011719" xlink:href="#DejaVuSans-69"/>
      <use x="1014.794922" xlink:href="#DejaVuSans-76"/>
      <use x="1073.974609" xlink:href="#DejaVuSans-65"/>
      <use x="1135.498047" xlink:href="#DejaVuSans-72"/>
      <use x="1176.611328" xlink:href="#DejaVuSans-73"/>
      <use x="1228.710938" xlink:href="#DejaVuSans-61"/>
      <use x="1289.990234" xlink:href="#DejaVuSans-6c"/>
      <use x="1317.773438" xlink:href="#DejaVuSans-5f"/>
      <use x="1367.773438" xlink:href="#DejaVuSans-61"/>
      <use x="1429.052734" xlink:href="#DejaVuSans-64"/>
      <use x="1492.529297" xlink:href="#DejaVuSans-61"/>
      <use x="1553.808594" xlink:href="#DejaVuSans-70"/>
      <use x="1617.285156" xlink:href="#DejaVuSans-74"/>
      <use x="1656.494141" xlink:href="#DejaVuSans-65"/>
      <use x="1718.017578" xlink:href="#DejaVuSans-72"/>
     </g>
    </g>
    <g id="line2d_29">
     <path d="M 203.899063 291.525394 
L 219.899063 291.525394 
" style="fill:none;stroke:#f7a35c;stroke-linecap:square;"/>
    </g>
    <g id="line2d_30"/>
    <g id="text_18">
     <!-- CTR_5 - illumina_universal_adapter -->
     <g transform="translate(226.299063 294.325394)scale(0.08 -0.08)">
      <use xlink:href="#DejaVuSans-43"/>
      <use x="69.824219" xlink:href="#DejaVuSans-54"/>
      <use x="130.908203" xlink:href="#DejaVuSans-52"/>
      <use x="200.390625" xlink:href="#DejaVuSans-5f"/>
      <use x="250.390625" xlink:href="#DejaVuSans-35"/>
      <use x="314.013672" xlink:href="#DejaVuSans-20"/>
      <use x="345.800781" xlink:href="#DejaVuSans-2d"/>
      <use x="381.884766" xlink:href="#DejaVuSans-20"/>
      <use x="413.671875" xlink:href="#DejaVuSans-69"/>
      <use x="441.455078" xlink:href="#DejaVuSans-6c"/>
      <use x="469.238281" xlink:href="#DejaVuSans-6c"/>
      <use x="497.021484" xlink:href="#DejaVuSans-75"/>
      <use x="560.400391" xlink:href="#DejaVuSans-6d"/>
      <use x="657.8125" xlink:href="#DejaVuSans-69"/>
      <use x="685.595703" xlink:href="#DejaVuSans-6e"/>
      <use x="748.974609" xlink:href="#DejaVuSans-61"/>
      <use x="810.253906" xlink:href="#DejaVuSans-5f"/>
      <use x="860.253906" xlink:href="#DejaVuSans-75"/>
      <use x="923.632812" xlink:href="#DejaVuSans-6e"/>
      <use x="987.011719" xlink:href="#DejaVuSans-69"/>
      <use x="1014.794922" xlink:href="#DejaVuSans-76"/>
      <use x="1073.974609" xlink:href="#DejaVuSans-65"/>
      <use x="1135.498047" xlink:href="#DejaVuSans-72"/>
      <use x="1176.611328" xlink:href="#DejaVuSans-73"/>
      <use x="1228.710938" xlink:href="#DejaVuSans-61"/>
      <use x="1289.990234" xlink:href="#DejaVuSans-6c"/>
      <use x="1317.773438" xlink:href="#DejaVuSans-5f"/>
      <use x="1367.773438" xlink:href="#DejaVuSans-61"/>
      <use x="1429.052734" xlink:href="#DejaVuSans-64"/>
      <use x="1492.529297" xlink:href="#DejaVuSans-61"/>
      <use x="1553.808594" xlink:href="#DejaVuSans-70"/>
      <use x="1617.285156" xlink:href="#DejaVuSans-74"/>
      <use x="1656.494141" xlink:href="#DejaVuSans-65"/>
      <use x="1718.017578" xlink:href="#DejaVuSans-72"/>
     </g>
    </g>
    <g id="line2d_31">
     <path d="M 203.899063 303.490394 
L 219.899063 303.490394 
" style="fill:none;stroke:#8085e9;stroke-linecap:square;"/>
    </g>
    <g id="line2d_32"/>
    <g id="text_19">
     <!-- CTR_6 - illumina_universal_adapter -->
     <g transform="translate(226.299063 306.290394)scale(0.08 -0.08)">
      <use xlink:href="#DejaVuSans-43"/>
      <use x="69.824219" xlink:href="#DejaVuSans-54"/>
      <use x="130.908203" xlink:href="#DejaVuSans-52"/>
      <use x="200.390625" xlink:href="#DejaVuSans-5f"/>
      <use x="250.390625" xlink:href="#DejaVuSans-36"/>
      <use x="314.013672" xlink:href="#DejaVuSans-20"/>
      <use x="345.800781" xlink:href="#DejaVuSans-2d"/>
      <use x="381.884766" xlink:href="#DejaVuSans-20"/>
      <use x="413.671875" xlink:href="#DejaVuSans-69"/>
      <use x="441.455078" xlink:href="#DejaVuSans-6c"/>
      <use x="469.238281" xlink:href="#DejaVuSans-6c"/>
      <use x="497.021484" xlink:href="#DejaVuSans-75"/>
      <use x="560.400391" xlink:href="#DejaVuSans-6d"/>
      <use x="657.8125" xlink:href="#DejaVuSans-69"/>
      <use x="685.595703" xlink:href="#DejaVuSans-6e"/>
      <use x="748.974609" xlink:href="#DejaVuSans-61"/>
      <use x="810.253906" xlink:href="#DejaVuSans-5f"/>
      <use x="860.253906" xlink:href="#DejaVuSans-75"/>
      <use x="923.632812" xlink:href="#DejaVuSans-6e"/>
      <use x="987.011719" xlink:href="#DejaVuSans-69"/>
      <use x="1014.794922" xlink:href="#DejaVuSans-76"/>
      <use x="1073.974609" xlink:href="#DejaVuSans-65"/>
      <use x="1135.498047" xlink:href="#DejaVuSans-72"/>
      <use x="1176.611328" xlink:href="#DejaVuSans-73"/>
      <use x="1228.710938" xlink:href="#DejaVuSans-61"/>
      <use x="1289.990234" xlink:href="#DejaVuSans-6c"/>
      <use x="1317.773438" xlink:href="#DejaVuSans-5f"/>
      <use x="1367.773438" xlink:href="#DejaVuSans-61"/>
      <use x="1429.052734" xlink:href="#DejaVuSans-64"/>
      <use x="1492.529297" xlink:href="#DejaVuSans-61"/>
      <use x="1553.808594" xlink:href="#DejaVuSans-70"/>
      <use x="1617.285156" xlink:href="#DejaVuSans-74"/>
      <use x="1656.494141" xlink:href="#DejaVuSans-65"/>
      <use x="1718.017578" xlink:href="#DejaVuSans-72"/>
     </g>
    </g>
    <g id="line2d_33">
     <path d="M 203.899063 315.455394 
L 219.899063 315.455394 
" style="fill:none;stroke:#f15c80;stroke-linecap:square;"/>
    </g>
    <g id="line2d_34"/>
    <g id="text_20">
     <!-- SIM_2 - illumina_universal_adapter -->
     <g transform="translate(226.299063 318.255394)scale(0.08 -0.08)">
      <defs>
       <path d="M 628 4666 
L 1259 4666 
L 1259 0 
L 628 0 
L 628 4666 
z
" id="DejaVuSans-49" transform="scale(0.015625)"/>
       <path d="M 628 4666 
L 1569 4666 
L 2759 1491 
L 3956 4666 
L 4897 4666 
L 4897 0 
L 4281 0 
L 4281 4097 
L 3078 897 
L 2444 897 
L 1241 4097 
L 1241 0 
L 628 0 
L 628 4666 
z
" id="DejaVuSans-4d" transform="scale(0.015625)"/>
      </defs>
      <use xlink:href="#DejaVuSans-53"/>
      <use x="63.476562" xlink:href="#DejaVuSans-49"/>
      <use x="92.96875" xlink:href="#DejaVuSans-4d"/>
      <use x="179.248047" xlink:href="#DejaVuSans-5f"/>
      <use x="229.248047" xlink:href="#DejaVuSans-32"/>
      <use x="292.871094" xlink:href="#DejaVuSans-20"/>
      <use x="324.658203" xlink:href="#DejaVuSans-2d"/>
      <use x="360.742188" xlink:href="#DejaVuSans-20"/>
      <use x="392.529297" xlink:href="#DejaVuSans-69"/>
      <use x="420.3125" xlink:href="#DejaVuSans-6c"/>
      <use x="448.095703" xlink:href="#DejaVuSans-6c"/>
      <use x="475.878906" xlink:href="#DejaVuSans-75"/>
      <use x="539.257812" xlink:href="#DejaVuSans-6d"/>
      <use x="636.669922" xlink:href="#DejaVuSans-69"/>
      <use x="664.453125" xlink:href="#DejaVuSans-6e"/>
      <use x="727.832031" xlink:href="#DejaVuSans-61"/>
      <use x="789.111328" xlink:href="#DejaVuSans-5f"/>
      <use x="839.111328" xlink:href="#DejaVuSans-75"/>
      <use x="902.490234" xlink:href="#DejaVuSans-6e"/>
      <use x="965.869141" xlink:href="#DejaVuSans-69"/>
      <use x="993.652344" xlink:href="#DejaVuSans-76"/>
      <use x="1052.832031" xlink:href="#DejaVuSans-65"/>
      <use x="1114.355469" xlink:href="#DejaVuSans-72"/>
      <use x="1155.46875" xlink:href="#DejaVuSans-73"/>
      <use x="1207.568359" xlink:href="#DejaVuSans-61"/>
      <use x="1268.847656" xlink:href="#DejaVuSans-6c"/>
      <use x="1296.630859" xlink:href="#DejaVuSans-5f"/>
      <use x="1346.630859" xlink:href="#DejaVuSans-61"/>
      <use x="1407.910156" xlink:href="#DejaVuSans-64"/>
      <use x="1471.386719" xlink:href="#DejaVuSans-61"/>
      <use x="1532.666016" xlink:href="#DejaVuSans-70"/>
      <use x="1596.142578" xlink:href="#DejaVuSans-74"/>
      <use x="1635.351562" xlink:href="#DejaVuSans-65"/>
      <use x="1696.875" xlink:href="#DejaVuSans-72"/>
     </g>
    </g>
    <g id="line2d_35">
     <path d="M 367.63 291.525394 
L 383.63 291.525394 
" style="fill:none;stroke:#e4d354;stroke-linecap:square;"/>
    </g>
    <g id="line2d_36"/>
    <g id="text_21">
     <!-- VPA_1 - illumina_universal_adapter -->
     <g transform="translate(390.03 294.325394)scale(0.08 -0.08)">
      <defs>
       <path d="M 1831 0 
L 50 4666 
L 709 4666 
L 2188 738 
L 3669 4666 
L 4325 4666 
L 2547 0 
L 1831 0 
z
" id="DejaVuSans-56" transform="scale(0.015625)"/>
      </defs>
      <use xlink:href="#DejaVuSans-56"/>
      <use x="68.408203" xlink:href="#DejaVuSans-50"/>
      <use x="122.335938" xlink:href="#DejaVuSans-41"/>
      <use x="190.744141" xlink:href="#DejaVuSans-5f"/>
      <use x="240.744141" xlink:href="#DejaVuSans-31"/>
      <use x="304.367188" xlink:href="#DejaVuSans-20"/>
      <use x="336.154297" xlink:href="#DejaVuSans-2d"/>
      <use x="372.238281" xlink:href="#DejaVuSans-20"/>
      <use x="404.025391" xlink:href="#DejaVuSans-69"/>
      <use x="431.808594" xlink:href="#DejaVuSans-6c"/>
      <use x="459.591797" xlink:href="#DejaVuSans-6c"/>
      <use x="487.375" xlink:href="#DejaVuSans-75"/>
      <use x="550.753906" xlink:href="#DejaVuSans-6d"/>
      <use x="648.166016" xlink:href="#DejaVuSans-69"/>
      <use x="675.949219" xlink:href="#DejaVuSans-6e"/>
      <use x="739.328125" xlink:href="#DejaVuSans-61"/>
      <use x="800.607422" xlink:href="#DejaVuSans-5f"/>
      <use x="850.607422" xlink:href="#DejaVuSans-75"/>
      <use x="913.986328" xlink:href="#DejaVuSans-6e"/>
      <use x="977.365234" xlink:href="#DejaVuSans-69"/>
      <use x="1005.148438" xlink:href="#DejaVuSans-76"/>
      <use x="1064.328125" xlink:href="#DejaVuSans-65"/>
      <use x="1125.851562" xlink:href="#DejaVuSans-72"/>
      <use x="1166.964844" xlink:href="#DejaVuSans-73"/>
      <use x="1219.064453" xlink:href="#DejaVuSans-61"/>
      <use x="1280.34375" xlink:href="#DejaVuSans-6c"/>
      <use x="1308.126953" xlink:href="#DejaVuSans-5f"/>
      <use x="1358.126953" xlink:href="#DejaVuSans-61"/>
      <use x="1419.40625" xlink:href="#DejaVuSans-64"/>
      <use x="1482.882812" xlink:href="#DejaVuSans-61"/>
      <use x="1544.162109" xlink:href="#DejaVuSans-70"/>
      <use x="1607.638672" xlink:href="#DejaVuSans-74"/>
      <use x="1646.847656" xlink:href="#DejaVuSans-65"/>
      <use x="1708.371094" xlink:href="#DejaVuSans-72"/>
     </g>
    </g>
    <g id="line2d_37">
     <path d="M 367.63 303.490394 
L 383.63 303.490394 
" style="fill:none;stroke:#2b908f;stroke-linecap:square;"/>
    </g>
    <g id="line2d_38"/>
    <g id="text_22">
     <!-- VPA_2 - illumina_universal_adapter -->
     <g transform="translate(390.03 306.290394)scale(0.08 -0.08)">
      <use xlink:href="#DejaVuSans-56"/>
      <use x="68.408203" xlink:href="#DejaVuSans-50"/>
      <use x="122.335938" xlink:href="#DejaVuSans-41"/>
      <use x="190.744141" xlink:href="#DejaVuSans-5f"/>
      <use x="240.744141" xlink:href="#DejaVuSans-32"/>
      <use x="304.367188" xlink:href="#DejaVuSans-20"/>
      <use x="336.154297" xlink:href="#DejaVuSans-2d"/>
      <use x="372.238281" xlink:href="#DejaVuSans-20"/>
      <use x="404.025391" xlink:href="#DejaVuSans-69"/>
      <use x="431.808594" xlink:href="#DejaVuSans-6c"/>
      <use x="459.591797" xlink:href="#DejaVuSans-6c"/>
      <use x="487.375" xlink:href="#DejaVuSans-75"/>
      <use x="550.753906" xlink:href="#DejaVuSans-6d"/>
      <use x="648.166016" xlink:href="#DejaVuSans-69"/>
      <use x="675.949219" xlink:href="#DejaVuSans-6e"/>
      <use x="739.328125" xlink:href="#DejaVuSans-61"/>
      <use x="800.607422" xlink:href="#DejaVuSans-5f"/>
      <use x="850.607422" xlink:href="#DejaVuSans-75"/>
      <use x="913.986328" xlink:href="#DejaVuSans-6e"/>
      <use x="977.365234" xlink:href="#DejaVuSans-69"/>
      <use x="1005.148438" xlink:href="#DejaVuSans-76"/>
      <use x="1064.328125" xlink:href="#DejaVuSans-65"/>
      <use x="1125.851562" xlink:href="#DejaVuSans-72"/>
      <use x="1166.964844" xlink:href="#DejaVuSans-73"/>
      <use x="1219.064453" xlink:href="#DejaVuSans-61"/>
      <use x="1280.34375" xlink:href="#DejaVuSans-6c"/>
      <use x="1308.126953" xlink:href="#DejaVuSans-5f"/>
      <use x="1358.126953" xlink:href="#DejaVuSans-61"/>
      <use x="1419.40625" xlink:href="#DejaVuSans-64"/>
      <use x="1482.882812" xlink:href="#DejaVuSans-61"/>
      <use x="1544.162109" xlink:href="#DejaVuSans-70"/>
      <use x="1607.638672" xlink:href="#DejaVuSans-74"/>
      <use x="1646.847656" xlink:href="#DejaVuSans-65"/>
      <use x="1708.371094" xlink:href="#DejaVuSans-72"/>
     </g>
    </g>
    <g id="line2d_39">
     <path d="M 367.63 315.455394 
L 383.63 315.455394 
" style="fill:none;stroke:#f45b5b;stroke-linecap:square;"/>
    </g>
    <g id="line2d_40"/>
    <g id="text_23">
     <!-- VPA_3 - illumina_universal_adapter -->
     <g transform="translate(390.03 318.255394)scale(0.08 -0.08)">
      <use xlink:href="#DejaVuSans-56"/>
      <use x="68.408203" xlink:href="#DejaVuSans-50"/>
      <use x="122.335938" xlink:href="#DejaVuSans-41"/>
      <use x="190.744141" xlink:href="#DejaVuSans-5f"/>
      <use x="240.744141" xlink:href="#DejaVuSans-33"/>
      <use x="304.367188" xlink:href="#DejaVuSans-20"/>
      <use x="336.154297" xlink:href="#DejaVuSans-2d"/>
      <use x="372.238281" xlink:href="#DejaVuSans-20"/>
      <use x="404.025391" xlink:href="#DejaVuSans-69"/>
      <use x="431.808594" xlink:href="#DejaVuSans-6c"/>
      <use x="459.591797" xlink:href="#DejaVuSans-6c"/>
      <use x="487.375" xlink:href="#DejaVuSans-75"/>
      <use x="550.753906" xlink:href="#DejaVuSans-6d"/>
      <use x="648.166016" xlink:href="#DejaVuSans-69"/>
      <use x="675.949219" xlink:href="#DejaVuSans-6e"/>
      <use x="739.328125" xlink:href="#DejaVuSans-61"/>
      <use x="800.607422" xlink:href="#DejaVuSans-5f"/>
      <use x="850.607422" xlink:href="#DejaVuSans-75"/>
      <use x="913.986328" xlink:href="#DejaVuSans-6e"/>
      <use x="977.365234" xlink:href="#DejaVuSans-69"/>
      <use x="1005.148438" xlink:href="#DejaVuSans-76"/>
      <use x="1064.328125" xlink:href="#DejaVuSans-65"/>
      <use x="1125.851562" xlink:href="#DejaVuSans-72"/>
      <use x="1166.964844" xlink:href="#DejaVuSans-73"/>
      <use x="1219.064453" xlink:href="#DejaVuSans-61"/>
      <use x="1280.34375" xlink:href="#DejaVuSans-6c"/>
      <use x="1308.126953" xlink:href="#DejaVuSans-5f"/>
      <use x="1358.126953" xlink:href="#DejaVuSans-61"/>
      <use x="1419.40625" xlink:href="#DejaVuSans-64"/>
      <use x="1482.882812" xlink:href="#DejaVuSans-61"/>
      <use x="1544.162109" xlink:href="#DejaVuSans-70"/>
      <use x="1607.638672" xlink:href="#DejaVuSans-74"/>
      <use x="1646.847656" xlink:href="#DejaVuSans-65"/>
      <use x="1708.371094" xlink:href="#DejaVuSans-72"/>
     </g>
    </g>
    <g id="line2d_41">
     <path d="M 530.588438 291.525394 
L 546.588438 291.525394 
" style="fill:none;stroke:#91e8e1;stroke-linecap:square;"/>
    </g>
    <g id="line2d_42"/>
    <g id="text_24">
     <!-- VPA_SIM_2 - illumina_universal_adapter -->
     <g transform="translate(552.988438 294.325394)scale(0.08 -0.08)">
      <use xlink:href="#DejaVuSans-56"/>
      <use x="68.408203" xlink:href="#DejaVuSans-50"/>
      <use x="122.335938" xlink:href="#DejaVuSans-41"/>
      <use x="190.744141" xlink:href="#DejaVuSans-5f"/>
      <use x="240.744141" xlink:href="#DejaVuSans-53"/>
      <use x="304.220703" xlink:href="#DejaVuSans-49"/>
      <use x="333.712891" xlink:href="#DejaVuSans-4d"/>
      <use x="419.992188" xlink:href="#DejaVuSans-5f"/>
      <use x="469.992188" xlink:href="#DejaVuSans-32"/>
      <use x="533.615234" xlink:href="#DejaVuSans-20"/>
      <use x="565.402344" xlink:href="#DejaVuSans-2d"/>
      <use x="601.486328" xlink:href="#DejaVuSans-20"/>
      <use x="633.273438" xlink:href="#DejaVuSans-69"/>
      <use x="661.056641" xlink:href="#DejaVuSans-6c"/>
      <use x="688.839844" xlink:href="#DejaVuSans-6c"/>
      <use x="716.623047" xlink:href="#DejaVuSans-75"/>
      <use x="780.001953" xlink:href="#DejaVuSans-6d"/>
      <use x="877.414062" xlink:href="#DejaVuSans-69"/>
      <use x="905.197266" xlink:href="#DejaVuSans-6e"/>
      <use x="968.576172" xlink:href="#DejaVuSans-61"/>
      <use x="1029.855469" xlink:href="#DejaVuSans-5f"/>
      <use x="1079.855469" xlink:href="#DejaVuSans-75"/>
      <use x="1143.234375" xlink:href="#DejaVuSans-6e"/>
      <use x="1206.613281" xlink:href="#DejaVuSans-69"/>
      <use x="1234.396484" xlink:href="#DejaVuSans-76"/>
      <use x="1293.576172" xlink:href="#DejaVuSans-65"/>
      <use x="1355.099609" xlink:href="#DejaVuSans-72"/>
      <use x="1396.212891" xlink:href="#DejaVuSans-73"/>
      <use x="1448.3125" xlink:href="#DejaVuSans-61"/>
      <use x="1509.591797" xlink:href="#DejaVuSans-6c"/>
      <use x="1537.375" xlink:href="#DejaVuSans-5f"/>
      <use x="1587.375" xlink:href="#DejaVuSans-61"/>
      <use x="1648.654297" xlink:href="#DejaVuSans-64"/>
      <use x="1712.130859" xlink:href="#DejaVuSans-61"/>
      <use x="1773.410156" xlink:href="#DejaVuSans-70"/>
      <use x="1836.886719" xlink:href="#DejaVuSans-74"/>
      <use x="1876.095703" xlink:href="#DejaVuSans-65"/>
      <use x="1937.619141" xlink:href="#DejaVuSans-72"/>
     </g>
    </g>
    <g id="line2d_43">
     <path d="M 530.588438 303.490394 
L 546.588438 303.490394 
" style="fill:none;stroke:#7cb5ec;stroke-linecap:square;"/>
    </g>
    <g id="line2d_44"/>
    <g id="text_25">
     <!-- VS_GEM_50_TAX_10_1 - illumina_universal_adapter -->
     <g transform="translate(552.988438 306.290394)scale(0.08 -0.08)">
      <defs>
       <path d="M 3809 666 
L 3809 1919 
L 2778 1919 
L 2778 2438 
L 4434 2438 
L 4434 434 
Q 4069 175 3628 42 
Q 3188 -91 2688 -91 
Q 1594 -91 976 548 
Q 359 1188 359 2328 
Q 359 3472 976 4111 
Q 1594 4750 2688 4750 
Q 3144 4750 3555 4637 
Q 3966 4525 4313 4306 
L 4313 3634 
Q 3963 3931 3569 4081 
Q 3175 4231 2741 4231 
Q 1884 4231 1454 3753 
Q 1025 3275 1025 2328 
Q 1025 1384 1454 906 
Q 1884 428 2741 428 
Q 3075 428 3337 486 
Q 3600 544 3809 666 
z
" id="DejaVuSans-47" transform="scale(0.015625)"/>
       <path d="M 628 4666 
L 3578 4666 
L 3578 4134 
L 1259 4134 
L 1259 2753 
L 3481 2753 
L 3481 2222 
L 1259 2222 
L 1259 531 
L 3634 531 
L 3634 0 
L 628 0 
L 628 4666 
z
" id="DejaVuSans-45" transform="scale(0.015625)"/>
       <path d="M 403 4666 
L 1081 4666 
L 2241 2931 
L 3406 4666 
L 4084 4666 
L 2584 2425 
L 4184 0 
L 3506 0 
L 2194 1984 
L 872 0 
L 191 0 
L 1856 2491 
L 403 4666 
z
" id="DejaVuSans-58" transform="scale(0.015625)"/>
      </defs>
      <use xlink:href="#DejaVuSans-56"/>
      <use x="68.408203" xlink:href="#DejaVuSans-53"/>
      <use x="131.884766" xlink:href="#DejaVuSans-5f"/>
      <use x="181.884766" xlink:href="#DejaVuSans-47"/>
      <use x="259.375" xlink:href="#DejaVuSans-45"/>
      <use x="322.558594" xlink:href="#DejaVuSans-4d"/>
      <use x="408.837891" xlink:href="#DejaVuSans-5f"/>
      <use x="458.837891" xlink:href="#DejaVuSans-35"/>
      <use x="522.460938" xlink:href="#DejaVuSans-30"/>
      <use x="586.083984" xlink:href="#DejaVuSans-5f"/>
      <use x="636.083984" xlink:href="#DejaVuSans-54"/>
      <use x="689.417969" xlink:href="#DejaVuSans-41"/>
      <use x="757.826172" xlink:href="#DejaVuSans-58"/>
      <use x="826.332031" xlink:href="#DejaVuSans-5f"/>
      <use x="876.332031" xlink:href="#DejaVuSans-31"/>
      <use x="939.955078" xlink:href="#DejaVuSans-30"/>
      <use x="1003.578125" xlink:href="#DejaVuSans-5f"/>
      <use x="1053.578125" xlink:href="#DejaVuSans-31"/>
      <use x="1117.201172" xlink:href="#DejaVuSans-20"/>
      <use x="1148.988281" xlink:href="#DejaVuSans-2d"/>
      <use x="1185.072266" xlink:href="#DejaVuSans-20"/>
      <use x="1216.859375" xlink:href="#DejaVuSans-69"/>
      <use x="1244.642578" xlink:href="#DejaVuSans-6c"/>
      <use x="1272.425781" xlink:href="#DejaVuSans-6c"/>
      <use x="1300.208984" xlink:href="#DejaVuSans-75"/>
      <use x="1363.587891" xlink:href="#DejaVuSans-6d"/>
      <use x="1461" xlink:href="#DejaVuSans-69"/>
      <use x="1488.783203" xlink:href="#DejaVuSans-6e"/>
      <use x="1552.162109" xlink:href="#DejaVuSans-61"/>
      <use x="1613.441406" xlink:href="#DejaVuSans-5f"/>
      <use x="1663.441406" xlink:href="#DejaVuSans-75"/>
      <use x="1726.820312" xlink:href="#DejaVuSans-6e"/>
      <use x="1790.199219" xlink:href="#DejaVuSans-69"/>
      <use x="1817.982422" xlink:href="#DejaVuSans-76"/>
      <use x="1877.162109" xlink:href="#DejaVuSans-65"/>
      <use x="1938.685547" xlink:href="#DejaVuSans-72"/>
      <use x="1979.798828" xlink:href="#DejaVuSans-73"/>
      <use x="2031.898438" xlink:href="#DejaVuSans-61"/>
      <use x="2093.177734" xlink:href="#DejaVuSans-6c"/>
      <use x="2120.960938" xlink:href="#DejaVuSans-5f"/>
      <use x="2170.960938" xlink:href="#DejaVuSans-61"/>
      <use x="2232.240234" xlink:href="#DejaVuSans-64"/>
      <use x="2295.716797" xlink:href="#DejaVuSans-61"/>
      <use x="2356.996094" xlink:href="#DejaVuSans-70"/>
      <use x="2420.472656" xlink:href="#DejaVuSans-74"/>
      <use x="2459.681641" xlink:href="#DejaVuSans-65"/>
      <use x="2521.205078" xlink:href="#DejaVuSans-72"/>
     </g>
    </g>
    <g id="line2d_45">
     <path d="M 530.588438 315.455394 
L 546.588438 315.455394 
" style="fill:none;stroke:#434348;stroke-linecap:square;"/>
    </g>
    <g id="line2d_46"/>
    <g id="text_26">
     <!-- VS_GEM_50_TAX_10_2 - illumina_universal_adapter -->
     <g transform="translate(552.988438 318.255394)scale(0.08 -0.08)">
      <use xlink:href="#DejaVuSans-56"/>
      <use x="68.408203" xlink:href="#DejaVuSans-53"/>
      <use x="131.884766" xlink:href="#DejaVuSans-5f"/>
      <use x="181.884766" xlink:href="#DejaVuSans-47"/>
      <use x="259.375" xlink:href="#DejaVuSans-45"/>
      <use x="322.558594" xlink:href="#DejaVuSans-4d"/>
      <use x="408.837891" xlink:href="#DejaVuSans-5f"/>
      <use x="458.837891" xlink:href="#DejaVuSans-35"/>
      <use x="522.460938" xlink:href="#DejaVuSans-30"/>
      <use x="586.083984" xlink:href="#DejaVuSans-5f"/>
      <use x="636.083984" xlink:href="#DejaVuSans-54"/>
      <use x="689.417969" xlink:href="#DejaVuSans-41"/>
      <use x="757.826172" xlink:href="#DejaVuSans-58"/>
      <use x="826.332031" xlink:href="#DejaVuSans-5f"/>
      <use x="876.332031" xlink:href="#DejaVuSans-31"/>
      <use x="939.955078" xlink:href="#DejaVuSans-30"/>
      <use x="1003.578125" xlink:href="#DejaVuSans-5f"/>
      <use x="1053.578125" xlink:href="#DejaVuSans-32"/>
      <use x="1117.201172" xlink:href="#DejaVuSans-20"/>
      <use x="1148.988281" xlink:href="#DejaVuSans-2d"/>
      <use x="1185.072266" xlink:href="#DejaVuSans-20"/>
      <use x="1216.859375" xlink:href="#DejaVuSans-69"/>
      <use x="1244.642578" xlink:href="#DejaVuSans-6c"/>
      <use x="1272.425781" xlink:href="#DejaVuSans-6c"/>
      <use x="1300.208984" xlink:href="#DejaVuSans-75"/>
      <use x="1363.587891" xlink:href="#DejaVuSans-6d"/>
      <use x="1461" xlink:href="#DejaVuSans-69"/>
      <use x="1488.783203" xlink:href="#DejaVuSans-6e"/>
      <use x="1552.162109" xlink:href="#DejaVuSans-61"/>
      <use x="1613.441406" xlink:href="#DejaVuSans-5f"/>
      <use x="1663.441406" xlink:href="#DejaVuSans-75"/>
      <use x="1726.820312" xlink:href="#DejaVuSans-6e"/>
      <use x="1790.199219" xlink:href="#DejaVuSans-69"/>
      <use x="1817.982422" xlink:href="#DejaVuSans-76"/>
      <use x="1877.162109" xlink:href="#DejaVuSans-65"/>
      <use x="1938.685547" xlink:href="#DejaVuSans-72"/>
      <use x="1979.798828" xlink:href="#DejaVuSans-73"/>
      <use x="2031.898438" xlink:href="#DejaVuSans-61"/>
      <use x="2093.177734" xlink:href="#DejaVuSans-6c"/>
      <use x="2120.960938" xlink:href="#DejaVuSans-5f"/>
      <use x="2170.960938" xlink:href="#DejaVuSans-61"/>
      <use x="2232.240234" xlink:href="#DejaVuSans-64"/>
      <use x="2295.716797" xlink:href="#DejaVuSans-61"/>
      <use x="2356.996094" xlink:href="#DejaVuSans-70"/>
      <use x="2420.472656" xlink:href="#DejaVuSans-74"/>
      <use x="2459.681641" xlink:href="#DejaVuSans-65"/>
      <use x="2521.205078" xlink:href="#DejaVuSans-72"/>
     </g>
    </g>
    <g id="line2d_47">
     <path d="M 758.574375 291.525394 
L 774.574375 291.525394 
" style="fill:none;stroke:#90ed7d;stroke-linecap:square;"/>
    </g>
    <g id="line2d_48"/>
    <g id="text_27">
     <!-- VS_GEM_50_TAX_10_4 - illumina_universal_adapter -->
     <g transform="translate(780.974375 294.325394)scale(0.08 -0.08)">
      <use xlink:href="#DejaVuSans-56"/>
      <use x="68.408203" xlink:href="#DejaVuSans-53"/>
      <use x="131.884766" xlink:href="#DejaVuSans-5f"/>
      <use x="181.884766" xlink:href="#DejaVuSans-47"/>
      <use x="259.375" xlink:href="#DejaVuSans-45"/>
      <use x="322.558594" xlink:href="#DejaVuSans-4d"/>
      <use x="408.837891" xlink:href="#DejaVuSans-5f"/>
      <use x="458.837891" xlink:href="#DejaVuSans-35"/>
      <use x="522.460938" xlink:href="#DejaVuSans-30"/>
      <use x="586.083984" xlink:href="#DejaVuSans-5f"/>
      <use x="636.083984" xlink:href="#DejaVuSans-54"/>
      <use x="689.417969" xlink:href="#DejaVuSans-41"/>
      <use x="757.826172" xlink:href="#DejaVuSans-58"/>
      <use x="826.332031" xlink:href="#DejaVuSans-5f"/>
      <use x="876.332031" xlink:href="#DejaVuSans-31"/>
      <use x="939.955078" xlink:href="#DejaVuSans-30"/>
      <use x="1003.578125" xlink:href="#DejaVuSans-5f"/>
      <use x="1053.578125" xlink:href="#DejaVuSans-34"/>
      <use x="1117.201172" xlink:href="#DejaVuSans-20"/>
      <use x="1148.988281" xlink:href="#DejaVuSans-2d"/>
      <use x="1185.072266" xlink:href="#DejaVuSans-20"/>
      <use x="1216.859375" xlink:href="#DejaVuSans-69"/>
      <use x="1244.642578" xlink:href="#DejaVuSans-6c"/>
      <use x="1272.425781" xlink:href="#DejaVuSans-6c"/>
      <use x="1300.208984" xlink:href="#DejaVuSans-75"/>
      <use x="1363.587891" xlink:href="#DejaVuSans-6d"/>
      <use x="1461" xlink:href="#DejaVuSans-69"/>
      <use x="1488.783203" xlink:href="#DejaVuSans-6e"/>
      <use x="1552.162109" xlink:href="#DejaVuSans-61"/>
      <use x="1613.441406" xlink:href="#DejaVuSans-5f"/>
      <use x="1663.441406" xlink:href="#DejaVuSans-75"/>
      <use x="1726.820312" xlink:href="#DejaVuSans-6e"/>
      <use x="1790.199219" xlink:href="#DejaVuSans-69"/>
      <use x="1817.982422" xlink:href="#DejaVuSans-76"/>
      <use x="1877.162109" xlink:href="#DejaVuSans-65"/>
      <use x="1938.685547" xlink:href="#DejaVuSans-72"/>
      <use x="1979.798828" xlink:href="#DejaVuSans-73"/>
      <use x="2031.898438" xlink:href="#DejaVuSans-61"/>
      <use x="2093.177734" xlink:href="#DejaVuSans-6c"/>
      <use x="2120.960938" xlink:href="#DejaVuSans-5f"/>
      <use x="2170.960938" xlink:href="#DejaVuSans-61"/>
      <use x="2232.240234" xlink:href="#DejaVuSans-64"/>
      <use x="2295.716797" xlink:href="#DejaVuSans-61"/>
      <use x="2356.996094" xlink:href="#DejaVuSans-70"/>
      <use x="2420.472656" xlink:href="#DejaVuSans-74"/>
      <use x="2459.681641" xlink:href="#DejaVuSans-65"/>
      <use x="2521.205078" xlink:href="#DejaVuSans-72"/>
     </g>
    </g>
    <g id="line2d_49">
     <path d="M 758.574375 303.490394 
L 774.574375 303.490394 
" style="fill:none;stroke:#f7a35c;stroke-linecap:square;"/>
    </g>
    <g id="line2d_50"/>
    <g id="text_28">
     <!-- VS_GEM_50_TAX_10_5 - illumina_universal_adapter -->
     <g transform="translate(780.974375 306.290394)scale(0.08 -0.08)">
      <use xlink:href="#DejaVuSans-56"/>
      <use x="68.408203" xlink:href="#DejaVuSans-53"/>
      <use x="131.884766" xlink:href="#DejaVuSans-5f"/>
      <use x="181.884766" xlink:href="#DejaVuSans-47"/>
      <use x="259.375" xlink:href="#DejaVuSans-45"/>
      <use x="322.558594" xlink:href="#DejaVuSans-4d"/>
      <use x="408.837891" xlink:href="#DejaVuSans-5f"/>
      <use x="458.837891" xlink:href="#DejaVuSans-35"/>
      <use x="522.460938" xlink:href="#DejaVuSans-30"/>
      <use x="586.083984" xlink:href="#DejaVuSans-5f"/>
      <use x="636.083984" xlink:href="#DejaVuSans-54"/>
      <use x="689.417969" xlink:href="#DejaVuSans-41"/>
      <use x="757.826172" xlink:href="#DejaVuSans-58"/>
      <use x="826.332031" xlink:href="#DejaVuSans-5f"/>
      <use x="876.332031" xlink:href="#DejaVuSans-31"/>
      <use x="939.955078" xlink:href="#DejaVuSans-30"/>
      <use x="1003.578125" xlink:href="#DejaVuSans-5f"/>
      <use x="1053.578125" xlink:href="#DejaVuSans-35"/>
      <use x="1117.201172" xlink:href="#DejaVuSans-20"/>
      <use x="1148.988281" xlink:href="#DejaVuSans-2d"/>
      <use x="1185.072266" xlink:href="#DejaVuSans-20"/>
      <use x="1216.859375" xlink:href="#DejaVuSans-69"/>
      <use x="1244.642578" xlink:href="#DejaVuSans-6c"/>
      <use x="1272.425781" xlink:href="#DejaVuSans-6c"/>
      <use x="1300.208984" xlink:href="#DejaVuSans-75"/>
      <use x="1363.587891" xlink:href="#DejaVuSans-6d"/>
      <use x="1461" xlink:href="#DejaVuSans-69"/>
      <use x="1488.783203" xlink:href="#DejaVuSans-6e"/>
      <use x="1552.162109" xlink:href="#DejaVuSans-61"/>
      <use x="1613.441406" xlink:href="#DejaVuSans-5f"/>
      <use x="1663.441406" xlink:href="#DejaVuSans-75"/>
      <use x="1726.820312" xlink:href="#DejaVuSans-6e"/>
      <use x="1790.199219" xlink:href="#DejaVuSans-69"/>
      <use x="1817.982422" xlink:href="#DejaVuSans-76"/>
      <use x="1877.162109" xlink:href="#DejaVuSans-65"/>
      <use x="1938.685547" xlink:href="#DejaVuSans-72"/>
      <use x="1979.798828" xlink:href="#DejaVuSans-73"/>
      <use x="2031.898438" xlink:href="#DejaVuSans-61"/>
      <use x="2093.177734" xlink:href="#DejaVuSans-6c"/>
      <use x="2120.960938" xlink:href="#DejaVuSans-5f"/>
      <use x="2170.960938" xlink:href="#DejaVuSans-61"/>
      <use x="2232.240234" xlink:href="#DejaVuSans-64"/>
      <use x="2295.716797" xlink:href="#DejaVuSans-61"/>
      <use x="2356.996094" xlink:href="#DejaVuSans-70"/>
      <use x="2420.472656" xlink:href="#DejaVuSans-74"/>
      <use x="2459.681641" xlink:href="#DejaVuSans-65"/>
      <use x="2521.205078" xlink:href="#DejaVuSans-72"/>
     </g>
    </g>
    <g id="line2d_51">
     <path d="M 758.574375 315.455394 
L 774.574375 315.455394 
" style="fill:none;stroke:#8085e9;stroke-linecap:square;"/>
    </g>
    <g id="line2d_52"/>
    <g id="text_29">
     <!-- VS_GEM_50_TAX_10_6 - illumina_universal_adapter -->
     <g transform="translate(780.974375 318.255394)scale(0.08 -0.08)">
      <use xlink:href="#DejaVuSans-56"/>
      <use x="68.408203" xlink:href="#DejaVuSans-53"/>
      <use x="131.884766" xlink:href="#DejaVuSans-5f"/>
      <use x="181.884766" xlink:href="#DejaVuSans-47"/>
      <use x="259.375" xlink:href="#DejaVuSans-45"/>
      <use x="322.558594" xlink:href="#DejaVuSans-4d"/>
      <use x="408.837891" xlink:href="#DejaVuSans-5f"/>
      <use x="458.837891" xlink:href="#DejaVuSans-35"/>
      <use x="522.460938" xlink:href="#DejaVuSans-30"/>
      <use x="586.083984" xlink:href="#DejaVuSans-5f"/>
      <use x="636.083984" xlink:href="#DejaVuSans-54"/>
      <use x="689.417969" xlink:href="#DejaVuSans-41"/>
      <use x="757.826172" xlink:href="#DejaVuSans-58"/>
      <use x="826.332031" xlink:href="#DejaVuSans-5f"/>
      <use x="876.332031" xlink:href="#DejaVuSans-31"/>
      <use x="939.955078" xlink:href="#DejaVuSans-30"/>
      <use x="1003.578125" xlink:href="#DejaVuSans-5f"/>
      <use x="1053.578125" xlink:href="#DejaVuSans-36"/>
      <use x="1117.201172" xlink:href="#DejaVuSans-20"/>
      <use x="1148.988281" xlink:href="#DejaVuSans-2d"/>
      <use x="1185.072266" xlink:href="#DejaVuSans-20"/>
      <use x="1216.859375" xlink:href="#DejaVuSans-69"/>
      <use x="1244.642578" xlink:href="#DejaVuSans-6c"/>
      <use x="1272.425781" xlink:href="#DejaVuSans-6c"/>
      <use x="1300.208984" xlink:href="#DejaVuSans-75"/>
      <use x="1363.587891" xlink:href="#DejaVuSans-6d"/>
      <use x="1461" xlink:href="#DejaVuSans-69"/>
      <use x="1488.783203" xlink:href="#DejaVuSans-6e"/>
      <use x="1552.162109" xlink:href="#DejaVuSans-61"/>
      <use x="1613.441406" xlink:href="#DejaVuSans-5f"/>
      <use x="1663.441406" xlink:href="#DejaVuSans-75"/>
      <use x="1726.820312" xlink:href="#DejaVuSans-6e"/>
      <use x="1790.199219" xlink:href="#DejaVuSans-69"/>
      <use x="1817.982422" xlink:href="#DejaVuSans-76"/>
      <use x="1877.162109" xlink:href="#DejaVuSans-65"/>
      <use x="1938.685547" xlink:href="#DejaVuSans-72"/>
      <use x="1979.798828" xlink:href="#DejaVuSans-73"/>
      <use x="2031.898438" xlink:href="#DejaVuSans-61"/>
      <use x="2093.177734" xlink:href="#DejaVuSans-6c"/>
      <use x="2120.960938" xlink:href="#DejaVuSans-5f"/>
      <use x="2170.960938" xlink:href="#DejaVuSans-61"/>
      <use x="2232.240234" xlink:href="#DejaVuSans-64"/>
      <use x="2295.716797" xlink:href="#DejaVuSans-61"/>
      <use x="2356.996094" xlink:href="#DejaVuSans-70"/>
      <use x="2420.472656" xlink:href="#DejaVuSans-74"/>
      <use x="2459.681641" xlink:href="#DejaVuSans-65"/>
      <use x="2521.205078" xlink:href="#DejaVuSans-72"/>
     </g>
    </g>
   </g>
  </g>
 </g>
 <defs>
  <clipPath id="pc571cf03ff">
   <rect height="242.5072" width="960.19" x="32.968125" y="31.48286"/>
  </clipPath>
 </defs>
</svg>
